<?xml version="1.0" standalone="no"?>
<!DOCTYPE svg PUBLIC "-//W3C//DTD SVG 1.1//EN" "http://www.w3.org/Graphics/SVG/1.1/DTD/svg11.dtd" >
<svg xmlns="http://www.w3.org/2000/svg" xmlns:xlink="http://www.w3.org/1999/xlink" version="1.1">
<metadata>
Created by FontForge 20170731 at Thu Jan 21 20:32:38 2021
 By Aleksey,,,
</metadata>
<defs>
<font id="klimabold_italic" horiz-adv-x="1198" >
  <font-face 
    font-family="klimabold_/italic"
    font-weight="400"
    font-stretch="normal"
    units-per-em="2048"
    panose-1="2 0 8 3 0 0 0 0 0 0"
    ascent="1565"
    descent="-483"
    x-height="1094"
    cap-height="1454"
    bbox="-183.509 -578 2232 2531"
    underline-thickness="0"
    underline-position="0"
    unicode-range="U+0009-F6C3"
  />
<missing-glyph horiz-adv-x="378" 
 />
    <glyph glyph-name=".notdef" horiz-adv-x="378" 
 />
    <glyph glyph-name=".notdef" horiz-adv-x="378" 
 />
    <glyph glyph-name="glyph1" horiz-adv-x="0" 
 />
    <glyph glyph-name="uni000D" unicode="&#xd;" horiz-adv-x="481" 
 />
    <glyph glyph-name="space" unicode=" " horiz-adv-x="378" 
 />
    <glyph glyph-name="uni0009" unicode="&#x9;" horiz-adv-x="378" 
 />
    <glyph glyph-name="uni00A0" unicode="&#xa0;" horiz-adv-x="378" 
 />
    <glyph glyph-name="exclam" unicode="!" horiz-adv-x="624" 
d="M72 137q7 69 52.5 109.5t111.5 40.5q67 0 104.5 -40.5t30.5 -109.5q-9 -70 -55 -110.5t-113 -40.5q-66 0 -103 41t-28 110zM164 938l76 516h354l-78 -516l-178 -520h-154z" />
    <glyph glyph-name="quotedbl" unicode="&#x22;" horiz-adv-x="899" 
d="M154 969l71 485h246l-72 -485h-245zM547 969l71 485h246l-71 -485h-246z" />
    <glyph glyph-name="numbersign" unicode="#" horiz-adv-x="1574" 
d="M61 340l35 246h254l76 286h-291l33 232h317l93 350h247l-92 -350h295l92 350h246l-92 -350h237l-32 -232h-265l-75 -286h301l-35 -246h-332l-88 -340h-244l88 340h-297l-88 -340h-247l88 340h-224zM598 586h297l74 286h-295z" />
    <glyph glyph-name="dollar" unicode="$" horiz-adv-x="1284" 
d="M-14 215l243 221q60 -72 155 -116t210 -44q84 0 144 39t69 103q9 78 -44 120.5t-177 51.5q-92 7 -171.5 36.5t-143 81t-93.5 134.5t-16 186q25 174 146.5 289.5t312.5 146.5l26 195h266l-26 -195q216 -38 340 -188l-240 -209q-39 51 -119 85t-166 34q-102 0 -158.5 -38.5
t-64.5 -107.5q-10 -73 47.5 -104t186.5 -39q79 -4 146 -22t126 -54t97.5 -88t55 -129.5t3.5 -173.5q-25 -182 -149.5 -295t-309.5 -145l-31 -215h-268l31 213q-133 22 -248 82t-180 145z" />
    <glyph glyph-name="percent" unicode="%" horiz-adv-x="1748" 
d="M119 0l1227 1454h270l-1225 -1454h-272zM119 1118q0 159 97 257t237 98q143 0 239 -95t96 -256q0 -174 -93.5 -267t-239.5 -93q-141 0 -238.5 97t-97.5 259zM322 1114q0 -73 37.5 -114.5t97.5 -41.5q58 0 96.5 44t38.5 116q0 68 -37 111t-98 43q-59 0 -97 -44t-38 -114z
M965 342q0 159 97 257.5t236 98.5q143 0 239.5 -95.5t96.5 -256.5q0 -173 -94.5 -266.5t-239.5 -93.5q-140 0 -237.5 97.5t-97.5 258.5zM1165 340q0 -74 38.5 -115t99.5 -41q58 0 96.5 43t38.5 115q0 68 -37 111t-98 43q-59 0 -98.5 -44t-39.5 -112z" />
    <glyph glyph-name="ampersand" unicode="&#x26;" horiz-adv-x="1413" 
d="M16 416q22 144 110 247t222 166q-3 7 -22 45.5t-31 68t-20 79.5t-1 98q23 147 148 251t315 104q87 0 158.5 -30.5t115 -81.5t62.5 -117t8 -136q-19 -129 -111.5 -223t-221.5 -144q-1 0 41 -57.5t84 -114.5l42 -57l119 121h328l-311 -324l202 -311h-327l-88 127
q-47 -42 -89 -69t-125 -51t-186 -25q-200 0 -324.5 125t-97.5 309zM311 434q-11 -80 38 -133t136 -53q58 0 114.5 27t94.5 67l-209 287q-154 -65 -174 -195zM551 1100q-12 -75 63 -166q81 27 130 68.5t55 95.5q9 61 -19 97t-86 36q-52 0 -93 -36t-50 -95z" />
    <glyph glyph-name="quotesingle" unicode="'" horiz-adv-x="491" 
d="M154 969l71 485h246l-72 -485h-245z" />
    <glyph glyph-name="parenleft" unicode="(" horiz-adv-x="686" 
d="M61 721q76 588 461 967l199 -191q-162 -169 -247 -355t-120 -421q-33 -230 7.5 -441.5t144.5 -373.5l-236 -174q-138 197 -191.5 455.5t-17.5 533.5z" />
    <glyph glyph-name="parenright" unicode=")" horiz-adv-x="696" 
d="M-80 -102q162 169 247 355t120 421q33 230 -7.5 441.5t-144.5 373.5l236 174q138 -197 191.5 -455.5t17.5 -533.5q-76 -588 -461 -967z" />
    <glyph glyph-name="asterisk" unicode="*" horiz-adv-x="894" 
d="M139 1130l64 185l182 -70l10 219h193l-21 -219l203 70l47 -182l-203 -60l113 -172l-156 -110l-104 174l-133 -174l-146 116l140 166z" />
    <glyph glyph-name="plus" unicode="+" horiz-adv-x="1280" 
d="M145 557l37 260h334l47 340h273l-50 -340h336l-37 -260h-333l-50 -342h-272l49 342h-334z" />
    <glyph glyph-name="comma" unicode="," horiz-adv-x="548" 
d="M-45 -240l156 465h290l-206 -465h-240z" />
    <glyph glyph-name="hyphen" unicode="-" horiz-adv-x="890" 
d="M88 510l41 287h653l-41 -287h-653z" />
    <glyph glyph-name="period" unicode="." horiz-adv-x="524" 
d="M18 145q4 77 49 119.5t121 42.5q74 0 117 -43t39 -119q-4 -77 -50.5 -120t-119.5 -43q-76 0 -118 43t-38 120z" />
    <glyph glyph-name="slash" unicode="/" horiz-adv-x="999" 
d="M10 0l666 1452h313l-670 -1452h-309z" />
    <glyph glyph-name="zero" unicode="0" horiz-adv-x="1361" 
d="M81.5 451.5q-15.5 120.5 6.5 273.5q26 185 90.5 329t156.5 235.5t205.5 138.5t243.5 47q118 0 216.5 -47t169.5 -137t99.5 -235.5t2.5 -328.5q-26 -188 -91 -332.5t-157.5 -234.5t-205.5 -135t-243 -45q-94 0 -175.5 28.5t-149 87t-110.5 147t-58.5 209zM408 723
q-62 -449 208 -449q57 0 107 23t96.5 73.5t81 140.5t51.5 214q16 130 9.5 218t-38.5 141.5t-76 76.5t-104 23q-62 0 -112.5 -23.5t-95 -75.5t-77 -143t-50.5 -219z" />
    <glyph glyph-name="one" unicode="1" horiz-adv-x="782" 
d="M117 1116l24 225l326 113h256l-205 -1454h-319l161 1139z" />
    <glyph glyph-name="two" unicode="2" horiz-adv-x="1212" 
d="M0 0l31 213l581 551q15 14 48.5 45.5t48.5 46t39.5 41t36 45t22.5 42t14 46.5q11 70 -33.5 115t-132.5 45q-87 -1 -140.5 -41.5t-76.5 -101.5h-303q21 85 68.5 161t117.5 135.5t167 94.5t208 35q221 0 347 -122.5t100 -312.5q-4 -30 -12 -58.5t-15 -50.5t-23.5 -50
t-24.5 -43.5t-33 -44t-33 -39t-39.5 -41.5t-38.5 -38l-46 -42l-44 -41l-318 -293h543l-43 -297h-1016z" />
    <glyph glyph-name="three" unicode="3" horiz-adv-x="1243" 
d="M23 416h313q3 -61 63 -102.5t140 -41.5q92 0 157.5 49.5t77.5 133.5q13 88 -59 129t-234 43l33 239q145 0 225.5 44t91.5 124q9 71 -36 111.5t-140 40.5q-165 0 -235 -139h-283q30 135 119 233.5t205.5 145.5t247.5 47q97 0 182 -27t147.5 -76.5t93.5 -126t19 -168.5
q-7 -58 -28 -107.5t-47 -82.5t-59 -59.5t-60 -40.5t-54 -23q42 -13 79 -37t69.5 -62.5t47.5 -97t5 -127.5q-30 -210 -187 -334.5t-415 -123.5q-60 -1 -124.5 14.5t-129 50t-115 84t-81.5 124.5t-29 163z" />
    <glyph glyph-name="four" unicode="4" horiz-adv-x="1273" 
d="M4 281l39 239l696 934h400l-127 -909h157l-39 -264h-157l-39 -281h-320l39 281h-649zM336 549h358l78 575z" />
    <glyph glyph-name="five" unicode="5" horiz-adv-x="1236" 
d="M25 408h317q12 -64 64 -104t129 -40q104 0 171.5 59.5t81.5 159.5q15 98 -38 155.5t-144 57.5q-74 0 -129 -30.5t-86 -81.5l-291 49l179 821h870l-39 -270h-625l-51 -277q5 7 31.5 22t87.5 31.5t129 16.5q93 0 175 -30t145.5 -88t93.5 -154.5t14 -217.5
q-35 -244 -198.5 -378t-403.5 -134q-201 0 -341 126.5t-142 306.5z" />
    <glyph glyph-name="six" unicode="6" horiz-adv-x="1294" 
d="M49 496q10 72 38 143.5t74.5 144t80 118t90.5 116.5q11 13 16 20l334 424h367l-422 -534q35 45 157 45q55 0 114.5 -19t115.5 -59t97.5 -95t61 -134.5t5.5 -169.5q-14 -99 -54.5 -182.5t-100 -144t-135.5 -102.5t-161.5 -62.5t-177.5 -20.5q-79 0 -156.5 21.5t-145.5 65
t-117 103.5t-71.5 143.5t-9.5 178.5zM383 502q-13 -98 44 -160.5t155 -62.5q106 3 176.5 63t85.5 160q13 101 -44.5 161t-154.5 60q-99 0 -173 -61t-89 -160z" />
    <glyph glyph-name="seven" unicode="7" horiz-adv-x="1148" 
d="M82 0l692 1171h-657l41 283h1016l-35 -246l-705 -1208h-352z" />
    <glyph glyph-name="eight" unicode="8" horiz-adv-x="1275" 
d="M35 412q10 73 42 136t74.5 105t78 68t69.5 43q-137 131 -115 293q27 180 181.5 299t375.5 119q134 0 240 -54.5t160 -151t37 -212.5q-14 -99 -78 -178.5t-131 -112.5q22 -10 46.5 -27t54 -48.5t50.5 -69t31.5 -93t1.5 -116.5q-17 -120 -92 -216.5t-210.5 -156
t-309.5 -59.5q-247 0 -388.5 124.5t-117.5 307.5zM375 428q-9 -74 45.5 -125t152.5 -51q97 0 165.5 50t80.5 130q6 46 -7.5 80.5t-49.5 58.5t-69.5 38t-90.5 32q-208 -67 -227 -213zM498 1057q-9 -70 34 -122t125 -71q78 12 139.5 68t71.5 127q9 67 -35 114.5t-126 47.5
q-81 0 -139.5 -48t-69.5 -116z" />
    <glyph glyph-name="nine" unicode="9" horiz-adv-x="1296" 
d="M119 940q16 117 71.5 217t139.5 170.5t195 110t235 39.5q108 0 203 -38.5t162 -106t98.5 -167t15.5 -215.5q-10 -68 -34.5 -136t-49 -116.5t-70.5 -114t-72.5 -99.5t-82.5 -101l-318 -383h-374l411 487q-29 -32 -139 -32q-57 0 -116.5 19t-115 59.5t-96 96t-59 136.5
t-4.5 174zM446 952q-15 -103 41.5 -170t151.5 -67q94 0 167.5 66.5t90.5 170.5q13 105 -40 170.5t-150 65.5q-99 0 -172.5 -64.5t-88.5 -171.5z" />
    <glyph glyph-name="colon" unicode=":" horiz-adv-x="622" 
d="M74 176q0 74 44.5 118t117.5 44q72 0 117.5 -44t45.5 -118q0 -75 -45.5 -119.5t-117.5 -44.5q-73 0 -117.5 44t-44.5 120zM174 891q0 75 45.5 119.5t118.5 44.5q71 0 117.5 -44.5t46.5 -119.5q0 -73 -48 -118.5t-116 -45.5q-73 0 -118.5 45t-45.5 119z" />
    <glyph glyph-name="semicolon" unicode=";" horiz-adv-x="624" 
d="M-27 -233l156 464h291l-207 -464h-240zM92 866q4 77 49 119.5t121 42.5q74 0 117 -43t39 -119q-4 -77 -50.5 -120.5t-119.5 -43.5q-76 0 -118 43.5t-38 120.5z" />
    <glyph glyph-name="less" unicode="&#x3c;" horiz-adv-x="1036" 
d="M68 440l30 224l856 440l-45 -316l-491 -237l428 -227l-45 -320z" />
    <glyph glyph-name="equal" unicode="=" horiz-adv-x="1404" 
d="M172 293l37 258h938l-37 -258h-938zM244 801l37 258h938l-37 -258h-938z" />
    <glyph glyph-name="greater" unicode="&#x3e;" horiz-adv-x="1036" 
d="M31 -2l45 315l491 238l-428 227l45 320l734 -436l-31 -224z" />
    <glyph glyph-name="question" unicode="?" horiz-adv-x="1161" 
d="M117 1028q35 199 191 319.5t368 120.5q185 0 297.5 -115.5t103.5 -283.5q-2 -52 -13.5 -97t-34 -83t-43.5 -66t-56.5 -57.5t-57.5 -46t-62.5 -44t-55.5 -38.5q-152 -109 -158 -227h-262q5 76 32 143.5t71.5 119t85 86t91.5 68.5q87 56 124 99t46 110q11 63 -32 108.5
t-127 45.5q-74 0 -136.5 -40t-87.5 -120zM274 131q3 69 47 109.5t111 40.5q68 0 106 -40t35 -110t-44.5 -109.5t-108.5 -39.5q-69 0 -109 40t-37 109z" />
    <glyph glyph-name="at" unicode="@" horiz-adv-x="1923" 
d="M139 641q27 173 114 325.5t213 259.5t287 168.5t332 61.5t310 -60t228 -165.5t126.5 -254.5t11.5 -321q-37 -244 -163.5 -388t-280.5 -144q-94 0 -164 51.5t-92 151.5q-21 -29 -71.5 -51.5t-102.5 -22.5q-155 -1 -235.5 114t-55.5 279q25 159 136 266.5t253 106.5
q63 0 104.5 -32.5t49.5 -74.5l43 82l141 -2l-61 -397q-44 -257 71 -254q147 0 193 317q39 256 -93 421.5t-380 164.5q-163 -1 -309 -80.5t-244 -216.5t-123 -303q-13 -88 -0.5 -173.5t51.5 -159.5t99.5 -131t148.5 -89.5t194 -32.5q51 0 93.5 6.5t59.5 12.5l17 6
q3 -13 7.5 -34t13.5 -66t15 -74.5t5 -28.5q-78 -39 -239 -39q-165 0 -307 60.5t-238 165.5t-140 255t-18 320zM817 635q-14 -92 18 -142.5t95 -50.5q57 2 97 48.5t54 140.5q15 99 -11 151t-87 52t-107 -54t-59 -145z" />
    <glyph glyph-name="A" unicode="A" horiz-adv-x="1443" 
d="M-66 0l723 1454h328l320 -1454h-320l-53 262h-541l-125 -262h-332zM514 518h365l-111 535z" />
    <glyph glyph-name="B" unicode="B" horiz-adv-x="1316" 
d="M41 0l205 1454h493q119 0 214.5 -34.5t152.5 -92.5q58 -59 84 -133q18 -51 18 -105q0 -25 -4 -51q-13 -94 -68 -169t-124 -99q69 -21 116 -74q48 -52 66 -122q12 -45 11 -92q0 -26 -3 -52q-10 -68 -33 -127t-69 -116t-111.5 -97.5t-166 -65t-226.5 -24.5h-555zM391 264
h225q240 0 265 185q2 16 2 30q-1 64 -45 101q-54 45 -170 45h-226zM473 850h199q96 0 150 46t63 124q2 14 2 28q-1 56 -37 94q-46 48 -145 48h-183z" />
    <glyph glyph-name="C" unicode="C" horiz-adv-x="1466" 
d="M78 735q22 149 75 272.5t127.5 210t168 146t195.5 87.5t210 28q160 0 290 -66.5t204 -188.5q68 -113 67 -255v-23h-315q-4 114 -83.5 181t-199.5 67q-52 0 -102.5 -13.5t-103 -47.5t-95 -85t-76 -131.5t-47.5 -181.5q-10 -64 -10 -118q1 -35 5 -67q10 -80 35.5 -135
t68.5 -89.5t92 -50t106 -15.5q125 0 222 71.5t130 182.5h316q-40 -183 -143.5 -305t-246.5 -177t-325 -55q-95 0 -183.5 26t-168 85.5t-134.5 145.5t-77 216q-12 67 -12 141q0 69 10 144z" />
    <glyph glyph-name="D" unicode="D" horiz-adv-x="1404" 
d="M39 0l205 1454h483q147 0 268.5 -47.5t206 -136t120.5 -226.5q22 -83 23 -179q0 -63 -10 -130q-53 -377 -257.5 -556t-555.5 -179h-483zM391 291h172q400 0 461 444q8 54 8 102q0 142 -70 221q-93 105 -276 105h-172z" />
    <glyph glyph-name="E" unicode="E" horiz-adv-x="1251" 
d="M41 0l205 1454h991l-39 -283h-678l-43 -305h533l-41 -272h-531l-43 -311h682l-39 -283h-997z" />
    <glyph glyph-name="F" unicode="F" horiz-adv-x="1220" 
d="M41 0l205 1452h995l-41 -291h-684l-45 -323h512l-39 -279h-512l-80 -559h-311z" />
    <glyph glyph-name="G" unicode="G" horiz-adv-x="1470" 
d="M77 442q-11 61 -11 130q0 73 12 155q25 182 99 327t179 236t231.5 138.5t264.5 48.5q157 0 285.5 -62.5t202.5 -180.5q69 -110 69 -248v-19h-313q-3 88 -80.5 157.5t-202.5 69.5q-150 0 -270 -121t-152 -346q-8 -66 -8 -122q0 -51 7 -93q13 -88 56.5 -144.5t102 -82
t133.5 -25.5q145 0 240.5 72.5t117.5 216.5h-258l35 244h576l-21 -150q-93 -666 -731 -666q-100 0 -189.5 26.5t-169 82.5t-131 144t-74.5 212z" />
    <glyph glyph-name="H" unicode="H" horiz-adv-x="1413" 
d="M43 0l205 1454h313l-82 -577h496l82 577h313l-205 -1454h-313l84 586h-498l-82 -586h-313z" />
    <glyph glyph-name="I" unicode="I" horiz-adv-x="602" 
d="M41 0l205 1454h313l-205 -1454h-313z" />
    <glyph glyph-name="J" unicode="J" horiz-adv-x="1087" 
d="M-63 178l249 187q85 -99 185 -99q199 0 237 260l131 928h312l-131 -926q-74 -548 -590 -548q-116 0 -228.5 56t-164.5 142z" />
    <glyph glyph-name="K" unicode="K" horiz-adv-x="1411" 
d="M41 0l205 1454h313l-82 -588l565 588h410l-606 -637l440 -817h-375l-319 600l-176 -170l-62 -430h-313z" />
    <glyph glyph-name="L" unicode="L" horiz-adv-x="1187" 
d="M41 0l205 1454h313l-164 -1173h649l-38 -281h-965z" />
    <glyph glyph-name="M" unicode="M" horiz-adv-x="1744" 
d="M41 0l205 1454h301l307 -799l539 799h311l-205 -1454h-313l119 883l-445 -699h-147l-234 690l-125 -874h-313z" />
    <glyph glyph-name="N" unicode="N" horiz-adv-x="1478" 
d="M41 0l205 1454h307l436 -899l133 899h314l-205 -1454h-316l-438 891l-123 -891h-313z" />
    <glyph glyph-name="O" unicode="O" horiz-adv-x="1482" 
d="M78 733q26 181 95.5 324t171.5 235t229 139.5t272 47.5q137 0 250 -48.5t191.5 -140t111.5 -235.5q19 -82 19 -175q0 -70 -11 -147q-53 -366 -258 -559.5t-514 -193.5q-134 0 -245.5 48t-191.5 140q-79 90 -112 236q-19 83 -19 178q0 72 11 151zM392 514q14 -90 58 -146
t100.5 -81t125.5 -25q74 0 139 26t122 80.5t97.5 147.5t57.5 217q9 59 9 110q-1 35 -5 67q-10 76 -35.5 130.5t-67 88.5t-88 49.5t-100.5 15.5q-68 0 -131.5 -25.5t-121.5 -77.5t-100 -144t-59 -214q-8 -67 -8 -123q0 -53 7 -96z" />
    <glyph glyph-name="P" unicode="P" horiz-adv-x="1302" 
d="M41 0l205 1454h528q135 0 237 -39.5t160 -107t81 -153.5q15 -55 15 -113q0 -33 -5 -68q-14 -96 -55.5 -179.5t-112.5 -152t-181 -108t-247 -39.5h-244l-70 -494h-311zM463 784h213q108 0 182 46t88 145q2 16 2 30q0 32 -10 59q-16 38 -49 59t-73.5 30.5t-88.5 9.5h-211z
" />
    <glyph glyph-name="Q" unicode="Q" horiz-adv-x="1460" 
d="M78 733q26 181 95.5 324t171.5 235t229 139.5t272 47.5q137 0 250 -48.5t191.5 -140t111.5 -235.5q19 -82 19 -175q0 -70 -11 -147q-49 -330 -219 -518l125 -156l-254 -200l-139 170q-128 -49 -285 -49q-134 0 -245.5 48t-191 139.5t-112.5 236.5q-19 83 -19 178
q0 72 11 151zM392 514q14 -89 58 -145.5t100.5 -81.5t125.5 -25q74 0 139 26t122 80.5t97.5 147.5t57.5 217q9 59 9 110q0 36 -5 67q-10 77 -35.5 131t-67 88t-88 49.5t-100.5 15.5q-68 0 -131.5 -25.5t-121.5 -77.5t-100 -144t-59 -214q-8 -67 -8 -123q0 -52 7 -96z" />
    <glyph glyph-name="R" unicode="R" horiz-adv-x="1363" 
d="M41 0l205 1454h520q140 0 247 -37.5t170 -102.5q63 -66 89 -152q17 -56 17 -118q0 -34 -5 -69q-19 -133 -97 -235t-212 -156l201 -584h-342l-158 510h-252l-72 -510h-311zM465 788h211q245 0 272 197q3 18 3 33q0 72 -53 110q-64 46 -169 46h-211z" />
    <glyph glyph-name="S" unicode="S" horiz-adv-x="1241" 
d="M-10 215l225 209q56 -68 151 -113t195 -45q227 0 246 152q2 16 2 30q1 60 -41 89q-52 36 -190 57q-73 11 -137 33t-121 59t-95.5 86t-56.5 118q-11 42 -10 89q0 29 4 61q27 194 182.5 314.5t398.5 120.5q148 0 266.5 -51t196.5 -136l-215 -211q-41 44 -133 83.5
t-172 39.5q-97 0 -158.5 -40.5t-70.5 -108.5q-1 -10 -1 -19q0 -59 50 -88q58 -33 196 -49q101 -12 184.5 -46t145 -89.5t88.5 -139.5q17 -52 16 -111q0 -37 -6 -77q-36 -223 -194 -339t-410 -116q-168 0 -308 67t-228 171z" />
    <glyph glyph-name="T" unicode="T" horiz-adv-x="1257" 
d="M131 1180l39 272h1124l-39 -272h-407l-164 -1180h-313l164 1180h-404z" />
    <glyph glyph-name="U" unicode="U" horiz-adv-x="1390" 
d="M88 376q-9 50 -9 106q0 58 9 122l121 850h313l-119 -848q-6 -43 -6 -80q-1 -107 51 -168q70 -82 185 -82q58 0 109 19t95 58t74.5 103.5t42.5 149.5l119 848h313l-118 -850q-22 -155 -84.5 -275.5t-153.5 -196t-202.5 -114t-237.5 -38.5q-96 0 -179 24t-151 73.5
t-111 124t-61 174.5z" />
    <glyph glyph-name="V" unicode="V" horiz-adv-x="1376" 
d="M150 1452h331l172 -963l441 963h338l-687 -1452h-319z" />
    <glyph glyph-name="W" unicode="W" horiz-adv-x="1925" 
d="M139 1454h326l102 -924l394 879h215l137 -883l346 928h334l-592 -1454h-307l-127 733l-334 -733h-301z" />
    <glyph glyph-name="X" unicode="X" horiz-adv-x="1400" 
d="M-57 0l559 731l-348 723h368l207 -475l346 475h369l-559 -727l348 -727h-359l-217 463l-352 -463h-362z" />
    <glyph glyph-name="Y" unicode="Y" horiz-adv-x="1337" 
d="M139 1454h350l199 -577l354 577h361l-610 -911l-76 -543h-311l75 543z" />
    <glyph glyph-name="Z" unicode="Z" horiz-adv-x="1220" 
d="M-35 0l41 299l774 856h-633l43 299h1037l-43 -293l-778 -862h673l-43 -299h-1071z" />
    <glyph glyph-name="bracketleft" unicode="[" horiz-adv-x="741" 
d="M2 -188l252 1796h524l-39 -281h-215l-174 -1233h217l-39 -282h-526z" />
    <glyph glyph-name="backslash" unicode="\" horiz-adv-x="1001" 
d="M162 1452h307l371 -1452h-305z" />
    <glyph glyph-name="bracketright" unicode="]" horiz-adv-x="741" 
d="M-72 -190l39 280h215l174 1233h-217l39 283h527l-252 -1796h-525z" />
    <glyph glyph-name="asciicircum" unicode="^" horiz-adv-x="968" 
d="M90 973l365 481h280l215 -481h-293l-96 246l-178 -246h-293z" />
    <glyph glyph-name="uni005F_slash" horiz-adv-x="1218" 
d="M-127 -264l37 264h1194l-37 -264h-1194z" />
    <glyph glyph-name="grave" unicode="`" horiz-adv-x="528" 
d="M121 1411l330 184l104 -413h-258z" />
    <glyph glyph-name="a" unicode="a" horiz-adv-x="1284" 
d="M57 551q16 117 59.5 213t101 159.5t128 107.5t141 63.5t140.5 19.5q92 0 174.5 -41t103.5 -94l60 115h254l-164 -1094h-242l-14 125q-45 -63 -133.5 -101t-182.5 -38q-67 0 -133.5 21t-126.5 67t-102.5 110.5t-60.5 159.5q-10 52 -10 109q0 47 7 98zM371 553
q-5 -38 -5 -71q0 -36 6 -68q12 -60 41.5 -95t67.5 -52t82 -17q97 0 175 77t100 226q6 41 6 77q0 94 -40 146q-56 74 -157 74q-33 0 -66.5 -9t-67.5 -31.5t-62 -55.5t-49.5 -85t-30.5 -116z" />
    <glyph glyph-name="b" unicode="b" horiz-adv-x="1286" 
d="M23 0l204 1454h328l-66 -471q33 54 123.5 92.5t178.5 38.5q67 0 129 -19.5t118.5 -61.5t93 -108.5t52.5 -159.5q8 -44 7 -94q0 -56 -9 -120q-19 -141 -71.5 -251t-128.5 -177.5t-166.5 -102t-192.5 -34.5q-95 0 -183 42t-118 97l-39 -125h-260zM403 553q-6 -39 -6 -74
q0 -95 43 -153q58 -80 164 -80q95 0 171 78t97 229q6 44 6 81q0 94 -39 146q-55 72 -159 72q-95 0 -175 -76t-102 -223z" />
    <glyph glyph-name="c" unicode="c" 
d="M51 541q19 136 77.5 247t142 183t186 110.5t211.5 38.5q91 0 171 -26t143 -76t99.5 -131.5t36.5 -184.5h-309q-4 74 -51.5 113t-128.5 39q-43 0 -84.5 -17.5t-81 -53t-68.5 -98.5t-41 -146q-5 -39 -6 -73q0 -97 45 -152q60 -74 152 -74q77 0 134 35t83 100h309
q-57 -199 -202.5 -298.5t-360.5 -99.5q-77 0 -150 23t-135.5 70.5t-106.5 113.5t-62 158q-10 51 -10 107q0 45 7 92z" />
    <glyph glyph-name="d" unicode="d" horiz-adv-x="1286" 
d="M53 551q16 117 59 213t100.5 160t128 107.5t141.5 63t141 19.5q85 0 155.5 -36.5t87.5 -88.5l68 465h328l-205 -1454h-252l-10 125q-45 -63 -134.5 -101t-181.5 -38q-69 0 -135.5 21t-126 67t-101.5 110.5t-60 159.5q-10 52 -10 109q0 47 7 98zM369 553q-5 -35 -5 -66
q0 -39 8 -72q14 -60 45 -93t68 -49.5t78 -16.5q42 0 83.5 17.5t80.5 51.5t68 93t39 135q5 37 5 70q1 35 -5 65q-12 58 -41 91.5t-66.5 50t-81.5 16.5t-85.5 -15t-81 -47t-69 -91.5t-40.5 -139.5z" />
    <glyph glyph-name="e" unicode="e" 
d="M51 541q19 136 76.5 247t140 181t182 107.5t205.5 37.5q102 0 189 -33t152 -97q66 -63 94 -169q17 -65 17 -140q0 -48 -7 -100l-19 -118h-751l-2 -26q0 -86 62 -141q70 -63 181 -63q85 0 171 30t145 71l104 -209q-84 -63 -200.5 -101t-253.5 -38q-110 0 -204.5 34.5
t-165.5 101.5t-103 177q-20 68 -21 147q0 48 8 101zM356 653h463q4 24 4 46q-1 71 -45 115q-58 58 -157 58q-90 0 -164 -59t-101 -160z" />
    <glyph glyph-name="f" unicode="f" horiz-adv-x="806" 
d="M86 856l33 238h139l4 26q26 192 135 285.5t312 93.5q23 0 73 -3l49 -3l-30 -227q-27 2 -50 2q-82 0 -117 -22q-46 -29 -56 -126l-5 -26h201l-33 -238h-186l-121 -856h-330l119 856h-137z" />
    <glyph glyph-name="g" unicode="g" horiz-adv-x="1255" 
d="M-31 -326l201 203q100 -96 246 -96q257 0 291 239l8 72q-37 -52 -103 -84.5t-157 -32.5q-69 0 -132 21t-119 65t-93 112t-53 161q-7 44 -7 92q0 57 10 121q16 115 57 211t96 161t123 110.5t137.5 66t139.5 20.5q89 0 159 -34.5t93 -90.5l39 103h277l-138 -977
q-46 -328 -209.5 -472.5t-447.5 -144.5q-128 0 -241.5 50t-176.5 124zM360 545q-6 -42 -6 -79q0 -87 36 -141q53 -77 155 -77q100 0 173 78t93 221q6 47 6 86q0 215 -188 215q-44 0 -86 -17.5t-79.5 -52t-65.5 -95t-38 -138.5z" />
    <glyph glyph-name="h" unicode="h" horiz-adv-x="1261" 
d="M35 0l205 1454h325l-63 -453q36 43 120.5 78t157.5 35q85 0 156 -31t123.5 -90.5t74.5 -157.5q12 -53 11 -115q0 -51 -8 -108l-86 -612h-334l86 608q3 25 3 48q0 70 -31 110q-41 53 -120 53q-72 0 -134 -59t-75 -152l-86 -608h-325z" />
    <glyph glyph-name="i" unicode="i" horiz-adv-x="569" 
d="M37 0l153 1094h304l-156 -1094h-301zM199 1370q6 74 56.5 113t127.5 39q78 0 125 -40q42 -35 42 -96q0 -8 -1 -16q-3 -73 -55 -113t-129 -40q-77 -1 -123 39q-43 37 -43 105v9z" />
    <glyph glyph-name="j" unicode="j" horiz-adv-x="647" 
d="M-168 -473l39 278h15q68 0 117 41q54 47 67 148l163 1089h330l-166 -1097q-24 -156 -108.5 -264t-202.5 -155q-102 -41 -219 -41q-17 0 -35 1zM254 1354q7 74 59 111.5t131 37.5q78 0 122 -38q39 -33 39 -92q0 -9 -1 -19q-7 -75 -60 -114.5t-130 -39.5q-78 0 -122 40
q-39 34 -39 94q0 10 1 20z" />
    <glyph glyph-name="k" unicode="k" horiz-adv-x="1208" 
d="M27 0l204 1454h326l-108 -772l385 412h383l-469 -490l331 -604h-362l-230 455l-79 -62l-56 -393h-325z" />
    <glyph glyph-name="l" unicode="l" horiz-adv-x="569" 
d="M27 0l204 1454h312l-205 -1454h-311z" />
    <glyph glyph-name="m" unicode="m" horiz-adv-x="1837" 
d="M27 0l153 1094h262l17 -125q35 61 123 109t190 48q90 0 163.5 -43.5t96.5 -111.5q55 63 151 109t218 46q163 0 257 -126q72 -97 72 -238q0 -43 -6 -90l-94 -672h-313l90 647q4 31 4 58q0 145 -133 145q-80 0 -135 -53t-68 -148l-90 -649h-313l90 647q6 33 6 61
q0 56 -23 90q-34 52 -112 52q-83 0 -135 -53.5t-66 -149.5l-92 -647h-313z" />
    <glyph glyph-name="n" unicode="n" horiz-adv-x="1226" 
d="M27 0l153 1094h240l20 -113q41 57 137 99t197 42q79 0 145 -25.5t116.5 -77t71.5 -141.5q12 -51 12 -110q0 -45 -7 -96l-94 -672h-316l93 655q3 23 3 44q0 67 -32 109q-42 54 -121.5 54t-138.5 -56t-72 -151l-92 -655h-315z" />
    <glyph glyph-name="o" unicode="o" horiz-adv-x="1228" 
d="M53 547q17 118 61.5 214.5t105.5 161t137 108.5t153.5 63.5t157.5 19.5q62 0 121.5 -14t116.5 -43.5t101.5 -75t77 -108.5t42.5 -144q4 -35 4 -74q0 -51 -7 -108q-20 -143 -77 -253.5t-140.5 -178t-184 -101.5t-214.5 -34q-75 0 -146.5 20.5t-135 66t-107.5 110.5
t-63 161q-10 52 -10 109q0 48 7 100zM348 549q-6 -38 -5 -71q0 -92 42 -150q58 -78 158 -78q103 0 182.5 75.5t101.5 223.5q5 39 5 73q0 36 -6 68q-12 60 -42 94t-69 50t-86 16q-46 0 -89 -16.5t-82.5 -50t-69 -94t-40.5 -140.5z" />
    <glyph glyph-name="p" unicode="p" horiz-adv-x="1259" 
d="M-33 -422l213 1516h266l9 -113q64 62 149 98.5t178 36.5q65 0 125 -21t113.5 -64.5t88.5 -110.5t50 -160q7 -43 7 -92q0 -56 -9 -119q-20 -142 -73.5 -252.5t-128 -176.5t-160 -99t-177.5 -33q-80 0 -155.5 34t-97.5 87l-76 -531h-322zM408 551q-6 -41 -6 -77
q0 -92 39 -147q54 -77 151 -77q104 0 178.5 74t95.5 227q7 45 7 84q0 93 -40 143q-56 72 -155 72q-39 0 -78.5 -15.5t-79.5 -48t-70 -93.5t-42 -142z" />
    <glyph glyph-name="q" unicode="q" horiz-adv-x="1259" 
d="M53 549q16 115 56.5 210.5t94.5 159.5t121 108.5t135.5 64.5t137.5 20q90 0 168.5 -38t114.5 -97l45 117h256l-213 -1516h-322l74 522q-32 -48 -114.5 -80t-174.5 -32q-57 0 -115 20t-113 65t-94 108.5t-56 158.5q-9 50 -9 104q0 50 8 105zM365 551q-6 -43 -6 -79
q0 -92 38 -146q53 -76 152 -76q97 0 175.5 76.5t98.5 224.5q6 41 6 76.5t-6 66.5q-12 60 -42 93t-66.5 48t-79.5 15q-39 0 -79 -16t-80 -49t-70 -94t-41 -140z" />
    <glyph glyph-name="r" unicode="r" horiz-adv-x="849" 
d="M27 0l153 1094h232l18 -119q38 59 125 99t176 40q3 0 119 -8l-39 -287q-58 6 -109 6q-122 0 -189 -57t-85 -193l-82 -575h-319z" />
    <glyph glyph-name="s" unicode="s" horiz-adv-x="1038" 
d="M-27 113l174 223q69 -44 153.5 -74.5t154.5 -30.5q86 0 123 25t43 76q1 6 1 12q0 43 -46 63q-52 22 -187 39q-133 20 -217 104q-67 67 -67 168q0 24 4 50q21 152 149.5 252t321.5 100q241 0 393 -106l-148 -213q-18 12 -50.5 29t-99 38t-124.5 21q-65 0 -109.5 -24.5
t-50.5 -67.5q-2 -13 1 -24.5t11 -20.5t17 -15.5t25 -12.5t29.5 -10t36 -8.5l37.5 -7.5l42 -6l43 -8q153 -25 229 -113q60 -70 60 -175q0 -28 -4 -58q-24 -172 -149 -269.5t-359 -97.5q-106 0 -231.5 39t-205.5 103z" />
    <glyph glyph-name="t" unicode="t" horiz-adv-x="782" 
d="M66 850l34 244h142l104 295h256l-41 -295h201l-35 -244h-201l-63 -440q-4 -28 -4 -51q1 -53 21 -75q30 -32 108 -32h49l-35 -246q-58 -12 -153 -12q-167 0 -253 82q-68 64 -68 175q0 29 5 62l76 537h-143z" />
    <glyph glyph-name="u" unicode="u" horiz-adv-x="1249" 
d="M70 266q-8 40 -8 86q0 47 8 101q90 637 90 641h338l-90 -641q-5 -31 -4 -57q0 -66 28 -105q40 -55 117 -55t133 56t70 161l90 641h329l-153 -1094h-256l-19 119q-45 -63 -129 -104.5t-182 -41.5q-64 0 -120.5 15.5t-108.5 50.5t-84.5 91t-48.5 136z" />
    <glyph glyph-name="v" unicode="v" horiz-adv-x="1155" 
d="M82 1094h330l104 -734l328 734h332l-543 -1094h-336z" />
    <glyph glyph-name="w" unicode="w" horiz-adv-x="1669" 
d="M90 1094h330l74 -641l284 641h221l109 -641l242 641h331l-477 -1094h-299l-100 541l-254 -541h-285z" />
    <glyph glyph-name="x" unicode="x" horiz-adv-x="1247" 
d="M-61 0l458 545l-303 549h375l160 -322l252 322h381l-478 -553l316 -541h-377l-158 305l-246 -305h-380z" />
    <glyph glyph-name="y" unicode="y" horiz-adv-x="1171" 
d="M90 1094h338l104 -721l318 721h336l-768 -1516h-285l217 418l-2 4z" />
    <glyph glyph-name="z" unicode="z" horiz-adv-x="1003" 
d="M-23 0l31 213l557 623h-454l34 258h816l-31 -220l-543 -614h471l-37 -260h-844z" />
    <glyph glyph-name="braceleft" unicode="{" horiz-adv-x="811" 
d="M55 592l43 280q82 0 129 45t60 148l26 188q27 175 144.5 281.5t298.5 107.5q6 3 82 3l-41 -267q-95 0 -145 -46t-62 -140l-25 -168q-8 -59 -19.5 -101t-31.5 -83t-54 -67t-81 -38q44 -13 69.5 -43t32 -75t5 -86t-10.5 -99l-26 -182q-12 -82 34.5 -128t134.5 -46l-36 -264
h-101q-153 -3 -245.5 109.5t-69.5 277.5l27 186q15 102 -20.5 154.5t-117.5 52.5z" />
    <glyph glyph-name="bar" unicode="|" horiz-adv-x="595" 
d="M29 -225l262 1853h268l-260 -1853h-270z" />
    <glyph glyph-name="braceright" unicode="}" horiz-adv-x="870" 
d="M-14 -190l41 266q95 0 144.5 46t61.5 140l25 168q8 59 19.5 101t31.5 83t54 67t81 38q-44 13 -69.5 43t-32 75t-5 86t10.5 99l27 182q12 82 -35 128t-135 46l37 264h100q153 3 245.5 -109.5t69.5 -277.5l-26 -186q-30 -207 137 -207l-43 -280q-82 0 -128.5 -45
t-59.5 -148l-27 -188q-27 -175 -144 -281.5t-298 -107.5q-4 -2 -82 -2z" />
    <glyph glyph-name="asciitilde" unicode="~" horiz-adv-x="1366" 
d="M113 639q38 132 144 214.5t255 82.5q73 0 136 -18.5t98 -41t76 -41t77 -18.5q41 0 80 25.5t55 72.5l219 -71q-47 -141 -149 -215t-250 -74q-72 0 -144.5 28.5t-133.5 56.5t-105 28q-50 0 -82.5 -24t-58.5 -79z" />
    <glyph glyph-name="exclamdown" unicode="&#xa1;" horiz-adv-x="624" 
d="M-20 -195l77 517l179 520h153l21 -520l-76 -517h-354zM203 1122q9 70 55 111t113 41q66 0 103 -41.5t28 -110.5q-7 -69 -52.5 -109t-111.5 -40q-67 0 -104.5 40t-30.5 109z" />
    <glyph glyph-name="cent" unicode="&#xa2;" horiz-adv-x="1200" 
d="M55 541q16 118 62.5 216.5t113 167.5t148.5 114t174 63l45 207h313l-51 -224q121 -42 192.5 -138.5t71.5 -244.5h-301q-24 152 -178 152q-42 0 -84 -17.5t-81.5 -53t-69.5 -98.5t-41 -146q-11 -78 1.5 -138.5t43 -94t67.5 -50t78 -16.5q76 0 133 36.5t84 98.5h301
q-46 -164 -154.5 -260.5t-267.5 -124.5l-49 -193h-303l45 209q-72 26 -130 73t-100.5 112.5t-59.5 156t-3 193.5z" />
    <glyph glyph-name="sterling" unicode="&#xa3;" horiz-adv-x="1275" 
d="M14 0l35 240q1 1 27 15t59.5 37t69 55.5t63 81t35.5 103.5q9 60 -16 109h-199l41 281h102q-19 83 -4 172q22 163 173.5 277t371.5 114q244 0 402 -139l-170 -222q-6 3 -28 16t-30.5 17.5t-29 15t-32 15.5t-31.5 12t-35 10.5t-34.5 6t-38.5 2.5q-93 0 -153.5 -49
t-67.5 -109q-9 -59 13 -139h333l-39 -281l-243 -4q8 -25 10.5 -70.5t-2.5 -91.5q-7 -49 -40 -103t-75 -93h582l-39 -279h-1010z" />
    <glyph glyph-name="yen" unicode="&#xa5;" horiz-adv-x="1376" 
d="M139 168l37 231h305l19 133h-301l37 232h182l-258 690h350l199 -577l354 577h360l-462 -690h194l-35 -232h-309l-18 -133h305l-37 -231h-301l-23 -168h-311l23 168h-310z" />
    <glyph glyph-name="brokenbar" unicode="&#xa6;" horiz-adv-x="659" 
d="M33 -195l104 748h336l-104 -748h-336zM182 870l107 754h334l-105 -754h-336z" />
    <glyph glyph-name="section" unicode="&#xa7;" horiz-adv-x="1134" 
d="M14 121l179 209q106 -102 299 -94q58 3 102.5 28t48.5 64q2 16 2 26.5t-1 18.5t-7 12t-11.5 7t-20 4.5t-27.5 1.5l-37 2l-47 3q-171 8 -272 87t-87 219q12 139 119 235q-48 68 -35 178q15 152 150 259.5t331 111.5q246 3 390 -113l-168 -217l-10 11l-32 22l-53 29l-74 21
l-96 7q-61 1 -104.5 -29.5t-46.5 -70.5q-2 -32 8.5 -46t51 -22.5t136.5 -13.5q163 -8 257.5 -85.5t80.5 -225.5q-13 -152 -129 -248q36 -62 27 -166q-13 -159 -149 -261t-369 -99q-238 7 -406 135zM401 739q-5 -46 34 -68.5t138 -19.5q177 3 189 90q5 40 -31 61.5t-127 22.5
h-24q-166 -6 -179 -86z" />
    <glyph glyph-name="dieresis" unicode="&#xa8;" horiz-adv-x="800" 
d="M102 1346q0 66 48.5 113.5t111.5 47.5t111.5 -47.5t48.5 -113.5q0 -64 -49 -112t-111 -48t-111 48t-49 112zM555 1346q0 66 48.5 113.5t111.5 47.5q61 0 109 -47.5t48 -113.5q0 -64 -48 -112t-109 -48q-62 0 -111 48t-49 112z" />
    <glyph glyph-name="copyright" unicode="&#xa9;" horiz-adv-x="1761" 
d="M143 725q30 218 149.5 387.5t301 261.5t395.5 92q147 0 272.5 -54t212.5 -149.5t126.5 -235.5t17.5 -302q-48 -337 -277 -542.5t-569 -205.5q-145 0 -270.5 54t-213 149.5t-128 237.5t-17.5 307zM317 725q-36 -262 101 -425t385 -163q249 0 431.5 164.5t219.5 423.5
q19 132 -10.5 242t-97 183t-165 113t-214.5 40q-247 0 -431 -162t-219 -416zM551 715q24 166 133 268t252 102q75 0 137 -27.5t103 -92t38 -156.5h-157q-2 57 -37 95t-102 38q-73 0 -133 -61t-74 -164q-14 -105 26 -159t117 -54q61 0 107 33.5t67 89.5h158
q-30 -128 -126.5 -199.5t-225.5 -71.5q-136 0 -220.5 99t-62.5 260z" />
    <glyph glyph-name="ordfeminine" unicode="&#xaa;" horiz-adv-x="917" 
d="M63 322l27 190h662l-27 -190h-662zM123 866l2 17q11 75 61.5 129t120 79t148.5 25q47 0 86.5 -11t52.5 -22q9 80 0 91q-7 63 -98 63q-132 0 -211 -61l-72 137q132 102 324 102q166 0 242 -73.5t57 -213.5l-68 -479h-186l2 111l-4 -8q-5 -8 -13 -18t-20 -23t-30.5 -25.5
t-41.5 -23t-55.5 -17t-69.5 -6.5q-101 0 -170.5 64.5t-56.5 162.5zM336 893q-6 -41 19 -63.5t79 -22.5q45 0 84.5 24.5t48.5 57.5l13 84q-33 20 -82 20q-54 0 -104.5 -24t-57.5 -76z" />
    <glyph glyph-name="guillemotleft" unicode="&#xab;" horiz-adv-x="1226" 
d="M92 524l19 113l307 336l194 -168l-215 -223l138 -232l-232 -168zM584 524l18 113l307 336l195 -168l-215 -223l137 -232l-231 -168z" />
    <glyph glyph-name="registered" unicode="&#xae;" horiz-adv-x="1761" 
d="M143 725q30 218 149.5 387.5t301 261.5t395.5 92q147 0 272.5 -54t212.5 -149.5t126.5 -235.5t17.5 -302q-48 -337 -277 -542.5t-569 -205.5q-145 0 -270.5 54t-213 149.5t-128 237.5t-17.5 307zM317 725q-36 -262 101 -425t385 -163q249 0 431.5 164.5t219.5 423.5
q19 132 -10.5 242t-97 183t-165 113t-214.5 40q-247 0 -431 -162t-219 -416zM600 371l98 696h277q115 0 169.5 -65.5t41.5 -155.5q-9 -65 -56 -125.5t-90 -71.5l90 -278h-157l-80 256h-113l-37 -256h-143zM797 750h94q128 0 141 96q8 51 -19.5 75.5t-99.5 24.5h-88z" />
    <glyph glyph-name="macron" unicode="&#xaf;" horiz-adv-x="786" 
d="M84 1225l31 215h755l-28 -215h-758z" />
    <glyph glyph-name="degree" unicode="&#xb0;" horiz-adv-x="872" 
d="M127 1112q0 148 110 256.5t250 108.5q142 0 254.5 -108.5t112.5 -256.5q0 -97 -53 -181.5t-137.5 -133.5t-176.5 -49q-140 0 -250 109t-110 255zM350 1112q0 -57 41 -98t98 -41q55 0 97.5 41.5t42.5 97.5q0 59 -42.5 100t-97.5 41q-57 0 -98 -40.5t-41 -100.5z" />
    <glyph glyph-name="plusminus" unicode="&#xb1;" horiz-adv-x="1349" 
d="M129 119l35 241h317l39 275h-334l37 260h334l47 340h273l-50 -340h336l-37 -260h-333l-39 -275h319l-35 -241h-909z" />
    <glyph glyph-name="acute" unicode="&#xb4;" horiz-adv-x="497" 
d="M100 1346l232 411l266 -209l-252 -202h-246z" />
    <glyph glyph-name="paragraph" unicode="&#xb6;" horiz-adv-x="1429" 
d="M143 975q13 96 56 181.5t111.5 152.5t169.5 106t222 39h340l-204 -1454h-314l70 496h-27q-114 0 -203 40t-140.5 107t-72.5 152.5t-8 179.5zM997 0l205 1454h207l-205 -1454h-207z" />
    <glyph glyph-name="periodcentered" unicode="&#xb7;" horiz-adv-x="405" 
d="M35 731q0 74 50 122t120 48t119 -48t49 -122q0 -75 -48.5 -121.5t-119.5 -46.5t-120.5 46.5t-49.5 121.5z" />
    <glyph glyph-name="cedilla" unicode="&#xb8;" horiz-adv-x="833" 
d="M8 -535l66 177q11 -6 54 -11.5t65 -5.5q39 0 65 17t29 47q6 32 -16.5 50t-67.5 21l-86 4l69 246h152l-23 -86q80 -14 134.5 -75t42.5 -164q-18 -114 -101 -182t-225 -68q-60 0 -158 30z" />
    <glyph glyph-name="ordmasculine" unicode="&#xba;" horiz-adv-x="880" 
d="M51 322l27 190h661l-26 -190h-662zM137 975l17 108q20 147 130 238.5t251 91.5q138 0 226 -92.5t68 -237.5l-16 -108q-20 -150 -125 -241t-262 -91q-62 0 -119 24.5t-98 67t-61.5 105.5t-10.5 135zM348 965q-7 -63 21 -99.5t84 -36.5q58 0 98 36.5t47 99.5l16 120
q9 65 -18.5 104.5t-87.5 39.5q-59 0 -95.5 -39t-45.5 -105z" />
    <glyph glyph-name="guillemotright" unicode="&#xbb;" horiz-adv-x="1226" 
d="M74 342l215 223l-137 232l231 168l211 -342l-19 -113l-307 -336zM565 342l215 223l-137 232l231 168l211 -342l-18 -113l-307 -336z" />
    <glyph glyph-name="questiondown" unicode="&#xbf;" horiz-adv-x="1165" 
d="M29 272q2 52 13.5 97.5t34 83t43.5 65.5t57 58t57.5 46.5t62 44t55.5 38.5q152 109 158 227h262q-4 -62 -24 -119t-47 -99t-65.5 -82t-71 -66t-72.5 -52q-87 -56 -124 -99t-46 -110q-11 -63 32 -108t127 -45q74 0 136.5 39.5t87.5 119.5l284 2q-35 -199 -191 -319.5
t-368 -120.5q-185 0 -297.5 115.5t-103.5 283.5zM532 1210q3 70 45 110t109 40q68 0 108 -40t37 -110q-3 -69 -46.5 -109t-110.5 -40q-68 0 -106.5 39.5t-35.5 109.5z" />
    <glyph glyph-name="Agrave" unicode="&#xc0;" horiz-adv-x="1443" 
d="M-66 0l723 1454h328l320 -1454h-320l-53 262h-541l-125 -262h-332zM514 518h365l-111 535zM545 1792l329 184l105 -413h-258z" />
    <glyph glyph-name="Aacute" unicode="&#xc1;" horiz-adv-x="1443" 
d="M-66 0l723 1454h328l320 -1454h-320l-53 262h-541l-125 -262h-332zM514 518h365l-111 535zM690 1563l232 411l266 -209l-252 -202h-246z" />
    <glyph glyph-name="Acircumflex" unicode="&#xc2;" horiz-adv-x="1443" 
d="M-66 0l723 1454h328l320 -1454h-320l-53 262h-541l-125 -262h-332zM506 1683l252 224h264l192 -211l-149 -160l-209 121l-248 -123zM514 518h365l-111 535z" />
    <glyph glyph-name="Atilde" unicode="&#xc3;" horiz-adv-x="1443" 
d="M-66 0l723 1454h328l320 -1454h-320l-53 262h-541l-125 -262h-332zM403 1620q23 103 105.5 184t191.5 88q59 3 110.5 -9.5t82 -29.5t68.5 -32.5t71 -16.5q92 -5 142 99l147 -56q-10 -58 -49 -118.5t-104 -105.5t-136 -50q-55 -4 -99.5 8t-70 29t-66 33t-87.5 18
q-112 3 -174 -88zM514 518h365l-111 535z" />
    <glyph glyph-name="Adieresis" unicode="&#xc4;" horiz-adv-x="1443" 
d="M-66 0l723 1454h328l320 -1454h-320l-53 262h-541l-125 -262h-332zM475 1726q0 66 48.5 114t111.5 48t111.5 -48t48.5 -114q0 -64 -49 -111.5t-111 -47.5t-111 47.5t-49 111.5zM514 518h365l-111 535zM928 1726q0 66 48 114t111 48q61 0 109.5 -48t48.5 -114
q0 -64 -48.5 -111.5t-109.5 -47.5q-62 0 -110.5 47.5t-48.5 111.5z" />
    <glyph glyph-name="Aring" unicode="&#xc5;" horiz-adv-x="1443" 
d="M-66 0l723 1454h328l320 -1454h-320l-53 262h-541l-125 -262h-332zM514 518h365l-111 535zM596 1780q0 108 79 186t181 78q101 0 181.5 -78t80.5 -186q0 -106 -80 -182t-182 -76t-181 75.5t-79 182.5zM762 1784q0 -41 27 -67.5t67 -26.5q41 0 67.5 26.5t26.5 67.5
q0 40 -26.5 67t-67.5 27q-40 0 -67 -27t-27 -67z" />
    <glyph glyph-name="AE" unicode="&#xc6;" horiz-adv-x="2017" 
d="M-113 0l961 1454h1167l-39 -283h-669l-43 -299h526l-41 -282h-526l-43 -307h671l-41 -283h-981l41 289h-442l-195 -289h-346zM600 557h307l80 576z" />
    <glyph glyph-name="Ccedilla" unicode="&#xc7;" horiz-adv-x="1466" 
d="M75 476.5q-18 114.5 3 258.5q22 149 75 272.5t127.5 210t168 146t195.5 87.5t210 28q160 0 290 -66.5t203.5 -189t67.5 -277.5h-315q-4 114 -83.5 181t-199.5 67q-52 0 -102.5 -13.5t-103 -47.5t-95 -85t-76 -131.5t-47.5 -181.5q-16 -106 -5.5 -185.5t36 -134.5
t68.5 -89.5t92 -50t106 -15.5q125 0 222 71.5t130 182.5h316q-29 -131 -90.5 -231.5t-148.5 -164.5t-194 -98.5t-233 -39.5l-16 -64q80 -14 134 -75.5t42 -164.5q-18 -114 -101 -181.5t-225 -67.5q-60 0 -157 30l65 176q11 -6 53.5 -11t65.5 -5q39 0 65 17t29 47
q6 32 -16.5 50t-67.5 21l-86 4l66 230q-84 13 -159 48t-141.5 95.5t-108 146.5t-59.5 200.5z" />
    <glyph glyph-name="Egrave" unicode="&#xc8;" horiz-adv-x="1251" 
d="M41 0l205 1454h991l-39 -283h-678l-43 -305h533l-41 -272h-531l-43 -311h682l-39 -283h-997zM461 1792l330 184l104 -413h-258z" />
    <glyph glyph-name="Eacute" unicode="&#xc9;" horiz-adv-x="1251" 
d="M41 0l205 1454h991l-39 -283h-678l-43 -305h533l-41 -272h-531l-43 -311h682l-39 -283h-997zM604 1563l232 411l266 -209l-252 -202h-246z" />
    <glyph glyph-name="Ecircumflex" unicode="&#xca;" horiz-adv-x="1251" 
d="M41 0l205 1454h991l-39 -283h-678l-43 -305h533l-41 -272h-531l-43 -311h682l-39 -283h-997zM422 1683l252 224h264l192 -211l-149 -160l-209 121l-248 -123z" />
    <glyph glyph-name="Edieresis" unicode="&#xcb;" horiz-adv-x="1251" 
d="M41 0l205 1454h991l-39 -283h-678l-43 -305h533l-41 -272h-531l-43 -311h682l-39 -283h-997zM389 1726q0 66 48.5 114t111.5 48t111.5 -48t48.5 -114q0 -64 -49 -111.5t-111 -47.5t-111 47.5t-49 111.5zM842 1726q0 66 48 114t111 48q61 0 109.5 -48t48.5 -114
q0 -64 -48.5 -111.5t-109.5 -47.5q-62 0 -110.5 47.5t-48.5 111.5z" />
    <glyph glyph-name="Igrave" unicode="&#xcc;" horiz-adv-x="598" 
d="M41 0l205 1454h313l-205 -1454h-313zM156 1786l303 160l94 -373h-260z" />
    <glyph glyph-name="Iacute" unicode="&#xcd;" horiz-adv-x="598" 
d="M41 0l205 1454h313l-205 -1454h-313zM260 1559l199 350l289 -166l-238 -184h-250z" />
    <glyph glyph-name="Icircumflex" unicode="&#xce;" horiz-adv-x="598" 
d="M41 0l205 1454h313l-205 -1454h-313zM133 1690l195 213h264l141 -211l-178 -152l-131 107l-156 -107z" />
    <glyph glyph-name="Idieresis" unicode="&#xcf;" horiz-adv-x="598" 
d="M41 -2l205 1454h313l-205 -1454h-313zM111 1743q0 76 38.5 117t106.5 41q67 0 105 -41t38 -117q0 -77 -38 -119.5t-105 -42.5q-68 0 -106.5 42.5t-38.5 119.5zM483 1743q0 76 38 117t106 41t106.5 -41t38.5 -117q0 -77 -38.5 -119.5t-106.5 -42.5t-106 42.5t-38 119.5z
" />
    <glyph glyph-name="Eth" unicode="&#xd0;" horiz-adv-x="1449" 
d="M18 592l37 264h115l84 598h483q147 0 268.5 -47.5t206.5 -136t121.5 -226.5t12.5 -309q-53 -377 -258 -556t-556 -179h-483l84 592h-115zM401 291h172q400 0 461 444q31 218 -62 323t-276 105h-172l-43 -307h285l-39 -264h-283z" />
    <glyph glyph-name="Ntilde" unicode="&#xd1;" horiz-adv-x="1478" 
d="M41 0l205 1454h307l436 -899l133 899h314l-205 -1454h-316l-438 891l-123 -891h-313zM426 1608q23 103 105.5 184t191.5 88q59 3 110.5 -9.5t82 -29.5t68.5 -32.5t71 -16.5q92 -5 141 98l147 -55q-16 -93 -99.5 -180t-188.5 -94q-55 -4 -99.5 8t-70 29t-66.5 33t-88 18
q-112 3 -174 -88z" />
    <glyph glyph-name="Ograve" unicode="&#xd2;" horiz-adv-x="1482" 
d="M78 733q26 181 95.5 324t171.5 235t229 139.5t272 47.5q137 0 250 -48.5t191.5 -140t111.5 -235.5t8 -322q-53 -366 -258 -559.5t-514 -193.5q-134 0 -245.5 48t-191 139.5t-112.5 237t-8 328.5zM392 514.5q14 -89.5 58 -146t100.5 -81.5t125.5 -25q74 0 139 26t122 80.5
t97.5 147.5t57.5 217q15 101 4.5 177.5t-36 130.5t-67 88t-88 49.5t-100.5 15.5q-68 0 -131.5 -25.5t-121.5 -77.5t-100 -144t-59 -214q-15 -129 -1 -218.5zM565 1792l330 184l104 -413h-258z" />
    <glyph glyph-name="Oacute" unicode="&#xd3;" horiz-adv-x="1482" 
d="M78 733q26 181 95.5 324t171.5 235t229 139.5t272 47.5q137 0 250 -48.5t191.5 -140t111.5 -235.5t8 -322q-53 -366 -258 -559.5t-514 -193.5q-134 0 -245.5 48t-191 139.5t-112.5 237t-8 328.5zM392 514.5q14 -89.5 58 -146t100.5 -81.5t125.5 -25q74 0 139 26t122 80.5
t97.5 147.5t57.5 217q15 101 4.5 177.5t-36 130.5t-67 88t-88 49.5t-100.5 15.5q-68 0 -131.5 -25.5t-121.5 -77.5t-100 -144t-59 -214q-15 -129 -1 -218.5zM711 1563l231 411l266 -209l-252 -202h-245z" />
    <glyph glyph-name="Ocircumflex" unicode="&#xd4;" horiz-adv-x="1482" 
d="M78 733q26 181 95.5 324t171.5 235t229 139.5t272 47.5q137 0 250 -48.5t191.5 -140t111.5 -235.5t8 -322q-53 -366 -258 -559.5t-514 -193.5q-134 0 -245.5 48t-191 139.5t-112.5 237t-8 328.5zM392 514.5q14 -89.5 58 -146t100.5 -81.5t125.5 -25q74 0 139 26t122 80.5
t97.5 147.5t57.5 217q15 101 4.5 177.5t-36 130.5t-67 88t-88 49.5t-100.5 15.5q-68 0 -131.5 -25.5t-121.5 -77.5t-100 -144t-59 -214q-15 -129 -1 -218.5zM526 1683l252 224h264l193 -211l-150 -160l-208 121l-248 -123z" />
    <glyph glyph-name="Otilde" unicode="&#xd5;" horiz-adv-x="1482" 
d="M78 733q26 181 95.5 324t171.5 235t229 139.5t272 47.5q137 0 250 -48.5t191.5 -140t111.5 -235.5t8 -322q-53 -366 -258 -559.5t-514 -193.5q-134 0 -245.5 48t-191 139.5t-112.5 237t-8 328.5zM392 514.5q14 -89.5 58 -146t100.5 -81.5t125.5 -25q74 0 139 26t122 80.5
t97.5 147.5t57.5 217q15 101 4.5 177.5t-36 130.5t-67 88t-88 49.5t-100.5 15.5q-68 0 -131.5 -25.5t-121.5 -77.5t-100 -144t-59 -214q-15 -129 -1 -218.5zM424 1620q23 103 105.5 184t191.5 88q59 3 110.5 -9.5t82 -29.5t68.5 -32.5t71 -16.5q92 -5 141 99l147 -56
q-16 -93 -99.5 -180t-188.5 -94q-55 -4 -99.5 8t-70 29t-66.5 33t-88 18q-112 3 -174 -88z" />
    <glyph glyph-name="Odieresis" unicode="&#xd6;" horiz-adv-x="1482" 
d="M78 733q26 181 95.5 324t171.5 235t229 139.5t272 47.5q137 0 250 -48.5t191.5 -140t111.5 -235.5t8 -322q-53 -366 -258 -559.5t-514 -193.5q-134 0 -245.5 48t-191 139.5t-112.5 237t-8 328.5zM392 514.5q14 -89.5 58 -146t100.5 -81.5t125.5 -25q74 0 139 26t122 80.5
t97.5 147.5t57.5 217q15 101 4.5 177.5t-36 130.5t-67 88t-88 49.5t-100.5 15.5q-68 0 -131.5 -25.5t-121.5 -77.5t-100 -144t-59 -214q-15 -129 -1 -218.5zM496 1726q0 66 48 114t111 48t111.5 -48t48.5 -114q0 -64 -49 -111.5t-111 -47.5t-110.5 47.5t-48.5 111.5z
M948 1726q0 66 48.5 114t111.5 48q61 0 109.5 -48t48.5 -114q0 -64 -48.5 -111.5t-109.5 -47.5q-62 0 -111 47.5t-49 111.5z" />
    <glyph glyph-name="multiply" unicode="&#xd7;" horiz-adv-x="1280" 
d="M106 395l343 299l-254 291l211 184l249 -292l340 297l166 -193l-338 -297l254 -293l-213 -184l-250 293l-342 -297z" />
    <glyph glyph-name="Oslash" unicode="&#xd8;" horiz-adv-x="1460" 
d="M78 78l98 119q-145 206 -98 536q26 181 95.5 324t171.5 235t229 139.5t272 47.5q186 0 325 -86l86 102l148 -121l-94 -114q141 -198 96 -527q-53 -366 -258 -559.5t-514 -193.5q-182 0 -318 86l-90 -109zM393 733q-22 -153 10 -266l566 682q-71 45 -164 45
q-68 0 -131.5 -25.5t-121.5 -77.5t-100 -144t-59 -214zM516 305q70 -43 160 -43q74 0 139 26t122 80.5t97.5 147.5t57.5 217q20 148 -11 252z" />
    <glyph glyph-name="Ugrave" unicode="&#xd9;" horiz-adv-x="1390" 
d="M87.5 376.5q-17.5 100.5 0.5 227.5l121 850h313l-119 -848q-24 -166 45.5 -248t184.5 -82q58 0 109 19t95 58t74.5 103.5t42.5 149.5l119 848h313l-118 -850q-22 -155 -84.5 -275.5t-153.5 -196t-202.5 -114t-237.5 -38.5q-96 0 -179 24t-151 73.5t-111.5 124t-61 175z
M512 1774l330 184l104 -414h-258z" />
    <glyph glyph-name="Uacute" unicode="&#xda;" horiz-adv-x="1390" 
d="M87.5 376.5q-17.5 100.5 0.5 227.5l121 850h313l-119 -848q-24 -166 45.5 -248t184.5 -82q58 0 109 19t95 58t74.5 103.5t42.5 149.5l119 848h313l-118 -850q-22 -155 -84.5 -275.5t-153.5 -196t-202.5 -114t-237.5 -38.5q-96 0 -179 24t-151 73.5t-111.5 124t-61 175z
M655 1544l232 412l266 -209l-252 -203h-246z" />
    <glyph glyph-name="Ucircumflex" unicode="&#xdb;" horiz-adv-x="1390" 
d="M87.5 376.5q-17.5 100.5 0.5 227.5l121 850h313l-119 -848q-24 -166 45.5 -248t184.5 -82q58 0 109 19t95 58t74.5 103.5t42.5 149.5l119 848h313l-118 -850q-22 -155 -84.5 -275.5t-153.5 -196t-202.5 -114t-237.5 -38.5q-96 0 -179 24t-151 73.5t-111.5 124t-61 175z
M473 1665l252 223h264l193 -211l-150 -159l-209 120l-248 -122z" />
    <glyph glyph-name="Udieresis" unicode="&#xdc;" horiz-adv-x="1390" 
d="M87.5 376.5q-17.5 100.5 0.5 227.5l121 850h313l-119 -848q-24 -166 45.5 -248t184.5 -82q58 0 109 19t95 58t74.5 103.5t42.5 149.5l119 848h313l-118 -850q-22 -155 -84.5 -275.5t-153.5 -196t-202.5 -114t-237.5 -38.5q-96 0 -179 24t-151 73.5t-111.5 124t-61 175z
M440 1708q0 66 48.5 114t111.5 48t111.5 -48t48.5 -114q0 -64 -49 -112t-111 -48t-111 48t-49 112zM893 1708q0 66 48.5 114t111.5 48q61 0 109 -48t48 -114q0 -64 -48 -112t-109 -48q-62 0 -111 48t-49 112z" />
    <glyph glyph-name="Yacute" unicode="&#xdd;" horiz-adv-x="1337" 
d="M139 1454h350l199 -577l354 577h361l-610 -911l-76 -543h-311l75 543zM637 1554l231 412l267 -209l-252 -203h-246z" />
    <glyph glyph-name="Thorn" unicode="&#xde;" horiz-adv-x="1292" 
d="M41 0l205 1454h319l-35 -242h185q248 0 383 -138t104 -357q-31 -230 -198 -364t-433 -134h-180l-31 -219h-319zM432 500h195q102 0 169.5 59t84.5 158q12 100 -41.5 161.5t-151.5 61.5h-194z" />
    <glyph glyph-name="germandbls" unicode="&#xdf;" horiz-adv-x="1282" 
d="M29 0l131 942q36 254 197 391t391 137q167 0 291.5 -91.5t142.5 -213.5l-221 -315q89 -30 149.5 -131t46.5 -254q-9 -100 -50.5 -185t-111 -150.5t-173.5 -102.5t-230 -37q-54 0 -111 10l39 276q48 -6 78 -6q97 0 160 56t76 133q5 38 -2 70.5t-28.5 61.5t-65.5 46
t-107 18h-19l9 74l217 387q-37 76 -156 76q-78 0 -137.5 -57.5t-77.5 -178.5l-135 -956h-303z" />
    <glyph glyph-name="agrave" unicode="&#xe0;" horiz-adv-x="1294" 
d="M57 551q16 117 59.5 213t101 159.5t128 107.5t141 63.5t140.5 19.5q92 0 174.5 -41t103.5 -94l60 115h254l-164 -1094h-242l-14 125q-45 -63 -133.5 -101t-182.5 -38q-67 0 -133.5 21t-126.5 67t-102.5 110.5t-60.5 159.5t-3 207zM371 553q-11 -79 1 -139.5t41.5 -95
t67.5 -51.5t82 -17q97 0 175 77t100 226q21 150 -34.5 223.5t-156.5 73.5q-33 0 -66.5 -9t-67.5 -31.5t-62 -55.5t-49.5 -85t-30.5 -116zM440 1460l330 185l104 -414h-258z" />
    <glyph glyph-name="aacute" unicode="&#xe1;" horiz-adv-x="1284" 
d="M57 551q16 117 59.5 213t101 159.5t128 107.5t141 63.5t140.5 19.5q92 0 174.5 -41t103.5 -94l60 115h254l-164 -1094h-242l-14 125q-45 -63 -133.5 -101t-182.5 -38q-67 0 -133.5 21t-126.5 67t-102.5 110.5t-60.5 159.5t-3 207zM371 553q-11 -79 1 -139.5t41.5 -95
t67.5 -51.5t82 -17q97 0 175 77t100 226q21 150 -34.5 223.5t-156.5 73.5q-33 0 -66.5 -9t-67.5 -31.5t-62 -55.5t-49.5 -85t-30.5 -116zM553 1225l231 411l267 -209l-252 -202h-246z" />
    <glyph glyph-name="acircumflex" unicode="&#xe2;" horiz-adv-x="1294" 
d="M57 551q16 117 59.5 213t101 159.5t128 107.5t141 63.5t140.5 19.5q92 0 174.5 -41t103.5 -94l60 115h254l-164 -1094h-242l-14 125q-45 -63 -133.5 -101t-182.5 -38q-67 0 -133.5 21t-126.5 67t-102.5 110.5t-60.5 159.5t-3 207zM371 553q-11 -79 1 -139.5t41.5 -95
t67.5 -51.5t82 -17q97 0 175 77t100 226q21 150 -34.5 223.5t-156.5 73.5q-33 0 -66.5 -9t-67.5 -31.5t-62 -55.5t-49.5 -85t-30.5 -116zM418 1362l252 223h264l192 -211l-149 -160l-209 121l-248 -123z" />
    <glyph glyph-name="atilde" unicode="&#xe3;" horiz-adv-x="1294" 
d="M57 551q16 117 59.5 213t101 159.5t128 107.5t141 63.5t140.5 19.5q92 0 174.5 -41t103.5 -94l60 115h254l-164 -1094h-242l-14 125q-45 -63 -133.5 -101t-182.5 -38q-67 0 -133.5 21t-126.5 67t-102.5 110.5t-60.5 159.5t-3 207zM305 1309q23 103 105.5 184t191.5 88
q59 3 110.5 -9.5t82 -29.5t68.5 -32.5t71 -16.5q92 -5 141 98l148 -55q-10 -58 -49 -118.5t-104 -105.5t-136 -50q-55 -4 -99.5 8t-70 29t-66.5 33t-88 18q-112 3 -174 -88zM371 553q-11 -79 1 -139.5t41.5 -95t67.5 -51.5t82 -17q97 0 175 77t100 226q21 150 -34.5 223.5
t-156.5 73.5q-33 0 -66.5 -9t-67.5 -31.5t-62 -55.5t-49.5 -85t-30.5 -116z" />
    <glyph glyph-name="adieresis" unicode="&#xe4;" horiz-adv-x="1284" 
d="M57 551q16 117 59.5 213t101 159.5t128 107.5t141 63.5t140.5 19.5q92 0 174.5 -41t103.5 -94l60 115h254l-164 -1094h-242l-14 125q-45 -63 -133.5 -101t-182.5 -38q-67 0 -133.5 21t-126.5 67t-102.5 110.5t-60.5 159.5t-3 207zM360 1413q0 66 48.5 114t111.5 48
t111.5 -48t48.5 -114q0 -64 -49 -112t-111 -48t-111 48t-49 112zM371 553q-11 -79 1 -139.5t41.5 -95t67.5 -51.5t82 -17q97 0 175 77t100 226q21 150 -34.5 223.5t-156.5 73.5q-33 0 -66.5 -9t-67.5 -31.5t-62 -55.5t-49.5 -85t-30.5 -116zM813 1413q0 66 48.5 114
t111.5 48q61 0 109 -48t48 -114q0 -64 -48 -112t-109 -48q-62 0 -111 48t-49 112z" />
    <glyph glyph-name="aring" unicode="&#xe5;" horiz-adv-x="1284" 
d="M57 551q16 117 59.5 213t101 159.5t128 107.5t141 63.5t140.5 19.5q92 0 174.5 -41t103.5 -94l60 115h254l-164 -1094h-242l-14 125q-45 -63 -133.5 -101t-182.5 -38q-67 0 -133.5 21t-126.5 67t-102.5 110.5t-60.5 159.5t-3 207zM371 553q-11 -79 1 -139.5t41.5 -95
t67.5 -51.5t82 -17q97 0 175 77t100 226q21 150 -34.5 223.5t-156.5 73.5q-33 0 -66.5 -9t-67.5 -31.5t-62 -55.5t-49.5 -85t-30.5 -116zM483 1475q0 108 79 186t181 78q101 0 182 -78t81 -186q0 -106 -80.5 -182t-182.5 -76t-181 75.5t-79 182.5zM649 1479q0 -41 27 -68
t67 -27q41 0 68 27t27 68q0 40 -27 67t-68 27q-40 0 -67 -27t-27 -67z" />
    <glyph glyph-name="ae" unicode="&#xe6;" horiz-adv-x="1796" 
d="M-29 319q21 149 157 249t355 100q46 0 111.5 -7t85.5 -14l4 29q9 90 -31.5 136t-126.5 46q-120 0 -200 -80l-209 129q69 91 187.5 150t270.5 59q236 0 343 -145q166 143 385 143q102 0 189 -33t151.5 -96.5t93 -169.5t10.5 -240l-18 -118h-752q-10 -104 60 -167t182 -63
q84 0 170 30t145 71l104 -209q-84 -63 -200.5 -101t-253.5 -38q-114 0 -213 37t-166 110q-152 -143 -420 -143q-210 0 -322.5 95t-91.5 240zM266 340q-6 -57 36 -92t120 -35q94 0 151.5 51.5t71.5 136.5l6 48q-77 23 -162 18q-101 -1 -157.5 -34t-65.5 -93zM1004 653h462
q18 103 -40.5 161t-157.5 58q-90 0 -163.5 -59t-100.5 -160z" />
    <glyph glyph-name="ccedilla" unicode="&#xe7;" 
d="M51 541q19 136 77.5 247t142 183t186 110.5t211.5 38.5q91 0 171 -26t143 -76t99.5 -131.5t36.5 -184.5h-309q-4 74 -51.5 113t-128.5 39q-43 0 -84.5 -17.5t-81 -53t-68.5 -98.5t-41 -146q-21 -151 39 -225t152 -74q77 0 134 35t83 100h309q-53 -185 -184 -284
t-324 -111l-16 -62q80 -14 134 -75.5t42 -164.5q-18 -114 -101 -181.5t-225 -67.5q-59 0 -157 30l65 176q11 -6 53.5 -11t65.5 -5q39 0 65 17t29 47q6 32 -16.5 50t-67.5 21l-86 4l66 230q-84 17 -155.5 60.5t-124.5 111.5t-76 167t-7 214z" />
    <glyph glyph-name="egrave" unicode="&#xe8;" 
d="M51 541q19 136 76.5 247t140 181t182 107.5t205.5 37.5q102 0 189 -33t152 -96.5t93.5 -169.5t10.5 -240l-19 -118h-751q-10 -104 59.5 -167t181.5 -63q85 0 171 30t145 71l104 -209q-84 -63 -200.5 -101t-253.5 -38q-110 0 -204.5 34.5t-165.5 101.5t-103.5 177
t-12.5 248zM356 653h463q18 103 -40.5 161t-157.5 58q-90 0 -164 -59t-101 -160zM393 1460l330 185l104 -414h-258z" />
    <glyph glyph-name="eacute" unicode="&#xe9;" 
d="M51 541q19 136 76.5 247t140 181t182 107.5t205.5 37.5q102 0 189 -33t152 -96.5t93.5 -169.5t10.5 -240l-19 -118h-751q-10 -104 59.5 -167t181.5 -63q85 0 171 30t145 71l104 -209q-84 -63 -200.5 -101t-253.5 -38q-110 0 -204.5 34.5t-165.5 101.5t-103.5 177
t-12.5 248zM356 653h463q18 103 -40.5 161t-157.5 58q-90 0 -164 -59t-101 -160zM508 1227l231 411l267 -208l-252 -203h-246z" />
    <glyph glyph-name="ecircumflex" unicode="&#xea;" 
d="M51 541q19 136 76.5 247t140 181t182 107.5t205.5 37.5q102 0 189 -33t152 -96.5t93.5 -169.5t10.5 -240l-19 -118h-751q-10 -104 59.5 -167t181.5 -63q85 0 171 30t145 71l104 -209q-84 -63 -200.5 -101t-253.5 -38q-110 0 -204.5 34.5t-165.5 101.5t-103.5 177
t-12.5 248zM344 1364l252 223h264l193 -211l-150 -159l-209 120l-248 -123zM356 653h463q18 103 -40.5 161t-157.5 58q-90 0 -164 -59t-101 -160z" />
    <glyph glyph-name="edieresis" unicode="&#xeb;" 
d="M51 541q19 136 76.5 247t140 181t182 107.5t205.5 37.5q102 0 189 -33t152 -96.5t93.5 -169.5t10.5 -240l-19 -118h-751q-10 -104 59.5 -167t181.5 -63q85 0 171 30t145 71l104 -209q-84 -63 -200.5 -101t-253.5 -38q-110 0 -204.5 34.5t-165.5 101.5t-103.5 177
t-12.5 248zM313 1413q0 66 48.5 114t111.5 48t111.5 -48t48.5 -114q0 -64 -49 -112t-111 -48t-111 48t-49 112zM356 653h463q18 103 -40.5 161t-157.5 58q-90 0 -164 -59t-101 -160zM766 1413q0 66 48.5 114t111.5 48q61 0 109 -48t48 -114q0 -64 -48 -112t-109 -48
q-62 0 -111 48t-49 112z" />
    <glyph glyph-name="igrave" unicode="&#xec;" horiz-adv-x="575" 
d="M39 0l154 1094h303l-156 -1094h-301zM141 1462l308 142l53 -373h-262z" />
    <glyph glyph-name="iacute" unicode="&#xed;" horiz-adv-x="577" 
d="M39 0l154 1094h303l-156 -1094h-301zM209 1227l209 375l266 -156l-219 -219h-256z" />
    <glyph glyph-name="icircumflex" unicode="&#xee;" horiz-adv-x="583" 
d="M39 0l154 1094h303l-156 -1094h-301zM76 1378l203 217h262l149 -219l-180 -145l-135 112l-164 -114z" />
    <glyph glyph-name="idieresis" unicode="&#xef;" horiz-adv-x="651" 
d="M72 0l153 1094h303l-155 -1094h-301zM104 1391q14 147 156 147q145 0 131 -147q-14 -150 -158 -150q-146 0 -129 150zM451 1391q14 147 155 147q145 0 131 -147q-18 -152 -157 -152q-69 0 -103.5 38t-25.5 114z" />
    <glyph glyph-name="eth" unicode="&#xf0;" horiz-adv-x="1226" 
d="M35 516q16 168 103 300t222 204t293 72q65 0 114.5 -24.5t61.5 -51.5q-11 99 -53 223l-229 -51l-37 133l207 74q-46 91 -78 129l248 129q45 -61 94 -166l172 61l64 -211l-162 -37q113 -369 61 -725q-46 -294 -210 -441.5t-406 -147.5q-107 0 -197 35.5t-154 101.5
t-95 167.5t-19 225.5zM344 535q-11 -77 1.5 -135t42.5 -88.5t66 -45t76 -14.5q42 0 82 14.5t78.5 45t67 88t39.5 135.5q20 145 -33.5 213.5t-147.5 68.5q-46 0 -88 -14.5t-80.5 -46t-66 -88t-37.5 -133.5z" />
    <glyph glyph-name="ntilde" unicode="&#xf1;" horiz-adv-x="1226" 
d="M27 0l153 1094h240l20 -113q41 57 137 99t197 42q79 0 145 -25.5t116.5 -77t71.5 -141t5 -206.5l-94 -672h-316l93 655q13 98 -28.5 152.5t-121.5 54.5t-139 -56t-72 -151l-92 -655h-315zM266 1317q23 103 105.5 184t191.5 88q59 3 110.5 -9.5t82 -29.5t68.5 -32.5
t71 -16.5q92 -5 141 98l148 -55q-10 -58 -49 -118.5t-104 -105.5t-136 -50q-55 -4 -99.5 8t-70 29t-66.5 33t-88 18q-112 3 -174 -88z" />
    <glyph glyph-name="ograve" unicode="&#xf2;" horiz-adv-x="1228" 
d="M53 547q17 118 61.5 214.5t105.5 161t137 108.5t153.5 63.5t157.5 19.5q62 0 121.5 -14t116.5 -43.5t101.5 -75t77 -108.5t42.5 -144t-3 -182q-20 -143 -77 -253.5t-140.5 -178t-184 -101.5t-214.5 -34q-75 0 -146.5 20.5t-135 66t-107.5 110.5t-63 160.5t-3 209.5z
M348 549q-21 -143 37 -221t158 -78q103 0 182.5 75.5t101.5 223.5q11 81 -1 141.5t-42 94t-69 49.5t-86 16q-46 0 -89 -16.5t-82.5 -50t-69 -94t-40.5 -140.5zM375 1462l330 185l104 -414h-258z" />
    <glyph glyph-name="oacute" unicode="&#xf3;" horiz-adv-x="1228" 
d="M53 547q17 118 61.5 214.5t105.5 161t137 108.5t153.5 63.5t157.5 19.5q62 0 121.5 -14t116.5 -43.5t101.5 -75t77 -108.5t42.5 -144t-3 -182q-20 -143 -77 -253.5t-140.5 -178t-184 -101.5t-214.5 -34q-75 0 -146.5 20.5t-135 66t-107.5 110.5t-63 160.5t-3 209.5z
M348 549q-21 -143 37 -221t158 -78q103 0 182.5 75.5t101.5 223.5q11 81 -1 141.5t-42 94t-69 49.5t-86 16q-46 0 -89 -16.5t-82.5 -50t-69 -94t-40.5 -140.5zM535 1229l231 411l266 -208l-252 -203h-245z" />
    <glyph glyph-name="ocircumflex" unicode="&#xf4;" horiz-adv-x="1228" 
d="M53 547q17 118 61.5 214.5t105.5 161t137 108.5t153.5 63.5t157.5 19.5q62 0 121.5 -14t116.5 -43.5t101.5 -75t77 -108.5t42.5 -144t-3 -182q-20 -143 -77 -253.5t-140.5 -178t-184 -101.5t-214.5 -34q-75 0 -146.5 20.5t-135 66t-107.5 110.5t-63 160.5t-3 209.5z
M348 549q-21 -143 37 -221t158 -78q103 0 182.5 75.5t101.5 223.5q11 81 -1 141.5t-42 94t-69 49.5t-86 16q-46 0 -89 -16.5t-82.5 -50t-69 -94t-40.5 -140.5zM354 1366l252 223h264l193 -211l-150 -159l-208 120l-248 -122z" />
    <glyph glyph-name="otilde" unicode="&#xf5;" horiz-adv-x="1228" 
d="M53 547q17 118 61.5 214.5t105.5 161t137 108.5t153.5 63.5t157.5 19.5q62 0 121.5 -14t116.5 -43.5t101.5 -75t77 -108.5t42.5 -144t-3 -182q-20 -143 -77 -253.5t-140.5 -178t-184 -101.5t-214.5 -34q-75 0 -146.5 20.5t-135 66t-107.5 110.5t-63 160.5t-3 209.5z
M240 1311q23 103 105.5 184t191.5 88q59 3 110.5 -9.5t81.5 -29.5t68 -32.5t71 -16.5q93 -5 142 98l147 -55q-10 -58 -49 -118.5t-104 -105.5t-136 -50q-55 -4 -99.5 8t-70 29t-66 33t-87.5 18q-112 3 -174 -88zM348 549q-21 -143 37 -221t158 -78q103 0 182.5 75.5
t101.5 223.5q11 81 -1 141.5t-42 94t-69 49.5t-86 16q-46 0 -89 -16.5t-82.5 -50t-69 -94t-40.5 -140.5z" />
    <glyph glyph-name="odieresis" unicode="&#xf6;" horiz-adv-x="1228" 
d="M53 547q17 118 61.5 214.5t105.5 161t137 108.5t153.5 63.5t157.5 19.5q62 0 121.5 -14t116.5 -43.5t101.5 -75t77 -108.5t42.5 -144t-3 -182q-20 -143 -77 -253.5t-140.5 -178t-184 -101.5t-214.5 -34q-75 0 -146.5 20.5t-135 66t-107.5 110.5t-63 160.5t-3 209.5z
M324 1415q0 66 48 114t111 48t111.5 -48t48.5 -114q0 -64 -49 -112t-111 -48t-110.5 48t-48.5 112zM348 549q-21 -143 37 -221t158 -78q103 0 182.5 75.5t101.5 223.5q11 81 -1 141.5t-42 94t-69 49.5t-86 16q-46 0 -89 -16.5t-82.5 -50t-69 -94t-40.5 -140.5zM776 1415
q0 66 48.5 114t111.5 48q61 0 109.5 -48t48.5 -114q0 -64 -48.5 -112t-109.5 -48q-62 0 -111 48t-49 112z" />
    <glyph glyph-name="divide" unicode="&#xf7;" horiz-adv-x="1331" 
d="M139 588l33 225h1012l-33 -225h-1012zM459 330q1 63 44.5 103t104.5 40q59 0 97.5 -39.5t37.5 -103.5q-1 -62 -45 -103t-104 -41t-98 40.5t-37 103.5zM559 1065q1 63 45.5 102t106.5 39q60 0 97 -39t34 -102q-1 -63 -45.5 -103t-104.5 -40t-97 39.5t-36 103.5z" />
    <glyph glyph-name="oslash" unicode="&#xf8;" horiz-adv-x="1228" 
d="M53 547q17 118 61.5 214.5t105.5 161t137 108.5t153.5 63.5t157.5 19.5q139 0 252 -65l65 77l125 -100l-70 -82q119 -149 84 -397q-20 -143 -77 -253.5t-140.5 -178t-184 -101.5t-214.5 -34q-130 0 -240 61l-71 -84l-125 98l73 86q-127 154 -92 406zM348 549
q-12 -97 8 -160l373 438q-42 23 -100 23q-46 0 -89 -16.5t-82.5 -50t-69 -94t-40.5 -140.5zM461 266q40 -16 82 -16q103 0 182.5 75.5t101.5 223.5q11 79 -2 143z" />
    <glyph glyph-name="ugrave" unicode="&#xf9;" horiz-adv-x="1249" 
d="M69.5 266.5q-15.5 80.5 0.5 186.5q90 637 90 641h338l-90 -641q-16 -107 24 -162t117 -55t133 56t70 161l90 641h329l-153 -1094h-256l-19 119q-45 -63 -129 -104.5t-182 -41.5q-64 0 -120.5 15.5t-108.5 50.5t-85 91t-48.5 136.5zM410 1458l329 184l105 -413h-258z" />
    <glyph glyph-name="uacute" unicode="&#xfa;" horiz-adv-x="1249" 
d="M69.5 266.5q-15.5 80.5 0.5 186.5q90 637 90 641h338l-90 -641q-16 -107 24 -162t117 -55t133 56t70 161l90 641h329l-153 -1094h-256l-19 119q-45 -63 -129 -104.5t-182 -41.5q-64 0 -120.5 15.5t-108.5 50.5t-85 91t-48.5 136.5zM522 1223l232 411l266 -209l-252 -202
h-246z" />
    <glyph glyph-name="ucircumflex" unicode="&#xfb;" horiz-adv-x="1249" 
d="M69.5 266.5q-15.5 80.5 0.5 186.5q90 637 90 641h338l-90 -641q-16 -107 24 -162t117 -55t133 56t70 161l90 641h329l-153 -1094h-256l-19 119q-45 -63 -129 -104.5t-182 -41.5q-64 0 -120.5 15.5t-108.5 50.5t-85 91t-48.5 136.5zM358 1360l252 223h264l193 -211
l-149 -160l-209 121l-248 -123z" />
    <glyph glyph-name="udieresis" unicode="&#xfc;" horiz-adv-x="1249" 
d="M69.5 266.5q-15.5 80.5 0.5 186.5q90 637 90 641h338l-90 -641q-16 -107 24 -162t117 -55t133 56t70 161l90 641h329l-153 -1094h-256l-19 119q-45 -63 -129 -104.5t-182 -41.5q-64 0 -120.5 15.5t-108.5 50.5t-85 91t-48.5 136.5zM328 1411q0 66 48 114t111 48
t111.5 -48t48.5 -114q0 -64 -49 -112t-111 -48t-110.5 48t-48.5 112zM780 1411q0 66 48.5 114t111.5 48q61 0 109.5 -48t48.5 -114q0 -64 -48.5 -112t-109.5 -48q-62 0 -111 48t-49 112z" />
    <glyph glyph-name="yacute" unicode="&#xfd;" horiz-adv-x="1171" 
d="M90 1094h338l104 -721l318 721h336l-768 -1516h-285l217 418l-2 4zM492 1225l231 411l266 -209l-252 -202h-245z" />
    <glyph glyph-name="thorn" unicode="&#xfe;" horiz-adv-x="1253" 
d="M-29 -424l265 1878h303l-64 -463q39 50 121 83.5t170 33.5q62 0 121.5 -20.5t115 -63t92.5 -109.5t54 -159.5t0 -212.5q-21 -145 -73 -254.5t-126.5 -174.5t-160 -96.5t-181.5 -31.5q-69 0 -138 33.5t-103 82.5l-72 -526h-324zM410 545q-21 -142 30.5 -219.5t143.5 -77.5
q102 0 172.5 73t91.5 222q9 87 0.5 145.5t-37 94.5t-63.5 51.5t-78 15.5q-39 0 -78 -16.5t-76.5 -50.5t-66 -95.5t-39.5 -142.5z" />
    <glyph glyph-name="ydieresis" unicode="&#xff;" horiz-adv-x="1171" 
d="M90 1094h338l104 -721l318 721h336l-768 -1516h-285l217 418l-2 4zM297 1413q0 66 48.5 114t111.5 48t111 -48t48 -114q0 -64 -48.5 -112t-110.5 -48t-111 48t-49 112zM750 1413q0 66 48 114t111 48q61 0 109.5 -48t48.5 -114q0 -64 -48.5 -112t-109.5 -48
q-62 0 -110.5 48t-48.5 112z" />
    <glyph glyph-name="Amacron" unicode="&#x100;" horiz-adv-x="1443" 
d="M-66 0l723 1454h328l320 -1454h-320l-53 262h-541l-125 -262h-332zM465 1604l31 215h755l-28 -215h-758zM514 518h365l-111 535z" />
    <glyph glyph-name="amacron" unicode="&#x101;" horiz-adv-x="1294" 
d="M57 551q16 117 59.5 213t101 159.5t128 107.5t141 63.5t140.5 19.5q92 0 174.5 -41t103.5 -94l60 115h254l-164 -1094h-242l-14 125q-45 -63 -133.5 -101t-182.5 -38q-67 0 -133.5 21t-126.5 67t-102.5 110.5t-60.5 159.5t-3 207zM365 1282l30 215h756l-29 -215h-757z
M371 553q-11 -79 1 -139.5t41.5 -95t67.5 -51.5t82 -17q97 0 175 77t100 226q21 150 -34.5 223.5t-156.5 73.5q-33 0 -66.5 -9t-67.5 -31.5t-62 -55.5t-49.5 -85t-30.5 -116z" />
    <glyph glyph-name="Abreve" unicode="&#x102;" horiz-adv-x="1443" 
d="M-66 0l723 1454h328l320 -1454h-320l-53 262h-541l-125 -262h-332zM492 1747l174 147q31 -43 89.5 -71.5t114.5 -28.5q57 0 115.5 27t106.5 75l141 -151q-58 -77 -166 -130.5t-229 -53.5q-118 0 -212.5 54t-133.5 132zM514 518h365l-111 535z" />
    <glyph glyph-name="abreve" unicode="&#x103;" horiz-adv-x="1294" 
d="M57 551q16 117 59.5 213t101 159.5t128 107.5t141 63.5t140.5 19.5q92 0 174.5 -41t103.5 -94l60 115h254l-164 -1094h-242l-14 125q-45 -63 -133.5 -101t-182.5 -38q-67 0 -133.5 21t-126.5 67t-102.5 110.5t-60.5 159.5t-3 207zM371 553q-11 -79 1 -139.5t41.5 -95
t67.5 -51.5t82 -17q97 0 175 77t100 226q21 150 -34.5 223.5t-156.5 73.5q-33 0 -66.5 -9t-67.5 -31.5t-62 -55.5t-49.5 -85t-30.5 -116zM403 1425l175 148q31 -43 89.5 -71.5t114.5 -28.5q57 0 115.5 27t106.5 75l141 -152q-58 -77 -166 -130.5t-229 -53.5q-118 0 -213 54
t-134 132z" />
    <glyph glyph-name="Aogonek" unicode="&#x104;" horiz-adv-x="1443" 
d="M-66 0l723 1454h328l320 -1454h-25l-195 -186q-14 -12 -9 -23.5t26 -11.5h139l-35 -244h-241q-72 0 -122 29t-68 74t-8.5 101t48.5 107q46 58 166 179l-49 237h-541l-125 -262h-332zM514 518h365l-111 535z" />
    <glyph glyph-name="aogonek" unicode="&#x105;" horiz-adv-x="1294" 
d="M57 551q16 117 59.5 213t101 159.5t128 107.5t141 63.5t140.5 19.5q92 0 174.5 -41t103.5 -94l60 115h254l-164 -1094h-2l-195 -186q-14 -12 -9.5 -23.5t25.5 -11.5h140l-35 -244h-242q-72 0 -121.5 29t-68 74t-8.5 101t49 107q55 73 207 220q2 2 10 6l-6 53
q-45 -63 -133.5 -101t-182.5 -38q-67 0 -133.5 21t-126.5 67t-102.5 110.5t-60.5 159.5t-3 207zM371 553q-11 -79 1 -139.5t41.5 -95t67.5 -51.5t82 -17q97 0 175 77t100 226q21 150 -34.5 223.5t-156.5 73.5q-33 0 -66.5 -9t-67.5 -31.5t-62 -55.5t-49.5 -85t-30.5 -116z
" />
    <glyph glyph-name="Cacute" unicode="&#x106;" horiz-adv-x="1466" 
d="M78 735q22 149 75 272.5t127.5 210t168 146t195.5 87.5t210 28q160 0 290 -66.5t203.5 -189t67.5 -277.5h-315q-4 114 -83.5 181t-199.5 67q-52 0 -102.5 -13.5t-103 -47.5t-95 -85t-76 -131.5t-47.5 -181.5q-16 -106 -5.5 -185.5t36 -134.5t68.5 -89.5t92 -50t106 -15.5
q125 0 222 71.5t130 182.5h316q-40 -183 -143.5 -305t-246.5 -177t-325 -55q-95 0 -183.5 26t-168 85.5t-134.5 145.5t-77.5 215.5t-1.5 285.5zM700 1563l232 411l266 -209l-252 -202h-246z" />
    <glyph glyph-name="cacute" unicode="&#x107;" 
d="M51 541q19 136 77.5 247t142 183t186 110.5t211.5 38.5q91 0 171 -26t143 -76t99.5 -131.5t36.5 -184.5h-309q-4 74 -51.5 113t-128.5 39q-43 0 -84.5 -17.5t-81 -53t-68.5 -98.5t-41 -146q-21 -151 39 -225t152 -74q77 0 134 35t83 100h309q-57 -199 -202.5 -298.5
t-360.5 -99.5q-77 0 -150 23t-135.5 70.5t-106 113.5t-62 158.5t-3.5 198.5zM518 1223l232 411l266 -209l-252 -202h-246z" />
    <glyph glyph-name="Cdotaccent" unicode="&#x10a;" horiz-adv-x="1466" 
d="M78 735q22 149 75 272.5t127.5 210t168 146t195.5 87.5t210 28q160 0 290 -66.5t203.5 -189t67.5 -277.5h-315q-4 114 -83.5 181t-199.5 67q-52 0 -102.5 -13.5t-103 -47.5t-95 -85t-76 -131.5t-47.5 -181.5q-16 -106 -5.5 -185.5t36 -134.5t68.5 -89.5t92 -50t106 -15.5
q125 0 222 71.5t130 182.5h316q-40 -183 -143.5 -305t-246.5 -177t-325 -55q-95 0 -183.5 26t-168 85.5t-134.5 145.5t-77.5 215.5t-1.5 285.5zM709 1733q0 66 48 113.5t113 47.5q64 0 113 -48t49 -113q0 -67 -49 -115.5t-113 -48.5q-65 0 -113 48.5t-48 115.5z" />
    <glyph glyph-name="cdotaccent" unicode="&#x10b;" 
d="M51 541q19 136 77.5 247t142 183t186 110.5t211.5 38.5q91 0 171 -26t143 -76t99.5 -131.5t36.5 -184.5h-309q-4 74 -51.5 113t-128.5 39q-43 0 -84.5 -17.5t-81 -53t-68.5 -98.5t-41 -146q-21 -151 39 -225t152 -74q77 0 134 35t83 100h309q-57 -199 -202.5 -298.5
t-360.5 -99.5q-77 0 -150 23t-135.5 70.5t-106 113.5t-62 158.5t-3.5 198.5zM549 1407q0 66 48.5 114t113.5 48q64 0 112.5 -48.5t48.5 -113.5q0 -67 -48.5 -115.5t-112.5 -48.5q-65 0 -113.5 48.5t-48.5 115.5z" />
    <glyph glyph-name="Ccaron" unicode="&#x10c;" horiz-adv-x="1466" 
d="M78 735q22 149 75 272.5t127.5 210t168 146t195.5 87.5t210 28q160 0 290 -66.5t203.5 -189t67.5 -277.5h-315q-4 114 -83.5 181t-199.5 67q-52 0 -102.5 -13.5t-103 -47.5t-95 -85t-76 -131.5t-47.5 -181.5q-16 -106 -5.5 -185.5t36 -134.5t68.5 -89.5t92 -50t106 -15.5
q125 0 222 71.5t130 182.5h316q-40 -183 -143.5 -305t-246.5 -177t-325 -55q-95 0 -183.5 26t-168 85.5t-134.5 145.5t-77.5 215.5t-1.5 285.5zM526 1780l150 162l211 -123l248 123l100 -152l-250 -221h-264z" />
    <glyph glyph-name="ccaron" unicode="&#x10d;" 
d="M51 541q19 136 77.5 247t142 183t186 110.5t211.5 38.5q91 0 171 -26t143 -76t99.5 -131.5t36.5 -184.5h-309q-4 74 -51.5 113t-128.5 39q-43 0 -84.5 -17.5t-81 -53t-68.5 -98.5t-41 -146q-21 -151 39 -225t152 -74q77 0 134 35t83 100h309q-57 -199 -202.5 -298.5
t-360.5 -99.5q-77 0 -150 23t-135.5 70.5t-106 113.5t-62 158.5t-3.5 198.5zM365 1454l149 162l211 -123l248 123l100 -152l-250 -221h-264z" />
    <glyph glyph-name="Dcaron" unicode="&#x10e;" horiz-adv-x="1404" 
d="M39 0l205 1454h483q147 0 268.5 -47.5t206 -136t121 -226.5t12.5 -309q-53 -377 -257.5 -556t-555.5 -179h-483zM391 291h172q400 0 461 444q31 218 -62 323t-276 105h-172zM465 1782l149 162l211 -123l248 123l101 -152l-250 -221h-265z" />
    <glyph glyph-name="dcaron" unicode="&#x10f;" horiz-adv-x="1576" 
d="M53 551q16 117 59 213t100.5 160t128 107.5t141.5 63t141 19.5q85 0 155.5 -36.5t87.5 -88.5l68 465h328l-205 -1454h-252l-10 125q-45 -63 -134.5 -101t-181.5 -38q-69 0 -135.5 21t-126 67t-101.5 110.5t-60 159.5t-3 207zM369 553q-11 -78 2.5 -138t45 -93t68.5 -49.5
t78 -16.5q42 0 83.5 17.5t80.5 51.5t68 93t39 135q11 76 -0.5 134.5t-40.5 92t-66.5 50t-81.5 16.5t-85.5 -15t-81 -47t-69 -91.5t-40.5 -139.5zM1362 1122l51 332h234l-99 -332h-186z" />
    <glyph glyph-name="Dcroat" unicode="&#x110;" horiz-adv-x="1417" 
d="M18 592l37 264h115l84 598h483q147 0 268.5 -47.5t206.5 -136t121.5 -226.5t12.5 -309q-53 -377 -258 -556t-556 -179h-483l84 592h-115zM401 291h172q400 0 461 444q31 218 -62 323t-276 105h-172l-43 -307h285l-39 -264h-283z" />
    <glyph glyph-name="dcroat" unicode="&#x111;" horiz-adv-x="1286" 
d="M53 551q16 117 59 213t100.5 160t128 107.5t141.5 63t141 19.5q85 0 155.5 -36.5t87.5 -88.5l35 252h-207l21 164h209l22 160h330l-23 -160h146l-25 -164h-143l-174 -1241h-252l-10 125q-45 -63 -134.5 -101t-181.5 -38q-69 0 -135.5 21t-126 67t-101.5 110.5t-60 159.5
t-3 207zM369 553q-11 -78 2.5 -138t45 -93t68.5 -49.5t78 -16.5q42 0 83.5 17.5t80.5 51.5t68 93t39 135q11 76 -0.5 134.5t-40.5 92t-66.5 50t-81.5 16.5t-85.5 -15t-81 -47t-69 -91.5t-40.5 -139.5z" />
    <glyph glyph-name="Emacron" unicode="&#x112;" horiz-adv-x="1251" 
d="M41 0l205 1454h991l-39 -283h-678l-43 -305h533l-41 -272h-531l-43 -311h682l-39 -283h-997zM379 1604l31 215h755l-28 -215h-758z" />
    <glyph glyph-name="emacron" unicode="&#x113;" 
d="M51 541q19 136 76.5 247t140 181t182 107.5t205.5 37.5q102 0 189 -33t152 -96.5t93.5 -169.5t10.5 -240l-19 -118h-751q-10 -104 59.5 -167t181.5 -63q85 0 171 30t145 71l104 -209q-84 -63 -200.5 -101t-253.5 -38q-110 0 -204.5 34.5t-165.5 101.5t-103.5 177
t-12.5 248zM303 1284l31 215h756l-29 -215h-758zM356 653h463q18 103 -40.5 161t-157.5 58q-90 0 -164 -59t-101 -160z" />
    <glyph glyph-name="Ebreve" unicode="&#x114;" horiz-adv-x="1251" 
d="M41 0l205 1454h991l-39 -283h-678l-43 -305h533l-41 -272h-531l-43 -311h682l-39 -283h-997zM408 1747l174 147q31 -43 89.5 -71.5t114.5 -28.5q57 0 115.5 27t106.5 75l141 -151q-58 -77 -166 -130.5t-229 -53.5q-118 0 -212.5 54t-133.5 132z" />
    <glyph glyph-name="ebreve" unicode="&#x115;" 
d="M51 541q19 136 76.5 247t140 181t182 107.5t205.5 37.5q102 0 189 -33t152 -96.5t93.5 -169.5t10.5 -240l-19 -118h-751q-10 -104 59.5 -167t181.5 -63q85 0 171 30t145 71l104 -209q-84 -63 -200.5 -101t-253.5 -38q-110 0 -204.5 34.5t-165.5 101.5t-103.5 177
t-12.5 248zM328 1427l174 148q31 -43 90 -71.5t115 -28.5q57 0 115 27t106 75l141 -152q-58 -77 -166 -130.5t-229 -53.5q-118 0 -212.5 54t-133.5 132zM356 653h463q18 103 -40.5 161t-157.5 58q-90 0 -164 -59t-101 -160z" />
    <glyph glyph-name="Edotaccent" unicode="&#x116;" horiz-adv-x="1251" 
d="M41 0l205 1454h991l-39 -283h-678l-43 -305h533l-41 -272h-531l-43 -311h682l-39 -283h-997zM614 1733q0 66 48.5 113.5t113.5 47.5q64 0 113 -48t49 -113q0 -67 -49 -115.5t-113 -48.5q-65 0 -113.5 48.5t-48.5 115.5z" />
    <glyph glyph-name="edotaccent" unicode="&#x117;" 
d="M51 541q19 136 76.5 247t140 181t182 107.5t205.5 37.5q102 0 189 -33t152 -96.5t93.5 -169.5t10.5 -240l-19 -118h-751q-10 -104 59.5 -167t181.5 -63q85 0 171 30t145 71l104 -209q-84 -63 -200.5 -101t-253.5 -38q-110 0 -204.5 34.5t-165.5 101.5t-103.5 177
t-12.5 248zM356 653h463q18 103 -40.5 161t-157.5 58q-90 0 -164 -59t-101 -160zM537 1411q0 66 48 114t113 48q64 0 113 -48.5t49 -113.5q0 -67 -49 -115.5t-113 -48.5q-65 0 -113 48.5t-48 115.5z" />
    <glyph glyph-name="Eogonek" unicode="&#x118;" horiz-adv-x="1251" 
d="M41 0l205 1454h991l-39 -283h-678l-43 -305h533l-41 -272h-531l-43 -311h682l-39 -283l-194 -186q-14 -12 -9.5 -23.5t25.5 -11.5h139l-34 -244h-242q-72 0 -122 29t-68 74t-8.5 101t48.5 107q35 47 142 154h-674z" />
    <glyph glyph-name="eogonek" unicode="&#x119;" 
d="M51 541q19 136 76.5 247t140 181t182 107.5t205.5 37.5q102 0 189 -33t152 -96.5t93.5 -169.5t10.5 -240l-19 -118h-751q-10 -104 59.5 -167t181.5 -63q85 0 171 30t145 71l104 -209q-1 -1 -3 -2t-3 -2l-194 -187q-14 -12 -9.5 -23t25.5 -11h139l-35 -244h-241
q-72 0 -122 29t-68 74t-8.5 101t48.5 107q8 12 15 19q-110 0 -204 34.5t-165 101.5t-103 177t-12 248zM356 653h463q18 103 -40.5 161t-157.5 58q-90 0 -164 -59t-101 -160z" />
    <glyph glyph-name="Ecaron" unicode="&#x11a;" horiz-adv-x="1251" 
d="M41 0l205 1454h991l-39 -283h-678l-43 -305h533l-41 -272h-531l-43 -311h682l-39 -283h-997zM432 1780l150 162l211 -123l247 123l101 -152l-250 -221h-264z" />
    <glyph glyph-name="ecaron" unicode="&#x11b;" 
d="M51 541q19 136 76.5 247t140 181t182 107.5t205.5 37.5q102 0 189 -33t152 -96.5t93.5 -169.5t10.5 -240l-19 -118h-751q-10 -104 59.5 -167t181.5 -63q85 0 171 30t145 71l104 -209q-84 -63 -200.5 -101t-253.5 -38q-110 0 -204.5 34.5t-165.5 101.5t-103.5 177
t-12.5 248zM354 1458l150 162l211 -123l248 123l100 -152l-250 -221h-264zM356 653h463q18 103 -40.5 161t-157.5 58q-90 0 -164 -59t-101 -160z" />
    <glyph glyph-name="Gbreve" unicode="&#x11e;" horiz-adv-x="1470" 
d="M77 442q-23 124 1 285q25 182 99 327t179 236t231.5 138.5t264.5 48.5q157 0 285.5 -62.5t202.5 -180t69 -267.5h-313q-3 88 -80.5 157.5t-202.5 69.5q-150 0 -270 -121t-152 -346q-15 -126 -1.5 -214.5t57 -145t102 -82t133.5 -25.5q145 0 240.5 72.5t117.5 216.5h-258
l35 244h576l-21 -150q-93 -666 -731 -666q-100 0 -189.5 26.5t-169 82.5t-131 144t-74.5 212zM516 1747l174 147q31 -43 90 -71.5t115 -28.5q57 0 115 27t106 75l141 -151q-58 -77 -166 -130.5t-229 -53.5q-118 0 -212.5 54t-133.5 132z" />
    <glyph glyph-name="gbreve" unicode="&#x11f;" horiz-adv-x="1255" 
d="M-31 -326l201 203q100 -96 246 -96q257 0 291 239l8 72q-37 -52 -103 -84.5t-157 -32.5q-69 0 -132 21t-119 65t-93 112t-52.5 161.5t2.5 212.5q16 115 57 211t96 161t123 110.5t137.5 66t139.5 20.5q89 0 159 -34.5t93 -90.5l39 103h277l-138 -977
q-46 -328 -209.5 -472.5t-447.5 -144.5q-128 0 -241.5 50t-176.5 124zM360 545q-22 -143 30.5 -220t154.5 -77q100 0 173 78t93 221q41 301 -182 301q-44 0 -86 -17.5t-79.5 -52t-65.5 -95t-38 -138.5zM365 1425l174 148q31 -43 89.5 -71.5t114.5 -28.5q57 0 115.5 27
t106.5 75l141 -152q-58 -77 -166 -130.5t-229 -53.5q-118 0 -212.5 54t-133.5 132z" />
    <glyph glyph-name="Gdotaccent" unicode="&#x120;" horiz-adv-x="1470" 
d="M77 442q-23 124 1 285q25 182 99 327t179 236t231.5 138.5t264.5 48.5q157 0 285.5 -62.5t202.5 -180t69 -267.5h-313q-3 88 -80.5 157.5t-202.5 69.5q-150 0 -270 -121t-152 -346q-15 -126 -1.5 -214.5t57 -145t102 -82t133.5 -25.5q145 0 240.5 72.5t117.5 216.5h-258
l35 244h576l-21 -150q-93 -666 -731 -666q-100 0 -189.5 26.5t-169 82.5t-131 144t-74.5 212zM723 1733q0 66 48.5 113.5t113.5 47.5q64 0 113 -48t49 -113q0 -67 -49 -115.5t-113 -48.5q-65 0 -113.5 48.5t-48.5 115.5z" />
    <glyph glyph-name="gdotaccent" unicode="&#x121;" horiz-adv-x="1255" 
d="M-31 -326l201 203q100 -96 246 -96q257 0 291 239l8 72q-37 -52 -103 -84.5t-157 -32.5q-69 0 -132 21t-119 65t-93 112t-52.5 161.5t2.5 212.5q16 115 57 211t96 161t123 110.5t137.5 66t139.5 20.5q89 0 159 -34.5t93 -90.5l39 103h277l-138 -977
q-46 -328 -209.5 -472.5t-447.5 -144.5q-128 0 -241.5 50t-176.5 124zM360 545q-22 -143 30.5 -220t154.5 -77q100 0 173 78t93 221q41 301 -182 301q-44 0 -86 -17.5t-79.5 -52t-65.5 -95t-38 -138.5zM573 1409q0 66 48.5 114t113.5 48q64 0 113 -48.5t49 -113.5
q0 -67 -49 -115.5t-113 -48.5q-65 0 -113.5 48.5t-48.5 115.5z" />
    <glyph glyph-name="uni0122" unicode="&#x122;" horiz-adv-x="1470" 
d="M77 442q-23 124 1 285q25 182 99 327t179 236t231.5 138.5t264.5 48.5q157 0 285.5 -62.5t202.5 -180t69 -267.5h-313q-3 88 -80.5 157.5t-202.5 69.5q-150 0 -270 -121t-152 -346q-15 -126 -1.5 -214.5t57 -145t102 -82t133.5 -25.5q145 0 240.5 72.5t117.5 216.5h-258
l35 244h576l-21 -150q-93 -666 -731 -666q-100 0 -189.5 26.5t-169 82.5t-131 144t-74.5 212zM399 -463l101 361h293l-166 -361h-228z" />
    <glyph glyph-name="uni0123" unicode="&#x123;" horiz-adv-x="1255" 
d="M-31 -326l201 203q100 -96 246 -96q257 0 291 239l8 72q-37 -52 -103 -84.5t-157 -32.5q-69 0 -132 21t-119 65t-93 112t-52.5 161.5t2.5 212.5q16 115 57 211t96 161t123 110.5t137.5 66t139.5 20.5q89 0 159 -34.5t93 -90.5l39 103h277l-138 -977
q-46 -328 -209.5 -472.5t-447.5 -144.5q-128 0 -241.5 50t-176.5 124zM360 545q-22 -143 30.5 -220t154.5 -77q100 0 173 78t93 221q41 301 -182 301q-44 0 -86 -17.5t-79.5 -52t-65.5 -95t-38 -138.5zM547 1233l166 360h227l-100 -360h-293z" />
    <glyph glyph-name="Hbar" unicode="&#x126;" horiz-adv-x="1413" 
d="M43 0l150 1059h-130l35 244h129l21 151h313l-20 -151h495l21 151h313l-20 -151h127l-35 -244h-127l-150 -1059h-313l84 586h-498l-82 -586h-313zM479 877h496l26 182h-495z" />
    <glyph glyph-name="hbar" unicode="&#x127;" horiz-adv-x="1261" 
d="M35 0l172 1227h-150l21 164h151l25 174h326l-25 -174h207l-25 -164h-205l-30 -226q36 43 120.5 78t157.5 35q85 0 156 -31t123.5 -90.5t74 -157.5t3.5 -223l-86 -612h-334l86 608q13 105 -28 158t-120 53q-72 0 -134 -59t-75 -152l-86 -608h-325z" />
    <glyph glyph-name="Imacron" unicode="&#x12a;" horiz-adv-x="598" 
d="M41 0l205 1454h313l-205 -1454h-313zM172 1602l31 217h497l-30 -217h-498z" />
    <glyph glyph-name="imacron" unicode="&#x12b;" horiz-adv-x="583" 
d="M39 0l154 1094h303l-156 -1094h-301zM109 1294l34 252h527l-37 -252h-524z" />
    <glyph glyph-name="Ibreve" unicode="&#x12c;" horiz-adv-x="598" 
d="M41 0l205 1454h313l-205 -1454h-313zM123 1733l172 141q66 -98 154 -98q102 0 167 98l144 -139q-42 -82 -136 -138.5t-208 -56.5q-105 0 -183.5 55t-109.5 138z" />
    <glyph glyph-name="ibreve" unicode="&#x12d;" horiz-adv-x="583" 
d="M39 0l154 1094h303l-156 -1094h-301zM74 1436l174 139q31 -48 63.5 -72t81.5 -24q109 0 172 96l146 -139q-41 -82 -136.5 -138.5t-207.5 -56.5q-99 0 -182.5 57.5t-110.5 137.5z" />
    <glyph glyph-name="Iogonek" unicode="&#x12e;" horiz-adv-x="598" 
d="M-163.5 -261q9.5 56 48.5 107q46 60 158 172l203 1436h313l-205 -1454h-4l-194 -186q-14 -12 -9.5 -23.5t25.5 -11.5h139l-35 -244h-241q-72 0 -122 29t-68 74t-8.5 101z" />
    <glyph glyph-name="iogonek" unicode="&#x12f;" horiz-adv-x="604" 
d="M-180 -261q10 56 49 107q44 59 172 187l149 1061h304l-156 -1094h-4l-195 -186q-14 -12 -9 -23.5t26 -11.5h139l-35 -244h-242q-72 0 -121.5 29t-68 74t-8.5 101zM199 1370q6 74 56.5 113t127.5 39q78 0 125 -39.5t41 -112.5q-3 -73 -55 -113t-129 -40t-123 39.5
t-43 113.5z" />
    <glyph glyph-name="Idotaccent" unicode="&#x130;" horiz-adv-x="598" 
d="M41 0l205 1454h313l-205 -1454h-313zM270 1743q0 66 48.5 114t113.5 48q64 0 113 -48.5t49 -113.5q0 -67 -49 -115.5t-113 -48.5q-65 0 -113.5 48.5t-48.5 115.5z" />
    <glyph glyph-name="dotlessi" unicode="&#x131;" horiz-adv-x="583" 
d="M39 0l154 1094h303l-156 -1094h-301z" />
    <glyph glyph-name="uni0136" unicode="&#x136;" horiz-adv-x="1411" 
d="M41 0l205 1454h313l-82 -588l565 588h410l-606 -637l440 -817h-375l-319 600l-176 -170l-62 -430h-313zM324 -516l100 360h293l-166 -360h-227z" />
    <glyph glyph-name="uni0137" unicode="&#x137;" horiz-adv-x="1208" 
d="M27 0l204 1454h326l-108 -772l385 412h383l-469 -490l331 -604h-362l-230 455l-79 -62l-56 -393h-325zM219 -512l100 360h293l-166 -360h-227z" />
    <glyph glyph-name="Lacute" unicode="&#x139;" horiz-adv-x="1187" 
d="M41 0l205 1454h313l-164 -1173h649l-38 -281h-965zM299 1544l231 412l267 -209l-252 -203h-246z" />
    <glyph glyph-name="lacute" unicode="&#x13a;" horiz-adv-x="575" 
d="M27 0l204 1454h312l-205 -1454h-311zM258 1554l182 381l301 -184l-237 -197h-246z" />
    <glyph glyph-name="uni013B" unicode="&#x13b;" horiz-adv-x="1187" 
d="M41 0l205 1454h313l-164 -1173h649l-38 -281h-965zM209 -524l100 360h293l-166 -360h-227z" />
    <glyph glyph-name="uni013C" unicode="&#x13c;" horiz-adv-x="577" 
d="M-78 -494l101 361h292l-165 -361h-228zM29 0l204 1454h312l-205 -1454h-311z" />
    <glyph glyph-name="Lcaron" unicode="&#x13d;" horiz-adv-x="1204" 
d="M41 0l205 1454h313l-164 -1173h649l-38 -281h-965zM842 1067l92 383h254l-141 -379z" />
    <glyph glyph-name="lcaron" unicode="&#x13e;" horiz-adv-x="888" 
d="M27 0l204 1454h312l-205 -1454h-311zM618 1073l80 381h250l-145 -381h-185z" />
    <glyph glyph-name="Ldot" unicode="&#x13f;" horiz-adv-x="1187" 
d="M41 0l205 1454h313l-164 -1173h649l-38 -281h-965zM870 856q0 66 48.5 114t113.5 48q64 0 113 -48.5t49 -113.5q0 -67 -49 -115.5t-113 -48.5q-65 0 -113.5 48.5t-48.5 115.5z" />
    <glyph glyph-name="ldot" unicode="&#x140;" horiz-adv-x="970" 
d="M27 0l204 1454h312l-205 -1454h-311zM584 731q0 74 50 122t120 48t119 -48t49 -122q0 -75 -48.5 -121.5t-119.5 -46.5t-120.5 46.5t-49.5 121.5z" />
    <glyph glyph-name="Lslash" unicode="&#x141;" horiz-adv-x="1234" 
d="M-10 705l209 88l94 661h313l-74 -524l267 110l94 -237l-401 -166l-50 -356h650l-39 -281h-965l70 500l-76 -31z" />
    <glyph glyph-name="lslash" unicode="&#x142;" horiz-adv-x="753" 
d="M20 848l213 41l80 565h312l-72 -502l160 31l37 -258l-234 -45l-96 -680h-311l88 621l-138 -27z" />
    <glyph glyph-name="Nacute" unicode="&#x143;" horiz-adv-x="1478" 
d="M41 0l205 1454h307l436 -899l133 899h314l-205 -1454h-316l-438 891l-123 -891h-313zM713 1550l231 412l266 -209l-252 -203h-245z" />
    <glyph glyph-name="nacute" unicode="&#x144;" horiz-adv-x="1226" 
d="M27 0l153 1094h240l20 -113q41 57 137 99t197 42q79 0 145 -25.5t116.5 -77t71.5 -141t5 -206.5l-94 -672h-316l93 655q13 98 -28.5 152.5t-121.5 54.5t-139 -56t-72 -151l-92 -655h-315zM530 1233l232 412l266 -209l-252 -203h-246z" />
    <glyph glyph-name="uni0145" unicode="&#x145;" horiz-adv-x="1478" 
d="M41 0l205 1454h307l436 -899l133 899h314l-205 -1454h-316l-438 891l-123 -891h-313zM375 -475l100 360h293l-166 -360h-227z" />
    <glyph glyph-name="uni0146" unicode="&#x146;" horiz-adv-x="1226" 
d="M27 2l153 1094h240l20 -113q41 57 137 99t197 42q79 0 145 -25.5t116.5 -77t71.5 -141t5 -206.5l-94 -672h-316l93 655q13 98 -28.5 152.5t-121.5 54.5t-139 -56t-72 -151l-92 -655h-315zM276 -461l101 361h293l-166 -361h-228z" />
    <glyph glyph-name="Ncaron" unicode="&#x147;" horiz-adv-x="1478" 
d="M41 0l205 1454h307l436 -899l133 899h314l-205 -1454h-316l-438 891l-123 -891h-313zM539 1765l149 162l211 -123l248 123l100 -151l-250 -222h-264z" />
    <glyph glyph-name="ncaron" unicode="&#x148;" horiz-adv-x="1226" 
d="M27 0l153 1094h240l20 -113q41 57 137 99t197 42q79 0 145 -25.5t116.5 -77t71.5 -141t5 -206.5l-94 -672h-316l93 655q13 98 -28.5 152.5t-121.5 54.5t-139 -56t-72 -151l-92 -655h-315zM377 1466l149 162l211 -123l248 123l100 -151l-249 -222h-265z" />
    <glyph glyph-name="Omacron" unicode="&#x14c;" horiz-adv-x="1482" 
d="M78 733q26 181 95.5 324t171.5 235t229 139.5t272 47.5q137 0 250 -48.5t191.5 -140t111.5 -235.5t8 -322q-53 -366 -258 -559.5t-514 -193.5q-134 0 -245.5 48t-191 139.5t-112.5 237t-8 328.5zM392 514.5q14 -89.5 58 -146t100.5 -81.5t125.5 -25q74 0 139 26t122 80.5
t97.5 147.5t57.5 217q15 101 4.5 177.5t-36 130.5t-67 88t-88 49.5t-100.5 15.5q-68 0 -131.5 -25.5t-121.5 -77.5t-100 -144t-59 -214q-15 -129 -1 -218.5zM485 1604l31 215h756l-29 -215h-758z" />
    <glyph glyph-name="omacron" unicode="&#x14d;" horiz-adv-x="1228" 
d="M53 547q17 118 61.5 214.5t105.5 161t137 108.5t153.5 63.5t157.5 19.5q62 0 121.5 -14t116.5 -43.5t101.5 -75t77 -108.5t42.5 -144t-3 -182q-20 -143 -77 -253.5t-140.5 -178t-184 -101.5t-214.5 -34q-75 0 -146.5 20.5t-135 66t-107.5 110.5t-63 160.5t-3 209.5z
M313 1286l31 215h756l-29 -215h-758zM348 549q-21 -143 37 -221t158 -78q103 0 182.5 75.5t101.5 223.5q11 81 -1 141.5t-42 94t-69 49.5t-86 16q-46 0 -89 -16.5t-82.5 -50t-69 -94t-40.5 -140.5z" />
    <glyph glyph-name="Obreve" unicode="&#x14e;" horiz-adv-x="1482" 
d="M78 733q26 181 95.5 324t171.5 235t229 139.5t272 47.5q137 0 250 -48.5t191.5 -140t111.5 -235.5t8 -322q-53 -366 -258 -559.5t-514 -193.5q-134 0 -245.5 48t-191 139.5t-112.5 237t-8 328.5zM392 514.5q14 -89.5 58 -146t100.5 -81.5t125.5 -25q74 0 139 26t122 80.5
t97.5 147.5t57.5 217q15 101 4.5 177.5t-36 130.5t-67 88t-88 49.5t-100.5 15.5q-68 0 -131.5 -25.5t-121.5 -77.5t-100 -144t-59 -214q-15 -129 -1 -218.5zM512 1747l174 147q31 -43 90 -71.5t115 -28.5q57 0 115 27t106 75l141 -151q-58 -77 -166 -130.5t-229 -53.5
q-118 0 -212.5 54t-133.5 132z" />
    <glyph glyph-name="obreve" unicode="&#x14f;" horiz-adv-x="1228" 
d="M53 547q17 118 61.5 214.5t105.5 161t137 108.5t153.5 63.5t157.5 19.5q62 0 121.5 -14t116.5 -43.5t101.5 -75t77 -108.5t42.5 -144t-3 -182q-20 -143 -77 -253.5t-140.5 -178t-184 -101.5t-214.5 -34q-75 0 -146.5 20.5t-135 66t-107.5 110.5t-63 160.5t-3 209.5z
M338 1430l174 147q31 -43 90 -71.5t115 -28.5q57 0 115 27t106 75l141 -152q-58 -77 -166 -130.5t-229 -53.5q-118 0 -212.5 54.5t-133.5 132.5zM348 549q-21 -143 37 -221t158 -78q103 0 182.5 75.5t101.5 223.5q11 81 -1 141.5t-42 94t-69 49.5t-86 16q-46 0 -89 -16.5
t-82.5 -50t-69 -94t-40.5 -140.5z" />
    <glyph glyph-name="Ohungarumlaut" unicode="&#x150;" horiz-adv-x="1482" 
d="M78 733q26 181 95.5 324t171.5 235t229 139.5t272 47.5q137 0 250 -48.5t191.5 -140t111.5 -235.5t8 -322q-53 -366 -258 -559.5t-514 -193.5q-134 0 -245.5 48t-191 139.5t-112.5 237t-8 328.5zM392 514.5q14 -89.5 58 -146t100.5 -81.5t125.5 -25q74 0 139 26t122 80.5
t97.5 147.5t57.5 217q15 101 4.5 177.5t-36 130.5t-67 88t-88 49.5t-100.5 15.5q-68 0 -131.5 -25.5t-121.5 -77.5t-100 -144t-59 -214q-15 -129 -1 -218.5zM549 1575l166 410l278 -107l-215 -303h-229zM942 1575l166 410l281 -107l-218 -303h-229z" />
    <glyph glyph-name="ohungarumlaut" unicode="&#x151;" horiz-adv-x="1228" 
d="M53 547q17 118 61.5 214.5t105.5 161t137 108.5t153.5 63.5t157.5 19.5q62 0 121.5 -14t116.5 -43.5t101.5 -75t77 -108.5t42.5 -144t-3 -182q-20 -143 -77 -253.5t-140.5 -178t-184 -101.5t-214.5 -34q-75 0 -146.5 20.5t-135 66t-107.5 110.5t-63 160.5t-3 209.5z
M348 549q-21 -143 37 -221t158 -78q103 0 182.5 75.5t101.5 223.5q11 81 -1 141.5t-42 94t-69 49.5t-86 16q-46 0 -89 -16.5t-82.5 -50t-69 -94t-40.5 -140.5zM367 1249l165 410l279 -107l-215 -303h-229zM760 1249l166 410l280 -107l-217 -303h-229z" />
    <glyph glyph-name="OE" unicode="&#x152;" horiz-adv-x="2158" 
d="M29 733q26 181 95.5 324t171.5 235t229 139.5t272 47.5q270 0 424 -168l20 143h991l-39 -283h-677l-43 -305h532l-41 -272h-530l-43 -311h682l-39 -283h-998l19 133q-191 -153 -469 -153q-134 0 -245.5 48t-191 139.5t-112.5 237t-8 328.5zM343 514.5q14 -89.5 58 -146
t100.5 -81.5t125.5 -25q74 0 139 26t121.5 80.5t97 147.5t57.5 217q15 101 4.5 177.5t-35.5 130.5t-66.5 88t-88.5 49.5t-100 15.5q-68 0 -131.5 -25.5t-121.5 -77.5t-100 -144t-59 -214q-15 -129 -1 -218.5z" />
    <glyph glyph-name="oe" unicode="&#x153;" horiz-adv-x="1949" 
d="M12 547q17 118 61.5 214.5t105.5 161t137 108.5t153.5 63.5t157.5 19.5q120 0 229 -53t172 -158q86 103 204.5 157t246.5 54q102 0 189 -33t151.5 -96.5t93 -169.5t10.5 -240l-18 -118h-752q-10 -104 60 -167t182 -63q84 0 170 30t145 71l105 -209q-84 -63 -200.5 -101
t-254.5 -38q-136 0 -249 51.5t-177 152.5q-86 -102 -206.5 -153t-260.5 -51q-75 0 -146.5 20.5t-135 66t-107.5 110.5t-63 160.5t-3 209.5zM307 549q-21 -143 37 -221t158 -78q103 0 182.5 75.5t101.5 223.5q11 81 -1 141.5t-42 94t-69 49.5t-86 16q-46 0 -89 -16.5
t-82.5 -50t-69 -94t-40.5 -140.5zM1180 653h462q18 103 -40.5 161t-157.5 58q-90 0 -163.5 -59t-100.5 -160z" />
    <glyph glyph-name="Racute" unicode="&#x154;" horiz-adv-x="1363" 
d="M41 0l205 1454h520q140 0 247 -37.5t170 -102.5t89 -151.5t12 -187.5q-19 -133 -97 -235t-212 -156l201 -584h-342l-158 510h-252l-72 -510h-311zM465 788h211q245 0 272 197q14 98 -50 143.5t-169 45.5h-211zM616 1563l232 411l266 -209l-252 -202h-246z" />
    <glyph glyph-name="racute" unicode="&#x155;" horiz-adv-x="849" 
d="M27 0l153 1094h232l18 -119q38 59 125 99t176 40q3 0 119 -8l-39 -287q-58 6 -109 6q-122 0 -189 -57t-85 -193l-82 -575h-319zM348 1231l232 411l266 -208l-252 -203h-246z" />
    <glyph glyph-name="uni0156" unicode="&#x156;" horiz-adv-x="1363" 
d="M41 0l205 1454h520q140 0 247 -37.5t170 -102.5t89 -151.5t12 -187.5q-19 -133 -97 -235t-212 -156l201 -584h-342l-158 510h-252l-72 -510h-311zM317 -449l101 361h293l-166 -361h-228zM465 788h211q245 0 272 197q14 98 -50 143.5t-169 45.5h-211z" />
    <glyph glyph-name="uni0157" unicode="&#x157;" horiz-adv-x="849" 
d="M-55 -465l100 361h293l-166 -361h-227zM27 0l153 1094h232l18 -119q38 59 125 99t176 40q3 0 119 -8l-39 -287q-58 6 -109 6q-122 0 -189 -57t-85 -193l-82 -575h-319z" />
    <glyph glyph-name="Rcaron" unicode="&#x158;" horiz-adv-x="1363" 
d="M41 0l205 1454h520q140 0 247 -37.5t170 -102.5t89 -151.5t12 -187.5q-19 -133 -97 -235t-212 -156l201 -584h-342l-158 510h-252l-72 -510h-311zM442 1778l150 161l211 -122l248 122l100 -151l-250 -221h-264zM465 788h211q245 0 272 197q14 98 -50 143.5t-169 45.5
h-211z" />
    <glyph glyph-name="rcaron" unicode="&#x159;" horiz-adv-x="849" 
d="M27 0l153 1094h232l18 -119q38 59 125 99t176 40q3 0 119 -8l-39 -287q-58 6 -109 6q-122 0 -189 -57t-85 -193l-82 -575h-319zM195 1464l149 162l211 -123l248 123l100 -151l-250 -222h-264z" />
    <glyph glyph-name="Sacute" unicode="&#x15a;" horiz-adv-x="1245" 
d="M-10 215l225 209q56 -68 151 -113t195 -45q227 0 246 152q12 83 -39.5 119t-189.5 57q-73 11 -137 33t-121 59t-95.5 86t-56 118t-6.5 150q27 194 182.5 314.5t398.5 120.5q148 0 266.5 -51t196.5 -136l-215 -211q-41 44 -133 83.5t-172 39.5q-97 0 -158.5 -40.5
t-70.5 -108.5q-9 -74 49 -107t196 -49q101 -12 184.5 -46t145 -89.5t88.5 -140t10 -187.5q-36 -223 -194 -339t-410 -116q-168 0 -308 67t-228 171zM602 1559l232 411l266 -209l-252 -202h-246z" />
    <glyph glyph-name="sacute" unicode="&#x15b;" horiz-adv-x="1038" 
d="M-27 113l174 223q69 -44 153.5 -74.5t154.5 -30.5q86 0 123 25t43 76q7 53 -45 75t-187 39q-133 21 -216.5 104.5t-63.5 217.5q21 152 149.5 252t321.5 100q241 0 393 -106l-148 -213q-18 12 -50.5 29t-99 38t-124.5 21q-65 0 -109.5 -24.5t-50.5 -67.5q-2 -13 1 -24.5
t11 -20.5t17 -15.5t25 -12.5t29.5 -10t36 -8.5l37.5 -7.5l42 -6l43 -8q154 -25 229.5 -113t55.5 -233q-24 -172 -149 -269.5t-359 -97.5q-106 0 -231.5 39t-205.5 103zM440 1231l232 411l266 -208l-252 -203h-246z" />
    <glyph glyph-name="Scedilla" unicode="&#x15e;" horiz-adv-x="1245" 
d="M-10 215l225 209q56 -68 151 -113t195 -45q227 0 246 152q12 83 -39.5 119t-189.5 57q-73 11 -137 33t-121 59t-95.5 86t-56 118t-6.5 150q27 194 182.5 314.5t398.5 120.5q148 0 266.5 -51t196.5 -136l-215 -211q-41 44 -133 83.5t-172 39.5q-97 0 -158.5 -40.5
t-70.5 -108.5q-9 -74 49 -107t196 -49q101 -12 184.5 -46t145 -89.5t88.5 -140t10 -187.5q-35 -211 -177.5 -326t-372.5 -126l-15 -58q80 -14 134 -75t42 -164q-18 -114 -100.5 -182t-224.5 -68q-60 0 -158 30l66 177q11 -6 53.5 -11.5t64.5 -5.5q39 0 65.5 17t29.5 47
q6 32 -16.5 50t-67.5 21l-86 4l63 222q-138 18 -251.5 80.5t-188.5 150.5z" />
    <glyph glyph-name="scedilla" unicode="&#x15f;" horiz-adv-x="1038" 
d="M-27 113l174 223q69 -44 153.5 -74.5t154.5 -30.5q86 0 123 25t43 76q7 53 -45 75t-187 39q-133 21 -216.5 104.5t-63.5 217.5q21 152 149.5 252t321.5 100q241 0 393 -106l-148 -213q-18 12 -50.5 29t-99 38t-124.5 21q-65 0 -109.5 -24.5t-50.5 -67.5q-2 -13 1 -24.5
t11 -20.5t17 -15.5t25 -12.5t29.5 -10t36 -8.5l37.5 -7.5l42 -6l43 -8q154 -25 229.5 -113t55.5 -233q-23 -162 -135.5 -258.5t-321.5 -106.5l-17 -61q80 -14 134.5 -75.5t42.5 -164.5q-18 -114 -101 -182t-225 -68q-57 0 -158 31l66 176q11 -6 53.5 -11t65.5 -5
q39 0 65 16.5t29 46.5q6 32 -16.5 50.5t-67.5 21.5l-86 4l63 228q-92 14 -183 49t-153 84z" />
    <glyph glyph-name="Scaron" unicode="&#x160;" horiz-adv-x="1245" 
d="M-10 215l225 209q56 -68 151 -113t195 -45q227 0 246 152q12 83 -39.5 119t-189.5 57q-73 11 -137 33t-121 59t-95.5 86t-56 118t-6.5 150q27 194 182.5 314.5t398.5 120.5q148 0 266.5 -51t196.5 -136l-215 -211q-41 44 -133 83.5t-172 39.5q-97 0 -158.5 -40.5
t-70.5 -108.5q-9 -74 49 -107t196 -49q101 -12 184.5 -46t145 -89.5t88.5 -140t10 -187.5q-36 -223 -194 -339t-410 -116q-168 0 -308 67t-228 171zM428 1774l150 161l210 -123l248 123l101 -151l-250 -221h-264z" />
    <glyph glyph-name="scaron" unicode="&#x161;" horiz-adv-x="1038" 
d="M-27 113l174 223q69 -44 153.5 -74.5t154.5 -30.5q86 0 123 25t43 76q7 53 -45 75t-187 39q-133 21 -216.5 104.5t-63.5 217.5q21 152 149.5 252t321.5 100q241 0 393 -106l-148 -213q-18 12 -50.5 29t-99 38t-124.5 21q-65 0 -109.5 -24.5t-50.5 -67.5q-2 -13 1 -24.5
t11 -20.5t17 -15.5t25 -12.5t29.5 -10t36 -8.5l37.5 -7.5l42 -6l43 -8q154 -25 229.5 -113t55.5 -233q-24 -172 -149 -269.5t-359 -97.5q-106 0 -231.5 39t-205.5 103zM287 1462l149 162l211 -123l248 123l100 -151l-250 -222h-264z" />
    <glyph glyph-name="uni0162" unicode="&#x162;" horiz-adv-x="1257" 
d="M131 1180l39 272h1124l-39 -272h-407l-164 -1180h-100l-23 -84q80 -14 134 -75.5t42 -164.5q-18 -114 -100.5 -181.5t-224.5 -67.5q-60 0 -158 30l65 176q11 -6 53.5 -11t65.5 -5q39 0 65 17t29 47q6 32 -16 50t-67 21l-87 4l70 244h-61l164 1180h-404z" />
    <glyph glyph-name="uni0163" unicode="&#x163;" horiz-adv-x="780" 
d="M57 -498l66 176q11 -6 53.5 -11t65.5 -5q39 0 65 17t29 47q6 32 -16.5 50t-67.5 21l-86 4l70 244q-130 81 -103 268l76 537h-143l34 244h142l104 295h256l-41 -295h201l-35 -244h-201l-63 -440q-13 -93 16.5 -125.5t108.5 -32.5h49l-35 -246q-58 -12 -153 -12
q-28 0 -74 4l-10 -37q80 -14 134 -75.5t42 -164.5q-18 -114 -101 -181.5t-225 -67.5q-61 0 -158 30z" />
    <glyph glyph-name="Tcaron" unicode="&#x164;" horiz-adv-x="1257" 
d="M129 1180l39 272h1124l-39 -272h-407l-164 -1180h-313l163 1180h-403zM416 1786l149 162l211 -123l248 123l100 -152l-250 -221h-264z" />
    <glyph glyph-name="tcaron" unicode="&#x165;" horiz-adv-x="987" 
d="M66 850l34 244h142l104 295h256l-41 -295h201l-35 -244h-201l-63 -440q-13 -93 16.5 -125.5t108.5 -32.5h49l-35 -246q-58 -12 -153 -12q-166 0 -252.5 81.5t-63.5 237.5l76 537h-143zM762 1178l63 338h234l-113 -338h-184z" />
    <glyph glyph-name="Umacron" unicode="&#x16a;" horiz-adv-x="1390" 
d="M87.5 376.5q-17.5 100.5 0.5 227.5l121 850h313l-119 -848q-24 -166 45.5 -248t184.5 -82q58 0 109 19t95 58t74.5 103.5t42.5 149.5l119 848h313l-118 -850q-22 -155 -84.5 -275.5t-153.5 -196t-202.5 -114t-237.5 -38.5q-96 0 -179 24t-151 73.5t-111.5 124t-61 175z
M430 1585l31 215h756l-29 -215h-758z" />
    <glyph glyph-name="umacron" unicode="&#x16b;" horiz-adv-x="1249" 
d="M69.5 266.5q-15.5 80.5 0.5 186.5q90 637 90 641h338l-90 -641q-16 -107 24 -162t117 -55t133 56t70 161l90 641h329l-153 -1094h-256l-19 119q-45 -63 -129 -104.5t-182 -41.5q-64 0 -120.5 15.5t-108.5 50.5t-85 91t-48.5 136.5zM317 1280l31 215h756l-29 -215h-758z
" />
    <glyph glyph-name="Ubreve" unicode="&#x16c;" horiz-adv-x="1390" 
d="M87.5 376.5q-17.5 100.5 0.5 227.5l121 850h313l-119 -848q-24 -166 45.5 -248t184.5 -82q58 0 109 19t95 58t74.5 103.5t42.5 149.5l119 848h313l-118 -850q-22 -155 -84.5 -275.5t-153.5 -196t-202.5 -114t-237.5 -38.5q-96 0 -179 24t-151 73.5t-111.5 124t-61 175z
M459 1729l174 147q31 -43 90 -71.5t115 -28.5q57 0 115 27t106 75l141 -152q-58 -77 -166 -130.5t-229 -53.5q-118 0 -212.5 54.5t-133.5 132.5z" />
    <glyph glyph-name="ubreve" unicode="&#x16d;" horiz-adv-x="1249" 
d="M69.5 266.5q-15.5 80.5 0.5 186.5q90 637 90 641h338l-90 -641q-16 -107 24 -162t117 -55t133 56t70 161l90 641h329l-153 -1094h-256l-19 119q-45 -63 -129 -104.5t-182 -41.5q-64 0 -120.5 15.5t-108.5 50.5t-85 91t-48.5 136.5zM344 1425l174 148q31 -43 90 -71.5
t115 -28.5q57 0 115 27t106 75l141 -152q-58 -77 -166 -130.5t-229 -53.5q-118 0 -212.5 54t-133.5 132z" />
    <glyph glyph-name="Uring" unicode="&#x16e;" horiz-adv-x="1390" 
d="M87.5 376.5q-17.5 100.5 0.5 227.5l121 850h313l-119 -848q-24 -166 45.5 -248t184.5 -82q58 0 109 19t95 58t74.5 103.5t42.5 149.5l119 848h313l-118 -850q-22 -155 -84.5 -275.5t-153.5 -196t-202.5 -114t-237.5 -38.5q-96 0 -179 24t-151 73.5t-111.5 124t-61 175z
M563 1761q0 108 79 186t181 78q101 0 181.5 -78t80.5 -186q0 -106 -80 -182t-182 -76t-181 75.5t-79 182.5zM729 1765q0 -41 27 -67.5t67 -26.5q41 0 68 26.5t27 67.5q0 40 -27 67.5t-68 27.5q-40 0 -67 -27.5t-27 -67.5z" />
    <glyph glyph-name="uring" unicode="&#x16f;" horiz-adv-x="1249" 
d="M69.5 266.5q-15.5 80.5 0.5 186.5q90 637 90 641h338l-90 -641q-16 -107 24 -162t117 -55t133 56t70 161l90 641h329l-153 -1094h-256l-19 119q-45 -63 -129 -104.5t-182 -41.5q-64 0 -120.5 15.5t-108.5 50.5t-85 91t-48.5 136.5zM453 1475q0 108 79 186t181 78
q101 0 181.5 -78t80.5 -186q0 -106 -80 -182t-182 -76t-181 75.5t-79 182.5zM618 1479q0 -41 27.5 -68t67.5 -27q41 0 67.5 27t26.5 68q0 40 -26.5 67t-67.5 27q-40 0 -67.5 -27t-27.5 -67z" />
    <glyph glyph-name="Uhungarumlaut" unicode="&#x170;" horiz-adv-x="1390" 
d="M87.5 376.5q-17.5 100.5 0.5 227.5l121 850h313l-119 -848q-24 -166 45.5 -248t184.5 -82q58 0 109 19t95 58t74.5 103.5t42.5 149.5l119 848h313l-118 -850q-22 -155 -84.5 -275.5t-153.5 -196t-202.5 -114t-237.5 -38.5q-96 0 -179 24t-151 73.5t-111.5 124t-61 175z
M440 1556l166 410l279 -106l-215 -304h-230zM834 1556l165 410l281 -106l-217 -304h-229z" />
    <glyph glyph-name="uhungarumlaut" unicode="&#x171;" horiz-adv-x="1249" 
d="M69.5 266.5q-15.5 80.5 0.5 186.5q90 637 90 641h338l-90 -641q-16 -107 24 -162t117 -55t133 56t70 161l90 641h329l-153 -1094h-256l-19 119q-45 -63 -129 -104.5t-182 -41.5q-64 0 -120.5 15.5t-108.5 50.5t-85 91t-48.5 136.5zM371 1245l166 410l278 -107l-215 -303
h-229zM764 1245l166 410l280 -107l-217 -303h-229z" />
    <glyph glyph-name="Uogonek" unicode="&#x172;" horiz-adv-x="1390" 
d="M88 604l121 850h313l-119 -848q-24 -166 45.5 -248t184.5 -82q58 0 109 19t95 58t74.5 103.5t42.5 149.5l119 848h313l-118 -850q-28 -199 -121 -337t-232 -212l-190 -182q-14 -12 -9.5 -23.5t25.5 -11.5h140l-35 -244h-242q-72 0 -121.5 29.5t-68 74.5t-8.5 101t49 107
q47 58 65 78q-108 10 -194.5 53.5t-147.5 118.5t-85.5 190t-4.5 258z" />
    <glyph glyph-name="uogonek" unicode="&#x173;" horiz-adv-x="1249" 
d="M69.5 266.5q-15.5 80.5 0.5 186.5q90 637 90 641h338l-90 -641q-16 -107 24 -162t117 -55t133 56t70 161l90 641h329l-153 -1094l-195 -186q-14 -12 -9 -23.5t26 -11.5h139l-35 -244h-242q-72 0 -121.5 29t-68 74t-8.5 101t49 107q49 66 201 213l-11 60
q-45 -63 -129 -104.5t-182 -41.5q-64 0 -120.5 15.5t-108.5 50.5t-85 91t-48.5 136.5z" />
    <glyph glyph-name="Wcircumflex" unicode="&#x174;" horiz-adv-x="1925" 
d="M139 1454h326l102 -924l394 879h215l137 -883l346 928h334l-592 -1454h-307l-127 733l-334 -733h-301zM752 1663l252 223h264l192 -211l-149 -159l-209 120l-248 -123z" />
    <glyph glyph-name="wcircumflex" unicode="&#x175;" horiz-adv-x="1669" 
d="M90 1094h330l74 -641l284 641h221l109 -641l242 641h331l-477 -1094h-299l-100 541l-254 -541h-285zM584 1360l252 223h264l192 -211l-149 -160l-209 121l-248 -123z" />
    <glyph glyph-name="Ycircumflex" unicode="&#x176;" horiz-adv-x="1337" 
d="M139 1454h350l199 -577l354 577h361l-610 -911l-76 -543h-311l75 543zM455 1675l252 223h264l192 -210l-149 -160l-209 121l-248 -123z" />
    <glyph glyph-name="ycircumflex" unicode="&#x177;" horiz-adv-x="1171" 
d="M90 1094h338l104 -721l318 721h336l-768 -1516h-285l217 418l-2 4zM328 1362l252 223h264l192 -211l-149 -160l-209 121l-248 -123z" />
    <glyph glyph-name="Ydieresis" unicode="&#x178;" horiz-adv-x="1337" 
d="M139 1454h350l199 -577l354 577h361l-610 -911l-76 -543h-311l75 543zM422 1718q0 66 48.5 114t111.5 48t111 -48t48 -114q0 -64 -48.5 -111.5t-110.5 -47.5t-111 47.5t-49 111.5zM874 1718q0 66 48.5 114t111.5 48q61 0 109.5 -48t48.5 -114q0 -64 -48.5 -111.5
t-109.5 -47.5q-62 0 -111 47.5t-49 111.5z" />
    <glyph glyph-name="Zacute" unicode="&#x179;" horiz-adv-x="1220" 
d="M-35 0l41 299l774 856h-633l43 299h1037l-43 -293l-778 -862h673l-43 -299h-1071zM555 1563l231 411l267 -209l-252 -202h-246z" />
    <glyph glyph-name="zacute" unicode="&#x17a;" horiz-adv-x="1003" 
d="M-23 0l31 213l557 623h-454l34 258h816l-31 -220l-543 -614h471l-37 -260h-844zM403 1223l232 411l266 -209l-252 -202h-246z" />
    <glyph glyph-name="Zdotaccent" unicode="&#x17b;" horiz-adv-x="1220" 
d="M-35 0l41 299l774 856h-633l43 299h1037l-43 -293l-778 -862h673l-43 -299h-1071zM563 1733q0 66 48.5 113.5t113.5 47.5q64 0 113 -48t49 -113q0 -67 -49 -115.5t-113 -48.5q-65 0 -113.5 48.5t-48.5 115.5z" />
    <glyph glyph-name="zdotaccent" unicode="&#x17c;" horiz-adv-x="1003" 
d="M-23 0l31 213l557 623h-454l34 258h816l-31 -220l-543 -614h471l-37 -260h-844zM432 1409q0 66 48.5 114t113.5 48q64 0 113 -48.5t49 -113.5q0 -67 -49 -115.5t-113 -48.5q-65 0 -113.5 48.5t-48.5 115.5z" />
    <glyph glyph-name="Zcaron" unicode="&#x17d;" horiz-adv-x="1220" 
d="M-35 0l41 299l774 856h-633l43 299h1037l-43 -293l-778 -862h673l-43 -299h-1071zM381 1780l149 162l211 -123l248 123l101 -152l-250 -221h-265z" />
    <glyph glyph-name="zcaron" unicode="&#x17e;" horiz-adv-x="1003" 
d="M-23 0l31 213l557 623h-454l34 258h816l-31 -220l-543 -614h471l-37 -260h-844zM270 1456l150 162l211 -123l248 123l100 -152l-250 -221h-264z" />
    <glyph glyph-name="uni01DD" unicode="&#x1dd;" horiz-adv-x="1228" 
d="M35 516l18 119h752q10 104 -60 166.5t-182 62.5q-85 0 -171 -29.5t-144 -70.5l-105 209q84 63 200.5 101t254.5 38q87 0 165.5 -21t144.5 -66.5t110.5 -110t62.5 -158.5t2 -205q-19 -136 -76.5 -247t-140 -181.5t-182 -108t-205.5 -37.5q-102 0 -189 33t-151.5 96.5
t-93 169.5t-10.5 240zM315 438q-18 -103 41 -161t158 -58q90 0 163.5 59t100.5 160h-463z" />
    <glyph glyph-name="Aringacute" unicode="&#x1fa;" horiz-adv-x="1443" 
d="M-66 0l723 1454h328l320 -1454h-320l-53 262h-541l-125 -262h-332zM514 518h365l-111 535zM596 1786q0 108 79 186t181 78q101 0 181.5 -78t80.5 -186q0 -106 -80 -182t-182 -76t-181 75.5t-79 182.5zM762 1790q0 -41 27 -67.5t67 -26.5q41 0 67.5 26.5t26.5 67.5
q0 40 -26.5 67t-67.5 27q-40 0 -67 -27t-27 -67zM762 2120l231 411l267 -209l-252 -202h-246z" />
    <glyph glyph-name="aringacute" unicode="&#x1fb;" horiz-adv-x="1306" 
d="M78 551q20 144 80.5 256.5t142 177t170 97t176.5 32.5q93 0 175.5 -41t103.5 -94l59 115h254l-164 -1094h-241l-15 125q-45 -63 -133 -101t-182 -38q-67 0 -133.5 21t-126.5 67t-102.5 110.5t-60.5 159.5t-3 207zM391 553q-11 -79 1 -139.5t41.5 -95t68 -51.5t82.5 -17
q97 0 174.5 77t99.5 226q21 150 -34 223.5t-156 73.5q-42 0 -84 -15.5t-82 -48.5t-70 -93t-41 -140zM510 1448q0 108 79 186t181 78q101 0 181.5 -78t80.5 -186q0 -106 -80 -182t-182 -76t-181 75.5t-79 182.5zM672 1810l231 412l266 -209l-251 -203h-246zM676 1452
q0 -41 27 -67.5t67 -26.5q41 0 67.5 26.5t26.5 67.5q0 40 -26.5 67t-67.5 27q-40 0 -67 -27t-27 -67z" />
    <glyph glyph-name="AEacute" unicode="&#x1fc;" horiz-adv-x="2027" 
d="M-113 0l961 1454h1167l-39 -283h-669l-43 -299h526l-41 -282h-526l-43 -307h671l-41 -283h-981l41 289h-442l-195 -289h-346zM600 557h307l80 576zM1061 1573l231 412l267 -209l-252 -203h-246z" />
    <glyph glyph-name="aeacute" unicode="&#x1fd;" horiz-adv-x="1796" 
d="M-29 319q21 149 157 249t355 100q46 0 111.5 -7t85.5 -14l4 29q9 90 -31.5 136t-126.5 46q-120 0 -200 -80l-209 129q69 91 187.5 150t270.5 59q236 0 343 -145q166 143 385 143q102 0 189 -33t151.5 -96.5t93 -169.5t10.5 -240l-18 -118h-752q-10 -104 60 -167t182 -63
q84 0 170 30t145 71l104 -209q-84 -63 -200.5 -101t-253.5 -38q-114 0 -213 37t-166 110q-152 -143 -420 -143q-210 0 -322.5 95t-91.5 240zM266 340q-6 -57 36 -92t120 -35q94 0 151.5 51.5t71.5 136.5l6 48q-77 23 -162 18q-101 -1 -157.5 -34t-65.5 -93zM786 1245
l232 412l266 -209l-252 -203h-246zM1004 653h462q18 103 -40.5 161t-157.5 58q-90 0 -163.5 -59t-100.5 -160z" />
    <glyph glyph-name="Oslashacute" unicode="&#x1fe;" horiz-adv-x="1437" 
d="M78 78l98 119q-145 206 -98 536q26 181 95.5 324t171.5 235t229 139.5t272 47.5q186 0 325 -86l86 102l148 -121l-94 -114q141 -198 96 -527q-53 -366 -258 -559.5t-514 -193.5q-182 0 -318 86l-90 -109zM393 733q-22 -153 10 -266l566 682q-71 45 -164 45
q-68 0 -131.5 -25.5t-121.5 -77.5t-100 -144t-59 -214zM516 305q70 -43 160 -43q74 0 139 26t122 80.5t97.5 147.5t57.5 217q20 148 -11 252zM651 1571l232 411l266 -208l-252 -203h-246z" />
    <glyph glyph-name="oslashacute" unicode="&#x1ff;" horiz-adv-x="1228" 
d="M53 547q17 118 61.5 214.5t105.5 161t137 108.5t153.5 63.5t157.5 19.5q139 0 252 -65l65 77l125 -100l-70 -82q119 -149 84 -397q-20 -143 -77 -253.5t-140.5 -178t-184 -101.5t-214.5 -34q-130 0 -240 61l-71 -84l-125 98l73 86q-127 154 -92 406zM348 549
q-12 -97 8 -160l373 438q-42 23 -100 23q-46 0 -89 -16.5t-82.5 -50t-69 -94t-40.5 -140.5zM461 266q40 -16 82 -16q103 0 182.5 75.5t101.5 223.5q11 79 -2 143zM530 1217l232 411l266 -209l-252 -202h-246z" />
    <glyph glyph-name="uni0218" unicode="&#x218;" horiz-adv-x="1245" 
d="M-10 215l225 209q56 -68 151 -113t195 -45q227 0 246 152q12 83 -39.5 119t-189.5 57q-73 11 -137 33t-121 59t-95.5 86t-56 118t-6.5 150q27 194 182.5 314.5t398.5 120.5q148 0 266.5 -51t196.5 -136l-215 -211q-41 44 -133 83.5t-172 39.5q-97 0 -158.5 -40.5
t-70.5 -108.5q-9 -74 49 -107t196 -49q101 -12 184.5 -46t145 -89.5t88.5 -140t10 -187.5q-36 -223 -194 -339t-410 -116q-168 0 -308 67t-228 171zM289 -457l100 361h293l-166 -361h-227z" />
    <glyph glyph-name="uni0219" unicode="&#x219;" horiz-adv-x="1038" 
d="M-27 113l174 223q69 -44 153.5 -74.5t154.5 -30.5q86 0 123 25t43 76q7 53 -45 75t-187 39q-133 21 -216.5 104.5t-63.5 217.5q21 152 149.5 252t321.5 100q241 0 393 -106l-148 -213q-18 12 -50.5 29t-99 38t-124.5 21q-65 0 -109.5 -24.5t-50.5 -67.5q-2 -13 1 -24.5
t11 -20.5t17 -15.5t25 -12.5t29.5 -10t36 -8.5l37.5 -7.5l42 -6l43 -8q154 -25 229.5 -113t55.5 -233q-24 -172 -149 -269.5t-359 -97.5q-106 0 -231.5 39t-205.5 103zM160 -465l100 361h293l-166 -361h-227z" />
    <glyph glyph-name="uni021A" unicode="&#x21a;" horiz-adv-x="1257" 
d="M131 1180l39 272h1124l-39 -272h-407l-164 -1180h-313l164 1180h-404zM274 -463l101 361h293l-166 -361h-228z" />
    <glyph glyph-name="uni021B" unicode="&#x21b;" horiz-adv-x="776" 
d="M66 850l34 244h142l104 295h256l-41 -295h201l-35 -244h-201l-63 -440q-13 -93 16.5 -125.5t108.5 -32.5h49l-35 -246q-58 -12 -153 -12q-166 0 -252.5 81.5t-63.5 237.5l76 537h-143zM74 -469l100 360h293l-166 -360h-227z" />
    <glyph glyph-name="circumflex" unicode="&#x2c6;" horiz-adv-x="735" 
d="M94 1294l252 224h264l193 -211l-150 -160l-209 121l-247 -123z" />
    <glyph glyph-name="caron" unicode="&#x2c7;" horiz-adv-x="735" 
d="M102 1358l150 162l211 -123l248 123l100 -152l-250 -221h-264z" />
    <glyph glyph-name="breve" unicode="&#x2d8;" horiz-adv-x="768" 
d="M104 1378l175 148q31 -43 89.5 -72t114.5 -29t115 27.5t107 75.5l141 -152q-58 -77 -166 -130.5t-229 -53.5q-118 0 -213 54t-134 132z" />
    <glyph glyph-name="dotaccent" unicode="&#x2d9;" horiz-adv-x="354" 
d="M102 1341q0 66 48.5 114t113.5 48q64 0 113 -48.5t49 -113.5q0 -67 -49 -115t-113 -48q-65 0 -113.5 48t-48.5 115z" />
    <glyph glyph-name="ring" unicode="&#x2da;" horiz-adv-x="555" 
d="M100 1327q0 108 79 186t181 78q101 0 182 -78t81 -186q0 -106 -80.5 -182t-182.5 -76t-181 75.5t-79 182.5zM266 1331q0 -41 27 -67.5t67 -26.5q41 0 68 26.5t27 67.5q0 40 -27 67t-68 27q-40 0 -67 -27t-27 -67z" />
    <glyph glyph-name="ogonek" unicode="&#x2db;" horiz-adv-x="763" 
d="M6.5 -291q9.5 56 48.5 107q52 69 207 219q13 13 55 20.5t77 8.5l36 2l90 -97l-194 -186q-14 -12 -9.5 -23.5t25.5 -11.5h139l-35 -244h-241q-72 0 -122 29.5t-68 74.5t-8.5 101z" />
    <glyph glyph-name="tilde" unicode="&#x2dc;" horiz-adv-x="913" 
d="M72 1145q23 103 105.5 184t191.5 88q59 3 110.5 -9.5t81.5 -29.5t68 -32.5t71 -16.5q93 -5 142 98l147 -55q-10 -58 -49 -118.5t-104 -105.5t-136 -50q-55 -4 -99.5 8t-70 29t-66 33t-87.5 18q-112 3 -174 -88z" />
    <glyph glyph-name="hungarumlaut" unicode="&#x2dd;" horiz-adv-x="823" 
d="M68 1112l165 410l279 -107l-215 -303h-229zM461 1112l166 410l280 -107l-217 -303h-229z" />
    <glyph glyph-name="Wgrave" unicode="&#x1e80;" horiz-adv-x="1925" 
d="M139 1454h326l102 -924l394 879h215l137 -883l346 928h334l-592 -1454h-307l-127 733l-334 -733h-301zM791 1772l329 184l105 -414h-258z" />
    <glyph glyph-name="wgrave" unicode="&#x1e81;" horiz-adv-x="1669" 
d="M90 1094h330l74 -641l284 641h221l109 -641l242 641h331l-477 -1094h-299l-100 541l-254 -541h-285zM635 1458l330 184l104 -413h-258z" />
    <glyph glyph-name="Wacute" unicode="&#x1e82;" horiz-adv-x="1925" 
d="M139 1454h326l102 -924l394 879h215l137 -883l346 928h334l-592 -1454h-307l-127 733l-334 -733h-301zM936 1542l231 412l267 -209l-252 -203h-246z" />
    <glyph glyph-name="wacute" unicode="&#x1e83;" horiz-adv-x="1669" 
d="M90 1094h330l74 -641l284 641h221l109 -641l242 641h331l-477 -1094h-299l-100 541l-254 -541h-285zM748 1223l231 411l266 -209l-252 -202h-245z" />
    <glyph glyph-name="Wdieresis" unicode="&#x1e84;" horiz-adv-x="1925" 
d="M139 1454h326l102 -924l394 879h215l137 -883l346 928h334l-592 -1454h-307l-127 733l-334 -733h-301zM717 1706q0 66 48.5 114t111.5 48t111 -48t48 -114q0 -64 -48.5 -112t-110.5 -48t-111 48t-49 112zM1169 1706q0 66 48.5 114t111.5 48q61 0 109.5 -48t48.5 -114
q0 -64 -48.5 -112t-109.5 -48q-62 0 -111 48t-49 112z" />
    <glyph glyph-name="wdieresis" unicode="&#x1e85;" horiz-adv-x="1669" 
d="M90 1094h330l74 -641l284 641h221l109 -641l242 641h331l-477 -1094h-299l-100 541l-254 -541h-285zM555 1411q0 66 48.5 114t111.5 48t111 -48t48 -114q0 -64 -48.5 -112t-110.5 -48t-111 48t-49 112zM1008 1411q0 66 48 114t111 48q61 0 109.5 -48t48.5 -114
q0 -64 -48.5 -112t-109.5 -48q-62 0 -110.5 48t-48.5 112z" />
    <glyph glyph-name="Ygrave" unicode="&#x1ef2;" horiz-adv-x="1337" 
d="M139 1454h350l199 -577l354 577h361l-610 -911l-76 -543h-311l75 543zM494 1784l329 184l105 -414h-258z" />
    <glyph glyph-name="ygrave" unicode="&#x1ef3;" horiz-adv-x="1171" 
d="M90 1094h338l104 -721l318 721h336l-768 -1516h-285l217 418l-2 4zM377 1460l330 185l104 -414h-258z" />
    <glyph glyph-name="endash" unicode="&#x2013;" horiz-adv-x="1138" 
d="M96 508l41 287h883l-41 -287h-883z" />
    <glyph glyph-name="emdash" unicode="&#x2014;" horiz-adv-x="1888" 
d="M145 510l39 287h1538l-39 -287h-1538z" />
    <glyph glyph-name="quoteleft" unicode="&#x2018;" horiz-adv-x="544" 
d="M199 1454h290l-8 -485h-239z" />
    <glyph glyph-name="quoteright" unicode="&#x2019;" horiz-adv-x="544" 
d="M115 969l90 485h289l-140 -485h-239z" />
    <glyph glyph-name="quotesinglbase" unicode="&#x201a;" horiz-adv-x="552" 
d="M31 0l71 485h246l-72 -485h-245z" />
    <glyph glyph-name="quotedblleft" unicode="&#x201c;" horiz-adv-x="976" 
d="M199 1454h290l-8 -485h-239zM631 1454h291l-9 -485h-239z" />
    <glyph glyph-name="quotedblright" unicode="&#x201d;" horiz-adv-x="974" 
d="M115 969l90 485h289l-140 -485h-239zM545 969l90 485h289l-140 -485h-239z" />
    <glyph glyph-name="quotedblbase" unicode="&#x201e;" horiz-adv-x="987" 
d="M31 0l71 485h246l-72 -485h-245zM463 0l72 485h245l-71 -485h-246z" />
    <glyph glyph-name="dagger" unicode="&#x2020;" horiz-adv-x="1140" 
d="M176 952l37 271h279l36 266h299l-36 -266h276l-39 -271h-274l-101 -710h-301l101 710h-277z" />
    <glyph glyph-name="daggerdbl" unicode="&#x2021;" horiz-adv-x="1140" 
d="M113 506l37 270h276l25 176h-275l39 271h274l37 266h301l-36 -266h276l-37 -271h-278l-25 -176h277l-39 -270h-277l-37 -266h-299l37 266h-276z" />
    <glyph glyph-name="bullet" unicode="&#x2022;" horiz-adv-x="808" 
d="M168 743q0 107 68 172.5t170 65.5q103 0 170 -65.5t67 -172.5t-67 -171t-170 -64q-102 0 -170 64.5t-68 170.5z" />
    <glyph glyph-name="ellipsis" unicode="&#x2026;" horiz-adv-x="1546" 
d="M100 150q0 72 45.5 116.5t116.5 44.5t117.5 -45t46.5 -116q0 -70 -47 -117t-117 -47t-116 46.5t-46 117.5zM606 150q0 71 46.5 116t117.5 45t117.5 -45t46.5 -116q0 -70 -47 -117t-117 -47t-117 47t-47 117zM1106 150q0 72 46 116.5t118 44.5q71 0 116.5 -44.5
t45.5 -116.5q0 -71 -46 -117.5t-116 -46.5q-72 0 -118 46.5t-46 117.5z" />
    <glyph glyph-name="guilsinglleft" unicode="&#x2039;" horiz-adv-x="739" 
d="M94 524l19 113l307 336l194 -168l-215 -223l138 -232l-232 -168z" />
    <glyph glyph-name="guilsinglright" unicode="&#x203a;" horiz-adv-x="739" 
d="M76 338l215 223l-137 232l231 168l211 -343l-18 -112l-308 -336z" />
    <glyph glyph-name="Euro" unicode="&#x20ac;" horiz-adv-x="1374" 
d="M27 477l26 187h113q0 8 1 18t2.5 22t2.5 19q2 12 12 70h-112l26 186h138q95 249 287.5 373.5t457.5 124.5q250 0 422 -88l-146 -275q-130 70 -307 70q-138 0 -225 -48.5t-139 -156.5h612l-88 -186h-582q-1 -4 -12 -66q-1 -12 -4 -33t-4 -30h536l-86 -187h-442
q23 -106 97 -155.5t204 -49.5q101 0 180.5 18t171.5 54l-43 -307q-158 -60 -368 -60q-117 0 -216.5 29.5t-180 88.5t-131.5 156.5t-64 225.5h-139z" />
    <glyph glyph-name="arrowleft" unicode="&#x2190;" horiz-adv-x="1628" 
d="M92 705l735 641l179 -209l-332 -291h799l-41 -283h-797l250 -291l-238 -209z" />
    <glyph glyph-name="arrowup" unicode="&#x2191;" horiz-adv-x="1400" 
d="M63 801l732 643l551 -643l-238 -209l-248 291l-119 -842h-286l120 842l-331 -291z" />
    <glyph glyph-name="arrowright" unicode="&#x2192;" horiz-adv-x="1619" 
d="M133 559l41 283h801l-252 293l238 206l555 -639l-736 -643l-180 209l332 291h-799z" />
    <glyph glyph-name="arrowdown" unicode="&#x2193;" horiz-adv-x="1398" 
d="M45 668l238 202l247 -292l119 843h285l-119 -839l332 288l180 -206l-731 -646z" />
    <glyph glyph-name="minus" unicode="&#x2212;" horiz-adv-x="1300" 
d="M145 557l37 260h963l-37 -260h-963z" />
    <glyph glyph-name="uni25FC" unicode="&#x25fc;" horiz-adv-x="1095" 
d="M0 0v1096h1096v-1096h-1096z" />
    <glyph glyph-name="uniF6C3" unicode="&#xf6c3;" horiz-adv-x="368" 
d="M-152 -442l101 360h293l-166 -360h-228z" />
    <glyph glyph-name="glyph339" horiz-adv-x="862" 
d="M-51 -324l26 195l295 262q26 23 55 48t45 39t33.5 29.5t26.5 24.5t17 18.5t11.5 17.5t4.5 16q6 39 -17.5 61.5t-64.5 22.5q-85 0 -121 -82h-223q20 129 126.5 214t252.5 85q152 0 232.5 -88t62.5 -209q-4 -30 -13.5 -57.5t-28 -54t-32.5 -45t-43 -45t-43 -39t-48.5 -40.5
t-45.5 -37l-142 -129h334l-28 -207h-672z" />
    </font>
</defs>
</svg>
