<?xml version="1.0" standalone="no"?>
<!DOCTYPE svg PUBLIC "-//W3C//DTD SVG 1.1//EN" "http://www.w3.org/Graphics/SVG/1.1/DTD/svg11.dtd" >
<svg xmlns="http://www.w3.org/2000/svg" xmlns:xlink="http://www.w3.org/1999/xlink" version="1.1">
<metadata>
Created by FontForge 20170731 at Sun Apr  1 07:36:38 2018
 By Aleksey,,,
2018
</metadata>
<defs>
<font id="Klima-Light" horiz-adv-x="544" >
  <font-face 
    font-family="Klima Light"
    font-weight="298"
    font-stretch="normal"
    units-per-em="1000"
    panose-1="2 1 5 3 4 2 0 0 0 3"
    ascent="800"
    descent="-200"
    x-height="506"
    cap-height="710"
    bbox="-24.6136 -253 1030 1137"
    underline-thickness="47"
    underline-position="-274"
    unicode-range="U+000D-F6C3"
  />
<missing-glyph horiz-adv-x="613" 
d="M54 -81v798h500v-798h-500zM110 -27h388v690h-388v-690z" />
    <glyph glyph-name=".notdef" horiz-adv-x="613" 
d="M54 -81v798h500v-798h-500zM110 -27h388v690h-388v-690z" />
    <glyph glyph-name=".null" horiz-adv-x="0" 
 />
    <glyph glyph-name="nonmarkingreturn" horiz-adv-x="333" 
 />
    <glyph glyph-name="CR" unicode="&#xd;" horiz-adv-x="220" 
 />
    <glyph glyph-name="space" unicode=" " horiz-adv-x="180" 
 />
    <glyph glyph-name="exclam" unicode="!" horiz-adv-x="265" 
d="M118 182l-11 249v279h52v-279l-11 -249h-30zM132 -2q-13 0 -24 10.5t-11 27.5q0 16 11 27t24 11t24.5 -11t11.5 -27q0 -17 -11.5 -27.5t-24.5 -10.5z" />
    <glyph glyph-name="quotedbl" unicode="&#x22;" horiz-adv-x="303" 
d="M194 710h46v-191h-46v191zM62 710h46v-191h-46v191z" />
    <glyph glyph-name="numbersign" unicode="#" horiz-adv-x="724" 
d="M153 0l31 217h-142v45h148l27 189h-175v45h181l30 214h48l-30 -214h201l30 214h48l-30 -214h163v-45h-169l-27 -189h196v-45h-202l-31 -217h-48l31 217h-201l-31 -217h-48zM238 262h201l27 189h-201z" />
    <glyph glyph-name="dollar" unicode="$" horiz-adv-x="622" 
d="M296 -142v135q-78 6 -136 45.5t-88 86.5l37 28q31 -46 84 -80t125 -34q37 0 70 9.5t58 28.5t39.5 47.5t14.5 66.5q0 44 -14 73t-39 46.5t-61 26t-80 12.5q-42 4 -80 17t-66 35t-44.5 54t-16.5 75q0 84 55 134t148 55v121h48v-121q70 -4 110.5 -29t67.5 -56l-36 -31
q-19 26 -60.5 48t-110.5 22q-78 0 -126 -35.5t-48 -106.5q0 -68 50 -98t131 -37q47 -4 87.5 -17t70 -37.5t46 -61.5t16.5 -89q0 -47 -16.5 -83t-44.5 -60.5t-65 -38t-78 -16.5v-135h-48z" />
    <glyph glyph-name="percent" unicode="%" horiz-adv-x="782" 
d="M214 391q-57 0 -100.5 43t-43.5 119q0 73 43 116.5t101 43.5q61 0 103 -42.5t42 -116.5q0 -78 -41.5 -120.5t-103.5 -42.5zM99 0l521 710h53l-521 -710h-53zM215 431q43 0 73 31t30 91q0 55 -30 87.5t-73 32.5q-42 0 -72.5 -32t-30.5 -88q0 -57 30.5 -89.5t72.5 -32.5z
M565 -6q-57 0 -101 43.5t-44 118.5q0 74 43.5 117.5t101.5 43.5q60 0 102 -43t42 -118q0 -78 -41 -120t-103 -42zM565 34q43 0 73 31t30 91q0 56 -29.5 88t-73.5 32q-42 0 -72 -31.5t-30 -88.5t30 -89.5t72 -32.5z" />
    <glyph glyph-name="ampersand" unicode="&#x26;" horiz-adv-x="679" 
d="M260 -5q-48 0 -86.5 16t-66 43t-42 63t-14.5 76q0 65 38 120.5t112 89.5q-6 8 -19 23t-26 35.5t-23 46t-10 53.5q0 67 43.5 112t115.5 45q73 0 115 -45.5t42 -114.5q0 -33 -15 -60.5t-38.5 -48.5t-52.5 -37t-55 -27l30 -33t66.5 -71.5t67 -71.5l30.5 -33l98 108h60
l-126 -141l124 -143h-61l-95 106q-41 -47 -93.5 -79t-118.5 -32zM247 418q28 11 54.5 25t46.5 31t32 38t12 46q0 52 -30.5 84t-81.5 32q-45 -1 -78 -31.5t-33 -82.5q0 -25 8.5 -46.5t21 -39t26 -31.5t22.5 -25zM260 41q54 0 101 31.5t78 68.5q1 0 -31.5 35.5t-71 77
t-71.5 76.5l-33 35q-69 -25 -100.5 -72t-31.5 -98q0 -62 42.5 -108t117.5 -46z" />
    <glyph glyph-name="quotesingle" unicode="'" horiz-adv-x="170" 
d="M62 710h46v-191h-46v191z" />
    <glyph glyph-name="parenleft" unicode="(" horiz-adv-x="275" 
d="M176 -92q-20 26 -43 67.5t-42 93.5t-31.5 113.5t-12.5 127.5q0 135 34 233t96 189l40 -29q-57 -79 -89.5 -174.5t-32.5 -219.5q0 -62 11 -118.5t28.5 -104t38.5 -86.5t41 -65z" />
    <glyph glyph-name="parenright" unicode=")" horiz-adv-x="275" 
d="M87 730q20 -26 43 -67.5t42 -93.5t31.5 -113.5t12.5 -127.5q0 -135 -34 -233t-96 -189l-40 29q57 79 89.5 174.5t32.5 219.5q0 62 -11 118.5t-28.5 104t-38.5 86.5t-41 65z" />
    <glyph glyph-name="asterisk" unicode="*" horiz-adv-x="359" 
d="M113 461l-31 21l65 91l-96 29l10 39l97 -29v109h40v-109l99 32l11 -38l-97 -33l66 -88l-32 -23l-66 87z" />
    <glyph glyph-name="plus" unicode="+" horiz-adv-x="597" 
d="M274 123v179h-177v47h177v176h48v-176h178v-47h-178v-179h-48z" />
    <glyph glyph-name="comma" unicode="," horiz-adv-x="182" 
d="M84 78h53l-46 -175h-44z" />
    <glyph glyph-name="hyphen" unicode="-" horiz-adv-x="441" 
d="M70 246v46h302v-46h-302z" />
    <glyph glyph-name="period" unicode="." horiz-adv-x="181" 
d="M90 -5q-14 0 -26 10.5t-12 28.5q0 17 12 27.5t26 10.5t26.5 -10.5t12.5 -27.5q0 -18 -12.5 -28.5t-26.5 -10.5z" />
    <glyph glyph-name="slash" unicode="/" horiz-adv-x="340" 
d="M39 0l212 711h51l-214 -711h-49z" />
    <glyph glyph-name="zero" unicode="0" horiz-adv-x="594" 
d="M297 -11q-116 0 -185.5 91t-69.5 275q0 94 19 163.5t53 114t81 66.5t102 22q56 0 103 -22t80.5 -67t52.5 -114t19 -162q0 -182 -70 -274.5t-185 -92.5zM297 36q96 0 151.5 79t55.5 240q0 167 -57 243t-150 76q-91 0 -149.5 -75.5t-58.5 -243.5q0 -165 56 -242t152 -77z
" />
    <glyph glyph-name="one" unicode="1" horiz-adv-x="355" 
d="M195 0v656l-159 -54l-8 39l173 69h42v-710h-48z" />
    <glyph glyph-name="two" unicode="2" horiz-adv-x="525" 
d="M47 0v45l213 245q31 36 58.5 66.5t48.5 59t33.5 57t12.5 59.5q0 28 -10.5 54.5t-30.5 46t-49 31.5t-66 11q-68 -1 -108 -35t-55 -90h-47q15 75 70.5 123.5t138.5 48.5q48 0 86.5 -15.5t64.5 -41t40 -60t14 -72.5t-13.5 -71.5t-36 -65.5t-52 -65t-60.5 -69l-188 -215h371
v-47h-435z" />
    <glyph glyph-name="three" unicode="3" horiz-adv-x="560" 
d="M269 -3q-35 0 -71.5 11t-67.5 32.5t-54.5 54.5t-32.5 78h49q16 -61 66.5 -95t111.5 -34q81 0 129.5 41.5t48.5 113.5t-59 109.5t-162 41.5v39q91 2 147 39.5t56 106.5q0 63 -42 101.5t-118 38.5q-66 0 -110.5 -35.5t-56.5 -86.5h-45q5 35 24 66t48 53.5t65 35.5t76 13
q43 0 80.5 -13t65 -36.5t43.5 -57t17 -73.5t-11.5 -69.5t-32.5 -49.5t-43.5 -32t-44.5 -17q21 -4 48 -16t50 -32.5t39 -51.5t16 -75q0 -93 -64 -147.5t-165 -53.5z" />
    <glyph glyph-name="four" unicode="4" horiz-adv-x="567" 
d="M376 0v173h-334v47l320 488h63v-489h81v-47h-81v-172h-49zM93 220h284v430z" />
    <glyph glyph-name="five" unicode="5" horiz-adv-x="559" 
d="M266 -12q-41 0 -78.5 13t-67 37t-50 56.5t-27.5 71.5h50q15 -55 58.5 -93t112.5 -38q86 0 135 53t49 132q0 86 -49.5 136.5t-129.5 50.5q-62 0 -100.5 -25.5t-49.5 -53.5l-53 7l11 375h378v-46h-334l-8 -274q4 6 16 17t31.5 21t47.5 17.5t63 7.5q48 0 89.5 -16t71 -45.5
t46.5 -73t17 -97.5q0 -50 -16.5 -93t-47 -74t-72.5 -48.5t-93 -17.5z" />
    <glyph glyph-name="six" unicode="6" horiz-adv-x="569" 
d="M283 -2q-47 0 -89.5 18t-73.5 48.5t-49.5 72t-18.5 87.5q0 31 8.5 61t20.5 57.5t26 51t26 41.5q6 10 36 56t63 97t60 92l27 41h56l-203 -312q11 12 39 27t82 15q46 0 87 -17t71.5 -46.5t48 -71.5t17.5 -91q0 -46 -16.5 -87.5t-47 -72.5t-74 -49t-96.5 -18zM284 45
q81 0 132.5 51t51.5 128q0 78 -52 130t-130 52q-82 0 -134 -51.5t-52 -130.5q0 -39 14.5 -72t39.5 -57t58.5 -37t71.5 -13z" />
    <glyph glyph-name="seven" unicode="7" horiz-adv-x="539" 
d="M117 0l311 663h-395v47h449v-40l-311 -670h-54z" />
    <glyph glyph-name="eight" unicode="8" horiz-adv-x="557" 
d="M278 -8q-48 0 -89.5 14t-71.5 39t-47.5 61t-17.5 80q0 41 13.5 73t34 55t46 38t48.5 23q-18 7 -38 21t-37.5 34.5t-28.5 48.5t-11 62q0 35 14.5 67.5t40.5 56.5t62.5 38.5t79.5 14.5q45 0 82 -14t62.5 -38t40 -56.5t14.5 -67.5q0 -32 -11 -60.5t-29.5 -51t-42.5 -38
t-49 -19.5q23 -5 51 -17t52.5 -34t41.5 -54.5t17 -77.5q0 -88 -63 -143t-164 -55zM275 393q81 11 116 55.5t35 92.5q0 54 -41.5 93t-108.5 39q-66 0 -107.5 -40t-41.5 -92t37.5 -93.5t110.5 -54.5zM278 38q78 0 128.5 41.5t50.5 111.5q0 39 -16 66t-43 45.5t-63 30t-77 20.5
q-78 -21 -117.5 -66.5t-39.5 -99.5q1 -67 51 -108t126 -41z" />
    <glyph glyph-name="nine" unicode="9" horiz-adv-x="577" 
d="M248 0h-56l201 299q-12 -11 -36.5 -23.5t-70.5 -12.5q-47 0 -88.5 17.5t-72.5 48.5t-49.5 73t-18.5 91q0 47 17 89t47.5 73t73.5 49t96 18q48 0 90 -17t72.5 -47t48.5 -72t18 -92q0 -33 -9 -64.5t-22 -59t-28.5 -51.5t-28.5 -42q-6 -10 -35.5 -54.5t-62.5 -94t-59.5 -89z
M288 308q80 0 131.5 51.5t51.5 134.5q0 81 -52.5 132t-129.5 50q-81 1 -132 -51.5t-51 -130.5q0 -79 52 -132.5t130 -53.5z" />
    <glyph glyph-name="colon" unicode=":" horiz-adv-x="189" 
d="M95 393q-14 0 -26 11t-12 28t12 28t26 11q13 0 26 -11t13 -28t-13 -28t-26 -11zM95 14q-14 0 -26.5 11t-12.5 28t12.5 28t26.5 11q13 0 26 -11t13 -28t-13 -28t-26 -11z" />
    <glyph glyph-name="semicolon" unicode=";" horiz-adv-x="184" 
d="M87 95h53l-46 -175h-44zM98 393q-14 0 -26 10.5t-12 28.5q0 17 12 27.5t26 10.5t26.5 -10.5t12.5 -27.5q0 -18 -12.5 -28.5t-26.5 -10.5z" />
    <glyph glyph-name="less" unicode="&#x3c;" horiz-adv-x="539" 
d="M453 25l-389 215v39l389 213v-52l-328 -181l328 -180v-54z" />
    <glyph glyph-name="equal" unicode="=" horiz-adv-x="739" 
d="M133 436v46h472v-46h-472zM133 215v47h472v-47h-472z" />
    <glyph glyph-name="greater" unicode="&#x3e;" horiz-adv-x="539" 
d="M77 484l389 -215v-39l-389 -213v52l328 181l-328 180v54z" />
    <glyph glyph-name="question" unicode="?" horiz-adv-x="518" 
d="M214 179q0 86 31 136t74 83q50 38 72 68t22 67q0 61 -42 102.5t-112 41.5q-64 0 -109.5 -39.5t-54.5 -99.5l-45 5q5 37 21.5 69.5t43.5 57t63.5 39t81.5 14.5q46 0 83 -15t62.5 -40.5t40 -60t14.5 -73.5q1 -57 -31.5 -95t-81.5 -76q-41 -32 -64 -74t-23 -110h-46zM238 -5
q-14 0 -24.5 10.5t-10.5 27.5t10.5 27.5t24.5 10.5t24.5 -10.5t10.5 -27.5t-10.5 -27.5t-24.5 -10.5z" />
    <glyph glyph-name="at" unicode="@" horiz-adv-x="959" 
d="M508 -98q-86 0 -161.5 29t-130.5 81t-87 126t-32 164q0 85 30.5 159.5t83 129t124 86t152.5 31.5q78 0 147 -30.5t119.5 -82.5t79.5 -124t29 -154q0 -139 -46.5 -198.5t-111.5 -59.5q-18 0 -37 7.5t-36 23t-29 39.5t-16 57q-4 -25 -31 -52.5t-79 -27.5
q-77 -1 -122.5 52.5t-44.5 140.5q1 84 45.5 137t120.5 52q30 0 51 -10.5t34 -25.5t20 -31.5t8 -27.5v74l37 -2l-3 -241q-1 -62 23.5 -93.5t58.5 -31.5q43 1 78.5 47t35.5 170q0 74 -26 138t-70.5 111t-105 73.5t-129.5 26.5q-71 -1 -134 -29.5t-110 -77t-74.5 -115
t-27.5 -142.5t26.5 -141.5t74.5 -113t116 -74.5t150 -27q31 0 54.5 5l23.5 5l2 -6.5t4 -14t3.5 -14l1.5 -6.5q-5 -3 -17.5 -5.5t-26.5 -3.5t-26.5 -2t-18.5 -1zM475 146q46 1 75 39.5t30 107.5q1 64 -25 109t-80 45q-54 1 -88 -42t-35 -109q0 -69 35.5 -109.5t87.5 -40.5z
" />
    <glyph glyph-name="A" unicode="A" horiz-adv-x="657" 
d="M586 0l-78 196h-356l-78 -196h-52l281 710h52l280 -710h-49zM329 644l-159 -402h319z" />
    <glyph glyph-name="B" unicode="B" horiz-adv-x="613" 
d="M86 0v710h217q96 0 152.5 -53.5t56.5 -133.5q0 -35 -10 -61.5t-25 -44.5t-32.5 -28t-32.5 -13q19 -3 45.5 -14t49.5 -32t39.5 -53.5t16.5 -78.5q0 -86 -54.5 -142t-170.5 -56h-252zM136 389h183q69 0 106.5 38.5t37.5 95.5q0 27 -10 52.5t-30 45t-50.5 31.5t-70.5 12
h-166v-275zM136 46h200q91 0 134.5 41t43.5 114q0 37 -14.5 64t-39.5 44.5t-58.5 26.5t-71.5 9h-194v-299z" />
    <glyph glyph-name="C" unicode="C" horiz-adv-x="686" 
d="M357 -9q-62 0 -117.5 21t-97 65t-65.5 113t-24 165q0 98 24 167.5t65 113t96.5 63.5t118.5 20q122 0 187.5 -61t86.5 -157h-51q-20 75 -70.5 123t-151.5 48q-54 0 -101 -17t-81.5 -54.5t-54.5 -98t-20 -147.5q0 -84 19.5 -145t54 -99t81.5 -56t102 -18q104 0 155.5 51.5
t70.5 125.5h50q-21 -99 -86.5 -161t-190.5 -62z" />
    <glyph glyph-name="D" unicode="D" horiz-adv-x="667" 
d="M87 0v710h183q170 0 255.5 -85.5t85.5 -263.5q0 -188 -81.5 -274.5t-259.5 -86.5h-183zM135 47h135q158 0 224 76t66 238q0 155 -69.5 229t-220.5 74h-135v-617z" />
    <glyph glyph-name="E" unicode="E" horiz-adv-x="595" 
d="M88 0v710h447v-46h-399v-281h303v-47h-303v-290h407v-46h-455z" />
    <glyph glyph-name="F" unicode="F" horiz-adv-x="565" 
d="M87 0v710h438v-47h-390v-273h313v-46h-313v-344h-48z" />
    <glyph glyph-name="G" unicode="G" horiz-adv-x="686" 
d="M349 -11q-63 0 -117.5 21t-94 65.5t-62 114t-22.5 166.5q0 94 22 163t61 113t94 65.5t120 21.5q122 0 187 -58t87 -150h-53q-9 29 -24 58t-40.5 52t-64 37t-92.5 14q-110 0 -179.5 -74t-69.5 -243q0 -168 69 -243.5t179 -75.5q119 0 178 64t59 206h-197v46h245v-43
q0 -170 -74.5 -245t-210.5 -75z" />
    <glyph glyph-name="H" unicode="H" horiz-adv-x="679" 
d="M90 0v710h47v-334h404v334h48v-710h-48v329h-404v-329h-47z" />
    <glyph glyph-name="I" unicode="I" horiz-adv-x="224" 
d="M88 0v710h48v-710h-48z" />
    <glyph glyph-name="J" unicode="J" horiz-adv-x="468" 
d="M175 -11q-46 0 -90 20t-75 60l35 30q28 -34 63.5 -48.5t66.5 -14.5q37 0 66.5 10t49.5 34t30.5 66.5t10.5 106.5v457h48v-457q0 -149 -54 -206.5t-151 -57.5z" />
    <glyph glyph-name="K" unicode="K" horiz-adv-x="625" 
d="M88 0v710h48v-418l386 418h66l-295 -318l300 -392h-59l-273 357l-125 -134v-223h-48z" />
    <glyph glyph-name="L" unicode="L" 
d="M88 0v710h48v-663h368v-47h-416z" />
    <glyph glyph-name="M" unicode="M" horiz-adv-x="838" 
d="M90 0v710h60l268 -578l269 578h61v-710h-48v618l-263 -559h-39l-261 557v-616h-47z" />
    <glyph glyph-name="N" unicode="N" horiz-adv-x="722" 
d="M88 0v710h54l445 -635v635h48v-710h-58l-441 632v-632h-48z" />
    <glyph glyph-name="O" unicode="O" horiz-adv-x="692" 
d="M346 -7q-63 0 -117 21t-92.5 65.5t-61 113t-22.5 162.5q0 90 21 158.5t59 113.5t92.5 68t120.5 23q65 0 119 -23t92.5 -68t60 -113.5t21.5 -158.5q0 -93 -21.5 -162t-59.5 -113t-92.5 -65.5t-119.5 -21.5zM346 40q111 0 178.5 75.5t67.5 239.5q0 160 -68.5 238t-177.5 78
q-113 0 -179 -78t-66 -238q0 -166 68 -240.5t177 -74.5z" />
    <glyph glyph-name="P" unicode="P" horiz-adv-x="601" 
d="M88 0v710h233q53 0 95 -16t70.5 -43.5t44 -65.5t15.5 -82q0 -85 -60 -141.5t-162 -56.5h-188v-305h-48zM136 663v-311h186q78 0 126.5 41t48.5 110q0 72 -48.5 116t-129.5 44h-183z" />
    <glyph glyph-name="Q" unicode="Q" horiz-adv-x="694" 
d="M346 -7q-63 0 -117 21t-92.5 65.5t-61 113t-22.5 162.5q0 90 21 158.5t59 113.5t92.5 68t120.5 23q65 0 119 -23t92.5 -68t60 -113.5t21.5 -158.5q0 -105 -27 -179t-75 -117l84 -104l-38 -27l-84 103q-33 -19 -71.5 -28.5t-81.5 -9.5zM346 40q111 0 178.5 75.5
t67.5 239.5q0 160 -68.5 238t-177.5 78q-113 0 -179 -78t-66 -238q0 -166 68 -240.5t177 -74.5z" />
    <glyph glyph-name="R" unicode="R" horiz-adv-x="625" 
d="M88 0v710h248q52 0 93.5 -15t70.5 -41.5t44.5 -62.5t15.5 -78q0 -40 -13 -73t-34.5 -57.5t-50 -39t-59.5 -18.5l160 -325h-53l-156 315h-218v-315h-48zM136 361h200q81 -1 128 42.5t47 109.5t-48 108t-122 42h-205v-302z" />
    <glyph glyph-name="S" unicode="S" horiz-adv-x="565" 
d="M288 -8q-84 0 -146.5 40t-91.5 106l42 21q31 -59 79.5 -89.5t115.5 -30.5q74 0 124.5 39.5t50.5 118.5q0 81 -51 113.5t-138 39.5q-93 7 -144.5 55t-51.5 129q0 82 59.5 134t153.5 52q75 0 120.5 -29t76.5 -77l-46 -23q-24 36 -61 60t-95 24q-69 0 -113 -38t-44 -101
q0 -65 42 -99t128 -41q46 -4 86.5 -16.5t69.5 -36.5t46 -60.5t17 -86.5q0 -53 -19 -91.5t-50.5 -63.5t-73 -37t-86.5 -12z" />
    <glyph glyph-name="T" unicode="T" horiz-adv-x="555" 
d="M252 0v664h-211v47h473v-47h-213v-664h-49z" />
    <glyph glyph-name="U" unicode="U" horiz-adv-x="629" 
d="M314 -12q-114 0 -181.5 77.5t-67.5 222.5v422h47v-424q0 -122 55 -186.5t147 -64.5q96 0 149.5 64.5t53.5 186.5v424h47v-422q0 -144 -65.5 -222t-184.5 -78z" />
    <glyph glyph-name="V" unicode="V" horiz-adv-x="622" 
d="M288 0l-255 711h50l229 -637l228 637h49l-252 -711h-49z" />
    <glyph glyph-name="W" unicode="W" horiz-adv-x="918" 
d="M230 0l-187 710h49l168 -631l180 611h40l183 -617l161 637h51l-183 -710h-57l-175 593l-172 -593h-58z" />
    <glyph glyph-name="X" unicode="X" horiz-adv-x="606" 
d="M37 0l232 349l-231 361h57l203 -319l215 319h58l-245 -362l222 -348h-56l-194 307l-204 -307h-57z" />
    <glyph glyph-name="Y" unicode="Y" horiz-adv-x="596" 
d="M275 0v284l-242 426h55l211 -371l208 371h55l-239 -426v-284h-48z" />
    <glyph glyph-name="Z" unicode="Z" horiz-adv-x="557" 
d="M41 0v43l410 620h-398v47h462v-40l-413 -623h412v-47h-473z" />
    <glyph glyph-name="bracketleft" unicode="[" horiz-adv-x="336" 
d="M86 -44v781h200v-47h-152v-687h152v-47h-200z" />
    <glyph glyph-name="backslash" unicode="\" horiz-adv-x="350" 
d="M262 0l-223 710h50l222 -710h-49z" />
    <glyph glyph-name="bracketright" unicode="]" horiz-adv-x="336" 
d="M244 736v-781h-200v47h152v687h-152v47h200z" />
    <glyph glyph-name="asciicircum" unicode="^" horiz-adv-x="455" 
d="M58 517l153 192h36l154 -192l-41 -12l-130 153l-131 -153z" />
    <glyph glyph-name="underscore" unicode="_" horiz-adv-x="505" 
d="M-1 -45v45h507v-45h-507z" />
    <glyph glyph-name="grave" unicode="`" horiz-adv-x="145" 
d="M96 587l-94 113l46 36l95 -149h-47z" />
    <glyph glyph-name="a" unicode="a" horiz-adv-x="495" 
d="M219 -8q-72 0 -122.5 40t-50.5 109q0 70 55 112t142 42q54 0 90.5 -14.5t54.5 -26.5v80q0 80 -38.5 108.5t-104.5 28.5q-48 0 -84 -21.5t-58 -49.5l-36 26q21 34 68.5 62t112.5 28q81 0 134.5 -39.5t53.5 -143.5v-333h-41l-5 78q-19 -28 -63.5 -57t-107.5 -29zM223 35
q31 0 59.5 10.5t50 27.5t36.5 37.5t19 39.5v57q-22 15 -59.5 30t-84.5 14q-71 0 -110.5 -28.5t-39.5 -79.5q0 -52 37.5 -80t91.5 -28z" />
    <glyph glyph-name="b" unicode="b" horiz-adv-x="580" 
d="M85 0v720h50v-324q16 46 65 82.5t114 36.5q38 0 75.5 -15.5t67.5 -47.5t49 -80.5t19 -114.5q0 -68 -18.5 -118t-48 -83t-67.5 -49.5t-76 -16.5q-66 0 -117 37.5t-64 83.5v-111h-49zM311 33q30 0 59.5 13.5t53 41t38 69.5t14.5 99q0 55 -14.5 96t-38.5 67t-55 39t-63 13
q-29 0 -60 -12.5t-56 -39t-41.5 -67t-16.5 -96.5q0 -60 17 -103t43.5 -69.5t58.5 -38.5t61 -12z" />
    <glyph glyph-name="c" unicode="c" horiz-adv-x="543" 
d="M283 -16q-42 0 -83.5 15.5t-73.5 47.5t-52 82.5t-20 119.5q0 68 20 118.5t52.5 83.5t74 49.5t84.5 16.5q81 0 136 -43.5t69 -115.5h-49q-15 52 -54 83t-102 31q-34 0 -67.5 -12.5t-59 -39.5t-41.5 -70t-16 -102t16.5 -100.5t42 -67.5t58.5 -38t65 -12q60 0 101 29t58 72
h49q-17 -63 -73 -105t-135 -42z" />
    <glyph glyph-name="d" unicode="d" horiz-adv-x="574" 
d="M274 -10q-38 0 -77 15.5t-70.5 47.5t-51.5 82t-20 119q0 66 19.5 115.5t50.5 81.5t70 48t79 16q34 0 62.5 -10.5t50.5 -27t36.5 -37t20.5 -39.5v319h50v-720h-43l-4 110q-13 -47 -61.5 -83.5t-111.5 -36.5zM279 35q28 0 58 12.5t54 39t40 68t16 98.5q0 55 -15 96
t-39 67.5t-54 39.5t-59 13q-30 0 -61.5 -12t-57 -38t-42 -67.5t-16.5 -98.5q0 -60 17 -101.5t43 -67.5t57 -37.5t59 -11.5z" />
    <glyph glyph-name="e" unicode="e" horiz-adv-x="555" 
d="M287 -13q-46 0 -88 15.5t-73.5 48t-50.5 82.5t-19 119q0 64 18.5 114t49 83t71.5 50.5t86 17.5q46 0 85.5 -16t69 -47t46.5 -76.5t17 -103.5v-34h-394q1 -56 16.5 -95.5t40.5 -64.5t58 -36.5t69 -11.5q63 0 106 25.5t62 56.5l36 -27q-27 -40 -77.5 -70t-128.5 -30z
M105 283h346q0 89 -49 139.5t-120 50.5q-72 0 -122.5 -52t-54.5 -138z" />
    <glyph glyph-name="f" unicode="f" horiz-adv-x="369" 
d="M128 0v460h-86v45h86v34q0 90 47 140t122 50h22v-45q-66 1 -104.5 -32t-38.5 -114v-33h140v-45h-140v-460h-48z" />
    <glyph glyph-name="g" unicode="g" horiz-adv-x="574" 
d="M274 -223q-68 0 -118.5 27t-76.5 62l37 28q22 -26 60 -48t98 -22q35 0 66 10.5t54.5 35t37.5 65t14 99.5v73q-5 -21 -20 -42t-37.5 -37.5t-52 -26.5t-63.5 -10q-44 0 -83.5 17t-69 50t-47 82t-17.5 112q0 65 18 115.5t48 84t70 50.5t83 17q67 0 111 -32t60 -70l6 89h43
v-472q0 -69 -18 -118t-48.5 -79.5t-70.5 -45t-84 -14.5zM278 37q71 0 121 57t50 158q0 118 -49.5 169.5t-121.5 51.5q-36 0 -67.5 -14t-55.5 -41.5t-37.5 -69t-13.5 -96.5q0 -54 13.5 -94.5t37 -67t55.5 -40t68 -13.5z" />
    <glyph glyph-name="h" unicode="h" horiz-adv-x="551" 
d="M85 0v720h49v-326q4 23 18.5 45t35.5 39.5t48 28t58 10.5q87 0 138.5 -61t51.5 -178v-278h-49v279q0 98 -38 145.5t-107 47.5q-31 0 -59.5 -13t-50 -38t-34 -61t-12.5 -81v-279h-49z" />
    <glyph glyph-name="i" unicode="i" horiz-adv-x="223" 
d="M111 657q-13 0 -24.5 10t-11.5 26t11.5 25.5t24.5 9.5t25 -9.5t12 -25.5t-12 -26t-25 -10zM90 0v506h48v-506h-48z" />
    <glyph glyph-name="j" unicode="j" horiz-adv-x="244" 
d="M132 645q-14 0 -25.5 10t-11.5 26t11.5 25.5t25.5 9.5q13 0 24.5 -9.5t11.5 -25.5t-11.5 -26t-24.5 -10zM-7 -191v46q20 -1 40.5 5t36.5 23t26.5 45.5t10.5 71.5v506h48v-508q0 -57 -15.5 -94.5t-39 -59t-52.5 -29.5t-55 -6z" />
    <glyph glyph-name="k" unicode="k" horiz-adv-x="505" 
d="M90 0v720h48v-473l264 259h66l-216 -214l232 -292h-58l-208 261l-80 -77v-184h-48z" />
    <glyph glyph-name="l" unicode="l" horiz-adv-x="224" 
d="M88 0v735h48v-735h-48z" />
    <glyph glyph-name="m" unicode="m" horiz-adv-x="829" 
d="M82 0v506h39l6 -90q5 16 17.5 34.5t31.5 33t45 24.5t57 10q66 0 103 -36t47 -80q7 21 20.5 42t33.5 37.5t47.5 26.5t62.5 10q84 0 127 -54t43 -158v-306h-48v303q0 90 -31.5 129.5t-94.5 39.5t-102.5 -43.5t-39.5 -123.5v-305h-48v305q3 81 -30 124t-94 43
q-60 0 -102 -42.5t-42 -124.5v-305h-48z" />
    <glyph glyph-name="n" unicode="n" horiz-adv-x="542" 
d="M82 0v506h40l6 -92q13 43 57.5 74t103.5 31q92 0 139 -58.5t47 -160.5v-300h-49v299q0 81 -34 127.5t-110 46.5q-61 0 -106 -46t-45 -128v-299h-49z" />
    <glyph glyph-name="o" unicode="o" horiz-adv-x="559" 
d="M278 -8q-40 0 -80 15.5t-72 47t-51.5 81t-19.5 115.5q0 68 18.5 118t49 82.5t71 48.5t84.5 16t85 -16.5t72 -49t50 -82.5t19 -117q0 -66 -20.5 -115t-53 -80.5t-72.5 -47.5t-80 -16zM278 37q30 0 61.5 12.5t57.5 38t42.5 66.5t16.5 97t-15 98t-39.5 69t-56.5 40t-67 13
t-67.5 -13t-56.5 -40t-38 -69t-14 -98q0 -55 16 -95.5t41 -67t56.5 -39t62.5 -12.5z" />
    <glyph glyph-name="p" unicode="p" horiz-adv-x="582" 
d="M131 105v-321h-49v722h42l6 -110q15 47 67.5 83t113.5 36q38 0 76.5 -16t69.5 -48.5t50.5 -82t19.5 -116.5q0 -68 -19 -118t-50 -82t-70 -47.5t-78 -15.5q-31 0 -60.5 10t-54 26.5t-41.5 37.5t-23 42zM305 35q30 0 61 12.5t56 38.5t41 67.5t16 98.5q0 56 -16 97.5t-41 68
t-56 39t-61 12.5q-28 0 -59 -11.5t-57 -37.5t-43.5 -67.5t-17.5 -100.5q0 -57 17 -98t42.5 -67.5t57 -39t60.5 -12.5z" />
    <glyph glyph-name="q" unicode="q" horiz-adv-x="582" 
d="M451 105q-6 -21 -23 -42t-41 -37.5t-53.5 -26.5t-61.5 -10q-39 0 -78 15.5t-70 47.5t-50 82t-19 119q0 68 19.5 117.5t50 81.5t69 47.5t76.5 15.5q66 0 116 -36t66 -83l5 110h42v-722h-48v321zM277 35q30 0 61.5 12.5t57 38.5t42 66t16.5 95q0 61 -16.5 103.5t-42.5 69
t-57.5 38t-61.5 11.5q-28 0 -58.5 -12t-56 -38t-42 -67.5t-16.5 -98.5t16 -98.5t41 -68t56 -39t61 -12.5z" />
    <glyph glyph-name="r" unicode="r" horiz-adv-x="363" 
d="M82 0v506h40l6 -87q6 16 19 33t32 31t43 23t51 9q25 0 40.5 -2.5t25.5 -3.5v-48q-12 2 -28.5 5t-38.5 3q-58 0 -99.5 -43.5t-41.5 -127.5v-298h-49z" />
    <glyph glyph-name="s" unicode="s" horiz-adv-x="466" 
d="M239 -12q-69 0 -118.5 32.5t-73.5 79.5l43 21q23 -39 59.5 -62.5t89.5 -23.5q63 0 98.5 28.5t35.5 71.5q0 58 -39 80.5t-119 26.5q-66 3 -109 40t-43 98q0 63 46.5 100.5t124.5 37.5q71 0 114.5 -28t58.5 -72l-42 -21q-11 28 -42 52.5t-89 24.5q-57 0 -90 -23t-33 -67
q0 -47 33 -69.5t100 -26.5q84 -4 131.5 -39t47.5 -114q0 -64 -50 -105.5t-134 -41.5z" />
    <glyph glyph-name="t" unicode="t" horiz-adv-x="359" 
d="M130 135v326h-105v45h103l12 161h38v-161h145v-45h-145v-318q0 -49 25.5 -75.5t77.5 -26.5h21t20 1v-45q-5 -1 -23 -1.5t-26 -0.5q-58 0 -100.5 35t-42.5 105z" />
    <glyph glyph-name="u" unicode="u" 
d="M258 -10q-83 0 -137 58t-54 165v293h49v-293q0 -84 39.5 -130.5t107.5 -46.5q64 0 107.5 48t43.5 129v293h48v-506h-39l-6 99q-5 -19 -19.5 -39t-35 -35t-47.5 -25t-57 -10z" />
    <glyph glyph-name="v" unicode="v" horiz-adv-x="498" 
d="M227 0l-194 506h52l164 -432l164 432h53l-195 -506h-44z" />
    <glyph glyph-name="w" unicode="w" horiz-adv-x="749" 
d="M190 0l-157 506h50l131 -425l140 425h41l145 -421l125 421h51l-153 -506h-46l-143 409l-139 -409h-45z" />
    <glyph glyph-name="x" unicode="x" horiz-adv-x="492" 
d="M40 0l179 254l-167 252h58l138 -211l143 211h59l-170 -248l171 -258h-59l-141 215l-153 -215h-58z" />
    <glyph glyph-name="y" unicode="y" horiz-adv-x="502" 
d="M199 -194h-50l74 186l3 10l-193 504h51l166 -442l168 442h52z" />
    <glyph glyph-name="z" unicode="z" horiz-adv-x="465" 
d="M50 0v39l298 421h-293v46h353v-35l-299 -425h306v-46h-365z" />
    <glyph glyph-name="braceleft" unicode="{" horiz-adv-x="365" 
d="M293 -52h-16q-52 2 -91.5 38.5t-39.5 96.5v156q0 50 -26 69t-80 19v44q54 0 80.5 25.5t26.5 72.5v149q0 60 37 98t94 39q1 1 7.5 1h7.5v-46q-49 0 -74.5 -26t-25.5 -69v-149q0 -52 -21 -81.5t-49 -34.5q28 -5 48.5 -31t20.5 -77v-156q0 -48 33 -71t68 -23v-44z" />
    <glyph glyph-name="bar" unicode="|" horiz-adv-x="273" 
d="M113 -142v956h47v-956h-47z" />
    <glyph glyph-name="braceright" unicode="}" horiz-adv-x="367" 
d="M67 756h16q52 -2 91.5 -38.5t39.5 -96.5v-156q0 -50 26 -69t80 -19v-44q-54 0 -80.5 -25.5t-26.5 -72.5v-149q0 -60 -37 -98t-94 -39q-1 -1 -7.5 -1h-7.5v46q49 0 74.5 26t25.5 69v149q0 52 21 81.5t49 34.5q-28 5 -48.5 31t-20.5 77v156q0 48 -33 71t-68 23v44z" />
    <glyph glyph-name="asciitilde" unicode="~" 
d="M62 330q3 13 12.5 29t25 29.5t38 23t50.5 9.5q29 0 51.5 -10.5t41.5 -23t37 -23t37 -10.5q35 0 58 20t27 39l43 -9q-9 -34 -43 -64.5t-90 -30.5q-28 0 -49.5 10.5t-40.5 23t-37.5 23t-39.5 10.5q-37 0 -56 -21.5t-23 -37.5l-7 2t-14.5 4.5t-14 4.5z" />
    <glyph glyph-name="nbspace" unicode="&#xa0;" horiz-adv-x="176" 
 />
    <glyph glyph-name="exclamdown" unicode="&#xa1;" horiz-adv-x="265" 
d="M123 588q13 0 24 -10.5t11 -27.5q0 -16 -11 -27t-24 -11t-24.5 11t-11.5 27q0 17 11.5 27.5t24.5 10.5zM137 404l11 -249v-279h-52v279l11 249h30z" />
    <glyph glyph-name="cent" unicode="&#xa2;" horiz-adv-x="541" 
d="M188 -133l29 127q-32 10 -61.5 30t-52 51.5t-36 74.5t-13.5 99q0 68 20.5 118.5t53.5 83.5t74.5 49.5t82.5 16.5h9t10 -1l24 113h52l-27 -122q52 -16 89 -55t48 -94h-49q-15 52 -55.5 83t-100.5 31q-32 0 -65 -12.5t-59.5 -39.5t-43 -70t-16.5 -102t17 -100.5t43.5 -67.5
t58.5 -38t63 -12q56 0 99 29t60 72h49q-17 -63 -75 -105t-133 -42h-7.5t-7.5 1l-29 -118h-51z" />
    <glyph glyph-name="sterling" unicode="&#xa3;" horiz-adv-x="545" 
d="M51 0l-1 37q17 19 36 41t34.5 47t26 53.5t10.5 61.5q0 49 -11 81.5t-18 44.5h-94v47h75q-10 23 -22 56.5t-12 79.5q0 35 15 67.5t42 57.5t66 40.5t86 15.5q48 0 89 -17t62 -36l-13 -44q-27 24 -61 37t-77 13q-37 0 -67 -12t-50.5 -31t-31.5 -44t-11 -51q0 -45 12.5 -77
t23.5 -54h188v-48h-168q4 -10 15 -46.5t11 -83.5q0 -51 -22.5 -98t-60.5 -90h351v-48h-423z" />
    <glyph glyph-name="yen" unicode="&#xa5;" horiz-adv-x="591" 
d="M78 127v47h196v108h-196v47h170l-216 381h55l211 -371l208 371h55l-214 -381h159v-47h-184v-108h184v-47h-184v-127h-48v127h-196z" />
    <glyph glyph-name="brokenbar" unicode="&#xa6;" horiz-adv-x="274" 
d="M112 398v405h51v-405h-51zM112 -122v394h51v-394h-51z" />
    <glyph glyph-name="section" unicode="&#xa7;" horiz-adv-x="504" 
d="M256 -12q-57 -1 -107 17t-94 58l30 35q32 -29 73 -47.5t95 -17.5q56 1 96.5 27.5t39.5 73.5q-1 51 -29 71t-90 19h-1h-1.5h-1.5h-7.5h-6.5q-16 1 -31 2.5t-28 5.5q-53 13 -89.5 45.5t-37.5 83.5q-1 37 19 71.5t62 54.5q-31 16 -49 44t-19 64q-2 59 43.5 101t140.5 45
q66 1 106.5 -20t59.5 -40l-30 -34l-8 8t-25 17.5t-42.5 17.5t-59.5 7q-69 -1 -104.5 -29t-34.5 -68t29.5 -65t95.5 -26v0h7h6q86 2 135.5 -37.5t50.5 -101.5q1 -39 -19.5 -70t-55.5 -50q31 -16 46 -44.5t16 -69.5q2 -67 -50 -106.5t-130 -41.5zM112 367q1 -43 40 -71.5
t114 -26.5q59 1 98 26.5t38 72.5q-1 43 -35 70t-105 27h-10q-70 -1 -105 -30t-35 -68z" />
    <glyph glyph-name="dieresis" unicode="&#xa8;" horiz-adv-x="278" 
d="M40 628q-14 0 -26 11t-12 27t12 27.5t26 11.5q16 0 28 -11.5t12 -27.5t-12 -27t-28 -11zM237 628q-14 0 -26 11t-12 27t12 27.5t26 11.5q15 0 27 -11.5t12 -27.5t-12 -27t-27 -11z" />
    <glyph glyph-name="copyright" unicode="&#xa9;" horiz-adv-x="885" 
d="M441 -12q-74 0 -139.5 27t-114 76t-76.5 116.5t-28 148.5q0 78 28.5 145t77 115t114.5 75t140 27q73 0 138.5 -26.5t114.5 -74.5t77.5 -115t28.5 -146q0 -81 -28.5 -148.5t-77.5 -116.5t-115 -76t-140 -27zM442 30q66 0 124 24.5t100.5 67.5t67.5 103t25 131
q0 72 -25.5 131t-68 100.5t-100.5 64.5t-122 23t-121.5 -24t-100.5 -66.5t-68 -101.5t-25 -127q0 -72 25 -132.5t68 -103t100 -66.5t121 -24zM446 179q-31 0 -60 12t-50.5 34.5t-34.5 55t-13 72.5q0 76 46 126t111 50q53 0 94.5 -31t48.5 -88h-43q-6 36 -32.5 57t-67.5 21
q-46 0 -78.5 -36t-32.5 -98q0 -67 33 -100t79 -33q39 0 65.5 22.5t33.5 53.5h43q-7 -49 -47.5 -83.5t-94.5 -34.5z" />
    <glyph glyph-name="ordfeminine" unicode="&#xaa;" horiz-adv-x="390" 
d="M170 306q-45 0 -79 28.5t-34 74.5v12q0 49 35.5 77.5t99.5 28.5q26 0 50 -4.5t37 -15.5v50q-1 39 -20.5 60.5t-65.5 21.5q-40 0 -62 -12t-36 -24l-23 32q24 17 51.5 30t73.5 13q65 0 95.5 -31.5t30.5 -100.5v-237h-42v47q-1 -4 -9.5 -12.5t-22.5 -16.5t-34 -14.5
t-45 -6.5zM178 345q37 0 64 17t37 31v81q-12 12 -39.5 16.5t-43.5 4.5q-43 0 -69 -21t-26 -56t23 -54t54 -19zM61 167v38h268v-38h-268z" />
    <glyph glyph-name="guillemotleft" unicode="&#xab;" horiz-adv-x="526" 
d="M396 119l-132 141v33l131 140l33 -29l-119 -129l119 -127zM213 119l-132 141v33l131 140l33 -29l-119 -129l119 -127z" />
    <glyph glyph-name="registered" unicode="&#xae;" horiz-adv-x="883" 
d="M439 -11q-74 0 -139 27t-113 76t-76 116.5t-28 148.5q0 78 28.5 144.5t77.5 114.5t114.5 75t138.5 27t138.5 -26.5t114 -74.5t77 -114.5t28.5 -145.5q0 -81 -28.5 -148.5t-77.5 -116.5t-115 -76t-140 -27zM441 32q65 0 123 24.5t100.5 67.5t67.5 102.5t25 130.5
t-25.5 130t-68 100.5t-100 64.5t-121.5 23t-121.5 -24t-100.5 -66.5t-68 -101t-25 -126.5q0 -72 25 -132t68 -103t100 -66.5t121 -23.5zM323 177v355h122q74 0 104 -33.5t30 -75.5q0 -39 -23.5 -66.5t-48.5 -34.5l74 -145h-42l-72 137h-102v-137h-42zM365 353h83
q46 0 66.5 21t20.5 49q0 29 -21.5 49.5t-77.5 20.5h-71v-140z" />
    <glyph glyph-name="macron" unicode="&#xaf;" horiz-adv-x="335" 
d="M2 644v43h331v-43h-331z" />
    <glyph glyph-name="degree" unicode="&#xb0;" horiz-adv-x="420" 
d="M209 381q-34 0 -64 13.5t-53 36.5t-36.5 54t-13.5 65t13.5 64.5t36.5 53.5t53 37t64 14q35 0 66 -14t53.5 -37t36 -53.5t13.5 -64.5t-13.5 -64.5t-36 -53.5t-53.5 -37t-66 -14zM210 424q51 0 87.5 38t36.5 88q0 49 -36 87t-88 38q-51 0 -87 -38t-36 -87q0 -50 36 -88
t87 -38z" />
    <glyph glyph-name="plusminus" unicode="&#xb1;" horiz-adv-x="610" 
d="M279 128v179h-177v47h177v176h48v-176h178v-47h-178v-179h-48zM496 84h-395v44h395v-44z" />
    <glyph glyph-name="acute" unicode="&#xb4;" horiz-adv-x="145" 
d="M2 678l94 149l47 -36l-94 -113h-47z" />
    <glyph glyph-name="paragraph" unicode="&#xb6;" horiz-adv-x="575" 
d="M440 3v710h46v-710h-46zM355 0h-50v314h-20q-39 0 -73.5 14t-60 39t-40 61t-14.5 80q0 89 54.5 145.5t139.5 56.5h64v-710z" />
    <glyph glyph-name="periodcentered" unicode="&#xb7;" horiz-adv-x="144" 
d="M72 302q-13 0 -24.5 10t-11.5 26q0 17 11.5 27.5t24.5 10.5t25 -10.5t12 -27.5q0 -16 -12 -26t-25 -10z" />
    <glyph glyph-name="cedilla" unicode="&#xb8;" horiz-adv-x="376" 
d="M155 8h36l-9 -47q43 -2 69 -26t26 -63q0 -41 -26 -65.5t-75 -24.5q-27 0 -49 10t-35 18l18 37q11 -7 28.5 -14.5t39.5 -7.5q23 0 39.5 11.5t16.5 34.5t-16.5 36t-53.5 14l-27 2z" />
    <glyph glyph-name="ordmasculine" unicode="&#xba;" horiz-adv-x="0" 
 />
    <glyph glyph-name="guillemotright" unicode="&#xbb;" horiz-adv-x="526" 
d="M122 439l132 -141v-33l-131 -140l-33 29l119 129l-119 127zM305 439l132 -141v-33l-131 -140l-33 29l119 129l-119 127z" />
    <glyph glyph-name="questiondown" unicode="&#xbf;" horiz-adv-x="518" 
d="M265 475q14 0 24.5 -10.5t10.5 -27.5t-10.5 -27.5t-24.5 -10.5t-24.5 10.5t-10.5 27.5t10.5 27.5t24.5 10.5zM289 291q0 -86 -31 -136t-74 -83q-50 -38 -72 -68t-22 -67q0 -61 42 -102.5t112 -41.5q64 0 109.5 39.5t54.5 99.5l45 -5q-5 -37 -21.5 -69.5t-43.5 -57
t-63.5 -39t-81.5 -14.5q-46 0 -83 15t-62.5 40.5t-40 60t-14.5 73.5q-1 57 31.5 95t81.5 76q41 32 64 74t23 110h46z" />
    <glyph glyph-name="Agrave" unicode="&#xc0;" horiz-adv-x="657" 
d="M586 0l-78 196h-356l-78 -196h-52l281 710h52l280 -710h-49zM329 644l-159 -402h319zM325 784l-94 113l46 36l95 -149h-47z" />
    <glyph glyph-name="Aacute" unicode="&#xc1;" horiz-adv-x="657" 
d="M586 0l-78 196h-356l-78 -196h-52l281 710h52l280 -710h-49zM329 644l-159 -402h319zM286 785l94 149l47 -36l-94 -113h-47z" />
    <glyph glyph-name="Acircumflex" unicode="&#xc2;" horiz-adv-x="657" 
d="M586 0l-78 196h-356l-78 -196h-52l281 710h52l280 -710h-49zM329 644l-159 -402h319zM225 774l-27 24l105 108h46l104 -107l-27 -24l-99 84z" />
    <glyph glyph-name="Atilde" unicode="&#xc3;" horiz-adv-x="657" 
d="M586 0l-78 196h-356l-78 -196h-52l281 710h52l280 -710h-49zM329 644l-159 -402h319zM160 806q4 31 30.5 59t71.5 32q26 2 45.5 -5t35 -16t29.5 -16.5t30 -6.5q28 2 40.5 18.5t16.5 29.5l34 -11q-2 -10 -7.5 -23.5t-16 -25.5t-26 -21t-36.5 -11q-22 -2 -39 5.5t-32.5 16
t-32 16t-36.5 5.5q-30 -2 -50 -17.5t-25 -37.5l-5 1t-11 3t-11 3.5z" />
    <glyph glyph-name="Adieresis" unicode="&#xc4;" horiz-adv-x="657" 
d="M586 0l-78 196h-356l-78 -196h-52l281 710h52l280 -710h-49zM329 644l-159 -402h319zM229 793q-14 0 -26 11t-12 27t12 27.5t26 11.5q16 0 28 -11.5t12 -27.5t-12 -27t-28 -11zM426 793q-14 0 -26 11t-12 27t12 27.5t26 11.5q15 0 27 -11.5t12 -27.5t-12 -27t-27 -11z
" />
    <glyph glyph-name="Aring" unicode="&#xc5;" horiz-adv-x="657" 
d="M586 0l-78 196h-356l-78 -196h-52l281 710h52l280 -710h-49zM329 644l-159 -402h319zM326 755q-43 0 -74 30t-31 74q0 43 31.5 74.5t73.5 31.5q41 0 72.5 -31.5t31.5 -74.5q0 -44 -31 -74t-73 -30zM326 792q29 0 47.5 19t18.5 47t-19 49t-47 21t-48 -21t-20 -49t19 -47
t49 -19z" />
    <glyph glyph-name="AE" unicode="&#xc6;" horiz-adv-x="931" 
d="M-6 0l452 710h440v-46h-370v-280h300v-46h-300v-292h373v-46h-421v190h-296l-122 -190h-56zM201 236h267v418z" />
    <glyph glyph-name="Ccedilla" unicode="&#xc7;" horiz-adv-x="686" 
d="M357 -9q-62 0 -117.5 21t-97 65t-65.5 113t-24 165q0 98 24 167.5t65 113t96.5 63.5t118.5 20q122 0 187.5 -61t86.5 -157h-51q-20 75 -70.5 123t-151.5 48q-54 0 -101 -17t-81.5 -54.5t-54.5 -98t-20 -147.5q0 -84 19.5 -145t54 -99t81.5 -56t102 -18q104 0 155.5 51.5
t70.5 125.5h50q-21 -99 -86.5 -161t-190.5 -62zM334 -2h36l-9 -47q43 -2 69 -26t26 -63q0 -41 -26 -65.5t-75 -24.5q-27 0 -49 10t-35 18l18 37q11 -7 28.5 -14.5t39.5 -7.5q23 0 39.5 11.5t16.5 34.5t-16.5 36t-53.5 14l-27 2z" />
    <glyph glyph-name="Egrave" unicode="&#xc8;" horiz-adv-x="595" 
d="M88 0v710h447v-46h-399v-281h303v-47h-303v-290h407v-46h-455zM301 783l-94 113l46 36l95 -149h-47z" />
    <glyph glyph-name="Eacute" unicode="&#xc9;" horiz-adv-x="595" 
d="M88 0v710h447v-46h-399v-281h303v-47h-303v-290h407v-46h-455zM263 785l94 149l47 -36l-94 -113h-47z" />
    <glyph glyph-name="Ecircumflex" unicode="&#xca;" horiz-adv-x="595" 
d="M88 0v710h447v-46h-399v-281h303v-47h-303v-290h407v-46h-455zM202 774l-27 24l105 108h46l104 -107l-27 -24l-99 84z" />
    <glyph glyph-name="Edieresis" unicode="&#xcb;" horiz-adv-x="595" 
d="M88 0v710h447v-46h-399v-281h303v-47h-303v-290h407v-46h-455zM205 793q-14 0 -26 11t-12 27t12 27.5t26 11.5q16 0 28 -11.5t12 -27.5t-12 -27t-28 -11zM402 793q-14 0 -26 11t-12 27t12 27.5t26 11.5q15 0 27 -11.5t12 -27.5t-12 -27t-27 -11z" />
    <glyph glyph-name="Igrave" unicode="&#xcc;" horiz-adv-x="224" 
d="M98 779l-70 81l48 34l72 -115h-50zM88 0v710h48v-710h-48z" />
    <glyph glyph-name="Iacute" unicode="&#xcd;" horiz-adv-x="224" 
d="M82 777l71 117l49 -35l-69 -82h-51zM88 0v710h48v-710h-48z" />
    <glyph glyph-name="Icircumflex" unicode="&#xce;" horiz-adv-x="224" 
d="M57 781l-33 23l66 80h46l64 -79l-33 -24l-54 55zM88 0v710h48v-710h-48z" />
    <glyph glyph-name="Idieresis" unicode="&#xcf;" horiz-adv-x="224" 
d="M55 809q-13 0 -23 10.5t-10 26.5q0 15 10 25t23 10t23 -10t10 -25q0 -16 -10 -26.5t-23 -10.5zM173 809q-13 0 -23 10t-10 26q0 15 10 25t23 10t23 -10t10 -25q0 -16 -10 -26t-23 -10zM88 1v710h48v-710h-48z" />
    <glyph glyph-name="Eth" unicode="&#xd0;" horiz-adv-x="709" 
d="M135 0v333h-109v46h109v331h183q170 0 255.5 -85.5t85.5 -263.5q0 -188 -81.5 -274.5t-259.5 -86.5h-183zM183 47h135q158 0 224 76t66 238q0 155 -69.5 229t-220.5 74h-135v-285h182v-46h-182v-286z" />
    <glyph glyph-name="Ntilde" unicode="&#xd1;" horiz-adv-x="722" 
d="M88 0v710h54l445 -635v635h48v-710h-58l-441 632v-632h-48zM183 794q4 31 30.5 59t71.5 32q26 2 45.5 -5t35 -16t29.5 -16.5t30 -6.5q28 2 40.5 18.5t16.5 29.5l34 -11q-2 -10 -7.5 -23.5t-16 -25.5t-26 -21t-36.5 -11q-22 -2 -39 5.5t-32.5 16t-32 16t-36.5 5.5
q-30 -2 -50 -17.5t-25 -37.5l-5 1t-11 3t-11 3.5z" />
    <glyph glyph-name="Ograve" unicode="&#xd2;" horiz-adv-x="692" 
d="M346 -7q-63 0 -117 21t-92.5 65.5t-61 113t-22.5 162.5q0 90 21 158.5t59 113.5t92.5 68t120.5 23q65 0 119 -23t92.5 -68t60 -113.5t21.5 -158.5q0 -93 -21.5 -162t-59.5 -113t-92.5 -65.5t-119.5 -21.5zM346 40q111 0 178.5 75.5t67.5 239.5q0 160 -68.5 238t-177.5 78
q-113 0 -179 -78t-66 -238q0 -166 68 -240.5t177 -74.5zM345 781l-94 113l46 36l95 -149h-47z" />
    <glyph glyph-name="Oacute" unicode="&#xd3;" horiz-adv-x="692" 
d="M346 -7q-63 0 -117 21t-92.5 65.5t-61 113t-22.5 162.5q0 90 21 158.5t59 113.5t92.5 68t120.5 23q65 0 119 -23t92.5 -68t60 -113.5t21.5 -158.5q0 -93 -21.5 -162t-59.5 -113t-92.5 -65.5t-119.5 -21.5zM346 40q111 0 178.5 75.5t67.5 239.5q0 160 -68.5 238t-177.5 78
q-113 0 -179 -78t-66 -238q0 -166 68 -240.5t177 -74.5zM307 782l94 149l47 -36l-94 -113h-47z" />
    <glyph glyph-name="Ocircumflex" unicode="&#xd4;" horiz-adv-x="692" 
d="M346 -7q-63 0 -117 21t-92.5 65.5t-61 113t-22.5 162.5q0 90 21 158.5t59 113.5t92.5 68t120.5 23q65 0 119 -23t92.5 -68t60 -113.5t21.5 -158.5q0 -93 -21.5 -162t-59.5 -113t-92.5 -65.5t-119.5 -21.5zM346 40q111 0 178.5 75.5t67.5 239.5q0 160 -68.5 238t-177.5 78
q-113 0 -179 -78t-66 -238q0 -166 68 -240.5t177 -74.5zM246 771l-27 24l105 108h46l104 -107l-27 -24l-99 84z" />
    <glyph glyph-name="Otilde" unicode="&#xd5;" horiz-adv-x="692" 
d="M346 -7q-63 0 -117 21t-92.5 65.5t-61 113t-22.5 162.5q0 90 21 158.5t59 113.5t92.5 68t120.5 23q65 0 119 -23t92.5 -68t60 -113.5t21.5 -158.5q0 -93 -21.5 -162t-59.5 -113t-92.5 -65.5t-119.5 -21.5zM346 40q111 0 178.5 75.5t67.5 239.5q0 160 -68.5 238t-177.5 78
q-113 0 -179 -78t-66 -238q0 -166 68 -240.5t177 -74.5zM181 803q4 31 30.5 59t71.5 32q26 2 45.5 -5t35 -16t29.5 -16.5t30 -6.5q28 2 40.5 18.5t16.5 29.5l34 -11q-2 -10 -7.5 -23.5t-16 -25.5t-26 -21t-36.5 -11q-22 -2 -39 5.5t-32.5 16t-32 16t-36.5 5.5
q-30 -2 -50 -17.5t-25 -37.5l-5 1t-11 3t-11 3.5z" />
    <glyph glyph-name="Odieresis" unicode="&#xd6;" horiz-adv-x="692" 
d="M346 -7q-63 0 -117 21t-92.5 65.5t-61 113t-22.5 162.5q0 90 21 158.5t59 113.5t92.5 68t120.5 23q65 0 119 -23t92.5 -68t60 -113.5t21.5 -158.5q0 -93 -21.5 -162t-59.5 -113t-92.5 -65.5t-119.5 -21.5zM346 40q111 0 178.5 75.5t67.5 239.5q0 160 -68.5 238t-177.5 78
q-113 0 -179 -78t-66 -238q0 -166 68 -240.5t177 -74.5zM249 790q-14 0 -26 11t-12 27t12 27.5t26 11.5q16 0 28 -11.5t12 -27.5t-12 -27t-28 -11zM446 790q-14 0 -26 11t-12 27t12 27.5t26 11.5q15 0 27 -11.5t12 -27.5t-12 -27t-27 -11z" />
    <glyph glyph-name="multiply" unicode="&#xd7;" horiz-adv-x="651" 
d="M105 142l188 187l-186 186l33 33l186 -185l184 184l34 -33l-185 -185l186 -187l-33 -33l-186 187l-187 -187z" />
    <glyph glyph-name="Oslash" unicode="&#xd8;" horiz-adv-x="692" 
d="M128 -25l-39 23l50 78q-40 44 -63 113.5t-23 165.5q0 90 21 158.5t59 113.5t92.5 68t120.5 23q49 0 93 -13.5t79 -40.5l39 61l38 -24l-43 -67q41 -46 64 -116t23 -163t-21.5 -162t-59.5 -113t-92.5 -65.5t-119.5 -21.5q-49 0 -93 13t-80 40zM101 355q0 -81 17 -140
t48 -97l326 506q-29 24 -66 35.5t-80 11.5q-113 0 -179 -78t-66 -238zM346 40q111 0 178.5 75.5t67.5 239.5q0 79 -18 138.5t-49 98.5l-326 -507q30 -23 67 -34t80 -11z" />
    <glyph glyph-name="Ugrave" unicode="&#xd9;" horiz-adv-x="629" 
d="M314 -12q-114 0 -181.5 77.5t-67.5 222.5v422h47v-424q0 -122 55 -186.5t147 -64.5q96 0 149.5 64.5t53.5 186.5v424h47v-422q0 -144 -65.5 -222t-184.5 -78zM312 771l-94 113l46 36l95 -149h-47z" />
    <glyph glyph-name="Uacute" unicode="&#xda;" horiz-adv-x="629" 
d="M314 -12q-114 0 -181.5 77.5t-67.5 222.5v422h47v-424q0 -122 55 -186.5t147 -64.5q96 0 149.5 64.5t53.5 186.5v424h47v-422q0 -144 -65.5 -222t-184.5 -78zM274 773l94 149l47 -36l-94 -113h-47z" />
    <glyph glyph-name="Ucircumflex" unicode="&#xdb;" horiz-adv-x="629" 
d="M314 -12q-114 0 -181.5 77.5t-67.5 222.5v422h47v-424q0 -122 55 -186.5t147 -64.5q96 0 149.5 64.5t53.5 186.5v424h47v-422q0 -144 -65.5 -222t-184.5 -78zM213 762l-27 24l105 108h46l104 -107l-27 -24l-99 84z" />
    <glyph glyph-name="Udieresis" unicode="&#xdc;" horiz-adv-x="629" 
d="M314 -12q-114 0 -181.5 77.5t-67.5 222.5v422h47v-424q0 -122 55 -186.5t147 -64.5q96 0 149.5 64.5t53.5 186.5v424h47v-422q0 -144 -65.5 -222t-184.5 -78zM216 780q-14 0 -26 11t-12 27t12 27.5t26 11.5q16 0 28 -11.5t12 -27.5t-12 -27t-28 -11zM413 780
q-14 0 -26 11t-12 27t12 27.5t26 11.5q15 0 27 -11.5t12 -27.5t-12 -27t-27 -11z" />
    <glyph glyph-name="Yacute" unicode="&#xdd;" horiz-adv-x="596" 
d="M275 0v284l-242 426h55l211 -371l208 371h55l-239 -426v-284h-48zM259 781l94 149l47 -36l-94 -113h-47z" />
    <glyph glyph-name="Thorn" unicode="&#xde;" horiz-adv-x="616" 
d="M88 0v710h48v-146h199q46 0 86.5 -15.5t70.5 -43t47 -66.5t17 -86q0 -46 -16.5 -84.5t-46 -65.5t-70 -42t-87.5 -15h-200v-146h-48zM136 192h202q72 0 121 45t49 116q-1 72 -50.5 118.5t-120.5 46.5h-201v-326z" />
    <glyph glyph-name="germandbls" unicode="&#xdf;" horiz-adv-x="566" 
d="M88 0v505q0 54 16.5 94.5t44 66.5t63 38.5t73.5 12.5q36 0 66.5 -10t53.5 -26.5t38.5 -37t22.5 -41.5l-126 -204q75 -5 126 -56.5t51 -135.5q0 -42 -14.5 -80.5t-42 -68t-68 -47t-90.5 -17.5q-26 0 -41.5 2t-22.5 3v46q7 -1 23.5 -3t40.5 -2q40 0 71.5 14t52 37
t31.5 53.5t11 62.5q0 70 -43 110.5t-130 41.5h-13v30l129 213q-10 24 -42 48t-85 24q-28 0 -55 -9.5t-47.5 -29.5t-33 -51.5t-12.5 -75.5v-507h-48z" />
    <glyph glyph-name="agrave" unicode="&#xe0;" horiz-adv-x="495" 
d="M219 -8q-72 0 -122.5 40t-50.5 109q0 70 55 112t142 42q54 0 90.5 -14.5t54.5 -26.5v80q0 80 -38.5 108.5t-104.5 28.5q-48 0 -84 -21.5t-58 -49.5l-36 26q21 34 68.5 62t112.5 28q81 0 134.5 -39.5t53.5 -143.5v-333h-41l-5 78q-19 -28 -63.5 -57t-107.5 -29zM223 35
q31 0 59.5 10.5t50 27.5t36.5 37.5t19 39.5v57q-22 15 -59.5 30t-84.5 14q-71 0 -110.5 -28.5t-39.5 -79.5q0 -52 37.5 -80t91.5 -28zM260 615l-94 113l46 36l95 -149h-47z" />
    <glyph glyph-name="aacute" unicode="&#xe1;" horiz-adv-x="495" 
d="M219 -8q-72 0 -122.5 40t-50.5 109q0 70 55 112t142 42q54 0 90.5 -14.5t54.5 -26.5v80q0 80 -38.5 108.5t-104.5 28.5q-48 0 -84 -21.5t-58 -49.5l-36 26q21 34 68.5 62t112.5 28q81 0 134.5 -39.5t53.5 -143.5v-333h-41l-5 78q-19 -28 -63.5 -57t-107.5 -29zM223 35
q31 0 59.5 10.5t50 27.5t36.5 37.5t19 39.5v57q-22 15 -59.5 30t-84.5 14q-71 0 -110.5 -28.5t-39.5 -79.5q0 -52 37.5 -80t91.5 -28zM203 614l94 149l47 -36l-94 -113h-47z" />
    <glyph glyph-name="acircumflex" unicode="&#xe2;" horiz-adv-x="495" 
d="M219 -8q-72 0 -122.5 40t-50.5 109q0 70 55 112t142 42q54 0 90.5 -14.5t54.5 -26.5v80q0 80 -38.5 108.5t-104.5 28.5q-48 0 -84 -21.5t-58 -49.5l-36 26q21 34 68.5 62t112.5 28q81 0 134.5 -39.5t53.5 -143.5v-333h-41l-5 78q-19 -28 -63.5 -57t-107.5 -29zM223 35
q31 0 59.5 10.5t50 27.5t36.5 37.5t19 39.5v57q-22 15 -59.5 30t-84.5 14q-71 0 -110.5 -28.5t-39.5 -79.5q0 -52 37.5 -80t91.5 -28zM152 614l-27 24l105 108h46l104 -107l-27 -24l-99 84z" />
    <glyph glyph-name="atilde" unicode="&#xe3;" horiz-adv-x="495" 
d="M219 -8q-72 0 -122.5 40t-50.5 109q0 70 55 112t142 42q54 0 90.5 -14.5t54.5 -26.5v80q0 80 -38.5 108.5t-104.5 28.5q-48 0 -84 -21.5t-58 -49.5l-36 26q21 34 68.5 62t112.5 28q81 0 134.5 -39.5t53.5 -143.5v-333h-41l-5 78q-19 -28 -63.5 -57t-107.5 -29zM223 35
q31 0 59.5 10.5t50 27.5t36.5 37.5t19 39.5v57q-22 15 -59.5 30t-84.5 14q-71 0 -110.5 -28.5t-39.5 -79.5q0 -52 37.5 -80t91.5 -28zM87 653q4 31 30.5 59t71.5 32q26 2 45.5 -5t35 -16t29.5 -16.5t30 -6.5q28 2 40.5 18.5t16.5 29.5l34 -11q-2 -10 -7.5 -23.5t-16 -25.5
t-26 -21t-36.5 -11q-22 -2 -39 5.5t-32.5 16t-32 16t-36.5 5.5q-30 -2 -50 -17.5t-25 -37.5l-5 1t-11 3t-11 3.5z" />
    <glyph glyph-name="adieresis" unicode="&#xe4;" horiz-adv-x="495" 
d="M219 -8q-72 0 -122.5 40t-50.5 109q0 70 55 112t142 42q54 0 90.5 -14.5t54.5 -26.5v80q0 80 -38.5 108.5t-104.5 28.5q-48 0 -84 -21.5t-58 -49.5l-36 26q21 34 68.5 62t112.5 28q81 0 134.5 -39.5t53.5 -143.5v-333h-41l-5 78q-19 -28 -63.5 -57t-107.5 -29zM223 35
q31 0 59.5 10.5t50 27.5t36.5 37.5t19 39.5v57q-22 15 -59.5 30t-84.5 14q-71 0 -110.5 -28.5t-39.5 -79.5q0 -52 37.5 -80t91.5 -28zM156 649q-14 0 -26 11t-12 27t12 27.5t26 11.5q16 0 28 -11.5t12 -27.5t-12 -27t-28 -11zM353 649q-14 0 -26 11t-12 27t12 27.5t26 11.5
q15 0 27 -11.5t12 -27.5t-12 -27t-27 -11z" />
    <glyph glyph-name="aring" unicode="&#xe5;" horiz-adv-x="495" 
d="M219 -8q-72 0 -122.5 40t-50.5 109q0 70 55 112t142 42q54 0 90.5 -14.5t54.5 -26.5v80q0 80 -38.5 108.5t-104.5 28.5q-48 0 -84 -21.5t-58 -49.5l-36 26q21 34 68.5 62t112.5 28q81 0 134.5 -39.5t53.5 -143.5v-333h-41l-5 78q-19 -28 -63.5 -57t-107.5 -29zM223 35
q31 0 59.5 10.5t50 27.5t36.5 37.5t19 39.5v57q-22 15 -59.5 30t-84.5 14q-71 0 -110.5 -28.5t-39.5 -79.5q0 -52 37.5 -80t91.5 -28zM253 593q-43 0 -74 30t-31 74q0 43 31.5 74.5t73.5 31.5q41 0 72.5 -31.5t31.5 -74.5q0 -44 -31 -74t-73 -30zM253 630q29 0 47.5 19
t18.5 47t-19 49t-47 21t-48 -21t-20 -49t19 -47t49 -19z" />
    <glyph glyph-name="ae" unicode="&#xe6;" horiz-adv-x="838" 
d="M203 -8q-84 0 -131 42.5t-47 102.5q0 70 52 111.5t148 41.5q48 0 89 -2.5t60 -5.5v6q-3 96 -41.5 141t-108.5 45q-64 0 -94.5 -23t-50.5 -42l-35 28q11 12 26 26t36 26t50 20t69 8q65 0 112 -29.5t69 -97.5q29 62 82.5 94.5t114.5 32.5q46 0 85.5 -16t69 -47t46.5 -76.5
t17 -103.5v-34h-394q1 -56 16.5 -95.5t40.5 -64.5t58 -36.5t69 -11.5q63 0 106 25.5t62 56.5l36 -27q-27 -40 -77.5 -70t-128.5 -30q-65 0 -121 32t-85 98q-26 -65 -79 -95t-121 -30zM427 283h346q0 89 -49 139.5t-120 50.5q-72 0 -122.5 -52t-54.5 -138zM202 35
q77 0 124 44.5t48 136.5v23q-10 3 -28 5t-38.5 3t-42 1.5t-39.5 -0.5q-80 -2 -117.5 -30.5t-37.5 -77.5q0 -45 34.5 -75t96.5 -30z" />
    <glyph glyph-name="ccedilla" unicode="&#xe7;" horiz-adv-x="543" 
d="M283 -16q-42 0 -83.5 15.5t-73.5 47.5t-52 82.5t-20 119.5q0 68 20 118.5t52.5 83.5t74 49.5t84.5 16.5q81 0 136 -43.5t69 -115.5h-49q-15 52 -54 83t-102 31q-34 0 -67.5 -12.5t-59 -39.5t-41.5 -70t-16 -102t16.5 -100.5t42 -67.5t58.5 -38t65 -12q60 0 101 29t58 72
h49q-17 -63 -73 -105t-135 -42zM259 -3h36l-9 -47q43 -2 69 -26t26 -63q0 -41 -26 -65.5t-75 -24.5q-27 0 -49 10t-35 18l18 37q11 -7 28.5 -14.5t39.5 -7.5q23 0 39.5 11.5t16.5 34.5t-16.5 36t-53.5 14l-27 2z" />
    <glyph glyph-name="egrave" unicode="&#xe8;" horiz-adv-x="555" 
d="M287 -13q-46 0 -88 15.5t-73.5 48t-50.5 82.5t-19 119q0 64 18.5 114t49 83t71.5 50.5t86 17.5q46 0 85.5 -16t69 -47t46.5 -76.5t17 -103.5v-34h-394q1 -56 16.5 -95.5t40.5 -64.5t58 -36.5t69 -11.5q63 0 106 25.5t62 56.5l36 -27q-27 -40 -77.5 -70t-128.5 -30z
M105 283h346q0 89 -49 139.5t-120 50.5q-72 0 -122.5 -52t-54.5 -138zM290 613l-94 113l46 36l95 -149h-47z" />
    <glyph glyph-name="eacute" unicode="&#xe9;" horiz-adv-x="555" 
d="M287 -13q-46 0 -88 15.5t-73.5 48t-50.5 82.5t-19 119q0 64 18.5 114t49 83t71.5 50.5t86 17.5q46 0 85.5 -16t69 -47t46.5 -76.5t17 -103.5v-34h-394q1 -56 16.5 -95.5t40.5 -64.5t58 -36.5t69 -11.5q63 0 106 25.5t62 56.5l36 -27q-27 -40 -77.5 -70t-128.5 -30z
M105 283h346q0 89 -49 139.5t-120 50.5q-72 0 -122.5 -52t-54.5 -138zM233 612l94 149l47 -36l-94 -113h-47z" />
    <glyph glyph-name="ecircumflex" unicode="&#xea;" horiz-adv-x="555" 
d="M287 -13q-46 0 -88 15.5t-73.5 48t-50.5 82.5t-19 119q0 64 18.5 114t49 83t71.5 50.5t86 17.5q46 0 85.5 -16t69 -47t46.5 -76.5t17 -103.5v-34h-394q1 -56 16.5 -95.5t40.5 -64.5t58 -36.5t69 -11.5q63 0 106 25.5t62 56.5l36 -27q-27 -40 -77.5 -70t-128.5 -30z
M105 283h346q0 89 -49 139.5t-120 50.5q-72 0 -122.5 -52t-54.5 -138zM181 612l-27 24l105 108h46l104 -107l-27 -24l-99 84z" />
    <glyph glyph-name="edieresis" unicode="&#xeb;" horiz-adv-x="555" 
d="M287 -13q-46 0 -88 15.5t-73.5 48t-50.5 82.5t-19 119q0 64 18.5 114t49 83t71.5 50.5t86 17.5q46 0 85.5 -16t69 -47t46.5 -76.5t17 -103.5v-34h-394q1 -56 16.5 -95.5t40.5 -64.5t58 -36.5t69 -11.5q63 0 106 25.5t62 56.5l36 -27q-27 -40 -77.5 -70t-128.5 -30z
M105 283h346q0 89 -49 139.5t-120 50.5q-72 0 -122.5 -52t-54.5 -138zM185 647q-14 0 -26 11t-12 27t12 27.5t26 11.5q16 0 28 -11.5t12 -27.5t-12 -27t-28 -11zM382 647q-14 0 -26 11t-12 27t12 27.5t26 11.5q15 0 27 -11.5t12 -27.5t-12 -27t-27 -11z" />
    <glyph glyph-name="igrave" unicode="&#xec;" horiz-adv-x="223" 
d="M93 615l-62 95l45 34l65 -129h-48zM88 0v506h48v-506h-48z" />
    <glyph glyph-name="iacute" unicode="&#xed;" horiz-adv-x="223" 
d="M84 614l66 130l47 -37l-66 -93h-47zM88 0v506h48v-506h-48z" />
    <glyph glyph-name="icircumflex" unicode="&#xee;" horiz-adv-x="223" 
d="M51 636l-31 24l69 83h46l67 -82l-31 -24l-59 57zM88 0v506h48v-506h-48z" />
    <glyph glyph-name="idieresis" unicode="&#xef;" horiz-adv-x="223" 
d="M54 655q-13 0 -23 10t-10 25q0 16 10 26t23 10t23.5 -10t10.5 -26q0 -15 -10.5 -25t-23.5 -10zM169 654q-13 0 -23 10t-10 26q0 15 10 25.5t23 10.5t23 -10.5t10 -25.5q0 -16 -10 -26t-23 -10zM88 0v506h48v-506h-48z" />
    <glyph glyph-name="eth" unicode="&#xf0;" horiz-adv-x="574" 
d="M283 -10q-40 0 -81 15t-73.5 47t-53 81t-20.5 116q0 62 19 111.5t51.5 83.5t75 52.5t88.5 18.5q58 0 98 -24.5t53 -52.5q-4 37 -25 85t-54 97l-137 -26l-8 37l120 25q-15 21 -32.5 41t-35.5 38l34 34q22 -22 44 -47.5t43 -55.5l116 24l10 -41l-102 -19q43 -70 73 -160.5
t31 -201.5q0 -73 -20.5 -125.5t-53.5 -86.5t-75.5 -50t-84.5 -16zM284 36q31 0 64 12.5t59.5 38.5t43.5 68t17 100q0 96 -49.5 155.5t-128.5 59.5q-38 0 -72.5 -15.5t-59.5 -44t-40 -69.5t-15 -92q0 -57 16.5 -97.5t42.5 -66t58.5 -37.5t63.5 -12z" />
    <glyph glyph-name="ntilde" unicode="&#xf1;" horiz-adv-x="542" 
d="M82 0v506h40l6 -92q13 43 57.5 74t103.5 31q92 0 139 -58.5t47 -160.5v-300h-49v299q0 81 -34 127.5t-110 46.5q-61 0 -106 -46t-45 -128v-299h-49zM109 651q4 31 30.5 59t71.5 32q26 2 45.5 -5t35 -16t29.5 -16.5t30 -6.5q28 2 40.5 18.5t16.5 29.5l34 -11
q-2 -10 -7.5 -23.5t-16 -25.5t-26 -21t-36.5 -11q-22 -2 -39 5.5t-32.5 16t-32 16t-36.5 5.5q-30 -2 -50 -17.5t-25 -37.5l-5 1t-11 3t-11 3.5z" />
    <glyph glyph-name="ograve" unicode="&#xf2;" horiz-adv-x="559" 
d="M278 -8q-40 0 -80 15.5t-72 47t-51.5 81t-19.5 115.5q0 68 18.5 118t49 82.5t71 48.5t84.5 16t85 -16.5t72 -49t50 -82.5t19 -117q0 -66 -20.5 -115t-53 -80.5t-72.5 -47.5t-80 -16zM278 37q30 0 61.5 12.5t57.5 38t42.5 66.5t16.5 97t-15 98t-39.5 69t-56.5 40t-67 13
t-67.5 -13t-56.5 -40t-38 -69t-14 -98q0 -55 16 -95.5t41 -67t56.5 -39t62.5 -12.5zM286 613l-94 113l46 36l95 -149h-47z" />
    <glyph glyph-name="oacute" unicode="&#xf3;" horiz-adv-x="559" 
d="M278 -8q-40 0 -80 15.5t-72 47t-51.5 81t-19.5 115.5q0 68 18.5 118t49 82.5t71 48.5t84.5 16t85 -16.5t72 -49t50 -82.5t19 -117q0 -66 -20.5 -115t-53 -80.5t-72.5 -47.5t-80 -16zM278 37q30 0 61.5 12.5t57.5 38t42.5 66.5t16.5 97t-15 98t-39.5 69t-56.5 40t-67 13
t-67.5 -13t-56.5 -40t-38 -69t-14 -98q0 -55 16 -95.5t41 -67t56.5 -39t62.5 -12.5zM229 612l94 149l47 -36l-94 -113h-47z" />
    <glyph glyph-name="ocircumflex" unicode="&#xf4;" horiz-adv-x="559" 
d="M278 -8q-40 0 -80 15.5t-72 47t-51.5 81t-19.5 115.5q0 68 18.5 118t49 82.5t71 48.5t84.5 16t85 -16.5t72 -49t50 -82.5t19 -117q0 -66 -20.5 -115t-53 -80.5t-72.5 -47.5t-80 -16zM278 37q30 0 61.5 12.5t57.5 38t42.5 66.5t16.5 97t-15 98t-39.5 69t-56.5 40t-67 13
t-67.5 -13t-56.5 -40t-38 -69t-14 -98q0 -55 16 -95.5t41 -67t56.5 -39t62.5 -12.5zM177 612l-27 24l105 108h46l104 -107l-27 -24l-99 84z" />
    <glyph glyph-name="otilde" unicode="&#xf5;" horiz-adv-x="559" 
d="M278 -8q-40 0 -80 15.5t-72 47t-51.5 81t-19.5 115.5q0 68 18.5 118t49 82.5t71 48.5t84.5 16t85 -16.5t72 -49t50 -82.5t19 -117q0 -66 -20.5 -115t-53 -80.5t-72.5 -47.5t-80 -16zM278 37q30 0 61.5 12.5t57.5 38t42.5 66.5t16.5 97t-15 98t-39.5 69t-56.5 40t-67 13
t-67.5 -13t-56.5 -40t-38 -69t-14 -98q0 -55 16 -95.5t41 -67t56.5 -39t62.5 -12.5zM112 651q4 31 30.5 59t71.5 32q26 2 45.5 -5t35 -16t29.5 -16.5t30 -6.5q28 2 40.5 18.5t16.5 29.5l34 -11q-2 -10 -7.5 -23.5t-16 -25.5t-26 -21t-36.5 -11q-22 -2 -39 5.5t-32.5 16
t-32 16t-36.5 5.5q-30 -2 -50 -17.5t-25 -37.5l-5 1t-11 3t-11 3.5z" />
    <glyph glyph-name="odieresis" unicode="&#xf6;" horiz-adv-x="559" 
d="M278 -8q-40 0 -80 15.5t-72 47t-51.5 81t-19.5 115.5q0 68 18.5 118t49 82.5t71 48.5t84.5 16t85 -16.5t72 -49t50 -82.5t19 -117q0 -66 -20.5 -115t-53 -80.5t-72.5 -47.5t-80 -16zM278 37q30 0 61.5 12.5t57.5 38t42.5 66.5t16.5 97t-15 98t-39.5 69t-56.5 40t-67 13
t-67.5 -13t-56.5 -40t-38 -69t-14 -98q0 -55 16 -95.5t41 -67t56.5 -39t62.5 -12.5zM181 647q-14 0 -26 11t-12 27t12 27.5t26 11.5q16 0 28 -11.5t12 -27.5t-12 -27t-28 -11zM378 647q-14 0 -26 11t-12 27t12 27.5t26 11.5q15 0 27 -11.5t12 -27.5t-12 -27t-27 -11z" />
    <glyph glyph-name="divide" unicode="&#xf7;" horiz-adv-x="641" 
d="M320 463q-13 0 -23.5 10t-10.5 26q0 17 10.5 27.5t23.5 10.5t23.5 -10.5t10.5 -27.5q0 -16 -10.5 -26t-23.5 -10zM97 308v46h448v-46h-448zM320 118q-13 0 -23.5 10.5t-10.5 26.5q0 17 10.5 27.5t23.5 10.5t23.5 -10.5t10.5 -27.5q0 -16 -10.5 -26.5t-23.5 -10.5z" />
    <glyph glyph-name="oslash" unicode="&#xf8;" horiz-adv-x="534" 
d="M96 -11l-33 24l48 60q-25 31 -40 76t-15 102q0 68 18.5 118t49 82.5t71 48.5t84.5 16q39 0 75.5 -13t66.5 -38l39 49l33 -26l-43 -54q25 -32 40 -78t15 -105q0 -66 -20.5 -115t-53 -80.5t-72.5 -47.5t-80 -16q-37 0 -73 13t-67 38zM103 251q0 -44 10.5 -79.5t27.5 -60.5
l251 317q-23 22 -52.5 32.5t-60.5 10.5q-35 0 -67.5 -13t-56.5 -40t-38 -69t-14 -98zM279 37q30 0 61.5 12.5t57.5 38t42.5 66.5t16.5 97q0 46 -10 82.5t-27 62.5l-252 -316q25 -22 54 -32.5t57 -10.5z" />
    <glyph glyph-name="ugrave" unicode="&#xf9;" 
d="M258 -10q-83 0 -137 58t-54 165v293h49v-293q0 -84 39.5 -130.5t107.5 -46.5q64 0 107.5 48t43.5 129v293h48v-506h-39l-6 99q-5 -19 -19.5 -39t-35 -35t-47.5 -25t-57 -10zM277 612l-94 113l46 36l95 -149h-47z" />
    <glyph glyph-name="uacute" unicode="&#xfa;" 
d="M258 -10q-83 0 -137 58t-54 165v293h49v-293q0 -84 39.5 -130.5t107.5 -46.5q64 0 107.5 48t43.5 129v293h48v-506h-39l-6 99q-5 -19 -19.5 -39t-35 -35t-47.5 -25t-57 -10zM219 611l94 149l47 -36l-94 -113h-47z" />
    <glyph glyph-name="ucircumflex" unicode="&#xfb;" 
d="M258 -10q-83 0 -137 58t-54 165v293h49v-293q0 -84 39.5 -130.5t107.5 -46.5q64 0 107.5 48t43.5 129v293h48v-506h-39l-6 99q-5 -19 -19.5 -39t-35 -35t-47.5 -25t-57 -10zM168 611l-27 24l105 108h46l104 -107l-27 -24l-99 84z" />
    <glyph glyph-name="udieresis" unicode="&#xfc;" 
d="M258 -10q-83 0 -137 58t-54 165v293h49v-293q0 -84 39.5 -130.5t107.5 -46.5q64 0 107.5 48t43.5 129v293h48v-506h-39l-6 99q-5 -19 -19.5 -39t-35 -35t-47.5 -25t-57 -10zM172 646q-14 0 -26 11t-12 27t12 27.5t26 11.5q16 0 28 -11.5t12 -27.5t-12 -27t-28 -11z
M369 646q-14 0 -26 11t-12 27t12 27.5t26 11.5q15 0 27 -11.5t12 -27.5t-12 -27t-27 -11z" />
    <glyph glyph-name="yacute" unicode="&#xfd;" horiz-adv-x="502" 
d="M199 -194h-50l74 186l3 10l-193 504h51l166 -442l168 442h52zM203 612l94 149l47 -36l-94 -113h-47z" />
    <glyph glyph-name="thorn" unicode="&#xfe;" horiz-adv-x="582" 
d="M82 -216v927h48v-315q15 47 65.5 83t115.5 36q40 0 79 -16t69 -49t49 -83.5t19 -118.5q0 -67 -18.5 -116t-48.5 -80.5t-69.5 -47t-80.5 -15.5q-32 0 -62 10t-54 26.5t-40.5 37.5t-22.5 42v-321h-49zM305 35q32 0 63 12.5t55.5 38.5t39.5 66.5t15 95.5q0 58 -15 100
t-39.5 69t-55.5 39.5t-63 12.5q-29 0 -61 -11.5t-57.5 -37.5t-42.5 -67.5t-17 -100.5q0 -57 16 -98t41.5 -67.5t57.5 -39t63 -12.5z" />
    <glyph glyph-name="ydieresis" unicode="&#xff;" horiz-adv-x="502" 
d="M199 -194h-50l74 186l3 10l-193 504h51l166 -442l168 442h52zM155 647q-14 0 -26 11t-12 27t12 27.5t26 11.5q16 0 28 -11.5t12 -27.5t-12 -27t-28 -11zM352 647q-14 0 -26 11t-12 27t12 27.5t26 11.5q15 0 27 -11.5t12 -27.5t-12 -27t-27 -11z" />
    <glyph glyph-name="Amacron" unicode="&#x100;" horiz-adv-x="657" 
d="M586 0l-78 196h-356l-78 -196h-52l281 710h52l280 -710h-49zM329 644l-159 -402h319zM161 819v43h331v-43h-331z" />
    <glyph glyph-name="amacron" unicode="&#x101;" horiz-adv-x="495" 
d="M219 -8q-72 0 -122.5 40t-50.5 109q0 70 55 112t142 42q54 0 90.5 -14.5t54.5 -26.5v80q0 80 -38.5 108.5t-104.5 28.5q-48 0 -84 -21.5t-58 -49.5l-36 26q21 34 68.5 62t112.5 28q81 0 134.5 -39.5t53.5 -143.5v-333h-41l-5 78q-19 -28 -63.5 -57t-107.5 -29zM223 35
q31 0 59.5 10.5t50 27.5t36.5 37.5t19 39.5v57q-22 15 -59.5 30t-84.5 14q-71 0 -110.5 -28.5t-39.5 -79.5q0 -52 37.5 -80t91.5 -28zM87 679v43h331v-43h-331z" />
    <glyph glyph-name="Abreve" unicode="&#x102;" horiz-adv-x="657" 
d="M586 0l-78 196h-356l-78 -196h-52l281 710h52l280 -710h-49zM329 644l-159 -402h319zM326 799q-47 0 -91 24.5t-74 66.5l30 26q25 -34 60.5 -53.5t74.5 -19.5q38 0 72 17.5t62 55.5l30 -26q-31 -49 -74.5 -70t-89.5 -21z" />
    <glyph glyph-name="abreve" unicode="&#x103;" horiz-adv-x="495" 
d="M219 -8q-72 0 -122.5 40t-50.5 109q0 70 55 112t142 42q54 0 90.5 -14.5t54.5 -26.5v80q0 80 -38.5 108.5t-104.5 28.5q-48 0 -84 -21.5t-58 -49.5l-36 26q21 34 68.5 62t112.5 28q81 0 134.5 -39.5t53.5 -143.5v-333h-41l-5 78q-19 -28 -63.5 -57t-107.5 -29zM223 35
q31 0 59.5 10.5t50 27.5t36.5 37.5t19 39.5v57q-22 15 -59.5 30t-84.5 14q-71 0 -110.5 -28.5t-39.5 -79.5q0 -52 37.5 -80t91.5 -28zM253 637q-47 0 -91 24.5t-74 66.5l30 26q25 -34 60.5 -53.5t74.5 -19.5q38 0 72 17.5t62 55.5l30 -26q-31 -49 -74.5 -70t-89.5 -21z" />
    <glyph glyph-name="Aogonek" unicode="&#x104;" horiz-adv-x="657" 
d="M586 0l-78 196h-356l-78 -196h-52l281 710h52l280 -710h-49zM329 644l-159 -402h319zM623 -210h-80q-26 0 -44.5 11.5t-26 29t-4 39t20.5 41.5q7 9 20.5 24t27.5 30.5t26 29t16 18.5q9 10 20.5 10h11.5l16 -23l-98 -109q-16 -17 -12.5 -37t34.5 -20h72v-44z" />
    <glyph glyph-name="aogonek" unicode="&#x105;" horiz-adv-x="509" 
d="M219 -8q-72 0 -122.5 40t-50.5 109q0 70 55 112t142 42q54 0 90.5 -14.5t54.5 -26.5v80q0 80 -38.5 108.5t-104.5 28.5q-48 0 -84 -21.5t-58 -49.5l-36 26q21 34 68.5 62t112.5 28q81 0 134.5 -39.5t53.5 -143.5v-333h-41l-5 78q-19 -28 -63.5 -57t-107.5 -29zM223 35
q31 0 59.5 10.5t50 27.5t36.5 37.5t19 39.5v57q-22 15 -59.5 30t-84.5 14q-71 0 -110.5 -28.5t-39.5 -79.5q0 -52 37.5 -80t91.5 -28zM445 -209h-80q-26 0 -44.5 11.5t-26 29t-4 39t20.5 41.5q7 9 20.5 24t27.5 30.5t26 29t16 18.5q9 10 20.5 10h11.5l16 -23l-98 -109
q-16 -17 -12.5 -37t34.5 -20h72v-44z" />
    <glyph glyph-name="Cacute" unicode="&#x106;" horiz-adv-x="686" 
d="M357 -9q-62 0 -117.5 21t-97 65t-65.5 113t-24 165q0 98 24 167.5t65 113t96.5 63.5t118.5 20q122 0 187.5 -61t86.5 -157h-51q-20 75 -70.5 123t-151.5 48q-54 0 -101 -17t-81.5 -54.5t-54.5 -98t-20 -147.5q0 -84 19.5 -145t54 -99t81.5 -56t102 -18q104 0 155.5 51.5
t70.5 125.5h50q-21 -99 -86.5 -161t-190.5 -62zM314 784l94 149l47 -36l-94 -113h-47z" />
    <glyph glyph-name="cacute" unicode="&#x107;" horiz-adv-x="543" 
d="M283 -16q-42 0 -83.5 15.5t-73.5 47.5t-52 82.5t-20 119.5q0 68 20 118.5t52.5 83.5t74 49.5t84.5 16.5q81 0 136 -43.5t69 -115.5h-49q-15 52 -54 83t-102 31q-34 0 -67.5 -12.5t-59 -39.5t-41.5 -70t-16 -102t16.5 -100.5t42 -67.5t58.5 -38t65 -12q60 0 101 29t58 72
h49q-17 -63 -73 -105t-135 -42zM235 614l94 149l47 -36l-94 -113h-47z" />
    <glyph glyph-name="Cdotaccent" unicode="&#x10a;" horiz-adv-x="686" 
d="M357 -9q-62 0 -117.5 21t-97 65t-65.5 113t-24 165q0 98 24 167.5t65 113t96.5 63.5t118.5 20q122 0 187.5 -61t86.5 -157h-51q-20 75 -70.5 123t-151.5 48q-54 0 -101 -17t-81.5 -54.5t-54.5 -98t-20 -147.5q0 -84 19.5 -145t54 -99t81.5 -56t102 -18q104 0 155.5 51.5
t70.5 125.5h50q-21 -99 -86.5 -161t-190.5 -62zM361 805q-15 0 -28 11.5t-13 28.5t13 28.5t28 11.5t27.5 -11.5t12.5 -28.5t-12.5 -28.5t-27.5 -11.5z" />
    <glyph glyph-name="cdotaccent" unicode="&#x10b;" horiz-adv-x="543" 
d="M283 -16q-42 0 -83.5 15.5t-73.5 47.5t-52 82.5t-20 119.5q0 68 20 118.5t52.5 83.5t74 49.5t84.5 16.5q81 0 136 -43.5t69 -115.5h-49q-15 52 -54 83t-102 31q-34 0 -67.5 -12.5t-59 -39.5t-41.5 -70t-16 -102t16.5 -100.5t42 -67.5t58.5 -38t65 -12q60 0 101 29t58 72
h49q-17 -63 -73 -105t-135 -42zM285 647q-15 0 -28 11.5t-13 28.5t13 28.5t28 11.5t27.5 -11.5t12.5 -28.5t-12.5 -28.5t-27.5 -11.5z" />
    <glyph glyph-name="Ccaron" unicode="&#x10c;" horiz-adv-x="686" 
d="M357 -9q-62 0 -117.5 21t-97 65t-65.5 113t-24 165q0 98 24 167.5t65 113t96.5 63.5t118.5 20q122 0 187.5 -61t86.5 -157h-51q-20 75 -70.5 123t-151.5 48q-54 0 -101 -17t-81.5 -54.5t-54.5 -98t-20 -147.5q0 -84 19.5 -145t54 -99t81.5 -56t102 -18q104 0 155.5 51.5
t70.5 125.5h50q-21 -99 -86.5 -161t-190.5 -62zM335 792l-106 107l27 24l102 -85l100 85l26 -24l-103 -107h-46z" />
    <glyph glyph-name="ccaron" unicode="&#x10d;" horiz-adv-x="543" 
d="M283 -16q-42 0 -83.5 15.5t-73.5 47.5t-52 82.5t-20 119.5q0 68 20 118.5t52.5 83.5t74 49.5t84.5 16.5q81 0 136 -43.5t69 -115.5h-49q-15 52 -54 83t-102 31q-34 0 -67.5 -12.5t-59 -39.5t-41.5 -70t-16 -102t16.5 -100.5t42 -67.5t58.5 -38t65 -12q60 0 101 29t58 72
h49q-17 -63 -73 -105t-135 -42zM262 631l-106 107l27 24l102 -85l100 85l26 -24l-103 -107h-46z" />
    <glyph glyph-name="Dcaron" unicode="&#x10e;" horiz-adv-x="671" 
d="M87 0v710h183q170 0 255.5 -85.5t85.5 -263.5q0 -188 -81.5 -274.5t-259.5 -86.5h-183zM135 47h135q158 0 224 76t66 238q0 155 -69.5 229t-220.5 74h-135v-617zM310 792l-106 107l27 24l102 -85l100 85l26 -24l-103 -107h-46z" />
    <glyph glyph-name="dcaron" unicode="&#x10f;" horiz-adv-x="657" 
d="M275 -10q-38 0 -77 15.5t-70.5 47.5t-51.5 82t-20 119q0 66 19.5 115.5t50.5 81.5t70 48t79 16q34 0 62.5 -10.5t50.5 -27t36.5 -37t20.5 -39.5v319h50v-720h-43l-4 110q-13 -47 -61.5 -83.5t-111.5 -36.5zM611 710h46l-36 -168h-40zM280 35q28 0 58 12.5t54 39t40 68
t16 98.5q0 55 -15 96t-39 67.5t-54 39.5t-59 13q-30 0 -61.5 -12t-57 -38t-42 -67.5t-16.5 -98.5q0 -60 17 -101.5t43 -67.5t57 -37.5t59 -11.5z" />
    <glyph glyph-name="Dcroat" unicode="&#x110;" horiz-adv-x="708" 
d="M134 0v333h-109v46h109v331h183q170 0 255.5 -85.5t85.5 -263.5q0 -188 -81.5 -274.5t-259.5 -86.5h-183zM182 47h135q158 0 224 76t66 238q0 155 -69.5 229t-220.5 74h-135v-285h182v-46h-182v-286z" />
    <glyph glyph-name="dcroat" unicode="&#x111;" horiz-adv-x="589" 
d="M276 -10q-38 0 -77.5 15.5t-71 47.5t-51.5 82t-20 119q0 66 19.5 115.5t50.5 81.5t70.5 48t79.5 16q31 0 59.5 -10.5t52 -27.5t40 -38.5t22.5 -42.5v223h-151v42h151v103h49v-103h98v-42h-98v-619h-42l-5 111q-13 -47 -63 -84t-113 -37zM281 35q28 0 58 12.5t54.5 39
t40.5 68t16 98.5q0 55 -15 96t-39 67.5t-54.5 39.5t-59.5 13q-30 0 -62 -12t-57.5 -38t-42 -67.5t-16.5 -98.5q0 -60 17.5 -101.5t43.5 -67.5t57 -37.5t59 -11.5z" />
    <glyph glyph-name="Emacron" unicode="&#x112;" horiz-adv-x="595" 
d="M88 0v710h447v-46h-399v-281h303v-47h-303v-290h407v-46h-455zM137 818v43h331v-43h-331z" />
    <glyph glyph-name="emacron" unicode="&#x113;" horiz-adv-x="555" 
d="M287 -13q-46 0 -88 15.5t-73.5 48t-50.5 82.5t-19 119q0 64 18.5 114t49 83t71.5 50.5t86 17.5q46 0 85.5 -16t69 -47t46.5 -76.5t17 -103.5v-34h-394q1 -56 16.5 -95.5t40.5 -64.5t58 -36.5t69 -11.5q63 0 106 25.5t62 56.5l36 -27q-27 -40 -77.5 -70t-128.5 -30z
M105 283h346q0 89 -49 139.5t-120 50.5q-72 0 -122.5 -52t-54.5 -138zM117 677v43h331v-43h-331z" />
    <glyph glyph-name="Ebreve" unicode="&#x114;" horiz-adv-x="595" 
d="M88 0v710h447v-46h-399v-281h303v-47h-303v-290h407v-46h-455zM302 798q-47 0 -91 24.5t-74 66.5l30 26q25 -34 60.5 -53.5t74.5 -19.5q38 0 72 17.5t62 55.5l30 -26q-31 -49 -74.5 -70t-89.5 -21z" />
    <glyph glyph-name="ebreve" unicode="&#x115;" horiz-adv-x="555" 
d="M287 -13q-46 0 -88 15.5t-73.5 48t-50.5 82.5t-19 119q0 64 18.5 114t49 83t71.5 50.5t86 17.5q46 0 85.5 -16t69 -47t46.5 -76.5t17 -103.5v-34h-394q1 -56 16.5 -95.5t40.5 -64.5t58 -36.5t69 -11.5q63 0 106 25.5t62 56.5l36 -27q-27 -40 -77.5 -70t-128.5 -30z
M105 283h346q0 89 -49 139.5t-120 50.5q-72 0 -122.5 -52t-54.5 -138zM282 635q-47 0 -91 24.5t-74 66.5l30 26q25 -34 60.5 -53.5t74.5 -19.5q38 0 72 17.5t62 55.5l30 -26q-31 -49 -74.5 -70t-89.5 -21z" />
    <glyph glyph-name="Edotaccent" unicode="&#x116;" horiz-adv-x="595" 
d="M88 0v710h447v-46h-399v-281h303v-47h-303v-290h407v-46h-455zM303 804q-15 0 -28 11.5t-13 28.5t13 28.5t28 11.5t27.5 -11.5t12.5 -28.5t-12.5 -28.5t-27.5 -11.5z" />
    <glyph glyph-name="edotaccent" unicode="&#x117;" horiz-adv-x="555" 
d="M287 -13q-46 0 -88 15.5t-73.5 48t-50.5 82.5t-19 119q0 64 18.5 114t49 83t71.5 50.5t86 17.5q46 0 85.5 -16t69 -47t46.5 -76.5t17 -103.5v-34h-394q1 -56 16.5 -95.5t40.5 -64.5t58 -36.5t69 -11.5q63 0 106 25.5t62 56.5l36 -27q-27 -40 -77.5 -70t-128.5 -30z
M105 283h346q0 89 -49 139.5t-120 50.5q-72 0 -122.5 -52t-54.5 -138zM283 645q-15 0 -28 11.5t-13 28.5t13 28.5t28 11.5t27.5 -11.5t12.5 -28.5t-12.5 -28.5t-27.5 -11.5z" />
    <glyph glyph-name="Eogonek" unicode="&#x118;" horiz-adv-x="595" 
d="M88 0v710h447v-46h-399v-281h303v-47h-303v-290h407v-46h-455zM535 -210h-80q-26 0 -44.5 11.5t-26 29t-4 39t20.5 41.5q7 9 20.5 24t27.5 30.5t26 29t16 18.5q9 10 20.5 10h11.5l16 -23l-98 -109q-16 -17 -12.5 -37t34.5 -20h72v-44z" />
    <glyph glyph-name="eogonek" unicode="&#x119;" horiz-adv-x="555" 
d="M287 -13q-46 0 -88 15.5t-73.5 48t-50.5 82.5t-19 119q0 64 18.5 114t49 83t71.5 50.5t86 17.5q46 0 85.5 -16t69 -47t46.5 -76.5t17 -103.5v-34h-394q1 -56 16.5 -95.5t40.5 -64.5t58 -36.5t69 -11.5q63 0 106 25.5t62 56.5l36 -27q-7 -11 -17 -22t-21 -21l2 -2
l-98 -109q-16 -17 -12.5 -37t34.5 -20h72v-44h-80q-26 0 -44.5 11.5t-26 29t-4 39t20.5 41.5q6 7 16 18t20 23q-15 -3 -32 -5t-36 -2zM105 283h346q0 89 -49 139.5t-120 50.5q-72 0 -122.5 -52t-54.5 -138z" />
    <glyph glyph-name="Ecaron" unicode="&#x11a;" horiz-adv-x="595" 
d="M88 0v710h447v-46h-399v-281h303v-47h-303v-290h407v-46h-455zM280 792l-106 107l27 24l102 -85l100 85l26 -24l-103 -107h-46z" />
    <glyph glyph-name="ecaron" unicode="&#x11b;" horiz-adv-x="555" 
d="M287 -13q-46 0 -88 15.5t-73.5 48t-50.5 82.5t-19 119q0 64 18.5 114t49 83t71.5 50.5t86 17.5q46 0 85.5 -16t69 -47t46.5 -76.5t17 -103.5v-34h-394q1 -56 16.5 -95.5t40.5 -64.5t58 -36.5t69 -11.5q63 0 106 25.5t62 56.5l36 -27q-27 -40 -77.5 -70t-128.5 -30z
M105 283h346q0 89 -49 139.5t-120 50.5q-72 0 -122.5 -52t-54.5 -138zM260 629l-106 107l27 24l102 -85l100 85l26 -24l-103 -107h-46z" />
    <glyph glyph-name="Gbreve" unicode="&#x11e;" horiz-adv-x="686" 
d="M349 -11q-63 0 -117.5 21t-94 65.5t-62 114t-22.5 166.5q0 94 22 163t61 113t94 65.5t120 21.5q122 0 187 -58t87 -150h-53q-9 29 -24 58t-40.5 52t-64 37t-92.5 14q-110 0 -179.5 -74t-69.5 -243q0 -168 69 -243.5t179 -75.5q119 0 178 64t59 206h-197v46h245v-43
q0 -170 -74.5 -245t-210.5 -75zM344 803q-47 0 -91 24.5t-74 66.5l30 26q25 -34 60.5 -53.5t74.5 -19.5q38 0 72 17.5t62 55.5l30 -26q-31 -49 -74.5 -70t-89.5 -21z" />
    <glyph glyph-name="gbreve" unicode="&#x11f;" horiz-adv-x="574" 
d="M274 -223q-68 0 -118.5 27t-76.5 62l37 28q22 -26 60 -48t98 -22q35 0 66 10.5t54.5 35t37.5 65t14 99.5v73q-5 -21 -20 -42t-37.5 -37.5t-52 -26.5t-63.5 -10q-44 0 -83.5 17t-69 50t-47 82t-17.5 112q0 65 18 115.5t48 84t70 50.5t83 17q67 0 111 -32t60 -70l6 89h43
v-472q0 -69 -18 -118t-48.5 -79.5t-70.5 -45t-84 -14.5zM278 37q71 0 121 57t50 158q0 118 -49.5 169.5t-121.5 51.5q-36 0 -67.5 -14t-55.5 -41.5t-37.5 -69t-13.5 -96.5q0 -54 13.5 -94.5t37 -67t55.5 -40t68 -13.5zM291 637q-47 0 -91 24.5t-74 66.5l30 26
q25 -34 60.5 -53.5t74.5 -19.5q38 0 72 17.5t62 55.5l30 -26q-31 -49 -74.5 -70t-89.5 -21z" />
    <glyph glyph-name="Gdotaccent" unicode="&#x120;" horiz-adv-x="686" 
d="M349 -11q-63 0 -117.5 21t-94 65.5t-62 114t-22.5 166.5q0 94 22 163t61 113t94 65.5t120 21.5q122 0 187 -58t87 -150h-53q-9 29 -24 58t-40.5 52t-64 37t-92.5 14q-110 0 -179.5 -74t-69.5 -243q0 -168 69 -243.5t179 -75.5q119 0 178 64t59 206h-197v46h245v-43
q0 -170 -74.5 -245t-210.5 -75zM349 805q-15 0 -28 11.5t-13 28.5t13 28.5t28 11.5t27.5 -11.5t12.5 -28.5t-12.5 -28.5t-27.5 -11.5z" />
    <glyph glyph-name="gdotaccent" unicode="&#x121;" horiz-adv-x="574" 
d="M274 -223q-68 0 -118.5 27t-76.5 62l37 28q22 -26 60 -48t98 -22q35 0 66 10.5t54.5 35t37.5 65t14 99.5v73q-5 -21 -20 -42t-37.5 -37.5t-52 -26.5t-63.5 -10q-44 0 -83.5 17t-69 50t-47 82t-17.5 112q0 65 18 115.5t48 84t70 50.5t83 17q67 0 111 -32t60 -70l6 89h43
v-472q0 -69 -18 -118t-48.5 -79.5t-70.5 -45t-84 -14.5zM278 37q71 0 121 57t50 158q0 118 -49.5 169.5t-121.5 51.5q-36 0 -67.5 -14t-55.5 -41.5t-37.5 -69t-13.5 -96.5q0 -54 13.5 -94.5t37 -67t55.5 -40t68 -13.5zM297 646q-15 0 -28 11.5t-13 28.5t13 28.5t28 11.5
t27.5 -11.5t12.5 -28.5t-12.5 -28.5t-27.5 -11.5z" />
    <glyph glyph-name="uni0122" unicode="&#x122;" horiz-adv-x="686" 
d="M349 -11q-63 0 -117.5 21t-94 65.5t-62 114t-22.5 166.5q0 94 22 163t61 113t94 65.5t120 21.5q122 0 187 -58t87 -150h-53q-9 29 -24 58t-40.5 52t-64 37t-92.5 14q-110 0 -179.5 -74t-69.5 -243q0 -168 69 -243.5t179 -75.5q119 0 178 64t59 206h-197v46h245v-43
q0 -170 -74.5 -245t-210.5 -75zM316 -237l9 132h61l-23 -132h-47z" />
    <glyph glyph-name="uni0123" unicode="&#x123;" horiz-adv-x="574" 
d="M324 784l-9 -132h-61l23 132h47zM274 -223q-68 0 -118.5 27t-76.5 62l37 28q22 -26 60 -48t98 -22q35 0 66 10.5t54.5 35t37.5 65t14 99.5v73q-5 -21 -20 -42t-37.5 -37.5t-52 -26.5t-63.5 -10q-44 0 -83.5 17t-69 50t-47 82t-17.5 112q0 65 18 115.5t48 84t70 50.5
t83 17q67 0 111 -32t60 -70l6 89h43v-472q0 -69 -18 -118t-48.5 -79.5t-70.5 -45t-84 -14.5zM278 37q71 0 121 57t50 158q0 118 -49.5 169.5t-121.5 51.5q-36 0 -67.5 -14t-55.5 -41.5t-37.5 -69t-13.5 -96.5q0 -54 13.5 -94.5t37 -67t55.5 -40t68 -13.5z" />
    <glyph glyph-name="Hbar" unicode="&#x126;" horiz-adv-x="675" 
d="M91 0v532h-87v43h87v135h47v-135h404v135h48v-135h81v-43h-81v-532h-48v329h-404v-329h-47zM138 376h404v156h-404v-156z" />
    <glyph glyph-name="hbar" unicode="&#x127;" horiz-adv-x="563" 
d="M92 0v627h-98v40h98v97h48v-97h154v-40h-154v-233q4 23 18.5 45t35.5 39.5t48.5 28t58.5 10.5q87 0 138 -61t51 -178v-278h-49v279q0 98 -38 145.5t-107 47.5q-31 0 -59.5 -13t-50 -38t-34 -61t-12.5 -81v-279h-48z" />
    <glyph glyph-name="Imacron" unicode="&#x12a;" horiz-adv-x="224" 
d="M19 803v43h186v-43h-186zM88 0v710h48v-710h-48z" />
    <glyph glyph-name="imacron" unicode="&#x12b;" horiz-adv-x="223" 
d="M20 647v48h183v-48h-183zM88 0v506h48v-506h-48z" />
    <glyph glyph-name="Ibreve" unicode="&#x12c;" horiz-adv-x="223" 
d="M112 775q-34 0 -66 21.5t-50 61.5l31 17q16 -30 39 -43t46 -13q22 0 46 14t37 42l32 -14q-14 -43 -47.5 -64.5t-67.5 -21.5zM88 0v710h48v-710h-48z" />
    <glyph glyph-name="ibreve" unicode="&#x12d;" horiz-adv-x="223" 
d="M112 629q-34 0 -66 21.5t-50 61.5l31 17q16 -31 39 -43.5t46 -12.5q22 0 46 14t37 42l32 -14q-14 -43 -47.5 -64.5t-67.5 -21.5zM88 0v506h48v-506h-48z" />
    <glyph glyph-name="Iogonek" unicode="&#x12e;" horiz-adv-x="221" 
d="M85 0v710h48v-710h-48zM131 -210h-80q-26 0 -44.5 11.5t-26 29t-4 39t20.5 41.5q7 9 20.5 24t27.5 30.5t26 29t16 18.5q9 10 20.5 10h11.5l16 -23l-98 -109q-16 -17 -12.5 -37t34.5 -20h72v-44z" />
    <glyph glyph-name="iogonek" unicode="&#x12f;" horiz-adv-x="235" 
d="M111 657q-13 0 -24.5 10t-11.5 26t11.5 25.5t24.5 9.5t25 -9.5t12 -25.5t-12 -26t-25 -10zM90 0v506h48v-506h-48zM134 -209h-80q-26 0 -44.5 11.5t-26 29t-4 39t20.5 41.5q7 9 20.5 24t27.5 30.5t26 29t16 18.5q9 10 20.5 10h11.5l16 -23l-98 -109q-16 -17 -12.5 -37
t34.5 -20h72v-44z" />
    <glyph glyph-name="Idotaccent" unicode="&#x130;" horiz-adv-x="224" 
d="M88 0v710h48v-710h-48zM110 799q-15 0 -28 11.5t-13 28.5t13 28.5t28 11.5t27.5 -11.5t12.5 -28.5t-12.5 -28.5t-27.5 -11.5z" />
    <glyph glyph-name="dotlessi" unicode="&#x131;" horiz-adv-x="223" 
d="M88 0v506h48v-506h-48z" />
    <glyph glyph-name="uni0136" unicode="&#x136;" horiz-adv-x="625" 
d="M88 0v710h48v-418l386 418h66l-295 -318l300 -392h-59l-273 357l-125 -134v-223h-48zM284 -228l9 132h61l-23 -132h-47z" />
    <glyph glyph-name="uni0137" unicode="&#x137;" horiz-adv-x="504" 
d="M90 0v720h48v-473l264 259h66l-216 -214l232 -292h-58l-208 261l-80 -77v-184h-48zM230 -216l9 132h61l-23 -132h-47z" />
    <glyph glyph-name="Lacute" unicode="&#x139;" 
d="M88 0v710h48v-663h368v-47h-416zM91 797l94 149l47 -36l-94 -113h-47z" />
    <glyph glyph-name="lacute" unicode="&#x13a;" horiz-adv-x="232" 
d="M83 763l65 119l46 -37l-64 -82h-47zM88 0v735h48v-735h-48z" />
    <glyph glyph-name="uni013B" unicode="&#x13b;" 
d="M88 0v710h48v-663h368v-47h-416zM247 -231l9 132h61l-23 -132h-47z" />
    <glyph glyph-name="uni013C" unicode="&#x13c;" horiz-adv-x="226" 
d="M88 0v735h48v-735h-48zM67 -226l9 132h61l-23 -132h-47z" />
    <glyph glyph-name="Lcaron" unicode="&#x13d;" 
d="M457 710h53l-40 -181h-44zM88 0v710h48v-663h368v-47h-416z" />
    <glyph glyph-name="lcaron" unicode="&#x13e;" horiz-adv-x="302" 
d="M88 0v735h48v-735h-48zM261 715h53l-43 -167h-44z" />
    <glyph glyph-name="Ldot" unicode="&#x13f;" 
d="M88 0v710h48v-663h368v-47h-416zM417 336q-15 0 -28 11.5t-13 28.5t13 28.5t28 11.5t27.5 -11.5t12.5 -28.5t-12.5 -28.5t-27.5 -11.5z" />
    <glyph glyph-name="ldot" unicode="&#x140;" horiz-adv-x="378" 
d="M88 0v735h48v-735h-48zM296 302q-13 0 -24.5 10t-11.5 26q0 17 11.5 27.5t24.5 10.5t25 -10.5t12 -27.5q0 -16 -12 -26t-25 -10z" />
    <glyph glyph-name="Lslash" unicode="&#x141;" horiz-adv-x="565" 
d="M109 0v293l-90 -50l-21 40l111 62v365h48v-338l182 101l21 -40l-203 -113v-273h368v-47h-416z" />
    <glyph glyph-name="lslash" unicode="&#x142;" horiz-adv-x="263" 
d="M106 0v356l-79 -40l-21 42l100 51v326h48v-302l90 46l21 -43l-111 -56v-380h-48z" />
    <glyph glyph-name="Nacute" unicode="&#x143;" horiz-adv-x="722" 
d="M88 0v710h54l445 -635v635h48v-710h-58l-441 632v-632h-48zM309 773l94 149l47 -36l-94 -113h-47z" />
    <glyph glyph-name="nacute" unicode="&#x144;" horiz-adv-x="542" 
d="M82 0v506h40l6 -92q13 43 57.5 74t103.5 31q92 0 139 -58.5t47 -160.5v-300h-49v299q0 81 -34 127.5t-110 46.5q-61 0 -106 -46t-45 -128v-299h-49zM225 612l94 149l47 -36l-94 -113h-47z" />
    <glyph glyph-name="uni0145" unicode="&#x145;" horiz-adv-x="722" 
d="M88 0v710h54l445 -635v635h48v-710h-58l-441 632v-632h-48zM310 -210l9 132h61l-23 -132h-47z" />
    <glyph glyph-name="uni0146" unicode="&#x146;" horiz-adv-x="542" 
d="M238 -237l9 132h61l-23 -132h-47zM82 0v506h40l6 -92q13 43 57.5 74t103.5 31q92 0 139 -58.5t47 -160.5v-300h-49v299q0 81 -34 127.5t-110 46.5q-61 0 -106 -46t-45 -128v-299h-49z" />
    <glyph glyph-name="Ncaron" unicode="&#x147;" horiz-adv-x="722" 
d="M88 0v710h54l445 -635v635h48v-710h-58l-441 632v-632h-48zM326 775l-106 107l27 24l102 -85l100 85l26 -24l-103 -107h-46z" />
    <glyph glyph-name="ncaron" unicode="&#x148;" horiz-adv-x="542" 
d="M82 0v506h40l6 -92q13 43 57.5 74t103.5 31q92 0 139 -58.5t47 -160.5v-300h-49v299q0 81 -34 127.5t-110 46.5q-61 0 -106 -46t-45 -128v-299h-49zM252 629l-106 107l27 24l102 -85l100 85l26 -24l-103 -107h-46z" />
    <glyph glyph-name="Omacron" unicode="&#x14c;" horiz-adv-x="692" 
d="M346 -7q-63 0 -117 21t-92.5 65.5t-61 113t-22.5 162.5q0 90 21 158.5t59 113.5t92.5 68t120.5 23q65 0 119 -23t92.5 -68t60 -113.5t21.5 -158.5q0 -93 -21.5 -162t-59.5 -113t-92.5 -65.5t-119.5 -21.5zM346 40q111 0 178.5 75.5t67.5 239.5q0 160 -68.5 238t-177.5 78
q-113 0 -179 -78t-66 -238q0 -166 68 -240.5t177 -74.5zM181 816v43h331v-43h-331z" />
    <glyph glyph-name="omacron" unicode="&#x14d;" horiz-adv-x="559" 
d="M278 -8q-40 0 -80 15.5t-72 47t-51.5 81t-19.5 115.5q0 68 18.5 118t49 82.5t71 48.5t84.5 16t85 -16.5t72 -49t50 -82.5t19 -117q0 -66 -20.5 -115t-53 -80.5t-72.5 -47.5t-80 -16zM278 37q30 0 61.5 12.5t57.5 38t42.5 66.5t16.5 97t-15 98t-39.5 69t-56.5 40t-67 13
t-67.5 -13t-56.5 -40t-38 -69t-14 -98q0 -55 16 -95.5t41 -67t56.5 -39t62.5 -12.5zM113 677v43h331v-43h-331z" />
    <glyph glyph-name="Obreve" unicode="&#x14e;" horiz-adv-x="692" 
d="M346 -7q-63 0 -117 21t-92.5 65.5t-61 113t-22.5 162.5q0 90 21 158.5t59 113.5t92.5 68t120.5 23q65 0 119 -23t92.5 -68t60 -113.5t21.5 -158.5q0 -93 -21.5 -162t-59.5 -113t-92.5 -65.5t-119.5 -21.5zM346 40q111 0 178.5 75.5t67.5 239.5q0 160 -68.5 238t-177.5 78
q-113 0 -179 -78t-66 -238q0 -166 68 -240.5t177 -74.5zM347 796q-47 0 -91 24.5t-74 66.5l30 26q25 -34 60.5 -53.5t74.5 -19.5q38 0 72 17.5t62 55.5l30 -26q-31 -49 -74.5 -70t-89.5 -21z" />
    <glyph glyph-name="obreve" unicode="&#x14f;" horiz-adv-x="559" 
d="M278 -8q-40 0 -80 15.5t-72 47t-51.5 81t-19.5 115.5q0 68 18.5 118t49 82.5t71 48.5t84.5 16t85 -16.5t72 -49t50 -82.5t19 -117q0 -66 -20.5 -115t-53 -80.5t-72.5 -47.5t-80 -16zM278 37q30 0 61.5 12.5t57.5 38t42.5 66.5t16.5 97t-15 98t-39.5 69t-56.5 40t-67 13
t-67.5 -13t-56.5 -40t-38 -69t-14 -98q0 -55 16 -95.5t41 -67t56.5 -39t62.5 -12.5zM278 636q-47 0 -91 24.5t-74 66.5l30 26q25 -34 60.5 -53.5t74.5 -19.5q38 0 72 17.5t62 55.5l30 -26q-31 -49 -74.5 -70t-89.5 -21z" />
    <glyph glyph-name="Ohungarumlaut" unicode="&#x150;" horiz-adv-x="692" 
d="M346 -7q-63 0 -117 21t-92.5 65.5t-61 113t-22.5 162.5q0 90 21 158.5t59 113.5t92.5 68t120.5 23q65 0 119 -23t92.5 -68t60 -113.5t21.5 -158.5q0 -93 -21.5 -162t-59.5 -113t-92.5 -65.5t-119.5 -21.5zM346 40q111 0 178.5 75.5t67.5 239.5q0 160 -68.5 238t-177.5 78
q-113 0 -179 -78t-66 -238q0 -166 68 -240.5t177 -74.5zM248 784l85 148l45 -28l-85 -120h-45zM378 784l85 148l46 -28l-86 -120h-45z" />
    <glyph glyph-name="ohungarumlaut" unicode="&#x151;" horiz-adv-x="559" 
d="M278 -8q-40 0 -80 15.5t-72 47t-51.5 81t-19.5 115.5q0 68 18.5 118t49 82.5t71 48.5t84.5 16t85 -16.5t72 -49t50 -82.5t19 -117q0 -66 -20.5 -115t-53 -80.5t-72.5 -47.5t-80 -16zM278 37q30 0 61.5 12.5t57.5 38t42.5 66.5t16.5 97t-15 98t-39.5 69t-56.5 40t-67 13
t-67.5 -13t-56.5 -40t-38 -69t-14 -98q0 -55 16 -95.5t41 -67t56.5 -39t62.5 -12.5zM168 602l85 148l45 -28l-85 -120h-45zM298 602l85 148l46 -28l-86 -120h-45z" />
    <glyph glyph-name="OE" unicode="&#x152;" horiz-adv-x="1060" 
d="M317 -7q-63 0 -117 21t-92.5 65.5t-61 113t-22.5 162.5q0 90 21 158.5t59 113.5t92.5 68t120.5 23q65 0 119 -23t92.5 -68t60 -113.5t21.5 -158.5q0 -93 -21.5 -162t-59.5 -113t-92.5 -65.5t-119.5 -21.5zM317 40q111 0 178.5 75.5t67.5 239.5q0 160 -68.5 238t-177.5 78
q-113 0 -179 -78t-66 -238q0 -166 68 -240.5t177 -74.5zM575 0v710h447v-46h-399v-281h303v-47h-303v-290h407v-46h-455z" />
    <glyph glyph-name="oe" unicode="&#x153;" horiz-adv-x="886" 
d="M245 -8q-40 0 -80 15.5t-72 47t-51.5 81t-19.5 115.5q0 68 18.5 118t49 82.5t71 48.5t84.5 16t85 -16.5t72 -49t50 -82.5t19 -117q0 -66 -20.5 -115t-53 -80.5t-72.5 -47.5t-80 -16zM245 37q30 0 61.5 12.5t57.5 38t42.5 66.5t16.5 97t-15 98t-39.5 69t-56.5 40t-67 13
t-67.5 -13t-56.5 -40t-38 -69t-14 -98q0 -55 16 -95.5t41 -67t56.5 -39t62.5 -12.5zM659 -13q-46 0 -88 15.5t-73.5 48t-50.5 82.5t-19 119q0 64 18.5 114t49 83t71.5 50.5t86 17.5q46 0 85.5 -16t69 -47t46.5 -76.5t17 -103.5v-34h-394q1 -56 16.5 -95.5t40.5 -64.5
t58 -36.5t69 -11.5q63 0 106 25.5t62 56.5l36 -27q-27 -40 -77.5 -70t-128.5 -30zM477 283h346q0 89 -49 139.5t-120 50.5q-72 0 -122.5 -52t-54.5 -138z" />
    <glyph glyph-name="Racute" unicode="&#x154;" horiz-adv-x="625" 
d="M88 0v710h248q52 0 93.5 -15t70.5 -41.5t44.5 -62.5t15.5 -78q0 -40 -13 -73t-34.5 -57.5t-50 -39t-59.5 -18.5l160 -325h-53l-156 315h-218v-315h-48zM136 361h200q81 -1 128 42.5t47 109.5t-48 108t-122 42h-205v-302zM270 785l94 149l47 -36l-94 -113h-47z" />
    <glyph glyph-name="racute" unicode="&#x155;" horiz-adv-x="363" 
d="M82 0v506h40l6 -87q6 16 19 33t32 31t43 23t51 9q25 0 40.5 -2.5t25.5 -3.5v-48q-12 2 -28.5 5t-38.5 3q-58 0 -99.5 -43.5t-41.5 -127.5v-298h-49zM148 614l94 149l47 -36l-94 -113h-47z" />
    <glyph glyph-name="uni0156" unicode="&#x156;" horiz-adv-x="625" 
d="M88 0v710h248q52 0 93.5 -15t70.5 -41.5t44.5 -62.5t15.5 -78q0 -40 -13 -73t-34.5 -57.5t-50 -39t-59.5 -18.5l160 -325h-53l-156 315h-218v-315h-48zM136 361h200q81 -1 128 42.5t47 109.5t-48 108t-122 42h-205v-302zM274 -210l9 132h61l-23 -132h-47z" />
    <glyph glyph-name="uni0157" unicode="&#x157;" horiz-adv-x="363" 
d="M82 0v506h40l6 -87q6 16 19 33t32 31t43 23t51 9q25 0 40.5 -2.5t25.5 -3.5v-48q-12 2 -28.5 5t-38.5 3q-58 0 -99.5 -43.5t-41.5 -127.5v-298h-49zM73 -226l9 132h61l-23 -132h-47z" />
    <glyph glyph-name="Rcaron" unicode="&#x158;" horiz-adv-x="625" 
d="M88 0v710h248q52 0 93.5 -15t70.5 -41.5t44.5 -62.5t15.5 -78q0 -40 -13 -73t-34.5 -57.5t-50 -39t-59.5 -18.5l160 -325h-53l-156 315h-218v-315h-48zM136 361h200q81 -1 128 42.5t47 109.5t-48 108t-122 42h-205v-302zM287 792l-106 107l27 24l102 -85l100 85l26 -24
l-103 -107h-46z" />
    <glyph glyph-name="rcaron" unicode="&#x159;" horiz-adv-x="363" 
d="M82 0v506h40l6 -87q6 16 19 33t32 31t43 23t51 9q25 0 40.5 -2.5t25.5 -3.5v-48q-12 2 -28.5 5t-38.5 3q-58 0 -99.5 -43.5t-41.5 -127.5v-298h-49zM175 631l-106 107l27 24l102 -85l100 85l26 -24l-103 -107h-46z" />
    <glyph glyph-name="Sacute" unicode="&#x15a;" horiz-adv-x="565" 
d="M288 -8q-84 0 -146.5 40t-91.5 106l42 21q31 -59 79.5 -89.5t115.5 -30.5q74 0 124.5 39.5t50.5 118.5q0 81 -51 113.5t-138 39.5q-93 7 -144.5 55t-51.5 129q0 82 59.5 134t153.5 52q75 0 120.5 -29t76.5 -77l-46 -23q-24 36 -61 60t-95 24q-69 0 -113 -38t-44 -101
q0 -65 42 -99t128 -41q46 -4 86.5 -16.5t69.5 -36.5t46 -60.5t17 -86.5q0 -53 -19 -91.5t-50.5 -63.5t-73 -37t-86.5 -12zM252 785l94 149l47 -36l-94 -113h-47z" />
    <glyph glyph-name="sacute" unicode="&#x15b;" horiz-adv-x="466" 
d="M239 -12q-69 0 -118.5 32.5t-73.5 79.5l43 21q23 -39 59.5 -62.5t89.5 -23.5q63 0 98.5 28.5t35.5 71.5q0 58 -39 80.5t-119 26.5q-66 3 -109 40t-43 98q0 63 46.5 100.5t124.5 37.5q71 0 114.5 -28t58.5 -72l-42 -21q-11 28 -42 52.5t-89 24.5q-57 0 -90 -23t-33 -67
q0 -47 33 -69.5t100 -26.5q84 -4 131.5 -39t47.5 -114q0 -64 -50 -105.5t-134 -41.5zM188 613l94 149l47 -36l-94 -113h-47z" />
    <glyph glyph-name="Scedilla" unicode="&#x15e;" horiz-adv-x="565" 
d="M288 -8q-84 0 -146.5 40t-91.5 106l42 21q31 -59 79.5 -89.5t115.5 -30.5q74 0 124.5 39.5t50.5 118.5q0 81 -51 113.5t-138 39.5q-93 7 -144.5 55t-51.5 129q0 82 59.5 134t153.5 52q75 0 120.5 -29t76.5 -77l-46 -23q-24 36 -61 60t-95 24q-69 0 -113 -38t-44 -101
q0 -65 42 -99t128 -41q46 -4 86.5 -16.5t69.5 -36.5t46 -60.5t17 -86.5q0 -53 -19 -91.5t-50.5 -63.5t-73 -37t-86.5 -12zM262 2h36l-9 -47q43 -2 69 -26t26 -63q0 -41 -26 -65.5t-75 -24.5q-27 0 -49 10t-35 18l18 37q11 -7 28.5 -14.5t39.5 -7.5q23 0 39.5 11.5t16.5 34.5
t-16.5 36t-53.5 14l-27 2z" />
    <glyph glyph-name="scedilla" unicode="&#x15f;" horiz-adv-x="466" 
d="M239 -12q-69 0 -118.5 32.5t-73.5 79.5l43 21q23 -39 59.5 -62.5t89.5 -23.5q63 0 98.5 28.5t35.5 71.5q0 58 -39 80.5t-119 26.5q-66 3 -109 40t-43 98q0 63 46.5 100.5t124.5 37.5q71 0 114.5 -28t58.5 -72l-42 -21q-11 28 -42 52.5t-89 24.5q-57 0 -90 -23t-33 -67
q0 -47 33 -69.5t100 -26.5q84 -4 131.5 -39t47.5 -114q0 -64 -50 -105.5t-134 -41.5zM217 -6h36l-9 -47q43 -2 69 -26t26 -63q0 -41 -26 -65.5t-75 -24.5q-27 0 -49 10t-35 18l18 37q11 -7 28.5 -14.5t39.5 -7.5q23 0 39.5 11.5t16.5 34.5t-16.5 36t-53.5 14l-27 2z" />
    <glyph glyph-name="Scaron" unicode="&#x160;" horiz-adv-x="565" 
d="M288 -8q-84 0 -146.5 40t-91.5 106l42 21q31 -59 79.5 -89.5t115.5 -30.5q74 0 124.5 39.5t50.5 118.5q0 81 -51 113.5t-138 39.5q-93 7 -144.5 55t-51.5 129q0 82 59.5 134t153.5 52q75 0 120.5 -29t76.5 -77l-46 -23q-24 36 -61 60t-95 24q-69 0 -113 -38t-44 -101
q0 -65 42 -99t128 -41q46 -4 86.5 -16.5t69.5 -36.5t46 -60.5t17 -86.5q0 -53 -19 -91.5t-50.5 -63.5t-73 -37t-86.5 -12zM269 792l-106 107l27 24l102 -85l100 85l26 -24l-103 -107h-46z" />
    <glyph glyph-name="scaron" unicode="&#x161;" horiz-adv-x="466" 
d="M239 -12q-69 0 -118.5 32.5t-73.5 79.5l43 21q23 -39 59.5 -62.5t89.5 -23.5q63 0 98.5 28.5t35.5 71.5q0 58 -39 80.5t-119 26.5q-66 3 -109 40t-43 98q0 63 46.5 100.5t124.5 37.5q71 0 114.5 -28t58.5 -72l-42 -21q-11 28 -42 52.5t-89 24.5q-57 0 -90 -23t-33 -67
q0 -47 33 -69.5t100 -26.5q84 -4 131.5 -39t47.5 -114q0 -64 -50 -105.5t-134 -41.5zM215 631l-106 107l27 24l102 -85l100 85l26 -24l-103 -107h-46z" />
    <glyph glyph-name="uni0162" unicode="&#x162;" horiz-adv-x="555" 
d="M252 0v664h-211v47h473v-47h-213v-664h-49zM252 2h36l-9 -47q43 -2 69 -26t26 -63q0 -41 -26 -65.5t-75 -24.5q-27 0 -49 10t-35 18l18 37q11 -7 28.5 -14.5t39.5 -7.5q23 0 39.5 11.5t16.5 34.5t-16.5 36t-53.5 14l-27 2z" />
    <glyph glyph-name="uni0163" unicode="&#x163;" horiz-adv-x="359" 
d="M130 135v326h-105v45h103l12 161h38v-161h145v-45h-145v-318q0 -49 25.5 -75.5t77.5 -26.5h21t20 1v-45q-5 -1 -23 -1.5t-26 -0.5q-58 0 -100.5 35t-42.5 105zM182 18h36l-9 -47q43 -2 69 -26t26 -63q0 -41 -26 -65.5t-75 -24.5q-27 0 -49 10t-35 18l18 37
q11 -7 28.5 -14.5t39.5 -7.5q23 0 39.5 11.5t16.5 34.5t-16.5 36t-53.5 14l-27 2z" />
    <glyph glyph-name="Tcaron" unicode="&#x164;" horiz-adv-x="555" 
d="M252 0v664h-211v47h473v-47h-213v-664h-49zM253 792l-106 107l27 24l102 -85l100 85l26 -24l-103 -107h-46z" />
    <glyph glyph-name="tcaron" unicode="&#x165;" horiz-adv-x="394" 
d="M350 752h52l-36 -168h-43zM130 135v326h-105v45h103l12 161h38v-161h145v-45h-145v-318q0 -49 25.5 -75.5t77.5 -26.5h21t20 1v-45q-5 -1 -23 -1.5t-26 -0.5q-58 0 -100.5 35t-42.5 105z" />
    <glyph glyph-name="Umacron" unicode="&#x16a;" horiz-adv-x="629" 
d="M314 -12q-114 0 -181.5 77.5t-67.5 222.5v422h47v-424q0 -122 55 -186.5t147 -64.5q96 0 149.5 64.5t53.5 186.5v424h47v-422q0 -144 -65.5 -222t-184.5 -78zM148 806v43h331v-43h-331z" />
    <glyph glyph-name="umacron" unicode="&#x16b;" 
d="M258 -10q-83 0 -137 58t-54 165v293h49v-293q0 -84 39.5 -130.5t107.5 -46.5q64 0 107.5 48t43.5 129v293h48v-506h-39l-6 99q-5 -19 -19.5 -39t-35 -35t-47.5 -25t-57 -10zM104 676v43h331v-43h-331z" />
    <glyph glyph-name="Ubreve" unicode="&#x16c;" horiz-adv-x="629" 
d="M314 -12q-114 0 -181.5 77.5t-67.5 222.5v422h47v-424q0 -122 55 -186.5t147 -64.5q96 0 149.5 64.5t53.5 186.5v424h47v-422q0 -144 -65.5 -222t-184.5 -78zM313 786q-47 0 -91 24.5t-74 66.5l30 26q25 -34 60.5 -53.5t74.5 -19.5q38 0 72 17.5t62 55.5l30 -26
q-31 -49 -74.5 -70t-89.5 -21z" />
    <glyph glyph-name="ubreve" unicode="&#x16d;" 
d="M258 -10q-83 0 -137 58t-54 165v293h49v-293q0 -84 39.5 -130.5t107.5 -46.5q64 0 107.5 48t43.5 129v293h48v-506h-39l-6 99q-5 -19 -19.5 -39t-35 -35t-47.5 -25t-57 -10zM269 635q-47 0 -91 24.5t-74 66.5l30 26q25 -34 60.5 -53.5t74.5 -19.5q38 0 72 17.5t62 55.5
l30 -26q-31 -49 -74.5 -70t-89.5 -21z" />
    <glyph glyph-name="Uring" unicode="&#x16e;" horiz-adv-x="629" 
d="M314 -12q-114 0 -181.5 77.5t-67.5 222.5v422h47v-424q0 -122 55 -186.5t147 -64.5q96 0 149.5 64.5t53.5 186.5v424h47v-422q0 -144 -65.5 -222t-184.5 -78zM314 743q-43 0 -74 30t-31 74q0 43 31.5 74.5t73.5 31.5q41 0 72.5 -31.5t31.5 -74.5q0 -44 -31 -74t-73 -30z
M314 780q29 0 47.5 19t18.5 47t-19 49t-47 21t-48 -21t-20 -49t19 -47t49 -19z" />
    <glyph glyph-name="uring" unicode="&#x16f;" 
d="M258 -10q-83 0 -137 58t-54 165v293h49v-293q0 -84 39.5 -130.5t107.5 -46.5q64 0 107.5 48t43.5 129v293h48v-506h-39l-6 99q-5 -19 -19.5 -39t-35 -35t-47.5 -25t-57 -10zM269 590q-43 0 -74 30t-31 74q0 43 31.5 74.5t73.5 31.5q41 0 72.5 -31.5t31.5 -74.5
q0 -44 -31 -74t-73 -30zM269 627q29 0 47.5 19t18.5 47t-19 49t-47 21t-48 -21t-20 -49t19 -47t49 -19z" />
    <glyph glyph-name="Uhungarumlaut" unicode="&#x170;" horiz-adv-x="629" 
d="M314 -12q-114 0 -181.5 77.5t-67.5 222.5v422h47v-424q0 -122 55 -186.5t147 -64.5q96 0 149.5 64.5t53.5 186.5v424h47v-422q0 -144 -65.5 -222t-184.5 -78zM215 774l85 148l45 -28l-85 -120h-45zM345 774l85 148l46 -28l-86 -120h-45z" />
    <glyph glyph-name="uhungarumlaut" unicode="&#x171;" 
d="M258 -10q-83 0 -137 58t-54 165v293h49v-293q0 -84 39.5 -130.5t107.5 -46.5q64 0 107.5 48t43.5 129v293h48v-506h-39l-6 99q-5 -19 -19.5 -39t-35 -35t-47.5 -25t-57 -10zM159 601l85 148l45 -28l-85 -120h-45zM289 601l85 148l46 -28l-86 -120h-45z" />
    <glyph glyph-name="Uogonek" unicode="&#x172;" horiz-adv-x="629" 
d="M314 -12q-114 0 -181.5 77.5t-67.5 222.5v422h47v-424q0 -122 55 -186.5t147 -64.5q96 0 149.5 64.5t53.5 186.5v424h47v-422q0 -144 -65.5 -222t-184.5 -78zM421 -198h-80q-26 0 -44.5 11.5t-26 29t-4 39t20.5 41.5q7 9 20.5 24t27.5 30.5t26 29t16 18.5q9 10 20.5 10
h11.5l16 -23l-98 -109q-16 -17 -12.5 -37t34.5 -20h72v-44z" />
    <glyph glyph-name="uogonek" unicode="&#x173;" 
d="M258 -10q-83 0 -137 58t-54 165v293h49v-293q0 -84 39.5 -130.5t107.5 -46.5q64 0 107.5 48t43.5 129v293h48v-506h-39l-6 99q-5 -19 -19.5 -39t-35 -35t-47.5 -25t-57 -10zM458 -209h-80q-26 0 -44.5 11.5t-26 29t-4 39t20.5 41.5q7 9 20.5 24t27.5 30.5t26 29t16 18.5
q9 10 20.5 10h11.5l16 -23l-98 -109q-16 -17 -12.5 -37t34.5 -20h72v-44z" />
    <glyph glyph-name="Wcircumflex" unicode="&#x174;" horiz-adv-x="918" 
d="M230 0l-187 710h49l168 -631l180 611h40l183 -617l161 637h51l-183 -710h-57l-175 593l-172 -593h-58zM359 769l-27 24l105 108h46l104 -107l-27 -24l-99 84z" />
    <glyph glyph-name="wcircumflex" unicode="&#x175;" horiz-adv-x="749" 
d="M190 0l-157 506h50l131 -425l140 425h41l145 -421l125 421h51l-153 -506h-46l-143 409l-139 -409h-45zM272 611l-27 24l105 108h46l104 -107l-27 -24l-99 84z" />
    <glyph glyph-name="Ycircumflex" unicode="&#x176;" horiz-adv-x="596" 
d="M275 0v284l-242 426h55l211 -371l208 371h55l-239 -426v-284h-48zM198 770l-27 24l105 108h46l104 -107l-27 -24l-99 84z" />
    <glyph glyph-name="ycircumflex" unicode="&#x177;" horiz-adv-x="502" 
d="M199 -194h-50l74 186l3 10l-193 504h51l166 -442l168 442h52zM151 612l-27 24l105 108h46l104 -107l-27 -24l-99 84z" />
    <glyph glyph-name="Ydieresis" unicode="&#x178;" horiz-adv-x="596" 
d="M275 0v284l-242 426h55l211 -371l208 371h55l-239 -426v-284h-48zM201 789q-14 0 -26 11t-12 27t12 27.5t26 11.5q16 0 28 -11.5t12 -27.5t-12 -27t-28 -11zM398 789q-14 0 -26 11t-12 27t12 27.5t26 11.5q15 0 27 -11.5t12 -27.5t-12 -27t-27 -11z" />
    <glyph glyph-name="Zacute" unicode="&#x179;" horiz-adv-x="557" 
d="M41 0v43l410 620h-398v47h462v-40l-413 -623h412v-47h-473zM237 785l94 149l47 -36l-94 -113h-47z" />
    <glyph glyph-name="zacute" unicode="&#x17a;" horiz-adv-x="465" 
d="M50 0v39l298 421h-293v46h353v-35l-299 -425h306v-46h-365zM179 611l94 149l47 -36l-94 -113h-47z" />
    <glyph glyph-name="Zdotaccent" unicode="&#x17b;" horiz-adv-x="557" 
d="M41 0v43l410 620h-398v47h462v-40l-413 -623h412v-47h-473zM277 805q-15 0 -28 11.5t-13 28.5t13 28.5t28 11.5t27.5 -11.5t12.5 -28.5t-12.5 -28.5t-27.5 -11.5z" />
    <glyph glyph-name="zdotaccent" unicode="&#x17c;" horiz-adv-x="465" 
d="M50 0v39l298 421h-293v46h353v-35l-299 -425h306v-46h-365zM229 644q-15 0 -28 11.5t-13 28.5t13 28.5t28 11.5t27.5 -11.5t12.5 -28.5t-12.5 -28.5t-27.5 -11.5z" />
    <glyph glyph-name="Zcaron" unicode="&#x17d;" horiz-adv-x="557" 
d="M41 0v43l410 620h-398v47h462v-40l-413 -623h412v-47h-473zM254 792l-106 107l27 24l102 -85l100 85l26 -24l-103 -107h-46z" />
    <glyph glyph-name="zcaron" unicode="&#x17e;" horiz-adv-x="465" 
d="M50 0v39l298 421h-293v46h353v-35l-299 -425h306v-46h-365zM206 628l-106 107l27 24l102 -85l100 85l26 -24l-103 -107h-46z" />
    <glyph glyph-name="uni01DD" unicode="&#x1dd;" horiz-adv-x="555" 
d="M262 506q46 0 88 -15.5t73.5 -48t50.5 -82.5t19 -119q0 -64 -18.5 -114t-49 -83t-71.5 -50.5t-86 -17.5q-46 0 -85.5 16t-69 47t-46.5 76.5t-17 103.5v34h394q-1 56 -16.5 95.5t-40.5 64.5t-58 36.5t-69 11.5q-63 0 -106 -25.5t-62 -56.5l-36 27q27 40 77.5 70t128.5 30z
M444 210h-346q0 -89 49 -139.5t120 -50.5q72 0 122.5 52t54.5 138z" />
    <glyph glyph-name="Aringacute" unicode="&#x1fa;" horiz-adv-x="657" 
d="M285 988l94 149l47 -36l-94 -113h-47zM586 0l-78 196h-356l-78 -196h-52l281 710h52l280 -710h-49zM329 644l-159 -402h319zM326 757q-43 0 -74 30t-31 74q0 43 31.5 74.5t73.5 31.5q41 0 72.5 -31.5t31.5 -74.5q0 -44 -31 -74t-73 -30zM326 794q29 0 47.5 19t18.5 47
t-19 49t-47 21t-48 -21t-20 -49t19 -47t49 -19z" />
    <glyph glyph-name="aringacute" unicode="&#x1fb;" horiz-adv-x="495" 
d="M208 834l94 149l47 -36l-94 -113h-47zM219 -10q-72 0 -122.5 40t-50.5 109q0 70 55 112t142 42q54 0 90.5 -14.5t54.5 -26.5v80q0 80 -38.5 108.5t-104.5 28.5q-48 0 -84 -21.5t-58 -49.5l-36 26q21 34 68.5 62t112.5 28q81 0 134.5 -39.5t53.5 -143.5v-333h-41l-5 78
q-19 -28 -63.5 -57t-107.5 -29zM223 33q31 0 59.5 10.5t50 27.5t36.5 37.5t19 39.5v57q-22 15 -59.5 30t-84.5 14q-71 0 -110.5 -28.5t-39.5 -79.5q0 -52 37.5 -80t91.5 -28zM253 571q-43 0 -74 30t-31 74q0 43 31.5 74.5t73.5 31.5q41 0 72.5 -31.5t31.5 -74.5
q0 -44 -31 -74t-73 -30zM253 608q29 0 47.5 19t18.5 47t-19 49t-47 21t-48 -21t-20 -49t19 -47t49 -19z" />
    <glyph glyph-name="AEacute" unicode="&#x1fc;" horiz-adv-x="939" 
d="M-5 0l452 710h440v-46h-370v-280h300v-46h-300v-292h373v-46h-421v190h-296l-122 -190h-56zM202 236h267v418zM466 780l94 149l47 -36l-94 -113h-47z" />
    <glyph glyph-name="aeacute" unicode="&#x1fd;" horiz-adv-x="838" 
d="M203 -8q-84 0 -131 42.5t-47 102.5q0 70 52 111.5t148 41.5q48 0 89 -2.5t60 -5.5v6q-3 96 -41.5 141t-108.5 45q-64 0 -94.5 -23t-50.5 -42l-35 28q11 12 26 26t36 26t50 20t69 8q65 0 112 -29.5t69 -97.5q29 62 82.5 94.5t114.5 32.5q46 0 85.5 -16t69 -47t46.5 -76.5
t17 -103.5v-34h-394q1 -56 16.5 -95.5t40.5 -64.5t58 -36.5t69 -11.5q63 0 106 25.5t62 56.5l36 -27q-27 -40 -77.5 -70t-128.5 -30q-65 0 -121 32t-85 98q-26 -65 -79 -95t-121 -30zM427 283h346q0 89 -49 139.5t-120 50.5q-72 0 -122.5 -52t-54.5 -138zM202 35
q77 0 124 44.5t48 136.5v23q-10 3 -28 5t-38.5 3t-42 1.5t-39.5 -0.5q-80 -2 -117.5 -30.5t-37.5 -77.5q0 -45 34.5 -75t96.5 -30zM361 624l94 149l47 -36l-94 -113h-47z" />
    <glyph glyph-name="Oslashacute" unicode="&#x1fe;" horiz-adv-x="692" 
d="M128 -25l-39 23l50 78q-40 44 -63 113.5t-23 165.5q0 90 21 158.5t59 113.5t92.5 68t120.5 23q49 0 93 -13.5t79 -40.5l39 61l38 -24l-43 -67q41 -46 64 -116t23 -163t-21.5 -162t-59.5 -113t-92.5 -65.5t-119.5 -21.5q-49 0 -93 13t-80 40zM101 355q0 -81 17 -140
t48 -97l326 506q-29 24 -66 35.5t-80 11.5q-113 0 -179 -78t-66 -238zM346 40q111 0 178.5 75.5t67.5 239.5q0 79 -18 138.5t-49 98.5l-326 -507q30 -23 67 -34t80 -11zM307 785l94 149l47 -36l-94 -113h-47z" />
    <glyph glyph-name="oslashacute" unicode="&#x1ff;" horiz-adv-x="534" 
d="M96 -11l-33 24l48 60q-25 31 -40 76t-15 102q0 68 18.5 118t49 82.5t71 48.5t84.5 16q39 0 75.5 -13t66.5 -38l39 49l33 -26l-43 -54q25 -32 40 -78t15 -105q0 -66 -20.5 -115t-53 -80.5t-72.5 -47.5t-80 -16q-37 0 -73 13t-67 38zM103 251q0 -44 10.5 -79.5t27.5 -60.5
l251 317q-23 22 -52.5 32.5t-60.5 10.5q-35 0 -67.5 -13t-56.5 -40t-38 -69t-14 -98zM279 37q30 0 61.5 12.5t57.5 38t42.5 66.5t16.5 97q0 46 -10 82.5t-27 62.5l-252 -316q25 -22 54 -32.5t57 -10.5zM226 611l94 149l47 -36l-94 -113h-47z" />
    <glyph glyph-name="uni0218" unicode="&#x218;" horiz-adv-x="565" 
d="M288 -8q-84 0 -146.5 40t-91.5 106l42 21q31 -59 79.5 -89.5t115.5 -30.5q74 0 124.5 39.5t50.5 118.5q0 81 -51 113.5t-138 39.5q-93 7 -144.5 55t-51.5 129q0 82 59.5 134t153.5 52q75 0 120.5 -29t76.5 -77l-46 -23q-24 36 -61 60t-95 24q-69 0 -113 -38t-44 -101
q0 -65 42 -99t128 -41q46 -4 86.5 -16.5t69.5 -36.5t46 -60.5t17 -86.5q0 -53 -19 -91.5t-50.5 -63.5t-73 -37t-86.5 -12zM250 -225l9 132h61l-23 -132h-47z" />
    <glyph glyph-name="uni0219" unicode="&#x219;" horiz-adv-x="466" 
d="M239 -12q-69 0 -118.5 32.5t-73.5 79.5l43 21q23 -39 59.5 -62.5t89.5 -23.5q63 0 98.5 28.5t35.5 71.5q0 58 -39 80.5t-119 26.5q-66 3 -109 40t-43 98q0 63 46.5 100.5t124.5 37.5q71 0 114.5 -28t58.5 -72l-42 -21q-11 28 -42 52.5t-89 24.5q-57 0 -90 -23t-33 -67
q0 -47 33 -69.5t100 -26.5q84 -4 131.5 -39t47.5 -114q0 -64 -50 -105.5t-134 -41.5zM200 -229l9 132h61l-23 -132h-47z" />
    <glyph glyph-name="uni021A" unicode="&#x21a;" horiz-adv-x="555" 
d="M252 0v664h-211v47h473v-47h-213v-664h-49zM240 -225l9 132h61l-23 -132h-47z" />
    <glyph glyph-name="uni021B" unicode="&#x21b;" horiz-adv-x="359" 
d="M130 135v326h-105v45h103l12 161h38v-161h145v-45h-145v-318q0 -49 25.5 -75.5t77.5 -26.5h21t20 1v-45q-5 -1 -23 -1.5t-26 -0.5q-58 0 -100.5 35t-42.5 105zM163 -217l9 132h61l-23 -132h-47z" />
    <glyph glyph-name="circumflex" unicode="&#x2c6;" horiz-adv-x="259" 
d="M29 591l-27 24l105 108h46l104 -107l-27 -24l-99 84z" />
    <glyph glyph-name="caron" unicode="&#x2c7;" horiz-adv-x="288" 
d="M107 598l-106 107l27 24l102 -85l100 85l26 -24l-103 -107h-46z" />
    <glyph glyph-name="breve" unicode="&#x2d8;" horiz-adv-x="333" 
d="M167 603q-47 0 -91 24.5t-74 66.5l30 26q25 -34 60.5 -53.5t74.5 -19.5q38 0 72 17.5t62 55.5l30 -26q-31 -49 -74.5 -70t-89.5 -21z" />
    <glyph glyph-name="dotaccent" unicode="&#x2d9;" horiz-adv-x="85" 
d="M43 632q-15 0 -28 11.5t-13 28.5t13 28.5t28 11.5t27.5 -11.5t12.5 -28.5t-12.5 -28.5t-27.5 -11.5z" />
    <glyph glyph-name="ring" unicode="&#x2da;" horiz-adv-x="213" 
d="M107 561q-43 0 -74 30t-31 74q0 43 31.5 74.5t73.5 31.5q41 0 72.5 -31.5t31.5 -74.5q0 -44 -31 -74t-73 -30zM107 598q29 0 47.5 19t18.5 47t-19 49t-47 21t-48 -21t-20 -49t19 -47t49 -19z" />
    <glyph glyph-name="ogonek" unicode="&#x2db;" horiz-adv-x="507" 
d="M349 -232h-80q-26 0 -44.5 11.5t-26 29t-4 39t20.5 41.5q7 9 20.5 24t27.5 30.5t26 29t16 18.5q9 10 20.5 10h11.5l16 -23l-98 -109q-16 -17 -12.5 -37t34.5 -20h72v-44z" />
    <glyph glyph-name="tilde" unicode="&#x2dc;" horiz-adv-x="340" 
d="M4 605q4 31 30.5 59t71.5 32q26 2 45.5 -5t35 -16t29.5 -16.5t30 -6.5q28 2 40.5 18.5t16.5 29.5l34 -11q-2 -10 -7.5 -23.5t-16 -25.5t-26 -21t-36.5 -11q-22 -2 -39 5.5t-32.5 16t-32 16t-36.5 5.5q-30 -2 -50 -17.5t-25 -37.5l-5 1t-11 3t-11 3.5z" />
    <glyph glyph-name="hungarumlaut" unicode="&#x2dd;" horiz-adv-x="264" 
d="M2 574l85 148l45 -28l-85 -120h-45zM132 574l85 148l46 -28l-86 -120h-45z" />
    <glyph glyph-name="Wgrave" unicode="&#x1e80;" horiz-adv-x="918" 
d="M230 0l-187 710h49l168 -631l180 611h40l183 -617l161 637h51l-183 -710h-57l-175 593l-172 -593h-58zM459 779l-94 113l46 36l95 -149h-47z" />
    <glyph glyph-name="wgrave" unicode="&#x1e81;" horiz-adv-x="749" 
d="M190 0l-157 506h50l131 -425l140 425h41l145 -421l125 421h51l-153 -506h-46l-143 409l-139 -409h-45zM381 612l-94 113l46 36l95 -149h-47z" />
    <glyph glyph-name="Wacute" unicode="&#x1e82;" horiz-adv-x="918" 
d="M230 0l-187 710h49l168 -631l180 611h40l183 -617l161 637h51l-183 -710h-57l-175 593l-172 -593h-58zM421 780l94 149l47 -36l-94 -113h-47z" />
    <glyph glyph-name="wacute" unicode="&#x1e83;" horiz-adv-x="749" 
d="M190 0l-157 506h50l131 -425l140 425h41l145 -421l125 421h51l-153 -506h-46l-143 409l-139 -409h-45zM324 611l94 149l47 -36l-94 -113h-47z" />
    <glyph glyph-name="Wdieresis" unicode="&#x1e84;" horiz-adv-x="918" 
d="M230 0l-187 710h49l168 -631l180 611h40l183 -617l161 637h51l-183 -710h-57l-175 593l-172 -593h-58zM363 788q-14 0 -26 11t-12 27t12 27.5t26 11.5q16 0 28 -11.5t12 -27.5t-12 -27t-28 -11zM560 788q-14 0 -26 11t-12 27t12 27.5t26 11.5q15 0 27 -11.5t12 -27.5
t-12 -27t-27 -11z" />
    <glyph glyph-name="wdieresis" unicode="&#x1e85;" horiz-adv-x="749" 
d="M190 0l-157 506h50l131 -425l140 425h41l145 -421l125 421h51l-153 -506h-46l-143 409l-139 -409h-45zM276 646q-14 0 -26 11t-12 27t12 27.5t26 11.5q16 0 28 -11.5t12 -27.5t-12 -27t-28 -11zM473 646q-14 0 -26 11t-12 27t12 27.5t26 11.5q15 0 27 -11.5t12 -27.5
t-12 -27t-27 -11z" />
    <glyph glyph-name="Ygrave" unicode="&#x1ef2;" horiz-adv-x="596" 
d="M275 0v284l-242 426h55l211 -371l208 371h55l-239 -426v-284h-48zM297 779l-94 113l46 36l95 -149h-47z" />
    <glyph glyph-name="ygrave" unicode="&#x1ef3;" horiz-adv-x="502" 
d="M199 -194h-50l74 186l3 10l-193 504h51l166 -442l168 442h52zM260 613l-94 113l46 36l95 -149h-47z" />
    <glyph glyph-name="endash" unicode="&#x2013;" horiz-adv-x="548" 
d="M80 245v47h387v-47h-387z" />
    <glyph glyph-name="emdash" unicode="&#x2014;" horiz-adv-x="919" 
d="M124 245v47h671v-47h-671z" />
    <glyph glyph-name="quoteleft" unicode="&#x2018;" horiz-adv-x="178" 
d="M95 710l41 -191h-44l-50 191h53z" />
    <glyph glyph-name="quoteright" unicode="&#x2019;" horiz-adv-x="178" 
d="M83 710h53l-50 -191h-44z" />
    <glyph glyph-name="quotesinglbase" unicode="&#x201a;" horiz-adv-x="170" 
d="M98 0h-46v191h46v-191z" />
    <glyph glyph-name="quotedblleft" unicode="&#x201c;" horiz-adv-x="319" 
d="M235 710l41 -191h-44l-50 191h53zM95 710l41 -191h-44l-50 191h53z" />
    <glyph glyph-name="quotedblright" unicode="&#x201d;" horiz-adv-x="318" 
d="M223 710h53l-50 -191h-44zM83 710h53l-50 -191h-44z" />
    <glyph glyph-name="quotedblbase" unicode="&#x201e;" horiz-adv-x="298" 
d="M226 0h-46v191h46v-191zM98 0h-46v191h46v-191z" />
    <glyph glyph-name="dagger" unicode="&#x2020;" horiz-adv-x="478" 
d="M221 194v313h-130v43h130v141h45v-141h121v-43h-121v-313h-45z" />
    <glyph glyph-name="daggerdbl" unicode="&#x2021;" horiz-adv-x="479" 
d="M388 507h-126v-127h125v-44h-125v-142h-45v142h-126v44h126v127h-124v43h124v142h45v-142h126v-43z" />
    <glyph glyph-name="bullet" unicode="&#x2022;" horiz-adv-x="271" 
d="M136 277q-25 0 -45.5 18.5t-20.5 45.5q0 28 20.5 48t45.5 20t45 -20t20 -48q0 -27 -20 -45.5t-45 -18.5z" />
    <glyph glyph-name="ellipsis" unicode="&#x2026;" horiz-adv-x="512" 
d="M90 -5q-13 0 -25.5 11t-12.5 28t12.5 28t25.5 11t26 -11t13 -28t-13 -28t-26 -11zM250 -5q-14 0 -26 11t-12 28t12 28t26 11t26.5 -11t12.5 -28t-12.5 -28t-26.5 -11zM410 -5q-14 0 -26.5 11t-12.5 28t12.5 28t26.5 11q13 0 25.5 -11t12.5 -28t-12.5 -28t-25.5 -11z" />
    <glyph glyph-name="guilsinglleft" unicode="&#x2039;" horiz-adv-x="353" 
d="M222 119l-132 141v33l131 140l33 -29l-119 -129l119 -127z" />
    <glyph glyph-name="guilsinglright" unicode="&#x203a;" horiz-adv-x="347" 
d="M124 436l132 -141v-33l-131 -140l-33 29l119 129l-119 127z" />
    <glyph glyph-name="Euro" unicode="&#x20ac;" horiz-adv-x="661" 
d="M43 247v48h71q-1 13 -1.5 26.5t-0.5 26.5q0 15 0.5 29.5t1.5 28.5h-71v47h77q22 130 101 199t201 69q78 0 122 -17.5t78 -41.5l-21 -44q-31 24 -71.5 40t-106.5 16q-99 0 -164.5 -54.5t-84.5 -166.5h362l-18 -47h-351q-1 -13 -1.5 -27.5t-0.5 -29.5q0 -14 1 -27.5
t2 -26.5h307l-18 -48h-282q21 -103 86 -157.5t162 -54.5q54 0 96.5 13t81.5 32v-50q-28 -17 -73.5 -30t-108.5 -13q-118 0 -197 67.5t-101 192.5h-78z" />
    <glyph glyph-name="arrowleft" unicode="&#x2190;" horiz-adv-x="783" 
d="M336 50l-271 271l271 272l34 -35l-215 -213h541v-47h-541l214 -214z" />
    <glyph glyph-name="arrowup" unicode="&#x2191;" horiz-adv-x="608" 
d="M277 2v633l-212 -214l-35 33l271 271l272 -271l-34 -35l-214 216v-633h-48z" />
    <glyph glyph-name="arrowright" unicode="&#x2192;" horiz-adv-x="779" 
d="M440 46l-34 34l214 215h-541v47h541l-213 212l33 36l271 -271z" />
    <glyph glyph-name="arrowdown" unicode="&#x2193;" horiz-adv-x="607" 
d="M301 -15l-271 271l34 35l213 -216v633h48v-632l213 214l35 -34z" />
    <glyph glyph-name="minus" unicode="&#x2212;" horiz-adv-x="613" 
d="M516 302h-419v47h419v-47z" />
    <glyph glyph-name="commaaccent" unicode="&#xf6c3;" horiz-adv-x="76" 
d="M4 -215l9 132h61l-23 -132h-47z" />
    <glyph glyph-name="two.sub" horiz-adv-x="367" 
d="M51 -186v42l144 158q22 24 36.5 41t23 30.5t12 26.5t3.5 30q0 37 -24 59t-60 22q-38 0 -62 -21.5t-29 -59.5h-43q4 56 42 90.5t92 34.5q56 0 92.5 -36t36.5 -89q0 -26 -5.5 -45t-16.5 -35t-27 -32.5t-36 -38.5l-123 -134h215v-43h-271z" />
    <glyph glyph-name="controlBS" horiz-adv-x="0" 
 />
    </font>
</defs>
</svg>
