<?xml version="1.0" standalone="no"?>
<!DOCTYPE svg PUBLIC "-//W3C//DTD SVG 1.1//EN" "http://www.w3.org/Graphics/SVG/1.1/DTD/svg11.dtd" >
<svg xmlns="http://www.w3.org/2000/svg" xmlns:xlink="http://www.w3.org/1999/xlink" version="1.1">
<metadata>
Created by FontForge 20170731 at Thu Jan 21 20:33:23 2021
 By Aleksey,,,
</metadata>
<defs>
<font id="klimaregular_italic" horiz-adv-x="1157" >
  <font-face 
    font-family="klimaregular_/italic"
    font-weight="400"
    font-stretch="normal"
    units-per-em="2048"
    panose-1="2 0 5 3 0 0 0 0 0 0"
    ascent="1565"
    descent="-483"
    x-height="1065"
    cap-height="1454"
    bbox="-192.286 -524 2134 2427"
    underline-thickness="0"
    underline-position="0"
    unicode-range="U+0009-F6C3"
  />
<missing-glyph horiz-adv-x="352" 
 />
    <glyph glyph-name=".notdef" horiz-adv-x="352" 
 />
    <glyph glyph-name=".notdef" horiz-adv-x="352" 
 />
    <glyph glyph-name=".null" horiz-adv-x="0" 
 />
    <glyph glyph-name="uni000D" unicode="&#xd;" horiz-adv-x="454" 
 />
    <glyph glyph-name="space" unicode=" " horiz-adv-x="352" 
 />
    <glyph glyph-name="uni0009" unicode="&#x9;" horiz-adv-x="352" 
 />
    <glyph glyph-name="uni00A0" unicode="&#xa0;" horiz-adv-x="352" 
 />
    <glyph glyph-name="exclam" unicode="!" horiz-adv-x="552" 
d="M80 100q4 47 37.5 79t75.5 32q44 0 76 -32.5t28 -78.5q-4 -48 -38.5 -80t-78.5 -32q-43 0 -73.5 32t-26.5 80zM193 422l20 477l78 555h174l-78 -555l-113 -477h-81z" />
    <glyph glyph-name="quotedbl" unicode="&#x22;" horiz-adv-x="774" 
d="M184 1012l64 442h147l-63 -442h-148zM520 1012l64 442h147l-63 -442h-148z" />
    <glyph glyph-name="numbersign" unicode="#" horiz-adv-x="1548" 
d="M57 412l21 145h307l96 344h-354l20 146h375l115 407h160l-115 -407h354l115 407h158l-115 -407h297l-21 -146h-317l-96 -344h364l-20 -145h-385l-117 -412h-158l117 412h-354l-117 -412h-160l117 412h-287zM545 557h354l96 344h-354z" />
    <glyph glyph-name="dollar" unicode="$" horiz-adv-x="1251" 
d="M33 244l137 88q120 -187 375 -187q143 0 246 69t118 185q10 72 -12.5 126t-71.5 85.5t-110.5 48t-136.5 19.5q-83 4 -156 33t-127 78.5t-80 122t-14 157.5q24 171 154.5 277t320.5 124l33 232h155l-33 -232q234 -26 338 -178l-133 -108q-36 58 -115.5 95.5t-193.5 37.5
q-151 0 -245 -61.5t-109 -182.5q-7 -53 6.5 -93.5t41.5 -65.5t72 -41.5t89.5 -24t103.5 -10.5q61 -3 119.5 -19t114.5 -50t95 -81.5t57.5 -120.5t6.5 -161q-27 -187 -146.5 -292t-309.5 -126l-37 -260h-156l37 256q-141 14 -259.5 88t-174.5 172z" />
    <glyph glyph-name="percent" unicode="%" horiz-adv-x="1636" 
d="M113 0l1228 1454h179l-1229 -1454h-178zM137 1126q0 150 88.5 243t216.5 93q132 0 220 -91t88 -243q0 -162 -86.5 -252t-221.5 -90q-129 0 -217 91.5t-88 248.5zM268 1124q0 -99 49.5 -156t126.5 -57q76 0 126.5 55t50.5 158q0 96 -50 153.5t-127 57.5t-126.5 -57.5
t-49.5 -153.5zM895 313q0 150 88.5 243t216.5 93q132 0 219.5 -91t87.5 -243q0 -162 -86 -252t-221 -90q-129 0 -217 91.5t-88 248.5zM1026 311q0 -99 49.5 -156t126.5 -57q76 0 126 55t50 158q0 96 -49.5 153.5t-126.5 57.5t-126.5 -57.5t-49.5 -153.5z" />
    <glyph glyph-name="ampersand" unicode="&#x26;" horiz-adv-x="1376" 
d="M33 412q19 131 111 240.5t245 181.5q-63 99 -84 163q-25 77 -16 146q22 140 127 235t270 95q155 0 233.5 -98.5t57.5 -244.5q-12 -81 -66.5 -152.5t-126.5 -119.5t-163 -84q-1 0 67 -88l136 -176l69 -88l205 196h196l-315 -303l221 -317h-190l-150 203
q-54 -51 -94.5 -82.5t-96 -64t-119 -48t-138.5 -16.5q-118 -1 -210.5 54t-138.5 152.5t-30 215.5zM193 420q-18 -121 47.5 -201t191.5 -80q90 0 178 49.5t162 126.5q1 0 -74.5 99t-151.5 198t-77 99q-124 -44 -193.5 -121t-82.5 -170zM441.5 1073q4.5 -32 19 -62.5t24 -48
t31 -47t25.5 -34.5q122 44 197 108t85 139q12 90 -30.5 147t-133.5 56q-78 -2 -142 -53.5t-75 -138.5q-5 -34 -0.5 -66z" />
    <glyph glyph-name="quotesingle" unicode="'" horiz-adv-x="438" 
d="M184 1012l64 442h147l-63 -442h-148z" />
    <glyph glyph-name="parenleft" unicode="(" horiz-adv-x="604" 
d="M82 657q39 277 131.5 479.5t257.5 409.5l113 -106q-146 -182 -226.5 -358t-115.5 -425q-34 -250 3 -452.5t130 -327.5l-121 -113q-247 344 -172 893z" />
    <glyph glyph-name="parenright" unicode=")" horiz-adv-x="604" 
d="M-14 -109q146 182 226.5 358t115.5 425q34 250 -3 452.5t-130 327.5l120 113q247 -344 172 -893q-39 -277 -131.5 -479.5t-257.5 -409.5z" />
    <glyph glyph-name="asterisk" unicode="*" horiz-adv-x="839" 
d="M176 1190l47 117l203 -60l33 240h127l-33 -240l227 64l15 -113l-222 -68l109 -200l-107 -68l-110 195l-168 -193l-86 68l164 198z" />
    <glyph glyph-name="plus" unicode="+" horiz-adv-x="1247" 
d="M166 596l20 154h359l51 362h156l-52 -362h365l-21 -154h-364l-51 -367h-156l51 367h-358z" />
    <glyph glyph-name="comma" unicode="," horiz-adv-x="489" 
d="M-6 -199l125 377h178l-162 -377h-141z" />
    <glyph glyph-name="hyphen" unicode="-" horiz-adv-x="894" 
d="M102 512l23 152h629l-23 -152h-629z" />
    <glyph glyph-name="period" unicode="." horiz-adv-x="452" 
d="M25 100q4 49 38.5 81t79.5 32q46 0 79.5 -32.5t29.5 -80.5q-4 -50 -39.5 -82t-81.5 -32t-78 32.5t-28 81.5z" />
    <glyph glyph-name="slash" unicode="/" horiz-adv-x="778" 
d="M-35 0l678 1454h170l-686 -1454h-162z" />
    <glyph glyph-name="zero" unicode="0" horiz-adv-x="1277" 
d="M95 392q-20 138 5 325q54 383 221.5 570.5t419.5 187.5q111 0 200.5 -45.5t153 -138.5t84 -235.5t-4.5 -336.5q-51 -367 -218.5 -552t-423.5 -185q-115 0 -205 45t-151 136t-81 229zM256 717q-80 -584 299 -584q180 0 299 143.5t160 440.5q44 310 -35 457t-256 147
q-180 0 -301.5 -146t-165.5 -458z" />
    <glyph glyph-name="one" unicode="1" horiz-adv-x="731" 
d="M143 1329l359 125h131l-205 -1454h-158l179 1272l-295 -49z" />
    <glyph glyph-name="two" unicode="2" horiz-adv-x="1163" 
d="M20 0l21 150l569 538q17 16 54.5 51t50.5 47.5t41.5 40.5t39 40.5t30 36.5t27.5 39.5t19.5 38t17 44t9.5 45.5q15 109 -52 182t-196 72q-125 -1 -205.5 -59t-117.5 -156h-154q45 159 177.5 263t318.5 104q193 0 302 -114.5t87 -285.5q-7 -51 -19 -94.5t-37 -86.5
t-44 -71.5t-63 -74t-67.5 -68.5t-83.5 -78l-487 -452h707l-21 -152h-924z" />
    <glyph glyph-name="three" unicode="3" horiz-adv-x="1171" 
d="M41 369h156q10 -98 96.5 -163t206.5 -65q134 0 233 76.5t117 204.5q20 134 -83.5 197.5t-320.5 68.5l19 131q184 2 305.5 70t138.5 192q15 116 -48 181t-204 65q-115 0 -203 -60.5t-137 -156.5h-151q50 169 193 267t321 98q118 0 209.5 -43.5t141 -128.5t38.5 -197
q-7 -76 -37.5 -138.5t-74.5 -102t-86.5 -63t-84.5 -34.5q33 -9 65 -24t67.5 -44t59.5 -65.5t35.5 -92.5t2.5 -122q-28 -200 -174.5 -316.5t-366.5 -113.5q-55 1 -112 14.5t-114 44t-101.5 73.5t-74 107t-32.5 140z" />
    <glyph glyph-name="four" unicode="4" horiz-adv-x="1187" 
d="M27 332l18 137l750 983h211l-138 -973h166l-22 -151h-166l-45 -328h-162l47 332h-659zM213 483h489l109 774z" />
    <glyph glyph-name="five" unicode="5" horiz-adv-x="1175" 
d="M35 369h153q20 -118 94.5 -179t184.5 -61q159 0 262 89.5t125 242.5q22 155 -52 242.5t-220 87.5q-111 0 -190 -44.5t-113 -109.5l-154 22l143 795h799l-20 -147h-662l-82 -465l7 6q8 5 15 10t19.5 13t27 15t33 15t40.5 14.5t47 11.5t55.5 8t62.5 3q91 0 170 -32
t136 -91.5t83.5 -151t10.5 -202.5q-31 -220 -181 -352t-376 -132q-72 0 -142.5 25.5t-130 72.5t-99.5 123.5t-46 170.5z" />
    <glyph glyph-name="six" unicode="6" horiz-adv-x="1222" 
d="M68 475q28 205 274 510l391 488h187l-482 -594q24 26 85 50.5t149 24.5q86 0 166 -33.5t141 -93t91 -151t15 -197.5q-19 -134 -94.5 -243.5t-203.5 -175.5t-285 -66q-96 0 -182 36t-147 98.5t-90.5 153.5t-14.5 193zM227 475q-21 -148 66 -238t231 -90q165 0 271.5 90
t128.5 240q21 149 -65 240.5t-234 91.5q-154 0 -266 -93.5t-132 -240.5z" />
    <glyph glyph-name="seven" unicode="7" horiz-adv-x="1132" 
d="M119 0l805 1303h-791l23 149h974l-18 -131l-809 -1321h-184z" />
    <glyph glyph-name="eight" unicode="8" horiz-adv-x="1200" 
d="M55 389q9 66 35 123.5t56 95t68.5 70t65.5 49t54 31.5l8 4l-14 14l-19 20l-19 22l-22 27l-20 31l-18 35l-14 39l-10 45l-3 49l4 54q23 160 163 267.5t330 107.5q186 0 299 -110.5t91 -262.5q-9 -65 -40.5 -126t-72.5 -103.5t-80 -70.5t-70 -38q92 -42 139 -87
q110 -107 85 -280q-27 -184 -173.5 -297.5t-379.5 -113.5q-220 0 -344 112.5t-99 292.5zM219 393q-14 -115 67 -188.5t232 -73.5q148 0 251 74.5t122 195.5q5 42 -3 77.5t-23.5 61.5t-45 48.5t-56 37t-68 28.5t-70 22t-72.5 18q-158 -43 -240 -124.5t-94 -176.5zM365 1100
q-12 -98 52 -175t189 -100q136 19 223.5 98t100.5 175q14 99 -54 164t-196 65q-123 0 -212 -64.5t-103 -162.5z" />
    <glyph glyph-name="nine" unicode="9" horiz-adv-x="1210" 
d="M137 983q30 207 196.5 350.5t387.5 143.5q94 0 177.5 -35.5t143.5 -98t89 -156t14 -200.5q-10 -72 -40 -146t-78 -146.5t-87.5 -124t-97.5 -119.5l-381 -451h-187l465 541q-22 -18 -67.5 -31.5t-104.5 -13.5q-95 0 -179.5 36t-145.5 98.5t-90 155t-15 197.5zM299 985
q-21 -152 64.5 -249t232.5 -97t255.5 94t131.5 254q20 147 -63 243.5t-226 96.5q-152 0 -262.5 -95.5t-132.5 -246.5z" />
    <glyph glyph-name="colon" unicode=":" horiz-adv-x="536" 
d="M70 137q4 49 40.5 82t82.5 33q44 0 77 -33.5t29 -81.5t-40.5 -81t-80.5 -33q-47 0 -79.5 33t-28.5 81zM180 920q4 50 39.5 82t81.5 32q45 0 78 -32.5t29 -81.5q-4 -47 -41 -81t-80 -34q-45 0 -78 34.5t-29 80.5z" />
    <glyph glyph-name="semicolon" unicode=";" horiz-adv-x="452" 
d="M-37 -176l125 377h178l-162 -377h-141zM145 924q4 49 39 80.5t80 31.5q46 0 79.5 -32t29.5 -80q-4 -50 -40 -82.5t-81 -32.5q-46 0 -78.5 33t-28.5 82z" />
    <glyph glyph-name="less" unicode="&#x3c;" horiz-adv-x="1091" 
d="M57 498l19 127l903 434l-25 -168l-698 -332l606 -321l-24 -175z" />
    <glyph glyph-name="equal" unicode="=" horiz-adv-x="1488" 
d="M203 389l20 154h987l-20 -154h-987zM268 864l23 152h987l-23 -152h-987z" />
    <glyph glyph-name="greater" unicode="&#x3e;" horiz-adv-x="1091" 
d="M90 47l25 168l698 332l-606 321l24 174l781 -434l-19 -127z" />
    <glyph glyph-name="question" unicode="?" horiz-adv-x="1075" 
d="M137 1083q33 162 179 278t337 116q127 0 217 -53.5t128 -137t26 -180.5q-4 -38 -14.5 -72t-21 -59.5t-32 -52.5t-36 -43t-44.5 -40.5t-45.5 -35.5t-52 -36.5t-51.5 -35.5q-99 -71 -147 -142.5t-52 -176.5h-153q3 80 28 149.5t67.5 123.5t84.5 92t96 75q116 77 146 106
q57 53 70 136q0 4 1 8q14 97 -45.5 161t-193.5 64q-110 0 -207.5 -69t-130.5 -175h-154zM303 96q6 49 40 81t79 32q44 0 74 -32.5t24 -80.5q-6 -47 -38.5 -78.5t-75.5 -31.5q-46 0 -77.5 32t-25.5 78z" />
    <glyph glyph-name="at" unicode="@" horiz-adv-x="1951" 
d="M164 602q24 171 108 324.5t206 264.5t280 176t323 65q158 0 294 -61t228 -166t134 -254.5t18 -317.5q-35 -258 -151.5 -394.5t-264.5 -136.5q-32 0 -67.5 12t-70.5 36.5t-60 68.5t-31 100q-13 -40 -75 -76.5t-134 -37.5q-155 -3 -242 112t-61 287q26 169 141.5 277.5
t264.5 105.5q46 -1 83.5 -17t58.5 -40.5t32 -49.5t10 -46l18 112l113 -6l-78 -463q-23 -120 9 -185t106 -63q39 1 75 20.5t72 63t65 125t44 193.5q27 190 -40.5 344.5t-202.5 238t-306 80.5q-138 -2 -268.5 -57.5t-230.5 -148t-168.5 -219t-88.5 -265.5q-18 -134 18.5 -257
t116 -215t203 -147t270.5 -55q23 0 51.5 3t45.5 7l18 3q1 -8 2 -21.5t3 -41.5t3 -47t0 -19q-26 -21 -141 -21q-106 0 -207.5 27t-188 76t-157 122t-116 161t-63.5 197t-1 226zM735 596q-18 -120 32.5 -192t145.5 -72q80 5 135.5 69t75.5 189q22 125 -14 197t-125 73
q-95 1 -163 -73t-87 -191z" />
    <glyph glyph-name="A" unicode="A" horiz-adv-x="1363" 
d="M-51 0l756 1454h163l342 -1454h-163l-89 367h-651l-190 -367h-168zM385 516h537l-170 709z" />
    <glyph glyph-name="B" unicode="B" horiz-adv-x="1271" 
d="M61 0l205 1454h461q179 0 291 -110q92 -90 92 -220q0 -28 -4 -57q-9 -65 -32 -118t-54 -86t-60 -53t-59 -32q99 -20 171 -120q56 -78 57 -185q0 -31 -5 -65q-10 -66 -33.5 -124.5t-66.5 -111t-103 -90.5t-146 -60t-191 -22h-523zM246 147h352q163 0 255.5 70t111.5 201
q3 21 3 41q0 95 -68 151q-82 68 -228 68h-350zM340 821h326q121 0 193.5 67.5t86.5 176.5q2 18 2 35q0 43 -14 81q-20 53 -80.5 89.5t-153.5 36.5h-290z" />
    <glyph glyph-name="C" unicode="C" horiz-adv-x="1421" 
d="M87 479q-4 43 -4 91q0 69 9 147q23 162 78.5 292.5t128.5 216t165.5 143t187 82t194.5 24.5q135 0 251 -57t189 -167.5t74 -253.5h-160q-15 150 -118.5 237t-256.5 87q-71 0 -139 -17.5t-139.5 -61.5t-128.5 -111t-102 -173.5t-64 -240.5q-10 -69 -10 -128q0 -51 8 -97
q16 -98 53.5 -166.5t96 -111.5t122.5 -63t135 -20q167 0 296.5 95.5t176.5 244.5h160q-65 -228 -237 -359.5t-416 -131.5q-74 0 -145.5 18t-140.5 56t-122.5 96.5t-92 140.5t-49.5 188z" />
    <glyph glyph-name="D" unicode="D" horiz-adv-x="1382" 
d="M59 0l205 1454h461q103 0 195.5 -28t170.5 -85.5t129 -144t72 -203.5q10 -58 10 -124.5t-10 -139.5q-27 -189 -93.5 -330t-167.5 -228t-228.5 -129t-282.5 -42h-461zM238 152h303q246 0 400 142.5t194 434.5q9 65 9 123q0 70 -13 132q-24 112 -85 180.5t-148 103.5
t-196 35h-303z" />
    <glyph glyph-name="E" unicode="E" horiz-adv-x="1220" 
d="M66 0l204 1454h912l-21 -149h-749l-70 -492h596l-23 -151h-596l-71 -512h768l-21 -150h-929z" />
    <glyph glyph-name="F" unicode="F" horiz-adv-x="1222" 
d="M66 0l204 1454h940l-22 -151h-782l-68 -494h643l-23 -150h-643l-92 -659h-157z" />
    <glyph glyph-name="G" unicode="G" horiz-adv-x="1421" 
d="M83 510q-2 30 -2 62q0 76 13 163q21 152 75 277.5t126 210t161.5 142.5t180.5 84t184 26q142 0 261.5 -55.5t192 -160t71.5 -235.5h-158q0 117 -111 208t-276 91q-67 0 -133.5 -19.5t-133.5 -64.5t-121.5 -111.5t-96.5 -168t-60 -226.5q-11 -90 -11 -165q0 -21 1 -41
q4 -90 30.5 -157t63 -113t86.5 -74.5t101 -41t108 -12.5q98 0 180 26.5t151.5 82t116 150.5t64.5 224h-377l21 148h536l-18 -135q-25 -174 -89.5 -302.5t-159 -202t-206.5 -108.5t-244 -35q-60 0 -117.5 11.5t-116.5 37.5t-107.5 67t-90 100t-64.5 138t-31 179z" />
    <glyph glyph-name="H" unicode="H" horiz-adv-x="1374" 
d="M72 0l204 1454h160l-92 -651h707l92 651h160l-205 -1454h-160l92 651h-706l-93 -651h-159z" />
    <glyph glyph-name="I" unicode="I" horiz-adv-x="497" 
d="M66 0l204 1454h162l-205 -1454h-161z" />
    <glyph glyph-name="J" unicode="J" horiz-adv-x="980" 
d="M-66 129l115 115q53 -50 115.5 -79.5t120.5 -29.5q52 0 91.5 8t80 32t69.5 65t53 109.5t37 162.5l134 942h157l-133 -940q-21 -155 -63 -259.5t-108 -164.5t-147.5 -85t-193.5 -25q-93 0 -183 43.5t-145 105.5z" />
    <glyph glyph-name="K" unicode="K" horiz-adv-x="1310" 
d="M66 0l204 1454h162l-108 -766l804 766h211l-669 -645l487 -809h-194l-414 686l-258 -237l-64 -449h-161z" />
    <glyph glyph-name="L" unicode="L" horiz-adv-x="1130" 
d="M66 0l204 1454h162l-184 -1302h717l-21 -152h-878z" />
    <glyph glyph-name="M" unicode="M" horiz-adv-x="1681" 
d="M66 0l204 1454h187l323 -1089l633 1089h203l-205 -1454h-162l162 1151l-602 -1020h-131l-293 1012l-160 -1143h-159z" />
    <glyph glyph-name="N" unicode="N" horiz-adv-x="1433" 
d="M63 0l205 1454h178l590 -1200l170 1200h162l-205 -1454h-188l-582 1194l-168 -1194h-162z" />
    <glyph glyph-name="O" unicode="O" horiz-adv-x="1421" 
d="M93 452q-10 58 -10 124q0 75 13 161q25 184 94 327t166.5 231t213.5 133t245 45q94 0 178.5 -28.5t156 -86.5t118 -146t64.5 -206q8 -55 8 -117q0 -72 -11 -152q-27 -190 -94 -336t-163.5 -236t-214 -135.5t-251.5 -45.5q-87 0 -168 26.5t-154.5 83.5t-121.5 145.5
t-69 212.5zM248 507q14 -100 47 -170.5t87 -115t115 -65.5t130 -21q96 0 183 35.5t161.5 106t128 188.5t74.5 272q10 72 10 136q0 69 -12 128q-22 115 -78 183.5t-132 102.5t-167 34q-94 0 -179.5 -34t-160 -102.5t-127.5 -183.5t-74 -264q-12 -78 -12 -145q1 -45 6 -85z
" />
    <glyph glyph-name="P" unicode="P" horiz-adv-x="1247" 
d="M63 0l205 1454h484q222 0 340 -124q97 -101 97 -244q0 -33 -5 -68q-27 -187 -169.5 -305.5t-371.5 -118.5h-336l-84 -594h-160zM328 745h334q145 0 244.5 72.5t117.5 200.5q3 24 3 46q1 100 -67 162q-82 76 -229 77h-325z" />
    <glyph glyph-name="Q" unicode="Q" horiz-adv-x="1421" 
d="M93 452q-10 58 -10 124q0 75 13 161q25 184 94 327t166.5 231t213.5 133t245 45q94 0 178.5 -28.5t156 -86.5t118 -146t64.5 -206q8 -55 8 -117q0 -71 -11 -152q-53 -375 -256 -571l184 -234l-127 -90l-182 230q-152 -88 -342 -88q-87 0 -168 26.5t-154.5 83.5
t-121.5 145.5t-69 212.5zM248 507q13 -100 46.5 -170.5t87.5 -115t115 -65.5t130 -21q96 0 183 35.5t161.5 106t128 188.5t74.5 272q10 72 10 136q0 69 -12 128q-22 115 -78 183.5t-132 102.5t-167 34q-94 0 -179.5 -34t-160 -102.5t-127.5 -183.5t-74 -264
q-12 -78 -12 -145q0 -45 6 -85z" />
    <glyph glyph-name="R" unicode="R" horiz-adv-x="1284" 
d="M63 0l205 1454h480q221 0 344 -120q102 -100 103 -243q0 -29 -5 -59q-22 -157 -115.5 -257.5t-224.5 -133.5l211 -641h-168l-199 608h-385l-86 -608h-160zM330 758h332q159 0 253 71.5t113 202.5q4 25 4 48q0 94 -64 152q-79 72 -231 71h-331z" />
    <glyph glyph-name="S" unicode="S" horiz-adv-x="1181" 
d="M14 244l131 86q58 -91 154 -143t215 -52q154 0 249 71t114 202q3 24 3 45q0 32 -7 59q-12 45 -38 73.5t-72.5 49t-95.5 31t-118 18.5q-81 10 -149 38t-119.5 74t-75.5 116q-16 47 -16 101q0 27 4 56q26 187 166.5 296.5t359.5 109.5q254 0 403 -183l-129 -100
q-39 53 -123.5 95t-187.5 42q-133 0 -224 -67.5t-108 -188.5q-2 -16 -2 -31q0 -40 15 -72q21 -44 67 -71t102 -42t127 -21q85 -8 155.5 -35.5t127 -76.5t82.5 -130q16 -51 15 -111q0 -35 -5 -73q-30 -213 -170 -320.5t-366 -107.5q-156 0 -288 76t-196 186z" />
    <glyph glyph-name="T" unicode="T" horiz-adv-x="1189" 
d="M168 1303l22 151h1014l-22 -151h-426l-183 -1303h-163l182 1303h-424z" />
    <glyph glyph-name="U" unicode="U" horiz-adv-x="1341" 
d="M104 594l121 860h162l-121 -862q-8 -58 -8 -108q0 -148 70 -236q94 -118 260 -119q186 0 302.5 116t149.5 347l121 862h160l-121 -860q-43 -297 -208 -457t-427 -160q-113 0 -206 40t-158 115.5t-91 194.5q-15 66 -15 142q0 60 9 125z" />
    <glyph glyph-name="V" unicode="V" horiz-adv-x="1294" 
d="M162 1454h164l254 -1206l583 1206h174l-710 -1454h-158z" />
    <glyph glyph-name="W" unicode="W" horiz-adv-x="1880" 
d="M162 1454h166l159 -1184l488 1084h117l180 -1094l481 1194h170l-594 -1454h-178l-164 1018l-459 -1018h-166z" />
    <glyph glyph-name="X" unicode="X" horiz-adv-x="1280" 
d="M-33 0l570 723l-353 731h178l289 -602l473 602h189l-584 -739l338 -715h-176l-277 582l-460 -582h-187z" />
    <glyph glyph-name="Y" unicode="Y" horiz-adv-x="1255" 
d="M164 1454h174l289 -696l483 696h186l-612 -879l-80 -575h-158l80 575z" />
    <glyph glyph-name="Z" unicode="Z" horiz-adv-x="1155" 
d="M-25 0l21 150l946 1153h-760l23 151h971l-19 -133l-964 -1169h802l-20 -152h-1000z" />
    <glyph glyph-name="bracketleft" unicode="[" horiz-adv-x="706" 
d="M41 -119l233 1657h451l-23 -152h-290l-191 -1353h291l-20 -152h-451z" />
    <glyph glyph-name="backslash" unicode="\" horiz-adv-x="784" 
d="M174 1454h160l276 -1454h-151z" />
    <glyph glyph-name="bracketright" unicode="]" horiz-adv-x="706" 
d="M-29 -121l23 152h291l190 1353h-291l21 152h450l-233 -1657h-451z" />
    <glyph glyph-name="asciicircum" unicode="^" horiz-adv-x="905" 
d="M143 1008l357 446h121l227 -446h-172l-135 282l-236 -282h-162z" />
    <glyph glyph-name="uni005F_slash" horiz-adv-x="1079" 
d="M-125 -143l21 143h1081l-21 -143h-1081z" />
    <glyph glyph-name="grave" unicode="`" horiz-adv-x="370" 
d="M96 1417l176 125l162 -358h-145z" />
    <glyph glyph-name="a" unicode="a" horiz-adv-x="1222" 
d="M78 541q19 135 74 241.5t131.5 171t163.5 98t178 33.5q109 0 199.5 -57.5t109.5 -134.5l45 172h147l-149 -1065h-137l4 172q-46 -84 -150 -137t-223 -53q-58 0 -118 20.5t-116.5 66t-97.5 109.5t-59 158q-9 51 -9 106q0 48 7 99zM240 376q14 -70 40.5 -117t68 -76.5
t82.5 -42.5t83 -13q60 0 119 25t111.5 73.5t91 129.5t53.5 184q7 50 7 95q0 124 -55 200q-75 104 -212 104q-62 0 -121.5 -21.5t-115.5 -66.5t-96.5 -125t-55.5 -186q-7 -47 -7 -89q0 -40 7 -74z" />
    <glyph glyph-name="b" unicode="b" horiz-adv-x="1236" 
d="M53 0l205 1454h164l-80 -561q55 84 161 138t226 54q63 0 123 -20.5t113.5 -62.5t89.5 -106q35 -66 51 -154q8 -44 8 -93q0 -51 -8 -108q-15 -112 -53 -205.5t-89 -158t-114.5 -109t-131 -65.5t-136.5 -21q-118 0 -217.5 56.5t-126.5 133.5l-25 -172h-160zM289 539
q-7 -46 -7 -88q0 -51 10 -97q18 -82 62 -133t102 -77.5t126 -26.5q59 0 115.5 25.5t107 75.5t87.5 133t52 188q7 53 7 99q-1 128 -57 204q-78 102 -218 102q-138 0 -249 -108t-138 -297z" />
    <glyph glyph-name="c" unicode="c" horiz-adv-x="1148" 
d="M74 522q18 135 76 244.5t138 177.5t172.5 104.5t186.5 36.5q75 0 143 -22t124.5 -64.5t92 -111.5t40.5 -156h-162q-35 207 -258 207q-47 0 -95.5 -14t-98 -46.5t-90.5 -79.5t-71.5 -119.5t-42.5 -160.5q-7 -44 -7 -82q0 -37 6 -70q12 -66 40 -113t69 -77.5t84.5 -44.5
t88.5 -14q108 0 189.5 47.5t123.5 132.5h162q-57 -155 -185.5 -240.5t-310.5 -85.5q-65 0 -129 20.5t-122.5 65t-100.5 107.5t-60 156q-10 51 -10 106q0 46 7 96z" />
    <glyph glyph-name="d" unicode="d" horiz-adv-x="1234" 
d="M78 541q19 135 74 241.5t131.5 171t163.5 98t178 33.5q109 0 199.5 -57.5t109.5 -134.5l80 561h168l-205 -1454h-137l4 172q-46 -84 -150 -137t-223 -53q-58 0 -118 20.5t-116.5 66t-97.5 109.5t-59 158q-9 51 -9 106q0 48 7 99zM240 376q14 -70 40.5 -117t68 -76.5
t82.5 -42.5t83 -13q60 0 119 25t111.5 73.5t91 129.5t53.5 184q7 50 7 95q0 124 -55 200q-75 104 -212 104q-62 0 -121.5 -21.5t-115.5 -66.5t-96.5 -125t-55.5 -186q-7 -47 -7 -89q0 -40 7 -74z" />
    <glyph glyph-name="e" unicode="e" 
d="M74 530q37 259 196 407t367 148q88 0 166 -33t136.5 -94.5t84.5 -159.5q16 -60 17 -128q0 -44 -7 -90l-14 -103h-793q-4 -31 -4 -59q-1 -54 13 -100q20 -70 64 -112.5t101.5 -64.5t122.5 -22q94 0 186.5 39t155.5 92l80 -105q-189 -170 -448 -170q-70 0 -136.5 21
t-125.5 66t-100.5 109t-59.5 157q-9 50 -9 105q0 47 7 97zM246 612h637q5 34 5 65q0 109 -60 177q-78 88 -210 88q-131 0 -236.5 -92t-135.5 -238z" />
    <glyph glyph-name="f" unicode="f" horiz-adv-x="774" 
d="M121 920l20 145h158l10 70q25 169 129.5 266.5t274.5 97.5h75l-20 -147h-27q-122 0 -182 -41q-67 -46 -86 -181l-10 -65h258l-21 -145h-258l-129 -920h-163l129 920h-158z" />
    <glyph glyph-name="g" unicode="g" horiz-adv-x="1206" 
d="M2 -285l129 82q101 -119 281 -119q330 0 379 322l22 147q-101 -165 -350 -165q-87 0 -162.5 37t-129 105t-76.5 174q-13 59 -13 125q0 51 8 107q19 133 71 241t125 176.5t160.5 105.5t180.5 37q109 0 190 -47t103 -121l45 143h137l-150 -1063q-18 -130 -70.5 -225
t-129.5 -148t-165.5 -77.5t-193.5 -24.5q-113 0 -222.5 50t-168.5 138zM250 528q-8 -52 -8 -97q0 -122 56 -198q75 -104 210 -104q136 0 234 107t124 294q10 68 10 124q0 120 -45 188q-66 98 -208 98q-64 0 -123.5 -25.5t-110.5 -74.5t-87.5 -129.5t-51.5 -182.5z" />
    <glyph glyph-name="h" unicode="h" horiz-adv-x="1140" 
d="M53 0l205 1454h160l-76 -532q39 64 128.5 113.5t193.5 49.5q86 0 154.5 -30t114.5 -89q45 -58 63 -151q9 -47 9 -101q0 -52 -8 -110l-84 -604h-161l84 604q8 57 8 104q0 100 -36 152q-53 78 -183 78q-121 0 -214 -92.5t-114 -241.5l-84 -604h-160z" />
    <glyph glyph-name="i" unicode="i" horiz-adv-x="489" 
d="M72 0l149 1065h158l-150 -1065h-157zM231 1376q0 43 32 72t73 29q42 0 74 -29t32 -72q0 -44 -31.5 -73t-74.5 -29q-41 0 -73 29t-32 73z" />
    <glyph glyph-name="j" unicode="j" horiz-adv-x="536" 
d="M-168 -412l21 150q14 -1 28 -1q20 0 38 3q30 4 61 20.5t55 45t42.5 77.5t28.5 115l150 1067h160l-150 -1069q-17 -122 -59 -207.5t-102.5 -129t-126.5 -60.5q-50 -13 -106 -13q-19 0 -40 2zM262 1368q0 44 31 72t76 28q42 0 72 -28.5t30 -71.5q0 -45 -30 -73.5t-72 -28.5
q-45 0 -76 28.5t-31 73.5z" />
    <glyph glyph-name="k" unicode="k" horiz-adv-x="1077" 
d="M63 0l205 1454h160l-121 -862l529 473h213l-494 -442l387 -623h-186l-322 522l-155 -133l-56 -389h-160z" />
    <glyph glyph-name="l" unicode="l" horiz-adv-x="491" 
d="M63 0l205 1454h160l-205 -1454h-160z" />
    <glyph glyph-name="m" unicode="m" horiz-adv-x="1736" 
d="M63 0l150 1065h119l4 -145q44 72 123.5 123t191.5 51q97 0 174.5 -54.5t89.5 -134.5q57 82 152 135.5t223 53.5q162 0 246 -122q63 -91 62 -224q0 -44 -7 -93l-92 -655h-158l91 643q7 52 7 95q-1 85 -29 133q-44 73 -159 73q-118 0 -199.5 -80t-101.5 -221l-90 -643h-158
l91 641q10 56 10 101q0 202 -189 202q-122 0 -202.5 -79.5t-100.5 -223.5l-90 -641h-158z" />
    <glyph glyph-name="n" unicode="n" horiz-adv-x="1155" 
d="M63 0l150 1065h121l6 -145q46 78 137 127t207 49q78 0 143.5 -30.5t111.5 -87.5q46 -56 65 -144q11 -49 11 -104q0 -43 -7 -91l-90 -639h-160l90 637q6 43 6 80q0 231 -225 231q-121 0 -208.5 -84t-107.5 -227l-90 -637h-160z" />
    <glyph glyph-name="o" unicode="o" horiz-adv-x="1191" 
d="M76 532q15 114 54.5 207.5t94 156.5t123.5 106.5t142.5 63t152.5 19.5q69 0 135 -20t125 -64.5t100 -108t58 -156.5q9 -49 9 -104q0 -48 -7 -100q-19 -136 -74 -243t-133 -173t-171.5 -100t-195.5 -34q-67 0 -131.5 20.5t-122.5 65t-99 107.5t-58 155q-9 49 -9 103
q0 48 7 99zM231 532q-6 -43 -6 -82q1 -52 11 -96q18 -80 60.5 -127.5t97.5 -72.5t116 -25q67 0 130 23.5t118 70.5t94.5 126.5t54.5 182.5q7 47 7 89q0 51 -10 97q-18 82 -61.5 128.5t-98.5 70t-119 23.5q-66 0 -127.5 -23t-116.5 -69.5t-95 -128t-55 -187.5z" />
    <glyph glyph-name="p" unicode="p" horiz-adv-x="1222" 
d="M2 -436l211 1501h129l4 -137q73 72 170.5 115.5t202.5 43.5q59 0 116.5 -19.5t111.5 -63.5t92 -106.5t54 -156.5q8 -49 8 -102q0 -50 -7 -104q-20 -142 -72.5 -251t-126.5 -173.5t-159 -96.5t-179 -32q-99 0 -188.5 51t-122.5 131l-84 -600h-160zM299 535q-7 -49 -7 -93
q0 -49 8 -91q17 -81 56 -128.5t90.5 -71.5t110.5 -24q67 0 126.5 23t110.5 70.5t87 127.5t51 187q7 52 7 97q0 49 -8 91q-16 81 -56 126.5t-91 68t-112 22.5q-42 0 -86 -12.5t-90.5 -42.5t-85 -75t-69 -116t-42.5 -159z" />
    <glyph glyph-name="q" unicode="q" horiz-adv-x="1222" 
d="M76 326q-8 46 -8 98t8 111q19 139 76 249t133.5 174t158.5 96.5t162 32.5q103 0 197.5 -50t122.5 -130l45 158h133l-211 -1501h-160l82 579q-39 -66 -143 -113.5t-215 -47.5q-61 0 -120.5 20t-114.5 61.5t-92 107t-54 155.5zM238 535q-7 -52 -7 -98q0 -48 7 -89
q16 -81 55 -127.5t90 -70t111 -23.5q59 0 117.5 24t111.5 71.5t92.5 128.5t54.5 184q8 50 8 93q0 35 -6 66q-11 68 -36 115t-63.5 76t-78.5 42t-82 13t-86 -13t-91 -44t-86 -76.5t-69 -116t-42 -155.5z" />
    <glyph glyph-name="r" unicode="r" horiz-adv-x="774" 
d="M63 0l150 1065h121l8 -135q48 68 128.5 111.5t174.5 43.5q27 0 72.5 -3t64.5 -3l-20 -151q-102 8 -146 8q-121 0 -202.5 -81.5t-104.5 -238.5l-86 -616h-160z" />
    <glyph glyph-name="s" unicode="s" horiz-adv-x="1011" 
d="M16 133l115 105q145 -111 293 -111q143 0 207.5 43t77.5 129q2 14 2 27q0 66 -53 96q-63 36 -248 55q-130 13 -212 93q-67 65 -67 159q0 22 4 45q19 133 138.5 222t295.5 89q109 0 202 -37.5t144 -89.5l-116 -110q-121 96 -250 96q-111 0 -178 -42.5t-78 -115.5
q-5 -36 5 -62.5t29.5 -43t54.5 -28.5t70 -18t87 -11q183 -21 266 -100q67 -64 67 -170q0 -26 -4 -54q-23 -149 -141 -236.5t-324 -87.5q-102 0 -207.5 42t-179.5 116z" />
    <glyph glyph-name="t" unicode="t" horiz-adv-x="716" 
d="M80 922l20 143h166l92 297h121l-41 -297h252l-20 -143h-252l-82 -584q-3 -26 -3 -48q0 -151 152 -151q53 0 76 2l-20 -141q-36 -8 -105 -8q-53 0 -103 20t-91 58q-42 38 -62 104q-12 41 -12 89q0 28 4 59l84 600h-176z" />
    <glyph glyph-name="u" unicode="u" 
d="M94 430l88 635h162l-88 -635q-5 -38 -5 -72q1 -97 45 -155q60 -78 183 -78q119 0 205 81t107 224l88 635h159l-149 -1065h-121l-4 139q-41 -65 -129.5 -113.5t-200.5 -48.5q-84 0 -152.5 29t-116.5 84q-47 54 -67 142q-11 48 -11 103q0 45 7 95z" />
    <glyph glyph-name="v" unicode="v" horiz-adv-x="1064" 
d="M100 1065h168l189 -840l426 840h176l-551 -1065h-156z" />
    <glyph glyph-name="w" unicode="w" horiz-adv-x="1529" 
d="M100 1065h166l117 -801l369 801h125l151 -797l328 797h168l-453 -1065h-156l-149 735l-352 -735h-148z" />
    <glyph glyph-name="x" unicode="x" horiz-adv-x="1101" 
d="M-31 0l457 530l-293 535h180l226 -410l344 410h194l-456 -539l297 -526h-183l-221 401l-352 -401h-193z" />
    <glyph glyph-name="y" unicode="y" horiz-adv-x="1044" 
d="M100 1065h166l176 -856l432 856h164l-757 -1473h-158l215 406v4z" />
    <glyph glyph-name="z" unicode="z" horiz-adv-x="944" 
d="M-6 0l18 127l654 791h-533l21 147h727l-17 -117l-657 -798h559l-21 -150h-751z" />
    <glyph glyph-name="braceleft" unicode="{" horiz-adv-x="774" 
d="M63 643l21 145q214 0 242 197l39 277q19 140 105 223.5t232 89.5q8 2 48 2l-21 -150q-193 0 -215 -178l-39 -272q-32 -214 -164 -258q118 -38 92 -242l-41 -287q-6 -47 8.5 -83t42.5 -54.5t57.5 -27.5t59.5 -9l-20 -147h-51q-65 -1 -126.5 38t-97.5 112t-24 159l41 289
q13 97 -33 136.5t-156 39.5z" />
    <glyph glyph-name="bar" unicode="|" horiz-adv-x="573" 
d="M66 -272l272 1929h160l-273 -1929h-159z" />
    <glyph glyph-name="braceright" unicode="}" horiz-adv-x="784" 
d="M20 -131l21 149q193 0 215 179l39 272q32 214 164 258q-118 38 -92 242l41 286q6 47 -8.5 83t-42.5 55t-57.5 28t-59.5 9l20 147h51q65 1 126.5 -38t97.5 -112t24 -159l-41 -289q-13 -97 33 -136.5t156 -39.5l-21 -146q-107 0 -167 -47t-75 -149l-38 -277
q-19 -140 -105.5 -223.5t-232.5 -89.5q-8 -2 -48 -2z" />
    <glyph glyph-name="asciitilde" unicode="~" horiz-adv-x="1222" 
d="M115 672q27 78 120 147.5t214 69.5q64 0 122.5 -19t94 -42.5t76.5 -42.5t75 -19q49 0 95 27.5t69 66.5l129 -53q-37 -58 -77 -97.5t-108.5 -67.5t-154.5 -28q-51 0 -107 17t-95.5 37.5t-84 37.5t-75.5 17q-58 0 -94 -23.5t-74 -70.5z" />
    <glyph glyph-name="exclamdown" unicode="&#xa1;" horiz-adv-x="552" 
d="M63 -236l78 555l113 478h82l-21 -478l-77 -555h-175zM231 1118q4 49 38.5 81t78.5 32q43 0 74 -32.5t27 -80.5q-4 -47 -37.5 -78.5t-75.5 -31.5q-44 0 -76.5 32t-28.5 78z" />
    <glyph glyph-name="cent" unicode="&#xa2;" horiz-adv-x="1128" 
d="M74 522q17 127 69 231.5t125.5 172.5t159 108t174.5 49l43 215h172l-49 -227q116 -31 193 -118.5t86 -221.5h-162q-35 207 -258 207q-47 0 -95.5 -14t-98 -46.5t-90.5 -79.5t-71.5 -119.5t-42.5 -160.5q-13 -86 -0.5 -152t40 -113t68.5 -77.5t84.5 -44.5t88.5 -14
q108 0 189.5 47.5t123.5 132.5h162q-53 -141 -165 -226t-269 -98l-59 -227h-166l53 242q-70 19 -129.5 61t-106 106t-66 159t-3.5 208z" />
    <glyph glyph-name="sterling" unicode="&#xa3;" horiz-adv-x="1169" 
d="M4 0l19 125q5 5 38.5 31.5t65.5 57.5t68.5 74.5t63.5 101.5t36 120q15 105 -25 213h-200l20 156h139q-35 106 -16 241q22 152 157.5 261.5t340.5 109.5q86 0 171 -26t144 -62l-57 -139q-150 75 -277 75q-131 0 -217.5 -68.5t-99.5 -162.5q-3 -24 -4.5 -46t0 -43
t2.5 -34.5t5.5 -33t6.5 -26t8 -25.5t6 -21h357l-21 -156h-295q33 -117 19 -227q-25 -182 -191 -338h662l-23 -158h-903z" />
    <glyph glyph-name="yen" unicode="&#xa5;" horiz-adv-x="1243" 
d="M100 250l31 147h367l24 178h-364l30 148h275l-303 731h174l289 -696l483 696h186l-508 -731h293l-28 -148h-369l-25 -178h365l-29 -147h-356l-35 -250h-158l35 250h-377z" />
    <glyph glyph-name="brokenbar" unicode="&#xa6;" horiz-adv-x="579" 
d="M68 -233l110 788h174l-110 -788h-174zM217 831l113 807h174l-113 -807h-174z" />
    <glyph glyph-name="section" unicode="&#xa7;" horiz-adv-x="1071" 
d="M29 113l108 116q135 -118 320 -110q99 5 171.5 52.5t78.5 125.5q8 84 -30.5 109t-131.5 20q-121 -7 -215.5 18.5t-153 95t-49.5 175.5q6 72 49.5 139t118.5 113q-82 72 -70 198q11 132 133 228t291 96q238 0 344 -113l-104 -116q-3 4 -9.5 10.5t-29.5 23t-50 28.5
t-72 20.5t-95 5.5q-97 0 -173.5 -49.5t-82.5 -112.5q-5 -75 26.5 -110t133.5 -38h14h59q172 7 267 -75t84 -207q-6 -71 -48 -136.5t-110 -111.5q71 -65 59 -203q-12 -145 -126 -237.5t-290 -92.5q-126 0 -228 30.5t-189 107.5zM281 735q-8 -82 57.5 -127.5t216.5 -38.5
q98 5 171 53t79 126q7 61 -35 101.5t-143 47.5q-38 3 -88 0q-118 -6 -185 -51.5t-73 -110.5z" />
    <glyph glyph-name="dieresis" unicode="&#xa8;" horiz-adv-x="634" 
d="M86 1335q0 42 31.5 73.5t70.5 31.5q42 0 73.5 -31.5t31.5 -73.5t-31.5 -73t-73.5 -31q-39 0 -70.5 31t-31.5 73zM512 1335q0 42 31 73.5t71 31.5t72.5 -31.5t32.5 -73.5t-32 -73t-73 -31q-40 0 -71 31t-31 73z" />
    <glyph glyph-name="copyright" unicode="&#xa9;" horiz-adv-x="1810" 
d="M168 725q22 163 99 302.5t189.5 235t257 149.5t300.5 54q147 0 273 -54t212.5 -149.5t125.5 -235t17 -302.5q-48 -338 -275.5 -543t-569.5 -205q-142 0 -267 54t-213.5 149.5t-130 237.5t-18.5 307zM313 725q-38 -273 105 -444.5t403 -171.5q267 0 457.5 172.5
t228.5 443.5q19 137 -13 252t-102.5 192t-173.5 119.5t-225 42.5q-263 0 -453 -169.5t-227 -436.5zM575 715q24 165 135.5 267.5t254.5 102.5q113 0 191 -69t77 -193h-139q0 61 -40.5 97t-105.5 36q-84 0 -148 -62.5t-81 -176.5q-16 -112 34.5 -170t129.5 -58q63 0 113.5 32
t68.5 89h139q-29 -117 -124 -185.5t-218 -68.5q-133 0 -221 99.5t-66 259.5z" />
    <glyph glyph-name="ordfeminine" unicode="&#xaa;" horiz-adv-x="817" 
d="M55 326l17 114h583l-16 -114h-584zM117 850q4 8 4 22q13 103 103 164.5t218 61.5q48 0 93 -9.5t63 -27.5q14 84 14 104q5 53 -27.5 82t-111.5 29q-106 0 -207 -68l-53 97q67 47 129 69.5t160 22.5q286 0 246 -275l-68 -483h-131l12 92q-8 -12 -18 -23.5t-36 -31.5
t-70.5 -32.5t-100.5 -12.5q-92 0 -161.5 64t-57.5 155zM264 870q-7 -56 24.5 -88t90.5 -32q62 0 113.5 27.5t72.5 60.5l19 131q-17 18 -59.5 26.5t-80.5 8.5q-71 0 -122 -38t-58 -96z" />
    <glyph glyph-name="guillemotleft" unicode="&#xab;" horiz-adv-x="1146" 
d="M125 555l12 90l326 299l94 -106l-270 -242l178 -250l-113 -102zM547 555l12 90l326 299l94 -106l-270 -242l178 -250l-113 -102z" />
    <glyph glyph-name="registered" unicode="&#xae;" horiz-adv-x="1804" 
d="M168 729q30 216 152.5 385.5t302.5 260.5t385 91q147 0 273 -53.5t212.5 -148.5t125.5 -234t17 -301q-32 -224 -140.5 -391.5t-289.5 -261.5t-413 -94q-145 0 -269.5 54t-211.5 149t-127 237t-17 307zM311 729q-38 -275 102 -444.5t404 -169.5q175 0 321.5 78t240 217.5
t118.5 318.5q19 136 -12.5 250t-101.5 190.5t-172.5 119t-223.5 42.5q-163 0 -308.5 -76t-244.5 -214.5t-123 -311.5zM612 371l99 696h272q114 0 166 -65t39 -156q-9 -65 -56 -125.5t-90 -71.5l91 -278h-127l-91 256h-137l-37 -256h-129zM795 750h112q129 0 142 96
q8 51 -19.5 75.5t-99.5 24.5h-107z" />
    <glyph glyph-name="macron" unicode="&#xaf;" horiz-adv-x="743" 
d="M70 1221l18 137h743l-18 -137h-743z" />
    <glyph glyph-name="degree" unicode="&#xb0;" horiz-adv-x="847" 
d="M129 1116q0 141 104 245.5t242 104.5q141 0 246.5 -104.5t105.5 -245.5t-105.5 -245.5t-246.5 -104.5q-139 0 -242.5 104t-103.5 246zM270 1116q0 -88 60.5 -149.5t146.5 -61.5t146.5 61.5t60.5 149.5t-60.5 148.5t-146.5 60.5t-146.5 -61.5t-60.5 -147.5z" />
    <glyph glyph-name="plusminus" unicode="&#xb1;" horiz-adv-x="1298" 
d="M125 109l20 143h349l51 364h-359l21 154h358l51 363h156l-51 -363h364l-20 -154h-365l-51 -364h373l-21 -143h-876z" />
    <glyph glyph-name="acute" unicode="&#xb4;" horiz-adv-x="370" 
d="M117 1563l264 358l139 -125l-258 -233h-145z" />
    <glyph glyph-name="paragraph" unicode="&#xb6;" horiz-adv-x="1234" 
d="M176 1022q27 192 162.5 312t355.5 120h193l-205 -1454h-164l84 600h-33q-196 0 -307 120t-86 302zM856 4l205 1454h147l-204 -1454h-148z" />
    <glyph glyph-name="periodcentered" unicode="&#xb7;" horiz-adv-x="305" 
d="M43 717q0 46 33.5 79t75.5 33q44 0 77 -33t33 -79t-33 -77.5t-77 -31.5q-43 0 -76 31.5t-33 77.5z" />
    <glyph glyph-name="cedilla" unicode="&#xb8;" horiz-adv-x="1206" 
d="M211 -453l63 123q86 -37 140 -37q41 0 71.5 19t34.5 57q6 40 -23 64t-87 30l-80 9l63 208h115l-27 -90q80 -13 135.5 -72t42.5 -145q-30 -215 -266 -215q-13 0 -25 1t-25 3.5t-22.5 4t-22.5 6t-20 6.5t-19.5 7.5t-16.5 7t-17 7t-14 6.5z" />
    <glyph glyph-name="ordmasculine" unicode="&#xba;" horiz-adv-x="831" 
d="M63 326l17 114h588l-17 -114h-588zM135 981l10 74q23 154 122.5 245t238.5 91t216 -92.5t56 -243.5l-10 -74q-23 -164 -119.5 -253t-247.5 -89q-59 0 -112 24t-91 67.5t-56 108.5t-7 142zM274 979q-13 -101 26.5 -156t119.5 -55q84 0 139 54t70 157l10 76
q15 99 -25.5 156t-124.5 57q-86 0 -138 -56.5t-66 -156.5z" />
    <glyph glyph-name="guillemotright" unicode="&#xbb;" horiz-adv-x="1146" 
d="M154 338l270 242l-178 249l112 103l228 -311l-13 -91l-325 -299zM575 338l271 242l-178 249l112 103l228 -311l-13 -91l-325 -299z" />
    <glyph glyph-name="questiondown" unicode="&#xbf;" horiz-adv-x="1075" 
d="M25 -37q4 38 14.5 72t21 59.5t32 52.5t36 43t44.5 40.5t45.5 35.5t52 36.5t51.5 35.5q99 71 146.5 142.5t51.5 176.5h154q-3 -80 -28 -149.5t-68 -123.5t-85 -92t-96 -75q-116 -77 -146 -106q-57 -53 -70 -136q0 -4 -1 -8q-14 -97 46 -161t194 -64q110 0 207.5 69
t130.5 175h153q-33 -162 -179 -278t-337 -116q-96 0 -172 31t-121 83t-65.5 118.5t-11.5 138.5zM528 973q6 47 39 78.5t76 31.5q46 0 77 -32t25 -78q-6 -49 -39.5 -81t-78.5 -32q-44 0 -74.5 32.5t-24.5 80.5z" />
    <glyph glyph-name="Agrave" unicode="&#xc0;" horiz-adv-x="1363" 
d="M-51 0l756 1454h163l342 -1454h-163l-89 367h-651l-190 -367h-168zM385 516h537l-170 709zM565 1839l176 125l162 -358h-145z" />
    <glyph glyph-name="Aacute" unicode="&#xc1;" horiz-adv-x="1363" 
d="M-51 0l756 1454h163l342 -1454h-163l-89 367h-651l-190 -367h-168zM385 516h537l-170 709zM711 1618l264 358l139 -125l-258 -233h-145z" />
    <glyph glyph-name="Acircumflex" unicode="&#xc2;" horiz-adv-x="1363" 
d="M-51 0l756 1454h163l342 -1454h-163l-89 367h-651l-190 -367h-168zM385 516h537l-170 709zM518 1655l252 225h158l188 -221l-92 -76l-195 152l-241 -154z" />
    <glyph glyph-name="Atilde" unicode="&#xc3;" horiz-adv-x="1363" 
d="M-51 0l756 1454h163l342 -1454h-163l-89 367h-651l-190 -367h-168zM385 516h537l-170 709zM436 1645q20 77 90.5 138t165.5 68q56 3 102.5 -10.5t72 -31.5t55 -32.5t55.5 -13.5q48 3 82 27.5t47 56.5l94 -35q-9 -58 -71 -120.5t-154 -69.5q-44 -3 -84.5 11t-66.5 31.5
t-62.5 32t-73.5 13.5q-117 -7 -162 -96z" />
    <glyph glyph-name="Adieresis" unicode="&#xc4;" horiz-adv-x="1363" 
d="M-51 0l756 1454h163l342 -1454h-163l-89 367h-651l-190 -367h-168zM385 516h537l-170 709zM504 1708q0 42 31.5 73t70.5 31q42 0 73.5 -31t31.5 -73t-31.5 -73t-73.5 -31q-39 0 -70.5 31t-31.5 73zM930 1708q0 42 31 73t71 31q41 0 73 -31t32 -73t-32 -73t-73 -31
q-40 0 -71 31t-31 73z" />
    <glyph glyph-name="Aring" unicode="&#xc5;" horiz-adv-x="1363" 
d="M-51 0l756 1454h163l342 -1454h-163l-89 367h-651l-190 -367h-168zM385 516h537l-170 709zM586 1753q0 92 70.5 162t160.5 70q89 0 159.5 -70.5t70.5 -161.5q0 -95 -69.5 -162t-160.5 -67q-92 0 -161.5 67t-69.5 162zM698 1751q0 -51 33.5 -84t85.5 -33t84.5 33t32.5 84
q0 49 -33.5 85t-83.5 36t-84.5 -36.5t-34.5 -84.5z" />
    <glyph glyph-name="AE" unicode="&#xc6;" horiz-adv-x="1949" 
d="M-115 0l1088 1454h971l-21 -149h-733l-70 -494h590l-22 -149h-590l-72 -512h737l-20 -150h-895l51 358h-561l-272 -358h-181zM446 506h474l108 774z" />
    <glyph glyph-name="Ccedilla" unicode="&#xc7;" horiz-adv-x="1421" 
d="M84 499.5q-7 97.5 8 217.5q23 162 78.5 292.5t128.5 216t165.5 143t187 82t194.5 24.5q135 0 251 -57t189 -167.5t74 -253.5h-160q-15 150 -118.5 237t-256.5 87q-71 0 -139 -17.5t-139.5 -61.5t-128.5 -111t-102 -173.5t-64 -240.5q-19 -128 -2.5 -225.5t54 -166
t96 -111.5t122.5 -63t135 -20q167 0 296.5 95.5t176.5 244.5h160q-64 -222 -227.5 -352t-396.5 -139l-21 -66q80 -13 135.5 -72t42.5 -145q-30 -215 -266 -215q-13 0 -25 1t-25 3.5t-22.5 4t-22.5 6t-20 6.5t-19.5 7.5t-16.5 7t-17 7t-14 6.5l63 123q86 -37 140 -37
q41 0 71.5 19t34.5 57q6 40 -23.5 64t-87.5 30l-79 8l57 191q-67 10 -129.5 34t-121 66t-102.5 100.5t-75.5 137t-38.5 176z" />
    <glyph glyph-name="Egrave" unicode="&#xc8;" horiz-adv-x="1220" 
d="M66 0l204 1454h912l-21 -149h-749l-70 -492h596l-23 -151h-596l-71 -512h768l-21 -150h-929zM514 1839l176 125l162 -358h-145z" />
    <glyph glyph-name="Eacute" unicode="&#xc9;" horiz-adv-x="1220" 
d="M66 0l204 1454h912l-21 -149h-749l-70 -492h596l-23 -151h-596l-71 -512h768l-21 -150h-929zM659 1618l265 358l139 -125l-258 -233h-146z" />
    <glyph glyph-name="Ecircumflex" unicode="&#xca;" horiz-adv-x="1220" 
d="M66 0l204 1454h912l-21 -149h-749l-70 -492h596l-23 -151h-596l-71 -512h768l-21 -150h-929zM467 1655l252 225h158l188 -221l-92 -76l-195 152l-241 -154z" />
    <glyph glyph-name="Edieresis" unicode="&#xcb;" horiz-adv-x="1220" 
d="M66 0l204 1454h912l-21 -149h-749l-70 -492h596l-23 -151h-596l-71 -512h768l-21 -150h-929zM453 1708q0 42 31.5 73t70.5 31q42 0 73 -31t31 -73t-31 -73t-73 -31q-39 0 -70.5 31t-31.5 73zM879 1708q0 42 31 73t71 31t72 -31t32 -73t-32 -73t-72 -31t-71 31t-31 73z
" />
    <glyph glyph-name="Igrave" unicode="&#xcc;" horiz-adv-x="489" 
d="M63 0l205 1454h162l-205 -1454h-162zM182 1776l164 114l100 -303h-157z" />
    <glyph glyph-name="Iacute" unicode="&#xcd;" horiz-adv-x="489" 
d="M63 0l205 1454h162l-205 -1454h-162zM250 1581l160 287l168 -117l-168 -170h-160z" />
    <glyph glyph-name="Icircumflex" unicode="&#xce;" horiz-adv-x="489" 
d="M63 0l205 1454h162l-205 -1454h-162zM160 1640l159 195h160l105 -197l-113 -69l-96 104l-131 -104z" />
    <glyph glyph-name="Idieresis" unicode="&#xcf;" horiz-adv-x="489" 
d="M63 0l205 1454h162l-205 -1454h-162zM135 1729q0 45 29 73.5t72 28.5q41 0 69.5 -28.5t28.5 -73.5t-29 -76t-69 -31q-43 0 -72 30.5t-29 76.5zM436 1726q0 46 29.5 75.5t71.5 29.5t71 -29.5t29 -75.5q0 -45 -29 -74.5t-71 -29.5t-71.5 29.5t-29.5 74.5z" />
    <glyph glyph-name="Eth" unicode="&#xd0;" horiz-adv-x="1456" 
d="M43 651l20 150h113l92 653h461q103 0 195.5 -28t170.5 -85.5t129 -144t72 -203.5t0 -264q-27 -189 -93.5 -330t-167.5 -228t-228.5 -129t-282.5 -42h-461l93 651h-113zM242 152h303q246 0 400 142.5t194 434.5q20 143 -4 254.5t-84.5 180.5t-147.5 104t-196 35h-304
l-69 -502h414l-21 -150h-414z" />
    <glyph glyph-name="Ntilde" unicode="&#xd1;" horiz-adv-x="1433" 
d="M63 0l205 1454h178l590 -1200l170 1200h162l-205 -1454h-188l-582 1194l-168 -1194h-162zM467 1616q20 77 90.5 138.5t165.5 68.5q56 3 102.5 -10.5t72 -31.5t55 -32.5t55.5 -13.5q48 3 82 27.5t47 56.5l94 -35q-9 -58 -71 -121t-154 -70q-44 -3 -84.5 11t-66.5 31.5
t-62.5 32t-73.5 13.5q-117 -7 -162 -96z" />
    <glyph glyph-name="Ograve" unicode="&#xd2;" horiz-adv-x="1421" 
d="M93 452q-21 124 3 285q25 184 94 327t166.5 231t213.5 133t245 45q94 0 178.5 -28.5t156 -86.5t118 -146t64.5 -206.5t-3 -268.5q-27 -190 -94 -336t-163.5 -236t-214 -135.5t-251.5 -45.5q-87 0 -168 26.5t-154.5 83.5t-121.5 145.5t-69 212.5zM247.5 507
q13.5 -100 47 -170.5t87.5 -115t115 -65.5t130 -21q96 0 183 35.5t161.5 106t128 188.5t74.5 272q21 149 -1.5 264t-78.5 183.5t-132 102.5t-167 34q-94 0 -179.5 -34t-160 -102.5t-127.5 -183.5t-74 -264q-20 -130 -6.5 -230zM594 1831l176 125l162 -359h-146z" />
    <glyph glyph-name="Oacute" unicode="&#xd3;" horiz-adv-x="1421" 
d="M93 452q-21 124 3 285q25 184 94 327t166.5 231t213.5 133t245 45q94 0 178.5 -28.5t156 -86.5t118 -146t64.5 -206.5t-3 -268.5q-27 -190 -94 -336t-163.5 -236t-214 -135.5t-251.5 -45.5q-87 0 -168 26.5t-154.5 83.5t-121.5 145.5t-69 212.5zM247.5 507
q13.5 -100 47 -170.5t87.5 -115t115 -65.5t130 -21q96 0 183 35.5t161.5 106t128 188.5t74.5 272q21 149 -1.5 264t-78.5 183.5t-132 102.5t-167 34q-94 0 -179.5 -34t-160 -102.5t-127.5 -183.5t-74 -264q-20 -130 -6.5 -230zM739 1610l265 358l139 -125l-258 -233h-146z
" />
    <glyph glyph-name="Ocircumflex" unicode="&#xd4;" horiz-adv-x="1421" 
d="M93 452q-21 124 3 285q25 184 94 327t166.5 231t213.5 133t245 45q94 0 178.5 -28.5t156 -86.5t118 -146t64.5 -206.5t-3 -268.5q-27 -190 -94 -336t-163.5 -236t-214 -135.5t-251.5 -45.5q-87 0 -168 26.5t-154.5 83.5t-121.5 145.5t-69 212.5zM247.5 507
q13.5 -100 47 -170.5t87.5 -115t115 -65.5t130 -21q96 0 183 35.5t161.5 106t128 188.5t74.5 272q21 149 -1.5 264t-78.5 183.5t-132 102.5t-167 34q-94 0 -179.5 -34t-160 -102.5t-127.5 -183.5t-74 -264q-20 -130 -6.5 -230zM547 1647l252 225h157l189 -221l-92 -76
l-195 151l-242 -153z" />
    <glyph glyph-name="Otilde" unicode="&#xd5;" horiz-adv-x="1421" 
d="M93 452q-21 124 3 285q25 184 94 327t166.5 231t213.5 133t245 45q94 0 178.5 -28.5t156 -86.5t118 -146t64.5 -206.5t-3 -268.5q-27 -190 -94 -336t-163.5 -236t-214 -135.5t-251.5 -45.5q-87 0 -168 26.5t-154.5 83.5t-121.5 145.5t-69 212.5zM247.5 507
q13.5 -100 47 -170.5t87.5 -115t115 -65.5t130 -21q96 0 183 35.5t161.5 106t128 188.5t74.5 272q21 149 -1.5 264t-78.5 183.5t-132 102.5t-167 34q-94 0 -179.5 -34t-160 -102.5t-127.5 -183.5t-74 -264q-20 -130 -6.5 -230zM465 1636q20 77 90.5 138.5t165.5 68.5
q56 3 102.5 -10.5t72 -31.5t55 -32.5t55.5 -13.5q48 3 82 27.5t47 56.5l94 -35q-9 -58 -71 -120.5t-154 -69.5q-44 -3 -84.5 11t-66.5 31.5t-62.5 32t-73.5 13.5q-117 -7 -162 -96z" />
    <glyph glyph-name="Odieresis" unicode="&#xd6;" horiz-adv-x="1421" 
d="M93 452q-21 124 3 285q25 184 94 327t166.5 231t213.5 133t245 45q94 0 178.5 -28.5t156 -86.5t118 -146t64.5 -206.5t-3 -268.5q-27 -190 -94 -336t-163.5 -236t-214 -135.5t-251.5 -45.5q-87 0 -168 26.5t-154.5 83.5t-121.5 145.5t-69 212.5zM247.5 507
q13.5 -100 47 -170.5t87.5 -115t115 -65.5t130 -21q96 0 183 35.5t161.5 106t128 188.5t74.5 272q21 149 -1.5 264t-78.5 183.5t-132 102.5t-167 34q-94 0 -179.5 -34t-160 -102.5t-127.5 -183.5t-74 -264q-20 -130 -6.5 -230zM532 1700q0 42 32 73t71 31q42 0 73 -31
t31 -73t-31.5 -73.5t-72.5 -31.5q-39 0 -71 31.5t-32 73.5zM958 1700q0 42 31.5 73t71.5 31t72 -31t32 -73t-32 -73.5t-72 -31.5t-71.5 31.5t-31.5 73.5z" />
    <glyph glyph-name="multiply" unicode="&#xd7;" horiz-adv-x="1380" 
d="M135 293l438 383l-329 379l129 108l325 -379l432 379l95 -108l-432 -381l333 -381l-131 -109l-325 381l-439 -383z" />
    <glyph glyph-name="Oslash" unicode="&#xd8;" horiz-adv-x="1368" 
d="M96 737q25 184 94 327t166.5 231t213.5 133t245 45q164 0 295 -87l76 105l110 -86l-82 -113q164 -203 115 -555q-27 -190 -94 -336t-163.5 -236t-214 -135.5t-251.5 -45.5q-163 0 -291 86l-88 -121l-112 86l96 131q-169 208 -115 571zM254 737q-40 -271 57 -434l703 954
q-94 64 -219 64q-94 0 -179.5 -34t-160 -102.5t-127.5 -183.5t-74 -264zM412 199q94 -64 215 -64q96 0 183 35.5t161.5 106t128 188.5t74.5 272q35 261 -60 418z" />
    <glyph glyph-name="Ugrave" unicode="&#xd9;" horiz-adv-x="1341" 
d="M104 594l121 860h162l-121 -862q-32 -226 61.5 -344.5t260.5 -118.5q186 0 302.5 116t149.5 347l121 862h160l-121 -860q-43 -297 -208 -457t-427 -160q-113 0 -206 40t-158 115.5t-91.5 194.5t-5.5 267zM541 1798l176 125l162 -358h-146z" />
    <glyph glyph-name="Uacute" unicode="&#xda;" horiz-adv-x="1341" 
d="M104 594l121 860h162l-121 -862q-32 -226 61.5 -344.5t260.5 -118.5q186 0 302.5 116t149.5 347l121 862h160l-121 -860q-43 -297 -208 -457t-427 -160q-113 0 -206 40t-158 115.5t-91.5 194.5t-5.5 267zM686 1577l264 358l140 -125l-259 -233h-145z" />
    <glyph glyph-name="Ucircumflex" unicode="&#xdb;" horiz-adv-x="1341" 
d="M104 594l121 860h162l-121 -862q-32 -226 61.5 -344.5t260.5 -118.5q186 0 302.5 116t149.5 347l121 862h160l-121 -860q-43 -297 -208 -457t-427 -160q-113 0 -206 40t-158 115.5t-91.5 194.5t-5.5 267zM494 1614l251 225h158l189 -221l-93 -76l-194 152l-242 -154z" />
    <glyph glyph-name="Udieresis" unicode="&#xdc;" horiz-adv-x="1341" 
d="M104 594l121 860h162l-121 -862q-32 -226 61.5 -344.5t260.5 -118.5q186 0 302.5 116t149.5 347l121 862h160l-121 -860q-43 -297 -208 -457t-427 -160q-113 0 -206 40t-158 115.5t-91.5 194.5t-5.5 267zM479 1667q0 42 32 73.5t71 31.5q42 0 73 -31t31 -74
q0 -42 -31 -73t-73 -31q-39 0 -71 31t-32 73zM905 1667q0 42 31.5 73.5t71.5 31.5t72 -31.5t32 -73.5t-32 -73t-72 -31t-71.5 31t-31.5 73z" />
    <glyph glyph-name="Yacute" unicode="&#xdd;" horiz-adv-x="1255" 
d="M164 1454h174l289 -696l483 696h186l-612 -879l-80 -575h-158l80 575zM657 1599l265 359l139 -125l-258 -234h-146z" />
    <glyph glyph-name="Thorn" unicode="&#xde;" horiz-adv-x="1257" 
d="M63 0l205 1454h160l-41 -289h336q129 0 230.5 -52.5t154 -155t33.5 -236.5q-28 -202 -171 -320t-368 -118h-340l-39 -283h-160zM285 432h344q148 0 241.5 79t112.5 214q17 133 -59.5 213t-212.5 80h-344z" />
    <glyph glyph-name="germandbls" unicode="&#xdf;" horiz-adv-x="1249" 
d="M66 0l129 920q20 146 69 255t120.5 173.5t157 95.5t185.5 31q153 0 255 -75.5t132 -195.5l-303 -385q127 -16 210 -130.5t62 -268.5q-27 -193 -167 -311.5t-363 -118.5q-79 0 -129 10l20 150q55 -11 134 -11q143 0 235 77.5t111 203.5q16 125 -51.5 195.5t-241.5 76.5
h-13l17 121l305 395q-29 59 -82.5 89t-155.5 30q-61 0 -114 -20.5t-101 -65t-82.5 -125.5t-50.5 -192l-129 -924h-159z" />
    <glyph glyph-name="agrave" unicode="&#xe0;" horiz-adv-x="1222" 
d="M78 541q19 135 74 241.5t131.5 171t163.5 98t178 33.5q109 0 199.5 -57.5t109.5 -134.5l45 172h147l-149 -1065h-137l4 172q-46 -84 -150 -137t-223 -53q-58 0 -118 20.5t-116.5 66t-97.5 109t-58.5 158t-2.5 205.5zM239.5 376.5q13.5 -69.5 40.5 -117t68.5 -77
t82.5 -42.5t83 -13q60 0 119 25t111.5 73.5t91 129.5t53.5 184q27 190 -48 294.5t-212 104.5q-62 0 -121.5 -21.5t-115.5 -66.5t-96.5 -125t-55.5 -186q-14 -93 -0.5 -162.5zM455 1483l176 125l162 -359h-146z" />
    <glyph glyph-name="aacute" unicode="&#xe1;" horiz-adv-x="1222" 
d="M78 541q19 135 74 241.5t131.5 171t163.5 98t178 33.5q109 0 199.5 -57.5t109.5 -134.5l45 172h147l-149 -1065h-137l4 172q-46 -84 -150 -137t-223 -53q-58 0 -118 20.5t-116.5 66t-97.5 109t-58.5 158t-2.5 205.5zM239.5 376.5q13.5 -69.5 40.5 -117t68.5 -77
t82.5 -42.5t83 -13q60 0 119 25t111.5 73.5t91 129.5t53.5 184q27 190 -48 294.5t-212 104.5q-62 0 -121.5 -21.5t-115.5 -66.5t-96.5 -125t-55.5 -186q-14 -93 -0.5 -162.5zM559 1245l264 359l140 -125l-258 -234h-146z" />
    <glyph glyph-name="acircumflex" unicode="&#xe2;" horiz-adv-x="1222" 
d="M78 541q19 135 74 241.5t131.5 171t163.5 98t178 33.5q109 0 199.5 -57.5t109.5 -134.5l45 172h147l-149 -1065h-137l4 172q-46 -84 -150 -137t-223 -53q-58 0 -118 20.5t-116.5 66t-97.5 109t-58.5 158t-2.5 205.5zM239.5 376.5q13.5 -69.5 40.5 -117t68.5 -77
t82.5 -42.5t83 -13q60 0 119 25t111.5 73.5t91 129.5t53.5 184q27 190 -48 294.5t-212 104.5q-62 0 -121.5 -21.5t-115.5 -66.5t-96.5 -125t-55.5 -186q-14 -93 -0.5 -162.5zM389 1311l252 225h158l188 -221l-92 -76l-195 152l-241 -154z" />
    <glyph glyph-name="atilde" unicode="&#xe3;" horiz-adv-x="1222" 
d="M78 541q19 135 74 241.5t131.5 171t163.5 98t178 33.5q109 0 199.5 -57.5t109.5 -134.5l45 172h147l-149 -1065h-137l4 172q-46 -84 -150 -137t-223 -53q-58 0 -118 20.5t-116.5 66t-97.5 109t-58.5 158t-2.5 205.5zM239.5 376.5q13.5 -69.5 40.5 -117t68.5 -77
t82.5 -42.5t83 -13q60 0 119 25t111.5 73.5t91 129.5t53.5 184q27 190 -48 294.5t-212 104.5q-62 0 -121.5 -21.5t-115.5 -66.5t-96.5 -125t-55.5 -186q-14 -93 -0.5 -162.5zM311 1313q20 77 90.5 138.5t165.5 68.5q56 3 102.5 -10.5t72 -31.5t55 -32.5t55.5 -13.5
q48 3 82 27.5t47 56.5l94 -35q-9 -58 -71 -121t-154 -70q-44 -3 -84.5 11t-66.5 31.5t-62.5 32t-73.5 13.5q-117 -7 -162 -96z" />
    <glyph glyph-name="adieresis" unicode="&#xe4;" horiz-adv-x="1222" 
d="M78 541q19 135 74 241.5t131.5 171t163.5 98t178 33.5q109 0 199.5 -57.5t109.5 -134.5l45 172h147l-149 -1065h-137l4 172q-46 -84 -150 -137t-223 -53q-58 0 -118 20.5t-116.5 66t-97.5 109t-58.5 158t-2.5 205.5zM239.5 376.5q13.5 -69.5 40.5 -117t68.5 -77
t82.5 -42.5t83 -13q60 0 119 25t111.5 73.5t91 129.5t53.5 184q27 190 -48 294.5t-212 104.5q-62 0 -121.5 -21.5t-115.5 -66.5t-96.5 -125t-55.5 -186q-14 -93 -0.5 -162.5zM379 1372q0 42 31.5 73.5t70.5 31.5q42 0 73.5 -31.5t31.5 -73.5t-31.5 -73t-73.5 -31
q-39 0 -70.5 31t-31.5 73zM805 1372q0 42 31 73.5t71 31.5t72.5 -31.5t32.5 -73.5t-32 -73t-73 -31q-40 0 -71 31t-31 73z" />
    <glyph glyph-name="aring" unicode="&#xe5;" horiz-adv-x="1222" 
d="M78 541q19 135 74 241.5t131.5 171t163.5 98t178 33.5q109 0 199.5 -57.5t109.5 -134.5l45 172h147l-149 -1065h-137l4 172q-46 -84 -150 -137t-223 -53q-58 0 -118 20.5t-116.5 66t-97.5 109t-58.5 158t-2.5 205.5zM239.5 376.5q13.5 -69.5 40.5 -117t68.5 -77
t82.5 -42.5t83 -13q60 0 119 25t111.5 73.5t91 129.5t53.5 184q27 190 -48 294.5t-212 104.5q-62 0 -121.5 -21.5t-115.5 -66.5t-96.5 -125t-55.5 -186q-14 -93 -0.5 -162.5zM461 1446q0 92 70.5 161.5t160.5 69.5q89 0 159.5 -70t70.5 -161q0 -95 -69.5 -162t-160.5 -67
q-92 0 -161.5 67t-69.5 162zM573 1444q0 -51 33.5 -84t85.5 -33t84.5 33t32.5 84q0 49 -33.5 85t-83.5 36t-84.5 -36.5t-34.5 -84.5z" />
    <glyph glyph-name="ae" unicode="&#xe6;" horiz-adv-x="1744" 
d="M-27 301q22 158 152.5 251t331.5 93q177 0 272 -31l2 15q11 162 -45 241.5t-192 79.5q-26 0 -49 -2t-44.5 -8t-37 -9.5t-34.5 -14t-28 -14.5t-26.5 -17.5t-21.5 -16t-21 -17.5l-17 -15l-104 79q65 72 168.5 123.5t240.5 51.5q279 0 348 -218q81 103 191.5 158t234.5 55
q88 0 166.5 -33t137 -94.5t85 -159.5t9.5 -218l-15 -103h-792q-11 -88 9.5 -158.5t64 -113t101 -64.5t122.5 -22q94 0 186.5 39t155.5 92l80 -105q-189 -170 -449 -170q-113 0 -216.5 57t-160.5 165q-68 -117 -177.5 -165t-266.5 -48q-172 0 -276.5 91t-84.5 226zM125 311
q-11 -82 52 -136t169 -54q303 0 359 313l6 47q-40 18 -119.5 27t-149.5 4q-140 -3 -222.5 -58t-94.5 -143zM903 612h637q22 154 -55 242t-209 88q-131 0 -237 -92t-136 -238z" />
    <glyph glyph-name="ccedilla" unicode="&#xe7;" horiz-adv-x="1148" 
d="M72.5 343.5q-13.5 80.5 1.5 178.5q18 135 76 244.5t138 177.5t172.5 104.5t186.5 36.5q75 0 143 -22t124.5 -64.5t92 -111.5t40.5 -156h-162q-35 207 -258 207q-47 0 -95.5 -14t-98 -46.5t-90.5 -79.5t-71.5 -119.5t-42.5 -160.5q-13 -86 -0.5 -152t40 -113t68.5 -77.5
t84.5 -44.5t88.5 -14q108 0 189.5 47.5t123.5 132.5h162q-54 -149 -175 -234t-292 -92l-18 -57q80 -13 135.5 -72t42.5 -145q-30 -215 -266 -215q-36 0 -76.5 10.5t-55 16.5t-51.5 22l64 123q1 -1 12 -5.5t14 -5.5t13 -5.5t15 -5.5t14.5 -4.5t16.5 -4.5t16.5 -3t18.5 -2.5
t19 -0.5q42 0 72.5 19.5t34.5 56.5q6 40 -23.5 64t-87.5 30l-80 8l58 185q-58 13 -111 41t-100.5 73.5t-78 107t-44 142z" />
    <glyph glyph-name="egrave" unicode="&#xe8;" 
d="M74 530q37 259 196 407t367 148q88 0 166 -33t136.5 -94.5t85 -159.5t9.5 -218l-14 -103h-793q-11 -88 9.5 -158.5t64 -113t101 -64.5t122.5 -22q94 0 186.5 39t155.5 92l80 -105q-189 -170 -448 -170q-70 0 -136.5 21t-125.5 66t-100.5 109t-59 157t-2.5 202zM246 612
h637q22 154 -55.5 242t-209.5 88q-131 0 -236.5 -92t-135.5 -238zM438 1481l176 125l162 -359h-145z" />
    <glyph glyph-name="eacute" unicode="&#xe9;" 
d="M74 530q37 259 196 407t367 148q88 0 166 -33t136.5 -94.5t85 -159.5t9.5 -218l-14 -103h-793q-11 -88 9.5 -158.5t64 -113t101 -64.5t122.5 -22q94 0 186.5 39t155.5 92l80 -105q-189 -170 -448 -170q-70 0 -136.5 21t-125.5 66t-100.5 109t-59 157t-2.5 202zM246 612
h637q22 154 -55.5 242t-209.5 88q-131 0 -236.5 -92t-135.5 -238zM543 1243l264 359l139 -125l-258 -234h-145z" />
    <glyph glyph-name="ecircumflex" unicode="&#xea;" 
d="M74 530q37 259 196 407t367 148q88 0 166 -33t136.5 -94.5t85 -159.5t9.5 -218l-14 -103h-793q-11 -88 9.5 -158.5t64 -113t101 -64.5t122.5 -22q94 0 186.5 39t155.5 92l80 -105q-189 -170 -448 -170q-70 0 -136.5 21t-125.5 66t-100.5 109t-59 157t-2.5 202zM246 612
h637q22 154 -55.5 242t-209.5 88q-131 0 -236.5 -92t-135.5 -238zM373 1309l252 225h157l189 -221l-92 -76l-195 152l-242 -154z" />
    <glyph glyph-name="edieresis" unicode="&#xeb;" 
d="M74 530q37 259 196 407t367 148q88 0 166 -33t136.5 -94.5t85 -159.5t9.5 -218l-14 -103h-793q-11 -88 9.5 -158.5t64 -113t101 -64.5t122.5 -22q94 0 186.5 39t155.5 92l80 -105q-189 -170 -448 -170q-70 0 -136.5 21t-125.5 66t-100.5 109t-59 157t-2.5 202zM246 612
h637q22 154 -55.5 242t-209.5 88q-131 0 -236.5 -92t-135.5 -238zM362 1370q0 42 32 73.5t71 31.5q41 0 72.5 -31.5t31.5 -73.5t-31 -73t-73 -31q-39 0 -71 31t-32 73zM788 1370q0 42 31.5 73.5t71.5 31.5t72 -31.5t32 -73.5t-32 -73t-72 -31t-71.5 31t-31.5 73z" />
    <glyph glyph-name="igrave" unicode="&#xec;" horiz-adv-x="489" 
d="M63 0l150 1065h158l-150 -1065h-158zM135 1489l166 88l98 -311h-149z" />
    <glyph glyph-name="iacute" unicode="&#xed;" horiz-adv-x="489" 
d="M63 0l150 1065h158l-150 -1065h-158zM227 1262l181 301l159 -125l-194 -176h-146z" />
    <glyph glyph-name="icircumflex" unicode="&#xee;" horiz-adv-x="489" 
d="M63 0l150 1065h158l-150 -1065h-158zM96 1358l178 207h160l127 -215l-115 -62l-112 125l-156 -127z" />
    <glyph glyph-name="idieresis" unicode="&#xef;" horiz-adv-x="489" 
d="M63 0l150 1065h158l-150 -1065h-158zM100 1425q0 45 28.5 75t70.5 30t72 -30t30 -75t-30 -74.5t-72 -29.5t-70.5 29.5t-28.5 74.5zM387 1425q0 45 29 75t71 30t70.5 -30t28.5 -75q0 -47 -28.5 -76.5t-70.5 -29.5t-71 30t-29 76z" />
    <glyph glyph-name="eth" unicode="&#xf0;" horiz-adv-x="1181" 
d="M41 506q19 129 73.5 231.5t131 166t167.5 97t189 33.5q105 0 188 -50.5t95 -98.5q3 43 -17 141.5t-59 198.5l-289 -62l-24 105l262 65q-56 96 -109 144l117 116q91 -97 154 -221l229 58l31 -127l-211 -46q120 -323 55 -727q-43 -270 -196 -409t-375 -139
q-86 0 -166.5 36.5t-142.5 101t-91.5 166t-11.5 220.5zM201 506q-14 -96 6 -172t63.5 -119t95.5 -64.5t109 -21.5q62 0 121.5 21.5t114 65.5t94 120.5t53.5 175.5q25 172 -58.5 273.5t-213.5 101.5q-65 0 -127 -24t-115.5 -69.5t-91.5 -120t-51 -167.5z" />
    <glyph glyph-name="ntilde" unicode="&#xf1;" horiz-adv-x="1155" 
d="M63 0l150 1065h121l6 -145q46 78 137 127t207 49q78 0 143.5 -30.5t111.5 -87.5t65 -144.5t4 -194.5l-90 -639h-160l90 637q42 311 -219 311q-121 0 -208.5 -84t-107.5 -227l-90 -637h-160zM291 1313q20 77 90.5 138.5t165.5 68.5q56 3 102 -10.5t71.5 -31.5t55 -32.5
t55.5 -13.5q48 3 82.5 27.5t47.5 56.5l94 -35q-9 -58 -71.5 -121t-154.5 -70q-44 -3 -84.5 11t-66 31.5t-62 32t-73.5 13.5q-117 -7 -162 -96z" />
    <glyph glyph-name="ograve" unicode="&#xf2;" horiz-adv-x="1191" 
d="M76 532q15 114 54.5 207.5t94 156.5t123.5 106.5t142.5 63t152.5 19.5q69 0 135 -20t125 -64.5t100 -108t58 -156.5t2 -204q-19 -136 -74 -243t-133 -173t-171.5 -100t-195.5 -34q-67 0 -131.5 20.5t-122.5 65t-99 107.5t-58 155.5t-2 201.5zM231 532q-14 -99 4.5 -178.5
t61 -127t97.5 -72.5t116 -25q67 0 130 23.5t118 70.5t94.5 126.5t54.5 182.5q15 105 -3.5 186.5t-61.5 128t-98 70t-119 23.5q-66 0 -127.5 -23t-116.5 -69.5t-95 -128t-55 -187.5zM444 1483l177 125l161 -359h-145z" />
    <glyph glyph-name="oacute" unicode="&#xf3;" horiz-adv-x="1191" 
d="M76 532q15 114 54.5 207.5t94 156.5t123.5 106.5t142.5 63t152.5 19.5q69 0 135 -20t125 -64.5t100 -108t58 -156.5t2 -204q-19 -136 -74 -243t-133 -173t-171.5 -100t-195.5 -34q-67 0 -131.5 20.5t-122.5 65t-99 107.5t-58 155.5t-2 201.5zM231 532q-14 -99 4.5 -178.5
t61 -127t97.5 -72.5t116 -25q67 0 130 23.5t118 70.5t94.5 126.5t54.5 182.5q15 105 -3.5 186.5t-61.5 128t-98 70t-119 23.5q-66 0 -127.5 -23t-116.5 -69.5t-95 -128t-55 -187.5zM549 1245l264 359l139 -125l-258 -234h-145z" />
    <glyph glyph-name="ocircumflex" unicode="&#xf4;" horiz-adv-x="1191" 
d="M76 532q15 114 54.5 207.5t94 156.5t123.5 106.5t142.5 63t152.5 19.5q69 0 135 -20t125 -64.5t100 -108t58 -156.5t2 -204q-19 -136 -74 -243t-133 -173t-171.5 -100t-195.5 -34q-67 0 -131.5 20.5t-122.5 65t-99 107.5t-58 155.5t-2 201.5zM231 532q-14 -99 4.5 -178.5
t61 -127t97.5 -72.5t116 -25q67 0 130 23.5t118 70.5t94.5 126.5t54.5 182.5q15 105 -3.5 186.5t-61.5 128t-98 70t-119 23.5q-66 0 -127.5 -23t-116.5 -69.5t-95 -128t-55 -187.5zM379 1311l252 225h157l189 -221l-92 -76l-195 152l-241 -154z" />
    <glyph glyph-name="otilde" unicode="&#xf5;" horiz-adv-x="1191" 
d="M76 532q15 114 54.5 207.5t94 156.5t123.5 106.5t142.5 63t152.5 19.5q69 0 135 -20t125 -64.5t100 -108t58 -156.5t2 -204q-19 -136 -74 -243t-133 -173t-171.5 -100t-195.5 -34q-67 0 -131.5 20.5t-122.5 65t-99 107.5t-58 155.5t-2 201.5zM231 532q-14 -99 4.5 -178.5
t61 -127t97.5 -72.5t116 -25q67 0 130 23.5t118 70.5t94.5 126.5t54.5 182.5q15 105 -3.5 186.5t-61.5 128t-98 70t-119 23.5q-66 0 -127.5 -23t-116.5 -69.5t-95 -128t-55 -187.5zM301 1313q20 77 90.5 138.5t165.5 68.5q56 3 102.5 -10.5t72 -31.5t55 -32.5t55.5 -13.5
q48 3 82 27.5t47 56.5l94 -35q-9 -58 -71 -121t-154 -70q-44 -3 -84.5 11t-66.5 31.5t-62.5 32t-73.5 13.5q-117 -7 -162 -96z" />
    <glyph glyph-name="odieresis" unicode="&#xf6;" horiz-adv-x="1191" 
d="M76 532q15 114 54.5 207.5t94 156.5t123.5 106.5t142.5 63t152.5 19.5q69 0 135 -20t125 -64.5t100 -108t58 -156.5t2 -204q-19 -136 -74 -243t-133 -173t-171.5 -100t-195.5 -34q-67 0 -131.5 20.5t-122.5 65t-99 107.5t-58 155.5t-2 201.5zM231 532q-14 -99 4.5 -178.5
t61 -127t97.5 -72.5t116 -25q67 0 130 23.5t118 70.5t94.5 126.5t54.5 182.5q15 105 -3.5 186.5t-61.5 128t-98 70t-119 23.5q-66 0 -127.5 -23t-116.5 -69.5t-95 -128t-55 -187.5zM369 1372q0 42 31.5 73.5t70.5 31.5q41 0 72.5 -31.5t31.5 -73.5t-31 -73t-73 -31
q-39 0 -70.5 31t-31.5 73zM795 1372q0 42 31 73.5t71 31.5t72 -31.5t32 -73.5t-32 -73t-72 -31t-71 31t-31 73z" />
    <glyph glyph-name="divide" unicode="&#xf7;" horiz-adv-x="1345" 
d="M166 602l22 150h977l-22 -150h-977zM496 307q0 48 33 80.5t77 32.5q43 0 76 -32.5t33 -80.5q0 -46 -33.5 -79t-75.5 -33q-44 0 -77 33t-33 79zM590 1032q0 48 33 79.5t77 31.5q43 0 76 -31.5t33 -79.5q0 -46 -33 -78t-76 -32q-44 0 -77 32t-33 78z" />
    <glyph glyph-name="oslash" unicode="&#xf8;" horiz-adv-x="1193" 
d="M78 532q15 114 54.5 207.5t94 156.5t123.5 106.5t142.5 63t152.5 19.5q132 0 238 -69l63 80l105 -80l-70 -88q119 -153 84 -396q-19 -136 -73.5 -243t-132.5 -173t-171.5 -100t-195.5 -34q-117 0 -216 57l-61 -78l-106 78l67 84q-136 156 -98 409zM233 532
q-24 -165 46 -278l507 641q-68 45 -159 45q-66 0 -127.5 -23t-116.5 -69.5t-95 -128t-55 -187.5zM375 164q65 -35 137 -35q67 0 130 23.5t118 70.5t94.5 126.5t54.5 182.5q20 165 -32 265z" />
    <glyph glyph-name="ugrave" unicode="&#xf9;" 
d="M94 430l88 635h162l-88 -635q-21 -149 39.5 -227t183.5 -78q119 0 205 81t107 224l88 635h159l-149 -1065h-121l-4 139q-41 -65 -129.5 -113.5t-200.5 -48.5q-84 0 -152.5 29t-116.5 84t-67.5 142.5t-3.5 197.5zM416 1481l176 125l162 -359h-146z" />
    <glyph glyph-name="uacute" unicode="&#xfa;" 
d="M94 430l88 635h162l-88 -635q-21 -149 39.5 -227t183.5 -78q119 0 205 81t107 224l88 635h159l-149 -1065h-121l-4 139q-41 -65 -129.5 -113.5t-200.5 -48.5q-84 0 -152.5 29t-116.5 84t-67.5 142.5t-3.5 197.5zM520 1243l264 359l140 -125l-258 -234h-146z" />
    <glyph glyph-name="ucircumflex" unicode="&#xfb;" 
d="M94 430l88 635h162l-88 -635q-21 -149 39.5 -227t183.5 -78q119 0 205 81t107 224l88 635h159l-149 -1065h-121l-4 139q-41 -65 -129.5 -113.5t-200.5 -48.5q-84 0 -152.5 29t-116.5 84t-67.5 142.5t-3.5 197.5zM350 1309l252 225h158l188 -221l-92 -76l-194 152
l-242 -154z" />
    <glyph glyph-name="udieresis" unicode="&#xfc;" 
d="M94 430l88 635h162l-88 -635q-21 -149 39.5 -227t183.5 -78q119 0 205 81t107 224l88 635h159l-149 -1065h-121l-4 139q-41 -65 -129.5 -113.5t-200.5 -48.5q-84 0 -152.5 29t-116.5 84t-67.5 142.5t-3.5 197.5zM340 1370q0 42 31.5 73.5t70.5 31.5q42 0 73.5 -31.5
t31.5 -73.5t-31.5 -73t-73.5 -31q-39 0 -70.5 31t-31.5 73zM766 1370q0 42 31 73.5t71 31.5t72.5 -31.5t32.5 -73.5t-32 -73t-73 -31q-40 0 -71 31t-31 73z" />
    <glyph glyph-name="yacute" unicode="&#xfd;" horiz-adv-x="1044" 
d="M100 1065h166l176 -856l432 856h164l-757 -1473h-158l215 406v4zM477 1245l264 359l140 -125l-258 -234h-146z" />
    <glyph glyph-name="thorn" unicode="&#xfe;" horiz-adv-x="1171" 
d="M2 -434l266 1888h156l-76 -541q52 77 141.5 124.5t192.5 47.5q58 0 114.5 -21t108.5 -64.5t87 -110t50 -159t-2 -210.5q-38 -266 -178.5 -403t-333.5 -137q-93 0 -170.5 46.5t-113.5 120.5l-82 -581h-160zM293 524q-14 -97 1 -175.5t51.5 -126t84 -72.5t100.5 -25
q138 0 230.5 97t120.5 298q13 114 0.5 194t-51 129.5t-85 72t-100.5 22.5q-53 0 -106.5 -23t-103.5 -69.5t-88.5 -129.5t-53.5 -192z" />
    <glyph glyph-name="ydieresis" unicode="&#xff;" horiz-adv-x="1044" 
d="M100 1065h166l176 -856l432 856h164l-757 -1473h-158l215 406v4zM297 1372q0 42 31.5 73.5t70.5 31.5q42 0 73.5 -31.5t31.5 -73.5t-31.5 -73t-73.5 -31q-39 0 -70.5 31t-31.5 73zM723 1372q0 42 31 73.5t71 31.5t72.5 -31.5t32.5 -73.5t-32 -73t-73 -31q-40 0 -71 31
t-31 73z" />
    <glyph glyph-name="Amacron" unicode="&#x100;" horiz-adv-x="1363" 
d="M-51 0l756 1454h163l342 -1454h-163l-89 367h-651l-190 -367h-168zM385 516h537l-170 709zM442 1651l19 137h743l-18 -137h-744z" />
    <glyph glyph-name="amacron" unicode="&#x101;" horiz-adv-x="1222" 
d="M78 541q19 135 74 241.5t131.5 171t163.5 98t178 33.5q109 0 199.5 -57.5t109.5 -134.5l45 172h147l-149 -1065h-137l4 172q-46 -84 -150 -137t-223 -53q-58 0 -118 20.5t-116.5 66t-97.5 109t-58.5 158t-2.5 205.5zM239.5 376.5q13.5 -69.5 40.5 -117t68.5 -77
t82.5 -42.5t83 -13q60 0 119 25t111.5 73.5t91 129.5t53.5 184q27 190 -48 294.5t-212 104.5q-62 0 -121.5 -21.5t-115.5 -66.5t-96.5 -125t-55.5 -186q-14 -93 -0.5 -162.5zM317 1317l19 137h743l-18 -137h-744z" />
    <glyph glyph-name="Abreve" unicode="&#x102;" horiz-adv-x="1363" 
d="M-51 0l756 1454h163l342 -1454h-163l-89 367h-651l-190 -367h-168zM385 516h537l-170 709zM485 1792l103 84q41 -59 105.5 -94t131.5 -35q134 0 262 131l91 -86q-142 -186 -371 -186q-96 0 -185 52t-137 134z" />
    <glyph glyph-name="abreve" unicode="&#x103;" horiz-adv-x="1222" 
d="M78 541q19 135 74 241.5t131.5 171t163.5 98t178 33.5q109 0 199.5 -57.5t109.5 -134.5l45 172h147l-149 -1065h-137l4 172q-46 -84 -150 -137t-223 -53q-58 0 -118 20.5t-116.5 66t-97.5 109t-58.5 158t-2.5 205.5zM239.5 376.5q13.5 -69.5 40.5 -117t68.5 -77
t82.5 -42.5t83 -13q60 0 119 25t111.5 73.5t91 129.5t53.5 184q27 190 -48 294.5t-212 104.5q-62 0 -121.5 -21.5t-115.5 -66.5t-96.5 -125t-55.5 -186q-14 -93 -0.5 -162.5zM358 1456l103 84q41 -59 105.5 -94t131.5 -35q135 0 263 131l90 -86q-142 -186 -371 -186
q-96 0 -185 52t-137 134z" />
    <glyph glyph-name="Aogonek" unicode="&#x104;" horiz-adv-x="1363" 
d="M-51 0l756 1454h163l342 -1452v-2l-219 -211q-35 -31 -23 -58.5t70 -27.5h123l-20 -143h-154q-68 0 -116 28.5t-66 71t-4.5 97t61.5 102.5q33 37 176 174l-80 334h-651l-190 -367h-168zM385 516h537l-170 709z" />
    <glyph glyph-name="aogonek" unicode="&#x105;" horiz-adv-x="1222" 
d="M78 541q19 135 74 241.5t131.5 171t163.5 98t178 33.5q109 0 199.5 -57.5t109.5 -134.5l45 172h147l-149 -1065h-2l-219 -211q-35 -31 -23 -58.5t70 -27.5h123l-21 -143h-153q-68 0 -116 28.5t-66 71t-4.5 97t61.5 102.5q45 49 202 198q5 5 13 9l2 106q-46 -84 -150 -137
t-223 -53q-58 0 -118 20.5t-116.5 66t-97.5 109t-58.5 158t-2.5 205.5zM239.5 376.5q13.5 -69.5 40.5 -117t68.5 -77t82.5 -42.5t83 -13q60 0 119 25t111.5 73.5t91 129.5t53.5 184q27 190 -48 294.5t-212 104.5q-62 0 -121.5 -21.5t-115.5 -66.5t-96.5 -125t-55.5 -186
q-14 -93 -0.5 -162.5z" />
    <glyph glyph-name="Cacute" unicode="&#x106;" horiz-adv-x="1421" 
d="M87 479q-11 106 5 238q23 162 78.5 292.5t128.5 216t165.5 143t187 82t194.5 24.5q135 0 251 -57t189 -167.5t74 -253.5h-160q-15 150 -118.5 237t-256.5 87q-71 0 -139 -17.5t-139.5 -61.5t-128.5 -111t-102 -173.5t-64 -240.5q-19 -128 -2.5 -225.5t54 -166t96 -111.5
t122.5 -63t135 -20q167 0 296.5 95.5t176.5 244.5h160q-65 -228 -237 -359.5t-416 -131.5q-74 0 -145.5 18t-140.5 56t-122.5 96.5t-92 140.5t-49.5 188zM750 1618l264 358l139 -125l-258 -233h-145z" />
    <glyph glyph-name="cacute" unicode="&#x107;" horiz-adv-x="1148" 
d="M74 522q18 135 76 244.5t138 177.5t172.5 104.5t186.5 36.5q75 0 143 -22t124.5 -64.5t92 -111.5t40.5 -156h-162q-35 207 -258 207q-47 0 -95.5 -14t-98 -46.5t-90.5 -79.5t-71.5 -119.5t-42.5 -160.5q-13 -86 -0.5 -152t40 -113t68.5 -77.5t84.5 -44.5t88.5 -14
q108 0 189.5 47.5t123.5 132.5h162q-57 -155 -185.5 -240.5t-310.5 -85.5q-65 0 -129 20.5t-122.5 65t-100.5 107.5t-60 156t-3 202zM553 1245l264 359l139 -125l-258 -234h-145z" />
    <glyph glyph-name="Cdotaccent" unicode="&#x10a;" horiz-adv-x="1421" 
d="M87 479q-11 106 5 238q23 162 78.5 292.5t128.5 216t165.5 143t187 82t194.5 24.5q135 0 251 -57t189 -167.5t74 -253.5h-160q-15 150 -118.5 237t-256.5 87q-71 0 -139 -17.5t-139.5 -61.5t-128.5 -111t-102 -173.5t-64 -240.5q-19 -128 -2.5 -225.5t54 -166t96 -111.5
t122.5 -63t135 -20q167 0 296.5 95.5t176.5 244.5h160q-65 -228 -237 -359.5t-416 -131.5q-74 0 -145.5 18t-140.5 56t-122.5 96.5t-92 140.5t-49.5 188zM750 1718q0 44 35 77.5t77 33.5t76.5 -33.5t34.5 -77.5q0 -46 -34 -78t-77 -32t-77.5 32t-34.5 78z" />
    <glyph glyph-name="cdotaccent" unicode="&#x10b;" horiz-adv-x="1148" 
d="M74 522q18 135 76 244.5t138 177.5t172.5 104.5t186.5 36.5q75 0 143 -22t124.5 -64.5t92 -111.5t40.5 -156h-162q-35 207 -258 207q-47 0 -95.5 -14t-98 -46.5t-90.5 -79.5t-71.5 -119.5t-42.5 -160.5q-13 -86 -0.5 -152t40 -113t68.5 -77.5t84.5 -44.5t88.5 -14
q108 0 189.5 47.5t123.5 132.5h162q-57 -155 -185.5 -240.5t-310.5 -85.5q-65 0 -129 20.5t-122.5 65t-100.5 107.5t-60 156t-3 202zM582 1372q0 44 35 77.5t77 33.5t76.5 -33.5t34.5 -77.5q0 -46 -34 -78t-77 -32t-77.5 32t-34.5 78z" />
    <glyph glyph-name="Ccaron" unicode="&#x10c;" horiz-adv-x="1421" 
d="M87 479q-11 106 5 238q23 162 78.5 292.5t128.5 216t165.5 143t187 82t194.5 24.5q135 0 251 -57t189 -167.5t74 -253.5h-160q-15 150 -118.5 237t-256.5 87q-71 0 -139 -17.5t-139.5 -61.5t-128.5 -111t-102 -173.5t-64 -240.5q-19 -128 -2.5 -225.5t54 -166t96 -111.5
t122.5 -63t135 -20q167 0 296.5 95.5t176.5 244.5h160q-65 -228 -237 -359.5t-416 -131.5q-74 0 -145.5 18t-140.5 56t-122.5 96.5t-92 140.5t-49.5 188zM573 1827l93 78l198 -154l242 154l68 -76l-250 -223h-158z" />
    <glyph glyph-name="ccaron" unicode="&#x10d;" horiz-adv-x="1148" 
d="M74 522q18 135 76 244.5t138 177.5t172.5 104.5t186.5 36.5q75 0 143 -22t124.5 -64.5t92 -111.5t40.5 -156h-162q-35 207 -258 207q-47 0 -95.5 -14t-98 -46.5t-90.5 -79.5t-71.5 -119.5t-42.5 -160.5q-13 -86 -0.5 -152t40 -113t68.5 -77.5t84.5 -44.5t88.5 -14
q108 0 189.5 47.5t123.5 132.5h162q-57 -155 -185.5 -240.5t-310.5 -85.5q-65 0 -129 20.5t-122.5 65t-100.5 107.5t-60 156t-3 202zM403 1487l93 78l198 -154l242 154l68 -76l-250 -223h-158z" />
    <glyph glyph-name="Dcaron" unicode="&#x10e;" horiz-adv-x="1382" 
d="M59 0l205 1454h461q103 0 195.5 -28t170.5 -85.5t129 -144t72 -203.5t0 -264q-27 -189 -93.5 -330t-167.5 -228t-228.5 -129t-282.5 -42h-461zM238 152h303q246 0 400 142.5t194 434.5q20 143 -4 254.5t-85 180.5t-148 104t-196 35h-303zM530 1825l93 78l198 -154
l242 154l67 -76l-249 -223h-158z" />
    <glyph glyph-name="dcaron" unicode="&#x10f;" horiz-adv-x="1452" 
d="M78 541q19 135 74 241.5t131.5 171t163.5 98t178 33.5q109 0 199.5 -57.5t109.5 -134.5l80 561h168l-205 -1454h-137l4 172q-46 -84 -150 -137t-223 -53q-58 0 -118 20.5t-116.5 66t-97.5 109t-58.5 158t-2.5 205.5zM239.5 376.5q13.5 -69.5 40.5 -117t68.5 -77
t82.5 -42.5t83 -13q60 0 119 25t111.5 73.5t91 129.5t53.5 184q27 190 -48 294.5t-212 104.5q-62 0 -121.5 -21.5t-115.5 -66.5t-96.5 -125t-55.5 -186q-14 -93 -0.5 -162.5zM1317 1126l65 328h152l-92 -328h-125z" />
    <glyph glyph-name="Dcroat" unicode="&#x110;" horiz-adv-x="1382" 
d="M39 651l20 150h113l92 653h461q103 0 195.5 -28t170.5 -85.5t129 -144t72 -203.5t0 -264q-27 -189 -93.5 -330t-167.5 -228t-228.5 -129t-282.5 -42h-461l93 651h-113zM238 152h303q246 0 400 142.5t194 434.5q20 143 -4 254.5t-85 180.5t-148 104t-196 35h-303l-69 -502
h413l-20 -150h-414z" />
    <glyph glyph-name="dcroat" unicode="&#x111;" horiz-adv-x="1208" 
d="M78 541q19 135 72.5 241.5t127.5 171t159.5 98t176.5 33.5q108 0 194 -57t105 -135l48 340h-259l19 135h260l27 197h168l-27 -197h190l-18 -135h-193l-172 -1233h-137l4 172q-46 -85 -145 -137.5t-217 -52.5q-58 0 -117 20.5t-114 66t-94.5 109t-56 158t-1.5 205.5z
M238.5 376.5q12.5 -69.5 38 -117t65.5 -77t80 -42.5t82 -13q53 0 108.5 25t108 73t92.5 130t55 184q26 187 -49.5 293t-200.5 106q-62 0 -120 -21.5t-111.5 -66.5t-92.5 -125t-54 -186q-14 -93 -1.5 -162.5z" />
    <glyph glyph-name="Emacron" unicode="&#x112;" horiz-adv-x="1220" 
d="M66 0l204 1454h912l-21 -149h-749l-70 -492h596l-23 -151h-596l-71 -512h768l-21 -150h-929zM391 1651l19 137h743l-18 -137h-744z" />
    <glyph glyph-name="emacron" unicode="&#x113;" 
d="M74 530q37 259 196 407t367 148q88 0 166 -33t136.5 -94.5t85 -159.5t9.5 -218l-14 -103h-793q-11 -88 9.5 -158.5t64 -113t101 -64.5t122.5 -22q94 0 186.5 39t155.5 92l80 -105q-189 -170 -448 -170q-70 0 -136.5 21t-125.5 66t-100.5 109t-59 157t-2.5 202zM246 612
h637q22 154 -55.5 242t-209.5 88q-131 0 -236.5 -92t-135.5 -238zM299 1315l18 137h744l-19 -137h-743z" />
    <glyph glyph-name="Ebreve" unicode="&#x114;" horiz-adv-x="1220" 
d="M66 0l204 1454h912l-21 -149h-749l-70 -492h596l-23 -151h-596l-71 -512h768l-21 -150h-929zM434 1792l103 84q41 -59 105.5 -94t131.5 -35q134 0 262 131l90 -86q-142 -186 -370 -186q-96 0 -185 52t-137 134z" />
    <glyph glyph-name="ebreve" unicode="&#x115;" 
d="M74 530q37 259 196 407t367 148q88 0 166 -33t136.5 -94.5t85 -159.5t9.5 -218l-14 -103h-793q-11 -88 9.5 -158.5t64 -113t101 -64.5t122.5 -22q94 0 186.5 39t155.5 92l80 -105q-189 -170 -448 -170q-70 0 -136.5 21t-125.5 66t-100.5 109t-59 157t-2.5 202zM246 612
h637q22 154 -55.5 242t-209.5 88q-131 0 -236.5 -92t-135.5 -238zM342 1454l102 84q41 -59 106 -94t132 -35q134 0 262 131l90 -86q-142 -186 -370 -186q-96 0 -185 52t-137 134z" />
    <glyph glyph-name="Edotaccent" unicode="&#x116;" horiz-adv-x="1220" 
d="M66 0l204 1454h912l-21 -149h-749l-70 -492h596l-23 -151h-596l-71 -512h768l-21 -150h-929zM659 1718q0 43 35.5 77t77.5 34t76.5 -33.5t34.5 -77.5q0 -46 -34 -78t-77 -32t-78 32t-35 78z" />
    <glyph glyph-name="edotaccent" unicode="&#x117;" 
d="M74 530q37 259 196 407t367 148q88 0 166 -33t136.5 -94.5t85 -159.5t9.5 -218l-14 -103h-793q-11 -88 9.5 -158.5t64 -113t101 -64.5t122.5 -22q94 0 186.5 39t155.5 92l80 -105q-189 -170 -448 -170q-70 0 -136.5 21t-125.5 66t-100.5 109t-59 157t-2.5 202zM246 612
h637q22 154 -55.5 242t-209.5 88q-131 0 -236.5 -92t-135.5 -238zM571 1370q0 43 35.5 77t77.5 34t76.5 -33.5t34.5 -77.5q0 -46 -34 -78t-77 -32t-78 32t-35 78z" />
    <glyph glyph-name="Eogonek" unicode="&#x118;" horiz-adv-x="1220" 
d="M66 0l204 1454h912l-21 -149h-749l-70 -492h596l-23 -151h-596l-71 -512h768l-21 -150l-219 -211q-35 -31 -23 -58.5t70 -27.5h123l-20 -143h-154q-68 0 -116 28.5t-66 71t-4.5 97t61.5 102.5q58 62 144 141h-725z" />
    <glyph glyph-name="eogonek" unicode="&#x119;" 
d="M74 530q37 259 196 407t367 148q88 0 166 -33t136.5 -94.5t85 -159.5t9.5 -218l-14 -103h-793q-11 -88 9.5 -158.5t64 -113t101 -64.5t122.5 -22q130 0 260 74q5 5 23 14q32 20 59 43l80 -105q-21 -18 -45 -36l-194 -187q-33 -29 -21 -57.5t68 -28.5h123l-21 -143h-154
q-65 1 -112 27.5t-66 66.5t-9.5 91.5t50.5 98.5q-23 -2 -67 -2q-70 0 -136.5 21t-125.5 66t-100.5 109t-59 157t-2.5 202zM246 612h637q22 154 -55.5 242t-209.5 88q-131 0 -236.5 -92t-135.5 -238z" />
    <glyph glyph-name="Ecaron" unicode="&#x11a;" horiz-adv-x="1220" 
d="M66 0l204 1454h912l-21 -149h-749l-70 -492h596l-23 -151h-596l-71 -512h768l-21 -150h-929zM483 1827l92 78l199 -154l242 154l67 -76l-249 -223h-158z" />
    <glyph glyph-name="ecaron" unicode="&#x11b;" 
d="M74 530q37 259 196 407t367 148q88 0 166 -33t136.5 -94.5t85 -159.5t9.5 -218l-14 -103h-793q-11 -88 9.5 -158.5t64 -113t101 -64.5t122.5 -22q94 0 186.5 39t155.5 92l80 -105q-189 -170 -448 -170q-70 0 -136.5 21t-125.5 66t-100.5 109t-59 157t-2.5 202zM246 612
h637q22 154 -55.5 242t-209.5 88q-131 0 -236.5 -92t-135.5 -238zM393 1485l92 78l199 -154l242 154l67 -76l-250 -223h-157z" />
    <glyph glyph-name="Gbreve" unicode="&#x11e;" horiz-adv-x="1421" 
d="M83 510.5q-8 100.5 11 224.5q21 152 75 277.5t126 210t161.5 142.5t180.5 84t184 26q142 0 261.5 -55.5t192 -160t71.5 -235.5h-158q0 117 -111 208t-276 91q-67 0 -133.5 -19.5t-133.5 -64.5t-121.5 -111.5t-96.5 -168t-60 -226.5q-14 -116 -10 -206t30.5 -157t63 -113
t86.5 -74.5t101 -41t108 -12.5q98 0 180 26.5t151.5 82t116 150.5t64.5 224h-377l21 148h536l-18 -135q-25 -174 -89.5 -302.5t-159 -202t-206.5 -108.5t-244 -35q-60 0 -117.5 11.5t-116.5 37.5t-107.5 67t-90 100t-64.5 138t-31 179.5zM514 1784l102 84q41 -59 106 -94
t132 -35q134 0 262 131l90 -86q-143 -187 -370 -187q-96 0 -185 52.5t-137 134.5z" />
    <glyph glyph-name="gbreve" unicode="&#x11f;" horiz-adv-x="1206" 
d="M2 -285l129 82q101 -119 281 -119q330 0 379 322l22 147q-101 -165 -350 -165q-87 0 -162.5 37t-129 105t-76.5 173.5t-5 232.5q19 133 71 241t125 176.5t160.5 105.5t180.5 37q109 0 190 -47t103 -121l45 143h137l-150 -1063q-18 -130 -70.5 -225t-129.5 -148
t-165.5 -77.5t-193.5 -24.5q-113 0 -222.5 50t-168.5 138zM250 528q-28 -191 47.5 -295t210.5 -104q136 0 234 107t124 294q31 213 -35 311.5t-208 98.5q-64 0 -123.5 -25.5t-110.5 -74.5t-87.5 -129.5t-51.5 -182.5zM358 1454l103 84q41 -59 105.5 -94t131.5 -35
q135 0 263 131l90 -86q-142 -186 -371 -186q-96 0 -185 52t-137 134z" />
    <glyph glyph-name="Gdotaccent" unicode="&#x120;" horiz-adv-x="1421" 
d="M83 510.5q-8 100.5 11 224.5q21 152 75 277.5t126 210t161.5 142.5t180.5 84t184 26q142 0 261.5 -55.5t192 -160t71.5 -235.5h-158q0 117 -111 208t-276 91q-67 0 -133.5 -19.5t-133.5 -64.5t-121.5 -111.5t-96.5 -168t-60 -226.5q-14 -116 -10 -206t30.5 -157t63 -113
t86.5 -74.5t101 -41t108 -12.5q98 0 180 26.5t151.5 82t116 150.5t64.5 224h-377l21 148h536l-18 -135q-25 -174 -89.5 -302.5t-159 -202t-206.5 -108.5t-244 -35q-60 0 -117.5 11.5t-116.5 37.5t-107.5 67t-90 100t-64.5 138t-31 179.5zM739 1710q0 43 35.5 77t77.5 34
t76.5 -33.5t34.5 -77.5q0 -46 -34 -78.5t-77 -32.5t-78 32.5t-35 78.5z" />
    <glyph glyph-name="gdotaccent" unicode="&#x121;" horiz-adv-x="1206" 
d="M2 -285l129 82q101 -119 281 -119q330 0 379 322l22 147q-101 -165 -350 -165q-87 0 -162.5 37t-129 105t-76.5 173.5t-5 232.5q19 133 71 241t125 176.5t160.5 105.5t180.5 37q109 0 190 -47t103 -121l45 143h137l-150 -1063q-18 -130 -70.5 -225t-129.5 -148
t-165.5 -77.5t-193.5 -24.5q-113 0 -222.5 50t-168.5 138zM250 528q-28 -191 47.5 -295t210.5 -104q136 0 234 107t124 294q31 213 -35 311.5t-208 98.5q-64 0 -123.5 -25.5t-110.5 -74.5t-87.5 -129.5t-51.5 -182.5zM588 1370q0 44 35 77.5t77 33.5t76.5 -33.5t34.5 -77.5
q0 -46 -34 -78t-77 -32t-77.5 32t-34.5 78z" />
    <glyph glyph-name="uni0122" unicode="&#x122;" horiz-adv-x="1421" 
d="M83 510.5q-8 100.5 11 224.5q21 152 75 277.5t126 210t161.5 142.5t180.5 84t184 26q142 0 261.5 -55.5t192 -160t71.5 -235.5h-158q0 117 -111 208t-276 91q-67 0 -133.5 -19.5t-133.5 -64.5t-121.5 -111.5t-96.5 -168t-60 -226.5q-14 -116 -10 -206t30.5 -157t63 -113
t86.5 -74.5t101 -41t108 -12.5q98 0 180 26.5t151.5 82t116 150.5t64.5 224h-377l21 148h536l-18 -135q-25 -174 -89.5 -302.5t-159 -202t-206.5 -108.5t-244 -35q-60 0 -117.5 11.5t-116.5 37.5t-107.5 67t-90 100t-64.5 138t-31 179.5zM426 -438l88 309h184l-125 -309
h-147z" />
    <glyph glyph-name="uni0123" unicode="&#x123;" horiz-adv-x="1206" 
d="M2 -285l129 82q101 -119 281 -119q330 0 379 322l22 147q-101 -165 -350 -165q-87 0 -162.5 37t-129 105t-76.5 173.5t-5 232.5q19 133 71 241t125 176.5t160.5 105.5t180.5 37q109 0 190 -47t103 -121l45 143h137l-150 -1063q-18 -130 -70.5 -225t-129.5 -148
t-165.5 -77.5t-193.5 -24.5q-113 0 -222.5 50t-168.5 138zM250 528q-28 -191 47.5 -295t210.5 -104q136 0 234 107t124 294q31 213 -35 311.5t-208 98.5q-64 0 -123.5 -25.5t-110.5 -74.5t-87.5 -129.5t-51.5 -182.5zM631 1239l125 309h147l-88 -309h-184z" />
    <glyph glyph-name="Hbar" unicode="&#x126;" horiz-adv-x="1378" 
d="M63 1087l19 138h166l33 229h159l-32 -229h706l33 229h160l-33 -229h160l-19 -138h-160l-153 -1087h-160l92 651h-706l-92 -651h-160l153 1087h-166zM348 803h707l41 284h-707z" />
    <glyph glyph-name="hbar" unicode="&#x127;" horiz-adv-x="1175" 
d="M51 1251l17 129h192l27 185h159l-26 -185h266l-16 -129h-267l-47 -329q39 64 128.5 113.5t193.5 49.5q86 0 154.5 -30t115 -88.5t64 -151.5t0.5 -211l-84 -604h-162l84 604q25 179 -28 256.5t-183 77.5q-121 0 -214 -92.5t-114 -241.5l-84 -604h-159l176 1251h-193z" />
    <glyph glyph-name="Imacron" unicode="&#x12a;" horiz-adv-x="489" 
d="M63 0l205 1454h162l-205 -1454h-162zM154 1636l20 138h434l-20 -138h-434z" />
    <glyph glyph-name="imacron" unicode="&#x12b;" horiz-adv-x="489" 
d="M63 0l150 1065h158l-150 -1065h-158zM121 1341l22 158h420l-22 -158h-420z" />
    <glyph glyph-name="Ibreve" unicode="&#x12c;" horiz-adv-x="489" 
d="M63 0l205 1454h162l-205 -1454h-162zM123 1776l104 53q61 -121 156 -121q58 0 109 34t73 87l99 -43q-25 -96 -114 -156.5t-183 -60.5q-86 0 -151.5 57.5t-92.5 149.5z" />
    <glyph glyph-name="ibreve" unicode="&#x12d;" horiz-adv-x="489" 
d="M63 0l150 1065h158l-150 -1065h-158zM84 1511l106 48q28 -60 62.5 -89.5t87.5 -29.5q56 0 106.5 33t73.5 86l103 -43q-24 -97 -113 -157.5t-184 -60.5q-88 0 -157.5 61t-84.5 152z" />
    <glyph glyph-name="Iogonek" unicode="&#x12e;" horiz-adv-x="489" 
d="M-186.5 -243.5q13.5 54.5 61.5 102.5q25 28 107 107t88 85l198 1403h162l-205 -1454h-2l-219 -211q-35 -31 -23 -58.5t70 -27.5h123l-20 -143h-154q-68 0 -116 28.5t-66 71t-4.5 97z" />
    <glyph glyph-name="iogonek" unicode="&#x12f;" horiz-adv-x="518" 
d="M-184.5 -241.5q13.5 54.5 61.5 102.5q39 42 203 198l2 2l141 1004h158l-150 -1065h-8l-217 -209q-35 -31 -23 -58.5t70 -27.5h123l-20 -143h-154q-68 0 -116 28.5t-66 71t-4.5 97zM233 1376q0 43 32 72t73 29q42 0 74 -29t32 -72q0 -44 -31.5 -73t-74.5 -29q-41 0 -73 29
t-32 73z" />
    <glyph glyph-name="Idotaccent" unicode="&#x130;" horiz-adv-x="489" 
d="M63 0l205 1454h162l-205 -1454h-162zM262 1720q0 43 35.5 77t77.5 34t76 -33.5t34 -77.5q0 -46 -33.5 -78t-76.5 -32t-78 32t-35 78z" />
    <glyph glyph-name="dotlessi" unicode="&#x131;" horiz-adv-x="489" 
d="M63 0l150 1065h158l-150 -1065h-158z" />
    <glyph glyph-name="uni0136" unicode="&#x136;" horiz-adv-x="1310" 
d="M66 0l204 1454h162l-108 -766l804 766h211l-669 -645l487 -809h-194l-414 686l-258 -237l-64 -449h-161zM381 -440l88 309h184l-125 -309h-147z" />
    <glyph glyph-name="uni0137" unicode="&#x137;" horiz-adv-x="1077" 
d="M63 0l205 1454h160l-121 -862l529 473h213l-494 -442l387 -623h-186l-322 522l-155 -133l-56 -389h-160zM279 -489l88 309h184l-125 -309h-147z" />
    <glyph glyph-name="Lacute" unicode="&#x139;" horiz-adv-x="1130" 
d="M66 0l204 1454h162l-184 -1302h717l-21 -152h-878zM319 1563l265 358l139 -125l-258 -233h-146z" />
    <glyph glyph-name="lacute" unicode="&#x13a;" horiz-adv-x="491" 
d="M63 0l205 1454h160l-205 -1454h-160zM264 1565l172 274l158 -125l-184 -149h-146z" />
    <glyph glyph-name="uni013B" unicode="&#x13b;" horiz-adv-x="1130" 
d="M66 0l204 1454h162l-184 -1302h717l-21 -152h-878zM307 -453l88 310h185l-125 -310h-148z" />
    <glyph glyph-name="uni013C" unicode="&#x13c;" horiz-adv-x="491" 
d="M-61 -475l88 309h184l-125 -309h-147zM63 0l205 1454h160l-205 -1454h-160z" />
    <glyph glyph-name="Lcaron" unicode="&#x13d;" horiz-adv-x="1128" 
d="M63 0l205 1454h162l-184 -1302h717l-21 -152h-879zM795 1063l102 381h178l-139 -381h-141z" />
    <glyph glyph-name="lcaron" unicode="&#x13e;" horiz-adv-x="735" 
d="M63 0l205 1454h160l-205 -1454h-160zM532 1094l91 360h178l-127 -360h-142z" />
    <glyph glyph-name="Ldot" unicode="&#x13f;" horiz-adv-x="1130" 
d="M66 0l204 1454h162l-184 -1302h717l-21 -152h-878zM842 788q0 44 35 77.5t77 33.5t76.5 -33.5t34.5 -77.5q0 -46 -34 -78t-77 -32t-77.5 32t-34.5 78z" />
    <glyph glyph-name="ldot" unicode="&#x140;" horiz-adv-x="825" 
d="M63 0l205 1454h160l-205 -1454h-160zM528 717q0 46 33.5 79t75.5 33q44 0 77.5 -33t33.5 -79t-33.5 -77.5t-77.5 -31.5q-43 0 -76 31.5t-33 77.5z" />
    <glyph glyph-name="Lslash" unicode="&#x141;" horiz-adv-x="1179" 
d="M4 623l213 110l102 721h162l-90 -633l342 176l64 -131l-430 -223l-70 -491h717l-21 -152h-878l78 555l-125 -66z" />
    <glyph glyph-name="lslash" unicode="&#x142;" horiz-adv-x="595" 
d="M43 844l195 41l79 569h160l-76 -534l160 32l33 -153l-215 -43l-107 -756h-159l102 723l-137 -27z" />
    <glyph glyph-name="Nacute" unicode="&#x143;" horiz-adv-x="1433" 
d="M63 0l205 1454h178l590 -1200l170 1200h162l-205 -1454h-188l-582 1194l-168 -1194h-162zM741 1589l265 359l139 -125l-258 -234h-146z" />
    <glyph glyph-name="nacute" unicode="&#x144;" horiz-adv-x="1155" 
d="M63 0l150 1065h121l6 -145q46 78 137 127t207 49q78 0 143.5 -30.5t111.5 -87.5t65 -144.5t4 -194.5l-90 -639h-160l90 637q42 311 -219 311q-121 0 -208.5 -84t-107.5 -227l-90 -637h-160zM539 1245l264 359l139 -125l-258 -234h-145z" />
    <glyph glyph-name="uni0145" unicode="&#x145;" horiz-adv-x="1433" 
d="M63 0l205 1454h178l590 -1200l170 1200h162l-205 -1454h-188l-582 1194l-168 -1194h-162zM410 -397l88 309h184l-125 -309h-147z" />
    <glyph glyph-name="uni0146" unicode="&#x146;" horiz-adv-x="1155" 
d="M63 0l150 1065h121l6 -145q46 78 137 127t207 49q78 0 143.5 -30.5t111.5 -87.5t65 -144.5t4 -194.5l-90 -639h-160l90 637q42 311 -219 311q-121 0 -208.5 -84t-107.5 -227l-90 -637h-160zM299 -434l88 309h184l-125 -309h-147z" />
    <glyph glyph-name="Ncaron" unicode="&#x147;" horiz-adv-x="1433" 
d="M63 0l205 1454h178l590 -1200l170 1200h162l-205 -1454h-188l-582 1194l-168 -1194h-162zM565 1798l92 78l199 -154l242 154l67 -76l-250 -223h-157z" />
    <glyph glyph-name="ncaron" unicode="&#x148;" horiz-adv-x="1155" 
d="M63 0l150 1065h121l6 -145q46 78 137 127t207 49q78 0 143.5 -30.5t111.5 -87.5t65 -144.5t4 -194.5l-90 -639h-160l90 637q42 311 -219 311q-121 0 -208.5 -84t-107.5 -227l-90 -637h-160zM389 1487l92 78l199 -154l242 154l67 -76l-250 -223h-157z" />
    <glyph glyph-name="Omacron" unicode="&#x14c;" horiz-adv-x="1421" 
d="M93 452q-21 124 3 285q25 184 94 327t166.5 231t213.5 133t245 45q94 0 178.5 -28.5t156 -86.5t118 -146t64.5 -206.5t-3 -268.5q-27 -190 -94 -336t-163.5 -236t-214 -135.5t-251.5 -45.5q-87 0 -168 26.5t-154.5 83.5t-121.5 145.5t-69 212.5zM247.5 507
q13.5 -100 47 -170.5t87.5 -115t115 -65.5t130 -21q96 0 183 35.5t161.5 106t128 188.5t74.5 272q21 149 -1.5 264t-78.5 183.5t-132 102.5t-167 34q-94 0 -179.5 -34t-160 -102.5t-127.5 -183.5t-74 -264q-20 -130 -6.5 -230zM471 1642l18 138h744l-19 -138h-743z" />
    <glyph glyph-name="omacron" unicode="&#x14d;" horiz-adv-x="1191" 
d="M76 532q15 114 54.5 207.5t94 156.5t123.5 106.5t142.5 63t152.5 19.5q69 0 135 -20t125 -64.5t100 -108t58 -156.5t2 -204q-19 -136 -74 -243t-133 -173t-171.5 -100t-195.5 -34q-67 0 -131.5 20.5t-122.5 65t-99 107.5t-58 155.5t-2 201.5zM231 532q-14 -99 4.5 -178.5
t61 -127t97.5 -72.5t116 -25q67 0 130 23.5t118 70.5t94.5 126.5t54.5 182.5q15 105 -3.5 186.5t-61.5 128t-98 70t-119 23.5q-66 0 -127.5 -23t-116.5 -69.5t-95 -128t-55 -187.5zM307 1317l19 137h743l-18 -137h-744z" />
    <glyph glyph-name="Obreve" unicode="&#x14e;" horiz-adv-x="1421" 
d="M93 452q-21 124 3 285q25 184 94 327t166.5 231t213.5 133t245 45q94 0 178.5 -28.5t156 -86.5t118 -146t64.5 -206.5t-3 -268.5q-27 -190 -94 -336t-163.5 -236t-214 -135.5t-251.5 -45.5q-87 0 -168 26.5t-154.5 83.5t-121.5 145.5t-69 212.5zM247.5 507
q13.5 -100 47 -170.5t87.5 -115t115 -65.5t130 -21q96 0 183 35.5t161.5 106t128 188.5t74.5 272q21 149 -1.5 264t-78.5 183.5t-132 102.5t-167 34q-94 0 -179.5 -34t-160 -102.5t-127.5 -183.5t-74 -264q-20 -130 -6.5 -230zM514 1784l102 84q41 -59 106 -94t132 -35
q134 0 262 131l90 -86q-143 -187 -370 -187q-96 0 -185 52.5t-137 134.5z" />
    <glyph glyph-name="obreve" unicode="&#x14f;" horiz-adv-x="1191" 
d="M76 532q15 114 54.5 207.5t94 156.5t123.5 106.5t142.5 63t152.5 19.5q69 0 135 -20t125 -64.5t100 -108t58 -156.5t2 -204q-19 -136 -74 -243t-133 -173t-171.5 -100t-195.5 -34q-67 0 -131.5 20.5t-122.5 65t-99 107.5t-58 155.5t-2 201.5zM231 532q-14 -99 4.5 -178.5
t61 -127t97.5 -72.5t116 -25q67 0 130 23.5t118 70.5t94.5 126.5t54.5 182.5q15 105 -3.5 186.5t-61.5 128t-98 70t-119 23.5q-66 0 -127.5 -23t-116.5 -69.5t-95 -128t-55 -187.5zM348 1456l103 84q41 -59 105.5 -94t131.5 -35q134 0 262 131l90 -86q-142 -186 -370 -186
q-96 0 -185 52t-137 134z" />
    <glyph glyph-name="Ohungarumlaut" unicode="&#x150;" horiz-adv-x="1421" 
d="M93 452q-21 124 3 285q25 184 94 327t166.5 231t213.5 133t245 45q94 0 178.5 -28.5t156 -86.5t118 -146t64.5 -206.5t-3 -268.5q-27 -190 -94 -336t-163.5 -236t-214 -135.5t-251.5 -45.5q-87 0 -168 26.5t-154.5 83.5t-121.5 145.5t-69 212.5zM247.5 507
q13.5 -100 47 -170.5t87.5 -115t115 -65.5t130 -21q96 0 183 35.5t161.5 106t128 188.5t74.5 272q21 149 -1.5 264t-78.5 183.5t-132 102.5t-167 34q-94 0 -179.5 -34t-160 -102.5t-127.5 -183.5t-74 -264q-20 -130 -6.5 -230zM621 1604l225 356l137 -92l-225 -264h-137z
M934 1604l225 356l139 -92l-227 -264h-137z" />
    <glyph glyph-name="ohungarumlaut" unicode="&#x151;" horiz-adv-x="1191" 
d="M76 532q15 114 54.5 207.5t94 156.5t123.5 106.5t142.5 63t152.5 19.5q69 0 135 -20t125 -64.5t100 -108t58 -156.5t2 -204q-19 -136 -74 -243t-133 -173t-171.5 -100t-195.5 -34q-67 0 -131.5 20.5t-122.5 65t-99 107.5t-58 155.5t-2 201.5zM231 532q-14 -99 4.5 -178.5
t61 -127t97.5 -72.5t116 -25q67 0 130 23.5t118 70.5t94.5 126.5t54.5 182.5q15 105 -3.5 186.5t-61.5 128t-98 70t-119 23.5q-66 0 -127.5 -23t-116.5 -69.5t-95 -128t-55 -187.5zM434 1245l225 357l138 -93l-226 -264h-137zM748 1245l225 357l139 -93l-227 -264h-137z" />
    <glyph glyph-name="OE" unicode="&#x152;" horiz-adv-x="2074" 
d="M24 452q-21 124 3 285q20 148 69 270t117 207.5t154 144.5t181 86.5t197 27.5q140 0 258.5 -63t186.5 -185l33 229h911l-20 -149h-750l-70 -492h596l-22 -151h-596l-72 -512h768l-20 -150h-930l31 215q-194 -231 -512 -231q-87 0 -168 26.5t-154.5 83.5t-121.5 145.5
t-69 212.5zM177.5 507q13.5 -100 47 -170.5t87.5 -115t115 -65.5t130 -21q96 0 183 35.5t161.5 106t128 188.5t74.5 272q21 149 -1.5 264t-78.5 183.5t-132 102.5t-167 34q-94 0 -179.5 -34t-160 -102.5t-127.5 -183.5t-74 -264q-20 -130 -6.5 -230z" />
    <glyph glyph-name="oe" unicode="&#x153;" horiz-adv-x="1851" 
d="M6 532q15 114 54.5 207.5t94 156.5t123.5 106.5t142.5 63t152.5 19.5q120 0 225 -60.5t158 -176.5q80 115 197 176t248 61q88 0 166 -33t136.5 -94.5t85 -159.5t9.5 -218l-14 -103h-793q-11 -88 9.5 -158.5t64 -113t101 -64.5t122.5 -22q94 0 186.5 39t155.5 92l80 -105
q-189 -170 -448 -170q-121 0 -227 62t-161 180q-79 -117 -198 -176t-256 -59q-67 0 -131.5 20.5t-123 65t-99.5 107.5t-58 155.5t-2 201.5zM162 532q-14 -99 4.5 -178.5t61 -127t97 -72.5t115.5 -25q67 0 130 23.5t118.5 70.5t95 126.5t54.5 182.5q15 105 -3.5 186.5
t-62 128t-98.5 70t-119 23.5q-66 0 -127 -23t-116.5 -69.5t-95 -128t-54.5 -187.5zM1010 612h637q22 154 -55.5 242t-209.5 88q-131 0 -236.5 -92t-135.5 -238z" />
    <glyph glyph-name="Racute" unicode="&#x154;" horiz-adv-x="1284" 
d="M63 0l205 1454h480q221 0 344 -120.5t98 -301.5q-22 -157 -115.5 -257.5t-224.5 -133.5l211 -641h-168l-199 608h-385l-86 -608h-160zM330 758h332q159 0 253 71.5t113 202.5q19 128 -60 199.5t-231 71.5h-331zM653 1616l265 358l139 -125l-258 -233h-146z" />
    <glyph glyph-name="racute" unicode="&#x155;" horiz-adv-x="774" 
d="M63 0l150 1065h121l8 -135q48 68 128.5 111.5t174.5 43.5q27 0 72.5 -3t64.5 -3l-20 -151q-102 8 -146 8q-121 0 -202.5 -81.5t-104.5 -238.5l-86 -616h-160zM369 1251l264 359l139 -125l-258 -234h-145z" />
    <glyph glyph-name="uni0156" unicode="&#x156;" horiz-adv-x="1284" 
d="M63 0l205 1454h480q221 0 344 -120.5t98 -301.5q-22 -157 -115.5 -257.5t-224.5 -133.5l211 -641h-168l-199 608h-385l-86 -608h-160zM330 758h332q159 0 253 71.5t113 202.5q19 128 -60 199.5t-231 71.5h-331zM350 -397l88 309h185l-125 -309h-148z" />
    <glyph glyph-name="uni0157" unicode="&#x157;" horiz-adv-x="774" 
d="M-29 -442l88 309h185l-125 -309h-148zM63 0l150 1065h121l8 -135q48 68 128.5 111.5t174.5 43.5q27 0 72.5 -3t64.5 -3l-20 -151q-102 8 -146 8q-121 0 -202.5 -81.5t-104.5 -238.5l-86 -616h-160z" />
    <glyph glyph-name="Rcaron" unicode="&#x158;" horiz-adv-x="1284" 
d="M63 0l205 1454h480q221 0 344 -120.5t98 -301.5q-22 -157 -115.5 -257.5t-224.5 -133.5l211 -641h-168l-199 608h-385l-86 -608h-160zM330 758h332q159 0 253 71.5t113 202.5q19 128 -60 199.5t-231 71.5h-331zM477 1825l92 78l199 -154l242 154l67 -76l-250 -223h-157z
" />
    <glyph glyph-name="rcaron" unicode="&#x159;" horiz-adv-x="774" 
d="M63 0l150 1065h121l8 -135q48 68 128.5 111.5t174.5 43.5q27 0 72.5 -3t64.5 -3l-20 -151q-102 8 -146 8q-121 0 -202.5 -81.5t-104.5 -238.5l-86 -616h-160zM219 1493l92 78l199 -154l242 154l67 -76l-250 -223h-157z" />
    <glyph glyph-name="Sacute" unicode="&#x15a;" horiz-adv-x="1181" 
d="M14 244l131 86q58 -91 154 -143t215 -52q154 0 249 71t114 202q8 59 -4 104t-38 73.5t-72.5 49t-95.5 31t-118 18.5q-81 10 -149 38t-119.5 74t-75.5 116.5t-12 156.5q26 187 166.5 296.5t359.5 109.5q254 0 403 -183l-129 -100q-39 53 -123.5 95t-187.5 42
q-133 0 -224 -67.5t-108 -188.5q-8 -58 13 -102.5t67 -71.5t102 -42t127 -21q85 -8 155.5 -35.5t127 -76.5t82 -130t10.5 -184q-30 -213 -170 -320.5t-366 -107.5q-156 0 -288 76t-196 186zM627 1612l264 358l139 -125l-258 -233h-145z" />
    <glyph glyph-name="sacute" unicode="&#x15b;" horiz-adv-x="1011" 
d="M16 133l115 105q145 -111 293 -111q143 0 207.5 43t77.5 129q12 87 -51 123t-248 55q-129 13 -211.5 92.5t-63.5 204.5q19 133 138.5 222t295.5 89q109 0 202 -37.5t144 -89.5l-116 -110q-121 96 -250 96q-111 0 -178 -42.5t-78 -115.5q-5 -36 5 -62.5t29.5 -43
t54.5 -28.5t70 -18t87 -11q183 -21 266 -100t63 -224q-23 -149 -141 -236.5t-324 -87.5q-102 0 -207.5 42t-179.5 116zM471 1239l264 358l139 -124l-258 -234h-145z" />
    <glyph glyph-name="Scedilla" unicode="&#x15e;" horiz-adv-x="1181" 
d="M14 244l131 86q58 -91 154 -143t215 -52q154 0 249 71t114 202q8 59 -4 104t-38 73.5t-72.5 49t-95.5 31t-118 18.5q-81 10 -149 38t-119.5 74t-75.5 116.5t-12 156.5q26 187 166.5 296.5t359.5 109.5q254 0 403 -183l-129 -100q-39 53 -123.5 95t-187.5 42
q-133 0 -224 -67.5t-108 -188.5q-8 -58 13 -102.5t67 -71.5t102 -42t127 -21q85 -8 155.5 -35.5t127 -76.5t82 -130t10.5 -184q-29 -206 -163 -314t-351 -114l-18 -62q80 -13 135.5 -72t42.5 -145q-30 -215 -266 -215q-36 0 -76.5 10.5t-55 16.5t-51.5 22l64 123
q1 -1 12 -5.5t14 -5.5t13 -5.5t15 -5.5t14.5 -4.5t16.5 -4.5t16.5 -3t18.5 -2.5t19 -0.5q42 0 72.5 19.5t34.5 56.5q6 40 -23.5 64t-87.5 30l-80 8l58 187q-129 21 -235 92t-159 164z" />
    <glyph glyph-name="scedilla" unicode="&#x15f;" horiz-adv-x="1011" 
d="M16 133l115 105q145 -111 293 -111q143 0 207.5 43t77.5 129q12 87 -51 123t-248 55q-129 13 -211.5 92.5t-63.5 204.5q19 133 138.5 222t295.5 89q109 0 202 -37.5t144 -89.5l-116 -110q-121 96 -250 96q-111 0 -178 -42.5t-78 -115.5q-5 -36 5 -62.5t29.5 -43
t54.5 -28.5t70 -18t87 -11q183 -21 266 -100t63 -224q-21 -140 -128 -226.5t-294 -95.5l-20 -69q80 -13 135.5 -72t42.5 -145q-30 -215 -266 -215q-13 0 -25 1t-25 3.5t-22.5 4t-22.5 6t-20 6.5t-19.5 7.5t-16.5 7t-17 7t-14 6.5l63 123q1 -1 12 -5.5t14 -5.5t13 -5.5
t15 -5.5t14.5 -4.5t16.5 -4.5t16.5 -3t18.5 -2.5t19 -0.5q42 0 72.5 19.5t34.5 56.5q6 40 -23.5 64t-87.5 30l-80 8l58 193q-86 11 -170.5 50.5t-145.5 100.5z" />
    <glyph glyph-name="Scaron" unicode="&#x160;" horiz-adv-x="1181" 
d="M14 244l131 86q58 -91 154 -143t215 -52q154 0 249 71t114 202q8 59 -4 104t-38 73.5t-72.5 49t-95.5 31t-118 18.5q-81 10 -149 38t-119.5 74t-75.5 116.5t-12 156.5q26 187 166.5 296.5t359.5 109.5q254 0 403 -183l-129 -100q-39 53 -123.5 95t-187.5 42
q-133 0 -224 -67.5t-108 -188.5q-8 -58 13 -102.5t67 -71.5t102 -42t127 -21q85 -8 155.5 -35.5t127 -76.5t82 -130t10.5 -184q-30 -213 -170 -320.5t-366 -107.5q-156 0 -288 76t-196 186zM451 1821l92 77l198 -153l242 153l68 -75l-250 -224h-158z" />
    <glyph glyph-name="scaron" unicode="&#x161;" horiz-adv-x="1011" 
d="M16 133l115 105q145 -111 293 -111q143 0 207.5 43t77.5 129q12 87 -51 123t-248 55q-129 13 -211.5 92.5t-63.5 204.5q19 133 138.5 222t295.5 89q109 0 202 -37.5t144 -89.5l-116 -110q-121 96 -250 96q-111 0 -178 -42.5t-78 -115.5q-5 -36 5 -62.5t29.5 -43
t54.5 -28.5t70 -18t87 -11q183 -21 266 -100t63 -224q-23 -149 -141 -236.5t-324 -87.5q-102 0 -207.5 42t-179.5 116zM322 1481l92 78l198 -154l242 154l68 -76l-250 -223h-158z" />
    <glyph glyph-name="uni0162" unicode="&#x162;" horiz-adv-x="1189" 
d="M168 1303l22 151h1014l-22 -151h-426l-183 -1303h-49l-26 -86q80 -13 135.5 -72t42.5 -145q-30 -215 -266 -215q-36 0 -76.5 10.5t-55 16.5t-51.5 22l64 123q1 -1 12 -5.5t14 -5.5t13 -5.5t15 -5.5t14.5 -4.5t16.5 -4.5t16.5 -3t18.5 -2.5t19 -0.5q42 0 72.5 19.5
t34.5 56.5q6 40 -23.5 64t-87.5 30l-80 8l64 209l182 1299h-424z" />
    <glyph glyph-name="uni0163" unicode="&#x163;" horiz-adv-x="724" 
d="M63 -428l64 123q1 -1 12 -5.5t14 -5.5t13 -5.5t15 -5.5t14.5 -4.5t16.5 -4.5t16.5 -3t18.5 -2.5t19 -0.5q42 0 72.5 19.5t34.5 56.5q6 40 -23.5 64t-87.5 30l-80 8l64 209h24q-123 90 -98 277l84 600h-176l20 143h166l92 297h121l-41 -297h252l-20 -143h-252l-82 -584
q-26 -199 149 -199q53 0 76 2l-20 -141q-36 -8 -105 -8q-45 0 -86 14l-16 -51q80 -13 135.5 -72t42.5 -145q-30 -215 -266 -215q-36 0 -76.5 10.5t-55 16.5t-51.5 22z" />
    <glyph glyph-name="Tcaron" unicode="&#x164;" horiz-adv-x="1189" 
d="M168 1303l22 151h1014l-22 -151h-426l-183 -1303h-163l182 1303h-424zM442 1825l93 78l198 -154l242 154l67 -76l-249 -223h-158z" />
    <glyph glyph-name="tcaron" unicode="&#x165;" horiz-adv-x="835" 
d="M80 922l20 143h166l92 297h121l-41 -297h252l-20 -143h-252l-82 -584q-26 -199 149 -199q53 0 76 2l-20 -141q-36 -8 -105 -8q-53 0 -103 20t-91.5 58.5t-61.5 104t-8 147.5l84 600h-176zM657 1247l91 340h178l-127 -340h-142z" />
    <glyph glyph-name="Umacron" unicode="&#x16a;" horiz-adv-x="1341" 
d="M104 594l121 860h162l-121 -862q-32 -226 61.5 -344.5t260.5 -118.5q186 0 302.5 116t149.5 347l121 862h160l-121 -860q-43 -297 -208 -457t-427 -160q-113 0 -206 40t-158 115.5t-91.5 194.5t-5.5 267zM418 1610l18 137h744l-19 -137h-743z" />
    <glyph glyph-name="umacron" unicode="&#x16b;" 
d="M94 430l88 635h162l-88 -635q-21 -149 39.5 -227t183.5 -78q119 0 205 81t107 224l88 635h159l-149 -1065h-121l-4 139q-41 -65 -129.5 -113.5t-200.5 -48.5q-84 0 -152.5 29t-116.5 84t-67.5 142.5t-3.5 197.5zM276 1315l19 137h743l-18 -137h-744z" />
    <glyph glyph-name="Ubreve" unicode="&#x16c;" horiz-adv-x="1341" 
d="M104 594l121 860h162l-121 -862q-32 -226 61.5 -344.5t260.5 -118.5q186 0 302.5 116t149.5 347l121 862h160l-121 -860q-43 -297 -208 -457t-427 -160q-113 0 -206 40t-158 115.5t-91.5 194.5t-5.5 267zM461 1751l102 84q41 -59 106 -94t132 -35q134 0 262 131l90 -86
q-142 -186 -371 -186q-96 0 -184.5 52t-136.5 134z" />
    <glyph glyph-name="ubreve" unicode="&#x16d;" 
d="M94 430l88 635h162l-88 -635q-21 -149 39.5 -227t183.5 -78q119 0 205 81t107 224l88 635h159l-149 -1065h-121l-4 139q-41 -65 -129.5 -113.5t-200.5 -48.5q-84 0 -152.5 29t-116.5 84t-67.5 142.5t-3.5 197.5zM319 1454l103 84q41 -59 105.5 -94t131.5 -35
q135 0 263 131l90 -86q-142 -186 -371 -186q-96 0 -185 52t-137 134z" />
    <glyph glyph-name="Uring" unicode="&#x16e;" horiz-adv-x="1341" 
d="M104 594l121 860h162l-121 -862q-32 -226 61.5 -344.5t260.5 -118.5q186 0 302.5 116t149.5 347l121 862h160l-121 -860q-43 -297 -208 -457t-427 -160q-113 0 -206 40t-158 115.5t-91.5 194.5t-5.5 267zM561 1712q0 92 71 162t161 70q89 0 159 -70t70 -162
q0 -95 -69 -162t-160 -67q-92 0 -162 67t-70 162zM674 1710q0 -51 33.5 -84t85.5 -33t84 33t32 84q0 49 -33 85t-83 36t-84.5 -36.5t-34.5 -84.5z" />
    <glyph glyph-name="uring" unicode="&#x16f;" 
d="M94 430l88 635h162l-88 -635q-21 -149 39.5 -227t183.5 -78q119 0 205 81t107 224l88 635h159l-149 -1065h-121l-4 139q-41 -65 -129.5 -113.5t-200.5 -48.5q-84 0 -152.5 29t-116.5 84t-67.5 142.5t-3.5 197.5zM422 1444q0 92 70.5 161.5t160.5 69.5q89 0 159.5 -70
t70.5 -161q0 -95 -69.5 -162.5t-160.5 -67.5q-92 0 -161.5 67.5t-69.5 162.5zM535 1442q0 -51 33 -84t85 -33t84.5 33t32.5 84q0 49 -33.5 85t-83.5 36t-84 -36.5t-34 -84.5z" />
    <glyph glyph-name="Uhungarumlaut" unicode="&#x170;" horiz-adv-x="1341" 
d="M104 594l121 860h162l-121 -862q-32 -226 61.5 -344.5t260.5 -118.5q186 0 302.5 116t149.5 347l121 862h160l-121 -860q-43 -297 -208 -457t-427 -160q-113 0 -206 40t-158 115.5t-91.5 194.5t-5.5 267zM567 1571l226 356l137 -92l-225 -264h-138zM881 1571l225 356
l139 -92l-227 -264h-137z" />
    <glyph glyph-name="uhungarumlaut" unicode="&#x171;" 
d="M94 430l88 635h162l-88 -635q-21 -149 39.5 -227t183.5 -78q119 0 205 81t107 224l88 635h159l-149 -1065h-121l-4 139q-41 -65 -129.5 -113.5t-200.5 -48.5q-84 0 -152.5 29t-116.5 84t-67.5 142.5t-3.5 197.5zM406 1243l225 356l137 -92l-225 -264h-137zM719 1243
l225 356l139 -92l-227 -264h-137z" />
    <glyph glyph-name="Uogonek" unicode="&#x172;" horiz-adv-x="1341" 
d="M104 594l121 860h162l-121 -862q-32 -226 61.5 -344.5t260.5 -118.5q186 0 302.5 116t149.5 347l121 862h160l-121 -860q-31 -216 -128 -361t-251 -208l-211 -203q-35 -31 -23 -58.5t70 -27.5h123l-20 -144h-154q-68 0 -116 28.5t-66 71t-4.5 97t61.5 102.5q29 32 86 86
h-2q-113 0 -206 40t-158 115.5t-91.5 194.5t-5.5 267z" />
    <glyph glyph-name="uogonek" unicode="&#x173;" 
d="M94 430l88 635h162l-88 -635q-21 -149 39.5 -227t183.5 -78q119 0 205 81t107 224l88 635h159l-149 -1065l-219 -211q-35 -31 -23 -58.5t70 -27.5h123l-21 -143h-153q-68 0 -116 28.5t-66 71t-4.5 97t61.5 102.5q45 49 202 198q7 7 23 15l-2 67q-41 -65 -129.5 -113.5
t-200.5 -48.5q-84 0 -152.5 29t-116.5 84t-67.5 142.5t-3.5 197.5z" />
    <glyph glyph-name="Wcircumflex" unicode="&#x174;" horiz-adv-x="1880" 
d="M162 1454h166l159 -1184l488 1084h117l180 -1094l481 1194h170l-594 -1454h-178l-164 1018l-459 -1018h-166zM778 1610l252 225h158l188 -221l-92 -76l-194 152l-242 -154z" />
    <glyph glyph-name="wcircumflex" unicode="&#x175;" horiz-adv-x="1529" 
d="M100 1065h166l117 -801l369 801h125l151 -797l328 797h168l-453 -1065h-156l-149 735l-352 -735h-148zM547 1309l252 225h157l189 -221l-92 -76l-195 152l-242 -154z" />
    <glyph glyph-name="Ycircumflex" unicode="&#x176;" horiz-adv-x="1255" 
d="M164 1454h174l289 -696l483 696h186l-612 -879l-80 -575h-158l80 575zM465 1636l252 226h157l189 -222l-92 -75l-195 151l-241 -153z" />
    <glyph glyph-name="ycircumflex" unicode="&#x177;" horiz-adv-x="1044" 
d="M100 1065h166l176 -856l432 856h164l-757 -1473h-158l215 406v4zM307 1311l252 225h158l188 -221l-92 -76l-195 152l-241 -154z" />
    <glyph glyph-name="Ydieresis" unicode="&#x178;" horiz-adv-x="1255" 
d="M164 1454h174l289 -696l483 696h186l-612 -879l-80 -575h-158l80 575zM451 1690q0 42 31.5 73t70.5 31q42 0 73 -31t31 -73t-31.5 -73.5t-72.5 -31.5q-39 0 -70.5 31.5t-31.5 73.5zM877 1690q0 42 31 73t71 31t72 -31t32 -73t-32 -73.5t-72 -31.5t-71 31.5t-31 73.5z" />
    <glyph glyph-name="Zacute" unicode="&#x179;" horiz-adv-x="1155" 
d="M-25 0l21 150l946 1153h-760l23 151h971l-19 -133l-964 -1169h802l-20 -152h-1000zM596 1618l264 358l139 -125l-258 -233h-145z" />
    <glyph glyph-name="zacute" unicode="&#x17a;" horiz-adv-x="944" 
d="M-6 0l18 127l654 791h-533l21 147h727l-17 -117l-657 -798h559l-21 -150h-751zM420 1243l264 359l139 -125l-258 -234h-145z" />
    <glyph glyph-name="Zdotaccent" unicode="&#x17b;" horiz-adv-x="1155" 
d="M-25 0l21 150l946 1153h-760l23 151h971l-19 -133l-964 -1169h802l-20 -152h-1000zM596 1718q0 43 35.5 77t77.5 34t76 -33.5t34 -77.5q0 -46 -33.5 -78t-76.5 -32t-78 32t-35 78z" />
    <glyph glyph-name="zdotaccent" unicode="&#x17c;" horiz-adv-x="944" 
d="M-6 0l18 127l654 791h-533l21 147h727l-17 -117l-657 -798h559l-21 -150h-751zM449 1370q0 44 35 77.5t77 33.5t76.5 -33.5t34.5 -77.5q0 -46 -34 -78t-77 -32t-77.5 32t-34.5 78z" />
    <glyph glyph-name="Zcaron" unicode="&#x17d;" horiz-adv-x="1155" 
d="M-25 0l21 150l946 1153h-760l23 151h971l-19 -133l-964 -1169h802l-20 -152h-1000zM420 1827l92 78l199 -154l241 154l68 -76l-250 -223h-158z" />
    <glyph glyph-name="zcaron" unicode="&#x17e;" horiz-adv-x="944" 
d="M-6 0l18 127l654 791h-533l21 147h727l-17 -117l-657 -798h559l-21 -150h-751zM270 1485l92 78l199 -154l242 154l67 -76l-249 -223h-158z" />
    <glyph glyph-name="uni01DD" unicode="&#x1dd;" horiz-adv-x="1177" 
d="M78 483l14 103h793q11 88 -9.5 158.5t-64 113t-101 64.5t-122.5 22q-94 0 -186.5 -39t-155.5 -92l-80 105q188 169 448 169q70 0 136.5 -21t125.5 -66t100.5 -109t59 -157t2.5 -202q-37 -259 -196 -407t-367 -148q-88 0 -166 33t-136.5 94.5t-85 160t-9.5 218.5zM229 451
q-22 -154 55.5 -242t209.5 -88q131 0 236.5 92t135.5 238h-637z" />
    <glyph glyph-name="Aringacute" unicode="&#x1fa;" horiz-adv-x="1363" 
d="M-51 0l756 1454h163l342 -1454h-163l-89 367h-651l-190 -367h-168zM385 516h537l-170 709zM588 1772q0 92 70.5 161.5t160.5 69.5q89 0 159.5 -70t70.5 -161q0 -95 -69.5 -162.5t-160.5 -67.5q-92 0 -161.5 67.5t-69.5 162.5zM700 1769q0 -51 33.5 -83.5t85.5 -32.5
t84.5 32.5t32.5 83.5q0 49 -33.5 85t-83.5 36t-84.5 -36.5t-34.5 -84.5zM760 2068l264 359l139 -125l-258 -234h-145z" />
    <glyph glyph-name="aringacute" unicode="&#x1fb;" horiz-adv-x="1222" 
d="M78 541q19 135 74 241.5t131.5 171t163.5 98t178 33.5q109 0 199.5 -57.5t109.5 -134.5l45 172h147l-149 -1065h-137l4 172q-46 -84 -150 -137t-223 -53q-58 0 -118 20.5t-116.5 66t-97.5 109t-58.5 158t-2.5 205.5zM239.5 376.5q13.5 -69.5 40.5 -117t68.5 -77
t82.5 -42.5t83 -13q60 0 119 25t111.5 73.5t91 129.5t53.5 184q27 190 -48 294.5t-212 104.5q-62 0 -121.5 -21.5t-115.5 -66.5t-96.5 -125t-55.5 -186q-14 -93 -0.5 -162.5zM483 1407q0 91 71 161t161 70q89 0 159 -70t70 -161q0 -95 -69 -162t-160 -67q-92 0 -162 67
t-70 162zM596 1405q0 -51 33.5 -84t85.5 -33t84 33t32 84q0 49 -33 85t-83 36t-84.5 -36.5t-34.5 -84.5zM633 1761l264 359l139 -125l-258 -234h-145z" />
    <glyph glyph-name="AEacute" unicode="&#x1fc;" horiz-adv-x="1982" 
d="M-111 0l1088 1454h971l-21 -149h-733l-70 -494h590l-22 -149h-590l-72 -512h737l-20 -150h-895l51 358h-561l-272 -358h-181zM451 506h473l108 774zM1087 1593l265 359l139 -125l-258 -234h-146z" />
    <glyph glyph-name="aeacute" unicode="&#x1fd;" horiz-adv-x="1744" 
d="M-27 301q22 158 152.5 251t331.5 93q177 0 272 -31l2 15q11 162 -45 241.5t-192 79.5q-26 0 -49 -2t-44.5 -8t-37 -9.5t-34.5 -14t-28 -14.5t-26.5 -17.5t-21.5 -16t-21 -17.5l-17 -15l-104 79q65 72 168.5 123.5t240.5 51.5q279 0 348 -218q81 103 191.5 158t234.5 55
q88 0 166.5 -33t137 -94.5t85 -159.5t9.5 -218l-15 -103h-792q-11 -88 9.5 -158.5t64 -113t101 -64.5t122.5 -22q94 0 186.5 39t155.5 92l80 -105q-189 -170 -449 -170q-113 0 -216.5 57t-160.5 165q-68 -117 -177.5 -165t-266.5 -48q-172 0 -276.5 91t-84.5 226zM125 311
q-11 -82 52 -136t169 -54q303 0 359 313l6 47q-40 18 -119.5 27t-149.5 4q-140 -3 -222.5 -58t-94.5 -143zM807 1260l264 358l139 -125l-258 -233h-145zM903 612h637q22 154 -55 242t-209 88q-131 0 -237 -92t-136 -238z" />
    <glyph glyph-name="Oslashacute" unicode="&#x1fe;" horiz-adv-x="1368" 
d="M96 737q25 184 94 327t166.5 231t213.5 133t245 45q164 0 295 -87l76 105l110 -86l-82 -113q164 -203 115 -555q-27 -190 -94 -336t-163.5 -236t-214 -135.5t-251.5 -45.5q-163 0 -291 86l-88 -121l-112 86l96 131q-169 208 -115 571zM254 737q-40 -271 57 -434l703 954
q-94 64 -219 64q-94 0 -179.5 -34t-160 -102.5t-127.5 -183.5t-74 -264zM412 199q94 -64 215 -64q96 0 183 35.5t161.5 106t128 188.5t74.5 272q35 261 -60 418zM680 1602l264 358l139 -125l-258 -233h-145z" />
    <glyph glyph-name="oslashacute" unicode="&#x1ff;" horiz-adv-x="1193" 
d="M78 532q15 114 54.5 207.5t94 156.5t123.5 106.5t142.5 63t152.5 19.5q132 0 238 -69l63 80l105 -80l-70 -88q119 -153 84 -396q-19 -136 -73.5 -243t-132.5 -173t-171.5 -100t-195.5 -34q-117 0 -216 57l-61 -78l-106 78l67 84q-136 156 -98 409zM233 532
q-24 -165 46 -278l507 641q-68 45 -159 45q-66 0 -127.5 -23t-116.5 -69.5t-95 -128t-55 -187.5zM375 164q65 -35 137 -35q67 0 130 23.5t118 70.5t94.5 126.5t54.5 182.5q20 165 -32 265zM557 1245l264 359l140 -125l-259 -234h-145z" />
    <glyph glyph-name="uni0218" unicode="&#x218;" horiz-adv-x="1181" 
d="M14 244l131 86q58 -91 154 -143t215 -52q154 0 249 71t114 202q8 59 -4 104t-38 73.5t-72.5 49t-95.5 31t-118 18.5q-81 10 -149 38t-119.5 74t-75.5 116.5t-12 156.5q26 187 166.5 296.5t359.5 109.5q254 0 403 -183l-129 -100q-39 53 -123.5 95t-187.5 42
q-133 0 -224 -67.5t-108 -188.5q-8 -58 13 -102.5t67 -71.5t102 -42t127 -21q85 -8 155.5 -35.5t127 -76.5t82 -130t10.5 -184q-30 -213 -170 -320.5t-366 -107.5q-156 0 -288 76t-196 186zM307 -432l88 309h185l-125 -309h-148z" />
    <glyph glyph-name="uni0219" unicode="&#x219;" horiz-adv-x="1011" 
d="M16 133l115 105q145 -111 293 -111q143 0 207.5 43t77.5 129q12 87 -51 123t-248 55q-129 13 -211.5 92.5t-63.5 204.5q19 133 138.5 222t295.5 89q109 0 202 -37.5t144 -89.5l-116 -110q-121 96 -250 96q-111 0 -178 -42.5t-78 -115.5q-5 -36 5 -62.5t29.5 -43
t54.5 -28.5t70 -18t87 -11q183 -21 266 -100t63 -224q-23 -149 -141 -236.5t-324 -87.5q-102 0 -207.5 42t-179.5 116zM213 -444l88 309h184l-125 -309h-147z" />
    <glyph glyph-name="uni021A" unicode="&#x21a;" horiz-adv-x="1189" 
d="M168 1303l22 151h1014l-22 -151h-426l-183 -1303h-163l182 1303h-424zM303 -438l88 309h184l-124 -309h-148z" />
    <glyph glyph-name="uni021B" unicode="&#x21b;" horiz-adv-x="716" 
d="M80 922l20 143h166l92 297h121l-41 -297h252l-20 -143h-252l-82 -584q-26 -199 149 -199q53 0 76 2l-20 -141q-36 -8 -105 -8q-53 0 -103 20t-91.5 58.5t-61.5 104t-8 147.5l84 600h-176zM143 -438l88 309h185l-125 -309h-148z" />
    <glyph glyph-name="circumflex" unicode="&#x2c6;" horiz-adv-x="598" 
d="M76 1266l252 225h157l189 -221l-92 -76l-195 152l-242 -154z" />
    <glyph glyph-name="caron" unicode="&#x2c7;" horiz-adv-x="598" 
d="M96 1419l92 78l199 -154l242 154l67 -76l-250 -223h-157z" />
    <glyph glyph-name="breve" unicode="&#x2d8;" horiz-adv-x="694" 
d="M90 1362l103 84q41 -59 105.5 -94t131.5 -35q134 0 262 131l90 -86q-142 -186 -370 -186q-96 0 -185 52t-137 134z" />
    <glyph glyph-name="dotaccent" unicode="&#x2d9;" horiz-adv-x="225" 
d="M90 1360q0 43 35.5 76.5t77.5 33.5t76 -33t34 -77q0 -46 -33.5 -78.5t-76.5 -32.5t-78 32.5t-35 78.5z" />
    <glyph glyph-name="ring" unicode="&#x2da;" horiz-adv-x="464" 
d="M88 1341q0 92 70.5 162t160.5 70q89 0 159.5 -70.5t70.5 -161.5q0 -95 -69.5 -162t-160.5 -67q-92 0 -161.5 67t-69.5 162zM201 1339q0 -51 33 -83.5t85 -32.5t84.5 32.5t32.5 83.5q0 49 -33.5 85t-83.5 36t-84 -36.5t-34 -84.5z" />
    <glyph glyph-name="ogonek" unicode="&#x2db;" horiz-adv-x="944" 
d="M155.5 -284.5q13.5 54.5 61.5 102.5q39 42 203 198q14 15 39.5 19.5t44.5 2.5l18 -3l43 -76l-219 -211q-35 -31 -23 -58.5t70 -27.5h123l-20 -143h-154q-68 0 -116 28.5t-66 71t-4.5 97z" />
    <glyph glyph-name="tilde" unicode="&#x2dc;" horiz-adv-x="741" 
d="M61 1163q20 77 90.5 138.5t165.5 68.5q56 3 102.5 -10.5t72 -31.5t55 -32.5t55.5 -13.5q48 3 82 27.5t47 56.5l94 -35q-9 -58 -71 -120.5t-154 -69.5q-44 -3 -84.5 11t-66.5 31.5t-62.5 32t-73.5 13.5q-116 -7 -161 -96z" />
    <glyph glyph-name="hungarumlaut" unicode="&#x2dd;" horiz-adv-x="641" 
d="M61 1169l226 357l137 -92l-225 -265h-138zM375 1169l225 357l139 -92l-227 -265h-137z" />
    <glyph glyph-name="Wgrave" unicode="&#x1e80;" horiz-adv-x="1880" 
d="M162 1454h166l159 -1184l488 1084h117l180 -1094l481 1194h170l-594 -1454h-178l-164 1018l-459 -1018h-166zM825 1794l176 125l162 -358h-145z" />
    <glyph glyph-name="wgrave" unicode="&#x1e81;" horiz-adv-x="1529" 
d="M100 1065h166l117 -801l369 801h125l151 -797l328 797h168l-453 -1065h-156l-149 735l-352 -735h-148zM612 1481l176 125l162 -359h-145z" />
    <glyph glyph-name="Wacute" unicode="&#x1e82;" horiz-adv-x="1880" 
d="M162 1454h166l159 -1184l488 1084h117l180 -1094l481 1194h170l-594 -1454h-178l-164 1018l-459 -1018h-166zM971 1573l264 358l139 -125l-258 -233h-145z" />
    <glyph glyph-name="wacute" unicode="&#x1e83;" horiz-adv-x="1529" 
d="M100 1065h166l117 -801l369 801h125l151 -797l328 797h168l-453 -1065h-156l-149 735l-352 -735h-148zM717 1243l264 359l139 -125l-258 -234h-145z" />
    <glyph glyph-name="Wdieresis" unicode="&#x1e84;" horiz-adv-x="1880" 
d="M162 1454h166l159 -1184l488 1084h117l180 -1094l481 1194h170l-594 -1454h-178l-164 1018l-459 -1018h-166zM764 1663q0 42 31.5 73t70.5 31q42 0 73.5 -31t31.5 -73t-31.5 -73t-73.5 -31q-39 0 -70.5 31t-31.5 73zM1190 1663q0 42 31 73t71 31q41 0 73 -31t32 -73
t-32 -73t-73 -31q-40 0 -71 31t-31 73z" />
    <glyph glyph-name="wdieresis" unicode="&#x1e85;" horiz-adv-x="1529" 
d="M100 1065h166l117 -801l369 801h125l151 -797l328 797h168l-453 -1065h-156l-149 735l-352 -735h-148zM537 1370q0 42 31.5 73.5t70.5 31.5q41 0 72.5 -31.5t31.5 -73.5t-31 -73t-73 -31q-39 0 -70.5 31t-31.5 73zM963 1370q0 42 31 73.5t71 31.5t72 -31.5t32 -73.5
t-32 -73t-72 -31t-71 31t-31 73z" />
    <glyph glyph-name="Ygrave" unicode="&#x1ef2;" horiz-adv-x="1255" 
d="M164 1454h174l289 -696l483 696h186l-612 -879l-80 -575h-158l80 575zM512 1821l176 125l162 -359h-145z" />
    <glyph glyph-name="ygrave" unicode="&#x1ef3;" horiz-adv-x="1044" 
d="M100 1065h166l176 -856l432 856h164l-757 -1473h-158l215 406v4zM373 1483l176 125l162 -359h-146z" />
    <glyph glyph-name="endash" unicode="&#x2013;" horiz-adv-x="1124" 
d="M121 510l20 152h820l-21 -152h-819z" />
    <glyph glyph-name="emdash" unicode="&#x2014;" horiz-adv-x="1888" 
d="M203 510l20 152h1422l-21 -152h-1421z" />
    <glyph glyph-name="quoteleft" unicode="&#x2018;" horiz-adv-x="475" 
d="M207 1454h178l25 -442h-142z" />
    <glyph glyph-name="quoteright" unicode="&#x2019;" horiz-adv-x="475" 
d="M143 1012l152 442h178l-188 -442h-142z" />
    <glyph glyph-name="quotesinglbase" unicode="&#x201a;" horiz-adv-x="438" 
d="M18 2l64 442h147l-63 -442h-148z" />
    <glyph glyph-name="quotedblleft" unicode="&#x201c;" horiz-adv-x="843" 
d="M207 1454h178l25 -442h-142zM575 1454h179l24 -442h-141z" />
    <glyph glyph-name="quotedblright" unicode="&#x201d;" horiz-adv-x="841" 
d="M143 1012l152 442h178l-188 -442h-142zM510 1012l152 442h178l-189 -442h-141z" />
    <glyph glyph-name="quotedblbase" unicode="&#x201e;" horiz-adv-x="755" 
d="M18 2l64 442h147l-63 -442h-148zM336 2l63 442h148l-64 -442h-147z" />
    <glyph glyph-name="dagger" unicode="&#x2020;" horiz-adv-x="1011" 
d="M209 1016l18 137h269l41 283h145l-41 -283h262l-18 -137h-262l-95 -662h-145l94 662h-268z" />
    <glyph glyph-name="daggerdbl" unicode="&#x2021;" horiz-adv-x="1013" 
d="M156 637l18 137h264l35 242h-262l18 137h263l40 285h148l-41 -285h266l-18 -137h-266l-35 -242h264l-19 -137h-264l-41 -285h-147l41 285h-264z" />
    <glyph glyph-name="bullet" unicode="&#x2022;" horiz-adv-x="628" 
d="M145 713q0 69 52 120.5t118 51.5q67 0 117.5 -51t50.5 -121q0 -69 -50.5 -117.5t-117.5 -48.5q-66 0 -118 48.5t-52 117.5z" />
    <glyph glyph-name="ellipsis" unicode="&#x2026;" horiz-adv-x="1271" 
d="M27 102q0 46 34 79.5t78 33.5t79.5 -33.5t35.5 -79.5q0 -48 -35.5 -82t-79.5 -34t-78 34t-34 82zM438 102q0 46 35 79.5t80 33.5t80 -33.5t35 -79.5q0 -48 -35 -82t-80 -34t-80 34t-35 82zM842 102q0 46 34.5 79.5t79.5 33.5q44 0 78.5 -33.5t34.5 -79.5q0 -48 -34.5 -82
t-78.5 -34q-45 0 -79.5 34t-34.5 82z" />
    <glyph glyph-name="guilsinglleft" unicode="&#x2039;" horiz-adv-x="741" 
d="M139 555l13 90l325 299l94 -106l-270 -242l178 -250l-112 -102z" />
    <glyph glyph-name="guilsinglright" unicode="&#x203a;" horiz-adv-x="737" 
d="M158 336l270 242l-178 249l112 103l228 -312l-12 -90l-326 -299z" />
    <glyph glyph-name="Euro" unicode="&#x20ac;" horiz-adv-x="1409" 
d="M51 469l23 156h155q1 10 11 90q9 55 18 108h-158l23 154h178q82 240 249 370t421 130q84 0 149.5 -9.5t124.5 -33.5t80 -35t78 -45l-90 -137q-75 48 -157.5 76t-201.5 28q-182 0 -299.5 -85.5t-181.5 -258.5h733l-82 -154h-694q-11 -58 -18 -104q-11 -87 -11 -94h631
l-82 -156h-547q40 -342 400 -342q101 0 191.5 26.5t193.5 77.5l-23 -163q-166 -93 -397 -93q-228 0 -372 126.5t-165 367.5h-180z" />
    <glyph glyph-name="arrowleft" unicode="&#x2190;" horiz-adv-x="1701" 
d="M150 684l661 584l98 -113l-452 -395h1024l-21 -154h-1024l340 -397l-129 -111z" />
    <glyph glyph-name="arrowup" unicode="&#x2191;" horiz-adv-x="1298" 
d="M76 897l663 580l508 -580l-129 -117l-336 400l-168 -1172h-159l168 1172l-451 -396z" />
    <glyph glyph-name="arrowright" unicode="&#x2192;" horiz-adv-x="1685" 
d="M176 594l21 154h1030l-344 401l127 106l497 -581l-661 -590l-101 113l455 397h-1024z" />
    <glyph glyph-name="arrowdown" unicode="&#x2193;" horiz-adv-x="1292" 
d="M27 567l129 107l336 -406l165 1178h156l-164 -1170l453 398l96 -115l-668 -579z" />
    <glyph glyph-name="minus" unicode="&#x2212;" horiz-adv-x="1292" 
d="M166 596l20 154h928l-20 -154h-928z" />
    <glyph glyph-name="uni25FC" unicode="&#x25fc;" horiz-adv-x="1064" 
d="M0 0v1065h1065v-1065h-1065z" />
    <glyph glyph-name="uniF6C3" unicode="&#xf6c3;" horiz-adv-x="229" 
d="M-158 -395l88 309h185l-125 -309h-148z" />
    <glyph glyph-name="glyph338" horiz-adv-x="770" 
d="M-61 -365l18 134l311 305q25 25 59 57.5t49.5 48t35.5 36t29 32.5t16.5 26t9.5 27q9 56 -26.5 92.5t-94.5 36.5q-138 0 -182 -127h-131q13 117 110.5 191.5t221.5 74.5t194.5 -79.5t52.5 -188.5q-7 -38 -21.5 -70.5t-40.5 -64.5t-47 -53.5t-61.5 -59t-62.5 -59.5
l-223 -221h391l-19 -138h-589z" />
    <glyph glyph-name="glyph339" horiz-adv-x="1251" 
d="M33 244l137 88q120 -187 375 -187q143 0 246 69t118 185q10 72 -12.5 126t-71.5 85.5t-110.5 48t-136.5 19.5q-83 4 -156 33t-127 78.5t-80 122t-14 157.5q24 171 154.5 277t320.5 124l33 232h155l-33 -232q234 -26 338 -178l-133 -108q-36 58 -115.5 95.5t-193.5 37.5
q-151 0 -245 -61.5t-109 -182.5q-7 -53 6.5 -93.5t41.5 -65.5t72 -41.5t89.5 -24t103.5 -10.5q61 -3 119.5 -19t114.5 -50t95 -81.5t57.5 -120.5t6.5 -161q-27 -187 -146.5 -292t-309.5 -126l-37 -260h-156l37 256q-140 14 -258 88t-176 172z" />
    <glyph glyph-name="glyph340" horiz-adv-x="1128" 
d="M74 522q17 127 69 231.5t125.5 172.5t159 108t174.5 49l43 215h172l-49 -227q116 -31 193 -118.5t86 -221.5h-162q-35 207 -258 207q-47 0 -95.5 -14t-98 -46.5t-90.5 -79.5t-71.5 -119.5t-42.5 -160.5q-13 -86 -0.5 -152t40 -113t68.5 -77.5t84.5 -44.5t88.5 -14
q108 0 189.5 47.5t123.5 132.5h162q-53 -141 -165 -226t-269 -98l-59 -227h-166l53 242q-70 19 -129.5 61t-106 106t-66 159t-3.5 208z" />
    </font>
</defs>
</svg>
