<?xml version="1.0" standalone="no"?>
<!DOCTYPE svg PUBLIC "-//W3C//DTD SVG 1.1//EN" "http://www.w3.org/Graphics/SVG/1.1/DTD/svg11.dtd" >
<svg xmlns="http://www.w3.org/2000/svg" xmlns:xlink="http://www.w3.org/1999/xlink" version="1.1">
<metadata>
Created by FontForge 20170731 at Thu Jan 21 20:34:43 2021
 By Aleksey,,,
2018
</metadata>
<defs>
<font id="Klima-Regular" horiz-adv-x="1181" >
  <font-face 
    font-family="Klima"
    font-weight="453"
    font-stretch="normal"
    units-per-em="2048"
    panose-1="2 1 5 3 4 2 0 0 0 3"
    ascent="1638"
    descent="-410"
    x-height="1069"
    cap-height="1454"
    bbox="-35.2414 -541 2087 2425"
    underline-thickness="163"
    underline-position="-572"
    unicode-range="U+000D-F6C3"
  />
<missing-glyph horiz-adv-x="1273" 
d="M121 -104v1568h1024v-1568h-1024zM246 14h772v1332h-772v-1332z" />
    <glyph glyph-name=".notdef" horiz-adv-x="1273" 
d="M121 -104v1568h1024v-1568h-1024zM246 14h772v1332h-772v-1332z" />
    <glyph glyph-name=".null" horiz-adv-x="0" 
 />
    <glyph glyph-name="nonmarkingreturn" horiz-adv-x="682" 
 />
    <glyph glyph-name="CR" unicode="&#xd;" horiz-adv-x="473" 
 />
    <glyph glyph-name="space" unicode=" " horiz-adv-x="370" 
 />
    <glyph glyph-name="exclam" unicode="!" horiz-adv-x="579" 
d="M242 422l-56 483v549h205v-549l-55 -483h-94zM289 -12q-47 0 -81 33.5t-34 84.5t34 85t81 34t82 -34t35 -85t-35 -84.5t-82 -33.5z" />
    <glyph glyph-name="quotedbl" unicode="&#x22;" horiz-adv-x="808" 
d="M494 1454h165v-450h-165v450zM147 1454h166v-450h-166v450z" />
    <glyph glyph-name="numbersign" unicode="#" horiz-adv-x="1568" 
d="M334 0l55 399h-274v162h295l47 336h-342v160h362l55 397h177l-56 -397h344l56 397h172l-56 -397h289v-160h-309l-47 -336h356v-162h-377l-55 -399h-172l55 399h-346l-55 -399h-174zM586 561h344l47 336h-346z" />
    <glyph glyph-name="dollar" unicode="$" horiz-adv-x="1267" 
d="M569 -264v250q-144 18 -259 87t-189 167l131 118q80 -94 176 -146t221 -52q143 0 222 64.5t79 185.5q0 57 -16.5 98.5t-44 68t-74 45.5t-93.5 28.5t-116 17.5q-62 8 -120.5 26.5t-114 52t-96.5 77t-66 105t-25 132.5q0 169 101.5 277t283.5 130v226h174v-224
q216 -23 359 -180l-133 -119q-44 56 -128 92.5t-198 36.5q-127 0 -201.5 -60.5t-74.5 -172.5q0 -105 81.5 -152.5t245.5 -68.5q91 -11 166 -38.5t139.5 -77t101 -130t36.5 -186.5q1 -186 -106.5 -294.5t-287.5 -131.5v-252h-174z" />
    <glyph glyph-name="percent" unicode="%" horiz-adv-x="1667" 
d="M449 782q-131 0 -221.5 92.5t-90.5 249.5q0 151 89.5 245.5t219.5 94.5q135 0 224.5 -92t89.5 -246q0 -163 -87.5 -253.5t-223.5 -90.5zM231 0l1006 1454h186l-1007 -1454h-185zM451 920q73 0 120 52.5t47 149.5q0 92 -47 147.5t-120 55.5q-74 0 -122 -55.5t-48 -147.5
q0 -94 48 -148t122 -54zM1210 -14q-130 0 -221.5 93t-91.5 249q0 153 90.5 246.5t222.5 93.5q134 0 223 -92t89 -248q0 -162 -87.5 -252t-224.5 -90zM1212 123q73 0 120.5 53.5t47.5 149.5q0 92 -46.5 146t-121.5 54q-74 0 -121 -54t-47 -146q0 -93 47 -148t121 -55z" />
    <glyph glyph-name="ampersand" unicode="&#x26;" horiz-adv-x="1396" 
d="M524 -12q-195 -1 -319.5 121.5t-124.5 304.5q0 132 77.5 241t217.5 179q-2 2 -15 19.5t-18.5 25.5t-19 27.5t-21 33t-19 34.5t-18 39t-13.5 39.5t-10 43t-3 43.5q0 138 99.5 236t260.5 98q159 0 253.5 -100t94.5 -247q0 -120 -85.5 -211t-215.5 -147q-1 0 74.5 -83
t150.5 -166l76 -83l166 189h221l-276 -310l264 -317h-213l-168 192q-188 -200 -416 -202zM539 889q109 41 172 101.5t63 131.5q0 85 -48.5 139.5t-133.5 53.5q-73 -2 -126.5 -51t-53.5 -131q0 -27 7 -54.5t15 -46t25.5 -44.5t25.5 -36t30 -35t24 -28zM524 156q86 0 163.5 46
t135.5 117q1 0 -83.5 94.5t-170 188.5t-86.5 94q-112 -41 -167.5 -112.5t-55.5 -161.5q0 -115 72.5 -190.5t191.5 -75.5z" />
    <glyph glyph-name="quotesingle" unicode="'" horiz-adv-x="460" 
d="M147 1454h166v-450h-166v450z" />
    <glyph glyph-name="parenleft" unicode="(" horiz-adv-x="643" 
d="M381 -225q-118 164 -199 400.5t-80 494.5q0 275 66 484.5t203 414.5l153 -101q-121 -177 -180 -364.5t-59 -433.5q-1 -236 67 -437t176 -352z" />
    <glyph glyph-name="parenright" unicode=")" horiz-adv-x="643" 
d="M215 1569q118 -164 199 -400.5t80 -494.5q0 -275 -66 -484.5t-203 -414.5l-153 100q121 177 180 365t59 434q1 236 -67 436.5t-176 351.5z" />
    <glyph glyph-name="asterisk" unicode="*" horiz-adv-x="862" 
d="M293 852l-105 76l134 192l-205 60l35 129l206 -62v236h140l-2 -236l215 64l34 -125l-208 -66l135 -194l-107 -76l-135 190z" />
    <glyph glyph-name="plus" unicode="+" horiz-adv-x="1265" 
d="M543 225v363h-355v172h355v358h176v-358h358v-172h-358v-363h-176z" />
    <glyph glyph-name="comma" unicode="," horiz-adv-x="514" 
d="M199 186h198l-112 -393h-160z" />
    <glyph glyph-name="hyphen" unicode="-" horiz-adv-x="913" 
d="M139 512v174h633v-174h-633z" />
    <glyph glyph-name="period" unicode="." horiz-adv-x="481" 
d="M240 -14q-51 0 -86 34.5t-35 88.5q0 53 35 86.5t86 33.5t88 -33.5t37 -86.5q0 -54 -37 -88.5t-88 -34.5z" />
    <glyph glyph-name="slash" unicode="/" horiz-adv-x="829" 
d="M72 0l491 1454h193l-498 -1454h-186z" />
    <glyph glyph-name="zero" unicode="0" horiz-adv-x="1304" 
d="M649 -18q-121 0 -220 45.5t-172.5 135t-114 231t-40.5 325.5q0 191 41.5 337.5t116.5 237t173 136t216 45.5q119 0 218.5 -46.5t175 -137t117.5 -236.5t42 -334q0 -365 -150 -552t-403 -187zM651 158q170 0 266.5 137t96.5 424q0 297 -97 437t-266 140
q-171 0 -267.5 -138.5t-96.5 -438.5q0 -289 96 -425t268 -136z" />
    <glyph glyph-name="one" unicode="1" horiz-adv-x="755" 
d="M369 0v1249l-279 -69l-16 145l329 129h152v-1454h-186z" />
    <glyph glyph-name="two" unicode="2" horiz-adv-x="1187" 
d="M127 0v156l481 534q23 26 64 70.5t59.5 65.5t45.5 56t38.5 59t21 56.5t9.5 65.5q0 102 -73 170t-193 67q-119 -1 -187 -56t-90 -148h-180q22 163 147 272t308 109q207 0 330.5 -115t125.5 -291q0 -39 -5.5 -74.5t-12 -62t-24.5 -59.5t-28 -51.5t-40 -54.5t-43.5 -51
t-53.5 -59.5t-57 -62.5l-379 -420h676v-176h-940z" />
    <glyph glyph-name="three" unicode="3" horiz-adv-x="1196" 
d="M573 -12q-73 1 -147.5 24.5t-143.5 68.5t-120 122.5t-68 175.5h189q23 -93 107 -154t183 -61q139 0 225.5 71.5t86.5 192.5q0 126 -106 185.5t-312 64.5v149q176 2 281.5 66t105.5 180q0 105 -74.5 167.5t-201.5 62.5q-223 0 -287 -205h-172q27 174 161.5 275.5
t301.5 101.5q115 0 216 -43.5t168 -130.5t72 -201q3 -75 -18.5 -137t-59 -100.5t-75.5 -62t-78 -34.5q35 -9 69 -24.5t72 -44t66.5 -64.5t47.5 -90.5t19 -118.5q0 -200 -141 -319.5t-367 -116.5z" />
    <glyph glyph-name="four" unicode="4" horiz-adv-x="1218" 
d="M745 0v319h-657v173l610 960h238v-960h164v-177h-164v-315h-191zM276 496h472v737z" />
    <glyph glyph-name="five" unicode="5" horiz-adv-x="1200" 
d="M575 -23q-114 0 -216.5 45.5t-177 138t-91.5 214.5h195q23 -106 100 -163.5t182 -57.5q148 0 233 84t85 227q0 146 -81 227.5t-218 81.5q-104 0 -173.5 -42.5t-93.5 -104.5l-182 28l37 799h813v-170h-655l-17 -430l9 8q9 7 20 13.5t28.5 17t40 19t50 16t63 12t74.5 4.5
q97 0 182 -31.5t149.5 -90.5t102 -151.5t37.5 -205.5q0 -146 -65 -257.5t-177.5 -171t-253.5 -59.5z" />
    <glyph glyph-name="six" unicode="6" horiz-adv-x="1247" 
d="M616 -8q-98 0 -190 36t-163 99t-114 156t-43 200q0 132 59 261t157 270l315 456h221l-405 -581q18 24 73.5 46.5t139.5 22.5q90 0 174.5 -33t152 -92t108 -150.5t40.5 -199.5q0 -210 -150 -350.5t-375 -140.5zM618 170q144 0 238 86.5t94 224.5q0 140 -93.5 226
t-231.5 86q-143 0 -236.5 -87.5t-93.5 -226.5t94.5 -225t228.5 -84z" />
    <glyph glyph-name="seven" unicode="7" horiz-adv-x="1153" 
d="M229 0l609 1280h-777v172h983v-152l-608 -1300h-207z" />
    <glyph glyph-name="eight" unicode="8" horiz-adv-x="1224" 
d="M616 -16q-228 0 -369 114t-143 295q0 251 248 369q-194 128 -194 328q0 164 128 273.5t322 109.5q201 0 327 -111t126 -270q0 -82 -38.5 -156t-87.5 -116.5t-97 -57.5q282 -102 282 -363q-2 -181 -141.5 -298t-362.5 -117zM606 831q125 19 196.5 94.5t71.5 166.5
q0 93 -73 155t-193 62q-115 0 -190.5 -61.5t-75.5 -155.5q0 -93 72 -166.5t192 -94.5zM614 152q139 2 226.5 72t87.5 182q0 45 -14.5 82t-43.5 64.5t-59 47.5t-76 36.5t-79.5 26t-84.5 21.5q-141 -40 -207.5 -117.5t-64.5 -167.5q2 -108 87.5 -177.5t227.5 -69.5z" />
    <glyph glyph-name="nine" unicode="9" horiz-adv-x="1236" 
d="M586 0h-224l396 530q-58 -45 -162 -45q-91 0 -178.5 35.5t-157 98t-112 156t-42.5 200.5q0 212 149 357t374 145q136 0 250 -61t182.5 -176t68.5 -261q0 -79 -20 -156t-60 -152.5t-72 -125.5t-83 -121zM621 653q137 0 228 89t91 239q0 139 -90.5 230.5t-226.5 91.5
q-142 0 -235 -90.5t-93 -233.5t94.5 -234.5t231.5 -91.5z" />
    <glyph glyph-name="colon" unicode=":" horiz-adv-x="524" 
d="M264 739q-50 0 -86.5 35.5t-36.5 87.5q0 54 36 88.5t87 34.5q49 0 86 -34.5t37 -88.5q0 -51 -38 -87t-85 -36zM264 20q-52 0 -88.5 35t-36.5 88t36.5 88t88.5 35q49 0 86 -35.5t37 -87.5t-37 -87.5t-86 -35.5z" />
    <glyph glyph-name="semicolon" unicode=";" horiz-adv-x="514" 
d="M274 741q-51 0 -85.5 34.5t-34.5 88.5q0 53 35 87t85 34q51 0 88 -34t37 -87q0 -54 -37 -88.5t-88 -34.5zM193 207h198l-112 -393h-160z" />
    <glyph glyph-name="less" unicode="&#x3c;" horiz-adv-x="1095" 
d="M934 53l-834 434v144l834 436v-195l-619 -315l619 -305v-199z" />
    <glyph glyph-name="equal" unicode="=" horiz-adv-x="1488" 
d="M254 852v172h979v-172h-979zM254 373v172h979v-172h-979z" />
    <glyph glyph-name="greater" unicode="&#x3e;" horiz-adv-x="1095" 
d="M121 1053l833 -435v-143l-833 -436v194l618 316l-618 305v199z" />
    <glyph glyph-name="question" unicode="?" horiz-adv-x="1103" 
d="M430 412q0 91 16 160.5t48.5 119.5t64 81.5t80.5 68.5q101 74 136.5 117.5t35.5 111.5q0 103 -70 167.5t-188 64.5q-104 0 -185.5 -63t-95.5 -173l-170 12q14 168 140.5 282t314.5 114q194 0 311.5 -114t122.5 -280q1 -35 -5 -67.5t-13.5 -56.5t-25.5 -51t-29.5 -42
t-39.5 -40t-40.5 -35t-47 -36.5t-45.5 -35.5q-87 -70 -117 -128t-30 -177h-168zM518 -14q-49 0 -83 32.5t-34 83.5t34.5 85t82.5 34t81.5 -33.5t33.5 -85.5q0 -51 -33.5 -83.5t-81.5 -32.5z" />
    <glyph glyph-name="at" unicode="@" horiz-adv-x="1955" 
d="M1024 -199q-176 0 -331.5 60t-268 165t-177.5 256t-65 326q0 171 63 325t170 264t256.5 174.5t315.5 64.5q223 0 403 -103.5t282 -286.5t102 -409q0 -256 -98 -393.5t-246 -137.5q-48 0 -99 20t-100 71.5t-68 124.5q-8 -39 -63 -73.5t-123 -35.5q-166 -3 -262.5 110.5
t-93.5 288.5q2 169 95.5 275.5t250.5 105.5q58 -1 104.5 -27t69 -57.5t26.5 -60.5l7 106l118 -6l-10 -450q-6 -121 32.5 -185.5t108.5 -62.5q38 0 70.5 18.5t61 60t45 120t16.5 186.5q0 189 -82 338.5t-225.5 232t-321.5 80.5q-180 -3 -328.5 -94t-232.5 -245t-84 -337
q0 -132 45.5 -250t130 -209t215 -144.5t289.5 -53.5q28 0 59 3.5t47 7.5l17 3q2 -9 6 -24t12 -46t13 -51.5t4 -19.5q-31 -25 -156 -25zM973 352q76 3 120.5 64t47.5 182t-41.5 189t-128.5 69q-89 1 -142.5 -70t-56.5 -184q-1 -114 55.5 -182t145.5 -68z" />
    <glyph glyph-name="A" unicode="A" horiz-adv-x="1411" 
d="M1171 0l-151 385h-627l-147 -385h-197l559 1454h193l563 -1454h-193zM705 1194l-246 -641h495z" />
    <glyph glyph-name="B" unicode="B" horiz-adv-x="1280" 
d="M164 0v1454h467q202 0 325 -110t123 -281q0 -119 -48 -189.5t-113 -97.5q102 -21 185 -120.5t83 -243.5q0 -82 -30 -154.5t-88.5 -131t-155.5 -92.5t-220 -34h-528zM354 825h285q119 0 186.5 65t67.5 167q0 94 -69 161.5t-199 67.5h-271v-461zM354 168h330
q156 0 233.5 65.5t77.5 190.5q0 116 -86 180t-227 64h-328v-500z" />
    <glyph glyph-name="C" unicode="C" horiz-adv-x="1404" 
d="M731 -20q-103 0 -194 25.5t-172 83t-139.5 142t-92 209.5t-33.5 279q0 161 32 289t88.5 214.5t136.5 144t173 83t201 25.5q246 0 390 -128t177 -358h-190q-32 152 -121.5 231.5t-255.5 79.5q-79 0 -143.5 -17.5t-121.5 -59t-95 -107t-60 -166t-22 -231.5
q0 -151 33 -262.5t94 -177t139 -96.5t176 -31q173 0 261.5 83t119.5 244h191q-32 -248 -177.5 -373.5t-394.5 -125.5z" />
    <glyph glyph-name="D" unicode="D" horiz-adv-x="1370" 
d="M166 0v1454h414q328 0 509 -183t181 -540q0 -378 -173 -554.5t-517 -176.5h-414zM350 176h230q261 0 377 132.5t116 422.5q0 281 -121.5 414t-371.5 133h-230v-1102z" />
    <glyph glyph-name="E" unicode="E" horiz-adv-x="1253" 
d="M170 0v1454h938v-172h-754v-459h600v-174h-600v-477h770v-172h-954z" />
    <glyph glyph-name="F" unicode="F" horiz-adv-x="1196" 
d="M166 0v1454h948v-176h-764v-463h621v-170h-621v-645h-184z" />
    <glyph glyph-name="G" unicode="G" horiz-adv-x="1402" 
d="M715 -23q-104 0 -192.5 24.5t-167.5 80.5t-135 142t-88 215.5t-32 293.5q0 191 46.5 335.5t130.5 232t194.5 131t245.5 43.5q243 0 388.5 -117.5t188.5 -343.5h-200q-13 48 -31 87t-48.5 78t-70 65t-98 42.5t-129.5 16.5q-430 0 -430 -572q0 -581 428 -581
q199 0 299.5 100.5t103.5 339.5h-358v164h543v-138q-5 -639 -588 -639z" />
    <glyph glyph-name="H" unicode="H" horiz-adv-x="1452" 
d="M176 0v1454h184v-639h732v639h184v-1454h-184v639h-732v-639h-184z" />
    <glyph glyph-name="I" unicode="I" horiz-adv-x="524" 
d="M170 0v1454h184v-1454h-184z" />
    <glyph glyph-name="J" unicode="J" horiz-adv-x="1013" 
d="M385 -20q-110 0 -208 46t-159 115l132 119q105 -102 237 -102q50 0 87 8t72 31t57 62t35 103t13 152v940h187v-938q0 -152 -32 -258.5t-94 -166t-141.5 -85.5t-185.5 -26z" />
    <glyph glyph-name="K" unicode="K" horiz-adv-x="1337" 
d="M170 0v1454h184v-743l662 743h244l-570 -639l596 -815h-227l-496 680l-209 -234v-446h-184z" />
    <glyph glyph-name="L" unicode="L" horiz-adv-x="1155" 
d="M170 0v1454h184v-1280h711v-174h-895z" />
    <glyph glyph-name="M" unicode="M" horiz-adv-x="1734" 
d="M176 0v1454h215l471 -1042l481 1042h213v-1454h-184v1096l-448 -969h-125l-439 960v-1087h-184z" />
    <glyph glyph-name="N" unicode="N" horiz-adv-x="1521" 
d="M168 0v1454h199l800 -1143v1143h185v-1454h-203l-795 1145v-1145h-186z" />
    <glyph glyph-name="O" unicode="O" horiz-adv-x="1421" 
d="M711 -16q-135 0 -244.5 43.5t-192.5 132.5t-128.5 235.5t-45.5 341.5q0 185 44 326.5t125 231t192.5 135t249.5 45.5q137 0 248 -46t192.5 -136t125.5 -231.5t44 -324.5q0 -190 -44.5 -335t-126 -236t-192 -136.5t-247.5 -45.5zM711 156q203 0 314.5 141.5t111.5 439.5
q0 288 -112 425.5t-314 137.5q-424 0 -424 -563q0 -304 109.5 -442.5t314.5 -138.5z" />
    <glyph glyph-name="P" unicode="P" horiz-adv-x="1269" 
d="M168 0v1454h506q228 0 359.5 -126t131.5 -318q0 -186 -133 -310.5t-358 -124.5h-320v-575h-186zM354 1280v-528h308q137 0 226 68t89 190q0 128 -89.5 199t-228.5 71h-305z" />
    <glyph glyph-name="Q" unicode="Q" horiz-adv-x="1431" 
d="M711 -16q-135 0 -244.5 43.5t-192.5 132.5t-128.5 235.5t-45.5 341.5q0 185 44 326.5t125 231t192.5 135t249.5 45.5q137 0 248 -46t192.5 -136t125.5 -231.5t44 -324.5q0 -379 -174 -575l168 -207l-146 -111l-168 205q-127 -65 -290 -65zM711 156q203 0 314.5 141.5
t111.5 439.5q0 288 -112 425.5t-314 137.5q-424 0 -424 -563q0 -304 109.5 -442.5t314.5 -138.5z" />
    <glyph glyph-name="R" unicode="R" horiz-adv-x="1310" 
d="M168 0v1454h500q242 0 372.5 -120.5t130.5 -311.5q0 -149 -81.5 -253.5t-196.5 -137.5l297 -631h-205l-274 592h-357v-592h-186zM354 764h312q141 0 227 68.5t86 191.5q0 122 -84.5 189t-228.5 67h-312v-516z" />
    <glyph glyph-name="S" unicode="S" horiz-adv-x="1206" 
d="M614 -18q-187 0 -318.5 80t-201.5 223l150 94q72 -118 154.5 -169.5t211.5 -51.5q146 0 219.5 65.5t73.5 188.5q0 132 -71 186.5t-263 71.5q-196 18 -309 121t-113 280q0 180 129 292t349 112q160 0 268.5 -61t187.5 -191l-161 -95q-55 92 -131 135.5t-185 43.5
q-123 0 -193.5 -61.5t-70.5 -162.5q0 -117 70 -170.5t247 -66.5q453 -33 453 -432q0 -106 -38.5 -189.5t-107 -136t-157.5 -79.5t-193 -27z" />
    <glyph glyph-name="T" unicode="T" horiz-adv-x="1214" 
d="M514 0v1280h-422v174h1032v-174h-424v-1280h-186z" />
    <glyph glyph-name="U" unicode="U" horiz-adv-x="1363" 
d="M682 -23q-121 0 -221.5 39.5t-175.5 115.5t-116.5 195t-41.5 269v858h184v-860q0 -218 103 -330t268 -112q169 0 271 112.5t102 329.5v860h182v-858q0 -295 -151.5 -457t-403.5 -162z" />
    <glyph glyph-name="V" unicode="V" horiz-adv-x="1327" 
d="M569 0l-506 1454h197l404 -1169l405 1169h197l-506 -1454h-191z" />
    <glyph glyph-name="W" unicode="W" horiz-adv-x="1900" 
d="M459 0l-363 1454h193l276 -1143l322 1106h139l322 -1114l262 1151h196l-356 -1454h-197l-297 1028l-297 -1028h-200z" />
    <glyph glyph-name="X" unicode="X" horiz-adv-x="1314" 
d="M72 0l465 725l-453 729h219l348 -571l369 571h221l-475 -729l446 -725h-215l-346 561l-362 -561h-217z" />
    <glyph glyph-name="Y" unicode="Y" horiz-adv-x="1288" 
d="M551 0v569l-488 885h211l371 -678l367 678h211l-488 -885v-569h-184z" />
    <glyph glyph-name="Z" unicode="Z" horiz-adv-x="1179" 
d="M82 0v174l766 1104h-742v176h984v-158l-775 -1118h781v-178h-1014z" />
    <glyph glyph-name="bracketleft" unicode="[" horiz-adv-x="731" 
d="M164 -131v1681h463v-174h-283v-1333h283v-174h-463z" />
    <glyph glyph-name="backslash" unicode="\" horiz-adv-x="835" 
d="M578 0l-506 1454h192l498 -1454h-184z" />
    <glyph glyph-name="bracketright" unicode="]" horiz-adv-x="731" 
d="M537 1548v-1681h-463v174h282v1333h-282v174h463z" />
    <glyph glyph-name="asciicircum" unicode="^" horiz-adv-x="919" 
d="M102 1024l293 430h140l296 -434l-139 -37l-225 295l-223 -293z" />
    <glyph glyph-name="underscore" unicode="_" horiz-adv-x="1120" 
d="M8 -164v164h1102v-164h-1102z" />
    <glyph glyph-name="grave" unicode="`" horiz-adv-x="417" 
d="M238 1184l-228 229l191 141l209 -370h-172z" />
    <glyph glyph-name="a" unicode="a" horiz-adv-x="1085" 
d="M461 -16q-154 0 -255.5 87t-101.5 232q0 153 114 245.5t306 92.5q117 0 244 -45q7 -3 10 -4v110q0 121 -60.5 172.5t-193.5 51.5q-73 0 -140.5 -36.5t-111.5 -101.5l-131 95q53 97 161.5 152t236.5 55q198 0 310 -96t112 -302v-692h-148l-22 133q-49 -59 -132.5 -104
t-197.5 -45zM487 141q95 0 176.5 53.5t114.5 131.5v120q-123 49 -243 46q-126 0 -189 -47.5t-63 -131.5q0 -82 55 -127t149 -45z" />
    <glyph glyph-name="b" unicode="b" horiz-adv-x="1241" 
d="M158 0v1495h192v-586q38 77 134.5 129t201.5 52q64 0 126.5 -20t121 -63.5t103 -106t71.5 -155t27 -202.5q0 -112 -26 -206t-70 -158.5t-102 -109.5t-121 -66t-128 -21q-111 0 -211.5 54.5t-138.5 127.5l-4 -164h-176zM664 139q117 0 198.5 103.5t81.5 298.5
q0 192 -84 289.5t-217 97.5q-56 0 -110 -25.5t-99.5 -72t-73.5 -122.5t-28 -167q0 -97 31 -176.5t80.5 -127t106.5 -73t114 -25.5z" />
    <glyph glyph-name="c" unicode="c" horiz-adv-x="1169" 
d="M604 -27q-97 0 -185 34t-159 100t-113.5 174.5t-42.5 244.5q0 135 42.5 244.5t113.5 178t160 105t186 36.5q182 0 302.5 -91.5t156.5 -271.5h-186q-32 104 -96.5 150.5t-174.5 46.5q-64 0 -119.5 -22.5t-102 -68t-73 -125.5t-26.5 -186q0 -99 27 -175t73.5 -120
t101.5 -66t117 -22q114 0 178 43t95 129h186q-34 -161 -153 -249.5t-308 -88.5z" />
    <glyph glyph-name="d" unicode="d" horiz-adv-x="1234" 
d="M578 -18q-83 0 -164 34.5t-151 100.5t-113.5 177t-43.5 249q0 136 41 244t109.5 172.5t150 97.5t168.5 33q107 0 193.5 -49t116.5 -113v567h192v-1495h-153l-21 160q-35 -78 -128.5 -128t-196.5 -50zM604 150q50 0 100.5 24t95 69.5t72 123t27.5 174.5q0 92 -25 166.5
t-67 121t-94 71t-107 24.5q-58 0 -111 -21t-99 -64t-73.5 -119.5t-27.5 -178.5q0 -85 20.5 -153.5t52.5 -112t73.5 -72.5t82 -41t80.5 -12z" />
    <glyph glyph-name="e" unicode="e" horiz-adv-x="1175" 
d="M606 -25q-77 0 -148 20t-134.5 63.5t-110 107.5t-73.5 158t-27 208q0 137 39 245.5t105.5 175.5t151.5 102t181 35t180 -32.5t148 -95t100.5 -161t36.5 -221.5v-107h-758q3 -170 92.5 -253t224.5 -83q97 0 182.5 41t133.5 103l117 -113q-72 -90 -184.5 -141.5
t-256.5 -51.5zM297 621h577q0 146 -79.5 227.5t-204.5 81.5q-126 0 -206 -81t-87 -228z" />
    <glyph glyph-name="f" unicode="f" horiz-adv-x="788" 
d="M250 0v909h-156v160h156v64q0 174 90.5 270t267.5 96q4 0 44 -1l40 -1v-160q-139 5 -197 -38t-57 -171v-59h248v-160h-246v-909h-190z" />
    <glyph glyph-name="g" unicode="g" horiz-adv-x="1228" 
d="M588 -475q-130 0 -245.5 50t-178.5 138l127 115q51 -58 127.5 -94.5t165.5 -36.5q142 0 221.5 81.5t79.5 227.5v148q-28 -73 -117.5 -123.5t-194.5 -50.5q-88 0 -168.5 36.5t-144.5 104.5t-102.5 174.5t-38.5 236.5q0 134 40 243.5t106 177.5t147 104.5t168 36.5
q105 0 190.5 -45.5t118.5 -116.5l24 137h162v-1049q0 -231 -135 -363t-352 -132zM602 150q130 0 213.5 102t83.5 280q0 203 -81 297.5t-216 94.5q-127 0 -212 -101t-85 -293q-1 -182 84 -281t213 -99z" />
    <glyph glyph-name="h" unicode="h" horiz-adv-x="1175" 
d="M160 0v1495h188v-580q25 70 113 122.5t180 52.5q189 0 297.5 -123t108.5 -361v-606h-193v604q0 167 -61 240.5t-183 73.5q-112 0 -187 -87.5t-75 -226.5v-604h-188z" />
    <glyph glyph-name="i" unicode="i" horiz-adv-x="516" 
d="M258 1305q-48 0 -82.5 30.5t-34.5 79.5t34.5 80t82.5 31q49 0 84 -31t35 -80t-35 -79.5t-84 -30.5zM174 0v1069h184v-1069h-184z" />
    <glyph glyph-name="j" unicode="j" horiz-adv-x="571" 
d="M307 1251q-52 0 -85.5 30.5t-33.5 82.5q0 50 33.5 79.5t85.5 29.5q48 0 81.5 -30t33.5 -79q0 -51 -33.5 -82t-81.5 -31zM2 -422v172q89 -8 150 56t61 192v1071h188v-1075q0 -108 -35 -193t-92.5 -134t-127.5 -71.5t-144 -17.5z" />
    <glyph glyph-name="k" unicode="k" horiz-adv-x="1116" 
d="M166 0v1495h188v-889l439 463h243l-426 -448l467 -621h-223l-377 506l-123 -117v-389h-188z" />
    <glyph glyph-name="l" unicode="l" horiz-adv-x="520" 
d="M166 0v1495h188v-1495h-188z" />
    <glyph glyph-name="m" unicode="m" horiz-adv-x="1767" 
d="M166 0v1069h143l27 -141q31 66 112 119t179 53q109 0 191 -54.5t110 -146.5q40 88 129 144.5t207 56.5q174 0 271 -121t97 -324v-655h-186v645q0 145 -51 214t-160 69q-111 0 -177.5 -75t-66.5 -208v-645h-184v643q6 285 -211 285q-114 0 -179 -75t-65 -210v-643h-186z
" />
    <glyph glyph-name="n" unicode="n" 
d="M166 0v1069h141l29 -139q34 72 124.5 121t194.5 49q173 0 281 -119.5t108 -335.5v-645h-186v641q0 141 -63 217t-185 76q-114 0 -185 -79.5t-71 -213.5v-641h-188z" />
    <glyph glyph-name="o" unicode="o" 
d="M588 -18q-93 0 -177 34t-153.5 99.5t-110.5 174t-41 245.5q0 142 40.5 251.5t109.5 174t153 97t179 32.5q97 0 182.5 -33t154.5 -98.5t109.5 -174.5t40.5 -249q0 -136 -41.5 -244.5t-111.5 -174t-155.5 -100t-178.5 -34.5zM588 150q59 0 112 22.5t97 67.5t70 121t26 174
q0 102 -25 179t-68 122.5t-96.5 67.5t-115.5 22q-132 0 -215.5 -95.5t-83.5 -295.5q0 -96 25 -171.5t67 -121t95 -69t112 -23.5z" />
    <glyph glyph-name="p" unicode="p" horiz-adv-x="1243" 
d="M354 154v-588h-188v1503h153l27 -151q40 77 139.5 125.5t202.5 48.5q63 0 125.5 -19.5t121.5 -63.5t104 -107t72.5 -157.5t27.5 -207.5q0 -114 -27 -208t-72 -157t-105 -106t-124 -62.5t-131 -19.5q-98 0 -198.5 49.5t-127.5 120.5zM649 147q57 0 108.5 22.5t96 67
t70.5 122.5t26 178q0 83 -17.5 149.5t-46.5 110t-68.5 73t-81.5 42t-87 12.5q-52 0 -102.5 -20t-98.5 -62.5t-78 -121.5t-30 -183q0 -98 28 -175t73.5 -122.5t98.5 -69t109 -23.5z" />
    <glyph glyph-name="q" unicode="q" horiz-adv-x="1243" 
d="M889 154q-27 -71 -127.5 -120.5t-198.5 -49.5q-86 0 -165 32t-146 96t-107.5 174t-40.5 251q0 113 27.5 207.5t73 157.5t105 107t122 63.5t125.5 19.5q103 0 201.5 -48.5t140.5 -125.5l23 151h155v-1503h-188v588zM594 147q56 0 109 23.5t98.5 69t73.5 122.5t28 175
q0 103 -30 182t-77.5 121.5t-99 63t-102.5 20.5q-40 0 -80 -12.5t-80.5 -42t-71.5 -72.5t-50 -110.5t-19 -149.5q0 -100 26 -178t70.5 -122.5t96 -67t108.5 -22.5z" />
    <glyph glyph-name="r" unicode="r" horiz-adv-x="800" 
d="M166 0v1069h141l29 -131q35 63 116 107.5t164 44.5q27 0 72.5 -3.5t63.5 -3.5v-174q-73 6 -140 6q-121 0 -189.5 -76.5t-68.5 -230.5v-608h-188z" />
    <glyph glyph-name="s" unicode="s" horiz-adv-x="1028" 
d="M528 -25q-158 0 -268 71t-160 167l156 90q49 -72 112 -115t160 -43q105 0 168.5 42.5t63.5 117.5q0 81 -61 114.5t-228 47.5q-148 14 -239 95t-91 218q0 145 104 228.5t279 83.5q289 0 385 -199l-149 -90q-67 131 -238 131q-207 0 -207 -143q0 -80 56 -112.5t188 -43.5
q198 -19 289.5 -93.5t91.5 -234.5q0 -151 -116.5 -241.5t-295.5 -90.5z" />
    <glyph glyph-name="t" unicode="t" horiz-adv-x="815" 
d="M260 319v590h-203v160h193l53 315h141v-315h291v-160h-291v-559q0 -99 43.5 -144.5t130.5 -45.5q86 0 109 2v-160q-33 -10 -149 -10q-87 0 -157 33.5t-115.5 109.5t-45.5 184z" />
    <glyph glyph-name="u" unicode="u" horiz-adv-x="1187" 
d="M547 -23q-83 0 -156 28.5t-130 83t-90.5 143.5t-33.5 202v635h193v-635q0 -141 68 -215t182 -74q111 0 181 76.5t70 212.5v635h189v-1069h-143l-27 150q-27 -72 -119 -122.5t-184 -50.5z" />
    <glyph glyph-name="v" unicode="v" horiz-adv-x="1097" 
d="M457 0l-402 1069h201l291 -819l295 819h200l-405 -1069h-180z" />
    <glyph glyph-name="w" unicode="w" horiz-adv-x="1566" 
d="M375 0l-318 1069h195l219 -772l244 772h141l254 -768l203 768h198l-307 -1069h-182l-238 700l-237 -700h-172z" />
    <glyph glyph-name="x" unicode="x" horiz-adv-x="1110" 
d="M74 0l366 532l-354 537h225l244 -383l254 383h227l-362 -524l358 -545h-225l-244 385l-262 -385h-227z" />
    <glyph glyph-name="y" unicode="y" horiz-adv-x="1081" 
d="M473 -408h-184l157 406v4l-393 1067h201l285 -831l284 831h201z" />
    <glyph glyph-name="z" unicode="z" horiz-adv-x="968" 
d="M100 0v141l535 762h-524v166h743v-133l-535 -766h549v-170h-768z" />
    <glyph glyph-name="braceleft" unicode="{" horiz-adv-x="804" 
d="M655 -141h-57q-129 8 -217 97t-88 226v271q0 97 -50 138.5t-155 41.5v168q102 0 152.5 47.5t50.5 150.5v261q0 142 85 231.5t226 95.5q8 2 53 2v-170q-188 0 -188 -180v-254q0 -222 -131 -266q129 -40 129 -250v-268q0 -46 18 -81t47.5 -54.5t61 -29t63.5 -9.5v-168z" />
    <glyph glyph-name="bar" unicode="|" horiz-adv-x="587" 
d="M205 -264v1917h176v-1917h-176z" />
    <glyph glyph-name="braceright" unicode="}" horiz-adv-x="813" 
d="M125 1589h57q129 -8 217 -97t88 -226v-271q0 -97 50 -138.5t155 -41.5v-168q-102 0 -152.5 -47.5t-50.5 -150.5v-261q0 -142 -85 -231.5t-226 -95.5q-8 -2 -53 -2v170q188 0 188 180v254q0 222 131 266q-129 40 -129 250v268q0 46 -18 81t-47.5 54.5t-61 29t-63.5 9.5
v168z" />
    <glyph glyph-name="asciitilde" unicode="~" horiz-adv-x="1243" 
d="M129 666q20 88 105.5 159.5t211.5 71.5q66 0 124.5 -20t93 -43.5t75 -43.5t74.5 -20q58 0 100 34t50 77l153 -35q-26 -106 -111 -174t-217 -68q-59 0 -114 20t-89.5 43.5t-78.5 43.5t-82 20q-58 0 -95.5 -34t-49.5 -79z" />
    <glyph glyph-name="nbspace" unicode="&#xa0;" horiz-adv-x="376" 
 />
    <glyph glyph-name="exclamdown" unicode="&#xa1;" horiz-adv-x="579" 
d="M252 1253q47 0 81 -33.5t34 -84.5t-34 -85t-81 -34t-82 34t-35 85t35 84.5t82 33.5zM299 819l55 -483v-549h-204v549l55 483h94z" />
    <glyph glyph-name="cent" unicode="&#xa2;" horiz-adv-x="1153" 
d="M389 -250l49 252q-145 54 -238.5 187t-93.5 337q0 106 28.5 197.5t76 156.5t110.5 112.5t132 71.5t139 26l41 213h198l-51 -242q109 -37 184.5 -121.5t100.5 -212.5h-186q-62 197 -271 197q-45 0 -88.5 -13.5t-85.5 -44.5t-74 -76.5t-51.5 -114.5t-19.5 -153
q0 -98 30 -174.5t78 -120.5t101.5 -66t107.5 -22q102 0 173 45t100 127h186q-32 -152 -149 -241t-285 -97l-51 -223h-191z" />
    <glyph glyph-name="sterling" unicode="&#xa3;" horiz-adv-x="1202" 
d="M115 0v145q4 5 33 29t57.5 53.5t59 71t50 98t19.5 117.5q0 18 -2 36.5t-4.5 33t-6.5 30.5t-7.5 26t-9 23t-8.5 19t-7.5 16t-5.5 11h-201v178h133q-47 96 -47 229q0 151 127.5 262t327.5 111q97 0 189.5 -31t156.5 -84l-47 -164q-135 109 -297 109q-123 0 -196 -65
t-73 -154q0 -112 54 -213h352v-178h-287q12 -27 27.5 -89.5t15.5 -125.5q0 -173 -133 -316h651v-178h-921z" />
    <glyph glyph-name="yen" unicode="&#xa5;" horiz-adv-x="1284" 
d="M184 233v168h367v164h-367v168h277l-398 721h211l371 -678l367 678h211l-398 -721h256v-168h-346v-164h346v-168h-346v-233h-184v233h-367z" />
    <glyph glyph-name="brokenbar" unicode="&#xa6;" horiz-adv-x="593" 
d="M199 838v798h198v-798h-198zM199 -227v782h198v-782h-198z" />
    <glyph glyph-name="section" unicode="&#xa7;" horiz-adv-x="1095" 
d="M555 -23q-242 -10 -436 138l102 133q149 -117 332 -109q90 5 151.5 49t57.5 115q-3 73 -38 97t-116 22h-8q-27 -2 -82 2q-71 5 -135.5 24t-119 53t-88.5 89t-38 123q-3 73 28 138.5t95 111.5q-84 72 -90 194q-8 140 91.5 231.5t297.5 100.5q222 12 369 -113l-99 -133
q-4 4 -11.5 10.5t-33 23t-54.5 28.5t-75.5 20.5t-95.5 5.5q-106 -6 -162 -48t-53 -103q2 -39 11 -62.5t34 -42.5t72.5 -26t122.5 -5q171 6 279 -76t114 -212q6 -152 -117 -246q74 -71 80 -197q8 -146 -96.5 -237.5t-288.5 -98.5zM309 735q2 -75 68.5 -116t208.5 -35
q96 5 158 47.5t59 113.5q-7 124 -189 140q-36 3 -84 0q-112 -6 -168 -47t-53 -103z" />
    <glyph glyph-name="dieresis" unicode="&#xa8;" horiz-adv-x="675" 
d="M121 1223q-42 0 -76.5 34t-34.5 80t34.5 80.5t76.5 34.5q46 0 80.5 -34t34.5 -81t-34.5 -80.5t-80.5 -33.5zM553 1223q-45 0 -79 33.5t-34 80.5t34 81t79 34q44 0 78.5 -34.5t34.5 -80.5t-34.5 -80t-78.5 -34z" />
    <glyph glyph-name="copyright" unicode="&#xa9;" horiz-adv-x="1814" 
d="M905 -23q-208 0 -375 91.5t-263.5 263t-96.5 393.5q0 163 57 302.5t156.5 235t235.5 149.5t292 54q153 0 288 -54t233.5 -149.5t155.5 -235t57 -302.5q0 -219 -96.5 -390.5t-264.5 -264.5t-379 -93zM911 113q125 0 234.5 45.5t188.5 125.5t125 194.5t46 246.5
q0 181 -81.5 320t-215.5 210.5t-297 71.5q-122 0 -231 -44.5t-187.5 -123t-124.5 -191.5t-46 -243q0 -134 45 -249t123.5 -194.5t187 -124t233.5 -44.5zM918 356q-144 0 -241 98t-97 261q0 165 97.5 267.5t240.5 102.5q113 0 202 -69.5t105 -194.5h-144q-9 60 -53.5 96.5
t-109.5 36.5q-82 0 -135.5 -62t-53.5 -175q0 -114 51.5 -169.5t137.5 -55.5q63 0 108 32t55 88h144q-8 -78 -54.5 -137.5t-113 -89t-139.5 -29.5z" />
    <glyph glyph-name="ordfeminine" unicode="&#xaa;" horiz-adv-x="876" 
d="M365 616q-103 0 -176.5 65t-73.5 163v20q0 109 79 171.5t220 62.5q120 0 161 -35q0 94 -2 102q-7 103 -151 103q-113 0 -203 -68l-74 107q125 96 291 96q158 0 229.5 -67t71.5 -216v-495h-145l-2 98q-4 -9 -16.5 -23.5t-38 -35t-70.5 -34.5t-100 -14zM408 748
q60 0 106 28t61 62v127q-38 30 -137 30q-68 0 -116 -36.5t-48 -94.5q0 -54 36.5 -85t97.5 -31zM125 303v129h620v-129h-620z" />
    <glyph glyph-name="guillemotleft" unicode="&#xab;" horiz-adv-x="1173" 
d="M856 215l-274 320v94l270 317l129 -104l-223 -262l223 -261zM422 215l-275 320v94l271 317l129 -104l-223 -262l223 -261z" />
    <glyph glyph-name="registered" unicode="&#xae;" horiz-adv-x="1810" 
d="M901 -18q-154 0 -288.5 53.5t-232.5 149.5t-154 236.5t-56 307.5q0 162 57.5 301t157 234t234.5 148.5t288 53.5t287.5 -53.5t233 -148.5t155.5 -234t57 -301q0 -219 -96.5 -390t-264.5 -264t-378 -93zM907 119q124 0 233 45.5t187.5 125t124 193.5t45.5 246
q0 179 -80.5 317t-214 209.5t-295.5 71.5t-296 -75t-213 -213t-79 -310q0 -134 45.5 -248.5t124 -193.5t187 -123.5t231.5 -44.5zM670 371v696h272q114 0 175 -65t61 -156q0 -66 -38 -126t-79 -71l131 -278h-131l-127 256h-131v-256h-133zM803 754h108q123 0 123 92
q0 50 -30 73t-99 23h-102v-188z" />
    <glyph glyph-name="macron" unicode="&#xaf;" horiz-adv-x="768" 
d="M10 1221v151h750v-151h-750z" />
    <glyph glyph-name="degree" unicode="&#xb0;" horiz-adv-x="876" 
d="M436 762q-139 0 -244.5 105t-105.5 249q0 142 105.5 247t244.5 105q142 0 248.5 -105t106.5 -247t-107 -248t-248 -106zM438 918q80 0 137.5 57.5t57.5 140.5q0 81 -57.5 139t-137.5 58q-81 0 -137.5 -57.5t-56.5 -139.5q0 -83 56 -140.5t138 -57.5z" />
    <glyph glyph-name="plusminus" unicode="&#xb1;" horiz-adv-x="1320" 
d="M1090 106h-883v160h358v352h-354v173h354v358h176v-358h359v-173h-359v-352h349v-160z" />
    <glyph glyph-name="acute" unicode="&#xb4;" horiz-adv-x="409" 
d="M10 1524l207 368l184 -135l-229 -233h-162z" />
    <glyph glyph-name="paragraph" unicode="&#xb6;" horiz-adv-x="1282" 
d="M991 4v1454h158v-1454h-158zM819 0h-190v582h-31q-213 0 -337 122t-124 310q0 190 126 315t339 125h217v-1454z" />
    <glyph glyph-name="periodcentered" unicode="&#xb7;" horiz-adv-x="335" 
d="M168 600q-47 0 -83 34t-36 85t36 87t83 36q48 0 84.5 -36t36.5 -87t-36 -85t-85 -34z" />
    <glyph glyph-name="cedilla" unicode="&#xb8;" horiz-adv-x="1155" 
d="M469 18h113l-15 -90q90 -11 149.5 -69t59.5 -150q0 -96 -64.5 -158.5t-183.5 -62.5q-80 0 -182 45l45 133q77 -35 139 -35q41 0 70 21t29 57q0 76 -123 86l-82 8z" />
    <glyph glyph-name="ordmasculine" unicode="&#xba;" horiz-adv-x="0" 
 />
    <glyph glyph-name="guillemotright" unicode="&#xbb;" horiz-adv-x="1173" 
d="M285 956l274 -319v-94l-270 -318l-129 105l223 262l-223 260zM719 956l274 -319v-94l-270 -318l-129 105l223 262l-223 260z" />
    <glyph glyph-name="questiondown" unicode="&#xbf;" horiz-adv-x="1103" 
d="M541 1130q49 0 82.5 -32.5t33.5 -83.5q0 -52 -34 -85.5t-82 -33.5t-81.5 33.5t-33.5 85.5q0 51 33.5 83.5t81.5 32.5zM629 705q0 -73 -11.5 -133.5t-29 -102.5t-47.5 -80t-56 -62t-65 -53q-101 -74 -136.5 -117.5t-35.5 -111.5q0 -103 70 -167t188 -64q104 0 185 62.5
t95 172.5l170 -12q-14 -168 -140 -281.5t-314 -113.5q-194 0 -311.5 113.5t-122.5 279.5q-1 35 5 67.5t13 56.5t25.5 51t29.5 42t39.5 40.5t40 35t47 36.5t45.5 35q87 70 117.5 128.5t30.5 177.5h168z" />
    <glyph glyph-name="Agrave" unicode="&#xc0;" horiz-adv-x="1411" 
d="M633 1602l-227 229l190 141l209 -370h-172zM1171 0l-151 385h-627l-147 -385h-197l559 1454h193l563 -1454h-193zM705 1194l-246 -641h495z" />
    <glyph glyph-name="Aacute" unicode="&#xc1;" horiz-adv-x="1411" 
d="M592 1612l207 368l184 -135l-229 -233h-162zM1171 0l-151 385h-627l-147 -385h-197l559 1454h193l563 -1454h-193zM705 1194l-246 -641h495z" />
    <glyph glyph-name="Acircumflex" unicode="&#xc2;" horiz-adv-x="1411" 
d="M473 1577l-88 86l221 225h176l219 -219l-90 -90l-215 145zM1171 0l-151 385h-627l-147 -385h-197l559 1454h193l563 -1454h-193zM705 1194l-246 -641h495z" />
    <glyph glyph-name="Atilde" unicode="&#xc3;" horiz-adv-x="1411" 
d="M311 1638q6 81 70 145.5t160 71.5q56 3 105.5 -9t78 -28.5t61.5 -30.5t60 -13q49 1 79 25.5t40 60.5l110 -37q-2 -65 -58 -132.5t-151 -74.5q-45 -3 -88 10t-71.5 30t-67.5 31t-78 13q-116 -7 -149 -96zM1171 0l-151 385h-627l-147 -385h-197l559 1454h193l563 -1454
h-193zM705 1194l-246 -641h495z" />
    <glyph glyph-name="Adieresis" unicode="&#xc4;" horiz-adv-x="1411" 
d="M479 1599q-42 0 -76 34.5t-34 80.5t34 80.5t76 34.5q46 0 80.5 -34t34.5 -81t-34.5 -81t-80.5 -34zM911 1599q-45 0 -78.5 34t-33.5 81t33.5 81t78.5 34q44 0 78.5 -34.5t34.5 -80.5t-34.5 -80.5t-78.5 -34.5zM1171 0l-151 385h-627l-147 -385h-197l559 1454h193
l563 -1454h-193zM705 1194l-246 -641h495z" />
    <glyph glyph-name="Aring" unicode="&#xc5;" horiz-adv-x="1411" 
d="M696 1530q-94 0 -164.5 69t-70.5 166q0 95 71.5 166.5t163.5 71.5q90 0 163 -72t73 -166q0 -96 -71.5 -165.5t-164.5 -69.5zM696 1651q49 0 81 32t32 80q0 47 -32.5 82t-80.5 35q-47 0 -80.5 -35.5t-33.5 -81.5q0 -48 32.5 -80t81.5 -32zM1171 0l-151 385h-627l-147 -385
h-197l559 1454h193l563 -1454h-193zM705 1194l-246 -641h495z" />
    <glyph glyph-name="AE" unicode="&#xc6;" horiz-adv-x="1974" 
d="M-6 0l862 1454h1004v-172h-721v-461h577v-172h-577v-477h725v-172h-910v346h-540l-209 -346h-211zM510 514h444v739z" />
    <glyph glyph-name="Ccedilla" unicode="&#xc7;" horiz-adv-x="1404" 
d="M961 -319q0 -96 -64.5 -159t-183.5 -63q-81 0 -183 45l45 134q77 -35 140 -35q41 0 69.5 21t28.5 57q0 76 -123 86l-82 8l43 209q-116 12 -213 60.5t-174 135.5t-120.5 225t-43.5 314q0 161 32 289t88.5 214.5t136.5 144t173 83t201 25.5q246 0 390 -128t177 -358h-190
q-32 152 -121.5 231.5t-255.5 79.5q-79 0 -143.5 -17.5t-121.5 -59t-95 -107t-60 -166t-22 -231.5q0 -151 33 -262.5t94 -177t139 -96.5t176 -31q173 0 261.5 83t119.5 244h191q-31 -238 -168 -364t-371 -135l-12 -80q90 -11 149.5 -69t59.5 -150z" />
    <glyph glyph-name="Egrave" unicode="&#xc8;" horiz-adv-x="1253" 
d="M573 1602l-227 229l191 141l208 -370h-172zM170 0v1454h938v-172h-754v-459h600v-174h-600v-477h770v-172h-954z" />
    <glyph glyph-name="Eacute" unicode="&#xc9;" horiz-adv-x="1253" 
d="M530 1612l207 368l185 -135l-230 -233h-162zM170 0v1454h938v-172h-754v-459h600v-174h-600v-477h770v-172h-954z" />
    <glyph glyph-name="Ecircumflex" unicode="&#xca;" horiz-adv-x="1253" 
d="M412 1577l-88 86l221 225h176l219 -219l-90 -90l-215 145zM170 0v1454h938v-172h-754v-459h600v-174h-600v-477h770v-172h-954z" />
    <glyph glyph-name="Edieresis" unicode="&#xcb;" horiz-adv-x="1253" 
d="M418 1599q-42 0 -76.5 34.5t-34.5 80.5t34.5 80.5t76.5 34.5q46 0 80 -34t34 -81t-34 -81t-80 -34zM850 1599q-45 0 -79 34t-34 81t34 81t79 34q44 0 78.5 -34.5t34.5 -80.5t-34.5 -80.5t-78.5 -34.5zM170 0v1454h938v-172h-754v-459h600v-174h-600v-477h770v-172h-954z
" />
    <glyph glyph-name="Igrave" unicode="&#xcc;" horiz-adv-x="524" 
d="M215 1589l-178 174l188 127l164 -301h-174zM168 0v1454h184v-1454h-184z" />
    <glyph glyph-name="Iacute" unicode="&#xcd;" horiz-adv-x="524" 
d="M156 1581l161 305l193 -129l-178 -176h-176zM168 0v1454h184v-1454h-184z" />
    <glyph glyph-name="Icircumflex" unicode="&#xce;" horiz-adv-x="524" 
d="M141 1571l-112 84l143 198h178l146 -196l-115 -86l-119 112zM168 0v1454h184v-1454h-184z" />
    <glyph glyph-name="Idieresis" unicode="&#xcf;" horiz-adv-x="524" 
d="M113 1614q-48 0 -78.5 32.5t-30.5 84.5t30.5 82t78.5 30q46 0 76 -30.5t30 -81.5q0 -52 -30.5 -84.5t-75.5 -32.5zM426 1614q-46 0 -76.5 32t-30.5 83q0 53 30 83.5t77 30.5t78 -30.5t31 -83.5q0 -50 -31.5 -82.5t-77.5 -32.5zM168 0v1454h184v-1454h-184z" />
    <glyph glyph-name="Eth" unicode="&#xd0;" horiz-adv-x="1470" 
d="M250 0v641h-201v170h201v643h414q328 0 509 -183t181 -540q0 -378 -173 -554.5t-517 -176.5h-414zM434 176h230q261 0 377 132.5t116 422.5q0 281 -121.5 414t-371.5 133h-230v-467h303v-170h-303v-465z" />
    <glyph glyph-name="Ntilde" unicode="&#xd1;" horiz-adv-x="1521" 
d="M348 1614q6 81 70 145.5t160 71.5q56 3 105.5 -9t78 -29t61.5 -31t60 -13q49 1 78.5 25.5t39.5 60.5l111 -37q-2 -65 -58 -132.5t-151 -74.5q-45 -3 -88 10t-71.5 30t-67.5 31t-78 13q-116 -7 -149 -96zM168 0v1454h199l800 -1143v1143h185v-1454h-203l-795 1145v-1145
h-186z" />
    <glyph glyph-name="Ograve" unicode="&#xd2;" horiz-adv-x="1421" 
d="M649 1595l-227 230l190 141l209 -371h-172zM711 -16q-135 0 -244.5 43.5t-192.5 132.5t-128.5 235.5t-45.5 341.5q0 185 44 326.5t125 231t192.5 135t249.5 45.5q137 0 248 -46t192.5 -136t125.5 -231.5t44 -324.5q0 -190 -44.5 -335t-126 -236t-192 -136.5t-247.5 -45.5
zM711 156q203 0 314.5 141.5t111.5 439.5q0 288 -112 425.5t-314 137.5q-424 0 -424 -563q0 -304 109.5 -442.5t314.5 -138.5z" />
    <glyph glyph-name="Oacute" unicode="&#xd3;" horiz-adv-x="1421" 
d="M608 1604l207 368l184 -135l-229 -233h-162zM711 -16q-135 0 -244.5 43.5t-192.5 132.5t-128.5 235.5t-45.5 341.5q0 185 44 326.5t125 231t192.5 135t249.5 45.5q137 0 248 -46t192.5 -136t125.5 -231.5t44 -324.5q0 -190 -44.5 -335t-126 -236t-192 -136.5
t-247.5 -45.5zM711 156q203 0 314.5 141.5t111.5 439.5q0 288 -112 425.5t-314 137.5q-424 0 -424 -563q0 -304 109.5 -442.5t314.5 -138.5z" />
    <glyph glyph-name="Ocircumflex" unicode="&#xd4;" horiz-adv-x="1421" 
d="M489 1569l-88 86l222 225h176l219 -219l-90 -90l-215 145zM711 -16q-135 0 -244.5 43.5t-192.5 132.5t-128.5 235.5t-45.5 341.5q0 185 44 326.5t125 231t192.5 135t249.5 45.5q137 0 248 -46t192.5 -136t125.5 -231.5t44 -324.5q0 -190 -44.5 -335t-126 -236
t-192 -136.5t-247.5 -45.5zM711 156q203 0 314.5 141.5t111.5 439.5q0 288 -112 425.5t-314 137.5q-424 0 -424 -563q0 -304 109.5 -442.5t314.5 -138.5z" />
    <glyph glyph-name="Otilde" unicode="&#xd5;" horiz-adv-x="1421" 
d="M328 1632q6 81 69.5 145.5t159.5 71.5q56 3 105.5 -9t78 -29t61.5 -31t60 -13q49 1 79 25.5t40 60.5l111 -36q-2 -65 -58 -132.5t-151 -74.5q-45 -3 -88 10t-71.5 30t-67.5 31t-78 13q-117 -7 -150 -97zM711 -16q-135 0 -244.5 43.5t-192.5 132.5t-128.5 235.5
t-45.5 341.5q0 185 44 326.5t125 231t192.5 135t249.5 45.5q137 0 248 -46t192.5 -136t125.5 -231.5t44 -324.5q0 -190 -44.5 -335t-126 -236t-192 -136.5t-247.5 -45.5zM711 156q203 0 314.5 141.5t111.5 439.5q0 288 -112 425.5t-314 137.5q-424 0 -424 -563
q0 -304 109.5 -442.5t314.5 -138.5z" />
    <glyph glyph-name="Odieresis" unicode="&#xd6;" horiz-adv-x="1421" 
d="M496 1593q-42 0 -76.5 34.5t-34.5 80.5t34.5 80.5t76.5 34.5q46 0 80 -34t34 -81t-34 -81t-80 -34zM928 1593q-45 0 -79 34t-34 81t34 81t79 34q44 0 78 -34.5t34 -80.5t-34 -80.5t-78 -34.5zM711 -16q-135 0 -244.5 43.5t-192.5 132.5t-128.5 235.5t-45.5 341.5
q0 185 44 326.5t125 231t192.5 135t249.5 45.5q137 0 248 -46t192.5 -136t125.5 -231.5t44 -324.5q0 -190 -44.5 -335t-126 -236t-192 -136.5t-247.5 -45.5zM711 156q203 0 314.5 141.5t111.5 439.5q0 288 -112 425.5t-314 137.5q-424 0 -424 -563q0 -304 109.5 -442.5
t314.5 -138.5z" />
    <glyph glyph-name="multiply" unicode="&#xd7;" horiz-adv-x="1376" 
d="M197 311l368 369l-360 362l119 123l364 -364l363 364l127 -123l-365 -366l365 -367l-123 -121l-365 365l-368 -367z" />
    <glyph glyph-name="Oslash" unicode="&#xd8;" horiz-adv-x="1421" 
d="M285 -70l-129 84l106 160q-162 195 -162 563q0 185 44 326.5t125 231t192.5 135t249.5 45.5q207 0 350 -101l82 125l127 -84l-99 -147q150 -189 150 -531q0 -190 -44.5 -335t-126 -236t-192 -136.5t-247.5 -45.5q-192 0 -332 88zM287 737q0 -259 82 -401l592 889
q-100 75 -250 75q-424 0 -424 -563zM711 156q203 0 314.5 141.5t111.5 439.5q0 228 -74 367l-588 -885q97 -63 236 -63z" />
    <glyph glyph-name="Ugrave" unicode="&#xd9;" horiz-adv-x="1363" 
d="M618 1567l-227 229l191 141l209 -370h-173zM682 -23q-121 0 -221.5 39.5t-175.5 115.5t-116.5 195t-41.5 269v858h184v-860q0 -218 103 -330t268 -112q169 0 271 112.5t102 329.5v860h182v-858q0 -295 -151.5 -457t-403.5 -162z" />
    <glyph glyph-name="Uacute" unicode="&#xda;" horiz-adv-x="1363" 
d="M575 1575l207 369l185 -136l-230 -233h-162zM682 -23q-121 0 -221.5 39.5t-175.5 115.5t-116.5 195t-41.5 269v858h184v-860q0 -218 103 -330t268 -112q169 0 271 112.5t102 329.5v860h182v-858q0 -295 -151.5 -457t-403.5 -162z" />
    <glyph glyph-name="Ucircumflex" unicode="&#xdb;" horiz-adv-x="1363" 
d="M459 1540l-88 86l221 225h176l219 -219l-90 -90l-215 146zM682 -23q-121 0 -221.5 39.5t-175.5 115.5t-116.5 195t-41.5 269v858h184v-860q0 -218 103 -330t268 -112q169 0 271 112.5t102 329.5v860h182v-858q0 -295 -151.5 -457t-403.5 -162z" />
    <glyph glyph-name="Udieresis" unicode="&#xdc;" horiz-adv-x="1363" 
d="M465 1565q-42 0 -76.5 34t-34.5 80t34.5 80.5t76.5 34.5q46 0 80.5 -34t34.5 -81t-34.5 -80.5t-80.5 -33.5zM897 1565q-45 0 -79 33.5t-34 80.5t34 81t79 34q44 0 78.5 -34.5t34.5 -80.5t-34.5 -80t-78.5 -34zM682 -23q-121 0 -221.5 39.5t-175.5 115.5t-116.5 195
t-41.5 269v858h184v-860q0 -218 103 -330t268 -112q169 0 271 112.5t102 329.5v860h182v-858q0 -295 -151.5 -457t-403.5 -162z" />
    <glyph glyph-name="Yacute" unicode="&#xdd;" horiz-adv-x="1288" 
d="M543 1595l207 369l184 -135l-229 -234h-162zM551 0v569l-488 885h211l371 -678l367 678h211l-488 -885v-569h-184z" />
    <glyph glyph-name="Thorn" unicode="&#xde;" horiz-adv-x="1277" 
d="M168 0v1454h186v-280h312q221 0 358 -123t137 -330q0 -204 -136.5 -326.5t-356.5 -122.5h-314v-272h-186zM354 444h320q131 0 214 76.5t83 202.5q0 127 -83.5 204t-213.5 77h-320v-560z" />
    <glyph glyph-name="germandbls" unicode="&#xdf;" horiz-adv-x="1255" 
d="M166 0v1024q0 111 37 199t100.5 142t143.5 82t169 28q159 0 272.5 -78.5t145.5 -198.5l-237 -375q156 -24 250 -126t94 -257q0 -194 -129.5 -322t-341.5 -128q-79 0 -129 10v172q33 -10 125 -10q135 0 210.5 78.5t75.5 197.5q0 57 -16.5 99t-55 75.5t-107.5 52t-169 21.5
h-14v94l235 404q-45 123 -215 123q-110 0 -184 -69t-74 -210v-1028h-186z" />
    <glyph glyph-name="agrave" unicode="&#xe0;" horiz-adv-x="1085" 
d="M516 1288l-227 230l190 141l209 -371h-172zM461 -16q-154 0 -255.5 87t-101.5 232q0 153 114 245.5t306 92.5q117 0 244 -45q7 -3 10 -4v110q0 121 -60.5 172.5t-193.5 51.5q-73 0 -140.5 -36.5t-111.5 -101.5l-131 95q53 97 161.5 152t236.5 55q198 0 310 -96t112 -302
v-692h-148l-22 133q-49 -59 -132.5 -104t-197.5 -45zM487 141q95 0 176.5 53.5t114.5 131.5v120q-123 49 -243 46q-126 0 -189 -47.5t-63 -131.5q0 -82 55 -127t149 -45z" />
    <glyph glyph-name="aacute" unicode="&#xe1;" horiz-adv-x="1085" 
d="M432 1282l207 369l184 -135l-229 -234h-162zM461 -16q-154 0 -255.5 87t-101.5 232q0 153 114 245.5t306 92.5q117 0 244 -45q7 -3 10 -4v110q0 121 -60.5 172.5t-193.5 51.5q-73 0 -140.5 -36.5t-111.5 -101.5l-131 95q53 97 161.5 152t236.5 55q198 0 310 -96t112 -302
v-692h-148l-22 133q-49 -59 -132.5 -104t-197.5 -45zM487 141q95 0 176.5 53.5t114.5 131.5v120q-123 49 -243 46q-126 0 -189 -47.5t-63 -131.5q0 -82 55 -127t149 -45z" />
    <glyph glyph-name="acircumflex" unicode="&#xe2;" horiz-adv-x="1085" 
d="M334 1274l-88 86l221 225h176l219 -219l-90 -90l-215 145zM461 -16q-154 0 -255.5 87t-101.5 232q0 153 114 245.5t306 92.5q117 0 244 -45q7 -3 10 -4v110q0 121 -60.5 172.5t-193.5 51.5q-73 0 -140.5 -36.5t-111.5 -101.5l-131 95q53 97 161.5 152t236.5 55
q198 0 310 -96t112 -302v-692h-148l-22 133q-49 -59 -132.5 -104t-197.5 -45zM487 141q95 0 176.5 53.5t114.5 131.5v120q-123 49 -243 46q-126 0 -189 -47.5t-63 -131.5q0 -82 55 -127t149 -45z" />
    <glyph glyph-name="atilde" unicode="&#xe3;" horiz-adv-x="1085" 
d="M174 1348q6 81 69.5 145.5t159.5 71.5q56 3 105.5 -9t78.5 -29t62 -31t60 -13q49 1 78.5 25.5t39.5 60.5l111 -37q-2 -65 -58 -132.5t-151 -74.5q-45 -3 -88 10t-71.5 30t-67.5 31t-78 13q-117 -7 -150 -96zM461 -16q-154 0 -255.5 87t-101.5 232q0 153 114 245.5
t306 92.5q117 0 244 -45q7 -3 10 -4v110q0 121 -60.5 172.5t-193.5 51.5q-73 0 -140.5 -36.5t-111.5 -101.5l-131 95q53 97 161.5 152t236.5 55q198 0 310 -96t112 -302v-692h-148l-22 133q-49 -59 -132.5 -104t-197.5 -45zM487 141q95 0 176.5 53.5t114.5 131.5v120
q-123 49 -243 46q-126 0 -189 -47.5t-63 -131.5q0 -82 55 -127t149 -45z" />
    <glyph glyph-name="adieresis" unicode="&#xe4;" horiz-adv-x="1085" 
d="M342 1307q-42 0 -76.5 34t-34.5 80t34.5 80.5t76.5 34.5q46 0 80.5 -34t34.5 -81t-34.5 -80.5t-80.5 -33.5zM774 1307q-45 0 -78.5 33.5t-33.5 80.5t33.5 81t78.5 34q44 0 78.5 -34.5t34.5 -80.5t-34.5 -80t-78.5 -34zM461 -16q-154 0 -255.5 87t-101.5 232
q0 153 114 245.5t306 92.5q117 0 244 -45q7 -3 10 -4v110q0 121 -60.5 172.5t-193.5 51.5q-73 0 -140.5 -36.5t-111.5 -101.5l-131 95q53 97 161.5 152t236.5 55q198 0 310 -96t112 -302v-692h-148l-22 133q-49 -59 -132.5 -104t-197.5 -45zM487 141q95 0 176.5 53.5
t114.5 131.5v120q-123 49 -243 46q-126 0 -189 -47.5t-63 -131.5q0 -82 55 -127t149 -45z" />
    <glyph glyph-name="aring" unicode="&#xe5;" horiz-adv-x="1085" 
d="M561 1239q-94 0 -164.5 69.5t-70.5 166.5q0 94 71.5 165.5t163.5 71.5q91 0 163.5 -71.5t72.5 -165.5q0 -97 -72 -166.5t-164 -69.5zM561 1360q49 0 81 32.5t32 80.5q0 47 -32.5 81.5t-80.5 34.5q-47 0 -81 -35t-34 -81q0 -48 33 -80.5t82 -32.5zM461 -16
q-154 0 -255.5 87t-101.5 232q0 153 114 245.5t306 92.5q117 0 244 -45q7 -3 10 -4v110q0 121 -60.5 172.5t-193.5 51.5q-73 0 -140.5 -36.5t-111.5 -101.5l-131 95q53 97 161.5 152t236.5 55q198 0 310 -96t112 -302v-692h-148l-22 133q-49 -59 -132.5 -104t-197.5 -45z
M487 141q95 0 176.5 53.5t114.5 131.5v120q-123 49 -243 46q-126 0 -189 -47.5t-63 -131.5q0 -82 55 -127t149 -45z" />
    <glyph glyph-name="ae" unicode="&#xe6;" horiz-adv-x="1744" 
d="M457 -16q-180 0 -292 91t-112 230q0 156 115.5 250t318.5 94q172 0 263 -31v19q-11 152 -76 225.5t-193 73.5q-51 0 -92 -9.5t-74 -31t-45.5 -32t-40.5 -36.5l-129 93q55 73 153.5 123.5t235.5 50.5q270 0 375 -197q66 95 165 144t214 49q96 0 180 -32.5t148 -95
t100.5 -161t36.5 -221.5v-107h-758q3 -170 93 -253t225 -83q96 0 181.5 41t133.5 103l117 -113q-72 -90 -184 -141.5t-256 -51.5q-124 0 -232 53t-174 158q-62 -100 -164.5 -151t-232.5 -51zM950 621h578q0 146 -80 227.5t-205 81.5q-126 0 -206 -81t-87 -228zM457 137
q124 0 205.5 75t87.5 220v45q-40 15 -116.5 23t-137.5 4q-130 -3 -197.5 -54.5t-67.5 -134.5q0 -78 60.5 -128t165.5 -50z" />
    <glyph glyph-name="ccedilla" unicode="&#xe7;" horiz-adv-x="1169" 
d="M834 -305q0 -96 -64.5 -158.5t-183.5 -62.5q-80 0 -183 45l46 133q77 -35 139 -35q41 0 69.5 21t28.5 57q0 76 -123 86l-82 8l41 191q-85 13 -159 53.5t-132.5 106t-92.5 165t-34 221.5q0 135 42.5 244.5t113.5 178t160 105t186 36.5q182 0 302.5 -91.5t156.5 -271.5
h-186q-32 104 -96.5 150.5t-174.5 46.5q-64 0 -119.5 -22.5t-102 -68t-73 -125.5t-26.5 -186q0 -99 27 -175t73.5 -120t101.5 -66t117 -22q114 0 178 43t95 129h186q-32 -155 -143 -243t-287 -95l-10 -59q90 -11 149.5 -69t59.5 -150z" />
    <glyph glyph-name="egrave" unicode="&#xe8;" horiz-adv-x="1175" 
d="M553 1286l-227 230l190 141l209 -371h-172zM606 -25q-77 0 -148 20t-134.5 63.5t-110 107.5t-73.5 158t-27 208q0 137 39 245.5t105.5 175.5t151.5 102t181 35t180 -32.5t148 -95t100.5 -161t36.5 -221.5v-107h-758q3 -170 92.5 -253t224.5 -83q97 0 182.5 41t133.5 103
l117 -113q-72 -90 -184.5 -141.5t-256.5 -51.5zM297 621h577q0 146 -79.5 227.5t-204.5 81.5q-126 0 -206 -81t-87 -228z" />
    <glyph glyph-name="eacute" unicode="&#xe9;" horiz-adv-x="1175" 
d="M469 1280l207 369l184 -136l-229 -233h-162zM606 -25q-77 0 -148 20t-134.5 63.5t-110 107.5t-73.5 158t-27 208q0 137 39 245.5t105.5 175.5t151.5 102t181 35t180 -32.5t148 -95t100.5 -161t36.5 -221.5v-107h-758q3 -170 92.5 -253t224.5 -83q97 0 182.5 41t133.5 103
l117 -113q-72 -90 -184.5 -141.5t-256.5 -51.5zM297 621h577q0 146 -79.5 227.5t-204.5 81.5q-126 0 -206 -81t-87 -228z" />
    <glyph glyph-name="ecircumflex" unicode="&#xea;" horiz-adv-x="1175" 
d="M373 1272l-88 86l221 225h176l219 -219l-90 -90l-215 145zM606 -25q-77 0 -148 20t-134.5 63.5t-110 107.5t-73.5 158t-27 208q0 137 39 245.5t105.5 175.5t151.5 102t181 35t180 -32.5t148 -95t100.5 -161t36.5 -221.5v-107h-758q3 -170 92.5 -253t224.5 -83
q97 0 182.5 41t133.5 103l117 -113q-72 -90 -184.5 -141.5t-256.5 -51.5zM297 621h577q0 146 -79.5 227.5t-204.5 81.5q-126 0 -206 -81t-87 -228z" />
    <glyph glyph-name="edieresis" unicode="&#xeb;" horiz-adv-x="1175" 
d="M379 1305q-42 0 -76.5 34t-34.5 80t34.5 80.5t76.5 34.5q46 0 80.5 -34t34.5 -81t-34.5 -80.5t-80.5 -33.5zM811 1305q-45 0 -79 33.5t-34 80.5t34 81t79 34q44 0 78.5 -34.5t34.5 -80.5t-34.5 -80t-78.5 -34zM606 -25q-77 0 -148 20t-134.5 63.5t-110 107.5t-73.5 158
t-27 208q0 137 39 245.5t105.5 175.5t151.5 102t181 35t180 -32.5t148 -95t100.5 -161t36.5 -221.5v-107h-758q3 -170 92.5 -253t224.5 -83q97 0 182.5 41t133.5 103l117 -113q-72 -90 -184.5 -141.5t-256.5 -51.5zM297 621h577q0 146 -79.5 227.5t-204.5 81.5
q-126 0 -206 -81t-87 -228z" />
    <glyph glyph-name="igrave" unicode="&#xec;" horiz-adv-x="518" 
d="M193 1284l-136 225l181 123l122 -348h-167zM168 0v1069h184v-1069h-184z" />
    <glyph glyph-name="iacute" unicode="&#xed;" horiz-adv-x="518" 
d="M172 1286l129 354l186 -131l-153 -223h-162zM168 0v1069h184v-1069h-184z" />
    <glyph glyph-name="icircumflex" unicode="&#xee;" horiz-adv-x="520" 
d="M123 1300l-109 86l158 207h178l156 -204l-109 -86l-137 118zM168 0v1069h184v-1069h-184z" />
    <glyph glyph-name="idieresis" unicode="&#xef;" horiz-adv-x="532" 
d="M115 1315q-47 0 -77 30.5t-30 81.5q0 50 30 80.5t77 30.5t78.5 -30.5t31.5 -80.5q0 -51 -31.5 -81.5t-78.5 -30.5zM418 1313q-47 0 -78 30.5t-31 83.5q0 50 31 80.5t78 30.5q46 0 76 -30.5t30 -80.5q0 -53 -29.5 -83.5t-76.5 -30.5zM174 0v1069h184v-1069h-184z" />
    <glyph glyph-name="eth" unicode="&#xf0;" horiz-adv-x="1218" 
d="M598 -18q-71 0 -140 20.5t-133.5 64.5t-113 106.5t-78 154t-29.5 200.5q0 165 67 292t179.5 194t249.5 67q155 0 223 -61q-10 63 -110 209l-287 -64l-29 113l234 63q-59 75 -121 134l137 116q89 -89 168 -198l219 59l43 -141l-182 -41q204 -338 207 -692
q1 -150 -41.5 -267.5t-115 -187.5t-161 -105.5t-186.5 -35.5zM600 150q41 0 83 12.5t83 41.5t73 70.5t52 105t20 140.5q0 188 -77 290.5t-230 102.5q-142 0 -227.5 -105.5t-85.5 -279.5q0 -100 29.5 -176.5t77 -118.5t99 -62.5t103.5 -20.5z" />
    <glyph glyph-name="ntilde" unicode="&#xf1;" 
d="M213 1341q6 81 69.5 146t159.5 72q56 3 105.5 -9t78.5 -29t62 -31t60 -13q49 1 78.5 25.5t39.5 60.5l111 -37q-2 -65 -58 -132.5t-151 -74.5q-45 -3 -88 10t-71.5 30t-67.5 31t-78 13q-117 -7 -150 -96zM166 0v1069h141l29 -139q34 72 124.5 121t194.5 49
q173 0 281 -119.5t108 -335.5v-645h-186v641q0 141 -63 217t-185 76q-114 0 -185 -79.5t-71 -213.5v-641h-188z" />
    <glyph glyph-name="ograve" unicode="&#xf2;" 
d="M547 1288l-228 230l191 141l209 -371h-172zM588 -18q-93 0 -177 34t-153.5 99.5t-110.5 174t-41 245.5q0 142 40.5 251.5t109.5 174t153 97t179 32.5q97 0 182.5 -33t154.5 -98.5t109.5 -174.5t40.5 -249q0 -136 -41.5 -244.5t-111.5 -174t-155.5 -100t-178.5 -34.5z
M588 150q59 0 112 22.5t97 67.5t70 121t26 174q0 102 -25 179t-68 122.5t-96.5 67.5t-115.5 22q-132 0 -215.5 -95.5t-83.5 -295.5q0 -96 25 -171.5t67 -121t95 -69t112 -23.5z" />
    <glyph glyph-name="oacute" unicode="&#xf3;" 
d="M463 1282l207 369l184 -135l-229 -234h-162zM588 -18q-93 0 -177 34t-153.5 99.5t-110.5 174t-41 245.5q0 142 40.5 251.5t109.5 174t153 97t179 32.5q97 0 182.5 -33t154.5 -98.5t109.5 -174.5t40.5 -249q0 -136 -41.5 -244.5t-111.5 -174t-155.5 -100t-178.5 -34.5z
M588 150q59 0 112 22.5t97 67.5t70 121t26 174q0 102 -25 179t-68 122.5t-96.5 67.5t-115.5 22q-132 0 -215.5 -95.5t-83.5 -295.5q0 -96 25 -171.5t67 -121t95 -69t112 -23.5z" />
    <glyph glyph-name="ocircumflex" unicode="&#xf4;" 
d="M365 1274l-89 86l222 225h176l219 -219l-90 -90l-215 145zM588 -18q-93 0 -177 34t-153.5 99.5t-110.5 174t-41 245.5q0 142 40.5 251.5t109.5 174t153 97t179 32.5q97 0 182.5 -33t154.5 -98.5t109.5 -174.5t40.5 -249q0 -136 -41.5 -244.5t-111.5 -174t-155.5 -100
t-178.5 -34.5zM588 150q59 0 112 22.5t97 67.5t70 121t26 174q0 102 -25 179t-68 122.5t-96.5 67.5t-115.5 22q-132 0 -215.5 -95.5t-83.5 -295.5q0 -96 25 -171.5t67 -121t95 -69t112 -23.5z" />
    <glyph glyph-name="otilde" unicode="&#xf5;" 
d="M205 1348q6 81 69.5 145.5t159.5 71.5q56 3 105.5 -9t78 -29t61.5 -31t60 -13q49 1 79 25.5t40 60.5l111 -37q-2 -65 -58 -132.5t-151 -74.5q-45 -3 -88 10t-71.5 30t-67.5 31t-78 13q-117 -7 -150 -96zM588 -18q-93 0 -177 34t-153.5 99.5t-110.5 174t-41 245.5
q0 142 40.5 251.5t109.5 174t153 97t179 32.5q97 0 182.5 -33t154.5 -98.5t109.5 -174.5t40.5 -249q0 -136 -41.5 -244.5t-111.5 -174t-155.5 -100t-178.5 -34.5zM588 150q59 0 112 22.5t97 67.5t70 121t26 174q0 102 -25 179t-68 122.5t-96.5 67.5t-115.5 22
q-132 0 -215.5 -95.5t-83.5 -295.5q0 -96 25 -171.5t67 -121t95 -69t112 -23.5z" />
    <glyph glyph-name="odieresis" unicode="&#xf6;" 
d="M373 1307q-42 0 -76.5 34t-34.5 80t34.5 80.5t76.5 34.5q46 0 80 -34t34 -81t-34 -80.5t-80 -33.5zM805 1307q-45 0 -79 33.5t-34 80.5t34 81t79 34q44 0 78.5 -34.5t34.5 -80.5t-34.5 -80t-78.5 -34zM588 -18q-93 0 -177 34t-153.5 99.5t-110.5 174t-41 245.5
q0 142 40.5 251.5t109.5 174t153 97t179 32.5q97 0 182.5 -33t154.5 -98.5t109.5 -174.5t40.5 -249q0 -136 -41.5 -244.5t-111.5 -174t-155.5 -100t-178.5 -34.5zM588 150q59 0 112 22.5t97 67.5t70 121t26 174q0 102 -25 179t-68 122.5t-96.5 67.5t-115.5 22
q-132 0 -215.5 -95.5t-83.5 -295.5q0 -96 25 -171.5t67 -121t95 -69t112 -23.5z" />
    <glyph glyph-name="divide" unicode="&#xf7;" horiz-adv-x="1353" 
d="M672 922q-47 0 -81 33t-34 83q0 51 34 83t81 32q46 0 80 -32t34 -83q0 -50 -34 -83t-80 -33zM186 600v162h983v-162h-983zM672 193q-47 0 -81 34t-34 84q0 51 34 85t81 34q46 0 80 -34t34 -85q0 -50 -34.5 -84t-79.5 -34z" />
    <glyph glyph-name="oslash" unicode="&#xf8;" horiz-adv-x="1200" 
d="M215 -51l-109 80l113 139q-106 141 -106 367q0 142 40.5 251.5t109 174t152.5 97t179 32.5q172 0 295 -97l98 121l107 -80l-111 -137q98 -141 98 -362q0 -136 -41.5 -244.5t-111.5 -174t-155.5 -100t-178.5 -34.5q-158 0 -279 90zM295 535q0 -129 43 -220l442 545
q-75 66 -186 66q-132 0 -215.5 -95.5t-83.5 -295.5zM594 150q59 0 112 22.5t97 67.5t70 121t26 174q0 125 -37 213l-438 -541q72 -57 170 -57z" />
    <glyph glyph-name="ugrave" unicode="&#xf9;" horiz-adv-x="1187" 
d="M539 1286l-228 230l191 141l209 -371h-172zM547 -23q-83 0 -156 28.5t-130 83t-90.5 143.5t-33.5 202v635h193v-635q0 -141 68 -215t182 -74q111 0 181 76.5t70 212.5v635h189v-1069h-143l-27 150q-27 -72 -119 -122.5t-184 -50.5z" />
    <glyph glyph-name="uacute" unicode="&#xfa;" horiz-adv-x="1187" 
d="M455 1280l207 369l184 -136l-230 -233h-161zM547 -23q-83 0 -156 28.5t-130 83t-90.5 143.5t-33.5 202v635h193v-635q0 -141 68 -215t182 -74q111 0 181 76.5t70 212.5v635h189v-1069h-143l-27 150q-27 -72 -119 -122.5t-184 -50.5z" />
    <glyph glyph-name="ucircumflex" unicode="&#xfb;" horiz-adv-x="1187" 
d="M358 1272l-88 86l222 225h176l219 -219l-90 -90l-215 145zM547 -23q-83 0 -156 28.5t-130 83t-90.5 143.5t-33.5 202v635h193v-635q0 -141 68 -215t182 -74q111 0 181 76.5t70 212.5v635h189v-1069h-143l-27 150q-27 -72 -119 -122.5t-184 -50.5z" />
    <glyph glyph-name="udieresis" unicode="&#xfc;" horiz-adv-x="1187" 
d="M365 1305q-42 0 -76.5 34t-34.5 80t34.5 80.5t76.5 34.5q46 0 80 -34t34 -81t-34 -80.5t-80 -33.5zM797 1305q-45 0 -79 33.5t-34 80.5t34 81t79 34q43 0 77.5 -34t34.5 -81q0 -46 -34 -80t-78 -34zM547 -23q-83 0 -156 28.5t-130 83t-90.5 143.5t-33.5 202v635h193v-635
q0 -141 68 -215t182 -74q111 0 181 76.5t70 212.5v635h189v-1069h-143l-27 150q-27 -72 -119 -122.5t-184 -50.5z" />
    <glyph glyph-name="yacute" unicode="&#xfd;" horiz-adv-x="1081" 
d="M414 1282l207 369l184 -135l-230 -234h-161zM473 -408h-184l157 406v4l-393 1067h201l285 -831l284 831h201z" />
    <glyph glyph-name="thorn" unicode="&#xfe;" horiz-adv-x="1245" 
d="M166 -434v1909h184v-557q42 78 138.5 126t199.5 48q63 0 125.5 -19.5t121.5 -63.5t104 -107t72.5 -157.5t27.5 -207.5q0 -114 -27 -208t-72 -157t-105 -106t-124 -62.5t-131 -19.5q-98 0 -198.5 49.5t-127.5 120.5v-588h-188zM649 147q57 0 108.5 22.5t96 67t70.5 122.5
t26 178q0 83 -17.5 149.5t-46.5 110t-68.5 73t-81.5 42t-87 12.5q-52 0 -102.5 -20t-98.5 -62.5t-78 -121.5t-30 -183q0 -98 28 -175t73.5 -122.5t98.5 -69t109 -23.5z" />
    <glyph glyph-name="ydieresis" unicode="&#xff;" horiz-adv-x="1081" 
d="M324 1307q-42 0 -76.5 34t-34.5 80t34.5 80.5t76.5 34.5q46 0 80 -34t34 -81t-34 -80.5t-80 -33.5zM756 1307q-45 0 -79 33.5t-34 80.5t34 81t79 34q44 0 78 -34t34 -81q0 -46 -34 -80t-78 -34zM473 -408h-184l157 406v4l-393 1067h201l285 -831l284 831h201z" />
    <glyph glyph-name="Amacron" unicode="&#x100;" horiz-adv-x="1411" 
d="M322 1645v151h749v-151h-749zM1171 0l-151 385h-627l-147 -385h-197l559 1454h193l563 -1454h-193zM705 1194l-246 -641h495z" />
    <glyph glyph-name="amacron" unicode="&#x101;" horiz-adv-x="1085" 
d="M184 1352v151h750v-151h-750zM461 -16q-154 0 -255.5 87t-101.5 232q0 153 114 245.5t306 92.5q117 0 244 -45q7 -3 10 -4v110q0 121 -60.5 172.5t-193.5 51.5q-73 0 -140.5 -36.5t-111.5 -101.5l-131 95q53 97 161.5 152t236.5 55q198 0 310 -96t112 -302v-692h-148
l-22 133q-49 -59 -132.5 -104t-197.5 -45zM487 141q95 0 176.5 53.5t114.5 131.5v120q-123 49 -243 46q-126 0 -189 -47.5t-63 -131.5q0 -82 55 -127t149 -45z" />
    <glyph glyph-name="Abreve" unicode="&#x102;" horiz-adv-x="1411" 
d="M694 1599q-99 0 -196 53t-154 134l102 100q47 -58 115.5 -93.5t132.5 -35.5q66 0 131 33.5t115 95.5l107 -100q-56 -87 -152.5 -137t-200.5 -50zM1171 0l-151 385h-627l-147 -385h-197l559 1454h193l563 -1454h-193zM705 1194l-246 -641h495z" />
    <glyph glyph-name="abreve" unicode="&#x103;" horiz-adv-x="1085" 
d="M557 1305q-100 0 -196.5 52.5t-153.5 133.5l102 100q47 -58 115.5 -93.5t132.5 -35.5q66 0 131 33.5t115 95.5l106 -100q-56 -87 -152 -136.5t-200 -49.5zM461 -16q-154 0 -255.5 87t-101.5 232q0 153 114 245.5t306 92.5q117 0 244 -45q7 -3 10 -4v110
q0 121 -60.5 172.5t-193.5 51.5q-73 0 -140.5 -36.5t-111.5 -101.5l-131 95q53 97 161.5 152t236.5 55q198 0 310 -96t112 -302v-692h-148l-22 133q-49 -59 -132.5 -104t-197.5 -45zM487 141q95 0 176.5 53.5t114.5 131.5v120q-123 49 -243 46q-126 0 -189 -47.5t-63 -131.5
q0 -82 55 -127t149 -45z" />
    <glyph glyph-name="Aogonek" unicode="&#x104;" horiz-adv-x="1411" 
d="M1329 -444h-170q-68 0 -120 27t-75 69t-17 94.5t46 101.5q35 50 164 191l-137 346h-627l-147 -385h-197l559 1454h193l563 -1454h-27l-186 -207q-17 -19 -20 -36.5t15 -29.5t58 -12h125v-159zM705 1194l-246 -641h495z" />
    <glyph glyph-name="aogonek" unicode="&#x105;" horiz-adv-x="1085" 
d="M461 -16q-154 0 -255.5 87t-101.5 232q0 153 114 245.5t306 92.5q117 0 244 -45q7 -3 10 -4v110q0 121 -60.5 172.5t-193.5 51.5q-73 0 -140.5 -36.5t-111.5 -101.5l-131 95q53 97 161.5 152t236.5 55q198 0 310 -96t112 -302v-692h-3l-186 -207q-17 -19 -20 -36.5
t15 -29.5t58 -12h125v-159h-170q-68 0 -120 27t-75 69t-17 94.5t46 101.5q38 52 174 203q6 6 15 12l-12 70q-49 -59 -132.5 -104t-197.5 -45zM487 141q95 0 176.5 53.5t114.5 131.5v120q-123 49 -243 46q-126 0 -189 -47.5t-63 -131.5q0 -82 55 -127t149 -45z" />
    <glyph glyph-name="Cacute" unicode="&#x106;" horiz-adv-x="1404" 
d="M610 1606l207 368l184 -135l-229 -233h-162zM731 -20q-103 0 -194 25.5t-172 83t-139.5 142t-92 209.5t-33.5 279q0 161 32 289t88.5 214.5t136.5 144t173 83t201 25.5q246 0 390 -128t177 -358h-190q-32 152 -121.5 231.5t-255.5 79.5q-79 0 -143.5 -17.5t-121.5 -59
t-95 -107t-60 -166t-22 -231.5q0 -151 33 -262.5t94 -177t139 -96.5t176 -31q173 0 261.5 83t119.5 244h191q-32 -248 -177.5 -373.5t-394.5 -125.5z" />
    <glyph glyph-name="cacute" unicode="&#x107;" horiz-adv-x="1169" 
d="M479 1282l207 369l184 -135l-229 -234h-162zM604 -27q-97 0 -185 34t-159 100t-113.5 174.5t-42.5 244.5q0 135 42.5 244.5t113.5 178t160 105t186 36.5q182 0 302.5 -91.5t156.5 -271.5h-186q-32 104 -96.5 150.5t-174.5 46.5q-64 0 -119.5 -22.5t-102 -68t-73 -125.5
t-26.5 -186q0 -99 27 -175t73.5 -120t101.5 -66t117 -22q114 0 178 43t95 129h186q-34 -161 -153 -249.5t-308 -88.5z" />
    <glyph glyph-name="Cdotaccent" unicode="&#x10a;" horiz-adv-x="1404" 
d="M741 1606q-47 0 -83.5 34t-36.5 84q0 49 36.5 85t83.5 36q45 0 82 -36t37 -85t-36.5 -83.5t-82.5 -34.5zM731 -20q-103 0 -194 25.5t-172 83t-139.5 142t-92 209.5t-33.5 279q0 161 32 289t88.5 214.5t136.5 144t173 83t201 25.5q246 0 390 -128t177 -358h-190
q-32 152 -121.5 231.5t-255.5 79.5q-79 0 -143.5 -17.5t-121.5 -59t-95 -107t-60 -166t-22 -231.5q0 -151 33 -262.5t94 -177t139 -96.5t176 -31q173 0 261.5 83t119.5 244h191q-32 -248 -177.5 -373.5t-394.5 -125.5z" />
    <glyph glyph-name="cdotaccent" unicode="&#x10b;" horiz-adv-x="1169" 
d="M608 1300q-47 0 -84 34.5t-37 84.5q0 49 37 85t84 36q45 0 82 -36t37 -85q0 -50 -36.5 -84.5t-82.5 -34.5zM604 -27q-97 0 -185 34t-159 100t-113.5 174.5t-42.5 244.5q0 135 42.5 244.5t113.5 178t160 105t186 36.5q182 0 302.5 -91.5t156.5 -271.5h-186
q-32 104 -96.5 150.5t-174.5 46.5q-64 0 -119.5 -22.5t-102 -68t-73 -125.5t-26.5 -186q0 -99 27 -175t73.5 -120t101.5 -66t117 -22q114 0 178 43t95 129h186q-34 -161 -153 -249.5t-308 -88.5z" />
    <glyph glyph-name="Ccaron" unicode="&#x10c;" horiz-adv-x="1404" 
d="M641 1604l-223 219l88 92l221 -148l221 148l86 -90l-217 -221h-176zM731 -20q-103 0 -194 25.5t-172 83t-139.5 142t-92 209.5t-33.5 279q0 161 32 289t88.5 214.5t136.5 144t173 83t201 25.5q246 0 390 -128t177 -358h-190q-32 152 -121.5 231.5t-255.5 79.5
q-79 0 -143.5 -17.5t-121.5 -59t-95 -107t-60 -166t-22 -231.5q0 -151 33 -262.5t94 -177t139 -96.5t176 -31q173 0 261.5 83t119.5 244h191q-32 -248 -177.5 -373.5t-394.5 -125.5z" />
    <glyph glyph-name="ccaron" unicode="&#x10d;" horiz-adv-x="1169" 
d="M520 1321l-223 219l88 92l221 -147l221 147l86 -90l-217 -221h-176zM604 -27q-97 0 -185 34t-159 100t-113.5 174.5t-42.5 244.5q0 135 42.5 244.5t113.5 178t160 105t186 36.5q182 0 302.5 -91.5t156.5 -271.5h-186q-32 104 -96.5 150.5t-174.5 46.5q-64 0 -119.5 -22.5
t-102 -68t-73 -125.5t-26.5 -186q0 -99 27 -175t73.5 -120t101.5 -66t117 -22q114 0 178 43t95 129h186q-34 -161 -153 -249.5t-308 -88.5z" />
    <glyph glyph-name="Dcaron" unicode="&#x10e;" horiz-adv-x="1386" 
d="M596 1602l-223 219l88 92l221 -148l221 148l86 -90l-217 -221h-176zM166 0v1454h414q328 0 509 -183t181 -540q0 -378 -173 -554.5t-517 -176.5h-414zM350 176h230q261 0 377 132.5t116 422.5q0 281 -121.5 414t-371.5 133h-230v-1102z" />
    <glyph glyph-name="dcaron" unicode="&#x10f;" horiz-adv-x="1464" 
d="M578 -18q-83 0 -164 34.5t-151 100.5t-113.5 177t-43.5 249q0 136 41 244t109.5 172.5t150 97.5t168.5 33q107 0 193.5 -49t116.5 -113v567h192v-1495h-153l-21 160q-35 -78 -128.5 -128t-196.5 -50zM1278 1454h176l-74 -352h-145zM604 150q50 0 100.5 24t95 69.5t72 123
t27.5 174.5q0 92 -25 166.5t-67 121t-94 71t-107 24.5q-58 0 -111 -21t-99 -64t-73.5 -119.5t-27.5 -178.5q0 -85 20.5 -153.5t52.5 -112t73.5 -72.5t82 -41t80.5 -12z" />
    <glyph glyph-name="Dcroat" unicode="&#x110;" horiz-adv-x="1466" 
d="M246 0v641h-201v170h201v643h413q328 0 509.5 -183t181.5 -540q0 -378 -173.5 -554.5t-517.5 -176.5h-413zM430 176h229q261 0 377.5 132.5t116.5 422.5q0 281 -121.5 414t-372.5 133h-229v-467h303v-170h-303v-465z" />
    <glyph glyph-name="dcroat" unicode="&#x111;" horiz-adv-x="1273" 
d="M584 -18q-66 0 -132 21t-128.5 66t-110.5 109.5t-77.5 159t-29.5 205.5q0 110 28 202t74.5 154.5t108.5 106.5t129 64t136 20q94 0 194 -55t127 -126v320h-297v145h297v191h195v-191h157v-145h-157v-1229h-156l-20 164q-34 -77 -134.5 -129.5t-203.5 -52.5zM608 150
q50 0 101 24t96.5 69.5t74.5 123.5t29 174q0 92 -26.5 166.5t-69.5 121t-95.5 71t-107.5 24.5q-46 0 -89.5 -12.5t-85 -41.5t-72 -72t-49.5 -109t-19 -148q0 -85 20.5 -153.5t53.5 -112t75 -72.5t83 -41t81 -12z" />
    <glyph glyph-name="Emacron" unicode="&#x112;" horiz-adv-x="1253" 
d="M262 1645v151h750v-151h-750zM170 0v1454h938v-172h-754v-459h600v-174h-600v-477h770v-172h-954z" />
    <glyph glyph-name="emacron" unicode="&#x113;" horiz-adv-x="1175" 
d="M223 1350v151h750v-151h-750zM606 -25q-77 0 -148 20t-134.5 63.5t-110 107.5t-73.5 158t-27 208q0 137 39 245.5t105.5 175.5t151.5 102t181 35t180 -32.5t148 -95t100.5 -161t36.5 -221.5v-107h-758q3 -170 92.5 -253t224.5 -83q97 0 182.5 41t133.5 103l117 -113
q-72 -90 -184.5 -141.5t-256.5 -51.5zM297 621h577q0 146 -79.5 227.5t-204.5 81.5q-126 0 -206 -81t-87 -228z" />
    <glyph glyph-name="Ebreve" unicode="&#x114;" horiz-adv-x="1253" 
d="M633 1599q-99 0 -196 53t-154 134l102 100q47 -58 115.5 -93.5t132.5 -35.5q66 0 131 33.5t115 95.5l106 -100q-56 -87 -152 -137t-200 -50zM170 0v1454h938v-172h-754v-459h600v-174h-600v-477h770v-172h-954z" />
    <glyph glyph-name="ebreve" unicode="&#x115;" horiz-adv-x="1175" 
d="M596 1303q-100 0 -196.5 52.5t-153.5 133.5l102 100q47 -58 115.5 -93.5t132.5 -35.5q66 0 131 33.5t115 95.5l106 -100q-56 -87 -152 -136.5t-200 -49.5zM606 -25q-77 0 -148 20t-134.5 63.5t-110 107.5t-73.5 158t-27 208q0 137 39 245.5t105.5 175.5t151.5 102t181 35
t180 -32.5t148 -95t100.5 -161t36.5 -221.5v-107h-758q3 -170 92.5 -253t224.5 -83q97 0 182.5 41t133.5 103l117 -113q-72 -90 -184.5 -141.5t-256.5 -51.5zM297 621h577q0 146 -79.5 227.5t-204.5 81.5q-126 0 -206 -81t-87 -228z" />
    <glyph glyph-name="Edotaccent" unicode="&#x116;" horiz-adv-x="1253" 
d="M637 1606q-47 0 -84 34t-37 84q0 49 37 85t84 36q45 0 82 -36t37 -85t-36.5 -83.5t-82.5 -34.5zM170 0v1454h938v-172h-754v-459h600v-174h-600v-477h770v-172h-954z" />
    <glyph glyph-name="edotaccent" unicode="&#x117;" horiz-adv-x="1175" 
d="M598 1298q-47 0 -84 34.5t-37 84.5q0 49 37 85t84 36q45 0 82 -36t37 -85q0 -50 -36.5 -84.5t-82.5 -34.5zM606 -25q-77 0 -148 20t-134.5 63.5t-110 107.5t-73.5 158t-27 208q0 137 39 245.5t105.5 175.5t151.5 102t181 35t180 -32.5t148 -95t100.5 -161t36.5 -221.5
v-107h-758q3 -170 92.5 -253t224.5 -83q97 0 182.5 41t133.5 103l117 -113q-72 -90 -184.5 -141.5t-256.5 -51.5zM297 621h577q0 146 -79.5 227.5t-204.5 81.5q-126 0 -206 -81t-87 -228z" />
    <glyph glyph-name="Eogonek" unicode="&#x118;" horiz-adv-x="1253" 
d="M170 0v1454h938v-172h-754v-459h600v-174h-600v-477h770v-172h-14l-186 -207q-17 -19 -20 -36.5t15 -29.5t58 -12h125v-159h-170q-68 0 -120 27t-75 69t-17 94.5t46 101.5q41 56 129 152h-725z" />
    <glyph glyph-name="eogonek" unicode="&#x119;" horiz-adv-x="1175" 
d="M606 -25q-77 0 -148 20t-134.5 63.5t-110 107.5t-73.5 158t-27 208q0 137 39 245.5t105.5 175.5t151.5 102t181 35t180 -32.5t148 -95t100.5 -161t36.5 -221.5v-107h-758q3 -170 92.5 -253t224.5 -83q97 0 182.5 41t133.5 103l117 -113q-42 -52 -93 -88l9 -12l-187 -207
q-17 -19 -20 -36.5t15 -29.5t58 -12h125l-2 -160h-170q-55 1 -99.5 18.5t-71 48t-37 67.5t0.5 79.5t43 81.5q6 8 50 59q-20 -2 -62 -2zM297 621h577q0 146 -79.5 227.5t-204.5 81.5q-126 0 -206 -81t-87 -228z" />
    <glyph glyph-name="Ecaron" unicode="&#x11a;" horiz-adv-x="1253" 
d="M549 1604l-223 219l88 92l221 -148l221 148l86 -90l-217 -221h-176zM170 0v1454h938v-172h-754v-459h600v-174h-600v-477h770v-172h-954z" />
    <glyph glyph-name="ecaron" unicode="&#x11b;" horiz-adv-x="1175" 
d="M510 1319l-223 219l88 92l221 -147l221 147l86 -90l-217 -221h-176zM606 -25q-77 0 -148 20t-134.5 63.5t-110 107.5t-73.5 158t-27 208q0 137 39 245.5t105.5 175.5t151.5 102t181 35t180 -32.5t148 -95t100.5 -161t36.5 -221.5v-107h-758q3 -170 92.5 -253t224.5 -83
q97 0 182.5 41t133.5 103l117 -113q-72 -90 -184.5 -141.5t-256.5 -51.5zM297 621h577q0 146 -79.5 227.5t-204.5 81.5q-126 0 -206 -81t-87 -228z" />
    <glyph glyph-name="Gbreve" unicode="&#x11e;" horiz-adv-x="1402" 
d="M696 1610q-100 0 -196.5 52.5t-153.5 133.5l103 100q47 -58 115.5 -93.5t131.5 -35.5q66 0 131 33.5t115 95.5l107 -100q-56 -86 -152.5 -136t-200.5 -50zM715 -23q-104 0 -192.5 24.5t-167.5 80.5t-135 142t-88 215.5t-32 293.5q0 191 46.5 335.5t130.5 232t194.5 131
t245.5 43.5q243 0 388.5 -117.5t188.5 -343.5h-200q-13 48 -31 87t-48.5 78t-70 65t-98 42.5t-129.5 16.5q-430 0 -430 -572q0 -581 428 -581q199 0 299.5 100.5t103.5 339.5h-358v164h543v-138q-5 -639 -588 -639z" />
    <glyph glyph-name="gbreve" unicode="&#x11f;" horiz-adv-x="1228" 
d="M614 1303q-100 0 -196.5 52.5t-153.5 133.5l103 100q47 -58 115.5 -93.5t131.5 -35.5q66 0 131 33.5t115 95.5l107 -100q-56 -86 -152.5 -136t-200.5 -50zM588 -475q-130 0 -245.5 50t-178.5 138l127 115q51 -58 127.5 -94.5t165.5 -36.5q142 0 221.5 81.5t79.5 227.5
v148q-28 -73 -117.5 -123.5t-194.5 -50.5q-88 0 -168.5 36.5t-144.5 104.5t-102.5 174.5t-38.5 236.5q0 134 40 243.5t106 177.5t147 104.5t168 36.5q105 0 190.5 -45.5t118.5 -116.5l24 137h162v-1049q0 -231 -135 -363t-352 -132zM602 150q130 0 213.5 102t83.5 280
q0 203 -81 297.5t-216 94.5q-127 0 -212 -101t-85 -293q-1 -182 84 -281t213 -99z" />
    <glyph glyph-name="Gdotaccent" unicode="&#x120;" horiz-adv-x="1402" 
d="M715 1597q-47 0 -84 34.5t-37 84.5q0 49 37 85t84 36q45 0 82 -36t37 -85q0 -50 -36.5 -84.5t-82.5 -34.5zM715 -23q-104 0 -192.5 24.5t-167.5 80.5t-135 142t-88 215.5t-32 293.5q0 191 46.5 335.5t130.5 232t194.5 131t245.5 43.5q243 0 388.5 -117.5t188.5 -343.5
h-200q-13 48 -31 87t-48.5 78t-70 65t-98 42.5t-129.5 16.5q-430 0 -430 -572q0 -581 428 -581q199 0 299.5 100.5t103.5 339.5h-358v164h543v-138q-5 -639 -588 -639z" />
    <glyph glyph-name="gdotaccent" unicode="&#x121;" horiz-adv-x="1228" 
d="M618 1298q-47 0 -83.5 34.5t-36.5 84.5q0 49 36.5 85t83.5 36q45 0 82 -36t37 -85q0 -50 -36.5 -84.5t-82.5 -34.5zM588 -475q-130 0 -245.5 50t-178.5 138l127 115q51 -58 127.5 -94.5t165.5 -36.5q142 0 221.5 81.5t79.5 227.5v148q-28 -73 -117.5 -123.5t-194.5 -50.5
q-88 0 -168.5 36.5t-144.5 104.5t-102.5 174.5t-38.5 236.5q0 134 40 243.5t106 177.5t147 104.5t168 36.5q105 0 190.5 -45.5t118.5 -116.5l24 137h162v-1049q0 -231 -135 -363t-352 -132zM602 150q130 0 213.5 102t83.5 280q0 203 -81 297.5t-216 94.5q-127 0 -212 -101
t-85 -293q-1 -182 84 -281t213 -99z" />
    <glyph glyph-name="uni0122" unicode="&#x122;" horiz-adv-x="1402" 
d="M715 -23q-104 0 -192.5 24.5t-167.5 80.5t-135 142t-88 215.5t-32 293.5q0 191 46.5 335.5t130.5 232t194.5 131t245.5 43.5q243 0 388.5 -117.5t188.5 -343.5h-200q-13 48 -31 87t-48.5 78t-70 65t-98 42.5t-129.5 16.5q-430 0 -430 -572q0 -581 428 -581
q199 0 299.5 100.5t103.5 339.5h-358v164h543v-138q-5 -639 -588 -639zM592 -487l45 317h203l-88 -317h-160z" />
    <glyph glyph-name="uni0123" unicode="&#x123;" horiz-adv-x="1228" 
d="M745 1659l-45 -318h-202l88 318h159zM588 -475q-130 0 -245.5 50t-178.5 138l127 115q51 -58 127.5 -94.5t165.5 -36.5q142 0 221.5 81.5t79.5 227.5v148q-28 -73 -117.5 -123.5t-194.5 -50.5q-88 0 -168.5 36.5t-144.5 104.5t-102.5 174.5t-38.5 236.5q0 134 40 243.5
t106 177.5t147 104.5t168 36.5q105 0 190.5 -45.5t118.5 -116.5l24 137h162v-1049q0 -231 -135 -363t-352 -132zM602 150q130 0 213.5 102t83.5 280q0 203 -81 297.5t-216 94.5q-127 0 -212 -101t-85 -293q-1 -182 84 -281t213 -99z" />
    <glyph glyph-name="Hbar" unicode="&#x126;" horiz-adv-x="1458" 
d="M180 0v1083h-162v156h162v215h185v-215h731v215h184v-215h160v-156h-160v-1083h-184v639h-731v-639h-185zM365 815h731v268h-731v-268z" />
    <glyph glyph-name="hbar" unicode="&#x127;" horiz-adv-x="1202" 
d="M172 0v1239l-174 -2v145h174v183h190v-181h271v-137l-271 -4v-328q25 70 112.5 122.5t178.5 52.5q190 0 299 -123t109 -361v-606h-193v604q0 167 -61 240.5t-182 73.5q-112 0 -187.5 -87.5t-75.5 -226.5v-604h-190z" />
    <glyph glyph-name="Imacron" unicode="&#x12a;" horiz-adv-x="522" 
d="M37 1632v154h450v-154h-450zM168 0v1454h184v-1454h-184z" />
    <glyph glyph-name="imacron" unicode="&#x12b;" horiz-adv-x="520" 
d="M41 1339v177h438v-177h-438zM168 0v1069h184v-1069h-184z" />
    <glyph glyph-name="Ibreve" unicode="&#x12c;" horiz-adv-x="522" 
d="M260 1571q-92 0 -168.5 58t-109.5 147l108 67q65 -117 170 -117q56 0 99 31.5t67 85.5l115 -59q-27 -95 -106.5 -154t-174.5 -59zM168 0v1454h184v-1454h-184z" />
    <glyph glyph-name="ibreve" unicode="&#x12d;" horiz-adv-x="520" 
d="M260 1296q-92 0 -169.5 57.5t-108.5 145.5l108 70q26 -54 70.5 -84.5t99.5 -30.5q53 0 96.5 31t67.5 84l115 -60q-26 -96 -105.5 -154.5t-173.5 -58.5zM168 0v1069h184v-1069h-184z" />
    <glyph glyph-name="Iogonek" unicode="&#x12e;" horiz-adv-x="528" 
d="M348 -444h-170q-68 0 -120 27t-75 69t-17 94.5t46 101.5q21 28 160 187v1419h184v-1454l-186 -207q-17 -19 -20 -36.5t15 -29.5t58 -12h125v-159z" />
    <glyph glyph-name="iogonek" unicode="&#x12f;" horiz-adv-x="546" 
d="M260 1305q-48 0 -82.5 30.5t-34.5 79.5t34.5 80t82.5 31q49 0 84 -31t35 -80t-35 -79.5t-84 -30.5zM350 -442h-170q-68 0 -120 27t-75 69t-17 94.5t46 101.5q36 51 162 189v1030h184v-1069h-4l-184 -205q-17 -19 -20 -36.5t15 -29.5t58 -12h125v-159z" />
    <glyph glyph-name="Idotaccent" unicode="&#x130;" horiz-adv-x="524" 
d="M254 1606q-47 0 -84 34t-37 84q0 49 37 85t84 36q45 0 82 -36t37 -85t-36.5 -83.5t-82.5 -34.5zM168 0v1454h184v-1454h-184z" />
    <glyph glyph-name="dotlessi" unicode="&#x131;" horiz-adv-x="520" 
d="M168 0v1069h184v-1069h-184z" />
    <glyph glyph-name="uni0136" unicode="&#x136;" horiz-adv-x="1337" 
d="M170 0v1454h184v-743l662 743h244l-570 -639l596 -815h-227l-496 680l-209 -234v-446h-184zM543 -500l45 318h203l-89 -318h-159z" />
    <glyph glyph-name="uni0137" unicode="&#x137;" horiz-adv-x="1116" 
d="M166 0v1495h188v-889l439 463h243l-426 -448l467 -621h-223l-377 506l-123 -117v-389h-188zM457 -502l45 318h203l-89 -318h-159z" />
    <glyph glyph-name="Lacute" unicode="&#x139;" horiz-adv-x="1155" 
d="M182 1614l207 368l184 -135l-229 -233h-162zM170 0v1454h184v-1280h711v-174h-895z" />
    <glyph glyph-name="lacute" unicode="&#x13a;" horiz-adv-x="524" 
d="M164 1571l137 311l182 -135l-157 -176h-162zM166 0v1495h188v-1495h-188z" />
    <glyph glyph-name="uni013B" unicode="&#x13b;" horiz-adv-x="1155" 
d="M170 0v1454h184v-1280h711v-174h-895zM444 -508l45 318h203l-88 -318h-160z" />
    <glyph glyph-name="uni013C" unicode="&#x13c;" horiz-adv-x="524" 
d="M166 0v1495h188v-1495h-188zM111 -492l45 318h202l-88 -318h-159z" />
    <glyph glyph-name="Lcaron" unicode="&#x13d;" horiz-adv-x="1155" 
d="M926 1454h192l-86 -403h-153zM168 0v1454h184v-1280h711v-174h-895z" />
    <glyph glyph-name="lcaron" unicode="&#x13e;" horiz-adv-x="768" 
d="M166 0v1495h188v-1495h-188zM633 1489h186l-114 -379h-152z" />
    <glyph glyph-name="Ldot" unicode="&#x13f;" horiz-adv-x="1155" 
d="M170 0v1454h184v-1280h711v-174h-895zM885 680q-47 0 -84 34.5t-37 84.5q0 49 37 85t84 36q45 0 82 -36t37 -85q0 -50 -36.5 -84.5t-82.5 -34.5z" />
    <glyph glyph-name="ldot" unicode="&#x140;" horiz-adv-x="866" 
d="M166 0v1495h188v-1495h-188zM664 600q-47 0 -83 34t-36 85t36 87t83 36q48 0 84 -35.5t36 -87.5q0 -51 -35.5 -85t-84.5 -34z" />
    <glyph glyph-name="Lslash" unicode="&#x141;" horiz-adv-x="1202" 
d="M219 0v555l-141 -70l-70 152l211 104v713h184v-620l349 172l69 -150l-418 -209v-473h711v-174h-895z" />
    <glyph glyph-name="lslash" unicode="&#x142;" horiz-adv-x="638" 
d="M221 0v692l-112 -53l-78 158l190 92v606h189v-514l122 59l78 -163l-200 -95v-782h-189z" />
    <glyph glyph-name="Nacute" unicode="&#x143;" horiz-adv-x="1521" 
d="M629 1585l207 369l184 -135l-229 -234h-162zM168 0v1454h199l800 -1143v1143h185v-1454h-203l-795 1145v-1145h-186z" />
    <glyph glyph-name="nacute" unicode="&#x144;" 
d="M469 1284l207 369l184 -135l-229 -234h-162zM166 0v1069h141l29 -139q34 72 124.5 121t194.5 49q173 0 281 -119.5t108 -335.5v-645h-186v641q0 141 -63 217t-185 76q-114 0 -185 -79.5t-71 -213.5v-641h-188z" />
    <glyph glyph-name="uni0145" unicode="&#x145;" horiz-adv-x="1521" 
d="M168 0v1454h199l800 -1143v1143h185v-1454h-203l-795 1145v-1145h-186zM578 -418l45 318h202l-88 -318h-159z" />
    <glyph glyph-name="uni0146" unicode="&#x146;" 
d="M166 0v1069h141l29 -139q34 72 124.5 121t194.5 49q173 0 281 -119.5t108 -335.5v-645h-186v641q0 141 -63 217t-185 76q-114 0 -185 -79.5t-71 -213.5v-641h-188zM463 -487l45 317h203l-88 -317h-160z" />
    <glyph glyph-name="Ncaron" unicode="&#x147;" horiz-adv-x="1521" 
d="M645 1579l-223 219l88 92l221 -147l221 147l86 -90l-217 -221h-176zM168 0v1454h199l800 -1143v1143h185v-1454h-203l-795 1145v-1145h-186z" />
    <glyph glyph-name="ncaron" unicode="&#x148;" 
d="M510 1323l-223 219l88 92l221 -147l221 147l86 -90l-217 -221h-176zM166 0v1069h141l29 -139q34 72 124.5 121t194.5 49q173 0 281 -119.5t108 -335.5v-645h-186v641q0 141 -63 217t-185 76q-114 0 -185 -79.5t-71 -213.5v-641h-188z" />
    <glyph glyph-name="Omacron" unicode="&#x14c;" horiz-adv-x="1421" 
d="M338 1638v152h749v-152h-749zM711 -16q-135 0 -244.5 43.5t-192.5 132.5t-128.5 235.5t-45.5 341.5q0 185 44 326.5t125 231t192.5 135t249.5 45.5q137 0 248 -46t192.5 -136t125.5 -231.5t44 -324.5q0 -190 -44.5 -335t-126 -236t-192 -136.5t-247.5 -45.5zM711 156
q203 0 314.5 141.5t111.5 439.5q0 288 -112 425.5t-314 137.5q-424 0 -424 -563q0 -304 109.5 -442.5t314.5 -138.5z" />
    <glyph glyph-name="omacron" unicode="&#x14d;" 
d="M215 1352v151h750v-151h-750zM588 -18q-93 0 -177 34t-153.5 99.5t-110.5 174t-41 245.5q0 142 40.5 251.5t109.5 174t153 97t179 32.5q97 0 182.5 -33t154.5 -98.5t109.5 -174.5t40.5 -249q0 -136 -41.5 -244.5t-111.5 -174t-155.5 -100t-178.5 -34.5zM588 150
q59 0 112 22.5t97 67.5t70 121t26 174q0 102 -25 179t-68 122.5t-96.5 67.5t-115.5 22q-132 0 -215.5 -95.5t-83.5 -295.5q0 -96 25 -171.5t67 -121t95 -69t112 -23.5z" />
    <glyph glyph-name="Obreve" unicode="&#x14e;" horiz-adv-x="1421" 
d="M711 1593q-99 0 -196.5 53t-154.5 134l103 100q47 -58 115.5 -93.5t132.5 -35.5q66 0 130.5 33.5t114.5 95.5l107 -100q-56 -87 -152 -137t-200 -50zM711 -16q-135 0 -244.5 43.5t-192.5 132.5t-128.5 235.5t-45.5 341.5q0 185 44 326.5t125 231t192.5 135t249.5 45.5
q137 0 248 -46t192.5 -136t125.5 -231.5t44 -324.5q0 -190 -44.5 -335t-126 -236t-192 -136.5t-247.5 -45.5zM711 156q203 0 314.5 141.5t111.5 439.5q0 288 -112 425.5t-314 137.5q-424 0 -424 -563q0 -304 109.5 -442.5t314.5 -138.5z" />
    <glyph glyph-name="obreve" unicode="&#x14f;" 
d="M588 1305q-100 0 -196.5 52.5t-153.5 133.5l102 100q47 -58 115.5 -93.5t132.5 -35.5q66 0 131 33.5t115 95.5l106 -100q-56 -87 -152 -136.5t-200 -49.5zM588 -18q-93 0 -177 34t-153.5 99.5t-110.5 174t-41 245.5q0 142 40.5 251.5t109.5 174t153 97t179 32.5
q97 0 182.5 -33t154.5 -98.5t109.5 -174.5t40.5 -249q0 -136 -41.5 -244.5t-111.5 -174t-155.5 -100t-178.5 -34.5zM588 150q59 0 112 22.5t97 67.5t70 121t26 174q0 102 -25 179t-68 122.5t-96.5 67.5t-115.5 22q-132 0 -215.5 -95.5t-83.5 -295.5q0 -96 25 -171.5t67 -121
t95 -69t112 -23.5z" />
    <glyph glyph-name="Ohungarumlaut" unicode="&#x150;" horiz-adv-x="1421" 
d="M455 1602l166 366l174 -94l-189 -272h-151zM780 1602l168 366l176 -94l-190 -272h-154zM711 -16q-135 0 -244.5 43.5t-192.5 132.5t-128.5 235.5t-45.5 341.5q0 185 44 326.5t125 231t192.5 135t249.5 45.5q137 0 248 -46t192.5 -136t125.5 -231.5t44 -324.5
q0 -190 -44.5 -335t-126 -236t-192 -136.5t-247.5 -45.5zM711 156q203 0 314.5 141.5t111.5 439.5q0 288 -112 425.5t-314 137.5q-424 0 -424 -563q0 -304 109.5 -442.5t314.5 -138.5z" />
    <glyph glyph-name="ohungarumlaut" unicode="&#x151;" 
d="M317 1286l166 367l174 -94l-188 -273h-152zM643 1286l168 367l176 -94l-190 -273h-154zM588 -18q-93 0 -177 34t-153.5 99.5t-110.5 174t-41 245.5q0 142 40.5 251.5t109.5 174t153 97t179 32.5q97 0 182.5 -33t154.5 -98.5t109.5 -174.5t40.5 -249q0 -136 -41.5 -244.5
t-111.5 -174t-155.5 -100t-178.5 -34.5zM588 150q59 0 112 22.5t97 67.5t70 121t26 174q0 102 -25 179t-68 122.5t-96.5 67.5t-115.5 22q-132 0 -215.5 -95.5t-83.5 -295.5q0 -96 25 -171.5t67 -121t95 -69t112 -23.5z" />
    <glyph glyph-name="OE" unicode="&#x152;" horiz-adv-x="2142" 
d="M659 -16q-135 0 -244.5 43.5t-192 132.5t-128 235.5t-45.5 341.5q0 366 163.5 552t446.5 186q309 0 474 -222v201h938v-172h-754v-459h600v-174h-600v-477h770v-172h-954v209q-159 -225 -474 -225zM659 156q203 0 314.5 141.5t111.5 439.5q0 288 -112 425.5t-314 137.5
q-423 0 -423 -563q0 -304 109 -442.5t314 -138.5z" />
    <glyph glyph-name="oe" unicode="&#x153;" horiz-adv-x="1808" 
d="M522 -18q-93 0 -177 34t-153 99.5t-110 174t-41 245.5q0 142 40.5 251.5t109 174t152.5 97t179 32.5q127 0 235 -56.5t173 -167.5q64 110 169 167t228 57q96 0 180 -32.5t148 -95t100.5 -161t36.5 -221.5v-107h-758q3 -170 93 -253t225 -83q96 0 181.5 41t133.5 103
l117 -113q-72 -90 -184.5 -141.5t-256.5 -51.5q-131 0 -241 57.5t-176 172.5q-67 -110 -174.5 -166.5t-229.5 -56.5zM1034 621h578q0 146 -80 227.5t-205 81.5q-126 0 -206 -81t-87 -228zM522 150q59 0 112 22.5t97 67.5t70 121t26 174q0 102 -25 179t-68 122.5t-96.5 67.5
t-115.5 22q-132 0 -215.5 -95.5t-83.5 -295.5q0 -96 25 -171.5t67 -121t95 -69t112 -23.5z" />
    <glyph glyph-name="Racute" unicode="&#x154;" horiz-adv-x="1310" 
d="M532 1610l207 368l185 -135l-230 -233h-162zM168 0v1454h500q242 0 372.5 -120.5t130.5 -311.5q0 -149 -81.5 -253.5t-196.5 -137.5l297 -631h-205l-274 592h-357v-592h-186zM354 764h312q141 0 227 68.5t86 191.5q0 122 -84.5 189t-228.5 67h-312v-516z" />
    <glyph glyph-name="racute" unicode="&#x155;" horiz-adv-x="800" 
d="M297 1288l207 369l184 -135l-229 -234h-162zM166 0v1069h141l29 -131q35 63 116 107.5t164 44.5q27 0 72.5 -3.5t63.5 -3.5v-174q-73 6 -140 6q-121 0 -189.5 -76.5t-68.5 -230.5v-608h-188z" />
    <glyph glyph-name="uni0156" unicode="&#x156;" horiz-adv-x="1310" 
d="M168 0v1454h500q242 0 372.5 -120.5t130.5 -311.5q0 -149 -81.5 -253.5t-196.5 -137.5l297 -631h-205l-274 592h-357v-592h-186zM354 764h312q141 0 227 68.5t86 191.5q0 122 -84.5 189t-228.5 67h-312v-516zM512 -418l45 318h203l-88 -318h-160z" />
    <glyph glyph-name="uni0157" unicode="&#x157;" horiz-adv-x="800" 
d="M166 0v1069h141l29 -131q35 63 116 107.5t164 44.5q27 0 72.5 -3.5t63.5 -3.5v-174q-73 6 -140 6q-121 0 -189.5 -76.5t-68.5 -230.5v-608h-188zM137 -457l45 318h203l-88 -318h-160z" />
    <glyph glyph-name="Rcaron" unicode="&#x158;" horiz-adv-x="1310" 
d="M549 1602l-223 219l88 92l221 -148l221 148l86 -90l-217 -221h-176zM168 0v1454h500q242 0 372.5 -120.5t130.5 -311.5q0 -149 -81.5 -253.5t-196.5 -137.5l297 -631h-205l-274 592h-357v-592h-186zM354 764h312q141 0 227 68.5t86 191.5q0 122 -84.5 189t-228.5 67h-312
v-516z" />
    <glyph glyph-name="rcaron" unicode="&#x159;" horiz-adv-x="800" 
d="M338 1327l-223 219l88 92l221 -147l221 147l86 -90l-217 -221h-176zM166 0v1069h141l29 -131q35 63 116 107.5t164 44.5q27 0 72.5 -3.5t63.5 -3.5v-174q-73 6 -140 6q-121 0 -189.5 -76.5t-68.5 -230.5v-608h-188z" />
    <glyph glyph-name="Sacute" unicode="&#x15a;" horiz-adv-x="1206" 
d="M508 1606l207 368l184 -135l-229 -233h-162zM614 -18q-187 0 -318.5 80t-201.5 223l150 94q72 -118 154.5 -169.5t211.5 -51.5q146 0 219.5 65.5t73.5 188.5q0 132 -71 186.5t-263 71.5q-196 18 -309 121t-113 280q0 180 129 292t349 112q160 0 268.5 -61t187.5 -191
l-161 -95q-55 92 -131 135.5t-185 43.5q-123 0 -193.5 -61.5t-70.5 -162.5q0 -117 70 -170.5t247 -66.5q453 -33 453 -432q0 -106 -38.5 -189.5t-107 -136t-157.5 -79.5t-193 -27z" />
    <glyph glyph-name="sacute" unicode="&#x15b;" horiz-adv-x="1028" 
d="M395 1278l207 369l184 -136l-229 -233h-162zM528 -25q-158 0 -268 71t-160 167l156 90q49 -72 112 -115t160 -43q105 0 168.5 42.5t63.5 117.5q0 81 -61 114.5t-228 47.5q-148 14 -239 95t-91 218q0 145 104 228.5t279 83.5q289 0 385 -199l-149 -90q-67 131 -238 131
q-207 0 -207 -143q0 -80 56 -112.5t188 -43.5q198 -19 289.5 -93.5t91.5 -234.5q0 -151 -116.5 -241.5t-295.5 -90.5z" />
    <glyph glyph-name="Scedilla" unicode="&#x15e;" horiz-adv-x="1206" 
d="M840 -299q0 -96 -64.5 -158.5t-183.5 -62.5q-80 0 -182 45l45 133q77 -35 139 -35q41 0 69.5 21t28.5 57q0 76 -123 86l-82 8l41 191q-153 18 -262.5 96t-171.5 203l150 94q72 -118 154.5 -169.5t211.5 -51.5q146 0 219.5 65.5t73.5 188.5q0 132 -71 186.5t-263 71.5
q-196 18 -309 121t-113 280q0 180 129 292t349 112q160 0 268.5 -61t187.5 -191l-161 -95q-55 92 -131 135.5t-185 43.5q-123 0 -193.5 -61.5t-70.5 -162.5q0 -117 70 -170.5t247 -66.5q453 -33 453 -432q0 -136 -63.5 -233.5t-167.5 -145.5t-238 -53l-10 -62
q90 -11 149.5 -69t59.5 -150z" />
    <glyph glyph-name="scedilla" unicode="&#x15f;" horiz-adv-x="1028" 
d="M739 -311q0 -96 -64 -158.5t-183 -62.5q-80 0 -183 45l45 133q77 -35 140 -35q41 0 69.5 21t28.5 57q0 76 -123 86l-82 8l43 201q-120 21 -204 85.5t-126 143.5l156 90q49 -72 112 -115t160 -43q105 0 168.5 42.5t63.5 117.5q0 81 -61 114.5t-228 47.5q-148 14 -239 95
t-91 218q0 145 104 228.5t279 83.5q289 0 385 -199l-149 -90q-67 131 -238 131q-207 0 -207 -143q0 -80 56 -112.5t188 -43.5q198 -19 289.5 -93.5t91.5 -234.5q0 -148 -112.5 -238.5t-286.5 -93.5l-11 -67q90 -11 149.5 -69t59.5 -150z" />
    <glyph glyph-name="Scaron" unicode="&#x160;" horiz-adv-x="1206" 
d="M526 1597l-223 220l88 92l221 -148l222 148l86 -90l-218 -222h-176zM614 -18q-187 0 -318.5 80t-201.5 223l150 94q72 -118 154.5 -169.5t211.5 -51.5q146 0 219.5 65.5t73.5 188.5q0 132 -71 186.5t-263 71.5q-196 18 -309 121t-113 280q0 180 129 292t349 112
q160 0 268.5 -61t187.5 -191l-161 -95q-55 92 -131 135.5t-185 43.5q-123 0 -193.5 -61.5t-70.5 -162.5q0 -117 70 -170.5t247 -66.5q453 -33 453 -432q0 -106 -38.5 -189.5t-107 -136t-157.5 -79.5t-193 -27z" />
    <glyph glyph-name="scaron" unicode="&#x161;" horiz-adv-x="1028" 
d="M436 1317l-223 219l88 92l221 -147l221 147l86 -90l-217 -221h-176zM528 -25q-158 0 -268 71t-160 167l156 90q49 -72 112 -115t160 -43q105 0 168.5 42.5t63.5 117.5q0 81 -61 114.5t-228 47.5q-148 14 -239 95t-91 218q0 145 104 228.5t279 83.5q289 0 385 -199
l-149 -90q-67 131 -238 131q-207 0 -207 -143q0 -80 56 -112.5t188 -43.5q198 -19 289.5 -93.5t91.5 -234.5q0 -151 -116.5 -241.5t-295.5 -90.5z" />
    <glyph glyph-name="uni0162" unicode="&#x162;" horiz-adv-x="1214" 
d="M514 0v1280h-422v174h1032v-174h-424v-1280h-65l-14 -86q90 -11 149 -69t59 -150q0 -96 -64 -158.5t-183 -62.5q-81 0 -183 45l45 133q77 -35 140 -35q41 0 69.5 21t28.5 57q0 76 -123 86l-82 8l45 211h-8z" />
    <glyph glyph-name="uni0163" unicode="&#x163;" horiz-adv-x="808" 
d="M383 45h6q-129 84 -129 274v590h-203v160h193l53 315h141v-315h291v-160h-291v-559q0 -99 43.5 -144.5t130.5 -45.5q86 0 109 2v-160q-33 -10 -149 -10q-41 0 -89 10l-8 -47q90 -11 149.5 -69t59.5 -150q0 -96 -64.5 -158.5t-183.5 -62.5q-80 0 -182 45l45 133
q77 -35 139 -35q41 0 70 21t29 57q0 76 -123 86l-82 8z" />
    <glyph glyph-name="Tcaron" unicode="&#x164;" horiz-adv-x="1214" 
d="M518 1602l-223 219l88 92l221 -148l221 148l86 -90l-217 -221h-176zM514 0v1280h-422v174h1032v-174h-424v-1280h-186z" />
    <glyph glyph-name="tcaron" unicode="&#x165;" horiz-adv-x="942" 
d="M795 1616h186l-98 -375h-152zM260 319v590h-203v160h193l53 315h141v-315h291v-160h-291v-559q0 -99 43.5 -144.5t130.5 -45.5q86 0 109 2v-160q-33 -10 -149 -10q-87 0 -157 33.5t-115.5 109.5t-45.5 184z" />
    <glyph glyph-name="Umacron" unicode="&#x16a;" horiz-adv-x="1363" 
d="M307 1610v151h750v-151h-750zM682 -23q-121 0 -221.5 39.5t-175.5 115.5t-116.5 195t-41.5 269v858h184v-860q0 -218 103 -330t268 -112q169 0 271 112.5t102 329.5v860h182v-858q0 -295 -151.5 -457t-403.5 -162z" />
    <glyph glyph-name="umacron" unicode="&#x16b;" horiz-adv-x="1187" 
d="M209 1350v151h749v-151h-749zM547 -23q-83 0 -156 28.5t-130 83t-90.5 143.5t-33.5 202v635h193v-635q0 -141 68 -215t182 -74q111 0 181 76.5t70 212.5v635h189v-1069h-143l-27 150q-27 -72 -119 -122.5t-184 -50.5z" />
    <glyph glyph-name="Ubreve" unicode="&#x16c;" horiz-adv-x="1363" 
d="M680 1565q-100 0 -196.5 52.5t-153.5 133.5l102 100q47 -58 115.5 -93.5t132.5 -35.5q66 0 131 33.5t115 95.5l106 -100q-56 -87 -152 -136.5t-200 -49.5zM682 -23q-121 0 -221.5 39.5t-175.5 115.5t-116.5 195t-41.5 269v858h184v-860q0 -218 103 -330t268 -112
q169 0 271 112.5t102 329.5v860h182v-858q0 -295 -151.5 -457t-403.5 -162z" />
    <glyph glyph-name="ubreve" unicode="&#x16d;" horiz-adv-x="1187" 
d="M580 1303q-100 0 -197.5 52.5t-153.5 133.5l103 100q47 -58 115.5 -93.5t132.5 -35.5q66 0 130.5 33.5t114.5 95.5l107 -100q-56 -87 -152 -136.5t-200 -49.5zM547 -23q-83 0 -156 28.5t-130 83t-90.5 143.5t-33.5 202v635h193v-635q0 -141 68 -215t182 -74
q111 0 181 76.5t70 212.5v635h189v-1069h-143l-27 150q-27 -72 -119 -122.5t-184 -50.5z" />
    <glyph glyph-name="Uring" unicode="&#x16e;" horiz-adv-x="1363" 
d="M682 1495q-94 0 -165 69.5t-71 166.5q0 94 72 165.5t164 71.5q91 0 163.5 -71.5t72.5 -165.5q0 -97 -72 -166.5t-164 -69.5zM682 1616q49 0 81 32.5t32 80.5q0 47 -32.5 81.5t-80.5 34.5q-47 0 -81 -35t-34 -81q0 -48 33 -80.5t82 -32.5zM682 -23q-121 0 -221.5 39.5
t-175.5 115.5t-116.5 195t-41.5 269v858h184v-860q0 -218 103 -330t268 -112q169 0 271 112.5t102 329.5v860h182v-858q0 -295 -151.5 -457t-403.5 -162z" />
    <glyph glyph-name="uring" unicode="&#x16f;" horiz-adv-x="1187" 
d="M584 1239q-94 0 -165 69.5t-71 166.5q0 94 72 165.5t164 71.5q90 0 162.5 -71.5t72.5 -165.5q0 -97 -71.5 -166.5t-163.5 -69.5zM584 1360q49 0 80.5 32.5t31.5 80.5q0 47 -32 81.5t-80 34.5q-47 0 -81 -35t-34 -81q0 -48 33 -80.5t82 -32.5zM547 -23q-83 0 -156 28.5
t-130 83t-90.5 143.5t-33.5 202v635h193v-635q0 -141 68 -215t182 -74q111 0 181 76.5t70 212.5v635h189v-1069h-143l-27 150q-27 -72 -119 -122.5t-184 -50.5z" />
    <glyph glyph-name="Uhungarumlaut" unicode="&#x170;" horiz-adv-x="1363" 
d="M424 1573l166 366l174 -94l-189 -272h-151zM750 1573l168 366l176 -94l-191 -272h-153zM682 -23q-121 0 -221.5 39.5t-175.5 115.5t-116.5 195t-41.5 269v858h184v-860q0 -218 103 -330t268 -112q169 0 271 112.5t102 329.5v860h182v-858q0 -295 -151.5 -457t-403.5 -162
z" />
    <glyph glyph-name="uhungarumlaut" unicode="&#x171;" horiz-adv-x="1187" 
d="M311 1284l166 367l174 -95l-188 -272h-152zM637 1284l168 367l176 -95l-190 -272h-154zM547 -23q-83 0 -156 28.5t-130 83t-90.5 143.5t-33.5 202v635h193v-635q0 -141 68 -215t182 -74q111 0 181 76.5t70 212.5v635h189v-1069h-143l-27 150q-27 -72 -119 -122.5
t-184 -50.5z" />
    <glyph glyph-name="Uogonek" unicode="&#x172;" horiz-adv-x="1366" 
d="M907 -418h-170q-68 0 -120 27.5t-75 69t-17 94.5t46 102q13 18 84 102q-115 5 -211 46.5t-167 117.5t-110.5 192.5t-39.5 262.5v858h184v-860q0 -218 103 -330t268 -112q169 0 271 112.5t102 329.5v860h182v-858q0 -221 -87 -369t-243 -209l-178 -198q-17 -19 -20 -36.5
t15 -29.5t58 -12h125v-160z" />
    <glyph glyph-name="uogonek" unicode="&#x173;" horiz-adv-x="1187" 
d="M547 -23q-83 0 -156 28.5t-130 83t-90.5 143.5t-33.5 202v635h193v-635q0 -141 68 -215t182 -74q111 0 181 76.5t70 212.5v635h189v-1067l2 -2l-186 -207q-17 -19 -20 -36.5t15 -29.5t58 -12h125v-159h-170q-68 0 -120 27t-75 69t-17 94.5t46 101.5q38 52 174 203
q8 8 14 10l-16 89q-27 -72 -119 -122.5t-184 -50.5z" />
    <glyph glyph-name="Wcircumflex" unicode="&#x174;" horiz-adv-x="1900" 
d="M735 1575l-88 86l221 225h176l220 -219l-90 -90l-216 145zM459 0l-363 1454h193l276 -1143l322 1106h139l322 -1114l262 1151h196l-356 -1454h-197l-297 1028l-297 -1028h-200z" />
    <glyph glyph-name="wcircumflex" unicode="&#x175;" horiz-adv-x="1566" 
d="M557 1272l-88 86l221 225h176l219 -219l-90 -90l-215 145zM375 0l-318 1069h195l219 -772l244 772h141l254 -768l203 768h198l-307 -1069h-182l-238 700l-237 -700h-172z" />
    <glyph glyph-name="Ycircumflex" unicode="&#x176;" horiz-adv-x="1288" 
d="M424 1561l-88 86l221 225h176l219 -219l-90 -90l-215 145zM551 0v569l-488 885h211l371 -678l367 678h211l-488 -885v-569h-184z" />
    <glyph glyph-name="ycircumflex" unicode="&#x177;" horiz-adv-x="1081" 
d="M317 1274l-88 86l222 225h176l219 -219l-90 -90l-215 145zM473 -408h-184l157 406v4l-393 1067h201l285 -831l284 831h201z" />
    <glyph glyph-name="Ydieresis" unicode="&#x178;" horiz-adv-x="1288" 
d="M430 1583q-42 0 -76.5 34.5t-34.5 80.5t34.5 80t76.5 34q46 0 80.5 -33.5t34.5 -80.5t-34.5 -81t-80.5 -34zM862 1583q-45 0 -78.5 34t-33.5 81t33.5 80.5t78.5 33.5q44 0 78.5 -34t34.5 -80t-34.5 -80.5t-78.5 -34.5zM551 0v569l-488 885h211l371 -678l367 678h211
l-488 -885v-569h-184z" />
    <glyph glyph-name="Zacute" unicode="&#x179;" horiz-adv-x="1179" 
d="M477 1612l207 368l184 -135l-229 -233h-162zM82 0v174l766 1104h-742v176h984v-158l-775 -1118h781v-178h-1014z" />
    <glyph glyph-name="zacute" unicode="&#x17a;" horiz-adv-x="968" 
d="M352 1280l207 369l184 -136l-229 -233h-162zM100 0v141l535 762h-524v166h743v-133l-535 -766h549v-170h-768z" />
    <glyph glyph-name="Zdotaccent" unicode="&#x17b;" horiz-adv-x="1179" 
d="M584 1606q-47 0 -84 34t-37 84q0 49 37 85t84 36q45 0 81.5 -36t36.5 -85q0 -50 -36 -84t-82 -34zM82 0v174l766 1104h-742v176h984v-158l-775 -1118h781v-178h-1014z" />
    <glyph glyph-name="zdotaccent" unicode="&#x17c;" horiz-adv-x="968" 
d="M479 1298q-47 0 -84 34.5t-37 84.5q0 49 37 85t84 36q45 0 82 -36t37 -85q0 -50 -36.5 -84.5t-82.5 -34.5zM100 0v141l535 762h-524v166h743v-133l-535 -766h549v-170h-768z" />
    <glyph glyph-name="Zcaron" unicode="&#x17d;" horiz-adv-x="1179" 
d="M496 1604l-224 219l88 92l222 -148l221 148l86 -90l-217 -221h-176zM82 0v174l766 1104h-742v176h984v-158l-775 -1118h781v-178h-1014z" />
    <glyph glyph-name="zcaron" unicode="&#x17e;" horiz-adv-x="968" 
d="M391 1319l-223 219l88 92l221 -147l221 147l86 -90l-217 -221h-176zM100 0v141l535 762h-524v166h743v-133l-535 -766h549v-170h-768z" />
    <glyph glyph-name="uni01DD" unicode="&#x1dd;" horiz-adv-x="1175" 
d="M555 1047q77 0 148 -20t134.5 -63.5t110 -107.5t74 -158.5t27.5 -208.5q0 -137 -39 -245.5t-106 -175t-152 -101.5t-181 -35t-180 32.5t-148 95t-100.5 161t-36.5 221.5v107h758q-3 170 -92.5 253t-224.5 83q-97 0 -182.5 -41t-133.5 -103l-116 113q72 90 184 141.5
t256 51.5zM864 401h-577q0 -146 79.5 -227.5t204.5 -81.5q126 0 206 81t87 228z" />
    <glyph glyph-name="Aringacute" unicode="&#x1fa;" horiz-adv-x="1411" 
d="M582 2056l206 369l185 -135l-230 -234h-161zM698 1522q-94 0 -164.5 69t-70.5 166q0 95 71.5 166.5t163.5 71.5q90 0 163 -72t73 -166q0 -96 -71.5 -165.5t-164.5 -69.5zM698 1642q49 0 81 32.5t32 80.5q0 47 -32.5 82t-80.5 35q-47 0 -80.5 -35.5t-33.5 -81.5
q0 -48 32.5 -80.5t81.5 -32.5zM1171 0l-151 385h-627l-147 -385h-197l559 1454h193l563 -1454h-193zM705 1194l-246 -641h495z" />
    <glyph glyph-name="aringacute" unicode="&#x1fb;" horiz-adv-x="1085" 
d="M453 1686l206 368l185 -135l-230 -233h-161zM561 1159q-94 0 -164.5 69.5t-70.5 166.5q0 94 71.5 165.5t163.5 71.5q91 0 163.5 -71.5t72.5 -165.5q0 -97 -72 -166.5t-164 -69.5zM561 1280q49 0 81 32.5t32 80.5q0 47 -32.5 81.5t-80.5 34.5q-47 0 -81 -35t-34 -81
q0 -48 33 -80.5t82 -32.5zM461 -16q-154 0 -255.5 87t-101.5 232q0 153 114 245.5t306 92.5q117 0 244 -45q7 -3 10 -4v110q0 121 -60.5 172.5t-193.5 51.5q-73 0 -140.5 -36.5t-111.5 -101.5l-131 95q53 97 161.5 152t236.5 55q198 0 310 -96t112 -302v-692h-148l-22 133
q-49 -59 -132.5 -104t-197.5 -45zM487 141q95 0 176.5 53.5t114.5 131.5v120q-123 49 -243 46q-126 0 -189 -47.5t-63 -131.5q0 -82 55 -127t149 -45z" />
    <glyph glyph-name="AEacute" unicode="&#x1fc;" horiz-adv-x="2002" 
d="M958 1591l207 369l185 -135l-230 -234h-162zM-2 0l862 1454h1004v-172h-721v-461h577v-172h-577v-477h725v-172h-910v346h-540l-209 -346h-211zM514 514h444v739z" />
    <glyph glyph-name="aeacute" unicode="&#x1fd;" horiz-adv-x="1744" 
d="M743 1282l207 369l185 -135l-230 -234h-162zM457 -16q-180 0 -292 91t-112 230q0 156 115.5 250t318.5 94q172 0 263 -31v19q-11 152 -76 225.5t-193 73.5q-51 0 -92 -9.5t-74 -31t-45.5 -32t-40.5 -36.5l-129 93q55 73 153.5 123.5t235.5 50.5q270 0 375 -197
q66 95 165 144t214 49q96 0 180 -32.5t148 -95t100.5 -161t36.5 -221.5v-107h-758q3 -170 93 -253t225 -83q96 0 181.5 41t133.5 103l117 -113q-72 -90 -184 -141.5t-256 -51.5q-124 0 -232 53t-174 158q-62 -100 -164.5 -151t-232.5 -51zM950 621h578q0 146 -80 227.5
t-205 81.5q-126 0 -206 -81t-87 -228zM457 137q124 0 205.5 75t87.5 220v45q-40 15 -116.5 23t-137.5 4q-130 -3 -197.5 -54.5t-67.5 -134.5q0 -78 60.5 -128t165.5 -50z" />
    <glyph glyph-name="Oslashacute" unicode="&#x1fe;" horiz-adv-x="1421" 
d="M606 1612l207 368l184 -135l-229 -233h-162zM285 -70l-129 84l106 160q-162 195 -162 563q0 185 44 326.5t125 231t192.5 135t249.5 45.5q207 0 350 -101l82 125l127 -84l-99 -147q150 -189 150 -531q0 -190 -44.5 -335t-126 -236t-192 -136.5t-247.5 -45.5
q-192 0 -332 88zM287 737q0 -259 82 -401l592 889q-100 75 -250 75q-424 0 -424 -563zM711 156q203 0 314.5 141.5t111.5 439.5q0 228 -74 367l-588 -885q97 -63 236 -63z" />
    <glyph glyph-name="oslashacute" unicode="&#x1ff;" horiz-adv-x="1200" 
d="M467 1276l207 369l184 -136l-229 -233h-162zM215 -51l-109 80l113 139q-106 141 -106 367q0 142 40.5 251.5t109 174t152.5 97t179 32.5q172 0 295 -97l98 121l107 -80l-111 -137q98 -141 98 -362q0 -136 -41.5 -244.5t-111.5 -174t-155.5 -100t-178.5 -34.5
q-158 0 -279 90zM295 535q0 -129 43 -220l442 545q-75 66 -186 66q-132 0 -215.5 -95.5t-83.5 -295.5zM594 150q59 0 112 22.5t97 67.5t70 121t26 174q0 125 -37 213l-438 -541q72 -57 170 -57z" />
    <glyph glyph-name="uni0218" unicode="&#x218;" horiz-adv-x="1206" 
d="M614 -18q-187 0 -318.5 80t-201.5 223l150 94q72 -118 154.5 -169.5t211.5 -51.5q146 0 219.5 65.5t73.5 188.5q0 132 -71 186.5t-263 71.5q-196 18 -309 121t-113 280q0 180 129 292t349 112q160 0 268.5 -61t187.5 -191l-161 -95q-55 92 -131 135.5t-185 43.5
q-123 0 -193.5 -61.5t-70.5 -162.5q0 -117 70 -170.5t247 -66.5q453 -33 453 -432q0 -106 -38.5 -189.5t-107 -136t-157.5 -79.5t-193 -27zM475 -446l45 317h203l-88 -317h-160z" />
    <glyph glyph-name="uni0219" unicode="&#x219;" horiz-adv-x="1028" 
d="M528 -25q-158 0 -268 71t-160 167l156 90q49 -72 112 -115t160 -43q105 0 168.5 42.5t63.5 117.5q0 81 -61 114.5t-228 47.5q-148 14 -239 95t-91 218q0 145 104 228.5t279 83.5q289 0 385 -199l-149 -90q-67 131 -238 131q-207 0 -207 -143q0 -80 56 -112.5t188 -43.5
q198 -19 289.5 -93.5t91.5 -234.5q0 -151 -116.5 -241.5t-295.5 -90.5zM375 -459l45 318h203l-88 -318h-160z" />
    <glyph glyph-name="uni021A" unicode="&#x21a;" horiz-adv-x="1214" 
d="M514 0v1280h-422v174h1032v-174h-424v-1280h-186zM471 -453l45 318h203l-88 -318h-160z" />
    <glyph glyph-name="uni021B" unicode="&#x21b;" horiz-adv-x="808" 
d="M260 319v590h-203v160h193l53 315h141v-315h291v-160h-291v-559q0 -99 43.5 -144.5t130.5 -45.5q86 0 109 2v-160q-33 -10 -149 -10q-87 0 -157 33.5t-115.5 109.5t-45.5 184zM295 -455l45 318h203l-88 -318h-160z" />
    <glyph glyph-name="circumflex" unicode="&#x2c6;" horiz-adv-x="626" 
d="M96 1184l-88 86l221 225h177l219 -219l-90 -90l-216 145z" />
    <glyph glyph-name="caron" unicode="&#x2c7;" horiz-adv-x="745" 
d="M231 1190l-223 219l88 92l221 -147l222 147l86 -90l-217 -221h-177z" />
    <glyph glyph-name="breve" unicode="&#x2d8;" horiz-adv-x="720" 
d="M360 1178q-100 0 -196.5 52.5t-153.5 133.5l103 100q47 -58 115.5 -93.5t131.5 -35.5q66 0 131 33.5t115 95.5l107 -100q-56 -86 -152.5 -136t-200.5 -50z" />
    <glyph glyph-name="dotaccent" unicode="&#x2d9;" horiz-adv-x="260" 
d="M131 1237q-47 0 -84 34.5t-37 84.5q0 49 37 85t84 36q45 0 82 -36t37 -85q0 -50 -36.5 -84.5t-82.5 -34.5z" />
    <glyph glyph-name="ring" unicode="&#x2da;" horiz-adv-x="489" 
d="M246 1104q-94 0 -165 69t-71 166q0 94 72 166t164 72q90 0 162.5 -72t72.5 -166q0 -97 -71.5 -166t-163.5 -69zM246 1225q49 0 80.5 32t31.5 80q0 47 -32 82t-80 35q-47 0 -81 -35.5t-34 -81.5q0 -47 33 -79.5t82 -32.5z" />
    <glyph glyph-name="ogonek" unicode="&#x2db;" horiz-adv-x="923" 
d="M655 -483h-170q-68 0 -120 27.5t-75 69t-17 94.5t46 102q30 41 175 202q12 15 39 22t48 7h21l62 -80l-187 -207q-17 -19 -20 -36.5t15 -29.5t58 -12h125v-159z" />
    <glyph glyph-name="tilde" unicode="&#x2dc;" horiz-adv-x="782" 
d="M10 1155q6 81 70 145.5t160 71.5q56 3 105.5 -9t78 -29t61.5 -31t60 -13q49 1 79 25.5t40 60.5l110 -37q-2 -65 -58 -132t-151 -74q-45 -3 -88 10t-71.5 30t-67.5 31t-78 13q-116 -7 -149 -97z" />
    <glyph glyph-name="hungarumlaut" unicode="&#x2dd;" horiz-adv-x="690" 
d="M10 1159l166 367l174 -94l-188 -273h-152zM336 1159l168 367l176 -94l-191 -273h-153z" />
    <glyph glyph-name="Wgrave" unicode="&#x1e80;" horiz-adv-x="1900" 
d="M895 1599l-227 230l190 141l209 -371h-172zM459 0l-363 1454h193l276 -1143l322 1106h139l322 -1114l262 1151h196l-356 -1454h-197l-297 1028l-297 -1028h-200z" />
    <glyph glyph-name="wgrave" unicode="&#x1e81;" horiz-adv-x="1566" 
d="M739 1286l-227 230l190 141l209 -371h-172zM375 0l-318 1069h195l219 -772l244 772h141l254 -768l203 768h198l-307 -1069h-182l-238 700l-237 -700h-172z" />
    <glyph glyph-name="Wacute" unicode="&#x1e82;" horiz-adv-x="1900" 
d="M852 1610l207 368l184 -135l-229 -233h-162zM459 0l-363 1454h193l276 -1143l322 1106h139l322 -1114l262 1151h196l-356 -1454h-197l-297 1028l-297 -1028h-200z" />
    <glyph glyph-name="wacute" unicode="&#x1e83;" horiz-adv-x="1566" 
d="M655 1280l207 369l185 -136l-230 -233h-162zM375 0l-318 1069h195l219 -772l244 772h141l254 -768l203 768h198l-307 -1069h-182l-238 700l-237 -700h-172z" />
    <glyph glyph-name="Wdieresis" unicode="&#x1e84;" horiz-adv-x="1900" 
d="M741 1599q-42 0 -76 34.5t-34 80.5t34 80.5t76 34.5q46 0 80.5 -34t34.5 -81t-34.5 -81t-80.5 -34zM1174 1599q-45 0 -79 34t-34 81t34 81t79 34q44 0 78 -34.5t34 -80.5t-34 -80.5t-78 -34.5zM459 0l-363 1454h193l276 -1143l322 1106h139l322 -1114l262 1151h196
l-356 -1454h-197l-297 1028l-297 -1028h-200z" />
    <glyph glyph-name="wdieresis" unicode="&#x1e85;" horiz-adv-x="1566" 
d="M565 1305q-42 0 -76 34t-34 80t34 80.5t76 34.5q46 0 80.5 -34t34.5 -81t-34.5 -80.5t-80.5 -33.5zM997 1305q-45 0 -78.5 33.5t-33.5 80.5t33.5 81t78.5 34q44 0 78.5 -34.5t34.5 -80.5t-34.5 -80t-78.5 -34zM375 0l-318 1069h195l219 -772l244 772h141l254 -768
l203 768h198l-307 -1069h-182l-238 700l-237 -700h-172z" />
    <glyph glyph-name="Ygrave" unicode="&#x1ef2;" horiz-adv-x="1288" 
d="M584 1585l-228 230l191 141l209 -371h-172zM551 0v569l-488 885h211l371 -678l367 678h211l-488 -885v-569h-184z" />
    <glyph glyph-name="ygrave" unicode="&#x1ef3;" horiz-adv-x="1081" 
d="M498 1288l-228 230l191 141l209 -371h-172zM473 -408h-184l157 406v4l-393 1067h201l285 -831l284 831h201z" />
    <glyph glyph-name="endash" unicode="&#x2013;" horiz-adv-x="1146" 
d="M158 510v174h829v-174h-829z" />
    <glyph glyph-name="emdash" unicode="&#x2014;" horiz-adv-x="1896" 
d="M227 510v176h1442v-176h-1442z" />
    <glyph glyph-name="quoteleft" unicode="&#x2018;" horiz-adv-x="501" 
d="M307 1454l84 -450h-158l-122 450h196z" />
    <glyph glyph-name="quoteright" unicode="&#x2019;" horiz-adv-x="501" 
d="M193 1454h198l-123 -450h-157z" />
    <glyph glyph-name="quotesinglbase" unicode="&#x201a;" horiz-adv-x="471" 
d="M283 2h-166v451h166v-451z" />
    <glyph glyph-name="quotedblleft" unicode="&#x201c;" horiz-adv-x="880" 
d="M686 1454l84 -450h-158l-123 450h197zM307 1454l84 -450h-158l-122 450h196z" />
    <glyph glyph-name="quotedblright" unicode="&#x201d;" horiz-adv-x="878" 
d="M569 1454h199l-123 -450h-158zM193 1454h198l-123 -450h-157z" />
    <glyph glyph-name="quotedblbase" unicode="&#x201e;" horiz-adv-x="811" 
d="M621 2h-166v451h166v-451zM283 2h-166v451h166v-451z" />
    <glyph glyph-name="dagger" unicode="&#x2020;" horiz-adv-x="1048" 
d="M440 334v672h-270v159h270v281h172v-281h267v-159h-267v-672h-172z" />
    <glyph glyph-name="daggerdbl" unicode="&#x2021;" horiz-adv-x="1050" 
d="M879 1006h-269v-232h269v-160h-269v-282h-174v282h-266v160h266v232h-264v159h264v281h174v-281h269v-159z" />
    <glyph glyph-name="bullet" unicode="&#x2022;" horiz-adv-x="673" 
d="M338 541q-73 0 -127.5 51t-54.5 127q0 75 55 128.5t127 53.5q73 0 126.5 -53t53.5 -129t-53 -127t-127 -51z" />
    <glyph glyph-name="ellipsis" unicode="&#x2026;" horiz-adv-x="1374" 
d="M240 -14q-48 0 -84.5 36.5t-36.5 88.5q0 51 36 85.5t85 34.5t87 -34.5t38 -85.5t-38.5 -88t-86.5 -37zM670 -14q-50 0 -86.5 36.5t-36.5 88.5t36 86t87 34t88 -34.5t37 -85.5q0 -52 -37.5 -88.5t-87.5 -36.5zM1092 -14q-50 0 -87.5 36.5t-37.5 88.5q0 51 37 85.5t88 34.5
q48 0 84 -34.5t36 -85.5q0 -52 -36 -88.5t-84 -36.5z" />
    <glyph glyph-name="guilsinglleft" unicode="&#x2039;" horiz-adv-x="753" 
d="M440 215l-274 320v94l270 317l129 -104l-223 -262l223 -261z" />
    <glyph glyph-name="guilsinglright" unicode="&#x203a;" horiz-adv-x="751" 
d="M283 952l274 -319v-94l-270 -318l-129 105l223 262l-223 260z" />
    <glyph glyph-name="Euro" unicode="&#x20ac;" horiz-adv-x="1417" 
d="M90 471v160h148q-2 29 -2 86q0 34 4 100h-150v160h172q53 240 209.5 370t407.5 130q153 0 252 -33.5t192 -93.5l-76 -170q-150 116 -362 116q-177 0 -278 -78t-140 -241h711l-62 -160h-672q-2 -31 -2 -96q0 -61 2 -90h611l-60 -160h-526q81 -315 424 -315q101 0 185 25
t179 75v-195q-148 -86 -378 -86q-249 0 -408.5 125t-212.5 371h-168z" />
    <glyph glyph-name="arrowleft" unicode="&#x2190;" horiz-adv-x="1699" 
d="M741 92l-591 596l591 594l131 -131l-378 -377h983v-176h-983l378 -379z" />
    <glyph glyph-name="arrowup" unicode="&#x2191;" horiz-adv-x="1331" 
d="M563 14v1112l-375 -376l-129 131l594 589l596 -589l-129 -133l-379 378v-1112h-178z" />
    <glyph glyph-name="arrowright" unicode="&#x2192;" horiz-adv-x="1685" 
d="M932 80l-131 129l379 379h-985v176h985l-379 375l131 131l590 -592z" />
    <glyph glyph-name="arrowdown" unicode="&#x2193;" horiz-adv-x="1325" 
d="M653 -14l-594 592l129 131l375 -381v1114h178v-1112l379 379l129 -131z" />
    <glyph glyph-name="minus" unicode="&#x2212;" horiz-adv-x="1306" 
d="M1122 588h-934v172h934v-172z" />
    <glyph glyph-name="commaaccent" unicode="&#xf6c3;" horiz-adv-x="268" 
d="M10 -414l45 318h203l-88 -318h-160z" />
    <glyph glyph-name="two.sub" horiz-adv-x="800" 
d="M100 -356v143l285 297q101 107 121 135q26 38 26 86q0 53 -37.5 87t-93.5 34q-129 0 -151 -121h-154q9 121 94.5 198t210.5 77q129 0 212 -81.5t83 -193.5q0 -37 -8 -69.5t-18 -55t-32 -50t-37 -43t-46 -45.5t-47 -46l-199 -203h396v-149h-605z" />
    <glyph glyph-name="controlBS" horiz-adv-x="0" 
 />
    </font>
</defs>
</svg>
