<?xml version="1.0" standalone="no"?>
<!DOCTYPE svg PUBLIC "-//W3C//DTD SVG 1.1//EN" "http://www.w3.org/Graphics/SVG/1.1/DTD/svg11.dtd" >
<svg xmlns="http://www.w3.org/2000/svg" xmlns:xlink="http://www.w3.org/1999/xlink" version="1.1">
<metadata>
Created by FontForge 20170731 at Thu Jan 21 20:32:38 2021
 By Aleksey,,,
</metadata>
<defs>
<font id="klimabold" horiz-adv-x="1249" >
  <font-face 
    font-family="klimabold"
    font-weight="400"
    font-stretch="normal"
    units-per-em="2048"
    panose-1="2 0 8 3 0 0 0 0 0 0"
    ascent="1565"
    descent="-483"
    x-height="1094"
    cap-height="1454"
    bbox="-35.7358 -578 2107 2517"
    underline-thickness="0"
    underline-position="0"
    unicode-range="U+0009-F6C3"
  />
<missing-glyph horiz-adv-x="378" 
 />
    <glyph glyph-name=".notdef" horiz-adv-x="378" 
 />
    <glyph glyph-name=".notdef" horiz-adv-x="378" 
 />
    <glyph glyph-name="glyph1" horiz-adv-x="0" 
 />
    <glyph glyph-name="uni000D" unicode="&#xd;" horiz-adv-x="481" 
 />
    <glyph glyph-name="space" unicode=" " horiz-adv-x="378" 
 />
    <glyph glyph-name="uni0009" unicode="&#x9;" horiz-adv-x="378" 
 />
    <glyph glyph-name="uni00A0" unicode="&#xa0;" horiz-adv-x="378" 
 />
    <glyph glyph-name="exclam" unicode="!" horiz-adv-x="624" 
d="M135 938v516h354v-516l-100 -520h-153zM164 137q0 70 41 110t108 40q66 0 108 -40.5t42 -109.5t-42 -110t-108 -41q-67 0 -108 40.5t-41 110.5z" />
    <glyph glyph-name="quotedbl" unicode="&#x22;" horiz-adv-x="899" 
d="M123 969v485h246v-485h-246zM516 969v485h246v-485h-246z" />
    <glyph glyph-name="numbersign" unicode="#" horiz-adv-x="1591" 
d="M131 340v235h254l37 308h-291v221h318l40 350h248l-43 -350h297l43 350h244l-43 -350h240v-221h-267l-37 -308h304v-235h-332l-41 -340h-244l41 340h-297l-41 -340h-246l41 340h-225zM631 575h297l37 308h-297z" />
    <glyph glyph-name="dollar" unicode="$" horiz-adv-x="1282" 
d="M68 215l208 225q168 -168 386 -168q91 0 140.5 39t49.5 111q0 82 -53 119t-187 51q-71 8 -137 27t-129 54.5t-109 83t-74 117.5t-28 154q0 172 99.5 287.5t283.5 148.5v191h268v-191q214 -37 361 -188l-211 -205q-45 49 -129 84t-172 35q-95 0 -144 -40.5t-49 -109.5
q0 -67 59.5 -99t194.5 -44q83 -8 152 -27t132 -55t106 -87t68.5 -126.5t25.5 -169.5q1 -182 -108 -296t-286 -146v-215h-268v213q-133 22 -252.5 82t-197.5 145z" />
    <glyph glyph-name="percent" unicode="%" horiz-adv-x="1730" 
d="M98 1118q0 158 97.5 256.5t236.5 98.5q143 0 239.5 -95t96.5 -256q0 -174 -94 -267t-240 -93q-141 0 -238.5 97t-97.5 259zM268 0l922 1454h266l-921 -1454h-267zM301 1114q0 -73 37.5 -114.5t97.5 -41.5q58 0 96.5 44t38.5 116q0 69 -36.5 111.5t-98.5 42.5
q-59 0 -97 -44t-38 -114zM958 346q0 160 97.5 258t238.5 98q142 0 239 -95t97 -257q0 -173 -95 -266.5t-241 -93.5q-139 0 -237.5 98.5t-98.5 257.5zM1161 344q0 -73 38 -114.5t97 -41.5q60 0 99 43.5t39 114.5q0 68 -38 111t-100 43q-59 0 -97 -43.5t-38 -112.5z" />
    <glyph glyph-name="ampersand" unicode="&#x26;" horiz-adv-x="1421" 
d="M49 420q0 143 85 249.5t208 159.5q-4 6 -24 34.5t-33 51t-29.5 56.5t-25.5 72t-9 77q0 144 114.5 249.5t299.5 105.5q92 0 168 -30.5t125.5 -81.5t76.5 -116.5t27 -136.5q0 -66 -25 -126t-67.5 -106.5t-89.5 -81t-100 -61.5q-1 0 49 -58.5t101 -117.5l50 -59l117 149h328
l-285 -330l262 -319h-319l-123 147q-57 -67 -162.5 -115.5t-241.5 -49.5q-106 0 -197 36t-151.5 97t-94.5 140t-34 165zM340 430q0 -81 57 -140t140 -59q118 0 223 105q1 0 -64 75t-131 149.5t-67 74.5q-76 -29 -117 -82.5t-41 -122.5zM496 1106q0 -88 96 -184
q75 27 122.5 75t47.5 101q0 60 -37.5 99.5t-97.5 39.5q-53 -2 -92 -38t-39 -93z" />
    <glyph glyph-name="quotesingle" unicode="'" horiz-adv-x="491" 
d="M123 969v485h246v-485h-246z" />
    <glyph glyph-name="parenleft" unicode="(" horiz-adv-x="747" 
d="M106 729q6 540 293 946l254 -164q-251 -351 -254 -788q-4 -229 62 -441t188 -382l-243 -179q-139 199 -221.5 470.5t-78.5 537.5z" />
    <glyph glyph-name="parenright" unicode=")" horiz-adv-x="747" 
d="M61 -109q251 351 254 789q4 229 -61.5 441t-187.5 382l243 178q139 -199 221 -469.5t78 -537.5q-6 -540 -293 -946z" />
    <glyph glyph-name="asterisk" unicode="*" horiz-adv-x="894" 
d="M109 1130l57 185l186 -70l-6 219h195l-9 -219l201 70l53 -182l-196 -60l125 -172l-154 -110l-115 174l-120 -174l-152 116l129 166z" />
    <glyph glyph-name="plus" unicode="+" horiz-adv-x="1280" 
d="M170 545v260h334v340h270v-340h336v-260h-336v-342h-270v342h-334z" />
    <glyph glyph-name="comma" unicode="," horiz-adv-x="548" 
d="M88 -240l86 465h291l-137 -465h-240z" />
    <glyph glyph-name="hyphen" unicode="-" horiz-adv-x="921" 
d="M133 510v287h653v-287h-653z" />
    <glyph glyph-name="period" unicode="." horiz-adv-x="524" 
d="M100 145q0 77 43 119.5t119 42.5q74 0 119 -43t45 -119t-45 -119.5t-119 -43.5q-76 0 -119 43t-43 120z" />
    <glyph glyph-name="slash" unicode="/" horiz-adv-x="997" 
d="M57 0l574 1452h311l-575 -1452h-310z" />
    <glyph glyph-name="zero" unicode="0" horiz-adv-x="1347" 
d="M82 725q0 184 45 329t125.5 236t187 138t234.5 47q124 0 230.5 -47t187.5 -137.5t127.5 -235t46.5 -328.5q0 -188 -45.5 -333t-126.5 -234t-187 -134.5t-233 -45.5q-129 0 -235.5 45.5t-187 135t-125 233.5t-44.5 331zM401 723q0 -449 273 -449q57 0 104 23t86 73.5
t60.5 140.5t21.5 214q0 244 -73.5 351.5t-198.5 107.5q-130 0 -201.5 -106.5t-71.5 -354.5z" />
    <glyph glyph-name="one" unicode="1" horiz-adv-x="788" 
d="M70 1339l309 115h256v-1454h-320v1141l-239 -37z" />
    <glyph glyph-name="two" unicode="2" horiz-adv-x="1224" 
d="M96 1034q18 190 154.5 314.5t345.5 124.5q233 0 371.5 -121t138.5 -314q0 -37 -6.5 -71.5t-14 -61t-25 -58t-29.5 -51t-39.5 -52t-42 -48.5t-49 -53.5t-50.5 -54.5l-277 -301h551v-287h-1015v209l495 549q18 20 51.5 55t51.5 55t39 48.5t30.5 54.5t9.5 53
q0 71 -52.5 118.5t-137.5 47.5q-164 -3 -201 -156h-299z" />
    <glyph glyph-name="three" unicode="3" horiz-adv-x="1239" 
d="M68 428h315q12 -68 73.5 -112t135.5 -44q99 0 160 49t61 134q0 88 -77.5 129t-239.5 43v239q144 0 218 44t74 124q0 69 -53.5 109.5t-146.5 40.5q-79 0 -129.5 -34t-81.5 -108h-283q18 136 95.5 236t184.5 147.5t228 47.5q131 0 243 -45.5t183.5 -138t73.5 -214.5
q1 -58 -12.5 -107.5t-35 -82.5t-51 -59.5t-55 -40.5t-51.5 -23q44 -13 85 -37t79 -62.5t61 -96.5t23 -128q0 -205 -150.5 -332t-396.5 -126q-67 -1 -134.5 14.5t-134.5 51t-120.5 86t-91.5 127.5t-49 169z" />
    <glyph glyph-name="four" unicode="4" horiz-adv-x="1284" 
d="M74 260v266l579 928h396v-907h157v-289h-157v-258h-320v260h-655zM371 549h362v569z" />
    <glyph glyph-name="five" unicode="5" horiz-adv-x="1232" 
d="M70 408h325q15 -65 72.5 -104.5t132.5 -39.5q104 0 163.5 59.5t59.5 159.5q0 98 -60.5 155.5t-152.5 57.5q-74 0 -125.5 -31t-74.5 -81l-297 49l63 821h877v-270h-631l-12 -277q3 7 27.5 22t83 31.5t126.5 16.5q76 0 147 -18.5t134.5 -57.5t111 -96t75.5 -138.5
t28 -179.5q0 -121 -43 -219.5t-117 -161.5t-170 -97t-205 -34q-213 0 -365 125.5t-173 307.5z" />
    <glyph glyph-name="six" unicode="6" horiz-adv-x="1284" 
d="M82 496q0 61 14.5 125.5t33 114t53 112t56 97t60.5 93.5l274 420h367l-346 -530q27 45 151 45q59 0 120.5 -17.5t122 -55.5t108 -91.5t77 -133.5t29.5 -173q0 -123 -46.5 -223t-126 -163.5t-181.5 -97.5t-215 -34q-104 0 -202 34.5t-176 97.5t-125.5 162t-47.5 218z
M414 498q0 -99 66.5 -163t162.5 -61q102 3 166.5 63.5t64.5 158.5q0 101 -66 161t-163 60q-98 0 -164.5 -60t-66.5 -159z" />
    <glyph glyph-name="seven" unicode="7" horiz-adv-x="1167" 
d="M59 1171v283h1028v-246l-534 -1208h-350l528 1171h-672z" />
    <glyph glyph-name="eight" unicode="8" horiz-adv-x="1263" 
d="M78 412q0 223 209 354q-156 117 -154 291q0 178 141.5 298t356.5 120t355 -119t140 -299q0 -99 -53 -178t-115 -113q28 -14 54 -31t59.5 -48t57.5 -66.5t40.5 -88t16.5 -110.5q0 -188 -152 -315t-393 -127q-261 0 -412 123t-151 309zM416 426q0 -77 59.5 -126t161.5 -48
q95 1 153 51.5t58 126.5q0 82 -67.5 129t-184.5 76q-90 -29 -136 -87.5t-44 -121.5zM442 1057q0 -69 56 -125t133 -68q84 18 134 73.5t50 121.5q0 67 -51 114.5t-133 47.5t-135.5 -47t-53.5 -117z" />
    <glyph glyph-name="nine" unicode="9" horiz-adv-x="1284" 
d="M82 940q0 156 74.5 279t203.5 190.5t289 67.5q154 0 279 -62.5t199.5 -182t74.5 -274.5q0 -84 -22.5 -169.5t-65.5 -168t-80.5 -142t-91.5 -134.5l-246 -344h-374l356 487q-43 -30 -135 -30q-58 0 -120 19t-123.5 59t-109.5 95.5t-78 136t-30 173.5zM410 954
q0 -102 67.5 -169.5t163.5 -67.5q94 0 160.5 66.5t66.5 170.5q0 105 -64.5 170.5t-162.5 65.5t-164.5 -65t-66.5 -171z" />
    <glyph glyph-name="colon" unicode=":" horiz-adv-x="593" 
d="M133 176q0 74 45.5 118t118.5 44q72 0 118 -44t46 -118q0 -75 -46 -119.5t-118 -44.5q-73 0 -118.5 44.5t-45.5 119.5zM135 866q0 75 45.5 118.5t118.5 43.5q71 0 117.5 -43.5t46.5 -118.5q0 -74 -48 -120t-116 -46q-73 0 -118.5 45t-45.5 121z" />
    <glyph glyph-name="semicolon" unicode=";" horiz-adv-x="624" 
d="M106 -233l87 464h290l-137 -464h-240zM168 866q0 77 43 119.5t119 42.5q74 0 119 -43t45 -119q0 -77 -45.5 -120.5t-118.5 -43.5q-76 0 -119 43t-43 121z" />
    <glyph glyph-name="less" unicode="&#x3c;" horiz-adv-x="1036" 
d="M106 440v224l795 440v-316l-459 -237l459 -227v-320z" />
    <glyph glyph-name="equal" unicode="=" horiz-adv-x="1406" 
d="M233 291v260h938v-260h-938zM233 799v260h938v-260h-938z" />
    <glyph glyph-name="greater" unicode="&#x3e;" horiz-adv-x="1036" 
d="M84 -2v315l459 238l-459 227v320l795 -436v-224z" />
    <glyph glyph-name="question" unicode="?" horiz-adv-x="1165" 
d="M100 1032q3 129 70 230t176.5 153.5t239.5 52.5q199 0 333 -118t136 -293q1 -72 -17.5 -131.5t-63 -112t-70.5 -77t-86 -72.5q-15 -13 -23 -19q-71 -58 -98 -110t-27 -125h-260q0 82 18 149.5t51.5 117.5t67 83.5t78.5 66.5q78 55 108.5 97t30.5 102q0 74 -51 119
t-133 45q-74 0 -133 -42t-70 -124zM389 131q0 70 42 110t110 40q67 0 107 -40t40 -110t-40 -109.5t-107 -39.5q-69 0 -110.5 40t-41.5 109z" />
    <glyph glyph-name="at" unicode="@" horiz-adv-x="1900" 
d="M141 641q0 173 64.5 325.5t174.5 259.5t262 168.5t323 61.5q233 0 414.5 -103t280.5 -285t99 -413q0 -244 -104 -388t-258 -144q-94 0 -172 51.5t-115 151.5q-16 -29 -64 -51.5t-102 -22.5q-159 -1 -253.5 113t-94.5 280q2 161 94.5 267.5t239.5 105.5q63 0 108 -32
t62 -75l30 82l142 -2l-4 -397q-2 -130 24.5 -192.5t85.5 -61.5q148 0 148 317q0 258 -153.5 422.5t-407.5 163.5q-163 -1 -297.5 -80.5t-211.5 -217t-77 -302.5q0 -89 23 -173.5t71 -159.5t115.5 -131t162.5 -89t207 -33q51 0 92.5 6.5t57.5 12.5l16 6q5 -13 12.5 -34
t23.5 -66t26.5 -74.5t9.5 -28.5q-72 -39 -233 -39q-173 0 -325.5 60.5t-261.5 166t-172 254.5t-63 320zM819 635q-1 -92 38.5 -142.5t100.5 -50.5q122 3 125 189q1 98 -32.5 150.5t-94.5 52.5q-62 0 -99.5 -53.5t-37.5 -145.5z" />
    <glyph glyph-name="A" unicode="A" horiz-adv-x="1443" 
d="M37 0l518 1454h328l524 -1454h-326l-90 262h-534l-88 -262h-332zM541 518h362l-184 535z" />
    <glyph glyph-name="B" unicode="B" horiz-adv-x="1308" 
d="M141 0v1454h494q131 0 233 -34t164.5 -93t94.5 -132.5t32 -156.5q0 -93 -44.5 -168.5t-108.5 -99.5q107 -31 172 -128.5t65 -211.5q0 -66 -19 -127t-62 -116.5t-105 -96.5t-155 -65.5t-206 -24.5h-555zM455 264h225q124 0 181 46.5t57 138.5q0 86 -61 131t-177 45h-225
v-361zM455 850h190q96 0 147.5 46.5t51.5 123.5q0 74 -53 122t-152 48h-184v-340z" />
    <glyph glyph-name="C" unicode="C" horiz-adv-x="1466" 
d="M78 723q0 186 55.5 333t149.5 238t213 138t252 47q259 0 433 -144t203 -389h-315q-18 113 -107 180.5t-210 67.5q-53 0 -101.5 -14t-96.5 -48t-83 -86t-56.5 -135t-21.5 -188q0 -99 22 -179t57.5 -132t83.5 -87t97.5 -50t102.5 -15q123 0 210.5 72t104.5 182h318
q-14 -136 -73.5 -242t-149 -169t-195.5 -94.5t-223 -31.5q-97 0 -190 26.5t-181 85t-153.5 143t-105.5 211.5t-40 280z" />
    <glyph glyph-name="D" unicode="D" horiz-adv-x="1404" 
d="M141 0v1454h484q154 0 283.5 -47.5t224 -136.5t147.5 -226t53 -309q0 -188 -51.5 -330t-147 -230t-223 -131.5t-286.5 -43.5h-484zM453 291h172q189 0 294 108.5t105 335.5q0 218 -108 323t-291 105h-172v-872z" />
    <glyph glyph-name="E" unicode="E" 
d="M143 0v1454h990v-280h-678v-306h520v-272h-520v-315h684v-281h-996z" />
    <glyph glyph-name="F" unicode="F" horiz-adv-x="1220" 
d="M143 0v1452h996v-291h-684v-313h514v-273h-514v-575h-312z" />
    <glyph glyph-name="G" unicode="G" horiz-adv-x="1470" 
d="M80 727q0 146 36 269.5t98.5 210.5t147 148.5t181.5 91t202 30.5q248 0 425 -141t206 -369h-315q-17 86 -104 156.5t-212 70.5q-71 0 -133.5 -29t-112.5 -85t-79 -147t-29 -206q0 -121 29.5 -213.5t80 -146.5t112 -80.5t132.5 -26.5q140 0 228.5 73t95.5 216h-250v244
h565v-150q0 -139 -35.5 -252t-96 -189t-143 -127.5t-173.5 -74.5t-191 -23q-101 0 -194.5 25.5t-180 83.5t-150.5 143.5t-102 213.5t-38 284z" />
    <glyph glyph-name="H" unicode="H" horiz-adv-x="1413" 
d="M145 0v1454h312v-577h499v577h312v-1454h-312v586h-499v-586h-312z" />
    <glyph glyph-name="I" unicode="I" horiz-adv-x="600" 
d="M143 0v1454h312v-1454h-312z" />
    <glyph glyph-name="J" unicode="J" horiz-adv-x="1087" 
d="M12 180l228 182q90 -96 196 -96q201 0 201 260v928h311v-926q0 -148 -38.5 -256t-109.5 -171t-161.5 -92t-204.5 -29q-123 0 -241 56t-181 144z" />
    <glyph glyph-name="K" unicode="K" horiz-adv-x="1409" 
d="M143 0v1454h312v-614l495 614h398l-519 -635l557 -819h-374l-406 604l-151 -172v-432h-312z" />
    <glyph glyph-name="L" unicode="L" horiz-adv-x="1187" 
d="M143 0v1454h312v-1173h653v-281h-965z" />
    <glyph glyph-name="M" unicode="M" horiz-adv-x="1742" 
d="M143 0v1454h316l407 -799l416 799h317v-1454h-311v877l-336 -693h-174l-323 690v-874h-312z" />
    <glyph glyph-name="N" unicode="N" horiz-adv-x="1474" 
d="M143 0v1454h324l553 -895v895h313v-1454h-325l-553 862v-862h-312z" />
    <glyph glyph-name="O" unicode="O" horiz-adv-x="1482" 
d="M78 733q0 180 52 324t143 235t210.5 139t257.5 48q137 0 256.5 -48.5t211 -140t144 -235.5t52.5 -322q0 -182 -52.5 -327t-144 -237t-211 -140.5t-256.5 -48.5q-138 0 -257 48t-210 139.5t-143.5 237t-52.5 328.5zM391 733q0 -100 19.5 -180.5t52.5 -134t78 -89.5
t95 -51.5t105 -15.5q53 0 102.5 16t95 52t79.5 89t54 134t20 180q0 98 -20.5 177.5t-54.5 131.5t-80 87t-95 50t-101 15q-53 0 -102 -15t-94.5 -50t-79.5 -87t-54 -131.5t-20 -177.5z" />
    <glyph glyph-name="P" unicode="P" horiz-adv-x="1302" 
d="M143 0v1454h555q134 0 238 -39.5t166 -107t93.5 -152.5t31.5 -182q0 -95 -31.5 -179t-93.5 -152t-166 -108t-238 -40h-243v-494h-312zM455 784h211q107 0 176 46t69 147q0 53 -21 92.5t-57.5 61.5t-78.5 32.5t-90 10.5h-209v-390z" />
    <glyph glyph-name="Q" unicode="Q" horiz-adv-x="1460" 
d="M78 733q0 180 52 324t143 235t210.5 139t257.5 48q137 0 256.5 -48.5t211 -140t144 -235.5t52.5 -322q0 -330 -170 -534l123 -140l-234 -200l-145 161q-110 -40 -238 -40q-138 0 -257 48t-210 139.5t-143.5 237t-52.5 328.5zM391 733q0 -100 19.5 -180.5t52.5 -134
t78 -89.5t95 -51.5t105 -15.5q53 0 102.5 16t95 52t79.5 89t54 134t20 180q0 98 -20.5 177.5t-54.5 131.5t-80 87t-95 50t-101 15q-53 0 -102 -15t-94.5 -50t-79.5 -87t-54 -131.5t-20 -177.5z" />
    <glyph glyph-name="R" unicode="R" horiz-adv-x="1363" 
d="M143 0v1454h527q143 0 255.5 -37t182 -103t105.5 -152t36 -187q0 -131 -66.5 -234.5t-189.5 -156.5l285 -584h-346l-227 510h-250v-510h-312zM455 788h213q108 0 176.5 47.5t68.5 149.5q0 98 -70 143.5t-175 45.5h-213v-386z" />
    <glyph glyph-name="S" unicode="S" horiz-adv-x="1241" 
d="M51 215l203 215q74 -76 172.5 -124t202.5 -48q113 0 167 42t54 116q0 85 -58 122.5t-196 53.5q-71 8 -137.5 27t-130 54.5t-110 83t-75 117.5t-28.5 154q0 195 143 321t381 126q304 0 500 -199l-199 -201q-45 48 -139 83.5t-183 35.5q-99 0 -152.5 -38.5t-53.5 -108.5
q0 -69 65 -106.5t203 -49.5q103 -8 189 -37.5t155 -83t108 -140t39 -198.5v-6q0 -84 -27 -156q-28 -74 -78 -128t-118 -91.5t-148 -55.5t-167 -18q-178 0 -328 64t-254 174z" />
    <glyph glyph-name="T" unicode="T" horiz-adv-x="1257" 
d="M68 1180v272h1124v-272h-408v-1180h-311v1180h-405z" />
    <glyph glyph-name="U" unicode="U" horiz-adv-x="1390" 
d="M106 604v850h312v-848q0 -167 79 -248.5t199 -81.5q116 0 196.5 83t80.5 247v848h311v-850q0 -124 -30.5 -227t-84 -176t-127.5 -123t-161 -74t-185 -24q-124 0 -230 38.5t-187 113.5t-127 196t-46 276z" />
    <glyph glyph-name="V" unicode="V" horiz-adv-x="1409" 
d="M41 1452h334l332 -997l329 997h334l-504 -1452h-321z" />
    <glyph glyph-name="W" unicode="W" horiz-adv-x="1925" 
d="M35 1454h334l235 -946l258 878h217l256 -882l221 950h332l-389 -1454h-303l-231 756l-230 -756h-305z" />
    <glyph glyph-name="X" unicode="X" horiz-adv-x="1400" 
d="M45 0l457 731l-451 723h371l272 -471l279 471h368l-456 -723l454 -731h-362l-283 463l-286 -463h-363z" />
    <glyph glyph-name="Y" unicode="Y" horiz-adv-x="1359" 
d="M37 1454h352l291 -588l285 588h358l-494 -911v-543h-311v543z" />
    <glyph glyph-name="Z" unicode="Z" horiz-adv-x="1220" 
d="M68 0v289l653 876h-633v289h1036v-272l-659 -883h674v-299h-1071z" />
    <glyph glyph-name="bracketleft" unicode="[" horiz-adv-x="770" 
d="M141 -188v1796h521v-281h-218v-1233h218v-282h-521z" />
    <glyph glyph-name="backslash" unicode="\" horiz-adv-x="1001" 
d="M57 1452h312l573 -1452h-307z" />
    <glyph glyph-name="bracketright" unicode="]" horiz-adv-x="770" 
d="M61 90h218v1233h-218v283h521v-1796h-521v280z" />
    <glyph glyph-name="asciicircum" unicode="^" horiz-adv-x="907" 
d="M59 1104l289 350h225l281 -360l-143 -107l-250 232l-256 -230z" />
    <glyph glyph-name="uni005F_slash" horiz-adv-x="1236" 
d="M23 0h1191v-264h-1191v264z" />
    <glyph glyph-name="grave" unicode="`" horiz-adv-x="565" 
d="M14 1389l353 225l184 -432h-291z" />
    <glyph glyph-name="a" unicode="a" horiz-adv-x="1124" 
d="M74 319q0 69 28.5 131.5t83.5 112.5t144 79.5t200 29.5q46 0 106.5 -10t88.5 -19v35q0 190 -203 190q-119 0 -196 -77l-191 145q59 81 164 129.5t246 48.5t247.5 -49.5t170 -158t63.5 -265.5v-641h-246l-22 125q-10 -17 -30.5 -37.5t-56 -45.5t-93 -41.5t-123.5 -16.5
q-163 0 -272 97.5t-109 237.5zM371 338q0 -59 41 -90t114 -31q70 0 129.5 44t67.5 95v99q-50 12 -164 12q-91 -1 -139.5 -36.5t-48.5 -92.5z" />
    <glyph glyph-name="b" unicode="b" horiz-adv-x="1275" 
d="M125 0v1454h328v-471q27 53 111 92t167 39q67 0 132 -19t126 -62.5t107 -107.5t74 -160.5t28 -213.5q0 -140 -41 -251t-109.5 -177.5t-152 -101.5t-174.5 -35q-88 0 -183 42.5t-132 96.5l-21 -125h-260zM424 549q0 -76 22 -136.5t57.5 -96t77 -54t83.5 -18.5
q86 0 149.5 78.5t63.5 226.5q0 151 -65 227t-159 76q-89 0 -159 -78.5t-70 -224.5z" />
    <glyph glyph-name="c" unicode="c" horiz-adv-x="1185" 
d="M80 541q0 135 44 246t118 181t167 108t195 38q91 0 173.5 -25t152 -73.5t117.5 -129.5t63 -184h-299q-42 152 -197 152q-42 0 -81 -17t-73.5 -52t-55.5 -98t-21 -146q0 -150 71 -225.5t160 -75.5q74 0 125 36t70 99h301q-28 -185 -163.5 -291.5t-340.5 -106.5
q-104 0 -198 37.5t-167.5 107t-117 178t-43.5 241.5z" />
    <glyph glyph-name="d" unicode="d" horiz-adv-x="1273" 
d="M78 551q0 144 44.5 256.5t117 177t156 97t171.5 32.5q78 0 154 -36.5t100 -88.5v465h328v-1454h-252l-27 125q-35 -62 -119 -100.5t-169 -38.5q-72 0 -142 21t-136 67t-116 110.5t-80 159.5t-30 207zM395 553q0 -79 21.5 -140.5t56.5 -95.5t73.5 -50.5t76.5 -16.5
q83 0 152 79.5t69 223.5t-66.5 221.5t-152.5 77.5q-42 0 -81 -16t-73.5 -49.5t-55 -93.5t-20.5 -140z" />
    <glyph glyph-name="e" unicode="e" horiz-adv-x="1183" 
d="M82 541q0 136 42 247t114 181t163.5 107.5t194.5 37.5q105 0 195.5 -32.5t161 -97t111 -169.5t40.5 -240v-120h-731q6 -108 81.5 -168t182.5 -60q87 0 164 28t125 73l141 -203q-148 -145 -444 -145q-110 0 -206 34.5t-171.5 101.5t-119.5 176.5t-44 248.5zM373 655h440
q0 105 -61 161t-158 56q-90 0 -152.5 -58.5t-68.5 -158.5z" />
    <glyph glyph-name="f" unicode="f" horiz-adv-x="782" 
d="M55 856v238h140v26q0 192 95.5 285.5t299.5 93.5q22 0 72 -3l51 -3v-227q-26 2 -49 2q-83 0 -117 -23q-38 -25 -38 -97q0 -11 1 -24v-30h201v-238h-187v-856h-329v856h-140z" />
    <glyph glyph-name="g" unicode="g" horiz-adv-x="1253" 
d="M86 547q0 115 28 210.5t74.5 159.5t108 108.5t127 64.5t133.5 20q89 0 165 -36.5t107 -92.5l25 113h276v-990q0 -288 -146.5 -440.5t-420.5 -152.5q-136 0 -255.5 48t-186.5 122l170 200q43 -38 117.5 -67t146.5 -29q248 0 248 254v61q-25 -52 -94 -88.5t-150 -36.5
q-69 0 -135 20.5t-127.5 66t-108 111t-74.5 162t-28 212.5zM391 541q0 -144 65 -220.5t158 -76.5q92 0 157 79t65 218q0 156 -64 230.5t-158 74.5t-158.5 -76.5t-64.5 -228.5z" />
    <glyph glyph-name="h" unicode="h" horiz-adv-x="1261" 
d="M137 0v1454h326v-469q26 51 106 90t156 39q88 0 164.5 -30.5t136 -90.5t93.5 -158t34 -223v-612h-334v608q0 104 -48.5 157.5t-127.5 53.5q-72 0 -126 -59t-54 -152v-608h-326z" />
    <glyph glyph-name="i" unicode="i" horiz-adv-x="569" 
d="M109 1370q0 74 48.5 113t125.5 39q79 0 128.5 -39t49.5 -113t-49.5 -113.5t-128.5 -39.5q-77 0 -125.5 39.5t-48.5 113.5zM139 0v1094h301v-1094h-301z" />
    <glyph glyph-name="j" unicode="j" horiz-adv-x="659" 
d="M16 -195h13q67 0 111 47q48 51 48 142v1089h330v-1097q0 -147 -72 -256t-185 -160q-99 -44 -213 -44q-16 0 -32 1v278zM176 1341q0 75 48.5 113.5t127.5 38.5q78 0 126 -38.5t48 -113.5q0 -74 -48.5 -113.5t-125.5 -39.5q-78 0 -127 39.5t-49 113.5z" />
    <glyph glyph-name="k" unicode="k" horiz-adv-x="1216" 
d="M129 0v1454h326v-782l321 422h381l-389 -488l426 -606h-373l-299 451l-67 -60v-391h-326z" />
    <glyph glyph-name="l" unicode="l" horiz-adv-x="573" 
d="M129 0v1454h315v-1454h-315z" />
    <glyph glyph-name="m" unicode="m" horiz-adv-x="1837" 
d="M129 0v1094h260l37 -125q28 54 112.5 105.5t176.5 51.5q98 0 176.5 -44t112.5 -119q45 67 135 115t207 48q170 0 278.5 -127.5t108.5 -339.5v-659h-314v657q0 96 -41.5 144.5t-115.5 48.5q-75 0 -125 -51.5t-50 -141.5v-657h-313v649q1 98 -41 149.5t-117 51.5
q-79 0 -126.5 -53.5t-47.5 -147.5v-649h-313z" />
    <glyph glyph-name="n" unicode="n" horiz-adv-x="1226" 
d="M129 0v1094h240l37 -113q33 57 124.5 99t188.5 42q83 0 153 -25.5t127 -77.5t89 -141t32 -206v-672h-315v655q0 98 -49 152.5t-129 54.5t-131.5 -56t-51.5 -151v-655h-315z" />
    <glyph glyph-name="o" unicode="o" horiz-adv-x="1228" 
d="M78 547q0 117 32.5 214t86 161.5t124 108.5t143.5 63.5t148 19.5q78 0 153 -20t145.5 -64t123.5 -108.5t85 -161t32 -213.5q0 -114 -32.5 -209.5t-86 -160.5t-124 -110.5t-145.5 -66t-151 -20.5q-75 0 -149 20.5t-144 66t-123.5 110.5t-85.5 160.5t-32 209.5zM381 547
q0 -144 70 -221.5t161 -77.5q41 0 81 18t75.5 52.5t57.5 94t22 134.5q0 79 -21 140t-56.5 95t-75.5 51t-83 17q-44 0 -83.5 -16.5t-73.5 -50.5t-54 -95t-20 -141z" />
    <glyph glyph-name="p" unicode="p" horiz-adv-x="1259" 
d="M129 -422v1516h266l27 -127q44 66 131 104.5t188 38.5q63 0 124.5 -19.5t119 -64t101 -108t70 -159t26.5 -210.5q0 -114 -28 -209t-74 -159t-106 -108.5t-123.5 -64.5t-127.5 -20q-81 0 -164.5 34.5t-107.5 86.5v-531h-322zM422 549q0 -148 68.5 -224.5t158.5 -76.5
q88 0 155.5 76.5t67.5 224.5q0 79 -20 139.5t-53.5 94.5t-71.5 50.5t-78 16.5q-38 0 -75.5 -16t-72.5 -49t-57 -94t-22 -142z" />
    <glyph glyph-name="q" unicode="q" horiz-adv-x="1259" 
d="M78 549q0 115 27.5 210.5t73 159t105 108t122 64t126.5 19.5q100 0 185 -38.5t129 -104.5l28 127h256v-1516h-321v531q-24 -52 -107.5 -86.5t-164.5 -34.5q-64 0 -127.5 20t-123.5 64.5t-106 108.5t-74 159t-28 209zM389 549q0 -149 66.5 -225t156.5 -76q40 0 79 18
t73 53t55 94.5t21 135.5q0 80 -22 141t-57.5 94.5t-73 49.5t-75.5 16t-75.5 -16.5t-71.5 -50t-55 -94t-21 -140.5z" />
    <glyph glyph-name="r" unicode="r" horiz-adv-x="849" 
d="M129 0v1094h231l37 -119q29 58 112.5 98.5t168.5 40.5q20 0 42.5 -1.5t45.5 -3.5t33 -3v-287q-61 6 -109 6q-123 0 -182 -56.5t-59 -193.5v-575h-320z" />
    <glyph glyph-name="s" unicode="s" horiz-adv-x="1026" 
d="M53 111l142 227q73 -46 163.5 -76.5t161.5 -30.5q164 0 164 101q0 22 -12 39t-30.5 28t-55 20.5t-70.5 15.5t-92 14q-65 9 -121 32t-102 61t-72.5 96t-26.5 130q0 148 125 250t308 102q123 0 231.5 -31.5t173.5 -80.5l-129 -211q-15 9 -42 23t-103 38.5t-144 28.5
q-65 0 -105 -24.5t-40 -67.5q0 -28 13 -46.5t55 -31.5t63.5 -17.5t92.5 -15.5l36 -6q156 -24 242 -109.5t86 -228.5q0 -168 -121 -268.5t-332 -100.5q-108 0 -236.5 37t-222.5 103z" />
    <glyph glyph-name="t" unicode="t" horiz-adv-x="776" 
d="M43 850v244h143l62 295h256v-295h201v-244h-201v-440q0 -93 34 -125.5t113 -32.5h49v-246q-54 -12 -153 -12q-169 0 -264 81t-95 238v537h-145z" />
    <glyph glyph-name="u" unicode="u" 
d="M109 453v641h337v-641q0 -107 48 -162t124 -55q77 0 125 56t48 161v641h329v-1094h-256l-35 125q-33 -66 -117.5 -109t-172.5 -43q-64 0 -123 15.5t-115.5 51.5t-98.5 90t-67.5 137t-25.5 186z" />
    <glyph glyph-name="v" unicode="v" horiz-adv-x="1155" 
d="M31 1094h331l207 -734l226 734h329l-389 -1094h-336z" />
    <glyph glyph-name="w" unicode="w" horiz-adv-x="1667" 
d="M39 1094h330l163 -641l195 641h219l199 -641l153 641h332l-323 -1094h-299l-177 541l-178 -541h-284z" />
    <glyph glyph-name="x" unicode="x" horiz-adv-x="1247" 
d="M41 0l383 545l-383 549h381l201 -318l204 318h381l-395 -545l391 -549h-381l-198 305l-203 -305h-381z" />
    <glyph glyph-name="y" unicode="y" horiz-adv-x="1171" 
d="M39 1094h338l209 -721l209 721h340l-547 -1493h-309l163 395l-2 4z" />
    <glyph glyph-name="z" unicode="z" horiz-adv-x="1003" 
d="M80 0v213l471 623h-457v258h815v-220l-458 -614h473v-260h-844z" />
    <glyph glyph-name="braceleft" unicode="{" horiz-adv-x="868" 
d="M102 580v280q164 0 164 205v188q0 173 104.5 280.5t280.5 108.5q3 3 80 3v-267q-95 0 -137.5 -46t-42.5 -140v-168q0 -59 -5.5 -103t-20 -87t-44.5 -71t-75 -40q37 -11 63.5 -32.5t41 -47.5t23 -63.5t11 -70t2.5 -77.5v-182q0 -83 48.5 -128.5t135.5 -45.5v-264h-88
q-161 1 -266 111t-105 276v186q0 195 -170 195z" />
    <glyph glyph-name="bar" unicode="|" horiz-adv-x="591" 
d="M162 -225v1853h268v-1853h-268z" />
    <glyph glyph-name="braceright" unicode="}" horiz-adv-x="870" 
d="M92 76q95 0 137.5 46t42.5 140v168q0 59 5.5 103t20.5 87t45 71t75 40q-46 13 -75.5 41t-43.5 70.5t-18.5 82.5t-4.5 97v182q0 83 -48.5 128.5t-135.5 45.5v264h88q161 -1 266 -111t105 -276v-186q0 -195 170 -195v-280q-164 0 -164 -205v-188q0 -173 -104.5 -280.5
t-280.5 -108.5q-2 -2 -80 -2v266z" />
    <glyph glyph-name="asciitilde" unicode="~" horiz-adv-x="1357" 
d="M117 639q34 132 135 214.5t250 82.5q73 0 135.5 -19t97 -41.5t75.5 -41.5t77 -19q47 0 83 28.5t48 78.5l223 -62q-35 -146 -137.5 -225.5t-251.5 -79.5q-59 0 -117 19t-96 41.5t-84 41.5t-84 19q-98 0 -133 -111z" />
    <glyph glyph-name="exclamdown" unicode="&#xa1;" horiz-adv-x="624" 
d="M109 -106v516l100 520h153l101 -520v-516h-354zM135 1210q0 69 42 110.5t108 41.5q67 0 108 -41t41 -111q0 -69 -41 -109t-108 -40q-66 0 -108 40t-42 109z" />
    <glyph glyph-name="cent" unicode="&#xa2;" horiz-adv-x="1185" 
d="M82 541q0 123 36.5 226t99.5 172.5t144 112.5t173 56l26 172h313l-36 -211q109 -47 182 -139.5t92 -227.5h-301q-47 152 -195 152q-42 0 -79.5 -17.5t-70 -53t-52 -98.5t-19.5 -146q0 -78 20 -138.5t53.5 -94t71.5 -50t78 -16.5q74 0 124 36t69 99h301
q-25 -162 -132.5 -265t-274.5 -126l-33 -179h-303l30 213q-143 60 -230 195t-87 328z" />
    <glyph glyph-name="sterling" unicode="&#xa3;" horiz-adv-x="1275" 
d="M100 641v281h105q-31 78 -31 172q0 164 136 277.5t358 113.5q246 0 419 -150l-133 -225q-142 109 -276 109q-94 0 -147.5 -49t-53.5 -109q0 -59 33 -139h334v-281l-244 -4q27 -60 27 -148q0 -51 -24.5 -112t-59.5 -98h583v-279h-1009v240l25 14q26 15 55 37.5t60.5 55.5
t52 81.5t20.5 103.5q0 62 -31 109h-199z" />
    <glyph glyph-name="yen" unicode="&#xa5;" horiz-adv-x="1398" 
d="M57 1454h353l290 -588l285 588h358l-372 -688h182v-246h-303v-108h303v-246h-303v-166h-311v166h-308v246h308v108h-308v246h189z" />
    <glyph glyph-name="brokenbar" unicode="&#xa6;" horiz-adv-x="612" 
d="M139 -195v748h334v-748h-334zM139 870v754h334v-754h-334z" />
    <glyph glyph-name="section" unicode="&#xa7;" horiz-adv-x="1128" 
d="M100 121l150 209q114 -102 309 -94q58 3 99 28t40 64q0 19 -0.5 29.5t-6.5 19t-10 12t-19.5 6.5t-27 3.5t-41 1.5t-52.5 3q-79 4 -149 25t-126.5 58t-90.5 94.5t-36 128.5q-6 140 86 235q-54 62 -61 178q-6 154 108 258t322 113q232 10 405 -113l-137 -217q-4 4 -12 10.5
t-35 23t-57 28.5t-77.5 21t-96.5 7q-68 -1 -104 -30t-34 -70q1 -32 14 -46t55.5 -22.5t139.5 -13.5q162 -8 268.5 -86t112.5 -225q6 -155 -94 -248q45 -62 51 -166q8 -158 -115 -259t-354 -101q-230 0 -424 135zM399 739q2 -45 44.5 -68t140.5 -20q90 1 134 24t42 66
q0 40 -39 61.5t-131 22.5h-23q-168 -6 -168 -86z" />
    <glyph glyph-name="dieresis" unicode="&#xa8;" horiz-adv-x="798" 
d="M14 1346q0 66 48.5 113.5t111.5 47.5t111.5 -47.5t48.5 -113.5q0 -64 -49 -112t-111 -48t-111 48t-49 112zM467 1346q0 66 48.5 113.5t111.5 47.5q61 0 109 -47.5t48 -113.5q0 -64 -48 -112t-109 -48q-62 0 -111 48t-49 112z" />
    <glyph glyph-name="copyright" unicode="&#xa9;" horiz-adv-x="1761" 
d="M143 725q0 163 57.5 302.5t156.5 235t235.5 149.5t292.5 54q153 0 288 -54t233 -149.5t155 -235t57 -302.5q0 -218 -98 -390t-266 -265t-375 -93q-204 0 -371 91.5t-266 263.5t-99 393zM317 725q0 -173 74.5 -307.5t203.5 -207.5t290 -73q120 0 225.5 43.5t181 120.5
t119 186.5t43.5 237.5q0 106 -29 198t-81.5 161t-123.5 119t-156.5 75t-178.5 25q-158 0 -287 -72.5t-205 -205.5t-76 -300zM553 715q0 165 95.5 267.5t238.5 102.5q56 0 108 -16.5t96 -49t74 -86.5t37 -124h-158q-8 55 -51.5 94t-105.5 39q-72 0 -122 -61t-50 -164
q0 -104 48 -158.5t124 -54.5q61 0 102.5 34t52.5 89h158q-12 -126 -101.5 -198.5t-211.5 -72.5q-143 0 -238.5 98t-95.5 261z" />
    <glyph glyph-name="ordfeminine" unicode="&#xaa;" horiz-adv-x="917" 
d="M102 866v17q0 112 84.5 172.5t214.5 60.5q46 0 87.5 -11t56.5 -22q0 81 -6 93q-16 61 -115 61q-131 0 -203 -61l-90 137q57 49 140 75.5t169 26.5q338 0 338 -287v-479h-184l-14 111q-60 -121 -222 -121q-104 0 -180 64t-76 163zM121 322v190h661v-190h-661zM311 893
q0 -41 29.5 -63.5t83.5 -22.5q44 0 80 25t41 57v84q-38 20 -84 20q-31 0 -63 -8t-59.5 -32t-27.5 -60z" />
    <glyph glyph-name="guillemotleft" unicode="&#xab;" horiz-adv-x="1226" 
d="M96 518v111l254 342l219 -162l-180 -234l180 -239l-209 -164zM588 518v111l254 342l219 -162l-180 -234l180 -239l-209 -164z" />
    <glyph glyph-name="registered" unicode="&#xae;" horiz-adv-x="1761" 
d="M143 725q0 163 57.5 302.5t156.5 235t235.5 149.5t292.5 54q153 0 288 -54t233 -149.5t155 -235t57 -302.5q0 -218 -98 -390t-266 -265t-375 -93q-204 0 -371 91.5t-266 263.5t-99 393zM317 725q0 -173 74.5 -307.5t203.5 -207.5t290 -73q120 0 225.5 43.5t181 120.5
t119 186.5t43.5 237.5q0 106 -29 198t-81.5 161t-123.5 119t-156.5 75t-178.5 25q-158 0 -287 -72.5t-205 -205.5t-76 -300zM659 373v696h273q114 0 174.5 -65t60.5 -156q0 -67 -35 -126.5t-75 -70.5l131 -278h-148l-127 256h-104v-256h-150zM809 772h92q56 0 81.5 16.5
t25.5 59.5q0 47 -25.5 63.5t-87.5 16.5h-86v-156z" />
    <glyph glyph-name="macron" unicode="&#xaf;" horiz-adv-x="806" 
d="M14 1225v215h781v-215h-781z" />
    <glyph glyph-name="degree" unicode="&#xb0;" horiz-adv-x="892" 
d="M82 1112q0 148 110 256.5t252 108.5q91 0 175.5 -48.5t138 -134t53.5 -182.5q0 -146 -113 -255t-254 -109t-251.5 109t-110.5 255zM307 1112q0 -57 41 -98t98 -41q55 0 97.5 41.5t42.5 97.5q0 59 -42.5 100t-97.5 41q-58 0 -98.5 -40.5t-40.5 -100.5z" />
    <glyph glyph-name="plusminus" unicode="&#xb1;" horiz-adv-x="1347" 
d="M201 621v260h334v340h270v-340h336v-260h-336v-279h317v-242h-909v242h322v279h-334z" />
    <glyph glyph-name="acute" unicode="&#xb4;" horiz-adv-x="516" 
d="M14 1346l187 411l301 -186l-244 -225h-244z" />
    <glyph glyph-name="paragraph" unicode="&#xb6;" horiz-adv-x="1429" 
d="M113 975q0 96 32 181.5t92.5 152.5t155.5 106t213 39h338v-1454h-313v496h-27q-117 0 -212 39.5t-155 107t-92 153t-32 179.5zM1104 0v1454h207v-1454h-207z" />
    <glyph glyph-name="periodcentered" unicode="&#xb7;" horiz-adv-x="405" 
d="M35 731q0 74 50 122t120 48t119 -48t49 -122q0 -75 -48.5 -121.5t-119.5 -46.5t-120.5 46.5t-49.5 121.5z" />
    <glyph glyph-name="cedilla" unicode="&#xb8;" horiz-adv-x="841" 
d="M180 -535l41 177q13 -6 56 -11.5t65 -5.5q39 0 63.5 18t24.5 48q0 63 -98 69l-86 4l41 246h147l-12 -86q87 -13 148 -73.5t61 -165.5q0 -112 -76.5 -181t-212.5 -69q-60 0 -162 30z" />
    <glyph glyph-name="ordmasculine" unicode="&#xba;" horiz-adv-x="880" 
d="M102 971v116q0 145 100.5 235.5t235.5 90.5q141 0 241.5 -92.5t100.5 -237.5v-114q0 -146 -98 -236t-244 -90q-142 0 -239 91.5t-97 236.5zM109 322v190h661v-190h-661zM315 971q0 -68 34.5 -105t88.5 -37q56 0 91.5 37t35.5 105v110q0 68 -35.5 108t-91.5 40t-89.5 -38
t-33.5 -104v-116z" />
    <glyph glyph-name="guillemotright" unicode="&#xbb;" horiz-adv-x="1226" 
d="M117 338l180 233l-180 240l209 164l264 -346v-111l-254 -342zM608 338l180 233l-180 240l209 164l264 -346v-111l-254 -342z" />
    <glyph glyph-name="questiondown" unicode="&#xbf;" horiz-adv-x="1165" 
d="M51 285q-1 58 14 110.5t36 89.5t56.5 75.5t62.5 61.5t67 55q16 13 24 19q71 57 98 110t27 126h260q0 -82 -18 -150t-51.5 -118t-67 -83.5t-78.5 -66.5q-78 -55 -108.5 -97t-30.5 -102q0 -74 51 -118.5t133 -44.5q74 0 133 41.5t70 123.5l277 -8q-3 -129 -70 -230
t-176.5 -153.5t-239.5 -52.5q-199 0 -333 118.5t-136 293.5zM418 1210q0 70 40 110t107 40q68 0 110 -40t42 -110q0 -69 -41.5 -109t-110.5 -40q-67 0 -107 39.5t-40 109.5z" />
    <glyph glyph-name="Agrave" unicode="&#xc0;" horiz-adv-x="1443" 
d="M37 0l518 1454h328l524 -1454h-326l-90 262h-534l-88 -262h-332zM342 1769l352 226l185 -432h-291zM541 518h362l-184 535z" />
    <glyph glyph-name="Aacute" unicode="&#xc1;" horiz-adv-x="1443" 
d="M37 0l518 1454h328l524 -1454h-326l-90 262h-534l-88 -262h-332zM541 518h362l-184 535zM578 1563l186 411l301 -186l-244 -225h-243z" />
    <glyph glyph-name="Acircumflex" unicode="&#xc2;" horiz-adv-x="1443" 
d="M37 0l518 1454h328l524 -1454h-326l-90 262h-534l-88 -262h-332zM367 1683l221 224h264l223 -211l-127 -160l-225 121l-231 -123zM541 518h362l-184 535z" />
    <glyph glyph-name="Atilde" unicode="&#xc3;" horiz-adv-x="1443" 
d="M37 0l518 1454h328l524 -1454h-326l-90 262h-534l-88 -262h-332zM281 1616q6 104 77 185.5t179 88.5q58 3 111 -9t85.5 -28.5t73 -32t74.5 -16.5q96 -5 127 99l157 -56q-5 -93 -77 -180t-175 -94q-55 -4 -101 7.5t-73.5 28.5t-70.5 32.5t-90 17.5q-110 3 -162 -90
q1 0 -33 11.5t-68 23.5zM541 518h362l-184 535z" />
    <glyph glyph-name="Adieresis" unicode="&#xc4;" horiz-adv-x="1443" 
d="M37 0l518 1454h328l524 -1454h-326l-90 262h-534l-88 -262h-332zM336 1726q0 66 48.5 114t111.5 48t111 -48t48 -114q0 -64 -48.5 -111.5t-110.5 -47.5t-111 47.5t-49 111.5zM541 518h362l-184 535zM788 1726q0 66 48.5 114t111.5 48q61 0 109.5 -48t48.5 -114
q0 -64 -48.5 -111.5t-109.5 -47.5q-62 0 -111 47.5t-49 111.5z" />
    <glyph glyph-name="Aring" unicode="&#xc5;" horiz-adv-x="1443" 
d="M37 0l518 1454h328l524 -1454h-326l-90 262h-534l-88 -262h-332zM461 1780q0 106 79.5 185t180.5 79q100 0 181 -79.5t81 -184.5q0 -103 -81 -180.5t-181 -77.5q-102 0 -181 77.5t-79 180.5zM541 518h362l-184 535zM627 1784q0 -38 28.5 -66t65.5 -28q38 0 65 28t27 66
q0 37 -27 65.5t-65 28.5q-37 0 -65.5 -28.5t-28.5 -65.5z" />
    <glyph glyph-name="AE" unicode="&#xc6;" horiz-adv-x="2017" 
d="M-10 0l755 1454h1168v-283h-670v-299h526v-282h-526v-307h670v-283h-981v289h-443l-153 -289h-346zM625 557h307v576z" />
    <glyph glyph-name="Ccedilla" unicode="&#xc7;" horiz-adv-x="1466" 
d="M78 723q0 186 55.5 333t149.5 238t213 138t252 47q259 0 433 -144t203 -389h-315q-18 113 -107 180.5t-210 67.5q-53 0 -101.5 -14t-96.5 -48t-83 -86t-56.5 -135t-21.5 -188q0 -99 22 -179t57.5 -132t83.5 -87t97.5 -50t102.5 -15q123 0 210.5 72t104.5 182h318
q-13 -128 -67 -229.5t-135.5 -165t-179.5 -98.5t-208 -41l-8 -64q87 -13 147.5 -74t60.5 -166q0 -112 -76 -180.5t-212 -68.5q-59 0 -162 30l41 176q13 -6 55.5 -11t65.5 -5q39 0 63.5 18t24.5 48q0 63 -99 69l-86 4l39 228q-89 13 -170.5 46.5t-156 95t-129 143.5t-87 199
t-32.5 255z" />
    <glyph glyph-name="Egrave" unicode="&#xc8;" 
d="M143 0v1454h990v-280h-678v-306h520v-272h-520v-315h684v-281h-996zM254 1769l352 226l185 -432h-291z" />
    <glyph glyph-name="Eacute" unicode="&#xc9;" 
d="M143 0v1454h990v-280h-678v-306h520v-272h-520v-315h684v-281h-996zM492 1563l186 411l301 -186l-244 -225h-243z" />
    <glyph glyph-name="Ecircumflex" unicode="&#xca;" 
d="M143 0v1454h990v-280h-678v-306h520v-272h-520v-315h684v-281h-996zM281 1683l221 224h264l223 -211l-127 -160l-225 121l-231 -123z" />
    <glyph glyph-name="Edieresis" unicode="&#xcb;" 
d="M143 0v1454h990v-280h-678v-306h520v-272h-520v-315h684v-281h-996zM250 1726q0 66 48.5 114t111.5 48t111 -48t48 -114q0 -64 -48.5 -111.5t-110.5 -47.5t-111 47.5t-49 111.5zM702 1726q0 66 48.5 114t111.5 48q61 0 109.5 -48t48.5 -114q0 -64 -48.5 -111.5
t-109.5 -47.5q-62 0 -111 47.5t-49 111.5z" />
    <glyph glyph-name="Igrave" unicode="&#xcc;" horiz-adv-x="614" 
d="M-16 1780l305 182l172 -389h-250zM143 0v1454h312v-1454h-312z" />
    <glyph glyph-name="Iacute" unicode="&#xcd;" horiz-adv-x="614" 
d="M143 0v1454h312v-1454h-312zM158 1559l172 389l305 -183l-227 -206h-250z" />
    <glyph glyph-name="Icircumflex" unicode="&#xce;" horiz-adv-x="614" 
d="M4 1690l170 213h264l172 -211l-157 -152l-148 111l-139 -111zM143 0v1454h312v-1454h-312z" />
    <glyph glyph-name="Idieresis" unicode="&#xcf;" horiz-adv-x="614" 
d="M-20 1720q0 76 38 117t107 41q67 0 104 -41t37 -117q0 -77 -37 -119t-104 -42q-69 0 -107 41.5t-38 119.5zM143 -2v1454h312v-1454h-312zM352 1720q0 76 38 117t106 41t105.5 -41t37.5 -117q0 -78 -37.5 -119.5t-105.5 -41.5t-106 42t-38 119z" />
    <glyph glyph-name="Eth" unicode="&#xd0;" horiz-adv-x="1449" 
d="M33 592v264h160v598h483q154 0 283.5 -47.5t224 -136.5t147.5 -226t53 -309q0 -188 -51.5 -330t-147 -230t-223 -131.5t-286.5 -43.5h-483v592h-160zM504 291h172q189 0 294 108.5t105 335.5q0 218 -108 323t-291 105h-172v-307h237v-264h-237v-301z" />
    <glyph glyph-name="Ntilde" unicode="&#xd1;" horiz-adv-x="1474" 
d="M143 0v1454h324l553 -895v895h313v-1454h-325l-553 862v-862h-312zM289 1597q6 104 77 186t179 89q58 3 111 -9t85.5 -28.5t73 -32t74.5 -16.5q97 -5 127 98l158 -55q-5 -93 -77 -180.5t-175 -94.5q-55 -4 -101 7.5t-74 28.5t-71 32.5t-90 17.5q-110 3 -162 -90
q1 0 -33 12l-68 24z" />
    <glyph glyph-name="Ograve" unicode="&#xd2;" horiz-adv-x="1482" 
d="M78 733q0 180 52 324t143 235t210.5 139t257.5 48q137 0 256.5 -48.5t211 -140t144 -235.5t52.5 -322q0 -182 -52.5 -327t-144 -237t-211 -140.5t-256.5 -48.5q-138 0 -257 48t-210 139.5t-143.5 237t-52.5 328.5zM362 1769l353 226l184 -432h-291zM391 733
q0 -100 19.5 -180.5t52.5 -134t78 -89.5t95 -51.5t105 -15.5q53 0 102.5 16t95 52t79.5 89t54 134t20 180q0 98 -20.5 177.5t-54.5 131.5t-80 87t-95 50t-101 15q-53 0 -102 -15t-94.5 -50t-79.5 -87t-54 -131.5t-20 -177.5z" />
    <glyph glyph-name="Oacute" unicode="&#xd3;" horiz-adv-x="1482" 
d="M78 733q0 180 52 324t143 235t210.5 139t257.5 48q137 0 256.5 -48.5t211 -140t144 -235.5t52.5 -322q0 -182 -52.5 -327t-144 -237t-211 -140.5t-256.5 -48.5q-138 0 -257 48t-210 139.5t-143.5 237t-52.5 328.5zM391 733q0 -100 19.5 -180.5t52.5 -134t78 -89.5
t95 -51.5t105 -15.5q53 0 102.5 16t95 52t79.5 89t54 134t20 180q0 98 -20.5 177.5t-54.5 131.5t-80 87t-95 50t-101 15q-53 0 -102 -15t-94.5 -50t-79.5 -87t-54 -131.5t-20 -177.5zM600 1563l186 411l301 -186l-243 -225h-244z" />
    <glyph glyph-name="Ocircumflex" unicode="&#xd4;" horiz-adv-x="1482" 
d="M78 733q0 180 52 324t143 235t210.5 139t257.5 48q137 0 256.5 -48.5t211 -140t144 -235.5t52.5 -322q0 -182 -52.5 -327t-144 -237t-211 -140.5t-256.5 -48.5q-138 0 -257 48t-210 139.5t-143.5 237t-52.5 328.5zM389 1683l221 224h264l224 -211l-127 -160l-226 121
l-231 -123zM391 733q0 -100 19.5 -180.5t52.5 -134t78 -89.5t95 -51.5t105 -15.5q53 0 102.5 16t95 52t79.5 89t54 134t20 180q0 98 -20.5 177.5t-54.5 131.5t-80 87t-95 50t-101 15q-53 0 -102 -15t-94.5 -50t-79.5 -87t-54 -131.5t-20 -177.5z" />
    <glyph glyph-name="Otilde" unicode="&#xd5;" horiz-adv-x="1482" 
d="M78 733q0 180 52 324t143 235t210.5 139t257.5 48q137 0 256.5 -48.5t211 -140t144 -235.5t52.5 -322q0 -182 -52.5 -327t-144 -237t-211 -140.5t-256.5 -48.5q-138 0 -257 48t-210 139.5t-143.5 237t-52.5 328.5zM301 1616q6 104 77 185.5t179 88.5q58 3 111 -9
t85.5 -28.5t73 -32t74.5 -16.5q96 -5 127 99l158 -56q-5 -93 -77 -180t-175 -94q-55 -4 -101 7.5t-74 28.5t-71 32.5t-90 17.5q-110 3 -162 -90q1 0 -33 11.5t-68 23.5zM391 733q0 -100 19.5 -180.5t52.5 -134t78 -89.5t95 -51.5t105 -15.5q53 0 102.5 16t95 52t79.5 89
t54 134t20 180q0 98 -20.5 177.5t-54.5 131.5t-80 87t-95 50t-101 15q-53 0 -102 -15t-94.5 -50t-79.5 -87t-54 -131.5t-20 -177.5z" />
    <glyph glyph-name="Odieresis" unicode="&#xd6;" horiz-adv-x="1482" 
d="M78 733q0 180 52 324t143 235t210.5 139t257.5 48q137 0 256.5 -48.5t211 -140t144 -235.5t52.5 -322q0 -182 -52.5 -327t-144 -237t-211 -140.5t-256.5 -48.5q-138 0 -257 48t-210 139.5t-143.5 237t-52.5 328.5zM358 1726q0 66 48.5 114t111.5 48t111.5 -48t48.5 -114
q0 -64 -49 -111.5t-111 -47.5t-111 47.5t-49 111.5zM391 733q0 -100 19.5 -180.5t52.5 -134t78 -89.5t95 -51.5t105 -15.5q53 0 102.5 16t95 52t79.5 89t54 134t20 180q0 98 -20.5 177.5t-54.5 131.5t-80 87t-95 50t-101 15q-53 0 -102 -15t-94.5 -50t-79.5 -87t-54 -131.5
t-20 -177.5zM811 1726q0 66 48.5 114t111.5 48q61 0 109 -48t48 -114q0 -64 -48 -111.5t-109 -47.5q-62 0 -111 47.5t-49 111.5z" />
    <glyph glyph-name="multiply" unicode="&#xd7;" horiz-adv-x="1280" 
d="M154 395l299 299l-291 291l182 184l291 -292l297 297l192 -193l-295 -297l293 -293l-184 -184l-293 293l-299 -297z" />
    <glyph glyph-name="Oslash" unicode="&#xd8;" horiz-adv-x="1482" 
d="M78 733q0 180 52 324t143 235t210.5 139t257.5 48q192 0 351 -95l82 113l161 -117l-92 -129q162 -199 162 -518q0 -182 -52.5 -327t-144 -237t-211 -140.5t-256.5 -48.5q-200 0 -352 94l-86 -119l-164 117l99 137q-160 201 -160 524zM391 733q0 -148 43 -256l484 666
q-80 51 -177 51q-53 0 -102 -15t-94.5 -50t-79.5 -87t-54 -131.5t-20 -177.5zM563 313q77 -51 178 -51q53 0 102.5 16t95 52t79.5 89t54 134t20 180q0 148 -45 250z" />
    <glyph glyph-name="Ugrave" unicode="&#xd9;" horiz-adv-x="1390" 
d="M106 604v850h312v-848q0 -167 79 -248.5t199 -81.5q116 0 196.5 83t80.5 247v848h311v-850q0 -124 -30.5 -227t-84 -176t-127.5 -123t-161 -74t-185 -24q-124 0 -230 38.5t-187 113.5t-127 196t-46 276zM313 1751l353 225l184 -432h-291z" />
    <glyph glyph-name="Uacute" unicode="&#xda;" horiz-adv-x="1390" 
d="M106 604v850h312v-848q0 -167 79 -248.5t199 -81.5q116 0 196.5 83t80.5 247v848h311v-850q0 -124 -30.5 -227t-84 -176t-127.5 -123t-161 -74t-185 -24q-124 0 -230 38.5t-187 113.5t-127 196t-46 276zM549 1544l186 412l301 -187l-243 -225h-244z" />
    <glyph glyph-name="Ucircumflex" unicode="&#xdb;" horiz-adv-x="1390" 
d="M106 604v850h312v-848q0 -167 79 -248.5t199 -81.5q116 0 196.5 83t80.5 247v848h311v-850q0 -124 -30.5 -227t-84 -176t-127.5 -123t-161 -74t-185 -24q-124 0 -230 38.5t-187 113.5t-127 196t-46 276zM340 1665l221 223h264l224 -211l-127 -159l-226 120l-231 -122z
" />
    <glyph glyph-name="Udieresis" unicode="&#xdc;" horiz-adv-x="1390" 
d="M106 604v850h312v-848q0 -167 79 -248.5t199 -81.5q116 0 196.5 83t80.5 247v848h311v-850q0 -124 -30.5 -227t-84 -176t-127.5 -123t-161 -74t-185 -24q-124 0 -230 38.5t-187 113.5t-127 196t-46 276zM309 1708q0 66 48.5 114t111.5 48t111.5 -48t48.5 -114
q0 -64 -49 -112t-111 -48t-111 48t-49 112zM762 1708q0 66 48.5 114t111.5 48q61 0 109 -48t48 -114q0 -64 -48 -112t-109 -48q-62 0 -111 48t-49 112z" />
    <glyph glyph-name="Yacute" unicode="&#xdd;" horiz-adv-x="1359" 
d="M37 1454h352l291 -588l285 588h358l-494 -911v-543h-311v543zM539 1554l186 412l301 -186l-244 -226h-243z" />
    <glyph glyph-name="Thorn" unicode="&#xde;" horiz-adv-x="1292" 
d="M143 0v1454h320v-242h184q254 0 405.5 -137t151.5 -358q0 -228 -151 -363t-410 -135h-182v-219h-318zM463 500h194q99 0 161 59.5t63 157.5q0 100 -62 161.5t-162 61.5h-194v-440z" />
    <glyph glyph-name="germandbls" unicode="&#xdf;" horiz-adv-x="1273" 
d="M129 0v942q0 165 71.5 286.5t188 181.5t260.5 60q174 0 308.5 -91t164.5 -214l-198 -317q117 -32 191.5 -132t74.5 -243q0 -208 -135.5 -345.5t-358.5 -137.5q-62 0 -112 10v276q21 -6 78 -6q96 0 150 59.5t54 135.5q0 188 -241 190h-21v66l182 387q-33 84 -161 84
q-78 0 -134.5 -63t-56.5 -185v-944h-305z" />
    <glyph glyph-name="agrave" unicode="&#xe0;" horiz-adv-x="1124" 
d="M74 319q0 69 28.5 131.5t83.5 112.5t144 79.5t200 29.5q46 0 106.5 -10t88.5 -19v35q0 190 -203 190q-119 0 -196 -77l-191 145q59 81 164 129.5t246 48.5t247.5 -49.5t170 -158t63.5 -265.5v-641h-246l-22 125q-10 -17 -30.5 -37.5t-56 -45.5t-93 -41.5t-123.5 -16.5
q-163 0 -272 97.5t-109 237.5zM211 1438l352 225l185 -432h-291zM371 338q0 -59 41 -90t114 -31q70 0 129.5 44t67.5 95v99q-50 12 -164 12q-91 -1 -139.5 -36.5t-48.5 -92.5z" />
    <glyph glyph-name="aacute" unicode="&#xe1;" horiz-adv-x="1124" 
d="M74 319q0 69 28.5 131.5t83.5 112.5t144 79.5t200 29.5q46 0 106.5 -10t88.5 -19v35q0 190 -203 190q-119 0 -196 -77l-191 145q59 81 164 129.5t246 48.5t247.5 -49.5t170 -158t63.5 -265.5v-641h-246l-22 125q-10 -17 -30.5 -37.5t-56 -45.5t-93 -41.5t-123.5 -16.5
q-163 0 -272 97.5t-109 237.5zM371 338q0 -59 41 -90t114 -31q70 0 129.5 44t67.5 95v99q-50 12 -164 12q-91 -1 -139.5 -36.5t-48.5 -92.5zM385 1225l186 411l301 -186l-243 -225h-244z" />
    <glyph glyph-name="acircumflex" unicode="&#xe2;" horiz-adv-x="1124" 
d="M74 319q0 69 28.5 131.5t83.5 112.5t144 79.5t200 29.5q46 0 106.5 -10t88.5 -19v35q0 190 -203 190q-119 0 -196 -77l-191 145q59 81 164 129.5t246 48.5t247.5 -49.5t170 -158t63.5 -265.5v-641h-246l-22 125q-10 -17 -30.5 -37.5t-56 -45.5t-93 -41.5t-123.5 -16.5
q-163 0 -272 97.5t-109 237.5zM205 1362l221 223h264l223 -211l-127 -160l-225 121l-231 -123zM371 338q0 -59 41 -90t114 -31q70 0 129.5 44t67.5 95v99q-50 12 -164 12q-91 -1 -139.5 -36.5t-48.5 -92.5z" />
    <glyph glyph-name="atilde" unicode="&#xe3;" horiz-adv-x="1124" 
d="M74 319q0 69 28.5 131.5t83.5 112.5t144 79.5t200 29.5q46 0 106.5 -10t88.5 -19v35q0 190 -203 190q-119 0 -196 -77l-191 145q59 81 164 129.5t246 48.5t247.5 -49.5t170 -158t63.5 -265.5v-641h-246l-22 125q-10 -17 -30.5 -37.5t-56 -45.5t-93 -41.5t-123.5 -16.5
q-163 0 -272 97.5t-109 237.5zM119 1305q6 104 77 185.5t179 88.5q58 3 111 -9t85.5 -28.5t73 -32t74.5 -16.5q97 -5 127 98l158 -55q-5 -93 -77 -180t-175 -94q-55 -4 -101 7.5t-74 28.5t-71 32.5t-90 17.5q-109 3 -162 -91q1 0 -33 12l-68 24zM371 338q0 -59 41 -90
t114 -31q70 0 129.5 44t67.5 95v99q-50 12 -164 12q-91 -1 -139.5 -36.5t-48.5 -92.5z" />
    <glyph glyph-name="adieresis" unicode="&#xe4;" horiz-adv-x="1124" 
d="M74 319q0 69 28.5 131.5t83.5 112.5t144 79.5t200 29.5q46 0 106.5 -10t88.5 -19v35q0 190 -203 190q-119 0 -196 -77l-191 145q59 81 164 129.5t246 48.5t247.5 -49.5t170 -158t63.5 -265.5v-641h-246l-22 125q-10 -17 -30.5 -37.5t-56 -45.5t-93 -41.5t-123.5 -16.5
q-163 0 -272 97.5t-109 237.5zM176 1413q0 66 48.5 114t111.5 48t111.5 -48t48.5 -114q0 -64 -49 -112t-111 -48t-111 48t-49 112zM371 338q0 -59 41 -90t114 -31q70 0 129.5 44t67.5 95v99q-50 12 -164 12q-91 -1 -139.5 -36.5t-48.5 -92.5zM629 1413q0 66 48 114t111 48
q61 0 109.5 -48t48.5 -114q0 -64 -48.5 -112t-109.5 -48q-62 0 -110.5 48t-48.5 112z" />
    <glyph glyph-name="aring" unicode="&#xe5;" horiz-adv-x="1124" 
d="M74 319q0 69 28.5 131.5t83.5 112.5t144 79.5t200 29.5q46 0 106.5 -10t88.5 -19v35q0 190 -203 190q-119 0 -196 -77l-191 145q59 81 164 129.5t246 48.5t247.5 -49.5t170 -158t63.5 -265.5v-641h-246l-22 125q-10 -17 -30.5 -37.5t-56 -45.5t-93 -41.5t-123.5 -16.5
q-163 0 -272 97.5t-109 237.5zM299 1448q0 106 79.5 185t180.5 79q100 0 181 -79.5t81 -184.5q0 -103 -81 -180.5t-181 -77.5q-102 0 -181 77.5t-79 180.5zM371 338q0 -59 41 -90t114 -31q70 0 129.5 44t67.5 95v99q-50 12 -164 12q-91 -1 -139.5 -36.5t-48.5 -92.5z
M465 1452q0 -38 28.5 -66t65.5 -28q38 0 65 28t27 66q0 37 -27 65.5t-65 28.5q-37 0 -65.5 -28.5t-28.5 -65.5z" />
    <glyph glyph-name="ae" unicode="&#xe6;" horiz-adv-x="1730" 
d="M20 319q0 69 29 131.5t84 112.5t144 79.5t200 29.5q46 0 106.5 -10t88.5 -19v35q0 190 -203 190q-59 0 -111 -21.5t-86 -55.5l-190 145q59 81 164 129.5t246 48.5q243 0 360 -137q143 137 350 137q105 0 195.5 -32.5t161 -97t111 -169.5t40.5 -240v-120h-731
q6 -108 81.5 -168t182.5 -60q87 0 164 28t125 73l141 -203q-148 -145 -444 -145q-242 0 -391 149q-135 -145 -396 -145q-189 0 -305.5 96.5t-116.5 238.5zM313 338q0 -59 43 -90t117 -31q77 0 137 55.5t60 145.5v37q-50 12 -164 12q-92 -1 -142.5 -36.5t-50.5 -92.5z
M979 655h440q0 105 -61 161t-158 56q-90 0 -152.5 -58.5t-68.5 -158.5z" />
    <glyph glyph-name="ccedilla" unicode="&#xe7;" horiz-adv-x="1185" 
d="M80 541q0 135 44 246t118 181t167 108t195 38q91 0 173.5 -25t152 -73.5t117.5 -129.5t63 -184h-299q-42 152 -197 152q-42 0 -81 -17t-73.5 -52t-55.5 -98t-21 -146q0 -150 71 -225.5t160 -75.5q74 0 125 36t70 99h301q-26 -172 -146.5 -276.5t-304.5 -118.5l-8 -62
q87 -13 148 -74t61 -166q0 -112 -76.5 -180.5t-212.5 -68.5q-59 0 -161 30l41 176q13 -6 55 -11t65 -5q39 0 63.5 18t24.5 48q0 63 -98 69l-86 4l37 228q-90 15 -167.5 58.5t-137 111.5t-93.5 167.5t-34 217.5z" />
    <glyph glyph-name="egrave" unicode="&#xe8;" horiz-adv-x="1183" 
d="M82 541q0 136 42 247t114 181t163.5 107.5t194.5 37.5q105 0 195.5 -32.5t161 -97t111 -169.5t40.5 -240v-120h-731q6 -108 81.5 -168t182.5 -60q87 0 164 28t125 73l141 -203q-148 -145 -444 -145q-110 0 -206 34.5t-171.5 101.5t-119.5 176.5t-44 248.5zM246 1438
l352 225l184 -432h-290zM373 655h440q0 105 -61 161t-158 56q-90 0 -152.5 -58.5t-68.5 -158.5z" />
    <glyph glyph-name="eacute" unicode="&#xe9;" horiz-adv-x="1183" 
d="M82 541q0 136 42 247t114 181t163.5 107.5t194.5 37.5q105 0 195.5 -32.5t161 -97t111 -169.5t40.5 -240v-120h-731q6 -108 81.5 -168t182.5 -60q87 0 164 28t125 73l141 -203q-148 -145 -444 -145q-110 0 -206 34.5t-171.5 101.5t-119.5 176.5t-44 248.5zM373 655h440
q0 105 -61 161t-158 56q-90 0 -152.5 -58.5t-68.5 -158.5zM420 1227l186 411l301 -186l-243 -225h-244z" />
    <glyph glyph-name="ecircumflex" unicode="&#xea;" horiz-adv-x="1183" 
d="M82 541q0 136 42 247t114 181t163.5 107.5t194.5 37.5q105 0 195.5 -32.5t161 -97t111 -169.5t40.5 -240v-120h-731q6 -108 81.5 -168t182.5 -60q87 0 164 28t125 73l141 -203q-148 -145 -444 -145q-110 0 -206 34.5t-171.5 101.5t-119.5 176.5t-44 248.5zM242 1364
l221 223h264l223 -211l-127 -159l-225 120l-231 -123zM373 655h440q0 105 -61 161t-158 56q-90 0 -152.5 -58.5t-68.5 -158.5z" />
    <glyph glyph-name="edieresis" unicode="&#xeb;" horiz-adv-x="1183" 
d="M82 541q0 136 42 247t114 181t163.5 107.5t194.5 37.5q105 0 195.5 -32.5t161 -97t111 -169.5t40.5 -240v-120h-731q6 -108 81.5 -168t182.5 -60q87 0 164 28t125 73l141 -203q-148 -145 -444 -145q-110 0 -206 34.5t-171.5 101.5t-119.5 176.5t-44 248.5zM211 1413
q0 66 48.5 114t111.5 48t111 -48t48 -114q0 -64 -48.5 -112t-110.5 -48t-111 48t-49 112zM373 655h440q0 105 -61 161t-158 56q-90 0 -152.5 -58.5t-68.5 -158.5zM664 1413q0 66 48 114t111 48q61 0 109.5 -48t48.5 -114q0 -64 -48.5 -112t-109.5 -48q-62 0 -110.5 48
t-48.5 112z" />
    <glyph glyph-name="igrave" unicode="&#xec;" horiz-adv-x="575" 
d="M39 1450l301 154l90 -385h-262zM141 0v1094h301v-1094h-301z" />
    <glyph glyph-name="iacute" unicode="&#xed;" horiz-adv-x="577" 
d="M141 0v1094h301v-1094h-301zM158 1227l100 405l301 -157l-156 -248h-245z" />
    <glyph glyph-name="icircumflex" unicode="&#xee;" horiz-adv-x="583" 
d="M-16 1378l174 217h264l176 -215l-156 -149l-153 110l-146 -112zM141 0v1094h301v-1094h-301z" />
    <glyph glyph-name="idieresis" unicode="&#xef;" horiz-adv-x="657" 
d="M2 1391q0 147 141 147q146 0 146 -147q0 -150 -146 -150q-141 0 -141 150zM172 0v1094h301v-1094h-301zM369 1391q0 147 145 147q141 0 141 -147q0 -152 -141 -152q-69 0 -107 38t-38 114z" />
    <glyph glyph-name="eth" unicode="&#xf0;" horiz-adv-x="1243" 
d="M78 547q0 130 45 239t119.5 178.5t168.5 107.5t195 38q94 0 152 -35q-16 58 -68 160l-241 -61l-43 133l200 69q-52 81 -98 142l268 137q56 -85 111 -180l186 65l68 -190l-166 -43q171 -355 174 -703q1 -125 -27.5 -228t-78 -174.5t-118.5 -120.5t-148 -72t-167 -23
q-104 0 -198 35.5t-169.5 103t-120 176.5t-44.5 246zM385 543q0 -80 21 -140t56 -91.5t72.5 -46.5t77.5 -15q38 0 75.5 15.5t72.5 47t56.5 90.5t21.5 136q0 154 -61.5 230.5t-164.5 76.5q-97 0 -162 -78.5t-65 -224.5z" />
    <glyph glyph-name="ntilde" unicode="&#xf1;" horiz-adv-x="1226" 
d="M129 0v1094h240l37 -113q33 57 124.5 99t188.5 42q83 0 153 -25.5t127 -77.5t89 -141t32 -206v-672h-315v655q0 98 -49 152.5t-129 54.5t-131.5 -56t-51.5 -151v-655h-315zM184 1313q6 104 77 185.5t179 88.5q58 3 111 -9t85.5 -28.5t73 -32t74.5 -16.5q97 -5 127 98
l158 -55q-5 -93 -77 -180t-175 -94q-55 -4 -101 7.5t-74 28.5t-71 32.5t-90 17.5q-110 3 -162 -90q1 0 -33 12l-68 24z" />
    <glyph glyph-name="ograve" unicode="&#xf2;" horiz-adv-x="1228" 
d="M78 547q0 117 32.5 214t86 161.5t124 108.5t143.5 63.5t148 19.5q78 0 153 -20t145.5 -64t123.5 -108.5t85 -161t32 -213.5q0 -114 -32.5 -209.5t-86 -160.5t-124 -110.5t-145.5 -66t-151 -20.5q-75 0 -149 20.5t-144 66t-123.5 110.5t-85.5 160.5t-32 209.5zM264 1440
l352 225l185 -432h-291zM381 547q0 -144 70 -221.5t161 -77.5q41 0 81 18t75.5 52.5t57.5 94t22 134.5q0 79 -21 140t-56.5 95t-75.5 51t-83 17q-44 0 -83.5 -16.5t-73.5 -50.5t-54 -95t-20 -141z" />
    <glyph glyph-name="oacute" unicode="&#xf3;" horiz-adv-x="1228" 
d="M78 547q0 117 32.5 214t86 161.5t124 108.5t143.5 63.5t148 19.5q78 0 153 -20t145.5 -64t123.5 -108.5t85 -161t32 -213.5q0 -114 -32.5 -209.5t-86 -160.5t-124 -110.5t-145.5 -66t-151 -20.5q-75 0 -149 20.5t-144 66t-123.5 110.5t-85.5 160.5t-32 209.5zM381 547
q0 -144 70 -221.5t161 -77.5q41 0 81 18t75.5 52.5t57.5 94t22 134.5q0 79 -21 140t-56.5 95t-75.5 51t-83 17q-44 0 -83.5 -16.5t-73.5 -50.5t-54 -95t-20 -141zM438 1229l187 411l301 -186l-244 -225h-244z" />
    <glyph glyph-name="ocircumflex" unicode="&#xf4;" horiz-adv-x="1228" 
d="M78 547q0 117 32.5 214t86 161.5t124 108.5t143.5 63.5t148 19.5q78 0 153 -20t145.5 -64t123.5 -108.5t85 -161t32 -213.5q0 -114 -32.5 -209.5t-86 -160.5t-124 -110.5t-145.5 -66t-151 -20.5q-75 0 -149 20.5t-144 66t-123.5 110.5t-85.5 160.5t-32 209.5zM258 1366
l221 223h264l224 -211l-127 -159l-226 120l-231 -122zM381 547q0 -144 70 -221.5t161 -77.5q41 0 81 18t75.5 52.5t57.5 94t22 134.5q0 79 -21 140t-56.5 95t-75.5 51t-83 17q-44 0 -83.5 -16.5t-73.5 -50.5t-54 -95t-20 -141z" />
    <glyph glyph-name="otilde" unicode="&#xf5;" horiz-adv-x="1228" 
d="M78 547q0 117 32.5 214t86 161.5t124 108.5t143.5 63.5t148 19.5q78 0 153 -20t145.5 -64t123.5 -108.5t85 -161t32 -213.5q0 -114 -32.5 -209.5t-86 -160.5t-124 -110.5t-145.5 -66t-151 -20.5q-75 0 -149 20.5t-144 66t-123.5 110.5t-85.5 160.5t-32 209.5zM172 1307
q6 104 77 185.5t179 88.5q58 3 111 -9t85.5 -28.5t73 -32t74.5 -16.5q97 -5 127 98l158 -55q-5 -93 -77 -180t-175 -94q-55 -4 -101 7.5t-74 28.5t-71 32.5t-90 17.5q-110 3 -162 -90q1 0 -33 12l-68 24zM381 547q0 -144 70 -221.5t161 -77.5q41 0 81 18t75.5 52.5t57.5 94
t22 134.5q0 79 -21 140t-56.5 95t-75.5 51t-83 17q-44 0 -83.5 -16.5t-73.5 -50.5t-54 -95t-20 -141z" />
    <glyph glyph-name="odieresis" unicode="&#xf6;" horiz-adv-x="1228" 
d="M78 547q0 117 32.5 214t86 161.5t124 108.5t143.5 63.5t148 19.5q78 0 153 -20t145.5 -64t123.5 -108.5t85 -161t32 -213.5q0 -114 -32.5 -209.5t-86 -160.5t-124 -110.5t-145.5 -66t-151 -20.5q-75 0 -149 20.5t-144 66t-123.5 110.5t-85.5 160.5t-32 209.5zM229 1415
q0 66 48.5 114t111.5 48t111.5 -48t48.5 -114q0 -64 -49 -112t-111 -48t-111 48t-49 112zM381 547q0 -144 70 -221.5t161 -77.5q41 0 81 18t75.5 52.5t57.5 94t22 134.5q0 79 -21 140t-56.5 95t-75.5 51t-83 17q-44 0 -83.5 -16.5t-73.5 -50.5t-54 -95t-20 -141zM682 1415
q0 66 48.5 114t111.5 48q61 0 109 -48t48 -114q0 -64 -48 -112t-109 -48q-62 0 -111 48t-49 112z" />
    <glyph glyph-name="divide" unicode="&#xf7;" horiz-adv-x="1329" 
d="M160 588v225h1011v-225h-1011zM516 330q0 64 40 103.5t101 39.5q60 0 102 -40t42 -103q0 -62 -42 -103t-102 -41t-100.5 40.5t-40.5 103.5zM516 1065q0 63 40 102t101 39q60 0 102 -39t42 -102t-42 -103t-102 -40q-61 0 -101 39.5t-40 103.5z" />
    <glyph glyph-name="oslash" unicode="&#xf8;" horiz-adv-x="1257" 
d="M92 547q0 117 33 214t86.5 161.5t124 108.5t143.5 63.5t148 19.5q158 0 288 -78l97 121l123 -90l-103 -129q133 -150 133 -391q0 -114 -32 -209.5t-85.5 -160.5t-124 -110.5t-145.5 -66t-151 -20.5q-158 0 -289 83l-94 -120l-123 90l102 129q-131 151 -131 385zM395 547
q0 -75 23 -139l323 409q-50 33 -114 33q-95 0 -163.5 -74.5t-68.5 -228.5zM514 283q53 -35 113 -35q41 0 81 18t75 52.5t57 94t22 134.5q0 85 -24 147z" />
    <glyph glyph-name="ugrave" unicode="&#xf9;" 
d="M109 453v641h337v-641q0 -107 48 -162t124 -55q77 0 125 56t48 161v641h329v-1094h-256l-35 125q-33 -66 -117.5 -109t-172.5 -43q-64 0 -123 15.5t-115.5 51.5t-98.5 90t-67.5 137t-25.5 186zM268 1436l353 225l184 -432h-291z" />
    <glyph glyph-name="uacute" unicode="&#xfa;" 
d="M109 453v641h337v-641q0 -107 48 -162t124 -55q77 0 125 56t48 161v641h329v-1094h-256l-35 125q-33 -66 -117.5 -109t-172.5 -43q-64 0 -123 15.5t-115.5 51.5t-98.5 90t-67.5 137t-25.5 186zM442 1223l187 411l301 -186l-244 -225h-244z" />
    <glyph glyph-name="ucircumflex" unicode="&#xfb;" 
d="M109 453v641h337v-641q0 -107 48 -162t124 -55q77 0 125 56t48 161v641h329v-1094h-256l-35 125q-33 -66 -117.5 -109t-172.5 -43q-64 0 -123 15.5t-115.5 51.5t-98.5 90t-67.5 137t-25.5 186zM264 1360l221 223h265l223 -211l-127 -160l-225 121l-232 -123z" />
    <glyph glyph-name="udieresis" unicode="&#xfc;" 
d="M109 453v641h337v-641q0 -107 48 -162t124 -55q77 0 125 56t48 161v641h329v-1094h-256l-35 125q-33 -66 -117.5 -109t-172.5 -43q-64 0 -123 15.5t-115.5 51.5t-98.5 90t-67.5 137t-25.5 186zM233 1411q0 66 48.5 114t111.5 48t111.5 -48t48.5 -114q0 -64 -49 -112
t-111 -48t-111 48t-49 112zM686 1411q0 66 48.5 114t111.5 48q61 0 109.5 -48t48.5 -114q0 -64 -48.5 -112t-109.5 -48q-62 0 -111 48t-49 112z" />
    <glyph glyph-name="yacute" unicode="&#xfd;" horiz-adv-x="1171" 
d="M39 1094h338l209 -721l209 721h340l-547 -1493h-309l163 395l-2 4zM412 1225l186 411l301 -186l-244 -225h-243z" />
    <glyph glyph-name="thorn" unicode="&#xfe;" horiz-adv-x="1259" 
d="M129 -422v1987h320v-598q96 143 292 143q63 0 124.5 -19.5t119 -64t101 -108t70 -159t26.5 -210.5q0 -114 -28 -209t-74 -159t-106 -108.5t-123.5 -64.5t-127.5 -20q-81 0 -164.5 34.5t-107.5 86.5v-531h-322zM422 549q0 -148 68.5 -224.5t158.5 -76.5q88 0 155.5 76.5
t67.5 224.5q0 79 -20 139.5t-53.5 94.5t-71.5 50.5t-78 16.5q-38 0 -75.5 -16t-72.5 -49t-57 -94t-22 -142z" />
    <glyph glyph-name="ydieresis" unicode="&#xff;" horiz-adv-x="1171" 
d="M39 1094h338l209 -721l209 721h340l-547 -1493h-309l163 395l-2 4zM203 1413q0 66 48 114t111 48t111.5 -48t48.5 -114q0 -64 -49 -112t-111 -48t-110.5 48t-48.5 112zM655 1413q0 66 48.5 114t111.5 48q61 0 109.5 -48t48.5 -114q0 -64 -48.5 -112t-109.5 -48
q-62 0 -111 48t-49 112z" />
    <glyph glyph-name="Amacron" unicode="&#x100;" horiz-adv-x="1443" 
d="M37 0l518 1454h328l524 -1454h-326l-90 262h-534l-88 -262h-332zM330 1604v215h780v-215h-780zM541 518h362l-184 535z" />
    <glyph glyph-name="amacron" unicode="&#x101;" horiz-adv-x="1124" 
d="M74 319q0 69 28.5 131.5t83.5 112.5t144 79.5t200 29.5q46 0 106.5 -10t88.5 -19v35q0 190 -203 190q-119 0 -196 -77l-191 145q59 81 164 129.5t246 48.5t247.5 -49.5t170 -158t63.5 -265.5v-641h-246l-22 125q-10 -17 -30.5 -37.5t-56 -45.5t-93 -41.5t-123.5 -16.5
q-163 0 -272 97.5t-109 237.5zM170 1282v215h780v-215h-780zM371 338q0 -59 41 -90t114 -31q70 0 129.5 44t67.5 95v99q-50 12 -164 12q-91 -1 -139.5 -36.5t-48.5 -92.5z" />
    <glyph glyph-name="Abreve" unicode="&#x102;" horiz-adv-x="1443" 
d="M37 0l518 1454h328l524 -1454h-326l-90 262h-534l-88 -262h-332zM350 1747l154 149q35 -44 98 -73t119 -29t113.5 28t97.5 74l160 -151q-46 -75 -150.5 -129.5t-220.5 -54.5q-118 0 -220.5 54.5t-150.5 131.5zM541 518h362l-184 535z" />
    <glyph glyph-name="abreve" unicode="&#x103;" horiz-adv-x="1124" 
d="M74 319q0 69 28.5 131.5t83.5 112.5t144 79.5t200 29.5q46 0 106.5 -10t88.5 -19v35q0 190 -203 190q-119 0 -196 -77l-191 145q59 81 164 129.5t246 48.5t247.5 -49.5t170 -158t63.5 -265.5v-641h-246l-22 125q-10 -17 -30.5 -37.5t-56 -45.5t-93 -41.5t-123.5 -16.5
q-163 0 -272 97.5t-109 237.5zM188 1425l154 150q35 -44 98 -73t119 -29t113.5 28t97.5 74l160 -152q-46 -75 -150.5 -129.5t-220.5 -54.5q-118 0 -220.5 54.5t-150.5 131.5zM371 338q0 -59 41 -90t114 -31q70 0 129.5 44t67.5 95v99q-50 12 -164 12q-91 -1 -139.5 -36.5
t-48.5 -92.5z" />
    <glyph glyph-name="Aogonek" unicode="&#x104;" horiz-adv-x="1443" 
d="M37 0l518 1454h328l524 -1454h-43l-166 -186q-15 -12 -10 -23.5t31 -11.5h139v-244h-244q-72 0 -125 28.5t-77 73t-21.5 100t35.5 107.5q30 51 145 185l-80 233h-534l-88 -262h-332zM541 518h362l-184 535z" />
    <glyph glyph-name="aogonek" unicode="&#x105;" horiz-adv-x="1124" 
d="M74 319q0 69 28.5 131.5t83.5 112.5t144 79.5t200 29.5q46 0 106.5 -10t88.5 -19v35q0 190 -203 190q-119 0 -196 -77l-191 145q59 81 164 129.5t246 48.5t247.5 -49.5t170 -158t63.5 -265.5v-639l2 -2l-166 -186q-15 -12 -10 -23.5t31 -11.5h139v-244h-244
q-72 0 -125 28.5t-77 73t-21.5 100t35.5 107.5q42 70 174 217q1 1 2 2.5t2 2.5l-10 59q-10 -17 -30.5 -37.5t-56 -45.5t-93 -41.5t-123.5 -16.5q-163 0 -272 97.5t-109 237.5zM371 338q0 -59 41 -90t114 -31q70 0 129.5 44t67.5 95v99q-50 12 -164 12q-91 -1 -139.5 -36.5
t-48.5 -92.5z" />
    <glyph glyph-name="Cacute" unicode="&#x106;" horiz-adv-x="1466" 
d="M78 723q0 186 55.5 333t149.5 238t213 138t252 47q259 0 433 -144t203 -389h-315q-18 113 -107 180.5t-210 67.5q-53 0 -101.5 -14t-96.5 -48t-83 -86t-56.5 -135t-21.5 -188q0 -99 22 -179t57.5 -132t83.5 -87t97.5 -50t102.5 -15q123 0 210.5 72t104.5 182h318
q-14 -136 -73.5 -242t-149 -169t-195.5 -94.5t-223 -31.5q-97 0 -190 26.5t-181 85t-153.5 143t-105.5 211.5t-40 280zM588 1563l186 411l301 -186l-244 -225h-243z" />
    <glyph glyph-name="cacute" unicode="&#x107;" horiz-adv-x="1185" 
d="M80 541q0 135 44 246t118 181t167 108t195 38q91 0 173.5 -25t152 -73.5t117.5 -129.5t63 -184h-299q-42 152 -197 152q-42 0 -81 -17t-73.5 -52t-55.5 -98t-21 -146q0 -150 71 -225.5t160 -75.5q74 0 125 36t70 99h301q-28 -185 -163.5 -291.5t-340.5 -106.5
q-104 0 -198 37.5t-167.5 107t-117 178t-43.5 241.5zM430 1223l186 411l302 -186l-244 -225h-244z" />
    <glyph glyph-name="Cdotaccent" unicode="&#x10a;" horiz-adv-x="1466" 
d="M78 723q0 186 55.5 333t149.5 238t213 138t252 47q259 0 433 -144t203 -389h-315q-18 113 -107 180.5t-210 67.5q-53 0 -101.5 -14t-96.5 -48t-83 -86t-56.5 -135t-21.5 -188q0 -99 22 -179t57.5 -132t83.5 -87t97.5 -50t102.5 -15q123 0 210.5 72t104.5 182h318
q-14 -136 -73.5 -242t-149 -169t-195.5 -94.5t-223 -31.5q-97 0 -190 26.5t-181 85t-153.5 143t-105.5 211.5t-40 280zM569 1733q0 65 49.5 113t112.5 48t112.5 -48t49.5 -113q0 -66 -49.5 -115t-112.5 -49t-112.5 49t-49.5 115z" />
    <glyph glyph-name="cdotaccent" unicode="&#x10b;" horiz-adv-x="1185" 
d="M80 541q0 135 44 246t118 181t167 108t195 38q91 0 173.5 -25t152 -73.5t117.5 -129.5t63 -184h-299q-42 152 -197 152q-42 0 -81 -17t-73.5 -52t-55.5 -98t-21 -146q0 -150 71 -225.5t160 -75.5q74 0 125 36t70 99h301q-28 -185 -163.5 -291.5t-340.5 -106.5
q-104 0 -198 37.5t-167.5 107t-117 178t-43.5 241.5zM444 1407q0 65 49.5 113.5t112.5 48.5t112.5 -48.5t49.5 -113.5q0 -66 -49.5 -115t-112.5 -49t-112.5 49t-49.5 115z" />
    <glyph glyph-name="Ccaron" unicode="&#x10c;" horiz-adv-x="1466" 
d="M78 723q0 186 55.5 333t149.5 238t213 138t252 47q259 0 433 -144t203 -389h-315q-18 113 -107 180.5t-210 67.5q-53 0 -101.5 -14t-96.5 -48t-83 -86t-56.5 -135t-21.5 -188q0 -99 22 -179t57.5 -132t83.5 -87t97.5 -50t102.5 -15q123 0 210.5 72t104.5 182h318
q-14 -136 -73.5 -242t-149 -169t-195.5 -94.5t-223 -31.5q-97 0 -190 26.5t-181 85t-153.5 143t-105.5 211.5t-40 280zM379 1780l127 162l227 -123l232 123l122 -152l-219 -221h-264z" />
    <glyph glyph-name="ccaron" unicode="&#x10d;" horiz-adv-x="1185" 
d="M80 541q0 135 44 246t118 181t167 108t195 38q91 0 173.5 -25t152 -73.5t117.5 -129.5t63 -184h-299q-42 152 -197 152q-42 0 -81 -17t-73.5 -52t-55.5 -98t-21 -146q0 -150 71 -225.5t160 -75.5q74 0 125 36t70 99h301q-28 -185 -163.5 -291.5t-340.5 -106.5
q-104 0 -198 37.5t-167.5 107t-117 178t-43.5 241.5zM254 1454l127 162l227 -123l232 123l123 -152l-220 -221h-264z" />
    <glyph glyph-name="Dcaron" unicode="&#x10e;" horiz-adv-x="1404" 
d="M141 0v1454h484q154 0 283.5 -47.5t224 -136.5t147.5 -226t53 -309q0 -188 -51.5 -330t-147 -230t-223 -131.5t-286.5 -43.5h-484zM315 1782l127 162l228 -123l231 123l123 -152l-219 -221h-264zM453 291h172q189 0 294 108.5t105 335.5q0 218 -108 323t-291 105h-172
v-872z" />
    <glyph glyph-name="dcaron" unicode="&#x10f;" horiz-adv-x="1581" 
d="M78 551q0 144 44.5 256.5t117 177t156 97t171.5 32.5q78 0 154 -36.5t100 -88.5v465h328v-1454h-252l-27 125q-35 -62 -119 -100.5t-169 -38.5q-72 0 -142 21t-136 67t-116 110.5t-80 159.5t-30 207zM395 553q0 -79 21.5 -140.5t56.5 -95.5t73.5 -50.5t76.5 -16.5
q83 0 152 79.5t69 223.5t-66.5 221.5t-152.5 77.5q-42 0 -81 -16t-73.5 -49.5t-55 -93.5t-20.5 -140zM1282 1077l39 377h301l-100 -377h-240z" />
    <glyph glyph-name="Dcroat" unicode="&#x110;" horiz-adv-x="1447" 
d="M33 592v264h160v598h483q154 0 283.5 -47.5t224 -136.5t147.5 -226t53 -309q0 -188 -51.5 -330t-147 -230t-223 -131.5t-286.5 -43.5h-483v592h-160zM504 291h172q189 0 294 108.5t105 335.5q0 218 -108 323t-291 105h-172v-307h237v-264h-237v-301z" />
    <glyph glyph-name="dcroat" unicode="&#x111;" horiz-adv-x="1271" 
d="M78 551q0 116 30 212.5t79 160t114 107.5t132 63.5t136 19.5q79 0 158.5 -37t103.5 -88v221h-227v189h227v166h328v-166h150v-189h-150v-1210h-252l-28 125q-34 -62 -121 -100.5t-174 -38.5q-72 0 -142.5 21t-136.5 67t-116 110.5t-80.5 159.5t-30.5 207zM385 553
q0 -79 22 -140.5t57 -95.5t73.5 -50.5t76.5 -16.5t76.5 18.5t72.5 54t55.5 95.5t21.5 135q0 74 -20.5 133.5t-53.5 94.5t-71.5 53t-78.5 18q-42 0 -81 -16t-73.5 -49.5t-55.5 -93.5t-21 -140z" />
    <glyph glyph-name="Emacron" unicode="&#x112;" 
d="M143 0v1454h990v-280h-678v-306h520v-272h-520v-315h684v-281h-996zM244 1604v215h780v-215h-780z" />
    <glyph glyph-name="emacron" unicode="&#x113;" horiz-adv-x="1183" 
d="M82 541q0 136 42 247t114 181t163.5 107.5t194.5 37.5q105 0 195.5 -32.5t161 -97t111 -169.5t40.5 -240v-120h-731q6 -108 81.5 -168t182.5 -60q87 0 164 28t125 73l141 -203q-148 -145 -444 -145q-110 0 -206 34.5t-171.5 101.5t-119.5 176.5t-44 248.5zM205 1284v215
h780v-215h-780zM373 655h440q0 105 -61 161t-158 56q-90 0 -152.5 -58.5t-68.5 -158.5z" />
    <glyph glyph-name="Ebreve" unicode="&#x114;" 
d="M143 0v1454h990v-280h-678v-306h520v-272h-520v-315h684v-281h-996zM262 1747l154 149q35 -44 98 -73t119 -29t113.5 28t97.5 74l160 -151q-46 -75 -150.5 -129.5t-220.5 -54.5q-118 0 -220.5 54.5t-150.5 131.5z" />
    <glyph glyph-name="ebreve" unicode="&#x115;" horiz-adv-x="1183" 
d="M82 541q0 136 42 247t114 181t163.5 107.5t194.5 37.5q105 0 195.5 -32.5t161 -97t111 -169.5t40.5 -240v-120h-731q6 -108 81.5 -168t182.5 -60q87 0 164 28t125 73l141 -203q-148 -145 -444 -145q-110 0 -206 34.5t-171.5 101.5t-119.5 176.5t-44 248.5zM225 1427
l154 150q35 -44 98 -73t119 -29t113.5 28t97.5 74l160 -152q-46 -75 -150.5 -129.5t-220.5 -54.5q-118 0 -220.5 54.5t-150.5 131.5zM373 655h440q0 105 -61 161t-158 56q-90 0 -152.5 -58.5t-68.5 -158.5z" />
    <glyph glyph-name="Edotaccent" unicode="&#x116;" 
d="M143 0v1454h990v-280h-678v-306h520v-272h-520v-315h684v-281h-996zM473 1733q0 65 49.5 113t112.5 48t112.5 -48t49.5 -113q0 -66 -49.5 -115t-112.5 -49t-112.5 49t-49.5 115z" />
    <glyph glyph-name="edotaccent" unicode="&#x117;" horiz-adv-x="1183" 
d="M82 541q0 136 42 247t114 181t163.5 107.5t194.5 37.5q105 0 195.5 -32.5t161 -97t111 -169.5t40.5 -240v-120h-731q6 -108 81.5 -168t182.5 -60q87 0 164 28t125 73l141 -203q-148 -145 -444 -145q-110 0 -206 34.5t-171.5 101.5t-119.5 176.5t-44 248.5zM373 655h440
q0 105 -61 161t-158 56q-90 0 -152.5 -58.5t-68.5 -158.5zM434 1411q0 65 49.5 113.5t112.5 48.5t112.5 -48.5t49.5 -113.5q0 -66 -49.5 -115t-112.5 -49t-112.5 49t-49.5 115z" />
    <glyph glyph-name="Eogonek" unicode="&#x118;" 
d="M143 0v1454h990v-280h-678v-306h520v-272h-520v-315h684v-279l2 -2l-166 -186q-15 -12 -10.5 -23.5t30.5 -11.5h140v-244h-244q-58 0 -104.5 18.5t-73.5 50t-39.5 70.5t-5 83.5t33.5 86.5q34 58 121 156h-680z" />
    <glyph glyph-name="eogonek" unicode="&#x119;" horiz-adv-x="1183" 
d="M82 541q0 136 42 247t114 181t163.5 107.5t194.5 37.5q105 0 195.5 -32.5t161 -97t111 -169.5t40.5 -240v-120h-731q6 -108 81.5 -168t182.5 -60q87 0 164 28t125 73l141 -203q-25 -25 -49 -41l2 -2l-166 -186q-15 -12 -10.5 -23.5t30.5 -11.5h140v-244h-244
q-72 0 -125 28.5t-77 73t-21.5 100t35.5 107.5q8 14 36 54q-109 1 -204.5 36t-170 102t-118 176t-43.5 247zM373 655h440q0 105 -61 161t-158 56q-90 0 -152.5 -58.5t-68.5 -158.5z" />
    <glyph glyph-name="Ecaron" unicode="&#x11a;" 
d="M143 0v1454h990v-280h-678v-306h520v-272h-520v-315h684v-281h-996zM281 1780l127 162l227 -123l231 123l123 -152l-219 -221h-264z" />
    <glyph glyph-name="ecaron" unicode="&#x11b;" horiz-adv-x="1183" 
d="M82 541q0 136 42 247t114 181t163.5 107.5t194.5 37.5q105 0 195.5 -32.5t161 -97t111 -169.5t40.5 -240v-120h-731q6 -108 81.5 -168t182.5 -60q87 0 164 28t125 73l141 -203q-148 -145 -444 -145q-110 0 -206 34.5t-171.5 101.5t-119.5 176.5t-44 248.5zM244 1458
l127 162l227 -123l231 123l123 -152l-219 -221h-264zM373 655h440q0 105 -61 161t-158 56q-90 0 -152.5 -58.5t-68.5 -158.5z" />
    <glyph glyph-name="Gbreve" unicode="&#x11e;" horiz-adv-x="1445" 
d="M80 727q0 146 36 269.5t98.5 210.5t147 148.5t181.5 91t202 30.5q248 0 425 -141t206 -369h-315q-17 86 -104 156.5t-212 70.5q-71 0 -133.5 -29t-112.5 -85t-79 -147t-29 -206q0 -121 29.5 -213.5t80 -146.5t112 -80.5t132.5 -26.5q140 0 228.5 73t95.5 216h-250v244
h565v-150q0 -139 -35.5 -252t-96 -189t-143 -127.5t-173.5 -74.5t-191 -23q-101 0 -194.5 25.5t-180 83.5t-150.5 143.5t-102 213.5t-38 284zM360 1747l154 149q35 -44 98 -73t119 -29t113.5 28t97.5 74l160 -151q-46 -75 -150.5 -129.5t-220.5 -54.5q-118 0 -220.5 54.5
t-150.5 131.5z" />
    <glyph glyph-name="gbreve" unicode="&#x11f;" horiz-adv-x="1253" 
d="M86 547q0 115 28 210.5t74.5 159.5t108 108.5t127 64.5t133.5 20q89 0 165 -36.5t107 -92.5l25 113h276v-990q0 -288 -146.5 -440.5t-420.5 -152.5q-136 0 -255.5 48t-186.5 122l170 200q43 -38 117.5 -67t146.5 -29q248 0 248 254v61q-25 -52 -94 -88.5t-150 -36.5
q-69 0 -135 20.5t-127.5 66t-108 111t-74.5 162t-28 212.5zM268 1425l154 150q35 -44 98 -73t119 -29t113.5 28t97.5 74l160 -152q-46 -75 -150.5 -129.5t-220.5 -54.5q-118 0 -220.5 54.5t-150.5 131.5zM391 541q0 -144 65 -220.5t158 -76.5q92 0 157 79t65 218
q0 156 -64 230.5t-158 74.5t-158.5 -76.5t-64.5 -228.5z" />
    <glyph glyph-name="Gdotaccent" unicode="&#x120;" horiz-adv-x="1445" 
d="M80 727q0 146 36 269.5t98.5 210.5t147 148.5t181.5 91t202 30.5q248 0 425 -141t206 -369h-315q-17 86 -104 156.5t-212 70.5q-71 0 -133.5 -29t-112.5 -85t-79 -147t-29 -206q0 -121 29.5 -213.5t80 -146.5t112 -80.5t132.5 -26.5q140 0 228.5 73t95.5 216h-250v244
h565v-150q0 -139 -35.5 -252t-96 -189t-143 -127.5t-173.5 -74.5t-191 -23q-101 0 -194.5 25.5t-180 83.5t-150.5 143.5t-102 213.5t-38 284zM571 1733q0 65 49.5 113t112.5 48t112.5 -48t49.5 -113q0 -66 -49.5 -115t-112.5 -49t-112.5 49t-49.5 115z" />
    <glyph glyph-name="gdotaccent" unicode="&#x121;" horiz-adv-x="1253" 
d="M86 547q0 115 28 210.5t74.5 159.5t108 108.5t127 64.5t133.5 20q89 0 165 -36.5t107 -92.5l25 113h276v-990q0 -288 -146.5 -440.5t-420.5 -152.5q-136 0 -255.5 48t-186.5 122l170 200q43 -38 117.5 -67t146.5 -29q248 0 248 254v61q-25 -52 -94 -88.5t-150 -36.5
q-69 0 -135 20.5t-127.5 66t-108 111t-74.5 162t-28 212.5zM391 541q0 -144 65 -220.5t158 -76.5q92 0 157 79t65 218q0 156 -64 230.5t-158 74.5t-158.5 -76.5t-64.5 -228.5zM477 1409q0 65 49.5 113.5t112.5 48.5t112.5 -48.5t49.5 -113.5q0 -66 -49.5 -115t-112.5 -49
t-112.5 49t-49.5 115z" />
    <glyph glyph-name="uni0122" unicode="&#x122;" horiz-adv-x="1445" 
d="M80 727q0 146 36 269.5t98.5 210.5t147 148.5t181.5 91t202 30.5q248 0 425 -141t206 -369h-315q-17 86 -104 156.5t-212 70.5q-71 0 -133.5 -29t-112.5 -85t-79 -147t-29 -206q0 -121 29.5 -213.5t80 -146.5t112 -80.5t132.5 -26.5q140 0 228.5 73t95.5 216h-250v244
h565v-150q0 -139 -35.5 -252t-96 -189t-143 -127.5t-173.5 -74.5t-191 -23q-101 0 -194.5 25.5t-180 83.5t-150.5 143.5t-102 213.5t-38 284zM528 -481l50 360h290l-114 -360h-226z" />
    <glyph glyph-name="uni0123" unicode="&#x123;" horiz-adv-x="1253" 
d="M86 547q0 115 28 210.5t74.5 159.5t108 108.5t127 64.5t133.5 20q89 0 165 -36.5t107 -92.5l25 113h276v-990q0 -288 -146.5 -440.5t-420.5 -152.5q-136 0 -255.5 48t-186.5 122l170 200q43 -38 117.5 -67t146.5 -29q248 0 248 254v61q-25 -52 -94 -88.5t-150 -36.5
q-69 0 -135 20.5t-127.5 66t-108 111t-74.5 162t-28 212.5zM391 541q0 -144 65 -220.5t158 -76.5q92 0 157 79t65 218q0 156 -64 230.5t-158 74.5t-158.5 -76.5t-64.5 -228.5zM469 1233l115 360h225l-49 -360h-291z" />
    <glyph glyph-name="Hbar" unicode="&#x126;" horiz-adv-x="1411" 
d="M16 1059v244h129v151h312v-151h499v151h312v-151h127v-244h-127v-1059h-312v586h-499v-586h-312v1059h-129zM457 877h499v182h-499v-182z" />
    <glyph glyph-name="hbar" unicode="&#x127;" horiz-adv-x="1245" 
d="M-6 1182v217l153 4v162h326v-154l236 6v-184l-236 -16v-232q26 51 106 90t156 39q88 0 164.5 -30.5t136 -90.5t93.5 -158t34 -223v-612h-334v608q0 104 -48.5 157.5t-127.5 53.5q-72 0 -126 -59t-54 -152v-608h-326v1192z" />
    <glyph glyph-name="Imacron" unicode="&#x12a;" horiz-adv-x="614" 
d="M59 1589v217h500v-217h-500zM143 0v1454h312v-1454h-312z" />
    <glyph glyph-name="imacron" unicode="&#x12b;" horiz-adv-x="583" 
d="M29 1294v252h526v-252h-526zM141 0v1094h301v-1094h-301z" />
    <glyph glyph-name="Ibreve" unicode="&#x12c;" horiz-adv-x="598" 
d="M-23 1733l156 141q69 -98 164 -98q98 0 156 98l163 -139q-38 -83 -123 -139t-196 -56q-113 0 -196 54.5t-124 138.5zM143 0v1454h312v-1454h-312z" />
    <glyph glyph-name="ibreve" unicode="&#x12d;" horiz-adv-x="583" 
d="M-27 1434l154 141q69 -96 166 -96q96 0 156 96l161 -139q-35 -82 -124.5 -138.5t-192.5 -56.5q-106 0 -193 55t-127 138zM141 0v1094h301v-1094h-301z" />
    <glyph glyph-name="Iogonek" unicode="&#x12e;" horiz-adv-x="628" 
d="M-2.5 -263.5q2.5 55.5 35.5 107.5q41 68 127 164v1446h311v-1454l-166 -186q-15 -12 -10 -23.5t31 -11.5h139v-244h-244q-72 0 -125 28.5t-77 73t-21.5 100z" />
    <glyph glyph-name="iogonek" unicode="&#x12f;" horiz-adv-x="604" 
d="M-35.5 -263.5q2.5 55.5 35.5 107.5q36 59 139 179v1071h301v-1094h-2l-166 -186q-15 -12 -10 -23.5t31 -11.5h139v-244h-244q-72 0 -125 28.5t-77 73t-21.5 100zM109 1370q0 74 48.5 113t125.5 39q79 0 128.5 -39t49.5 -113t-49.5 -113.5t-128.5 -39.5q-77 0 -125.5 39.5
t-48.5 113.5z" />
    <glyph glyph-name="Idotaccent" unicode="&#x130;" horiz-adv-x="614" 
d="M135 1729q0 65 49.5 113t112.5 48t112.5 -48t49.5 -113q0 -66 -49.5 -115t-112.5 -49t-112.5 49t-49.5 115zM143 0v1454h312v-1454h-312z" />
    <glyph glyph-name="dotlessi" unicode="&#x131;" horiz-adv-x="583" 
d="M141 0v1094h301v-1094h-301z" />
    <glyph glyph-name="uni0136" unicode="&#x136;" horiz-adv-x="1409" 
d="M143 0v1454h312v-614l495 614h398l-519 -635l557 -819h-374l-406 604l-151 -172v-432h-312zM524 -473l49 360h291l-114 -360h-226z" />
    <glyph glyph-name="uni0137" unicode="&#x137;" horiz-adv-x="1216" 
d="M129 0v1454h326v-782l321 422h381l-389 -488l426 -606h-373l-299 451l-67 -60v-391h-326zM440 -489l49 360h291l-114 -360h-226z" />
    <glyph glyph-name="Lacute" unicode="&#x139;" horiz-adv-x="1187" 
d="M143 0v1454h312v-1173h653v-281h-965zM154 1554l186 412l301 -186l-244 -226h-243z" />
    <glyph glyph-name="lacute" unicode="&#x13a;" horiz-adv-x="595" 
d="M129 0v1454h315v-1454h-315zM135 1554l162 392l301 -185l-219 -207h-244z" />
    <glyph glyph-name="uni013B" unicode="&#x13b;" horiz-adv-x="1187" 
d="M143 0v1454h312v-1173h653v-281h-965zM416 -502l49 361h291l-115 -361h-225z" />
    <glyph glyph-name="uni013C" unicode="&#x13c;" horiz-adv-x="595" 
d="M106 -494l50 361h290l-114 -361h-226zM129 0v1454h315v-1454h-315z" />
    <glyph glyph-name="Lcaron" unicode="&#x13d;" horiz-adv-x="1208" 
d="M143 0v1454h312v-1173h653v-281h-965zM737 1042l43 414h256l-94 -414h-205z" />
    <glyph glyph-name="lcaron" unicode="&#x13e;" horiz-adv-x="821" 
d="M129 0v1454h315v-1454h-315zM596 1208l43 348h223l-63 -348h-203z" />
    <glyph glyph-name="Ldot" unicode="&#x13f;" horiz-adv-x="1187" 
d="M143 0v1454h312v-1173h653v-281h-965zM782 856q0 65 49.5 113.5t112.5 48.5t112.5 -48.5t49.5 -113.5q0 -66 -49.5 -115t-112.5 -49t-112.5 49t-49.5 115z" />
    <glyph glyph-name="ldot" unicode="&#x140;" horiz-adv-x="976" 
d="M129 0v1454h315v-1454h-315zM584 731q0 74 50 122t120 48t119 -48t49 -122q0 -75 -48.5 -121.5t-119.5 -46.5t-120.5 46.5t-49.5 121.5z" />
    <glyph glyph-name="Lslash" unicode="&#x141;" horiz-adv-x="1234" 
d="M-10 705l200 83v666h312v-536l297 122l94 -237l-391 -162v-360h653v-281h-965v514l-108 -45z" />
    <glyph glyph-name="lslash" unicode="&#x142;" horiz-adv-x="765" 
d="M8 797l203 92v565h315v-422l111 51l121 -262l-232 -104v-717h-315v575l-82 -36z" />
    <glyph glyph-name="Nacute" unicode="&#x143;" horiz-adv-x="1474" 
d="M143 0v1454h324l553 -895v895h313v-1454h-325l-553 862v-862h-312zM555 1561l186 411l301 -186l-243 -225h-244z" />
    <glyph glyph-name="nacute" unicode="&#x144;" horiz-adv-x="1226" 
d="M129 0v1094h240l37 -113q33 57 124.5 99t188.5 42q83 0 153 -25.5t127 -77.5t89 -141t32 -206v-672h-315v655q0 98 -49 152.5t-129 54.5t-131.5 -56t-51.5 -151v-655h-315zM451 1233l186 412l301 -187l-244 -225h-243z" />
    <glyph glyph-name="uni0145" unicode="&#x145;" horiz-adv-x="1474" 
d="M143 0v1454h324l553 -895v895h313v-1454h-325l-553 862v-862h-312zM541 -475l49 360h291l-115 -360h-225z" />
    <glyph glyph-name="uni0146" unicode="&#x146;" horiz-adv-x="1226" 
d="M129 2v1094h240l37 -113q33 57 124.5 99t188.5 42q83 0 153 -25.5t127 -77.5t89 -141t32 -206v-672h-315v655q0 98 -49 152.5t-129 54.5t-131.5 -56t-51.5 -151v-655h-315zM442 -442l50 360h290l-114 -360h-226z" />
    <glyph glyph-name="Ncaron" unicode="&#x147;" horiz-adv-x="1474" 
d="M143 0v1454h324l553 -895v895h313v-1454h-325l-553 862v-862h-312zM375 1755l127 162l227 -123l232 123l122 -152l-219 -221h-264z" />
    <glyph glyph-name="ncaron" unicode="&#x148;" horiz-adv-x="1226" 
d="M129 0v1094h240l37 -113q33 57 124.5 99t188.5 42q83 0 153 -25.5t127 -77.5t89 -141t32 -206v-672h-315v655q0 98 -49 152.5t-129 54.5t-131.5 -56t-51.5 -151v-655h-315zM272 1466l127 162l228 -123l231 123l123 -151l-219 -222h-264z" />
    <glyph glyph-name="Omacron" unicode="&#x14c;" horiz-adv-x="1482" 
d="M78 733q0 180 52 324t143 235t210.5 139t257.5 48q137 0 256.5 -48.5t211 -140t144 -235.5t52.5 -322q0 -182 -52.5 -327t-144 -237t-211 -140.5t-256.5 -48.5q-138 0 -257 48t-210 139.5t-143.5 237t-52.5 328.5zM352 1604v215h781v-215h-781zM391 733
q0 -100 19.5 -180.5t52.5 -134t78 -89.5t95 -51.5t105 -15.5q53 0 102.5 16t95 52t79.5 89t54 134t20 180q0 98 -20.5 177.5t-54.5 131.5t-80 87t-95 50t-101 15q-53 0 -102 -15t-94.5 -50t-79.5 -87t-54 -131.5t-20 -177.5z" />
    <glyph glyph-name="omacron" unicode="&#x14d;" horiz-adv-x="1228" 
d="M78 547q0 117 32.5 214t86 161.5t124 108.5t143.5 63.5t148 19.5q78 0 153 -20t145.5 -64t123.5 -108.5t85 -161t32 -213.5q0 -114 -32.5 -209.5t-86 -160.5t-124 -110.5t-145.5 -66t-151 -20.5q-75 0 -149 20.5t-144 66t-123.5 110.5t-85.5 160.5t-32 209.5zM223 1286
v215h781v-215h-781zM381 547q0 -144 70 -221.5t161 -77.5q41 0 81 18t75.5 52.5t57.5 94t22 134.5q0 79 -21 140t-56.5 95t-75.5 51t-83 17q-44 0 -83.5 -16.5t-73.5 -50.5t-54 -95t-20 -141z" />
    <glyph glyph-name="Obreve" unicode="&#x14e;" horiz-adv-x="1482" 
d="M78 733q0 180 52 324t143 235t210.5 139t257.5 48q137 0 256.5 -48.5t211 -140t144 -235.5t52.5 -322q0 -182 -52.5 -327t-144 -237t-211 -140.5t-256.5 -48.5q-138 0 -257 48t-210 139.5t-143.5 237t-52.5 328.5zM371 1747l153 149q35 -44 98 -73t119 -29t113.5 28
t97.5 74l160 -151q-46 -75 -150.5 -129.5t-220.5 -54.5q-118 0 -220 54t-150 132zM391 733q0 -100 19.5 -180.5t52.5 -134t78 -89.5t95 -51.5t105 -15.5q53 0 102.5 16t95 52t79.5 89t54 134t20 180q0 98 -20.5 177.5t-54.5 131.5t-80 87t-95 50t-101 15q-53 0 -102 -15
t-94.5 -50t-79.5 -87t-54 -131.5t-20 -177.5z" />
    <glyph glyph-name="obreve" unicode="&#x14f;" horiz-adv-x="1228" 
d="M78 547q0 117 32.5 214t86 161.5t124 108.5t143.5 63.5t148 19.5q78 0 153 -20t145.5 -64t123.5 -108.5t85 -161t32 -213.5q0 -114 -32.5 -209.5t-86 -160.5t-124 -110.5t-145.5 -66t-151 -20.5q-75 0 -149 20.5t-144 66t-123.5 110.5t-85.5 160.5t-32 209.5zM242 1430
l153 149q35 -44 98 -73t119 -29t113.5 28t97.5 74l160 -152q-46 -75 -150.5 -129.5t-220.5 -54.5q-118 0 -220 54.5t-150 132.5zM381 547q0 -144 70 -221.5t161 -77.5q41 0 81 18t75.5 52.5t57.5 94t22 134.5q0 79 -21 140t-56.5 95t-75.5 51t-83 17q-44 0 -83.5 -16.5
t-73.5 -50.5t-54 -95t-20 -141z" />
    <glyph glyph-name="Ohungarumlaut" unicode="&#x150;" horiz-adv-x="1482" 
d="M78 733q0 180 52 324t143 235t210.5 139t257.5 48q137 0 256.5 -48.5t211 -140t144 -235.5t52.5 -322q0 -182 -52.5 -327t-144 -237t-211 -140.5t-256.5 -48.5q-138 0 -257 48t-210 139.5t-143.5 237t-52.5 328.5zM391 733q0 -100 19.5 -180.5t52.5 -134t78 -89.5
t95 -51.5t105 -15.5q53 0 102.5 16t95 52t79.5 89t54 134t20 180q0 98 -20.5 177.5t-54.5 131.5t-80 87t-95 50t-101 15q-53 0 -102 -15t-94.5 -50t-79.5 -87t-54 -131.5t-20 -177.5zM414 1575l133 410l282 -95l-186 -315h-229zM807 1575l131 410l287 -95l-189 -315h-229z
" />
    <glyph glyph-name="ohungarumlaut" unicode="&#x151;" horiz-adv-x="1228" 
d="M78 547q0 117 32.5 214t86 161.5t124 108.5t143.5 63.5t148 19.5q78 0 153 -20t145.5 -64t123.5 -108.5t85 -161t32 -213.5q0 -114 -32.5 -209.5t-86 -160.5t-124 -110.5t-145.5 -66t-151 -20.5q-75 0 -149 20.5t-144 66t-123.5 110.5t-85.5 160.5t-32 209.5zM276 1249
l134 410l282 -94l-186 -316h-230zM381 547q0 -144 70 -221.5t161 -77.5q41 0 81 18t75.5 52.5t57.5 94t22 134.5q0 79 -21 140t-56.5 95t-75.5 51t-83 17q-44 0 -83.5 -16.5t-73.5 -50.5t-54 -95t-20 -141zM670 1249l131 410l286 -94l-188 -316h-229z" />
    <glyph glyph-name="OE" unicode="&#x152;" horiz-adv-x="2136" 
d="M29 733q0 180 52 324t143 235t210.5 139t257.5 48q245 0 420 -146v121h989v-280h-678v-306h521v-272h-521v-315h684v-281h-995v125q-174 -145 -420 -145q-138 0 -257 48t-210 139.5t-143.5 237t-52.5 328.5zM342 733q0 -100 19.5 -180.5t52.5 -134t78 -89.5t95 -51.5
t105 -15.5q67 0 127.5 26.5t111.5 80t81 147.5t30 217q0 121 -30.5 213.5t-82 144.5t-111.5 77.5t-126 25.5q-53 0 -102 -15t-94.5 -50t-79.5 -87t-54 -131.5t-20 -177.5z" />
    <glyph glyph-name="oe" unicode="&#x153;" horiz-adv-x="1912" 
d="M37 547q0 117 32.5 214t86 161.5t124 108.5t143.5 63.5t148 19.5q122 0 236 -50t190 -149q71 97 177 148t227 51q105 0 195.5 -32.5t161 -97t111 -169.5t40.5 -240v-120h-731q6 -108 81.5 -168t182.5 -60q87 0 164 28t125 73l141 -203q-148 -145 -445 -145
q-133 0 -247 50.5t-187 149.5q-76 -98 -189.5 -149t-232.5 -51q-75 0 -149 20.5t-144 66t-123.5 110.5t-85.5 160.5t-32 209.5zM340 547q0 -144 70 -221.5t161 -77.5q41 0 81 18t75.5 52.5t57.5 94t22 134.5q0 79 -21 140t-56.5 95t-75.5 51t-83 17q-44 0 -83.5 -16.5
t-73.5 -50.5t-54 -95t-20 -141zM1178 655h440q0 105 -61 161t-158 56q-90 0 -152.5 -58.5t-68.5 -158.5z" />
    <glyph glyph-name="Racute" unicode="&#x154;" horiz-adv-x="1363" 
d="M143 0v1454h527q143 0 255.5 -37t182 -103t105.5 -152t36 -187q0 -131 -66.5 -234.5t-189.5 -156.5l285 -584h-346l-227 510h-250v-510h-312zM455 788h213q108 0 176.5 47.5t68.5 149.5q0 98 -70 143.5t-175 45.5h-213v-386zM504 1563l186 411l301 -186l-243 -225h-244z
" />
    <glyph glyph-name="racute" unicode="&#x155;" horiz-adv-x="849" 
d="M129 0v1094h231l37 -119q29 58 112.5 98.5t168.5 40.5q20 0 42.5 -1.5t45.5 -3.5t33 -3v-287q-61 6 -109 6q-123 0 -182 -56.5t-59 -193.5v-575h-320zM266 1231l187 411l301 -186l-244 -225h-244z" />
    <glyph glyph-name="uni0156" unicode="&#x156;" horiz-adv-x="1363" 
d="M143 0v1454h527q143 0 255.5 -37t182 -103t105.5 -152t36 -187q0 -131 -66.5 -234.5t-189.5 -156.5l285 -584h-346l-227 510h-250v-510h-312zM455 788h213q108 0 176.5 47.5t68.5 149.5q0 98 -70 143.5t-175 45.5h-213v-386zM483 -449l49 361h291l-114 -361h-226z" />
    <glyph glyph-name="uni0157" unicode="&#x157;" horiz-adv-x="849" 
d="M111 -465l49 361h291l-115 -361h-225zM129 0v1094h231l37 -119q29 58 112.5 98.5t168.5 40.5q20 0 42.5 -1.5t45.5 -3.5t33 -3v-287q-61 6 -109 6q-123 0 -182 -56.5t-59 -193.5v-575h-320z" />
    <glyph glyph-name="Rcaron" unicode="&#x158;" horiz-adv-x="1363" 
d="M143 0v1454h527q143 0 255.5 -37t182 -103t105.5 -152t36 -187q0 -131 -66.5 -234.5t-189.5 -156.5l285 -584h-346l-227 510h-250v-510h-312zM295 1778l127 161l227 -122l232 122l123 -151l-220 -221h-264zM455 788h213q108 0 176.5 47.5t68.5 149.5q0 98 -70 143.5
t-175 45.5h-213v-386z" />
    <glyph glyph-name="rcaron" unicode="&#x159;" horiz-adv-x="849" 
d="M90 1464l127 162l227 -123l232 123l123 -151l-219 -222h-265zM129 0v1094h231l37 -119q29 58 112.5 98.5t168.5 40.5q20 0 42.5 -1.5t45.5 -3.5t33 -3v-287q-61 6 -109 6q-123 0 -182 -56.5t-59 -193.5v-575h-320z" />
    <glyph glyph-name="Sacute" unicode="&#x15a;" horiz-adv-x="1241" 
d="M51 215l203 215q74 -76 172.5 -124t202.5 -48q113 0 167 42t54 116q0 85 -58 122.5t-196 53.5q-71 8 -137.5 27t-130 54.5t-110 83t-75 117.5t-28.5 154q0 195 143 321t381 126q304 0 500 -199l-199 -201q-45 48 -139 83.5t-183 35.5q-99 0 -152.5 -38.5t-53.5 -108.5
q0 -69 65 -106.5t203 -49.5q103 -8 189 -37.5t155 -83t108 -140t39 -198.5q1 -88 -27 -162.5t-78 -128t-118 -91t-148 -55.5t-167 -18q-178 0 -328 64t-254 174zM485 1559l187 411l301 -186l-244 -225h-244z" />
    <glyph glyph-name="sacute" unicode="&#x15b;" horiz-adv-x="1026" 
d="M53 111l142 227q73 -46 163.5 -76.5t161.5 -30.5q164 0 164 101q0 22 -12 39t-30.5 28t-55 20.5t-70.5 15.5t-92 14q-65 9 -121 32t-102 61t-72.5 96t-26.5 130q0 148 125 250t308 102q123 0 231.5 -31.5t173.5 -80.5l-129 -211q-15 9 -42 23t-103 38.5t-144 28.5
q-65 0 -105 -24.5t-40 -67.5q0 -28 13 -46.5t55 -31.5t63.5 -17.5t92.5 -15.5l36 -6q156 -24 242 -109.5t86 -228.5q0 -168 -121 -268.5t-332 -100.5q-108 0 -236.5 37t-222.5 103zM356 1231l187 411l301 -186l-244 -225h-244z" />
    <glyph glyph-name="Scedilla" unicode="&#x15e;" horiz-adv-x="1241" 
d="M51 215l203 215q74 -76 172.5 -124t202.5 -48q113 0 167 42t54 116q0 85 -58 122.5t-196 53.5q-71 8 -137.5 27t-130 54.5t-110 83t-75 117.5t-28.5 154q0 195 143 321t381 126q304 0 500 -199l-199 -201q-45 48 -139 83.5t-183 35.5q-99 0 -152.5 -38.5t-53.5 -108.5
q0 -69 65 -106.5t203 -49.5q103 -8 189 -37.5t155 -83t108 -140t39 -198.5q1 -204 -137.5 -321.5t-351.5 -130.5l-8 -58q87 -13 148 -73.5t61 -165.5q0 -112 -76.5 -181t-212.5 -69q-60 0 -162 30l41 177q13 -6 56 -11.5t65 -5.5q39 0 63.5 18t24.5 48q0 63 -98 69l-86 4
l37 222q-147 15 -271 75.5t-213 155.5z" />
    <glyph glyph-name="scedilla" unicode="&#x15f;" horiz-adv-x="1026" 
d="M53 111l142 227q73 -46 163.5 -76.5t161.5 -30.5q164 0 164 101q0 22 -12 39t-30.5 28t-55 20.5t-70.5 15.5t-92 14q-65 9 -121 32t-102 61t-72.5 96t-26.5 130q0 148 125 250t308 102q123 0 231.5 -31.5t173.5 -80.5l-129 -211q-15 9 -42 23t-103 38.5t-144 28.5
q-65 0 -105 -24.5t-40 -67.5q0 -28 13 -46.5t55 -31.5t63.5 -17.5t92.5 -15.5l36 -6q156 -24 242 -109.5t86 -228.5q0 -158 -109 -257.5t-301 -109.5l-8 -61q87 -13 148 -74t61 -166q0 -112 -76.5 -181t-212.5 -69q-56 0 -162 31l41 176q13 -6 55.5 -11t65.5 -5
q39 0 63.5 17.5t24.5 47.5q0 64 -98 70l-86 4l37 228q-208 28 -355 131z" />
    <glyph glyph-name="Scaron" unicode="&#x160;" horiz-adv-x="1241" 
d="M51 215l203 215q74 -76 172.5 -124t202.5 -48q113 0 167 42t54 116q0 85 -58 122.5t-196 53.5q-71 8 -137.5 27t-130 54.5t-110 83t-75 117.5t-28.5 154q0 195 143 321t381 126q304 0 500 -199l-199 -201q-45 48 -139 83.5t-183 35.5q-99 0 -152.5 -38.5t-53.5 -108.5
q0 -69 65 -106.5t203 -49.5q103 -8 189 -37.5t155 -83t108 -140t39 -198.5q1 -88 -27 -162.5t-78 -128t-118 -91t-148 -55.5t-167 -18q-178 0 -328 64t-254 174zM274 1774l127 161l228 -123l231 123l123 -151l-219 -221h-264z" />
    <glyph glyph-name="scaron" unicode="&#x161;" horiz-adv-x="1026" 
d="M53 111l142 227q73 -46 163.5 -76.5t161.5 -30.5q164 0 164 101q0 22 -12 39t-30.5 28t-55 20.5t-70.5 15.5t-92 14q-65 9 -121 32t-102 61t-72.5 96t-26.5 130q0 148 125 250t308 102q123 0 231.5 -31.5t173.5 -80.5l-129 -211q-15 9 -42 23t-103 38.5t-144 28.5
q-65 0 -105 -24.5t-40 -67.5q0 -28 13 -46.5t55 -31.5t63.5 -17.5t92.5 -15.5l36 -6q156 -24 242 -109.5t86 -228.5q0 -168 -121 -268.5t-332 -100.5q-108 0 -236.5 37t-222.5 103zM178 1462l127 162l227 -123l232 123l123 -151l-219 -222h-265z" />
    <glyph glyph-name="uni0162" unicode="&#x162;" horiz-adv-x="1277" 
d="M68 1180v272h1124v-272h-408v-1180h-71l-11 -78q87 -13 148 -73.5t61 -165.5q0 -112 -76 -181t-212 -69q-59 0 -162 30l41 177q13 -6 56 -11.5t65 -5.5q39 0 63.5 18t24.5 48q0 63 -99 69l-86 4l39 238h-92v1180h-405z" />
    <glyph glyph-name="uni0163" unicode="&#x163;" horiz-adv-x="776" 
d="M43 850v244h143l62 295h256v-295h201v-244h-201v-440q0 -93 34 -125.5t113 -32.5h49v-246q-54 -12 -153 -12q-24 0 -70 4l-6 -37q87 -13 148 -74t61 -166q0 -112 -76.5 -180.5t-212.5 -68.5q-59 0 -162 30l41 176q13 -6 55.5 -11t65.5 -5q39 0 63.5 18t24.5 48
q0 63 -98 69l-86 4l39 238q-146 81 -146 274v537h-145z" />
    <glyph glyph-name="Tcaron" unicode="&#x164;" horiz-adv-x="1277" 
d="M68 1180v272h1124v-272h-408v-1180h-311v1180h-405zM268 1772l127 161l228 -123l231 123l123 -151l-219 -221h-264z" />
    <glyph glyph-name="tcaron" unicode="&#x165;" horiz-adv-x="980" 
d="M43 850v244h143l62 295h256v-295h201v-244h-201v-440q0 -93 34 -125.5t113 -32.5h49v-246q-54 -12 -153 -12q-169 0 -264 81t-95 238v537h-145zM739 1208l43 348h224l-64 -348h-203z" />
    <glyph glyph-name="Umacron" unicode="&#x16a;" horiz-adv-x="1390" 
d="M106 604v850h312v-848q0 -167 79 -248.5t199 -81.5q116 0 196.5 83t80.5 247v848h311v-850q0 -124 -30.5 -227t-84 -176t-127.5 -123t-161 -74t-185 -24q-124 0 -230 38.5t-187 113.5t-127 196t-46 276zM303 1585v215h780v-215h-780z" />
    <glyph glyph-name="umacron" unicode="&#x16b;" 
d="M109 453v641h337v-641q0 -107 48 -162t124 -55q77 0 125 56t48 161v641h329v-1094h-256l-35 125q-33 -66 -117.5 -109t-172.5 -43q-64 0 -123 15.5t-115.5 51.5t-98.5 90t-67.5 137t-25.5 186zM227 1280v215h781v-215h-781z" />
    <glyph glyph-name="Ubreve" unicode="&#x16c;" horiz-adv-x="1390" 
d="M106 604v850h312v-848q0 -167 79 -248.5t199 -81.5q116 0 196.5 83t80.5 247v848h311v-850q0 -124 -30.5 -227t-84 -176t-127.5 -123t-161 -74t-185 -24q-124 0 -230 38.5t-187 113.5t-127 196t-46 276zM322 1729l153 149q35 -44 98 -73t119 -29t113.5 28t97.5 74
l160 -152q-46 -75 -150.5 -129.5t-220.5 -54.5q-118 0 -220 54.5t-150 132.5z" />
    <glyph glyph-name="ubreve" unicode="&#x16d;" 
d="M109 453v641h337v-641q0 -107 48 -162t124 -55q77 0 125 56t48 161v641h329v-1094h-256l-35 125q-33 -66 -117.5 -109t-172.5 -43q-64 0 -123 15.5t-115.5 51.5t-98.5 90t-67.5 137t-25.5 186zM248 1425l153 150q35 -44 98 -73t119 -29t113.5 28t97.5 74l160 -152
q-46 -75 -150.5 -129.5t-220.5 -54.5q-118 0 -220 54t-150 132z" />
    <glyph glyph-name="Uring" unicode="&#x16e;" horiz-adv-x="1390" 
d="M106 604v850h312v-848q0 -167 79 -248.5t199 -81.5q116 0 196.5 83t80.5 247v848h311v-850q0 -124 -30.5 -227t-84 -176t-127.5 -123t-161 -74t-185 -24q-124 0 -230 38.5t-187 113.5t-127 196t-46 276zM432 1761q0 106 79.5 185t180.5 79q100 0 181 -79.5t81 -184.5
q0 -103 -81 -180.5t-181 -77.5q-102 0 -181 77.5t-79 180.5zM598 1765q0 -38 28.5 -66t65.5 -28q38 0 65 28t27 66q0 37 -27 66t-65 29q-37 0 -65.5 -29t-28.5 -66z" />
    <glyph glyph-name="uring" unicode="&#x16f;" 
d="M109 453v641h337v-641q0 -107 48 -162t124 -55q77 0 125 56t48 161v641h329v-1094h-256l-35 125q-33 -66 -117.5 -109t-172.5 -43q-64 0 -123 15.5t-115.5 51.5t-98.5 90t-67.5 137t-25.5 186zM358 1475q0 106 79.5 185t180.5 79q100 0 181.5 -79.5t81.5 -184.5
q0 -103 -81.5 -180.5t-181.5 -77.5q-102 0 -181 77.5t-79 180.5zM524 1479q0 -38 28.5 -66.5t65.5 -28.5q38 0 65.5 28.5t27.5 66.5q0 37 -27.5 65.5t-65.5 28.5q-37 0 -65.5 -28.5t-28.5 -65.5z" />
    <glyph glyph-name="Uhungarumlaut" unicode="&#x170;" horiz-adv-x="1390" 
d="M106 604v850h312v-848q0 -167 79 -248.5t199 -81.5q116 0 196.5 83t80.5 247v848h311v-850q0 -124 -30.5 -227t-84 -176t-127.5 -123t-161 -74t-185 -24q-124 0 -230 38.5t-187 113.5t-127 196t-46 276zM362 1556l134 410l282 -94l-186 -316h-230zM756 1556l131 410
l287 -94l-189 -316h-229z" />
    <glyph glyph-name="uhungarumlaut" unicode="&#x171;" 
d="M109 453v641h337v-641q0 -107 48 -162t124 -55q77 0 125 56t48 161v641h329v-1094h-256l-35 125q-33 -66 -117.5 -109t-172.5 -43q-64 0 -123 15.5t-115.5 51.5t-98.5 90t-67.5 137t-25.5 186zM281 1245l133 410l282 -94l-186 -316h-229zM674 1245l131 410l287 -94
l-189 -316h-229z" />
    <glyph glyph-name="Uogonek" unicode="&#x172;" horiz-adv-x="1404" 
d="M106 604v850h312v-848q0 -167 79 -248.5t199 -81.5q116 0 196.5 83t80.5 247v848h311v-850q0 -224 -93 -371t-253 -210l-137 -154q-15 -12 -10.5 -23.5t30.5 -11.5h140v-244h-244q-58 0 -104.5 18.5t-73.5 50t-39.5 71t-5 84t33.5 86.5q23 38 64 88q-218 31 -352 188
t-134 428z" />
    <glyph glyph-name="uogonek" unicode="&#x173;" 
d="M109 453v641h337v-641q0 -107 48 -162t124 -55q77 0 125 56t48 161v641h329v-1094l-166 -186q-15 -12 -10 -23.5t31 -11.5h139v-244h-244q-72 0 -125 28.5t-77 73t-21.5 100t35.5 107.5q45 77 168 209l-21 72q-33 -66 -117.5 -109t-172.5 -43q-64 0 -123 15.5
t-115.5 51.5t-98.5 90t-67.5 137t-25.5 186z" />
    <glyph glyph-name="Wcircumflex" unicode="&#x174;" horiz-adv-x="1925" 
d="M35 1454h334l235 -946l258 878h217l256 -882l221 950h332l-389 -1454h-303l-231 756l-230 -756h-305zM612 1683l222 224h264l223 -211l-127 -160l-225 121l-232 -123z" />
    <glyph glyph-name="wcircumflex" unicode="&#x175;" horiz-adv-x="1667" 
d="M39 1094h330l163 -641l195 641h219l199 -641l153 641h332l-323 -1094h-299l-177 541l-178 -541h-284zM479 1360l221 223h265l223 -211l-127 -160l-225 121l-232 -123z" />
    <glyph glyph-name="Ycircumflex" unicode="&#x176;" horiz-adv-x="1359" 
d="M37 1454h352l291 -588l285 588h358l-494 -911v-543h-311v543zM328 1675l221 223h264l223 -210l-127 -160l-225 121l-231 -123z" />
    <glyph glyph-name="ycircumflex" unicode="&#x177;" horiz-adv-x="1171" 
d="M39 1094h338l209 -721l209 721h340l-547 -1493h-309l163 395l-2 4zM231 1362l222 223h264l223 -211l-127 -160l-225 121l-232 -123z" />
    <glyph glyph-name="Ydieresis" unicode="&#x178;" horiz-adv-x="1359" 
d="M37 1454h352l291 -588l285 588h358l-494 -911v-543h-311v543zM297 1718q0 66 48.5 114t111.5 48t111 -48t48 -114q0 -64 -48.5 -111.5t-110.5 -47.5t-111 47.5t-49 111.5zM750 1718q0 66 48 114t111 48q61 0 109.5 -48t48.5 -114q0 -64 -48.5 -111.5t-109.5 -47.5
q-62 0 -110.5 47.5t-48.5 111.5z" />
    <glyph glyph-name="Zacute" unicode="&#x179;" horiz-adv-x="1220" 
d="M68 0v289l653 876h-633v289h1036v-272l-659 -883h674v-299h-1071zM463 1563l186 411l301 -186l-243 -225h-244z" />
    <glyph glyph-name="zacute" unicode="&#x17a;" horiz-adv-x="1003" 
d="M80 0v213l471 623h-457v258h815v-220l-458 -614h473v-260h-844zM324 1223l186 411l301 -186l-244 -225h-243z" />
    <glyph glyph-name="Zdotaccent" unicode="&#x17b;" horiz-adv-x="1220" 
d="M68 0v289l653 876h-633v289h1036v-272l-659 -883h674v-299h-1071zM444 1733q0 65 49.5 113t112.5 48t112.5 -48t49.5 -113q0 -66 -49.5 -115t-112.5 -49t-112.5 49t-49.5 115z" />
    <glyph glyph-name="zdotaccent" unicode="&#x17c;" horiz-adv-x="1003" 
d="M80 0v213l471 623h-457v258h815v-220l-458 -614h473v-260h-844zM338 1409q0 65 49.5 113.5t112.5 48.5t112.5 -48.5t49.5 -113.5q0 -66 -49.5 -115t-112.5 -49t-112.5 49t-49.5 115z" />
    <glyph glyph-name="Zcaron" unicode="&#x17d;" horiz-adv-x="1220" 
d="M68 0v289l653 876h-633v289h1036v-272l-659 -883h674v-299h-1071zM252 1780l127 162l227 -123l232 123l123 -152l-220 -221h-264z" />
    <glyph glyph-name="zcaron" unicode="&#x17e;" horiz-adv-x="1003" 
d="M80 0v213l471 623h-457v258h815v-220l-458 -614h473v-260h-844zM145 1456l127 162l228 -123l231 123l123 -152l-219 -221h-264z" />
    <glyph glyph-name="uni01DD" unicode="&#x1dd;" horiz-adv-x="1163" 
d="M51 492v120h731q-6 108 -81.5 168t-182.5 60q-87 0 -164 -28t-125 -73l-141 203q148 145 444 145q110 0 206 -34.5t171.5 -101.5t119.5 -176.5t44 -248.5q0 -136 -42 -247t-114 -181t-163.5 -107.5t-194.5 -37.5q-105 0 -195.5 32.5t-161 97t-111 169.5t-40.5 240z
M342 412q0 -105 61 -161t158 -56q90 0 152.5 58.5t68.5 158.5h-440z" />
    <glyph glyph-name="Aringacute" unicode="&#x1fa;" horiz-adv-x="1443" 
d="M37 0l518 1454h328l524 -1454h-326l-90 262h-534l-88 -262h-332zM463 1776q0 106 79.5 185t180.5 79q100 0 181 -79.5t81 -184.5q0 -103 -81 -180.5t-181 -77.5q-102 0 -181 77.5t-79 180.5zM541 518h362l-184 535zM567 2105l187 412l301 -186l-244 -226h-244zM629 1780
q0 -38 28.5 -66t65.5 -28q38 0 65 28t27 66q0 37 -27 65.5t-65 28.5q-37 0 -65.5 -28.5t-28.5 -65.5z" />
    <glyph glyph-name="aringacute" unicode="&#x1fb;" horiz-adv-x="1124" 
d="M74 319q0 69 28.5 131.5t83.5 112.5t144 79.5t200 29.5q46 0 106.5 -10t88.5 -19v35q0 190 -203 190q-119 0 -196 -77l-191 145q59 81 164 129.5t246 48.5t247.5 -49.5t170 -158t63.5 -265.5v-641h-246l-22 125q-10 -17 -30.5 -37.5t-56 -45.5t-93 -41.5t-123.5 -16.5
q-163 0 -272 97.5t-109 237.5zM317 1438q0 106 80 185t181 79q100 0 181 -79.5t81 -184.5q0 -103 -81 -180.5t-181 -77.5q-102 0 -181.5 77.5t-79.5 180.5zM371 338q0 -59 41 -90t114 -31q70 0 129.5 44t67.5 95v99q-50 12 -164 12q-91 -1 -139.5 -36.5t-48.5 -92.5z
M410 1759l186 412l301 -186l-244 -226h-243zM483 1442q0 -38 29 -66t66 -28q38 0 65 28t27 66q0 37 -27 65.5t-65 28.5q-37 0 -66 -28.5t-29 -65.5z" />
    <glyph glyph-name="AEacute" unicode="&#x1fc;" horiz-adv-x="2027" 
d="M-10 0l755 1454h1168v-283h-670v-299h526v-282h-526v-307h670v-283h-981v289h-443l-153 -289h-346zM625 557h307v576zM891 1573l186 412l301 -187l-243 -225h-244z" />
    <glyph glyph-name="aeacute" unicode="&#x1fd;" horiz-adv-x="1730" 
d="M20 319q0 69 29 131.5t84 112.5t144 79.5t200 29.5q46 0 106.5 -10t88.5 -19v35q0 190 -203 190q-59 0 -111 -21.5t-86 -55.5l-190 145q59 81 164 129.5t246 48.5q243 0 360 -137q143 137 350 137q105 0 195.5 -32.5t161 -97t111 -169.5t40.5 -240v-120h-731
q6 -108 81.5 -168t182.5 -60q87 0 164 28t125 73l141 -203q-148 -145 -444 -145q-242 0 -391 149q-135 -145 -396 -145q-189 0 -305.5 96.5t-116.5 238.5zM313 338q0 -59 43 -90t117 -31q77 0 137 55.5t60 145.5v37q-50 12 -164 12q-92 -1 -142.5 -36.5t-50.5 -92.5z
M727 1233l186 412l301 -187l-243 -225h-244zM979 655h440q0 105 -61 161t-158 56q-90 0 -152.5 -58.5t-68.5 -158.5z" />
    <glyph glyph-name="Oslashacute" unicode="&#x1fe;" horiz-adv-x="1482" 
d="M78 733q0 180 52 324t143 235t210.5 139t257.5 48q192 0 351 -95l82 113l161 -117l-92 -129q162 -199 162 -518q0 -182 -52.5 -327t-144 -237t-211 -140.5t-256.5 -48.5q-200 0 -352 94l-86 -119l-164 117l99 137q-160 201 -160 524zM391 733q0 -148 43 -256l484 666
q-80 51 -177 51q-53 0 -102 -15t-94.5 -50t-79.5 -87t-54 -131.5t-20 -177.5zM563 313q77 -51 178 -51q53 0 102.5 16t95 52t79.5 89t54 134t20 180q0 148 -45 250zM565 1571l187 411l301 -186l-244 -225h-244z" />
    <glyph glyph-name="oslashacute" unicode="&#x1ff;" horiz-adv-x="1247" 
d="M92 547q0 117 33 214t86.5 161.5t124 108.5t143.5 63.5t148 19.5q158 0 288 -78l97 121l123 -90l-103 -129q133 -150 133 -391q0 -114 -32 -209.5t-85.5 -160.5t-124 -110.5t-145.5 -66t-151 -20.5q-158 0 -289 83l-94 -120l-123 90l102 129q-131 151 -131 385zM395 547
q0 -75 23 -139l323 409q-50 33 -114 33q-95 0 -163.5 -74.5t-68.5 -228.5zM444 1217l187 411l301 -186l-244 -225h-244zM514 283q53 -35 113 -35q41 0 81 18t75 52.5t57 94t22 134.5q0 85 -24 147z" />
    <glyph glyph-name="uni0218" unicode="&#x218;" horiz-adv-x="1241" 
d="M51 215l203 215q74 -76 172.5 -124t202.5 -48q113 0 167 42t54 116q0 85 -58 122.5t-196 53.5q-71 8 -137.5 27t-130 54.5t-110 83t-75 117.5t-28.5 154q0 195 143 321t381 126q304 0 500 -199l-199 -201q-45 48 -139 83.5t-183 35.5q-99 0 -152.5 -38.5t-53.5 -108.5
q0 -69 65 -106.5t203 -49.5q103 -8 189 -37.5t155 -83t108 -140t39 -198.5q1 -88 -27 -162.5t-78 -128t-118 -91t-148 -55.5t-167 -18q-178 0 -328 64t-254 174zM453 -457l49 361h291l-115 -361h-225z" />
    <glyph glyph-name="uni0219" unicode="&#x219;" horiz-adv-x="1026" 
d="M53 111l142 227q73 -46 163.5 -76.5t161.5 -30.5q164 0 164 101q0 22 -12 39t-30.5 28t-55 20.5t-70.5 15.5t-92 14q-65 9 -121 32t-102 61t-72.5 96t-26.5 130q0 148 125 250t308 102q123 0 231.5 -31.5t173.5 -80.5l-129 -211q-15 9 -42 23t-103 38.5t-144 28.5
q-65 0 -105 -24.5t-40 -67.5q0 -28 13 -46.5t55 -31.5t63.5 -17.5t92.5 -15.5l36 -6q156 -24 242 -109.5t86 -228.5q0 -168 -121 -268.5t-332 -100.5q-108 0 -236.5 37t-222.5 103zM326 -465l49 361h291l-115 -361h-225z" />
    <glyph glyph-name="uni021A" unicode="&#x21a;" horiz-adv-x="1277" 
d="M68 1180v272h1124v-272h-408v-1180h-311v1180h-405zM432 -473l49 360h291l-115 -360h-225z" />
    <glyph glyph-name="uni021B" unicode="&#x21b;" horiz-adv-x="776" 
d="M43 850v244h143l62 295h256v-295h201v-244h-201v-440q0 -93 34 -125.5t113 -32.5h49v-246q-54 -12 -153 -12q-169 0 -264 81t-95 238v537h-145zM223 -469l49 360h291l-114 -360h-226z" />
    <glyph glyph-name="circumflex" unicode="&#x2c6;" horiz-adv-x="684" 
d="M6 1294l221 224h265l223 -211l-127 -160l-226 121l-231 -123z" />
    <glyph glyph-name="caron" unicode="&#x2c7;" horiz-adv-x="790" 
d="M12 1358l127 162l228 -123l231 123l123 -152l-219 -221h-264z" />
    <glyph glyph-name="breve" unicode="&#x2d8;" horiz-adv-x="768" 
d="M14 1378l154 150q35 -44 98 -73.5t119 -29.5t113.5 28.5t97.5 74.5l160 -152q-46 -75 -150.5 -129.5t-220.5 -54.5q-118 0 -220.5 54.5t-150.5 131.5z" />
    <glyph glyph-name="dotaccent" unicode="&#x2d9;" horiz-adv-x="350" 
d="M14 1341q0 65 49.5 113.5t112.5 48.5t112.5 -48.5t49.5 -113.5q0 -66 -49.5 -114.5t-112.5 -48.5t-112.5 48.5t-49.5 114.5z" />
    <glyph glyph-name="ring" unicode="&#x2da;" horiz-adv-x="548" 
d="M14 1327q0 106 79.5 185t180.5 79q100 0 181.5 -79.5t81.5 -184.5q0 -103 -81.5 -180.5t-181.5 -77.5q-102 0 -181 77.5t-79 180.5zM180 1331q0 -38 28.5 -66t65.5 -28q38 0 65.5 28t27.5 66q0 37 -27.5 65.5t-65.5 28.5q-37 0 -65.5 -28.5t-28.5 -65.5z" />
    <glyph glyph-name="ogonek" unicode="&#x2db;" horiz-adv-x="755" 
d="M103.5 -272.5q7.5 44.5 33.5 86.5q42 70 174 217q11 13 51.5 21.5t75.5 11.5l35 2l102 -97l-165 -186q-15 -12 -10.5 -23.5t30.5 -11.5h139v-244h-243q-58 0 -104.5 18.5t-73.5 50t-39.5 71t-5 84z" />
    <glyph glyph-name="tilde" unicode="&#x2dc;" horiz-adv-x="911" 
d="M14 1141q6 104 77 185.5t179 88.5q58 3 111 -9t85.5 -28.5t73 -32t74.5 -16.5q97 -5 127 98l158 -55q-5 -93 -77 -180t-175 -94q-55 -4 -101 7.5t-74 28.5t-71 32.5t-90 17.5q-109 3 -161 -90q1 0 -33 12t-69 24z" />
    <glyph glyph-name="hungarumlaut" unicode="&#x2dd;" horiz-adv-x="837" 
d="M14 1112l133 410l283 -95l-186 -315h-230zM408 1112l131 410l286 -95l-188 -315h-229z" />
    <glyph glyph-name="Wgrave" unicode="&#x1e80;" horiz-adv-x="1925" 
d="M35 1454h334l235 -946l258 878h217l256 -882l221 950h332l-389 -1454h-303l-231 756l-230 -756h-305zM588 1767l352 226l184 -432h-290z" />
    <glyph glyph-name="wgrave" unicode="&#x1e81;" horiz-adv-x="1667" 
d="M39 1094h330l163 -641l195 641h219l199 -641l153 641h332l-323 -1094h-299l-177 541l-178 -541h-284zM483 1436l353 225l184 -432h-291z" />
    <glyph glyph-name="Wacute" unicode="&#x1e82;" horiz-adv-x="1925" 
d="M35 1454h334l235 -946l258 878h217l256 -882l221 950h332l-389 -1454h-303l-231 756l-230 -756h-305zM823 1563l187 411l301 -186l-244 -225h-244z" />
    <glyph glyph-name="wacute" unicode="&#x1e83;" horiz-adv-x="1667" 
d="M39 1094h330l163 -641l195 641h219l199 -641l153 641h332l-323 -1094h-299l-177 541l-178 -541h-284zM657 1223l187 411l301 -186l-244 -225h-244z" />
    <glyph glyph-name="Wdieresis" unicode="&#x1e84;" horiz-adv-x="1925" 
d="M35 1454h334l235 -946l258 878h217l256 -882l221 950h332l-389 -1454h-303l-231 756l-230 -756h-305zM582 1724q0 66 48 114t111 48t111.5 -48t48.5 -114q0 -64 -49 -111.5t-111 -47.5t-110.5 47.5t-48.5 111.5zM1034 1724q0 66 48.5 114t111.5 48q61 0 109.5 -48
t48.5 -114q0 -64 -48.5 -111.5t-109.5 -47.5q-62 0 -111 47.5t-49 111.5z" />
    <glyph glyph-name="wdieresis" unicode="&#x1e85;" horiz-adv-x="1667" 
d="M39 1094h330l163 -641l195 641h219l199 -641l153 641h332l-323 -1094h-299l-177 541l-178 -541h-284zM449 1411q0 66 48 114t111 48t111.5 -48t48.5 -114q0 -64 -49 -112t-111 -48t-110.5 48t-48.5 112zM901 1411q0 66 48.5 114t111.5 48q61 0 109.5 -48t48.5 -114
q0 -64 -48.5 -112t-109.5 -48q-62 0 -111 48t-49 112z" />
    <glyph glyph-name="Ygrave" unicode="&#x1ef2;" horiz-adv-x="1359" 
d="M37 1454h352l291 -588l285 588h358l-494 -911v-543h-311v543zM301 1761l352 226l185 -433h-291z" />
    <glyph glyph-name="ygrave" unicode="&#x1ef3;" horiz-adv-x="1171" 
d="M39 1094h338l209 -721l209 721h340l-547 -1493h-309l163 395l-2 4zM238 1438l352 225l184 -432h-291z" />
    <glyph glyph-name="endash" unicode="&#x2013;" horiz-adv-x="1175" 
d="M145 508v287h885v-287h-885z" />
    <glyph glyph-name="emdash" unicode="&#x2014;" horiz-adv-x="1863" 
d="M164 510v287h1538v-287h-1538z" />
    <glyph glyph-name="quoteleft" unicode="&#x2018;" horiz-adv-x="544" 
d="M96 1454h291l62 -485h-240z" />
    <glyph glyph-name="quoteright" unicode="&#x2019;" horiz-adv-x="544" 
d="M96 969l62 485h291l-113 -485h-240z" />
    <glyph glyph-name="quotesinglbase" unicode="&#x201a;" horiz-adv-x="552" 
d="M133 0v485h246v-485h-246z" />
    <glyph glyph-name="quotedblleft" unicode="&#x201c;" horiz-adv-x="976" 
d="M96 1454h291l62 -485h-240zM528 1454h291l62 -485h-240z" />
    <glyph glyph-name="quotedblright" unicode="&#x201d;" horiz-adv-x="974" 
d="M96 969l62 485h291l-113 -485h-240zM526 969l62 485h291l-113 -485h-240z" />
    <glyph glyph-name="quotedblbase" unicode="&#x201e;" horiz-adv-x="987" 
d="M133 0v485h246v-485h-246zM565 0v485h246v-485h-246z" />
    <glyph glyph-name="dagger" unicode="&#x2020;" horiz-adv-x="1140" 
d="M143 952v271h279v266h299v-266h276v-271h-276v-710h-299v710h-279z" />
    <glyph glyph-name="daggerdbl" unicode="&#x2021;" horiz-adv-x="1140" 
d="M143 506v270h277v176h-275v271h275v266h301v-266h276v-271h-276v-176h276v-270h-276v-266h-301v266h-277z" />
    <glyph glyph-name="bullet" unicode="&#x2022;" horiz-adv-x="808" 
d="M168 743q0 107 68 172.5t170 65.5q103 0 170 -65.5t67 -172.5t-67 -171t-170 -64q-102 0 -170 64.5t-68 170.5z" />
    <glyph glyph-name="ellipsis" unicode="&#x2026;" horiz-adv-x="1546" 
d="M100 150q0 72 45.5 116.5t116.5 44.5t117.5 -45t46.5 -116q0 -70 -47 -117t-117 -47t-116 46.5t-46 117.5zM606 150q0 71 46.5 116t117.5 45t117.5 -45t46.5 -116q0 -70 -47 -117t-117 -47t-117 47t-47 117zM1106 150q0 72 46 116.5t118 44.5q71 0 116.5 -44.5
t45.5 -116.5q0 -71 -46 -117.5t-116 -46.5q-72 0 -118 46.5t-46 117.5z" />
    <glyph glyph-name="guilsinglleft" unicode="&#x2039;" horiz-adv-x="739" 
d="M129 518v111l254 342l219 -162l-180 -234l180 -239l-209 -164z" />
    <glyph glyph-name="guilsinglright" unicode="&#x203a;" horiz-adv-x="739" 
d="M88 334l180 233l-180 240l209 164l264 -346v-111l-254 -342z" />
    <glyph glyph-name="Euro" unicode="&#x20ac;" horiz-adv-x="1374" 
d="M63 477v187h111q-2 18 -2 59q0 47 2 70h-111v186h138q63 248 246 373t452 125q234 0 412 -93l-107 -278q-63 37 -142.5 57.5t-152.5 20.5q-149 0 -234.5 -48.5t-121.5 -156.5h610l-63 -186h-578q-2 -20 -2 -66q0 -43 2 -63h531l-60 -187h-440q38 -106 117.5 -154.5
t210.5 -48.5q101 0 178.5 18t163.5 54v-309q-147 -60 -359 -60q-122 0 -227.5 29.5t-193.5 89t-151 156.5t-93 225h-136z" />
    <glyph glyph-name="arrowleft" unicode="&#x2190;" horiz-adv-x="1615" 
d="M84 705l645 641l209 -209l-291 -291h797v-283h-797l291 -291l-209 -209z" />
    <glyph glyph-name="arrowup" unicode="&#x2191;" horiz-adv-x="1402" 
d="M55 801l641 643l641 -643l-209 -209l-290 291v-842h-285v842l-289 -291z" />
    <glyph glyph-name="arrowright" unicode="&#x2192;" horiz-adv-x="1609" 
d="M158 559v283h798l-290 291l208 208l644 -639l-644 -643l-208 209l290 291h-798z" />
    <glyph glyph-name="arrowdown" unicode="&#x2193;" horiz-adv-x="1400" 
d="M55 664l209 206l289 -290v841h285v-839l290 288l209 -206l-641 -646z" />
    <glyph glyph-name="minus" unicode="&#x2212;" horiz-adv-x="1300" 
d="M170 545v260h963v-260h-963z" />
    <glyph glyph-name="uni25FC" unicode="&#x25fc;" horiz-adv-x="1095" 
d="M0 0v1096h1096v-1096h-1096z" />
    <glyph glyph-name="uniF6C3" unicode="&#xf6c3;" horiz-adv-x="368" 
d="M14 -442l49 360h291l-114 -360h-226z" />
    <glyph glyph-name="glyph339" horiz-adv-x="862" 
d="M90 317q8 133 101.5 221.5t238.5 88.5q152 0 245 -88t93 -209q0 -51 -15 -95t-45 -82t-57.5 -65t-69.5 -63q-13 -11 -20 -17l-141 -125h350v-207h-674v195l269 260q104 99 129.5 129.5t25.5 65.5q0 39 -26.5 61.5t-67.5 22.5q-44 0 -73 -24.5t-36 -68.5h-227z" />
    </font>
</defs>
</svg>
