<?xml version="1.0" standalone="no"?>
<!DOCTYPE svg PUBLIC "-//W3C//DTD SVG 1.1//EN" "http://www.w3.org/Graphics/SVG/1.1/DTD/svg11.dtd" >
<svg xmlns="http://www.w3.org/2000/svg" xmlns:xlink="http://www.w3.org/1999/xlink" version="1.1">
<metadata>
Created by FontForge 20170731 at Thu Jan 21 20:33:23 2021
 By Aleksey,,,
</metadata>
<defs>
<font id="klimaregular" horiz-adv-x="1173" >
  <font-face 
    font-family="klimaregular"
    font-weight="400"
    font-stretch="normal"
    units-per-em="2048"
    panose-1="2 0 5 3 0 0 0 0 0 0"
    ascent="1565"
    descent="-483"
    x-height="1065"
    cap-height="1454"
    bbox="-41.6066 -524 1993 2423"
    underline-thickness="0"
    underline-position="0"
    unicode-range="U+0009-F6C3"
  />
<missing-glyph horiz-adv-x="368" 
 />
    <glyph glyph-name=".notdef" horiz-adv-x="368" 
 />
    <glyph glyph-name=".notdef" horiz-adv-x="368" 
 />
    <glyph glyph-name=".null" horiz-adv-x="0" 
 />
    <glyph glyph-name="uni000D" unicode="&#xd;" horiz-adv-x="471" 
 />
    <glyph glyph-name="space" unicode=" " horiz-adv-x="368" 
 />
    <glyph glyph-name="uni0009" unicode="&#x9;" horiz-adv-x="368" 
 />
    <glyph glyph-name="uni00A0" unicode="&#xa0;" horiz-adv-x="368" 
 />
    <glyph glyph-name="exclam" unicode="!" horiz-adv-x="569" 
d="M176 100q0 46 32.5 78.5t74.5 32.5q44 0 77 -32.5t33 -78.5q0 -48 -33 -80t-77 -32q-43 0 -75 32t-32 80zM197 899v555h174v-555l-45 -477h-82z" />
    <glyph glyph-name="quotedbl" unicode="&#x22;" horiz-adv-x="790" 
d="M154 1012v442h147v-442h-147zM489 1012v442h148v-442h-148z" />
    <glyph glyph-name="numbersign" unicode="#" horiz-adv-x="1564" 
d="M111 412v145h305l49 344h-354v146h374l58 407h159l-57 -407h354l58 407h157l-57 -407h297v-146h-317l-50 -344h367v-145h-387l-57 -412h-158l57 412h-354l-57 -412h-160l57 412h-284zM575 557h355l49 344h-354z" />
    <glyph glyph-name="dollar" unicode="$" horiz-adv-x="1263" 
d="M131 244l117 98q80 -99 175.5 -153t223.5 -54q154 0 239 71t85 202q0 61 -19 106.5t-48 73.5t-80 47.5t-99 29.5t-121 19q-76 10 -146 38t-130.5 74t-96.5 117t-36 156q0 167 102 273t283 128v232h155v-232q218 -18 357 -178l-115 -100q-44 58 -128 94.5t-204 36.5
q-134 0 -214.5 -65t-80.5 -185q0 -59 24 -101t73 -68.5t106.5 -41.5t140.5 -26q88 -12 161 -39.5t137 -76t100 -128t36 -182.5q0 -187 -107 -295t-286 -129v-258h-155v258q-144 14 -259.5 85.5t-189.5 172.5z" />
    <glyph glyph-name="percent" unicode="%" horiz-adv-x="1652" 
d="M145 1126q0 150 89 243t217 93q132 0 219.5 -91t87.5 -243q0 -162 -86 -252t-221 -90q-129 0 -217.5 91.5t-88.5 248.5zM223 0l1024 1454h168l-1024 -1454h-168zM276 1124q0 -99 50 -156t127 -57q76 0 126 55t50 158q0 96 -49.5 153.5t-126.5 57.5t-127 -57.5t-50 -153.5
zM885 324q0 151 89 243t218 92q133 0 220 -90.5t87 -244.5q0 -161 -86 -250.5t-221 -89.5q-129 0 -218 92t-89 248zM1020 322q0 -98 48.5 -155.5t125.5 -57.5t126.5 55.5t49.5 157.5q0 97 -49 153.5t-127 56.5q-77 0 -125.5 -56t-48.5 -154z" />
    <glyph glyph-name="ampersand" unicode="&#x26;" horiz-adv-x="1392" 
d="M86 412q0 131 76.5 240.5t220.5 181.5q-27 35 -42 55.5t-43 66.5t-42 93t-14 94q0 137 96.5 233.5t251.5 96.5t246.5 -98.5t91.5 -244.5q0 -119 -85.5 -209t-219.5 -147q-1 0 79.5 -88t161.5 -176l80 -88l178 196h197l-275 -303l267 -317h-191l-178 203
q-90 -98 -190 -154t-228 -57q-193 -1 -315.5 119.5t-122.5 302.5zM244 420q0 -121 76 -201t202 -80q90 0 172 49.5t144 126.5q1 0 -88.5 99t-179.5 198t-91 99q-118 -44 -176.5 -120.5t-58.5 -170.5zM393 1139q0 -34 8.5 -66t27.5 -62.5t31 -48t38 -47t30 -34.5
q116 44 182 108t66 139q0 90 -50.5 147t-141.5 56q-78 -2 -134.5 -53.5t-56.5 -138.5z" />
    <glyph glyph-name="quotesingle" unicode="'" horiz-adv-x="454" 
d="M154 1012v442h147v-442h-147z" />
    <glyph glyph-name="parenleft" unicode="(" horiz-adv-x="620" 
d="M100 657q0 276 64.5 478.5t200.5 410.5l131 -86q-120 -180 -178 -366t-58 -437q0 -238 69 -436.5t173 -343.5l-127 -90q-113 156 -194 385t-81 485z" />
    <glyph glyph-name="parenright" unicode=")" horiz-adv-x="620" 
d="M68 1454l127 90q52 -71 98 -160t87 -200t65 -243.5t24 -266.5q0 -277 -64 -479t-200 -410l-131 86q120 179 177.5 365t57.5 438q0 238 -68.5 437t-172.5 343z" />
    <glyph glyph-name="asterisk" unicode="*" horiz-adv-x="856" 
d="M119 1190l31 117l210 -60v240h127v-240l220 64l30 -113l-213 -68l138 -200l-97 -68l-139 195l-139 -193l-97 68l136 198z" />
    <glyph glyph-name="plus" unicode="+" horiz-adv-x="1263" 
d="M193 596v154h358v362h156v-362h364v-154h-364v-367h-156v367h-358z" />
    <glyph glyph-name="comma" unicode="," horiz-adv-x="505" 
d="M133 -199l72 377h178l-109 -377h-141z" />
    <glyph glyph-name="hyphen" unicode="-" horiz-adv-x="911" 
d="M141 512v152h629v-152h-629z" />
    <glyph glyph-name="period" unicode="." horiz-adv-x="473" 
d="M123 100q0 48 34 80.5t79 32.5q46 0 80 -32.5t34 -80.5q0 -49 -34 -81.5t-80 -32.5t-79.5 32t-33.5 82z" />
    <glyph glyph-name="slash" unicode="/" horiz-adv-x="792" 
d="M76 0l473 1454h168l-481 -1454h-160z" />
    <glyph glyph-name="zero" unicode="0" horiz-adv-x="1294" 
d="M111 717q0 192 40 339.5t113 237.5t168.5 135.5t212.5 45.5q118 0 215 -46t170 -137t113.5 -237t40.5 -336q0 -364 -145.5 -550.5t-393.5 -186.5q-246 0 -390 186t-144 549zM266 717q0 -300 99.5 -442t281.5 -142q179 0 278 143.5t99 440.5q0 310 -100 457t-277 147
q-87 0 -155.5 -34t-119.5 -105t-78.5 -188.5t-27.5 -276.5z" />
    <glyph glyph-name="one" unicode="1" horiz-adv-x="747" 
d="M74 1323l334 131h131v-1454h-158v1272l-289 -76z" />
    <glyph glyph-name="two" unicode="2" horiz-adv-x="1179" 
d="M129 1110q22 157 144.5 262t299.5 105q202 0 322.5 -113.5t122.5 -286.5q0 -39 -5 -74t-11 -61.5t-24 -60t-28 -52t-40 -54.5t-43.5 -52t-54.5 -60.5t-58 -64.5l-402 -446h703v-152h-924v143l477 533q25 28 68.5 75.5t63 69.5t47.5 58.5t40 62t21.5 59.5t9.5 70
q0 109 -77.5 182t-205.5 72q-125 -1 -197 -59t-95 -156h-154z" />
    <glyph glyph-name="three" unicode="3" horiz-adv-x="1187" 
d="M100 369h162q25 -98 113.5 -163t193.5 -65q148 0 240 76t92 205q0 134 -112 197.5t-328 68.5v131q184 2 295.5 70t111.5 192q0 113 -79 179.5t-214 66.5q-117 0 -194.5 -56.5t-108.5 -160.5h-147q17 111 87 196t166 127t200 42q112 0 211 -43t164.5 -129t70.5 -197
q3 -62 -11.5 -115t-39 -89t-58 -65t-64.5 -44.5t-63 -24.5q35 -9 68.5 -24t73 -44t69 -65.5t49 -92.5t19.5 -122q0 -198 -139 -315.5t-361 -114.5q-55 1 -112 14.5t-115 43.5t-105.5 73t-84 107t-50.5 141z" />
    <glyph glyph-name="four" unicode="4" horiz-adv-x="1204" 
d="M90 332v151l619 969h202v-973h166v-151h-166v-328h-161v332h-660zM256 483h496v774z" />
    <glyph glyph-name="five" unicode="5" horiz-adv-x="1191" 
d="M94 369h168q24 -116 105.5 -178t191.5 -62q159 0 249.5 89.5t90.5 242.5q0 155 -85.5 242.5t-231.5 87.5q-111 0 -184 -44.5t-99 -109.5l-156 22l31 795h799v-147h-662l-16 -465l10 8q10 8 20.5 15.5t28.5 18.5t41 19.5t51.5 17t65.5 13t78 4.5q131 0 235 -54.5
t167 -164.5t63 -258q0 -216 -137 -350t-351 -134q-63 0 -125.5 15.5t-120.5 48.5t-104.5 78.5t-79 110t-43.5 139.5z" />
    <glyph glyph-name="six" unicode="6" horiz-adv-x="1239" 
d="M111 475q0 121 56 247.5t146 262.5l324 488h186l-397 -594q19 26 77 50.5t146 24.5q93 0 179.5 -33.5t153 -93t106.5 -150.5t40 -198q0 -132 -65.5 -243t-184.5 -176.5t-266 -65.5q-96 0 -187 36t-160.5 98.5t-111.5 153.5t-42 193zM270 475q0 -148 100 -239t244 -89
q152 0 252.5 92t100.5 238q0 149 -99 240.5t-247 91.5q-154 0 -252.5 -93.5t-98.5 -240.5z" />
    <glyph glyph-name="seven" unicode="7" horiz-adv-x="1148" 
d="M61 1303v149h975v-131l-624 -1321h-176l624 1303h-799z" />
    <glyph glyph-name="eight" unicode="8" horiz-adv-x="1216" 
d="M111 389q0 257 256 373q-205 130 -203 336q0 160 125 267.5t315 107.5q197 0 320 -109t123 -264q0 -65 -23.5 -126t-60 -103.5t-76.5 -70.5t-76 -38q295 -97 295 -367q-2 -180 -138.5 -295.5t-357.5 -115.5q-220 0 -359 112.5t-140 292.5zM274 393q2 -115 93.5 -188.5
t242.5 -73.5q148 0 241 74.5t93 195.5q0 42 -13 77.5t-32.5 61.5t-52 48.5t-61 37t-72 28.5t-73 22t-75.5 18q-151 -43 -222 -124.5t-69 -176.5zM322 1100q0 -98 74.5 -175t203.5 -100q135 19 211 98t76 175q0 99 -77.5 164t-205.5 65q-123 0 -202.5 -64.5t-79.5 -162.5z
" />
    <glyph glyph-name="nine" unicode="9" horiz-adv-x="1226" 
d="M111 983q0 207 146.5 350.5t367.5 143.5q132 0 243.5 -60t179.5 -173.5t68 -256.5q0 -72 -19.5 -146t-57.5 -147t-70 -123.5t-80 -119.5l-318 -451h-186l389 541q-22 -19 -65 -34t-101 -15q-127 0 -240.5 61.5t-185 175.5t-71.5 254zM270 985q0 -152 99.5 -249t246.5 -97
t242.5 94t95.5 254q0 147 -96.5 243.5t-239.5 96.5q-152 0 -250 -95.5t-98 -246.5z" />
    <glyph glyph-name="colon" unicode=":" horiz-adv-x="509" 
d="M141 137q0 49 34 82t81 33q44 0 79.5 -33.5t35.5 -81.5t-35.5 -81t-79.5 -33q-47 0 -81 32.5t-34 81.5zM143 862q0 50 33.5 82.5t79.5 32.5q45 0 80 -33t35 -82q0 -46 -35.5 -80t-79.5 -34q-45 0 -79 33.5t-34 80.5z" />
    <glyph glyph-name="semicolon" unicode=";" horiz-adv-x="489" 
d="M123 -176l72 377h178l-109 -377h-141zM152 864q0 48 33.5 80.5t78.5 32.5q46 0 80.5 -32.5t34.5 -80.5q0 -49 -34.5 -81.5t-80.5 -32.5t-79 32t-33 82z" />
    <glyph glyph-name="less" unicode="&#x3c;" horiz-adv-x="1107" 
d="M98 498v127l842 434v-168l-651 -332l651 -321v-175z" />
    <glyph glyph-name="equal" unicode="=" horiz-adv-x="1505" 
d="M258 389v154h987v-154h-987zM258 864v152h987v-152h-987z" />
    <glyph glyph-name="greater" unicode="&#x3e;" horiz-adv-x="1107" 
d="M129 47v168l651 332l-651 321v174l842 -434v-127z" />
    <glyph glyph-name="question" unicode="?" horiz-adv-x="1091" 
d="M102 1090q18 163 140.5 275t308.5 112q193 0 307 -113t119 -279q1 -34 -4.5 -65t-13 -54t-25 -49t-29 -41t-38 -38.5t-40 -34.5t-46.5 -36.5t-46 -35.5q-62 -49 -91 -83.5t-45.5 -90.5t-16.5 -145h-148q0 92 15.5 162t48 120.5t64 82t81.5 69.5q56 42 82.5 63.5
t52.5 50.5t34.5 56.5t8.5 64.5q0 108 -74 177t-200 69q-110 0 -195 -67.5t-102 -184.5zM403 96q0 48 33 80.5t78 32.5q44 0 75.5 -32t31.5 -81q0 -46 -31.5 -78t-75.5 -32q-45 0 -78 32t-33 78z" />
    <glyph glyph-name="at" unicode="@" horiz-adv-x="1968" 
d="M190 602q0 171 62.5 324.5t169 264.5t255.5 176t314 65t311 -61t250.5 -166t165 -254t60.5 -318q0 -258 -97.5 -394.5t-244.5 -136.5q-45 0 -94.5 20t-98.5 71.5t-67 125.5q-6 -40 -63.5 -76.5t-129.5 -37.5q-167 -3 -264 110t-94 289q2 172 96 279t254 104
q89 -1 145 -52.5t62 -100.5l2 112l112 -6l-12 -463q-6 -120 35 -185t115 -63q39 1 72.5 20.5t63 63t47 125t17.5 193.5q0 144 -49.5 269t-135 212t-204.5 135.5t-254 46.5q-137 -2 -259.5 -57.5t-209.5 -148t-137.5 -219t-50.5 -265.5q0 -136 47.5 -257.5t134.5 -214.5
t221.5 -147.5t298.5 -54.5q23 0 51 3t45 7l17 3q2 -8 5 -21.5t9 -41.5t10 -47t3 -19q-24 -21 -140 -21q-176 0 -332 59.5t-269.5 164.5t-179 257t-65.5 328zM762 596q-1 -120 59.5 -192t155.5 -72q80 5 126.5 69t49.5 189q3 126 -43.5 197.5t-134.5 72.5q-95 1 -152.5 -73
t-60.5 -191z" />
    <glyph glyph-name="A" unicode="A" horiz-adv-x="1380" 
d="M59 0l549 1454h164l549 -1454h-164l-139 367h-651l-140 -367h-168zM422 516h539l-271 709z" />
    <glyph glyph-name="B" unicode="B" horiz-adv-x="1273" 
d="M168 0v1454h461q191 0 312.5 -108t121.5 -279q0 -123 -50 -193t-114 -96q46 -9 92.5 -37.5t88.5 -74t68 -113t26 -145.5q0 -82 -29.5 -154t-87 -129.5t-152.5 -91t-215 -33.5h-522zM332 147h352q163 0 245.5 70t82.5 201q0 123 -91.5 191.5t-238.5 68.5h-350v-531z
M332 821h305q123 0 194.5 68.5t71.5 175.5q0 46 -17 88t-49.5 77t-88 56t-125.5 21h-291v-486z" />
    <glyph glyph-name="C" unicode="C" horiz-adv-x="1437" 
d="M102 717q0 162 38.5 293t102 216t149 142.5t174.5 82t184 24.5q144 0 267.5 -57t207.5 -167t106 -254h-160q-27 147 -146.5 235.5t-274.5 88.5q-71 0 -137 -17.5t-131 -61.5t-113 -111t-77.5 -173.5t-29.5 -240.5q0 -104 20.5 -192t57 -150.5t83.5 -110.5t102.5 -76.5
t111.5 -42.5t113 -14q156 0 278 97t148 243h159q-33 -221 -199 -356t-386 -135q-74 0 -148.5 18.5t-148 55t-136 97.5t-111.5 140t-76.5 188.5t-27.5 237.5z" />
    <glyph glyph-name="D" unicode="D" horiz-adv-x="1398" 
d="M170 0v1454h461q137 0 256 -45t212 -132t147 -228t54 -320q0 -150 -34.5 -272.5t-95.5 -206.5t-146 -141t-183 -83t-210 -26h-461zM328 152h303q237 0 374.5 144t137.5 433q0 143 -39.5 254.5t-110 180.5t-162 104t-200.5 35h-303v-1151z" />
    <glyph glyph-name="E" unicode="E" horiz-adv-x="1232" 
d="M176 0v1454h907v-149h-749v-492h596v-151h-596v-512h768v-150h-926z" />
    <glyph glyph-name="F" unicode="F" horiz-adv-x="1239" 
d="M176 0v1454h940v-151h-782v-494h643v-150h-643v-659h-158z" />
    <glyph glyph-name="G" unicode="G" horiz-adv-x="1437" 
d="M102 735q0 152 36.5 277.5t97.5 210t142.5 142.5t168.5 84t178 26q144 0 271.5 -55.5t213 -159.5t103.5 -236h-158q-18 117 -141.5 208t-288.5 91q-67 0 -131 -19.5t-125 -64.5t-106.5 -111.5t-73 -168t-27.5 -226.5q0 -134 27.5 -240.5t72.5 -173.5t106.5 -111
t124.5 -61.5t132 -17.5q91 0 169 26.5t142.5 81.5t102 151t37.5 224h-381v148h536v-135q0 -139 -34.5 -251t-92.5 -184.5t-137 -121.5t-164 -70t-178 -21q-90 0 -174.5 22.5t-167.5 78t-144 139.5t-99 217t-38 301z" />
    <glyph glyph-name="H" unicode="H" horiz-adv-x="1390" 
d="M182 0v1454h158v-651h711v651h157v-1454h-157v651h-711v-651h-158z" />
    <glyph glyph-name="I" unicode="I" horiz-adv-x="507" 
d="M176 0v1454h158v-1454h-158z" />
    <glyph glyph-name="J" unicode="J" horiz-adv-x="997" 
d="M20 133l111 105q109 -103 246 -103q67 0 113 14t86 53t59.5 116t19.5 194v942h158v-940q0 -123 -20.5 -216t-57 -153t-92.5 -97.5t-120.5 -52.5t-147.5 -15q-107 0 -200.5 43.5t-154.5 109.5z" />
    <glyph glyph-name="K" unicode="K" horiz-adv-x="1323" 
d="M176 0v1454h158v-772l696 772h211l-579 -641l602 -813h-195l-514 696l-221 -245v-451h-158z" />
    <glyph glyph-name="L" unicode="L" horiz-adv-x="1146" 
d="M176 0v1454h158v-1302h721v-152h-879z" />
    <glyph glyph-name="M" unicode="M" horiz-adv-x="1689" 
d="M174 0v1454h193l475 -1089l481 1089h193v-1454h-158v1151l-451 -1020h-139l-438 1012v-1143h-156z" />
    <glyph glyph-name="N" unicode="N" horiz-adv-x="1443" 
d="M174 0v1454h186l752 -1200v1200h158v-1454h-191l-747 1194v-1194h-158z" />
    <glyph glyph-name="O" unicode="O" horiz-adv-x="1437" 
d="M102 737q0 147 34 269.5t92.5 207.5t137.5 144.5t168 87t185 27.5q95 0 184 -28t168 -87.5t137.5 -145t92.5 -207.5t34 -268q0 -151 -34.5 -277.5t-93 -213t-137.5 -146.5t-167.5 -88t-183.5 -28q-93 0 -180 26t-167 84.5t-139.5 144t-95 214t-35.5 284.5zM260 737
q0 -127 26 -229.5t69.5 -171t103 -114.5t124.5 -66.5t136 -20.5q70 0 136 21.5t125.5 69t103.5 116t70 170.5t26 225q0 120 -26.5 218.5t-70.5 165.5t-103.5 113t-125 66.5t-135.5 20.5q-90 0 -170.5 -34.5t-146 -102.5t-104 -183t-38.5 -264z" />
    <glyph glyph-name="P" unicode="P" horiz-adv-x="1263" 
d="M174 0v1454h494q221 0 352 -123.5t131 -312.5q0 -184 -132 -304t-349 -120h-338v-594h-158zM332 745h330q144 0 236.5 73t92.5 200q0 132 -93 208.5t-239 76.5h-327v-558z" />
    <glyph glyph-name="Q" unicode="Q" horiz-adv-x="1437" 
d="M102 737q0 147 34 269.5t92.5 207.5t137.5 144.5t168 87t185 27.5q95 0 184 -28t168 -87.5t137.5 -145t92.5 -207.5t34 -268q0 -206 -60.5 -358.5t-166.5 -247.5l158 -199l-127 -90l-160 201q-118 -59 -260 -59q-93 0 -180 26t-167 84.5t-139.5 144t-95 214t-35.5 284.5z
M260 737q0 -127 26 -229.5t69.5 -171t103 -114.5t124.5 -66.5t136 -20.5q70 0 136 21.5t125.5 69t103.5 116t70 170.5t26 225q0 120 -26.5 218.5t-70.5 165.5t-103.5 113t-125 66.5t-135.5 20.5q-90 0 -170.5 -34.5t-146 -102.5t-104 -183t-38.5 -264z" />
    <glyph glyph-name="R" unicode="R" horiz-adv-x="1300" 
d="M174 0v1454h494q117 0 210.5 -32.5t153.5 -89.5t91.5 -133.5t31.5 -166.5q0 -153 -85.5 -257.5t-199.5 -133.5l301 -641h-174l-284 608h-381v-608h-158zM332 758h334q148 0 237.5 73.5t89.5 200.5q0 128 -87.5 199.5t-239.5 71.5h-334v-545z" />
    <glyph glyph-name="S" unicode="S" horiz-adv-x="1198" 
d="M90 244l113 96q88 -103 181 -154t222 -51q154 0 239 71t85 202q0 61 -19 106.5t-48 73.5t-80 47.5t-99 29.5t-121 19q-76 10 -146 38t-130.5 74t-96.5 117t-36 156q0 187 125 296.5t344 109.5q150 0 251.5 -48t176.5 -135l-115 -100q-44 58 -128 94.5t-204 36.5
q-134 0 -214.5 -65t-80.5 -185q0 -59 24 -101t73 -68.5t106.5 -41.5t140.5 -26q88 -12 161 -39.5t137 -76t100 -128t36 -182.5q0 -209 -132 -318.5t-345 -109.5q-308 0 -520 262z" />
    <glyph glyph-name="T" unicode="T" horiz-adv-x="1206" 
d="M96 1303v151h1014v-151h-428v-1303h-160v1303h-426z" />
    <glyph glyph-name="U" unicode="U" horiz-adv-x="1357" 
d="M131 594v860h158v-862q0 -228 107.5 -345.5t283.5 -117.5q178 0 284.5 118t106.5 345v862h156v-860q0 -293 -148.5 -455t-398.5 -162q-247 0 -398 160.5t-151 456.5z" />
    <glyph glyph-name="V" unicode="V" horiz-adv-x="1310" 
d="M68 1454h168l419 -1206l422 1206h166l-506 -1454h-162z" />
    <glyph glyph-name="W" unicode="W" horiz-adv-x="1896" 
d="M68 1454h163l326 -1184l336 1084h123l334 -1094l313 1194h166l-389 -1454h-174l-312 1016l-311 -1016h-178z" />
    <glyph glyph-name="X" unicode="X" horiz-adv-x="1296" 
d="M78 0l467 723l-455 731h186l367 -594l387 594h189l-480 -731l447 -723h-185l-358 582l-379 -582h-186z" />
    <glyph glyph-name="Y" unicode="Y" horiz-adv-x="1271" 
d="M70 1454h180l387 -696l385 696h180l-487 -879v-575h-158v575z" />
    <glyph glyph-name="Z" unicode="Z" horiz-adv-x="1171" 
d="M86 0v150l788 1153h-763v151h970v-133l-798 -1169h802v-152h-999z" />
    <glyph glyph-name="bracketleft" unicode="[" horiz-adv-x="722" 
d="M168 -119v1657h450v-152h-294v-1353h294v-152h-450z" />
    <glyph glyph-name="backslash" unicode="\" horiz-adv-x="800" 
d="M76 1454h166l481 -1454h-158z" />
    <glyph glyph-name="bracketright" unicode="]" horiz-adv-x="722" 
d="M78 31h295v1353h-295v152h450v-1657h-450v152z" />
    <glyph glyph-name="asciicircum" unicode="^" horiz-adv-x="921" 
d="M113 1008l293 446h120l301 -450l-139 -23l-219 309l-217 -307z" />
    <glyph glyph-name="uni005F_slash" horiz-adv-x="1095" 
d="M6 0h1081v-143h-1081v143z" />
    <glyph glyph-name="grave" unicode="`" horiz-adv-x="387" 
d="M8 1417l158 125l213 -358h-146z" />
    <glyph glyph-name="a" unicode="a" horiz-adv-x="1089" 
d="M109 297q0 145 112 243.5t309 98.5q66 0 147 -14t126 -31v51q0 83 -25.5 143t-68.5 91.5t-89.5 46t-99.5 14.5q-154 0 -227 -98l-129 65q56 82 149.5 130t221.5 48q63 0 122 -15t114.5 -49.5t96.5 -85t65.5 -126.5t24.5 -168v-641h-127l-20 135q-31 -55 -136 -103
t-216 -48q-149 0 -249.5 92.5t-100.5 220.5zM262 305q0 -88 62.5 -136t169.5 -48q93 0 192 64t117 130v156q-41 11 -121 19q-72 8 -137 8h-15q-133 -3 -200.5 -57t-67.5 -136z" />
    <glyph glyph-name="b" unicode="b" horiz-adv-x="1232" 
d="M164 0v1454h164v-561q42 82 140.5 137t207.5 55q63 0 125 -20t120 -63.5t102 -105.5t70.5 -154t26.5 -201q0 -138 -39 -248.5t-103 -176.5t-140 -100t-156 -34q-117 0 -218.5 56t-139.5 134v-172h-160zM311 539q0 -102 33 -185.5t85.5 -133.5t113 -76.5t121.5 -26.5
q58 0 110 25.5t93.5 75.5t66 133t24.5 188q0 201 -88.5 303t-228.5 102q-59 0 -116.5 -27t-106 -76t-78 -128t-29.5 -174z" />
    <glyph glyph-name="c" unicode="c" horiz-adv-x="1165" 
d="M111 522q0 134 45 244.5t117 178t158.5 104t174.5 36.5q108 0 199 -37.5t158.5 -119t91.5 -197.5h-162q-63 207 -287 207q-47 0 -93.5 -14t-91.5 -46.5t-79 -79.5t-55 -119.5t-21 -160.5q0 -102 32 -182.5t83 -126.5t108.5 -69t114.5 -23q108 0 183 47.5t106 132.5h162
q-35 -152 -157.5 -239t-293.5 -87q-70 0 -138.5 20.5t-133 65t-113.5 107.5t-78.5 155.5t-29.5 202.5z" />
    <glyph glyph-name="d" unicode="d" horiz-adv-x="1226" 
d="M113 541q0 108 27 199t72 154t105 106.5t126 64t135 20.5q96 0 194 -58t127 -134v561h164v-1454h-133l-21 172q-33 -82 -129 -136t-202 -54q-64 0 -128.5 20.5t-125.5 65.5t-107.5 109t-75 158.5t-28.5 205.5zM274 539q0 -89 21.5 -161.5t55.5 -118t78 -76.5t86.5 -43.5
t84.5 -12.5t84.5 15t83.5 48t72.5 80t51 117t19.5 152q0 187 -92 293t-217 106q-62 0 -117.5 -21.5t-104 -66.5t-77.5 -125t-29 -186z" />
    <glyph glyph-name="e" unicode="e" 
d="M111 530q0 130 40.5 237t109 175.5t155 105.5t180.5 37q95 0 178.5 -33t148.5 -94.5t102.5 -159t37.5 -218.5v-103h-793q1 -88 31.5 -158.5t80.5 -113t110.5 -64.5t125.5 -22q103 0 191 34.5t133 96.5l111 -94q-140 -181 -443 -181q-76 0 -147.5 21t-135.5 66t-112 109.5
t-76 156.5t-28 202zM270 612h637q0 154 -89.5 242t-221.5 88q-131 0 -224 -92t-102 -238z" />
    <glyph glyph-name="f" unicode="f" horiz-adv-x="790" 
d="M102 920v145h160v70q0 169 90 266.5t260 97.5h76v-147h-27q-122 0 -177 -41q-62 -46 -62 -181v-65h260v-145h-260v-920h-160v920h-160z" />
    <glyph glyph-name="g" unicode="g" horiz-adv-x="1222" 
d="M127 530q0 132 39 240.5t104 177t146 105.5t168 37q109 0 196.5 -47t120.5 -121l25 143h137v-1063q0 -219 -133 -347t-338 -128q-128 0 -242.5 51t-177.5 143l139 76q101 -119 279 -119q146 0 228.5 85t82.5 237v166q-28 -78 -121 -131t-205 -53q-87 0 -167.5 37
t-143 105t-100 173.5t-37.5 232.5zM287 524q0 -188 89 -291q89 -104 224 -104q137 0 225 107.5t88 293.5q0 212 -85 311t-228 99q-64 0 -120 -25.5t-99.5 -74.5t-68.5 -129.5t-25 -186.5z" />
    <glyph glyph-name="h" unicode="h" horiz-adv-x="1157" 
d="M164 0v1454h160v-553q25 74 114.5 129t184.5 55q190 0 295.5 -121.5t105.5 -359.5v-604h-162v604q0 179 -64 256.5t-194 77.5q-122 0 -201 -92.5t-79 -241.5v-604h-160z" />
    <glyph glyph-name="i" unicode="i" horiz-adv-x="505" 
d="M147 1376q0 43 32 72t73 29q42 0 74 -29t32 -72q0 -44 -31.5 -73t-74.5 -29q-41 0 -73 29t-32 73zM182 0v1065h158v-1065h-158z" />
    <glyph glyph-name="j" unicode="j" horiz-adv-x="552" 
d="M0 -262q10 -1 19 -1q79 0 135 59q63 67 63 202v1067h160v-1069q0 -87 -22 -159t-59 -119t-86 -78.5t-102 -43.5q-40 -9 -81 -9q-13 0 -27 1v150zM190 1368q0 44 31 72t76 28q42 0 72 -28.5t30 -71.5q0 -45 -30 -73.5t-72 -28.5q-45 0 -76 28.5t-31 73.5z" />
    <glyph glyph-name="k" unicode="k" horiz-adv-x="1093" 
d="M174 0v1454h160v-862l463 473h213l-432 -442l475 -623h-191l-395 518l-133 -129v-389h-160z" />
    <glyph glyph-name="l" unicode="l" horiz-adv-x="507" 
d="M174 0v1454h160v-1454h-160z" />
    <glyph glyph-name="m" unicode="m" horiz-adv-x="1753" 
d="M174 0v1065h119l24 -145q31 67 111 120.5t180 53.5q111 0 194 -56.5t109 -152.5q40 93 128.5 151t207.5 58q174 0 268.5 -119.5t94.5 -319.5v-655h-158v643q0 155 -53.5 228t-169.5 73q-118 0 -188 -80t-70 -221v-643h-158v641v22q0 281 -221 281q-122 0 -191 -79.5
t-69 -223.5v-641h-158z" />
    <glyph glyph-name="n" unicode="n" horiz-adv-x="1171" 
d="M174 0v1065h121l27 -145q34 75 124.5 125.5t194.5 50.5q174 0 280.5 -121t106.5 -336v-639h-160v637q0 152 -65 231.5t-197 79.5q-120 0 -196 -84t-76 -227v-637h-160z" />
    <glyph glyph-name="o" unicode="o" horiz-adv-x="1208" 
d="M111 532q0 141 42.5 250.5t113.5 173.5t156.5 96.5t178.5 32.5q94 0 180 -33.5t158 -98.5t115 -174t43 -247q0 -109 -29.5 -201t-78.5 -155t-113.5 -108t-134 -65.5t-140.5 -20.5q-90 0 -175.5 34t-157 99t-115 173t-43.5 244zM266 532q0 -99 30 -178.5t79 -127
t107.5 -72.5t119.5 -25q48 0 94.5 14t91.5 46t79 77.5t54.5 114.5t20.5 151q0 105 -30 186.5t-80 128t-108 70t-122 23.5q-66 0 -124 -23t-106.5 -69.5t-77 -128t-28.5 -187.5z" />
    <glyph glyph-name="p" unicode="p" horiz-adv-x="1239" 
d="M174 -436v1501h129l27 -158q40 80 141.5 130t204.5 50q63 0 125.5 -19.5t122 -63t104.5 -106.5t72.5 -157t27.5 -206q0 -141 -40 -251t-107 -174t-146 -96t-165 -32q-101 0 -205 53.5t-131 128.5v-600h-160zM324 535q0 -103 29 -184t77 -128.5t104 -71.5t115 -24
q60 0 115 23.5t101.5 70t74 128t27.5 186.5q0 107 -27.5 188t-74 126.5t-101 68t-115.5 22.5q-42 0 -85 -12.5t-87 -42.5t-77.5 -75t-54.5 -116t-21 -159z" />
    <glyph glyph-name="q" unicode="q" horiz-adv-x="1239" 
d="M111 535q0 112 27.5 206t72.5 157t104.5 106.5t122 63t125.5 19.5q103 0 204.5 -50t141.5 -130l23 158h133v-1501h-160v600q-27 -75 -131 -128.5t-205 -53.5q-86 0 -165 32t-146 96t-107 174t-40 251zM272 535q0 -105 27.5 -186.5t74 -128t101.5 -70t115 -23.5
q59 0 115.5 24t105 71.5t78 128.5t29.5 184q0 88 -21.5 159t-55.5 116t-78.5 75t-87.5 42.5t-85 12.5q-53 0 -106 -22.5t-102 -67.5t-79.5 -127t-30.5 -188z" />
    <glyph glyph-name="r" unicode="r" horiz-adv-x="790" 
d="M174 0v1065h121l27 -135q37 65 118 110t164 45q27 0 72.5 -3t64.5 -3v-151q-102 8 -145 8q-121 0 -191.5 -81.5t-70.5 -238.5v-616h-160z" />
    <glyph glyph-name="s" unicode="s" horiz-adv-x="1028" 
d="M100 129l101 115q61 -53 143 -85t172 -32q122 0 191 45.5t69 126.5q0 87 -67.5 122t-255.5 54q-65 6 -120 26.5t-100 55.5t-70.5 90.5t-25.5 126.5q0 129 113.5 220t277.5 91q123 0 216 -35.5t147 -91.5l-100 -110q-4 4 -12.5 10.5t-35.5 23t-56 29t-73 23t-88 10.5
q-99 0 -166 -43.5t-67 -114.5q0 -86 61 -118t207 -45q375 -35 375 -324q0 -143 -116.5 -233.5t-301.5 -90.5q-237 0 -418 154z" />
    <glyph glyph-name="t" unicode="t" horiz-adv-x="733" 
d="M61 922v143h168l52 297h116v-297h254v-143h-254v-584q0 -199 178 -199q53 0 76 2v-141q-36 -8 -102 -8q-128 0 -218.5 84.5t-90.5 245.5v600h-179z" />
    <glyph glyph-name="u" unicode="u" 
d="M143 430v635h162v-635q0 -149 71.5 -227t194.5 -78q119 0 194 81t75 224v635h159v-1065h-120l-25 154q-26 -72 -119.5 -124.5t-185.5 -52.5q-175 0 -290.5 118.5t-115.5 334.5z" />
    <glyph glyph-name="v" unicode="v" horiz-adv-x="1081" 
d="M61 1065h172l308 -840l307 840h172l-402 -1065h-155z" />
    <glyph glyph-name="w" unicode="w" horiz-adv-x="1546" 
d="M61 1065h166l230 -801l256 801h125l264 -797l215 797h168l-303 -1065h-156l-252 735l-250 -735h-147z" />
    <glyph glyph-name="x" unicode="x" horiz-adv-x="1118" 
d="M80 0l383 530l-369 535h193l272 -399l285 399h194l-376 -520l372 -545h-192l-275 401l-295 -401h-192z" />
    <glyph glyph-name="y" unicode="y" horiz-adv-x="1060" 
d="M61 1065h170l297 -856l301 856h170l-550 -1473h-158l158 406v4z" />
    <glyph glyph-name="z" unicode="z" horiz-adv-x="960" 
d="M104 0v127l549 791h-538v147h727v-117l-551 -798h565v-150h-752z" />
    <glyph glyph-name="braceleft" unicode="{" horiz-adv-x="790" 
d="M84 643v145q106 0 159.5 47.5t53.5 149.5v277q0 136 80.5 221.5t214.5 91.5q8 2 47 2v-150q-190 0 -190 -178v-272q0 -214 -127 -258q124 -39 124 -242v-287q0 -47 19.5 -83t50.5 -54.5t62 -27.5t61 -9v-147h-51q-121 9 -206 94t-85 215v289q0 97 -51.5 136.5
t-161.5 39.5z" />
    <glyph glyph-name="bar" unicode="|" horiz-adv-x="585" 
d="M215 -272v1929h156v-1929h-156z" />
    <glyph glyph-name="braceright" unicode="}" horiz-adv-x="800" 
d="M131 18q191 0 191 179v272q0 214 127 258q-125 39 -125 242v286q0 47 -19.5 83t-50.5 55t-62 28t-61 9v147h51q121 -9 206 -94t85 -215v-289q0 -97 51.5 -136.5t161.5 -39.5v-146q-107 0 -160 -47t-53 -149v-277q0 -136 -80.5 -221.5t-214.5 -91.5q-8 -2 -47 -2v149z" />
    <glyph glyph-name="asciitilde" unicode="~" horiz-adv-x="1218" 
d="M131 672q16 78 99 147.5t204 69.5q64 0 122 -20t92 -44.5t74.5 -44.5t74.5 -20q62 0 104 35t49 77l140 -30q-24 -97 -105.5 -162.5t-210.5 -65.5q-58 0 -112 20t-88.5 44.5t-78 44.5t-81.5 20q-60 0 -98.5 -35t-49.5 -79z" />
    <glyph glyph-name="exclamdown" unicode="&#xa1;" horiz-adv-x="569" 
d="M135 1118q0 48 33.5 80.5t77.5 32.5q42 0 74 -32.5t32 -80.5q0 -46 -32 -78t-74 -32q-44 0 -77.5 32t-33.5 78zM158 -236v555l45 478h82l47 -478v-555h-174z" />
    <glyph glyph-name="cent" unicode="&#xa2;" horiz-adv-x="1144" 
d="M111 522q0 134 45 244.5t117 178t158.5 104t174.5 36.5l43 213h172l-51 -237q109 -37 183.5 -120t101.5 -210h-162q-63 207 -287 207q-47 0 -93.5 -14t-91.5 -46.5t-79 -79.5t-55 -119.5t-21 -160.5q0 -102 32 -182.5t83 -126.5t108.5 -69t114.5 -23q108 0 183 47.5
t106 132.5h162q-35 -151 -155.5 -238.5t-283.5 -87.5l-57 -225h-166l53 252q-145 50 -240 184t-95 340z" />
    <glyph glyph-name="sterling" unicode="&#xa3;" horiz-adv-x="1185" 
d="M78 723v156h139q-51 104 -51 241q0 71 32 138t89 118.5t142 83t183 31.5q90 0 180 -30.5t150 -78.5l-29 -151q-131 108 -299 108q-130 0 -207 -68t-77 -163q0 -54 11 -103t19.5 -69.5t26.5 -56.5h356v-156h-294q6 -15 15 -42t20.5 -82t11.5 -103q0 -184 -144 -338h666
v-158h-903v125q5 6 27.5 26t44.5 41t49.5 56.5t48 72t35 87t14.5 102.5q0 107 -55 213h-201z" />
    <glyph glyph-name="yen" unicode="&#xa5;" horiz-adv-x="1259" 
d="M66 1454h180l387 -696l385 696h180l-405 -731h272v-148h-354v-178h354v-147h-354v-250h-158v250h-377v147h377v178h-377v148h295z" />
    <glyph glyph-name="brokenbar" unicode="&#xa6;" horiz-adv-x="589" 
d="M211 -233v788h170v-788h-170zM211 831v807h170v-807h-170z" />
    <glyph glyph-name="section" unicode="&#xa7;" horiz-adv-x="1087" 
d="M123 113l92 116q153 -118 336 -110q98 5 163.5 52.5t61.5 125.5q-4 84 -46 109t-134 20q-38 -3 -78 0q-86 7 -141 27q-103 30 -168.5 96t-71.5 166q-3 72 30.5 139.5t102.5 112.5q-92 70 -98 198q-8 136 88 225t291 99q221 13 360 -113l-88 -116q-4 4 -11 10.5t-32.5 23
t-54 28.5t-75 20.5t-95.5 5.5q-115 -6 -175.5 -51.5t-57.5 -110.5q5 -75 41 -110t139 -38h14h59q171 7 277.5 -75t112.5 -207q3 -72 -29.5 -137t-93.5 -111q82 -67 88 -203q7 -141 -94.5 -231t-274.5 -99q-246 -13 -438 138zM289 735q3 -82 75 -127.5t222 -38.5
q98 5 163.5 53t61.5 126q-3 61 -51 101.5t-150 47.5q-37 3 -88 0q-116 -6 -176 -51.5t-57 -110.5z" />
    <glyph glyph-name="dieresis" unicode="&#xa8;" horiz-adv-x="649" 
d="M8 1335q0 42 32 73.5t71 31.5q41 0 72.5 -31t31.5 -74q0 -42 -31 -73t-73 -31q-39 0 -71 31t-32 73zM434 1335q0 42 31.5 73.5t71.5 31.5t72 -31.5t32 -73.5t-32 -73t-72 -31t-71.5 31t-31.5 73z" />
    <glyph glyph-name="copyright" unicode="&#xa9;" horiz-adv-x="1826" 
d="M176 725q0 163 57.5 302.5t156.5 235t235.5 149.5t292.5 54q153 0 288 -54t233 -149.5t155 -235t57 -302.5q0 -219 -96 -390.5t-264 -264.5t-380 -93q-209 0 -376 91.5t-263 263t-96 393.5zM322 725q0 -135 46 -250.5t125.5 -195.5t189 -125t235.5 -45q125 0 235.5 46
t190.5 126.5t126 195.5t46 248q0 182 -82 322t-217 212t-299 72q-165 0 -301 -76.5t-215.5 -216t-79.5 -313.5zM586 715q0 165 97.5 267.5t240.5 102.5q113 0 201 -69t104 -193h-139q-9 61 -55 97t-111 36q-83 0 -137 -62.5t-54 -176.5q0 -115 51.5 -171.5t139.5 -56.5
q64 0 110 32t56 89h139q-8 -77 -54.5 -136t-112.5 -88.5t-138 -29.5q-144 0 -241 98t-97 261z" />
    <glyph glyph-name="ordfeminine" unicode="&#xaa;" horiz-adv-x="833" 
d="M109 850v22q0 106 75.5 166t214.5 60q48 0 94.5 -9.5t65.5 -27.5v104q-3 111 -156 111q-105 0 -196 -68l-68 97q122 92 277 92q151 0 217.5 -64t66.5 -211v-483h-131v92q-5 -9 -18 -23t-38.5 -32.5t-68.5 -31.5t-94 -13q-100 0 -170.5 62.5t-70.5 156.5zM121 326v114h584
v-114h-584zM252 870q0 -56 36.5 -88t96.5 -32q62 0 109.5 27t64.5 61v131q-19 18 -63 26.5t-82 8.5q-71 0 -116.5 -38t-45.5 -96z" />
    <glyph glyph-name="guillemotleft" unicode="&#xab;" horiz-adv-x="1163" 
d="M160 539v90l274 313l109 -92l-232 -268l232 -267l-107 -92zM582 539v90l274 313l109 -92l-232 -268l232 -267l-107 -92z" />
    <glyph glyph-name="registered" unicode="&#xae;" horiz-adv-x="1820" 
d="M176 729q0 162 57.5 301t156.5 234t234 148.5t287 53.5q204 0 371 -91t265 -260.5t98 -385.5q0 -219 -96.5 -390t-264.5 -264t-379 -93q-154 0 -288.5 53.5t-231.5 149.5t-153 236.5t-56 307.5zM319 729q0 -135 45.5 -250.5t125 -194.5t188.5 -124t233 -45
q125 0 234.5 45.5t188.5 126t125 195t46 247.5q0 136 -47.5 250t-128 190.5t-189 119t-229.5 42.5q-163 0 -298 -76t-214.5 -214.5t-79.5 -311.5zM672 371v696h272q114 0 175 -65t61 -156q0 -66 -39 -126t-80 -71l131 -278h-127l-127 256h-137v-256h-129zM801 750h112
q127 0 127 96q0 51 -30.5 75.5t-102.5 24.5h-106v-196z" />
    <glyph glyph-name="macron" unicode="&#xaf;" horiz-adv-x="759" 
d="M8 1221v137h744v-137h-744z" />
    <glyph glyph-name="degree" unicode="&#xb0;" horiz-adv-x="872" 
d="M88 1116q0 141 104 245.5t242 104.5q141 0 246.5 -104.5t105.5 -245.5t-105.5 -245.5t-246.5 -104.5q-139 0 -242.5 104t-103.5 246zM229 1116q0 -88 60.5 -149.5t146.5 -61.5t146.5 61.5t60.5 149.5t-60.5 148.5t-146.5 60.5t-146.5 -61.5t-60.5 -147.5z" />
    <glyph glyph-name="plusminus" unicode="&#xb1;" horiz-adv-x="1314" 
d="M207 109v143h364v364h-358v154h358v363h156v-363h365v-154h-365v-364h356v-143h-876z" />
    <glyph glyph-name="acute" unicode="&#xb4;" horiz-adv-x="387" 
d="M8 1563l213 358l158 -125l-225 -233h-146z" />
    <glyph glyph-name="paragraph" unicode="&#xb6;" horiz-adv-x="1251" 
d="M143 1022q0 188 124.5 310t332.5 122h193v-1454h-164v600h-33q-208 0 -330.5 118.5t-122.5 303.5zM967 4v1454h147v-1454h-147z" />
    <glyph glyph-name="periodcentered" unicode="&#xb7;" horiz-adv-x="321" 
d="M51 717q0 46 33.5 79t75.5 33q44 0 77 -33t33 -79t-33 -77.5t-77 -31.5q-43 0 -76 31.5t-33 77.5z" />
    <glyph glyph-name="cedilla" unicode="&#xb8;" horiz-adv-x="1222" 
d="M385 -453l47 123q90 -37 143 -37q41 0 71 21t30 59q0 77 -129 90l-80 9l45 208h104l-14 -90q91 -11 150 -69t59 -148q0 -92 -61 -153.5t-177 -61.5q-13 0 -25.5 1t-25.5 3.5t-22.5 4t-23.5 6t-20.5 6.5t-20.5 7.5t-17 7.5l-18 7z" />
    <glyph glyph-name="ordmasculine" unicode="&#xba;" horiz-adv-x="847" 
d="M109 981v74q0 154 86.5 245t226.5 91q143 0 231 -91.5t88 -244.5v-74q0 -160 -90 -251t-229 -91q-136 0 -224.5 93.5t-88.5 248.5zM129 326v114h588v-114h-588zM248 979q0 -101 47 -156t127 -55q84 0 132 54t48 157v76q0 99 -48 156t-132 57q-86 0 -130 -56t-44 -157v-76
z" />
    <glyph glyph-name="guillemotright" unicode="&#xbb;" horiz-adv-x="1163" 
d="M168 326l231 268l-231 266l106 92l277 -315v-90l-275 -314zM590 326l231 268l-231 266l106 92l277 -315v-90l-275 -314z" />
    <glyph glyph-name="questiondown" unicode="&#xbf;" horiz-adv-x="1091" 
d="M72 -16q-1 34 4.5 65t12.5 54t24.5 49t29 41t38.5 39t39.5 34t46.5 36t46 36q62 49 91 83.5t46 90.5t17 145h147q0 -92 -15.5 -162t-47.5 -120.5t-63.5 -82t-81.5 -69.5q-107 -79 -143 -122t-36 -113q0 -108 74.5 -177t200.5 -69q110 0 195 67.5t102 184.5l147 -14
q-18 -163 -140 -275.5t-308 -112.5q-193 0 -307 113t-119 279zM428 973q0 47 32 78.5t75 31.5q45 0 77.5 -31.5t32.5 -78.5q0 -49 -32.5 -81t-77.5 -32q-44 0 -75.5 32t-31.5 81z" />
    <glyph glyph-name="Agrave" unicode="&#xc0;" horiz-adv-x="1380" 
d="M59 0l549 1454h164l549 -1454h-164l-139 367h-651l-140 -367h-168zM418 1839l157 125l213 -358h-145zM422 516h539l-271 709z" />
    <glyph glyph-name="Aacute" unicode="&#xc1;" horiz-adv-x="1380" 
d="M59 0l549 1454h164l549 -1454h-164l-139 367h-651l-140 -367h-168zM422 516h539l-271 709zM594 1618l213 358l158 -125l-226 -233h-145z" />
    <glyph glyph-name="Acircumflex" unicode="&#xc2;" horiz-adv-x="1380" 
d="M59 0l549 1454h164l549 -1454h-164l-139 367h-651l-140 -367h-168zM389 1655l221 225h158l219 -221l-82 -76l-215 152l-221 -154zM422 516h539l-271 709z" />
    <glyph glyph-name="Atilde" unicode="&#xc3;" horiz-adv-x="1380" 
d="M59 0l549 1454h164l549 -1454h-164l-139 367h-651l-140 -367h-168zM317 1638q8 77 70 138.5t156 68.5q56 3 104.5 -9.5t76 -29.5t59 -30.5t57.5 -12.5q48 3 78 27.5t38 56.5l101 -35q-2 -58 -55 -120.5t-144 -69.5q-55 -3 -106.5 18t-99 43.5t-93.5 20.5
q-118 -7 -147 -96zM422 516h539l-271 709z" />
    <glyph glyph-name="Adieresis" unicode="&#xc4;" horiz-adv-x="1380" 
d="M59 0l549 1454h164l549 -1454h-164l-139 367h-651l-140 -367h-168zM375 1708q0 42 31.5 73t70.5 31q42 0 73.5 -31t31.5 -73t-31.5 -73t-73.5 -31q-39 0 -70.5 31t-31.5 73zM422 516h539l-271 709zM801 1708q0 42 31 73t71 31q41 0 73 -31t32 -73t-32 -73t-73 -31
q-40 0 -71 31t-31 73z" />
    <glyph glyph-name="Aring" unicode="&#xc5;" horiz-adv-x="1380" 
d="M59 0l549 1454h164l549 -1454h-164l-139 367h-651l-140 -367h-168zM422 516h539l-271 709zM461 1753q0 92 70.5 162t160.5 70q89 0 159.5 -70.5t70.5 -161.5q0 -95 -69.5 -162t-160.5 -67q-92 0 -161.5 67t-69.5 162zM573 1751q0 -51 33.5 -84t85.5 -33t84.5 33t32.5 84
q0 49 -33.5 85t-83.5 36t-84.5 -36.5t-34.5 -84.5z" />
    <glyph glyph-name="AE" unicode="&#xc6;" horiz-adv-x="1966" 
d="M-4 0l883 1454h970v-149h-733v-494h590v-149h-590v-512h737v-150h-895v358h-561l-221 -358h-180zM485 506h473v774z" />
    <glyph glyph-name="Ccedilla" unicode="&#xc7;" horiz-adv-x="1437" 
d="M102 717q0 162 38.5 293t102 216t149 142.5t174.5 82t184 24.5q144 0 267.5 -57t207.5 -167t106 -254h-160q-27 147 -146.5 235.5t-274.5 88.5q-71 0 -137 -17.5t-131 -61.5t-113 -111t-77.5 -173.5t-29.5 -240.5q0 -104 20.5 -192t57 -150.5t83.5 -110.5t102.5 -76.5
t111.5 -42.5t113 -14q156 0 278 97t148 243h159q-32 -214 -189 -348t-368 -143l-10 -66q91 -11 150 -69t59 -148q0 -92 -61 -153.5t-177 -61.5q-13 0 -25.5 1t-25.5 3.5t-22.5 4t-23.5 6t-20.5 6.5t-20.5 7.5t-17 7.5l-18 7l-15 6l47 123q90 -37 143 -37q41 0 71 21t30 59
q0 77 -129 90l-80 8l41 189q-85 11 -164.5 43t-154.5 91.5t-130.5 141t-89 199.5t-33.5 258z" />
    <glyph glyph-name="Egrave" unicode="&#xc8;" horiz-adv-x="1232" 
d="M176 0v1454h907v-149h-749v-492h596v-151h-596v-512h768v-150h-926zM362 1839l158 125l213 -358h-145z" />
    <glyph glyph-name="Eacute" unicode="&#xc9;" horiz-adv-x="1232" 
d="M176 0v1454h907v-149h-749v-492h596v-151h-596v-512h768v-150h-926zM539 1618l213 358l157 -125l-225 -233h-145z" />
    <glyph glyph-name="Ecircumflex" unicode="&#xca;" horiz-adv-x="1232" 
d="M176 0v1454h907v-149h-749v-492h596v-151h-596v-512h768v-150h-926zM334 1655l221 225h158l219 -221l-82 -76l-215 152l-221 -154z" />
    <glyph glyph-name="Edieresis" unicode="&#xcb;" horiz-adv-x="1232" 
d="M176 0v1454h907v-149h-749v-492h596v-151h-596v-512h768v-150h-926zM319 1708q0 42 32 73t71 31q42 0 73 -31t31 -73t-31 -73t-73 -31q-39 0 -71 31t-32 73zM745 1708q0 42 31.5 73t71.5 31t72 -31t32 -73t-32 -73t-72 -31t-71.5 31t-31.5 73z" />
    <glyph glyph-name="Igrave" unicode="&#xcc;" horiz-adv-x="505" 
d="M47 1755l164 115l162 -283h-158zM174 0v1454h158v-1454h-158z" />
    <glyph glyph-name="Iacute" unicode="&#xcd;" horiz-adv-x="505" 
d="M156 1581l159 287l168 -117l-168 -170h-159zM174 0v1454h158v-1454h-158z" />
    <glyph glyph-name="Icircumflex" unicode="&#xce;" horiz-adv-x="505" 
d="M33 1640l139 195h160l139 -195l-106 -71l-113 112l-115 -112zM174 0v1454h158v-1454h-158z" />
    <glyph glyph-name="Idieresis" unicode="&#xcf;" horiz-adv-x="505" 
d="M10 1729q0 45 29 73.5t72 28.5q41 0 69.5 -28.5t28.5 -73.5t-29 -76t-69 -31q-43 0 -72 30.5t-29 76.5zM174 0v1454h158v-1454h-158zM311 1726q0 46 29.5 75.5t71.5 29.5t71 -29.5t29 -75.5q0 -45 -29 -74.5t-71 -29.5t-71.5 29.5t-29.5 74.5z" />
    <glyph glyph-name="Eth" unicode="&#xd0;" horiz-adv-x="1472" 
d="M51 651v150h209v653h461q137 0 256 -45t212.5 -132t147.5 -228t54 -320q0 -150 -35 -272.5t-96 -206.5t-146 -141t-183 -83t-210 -26h-461v651h-209zM418 152h303q237 0 374.5 144t137.5 433q0 143 -39.5 254.5t-110 180.5t-162 104t-200.5 35h-303v-502h317v-150h-317
v-499z" />
    <glyph glyph-name="Ntilde" unicode="&#xd1;" horiz-adv-x="1443" 
d="M174 0v1454h186l752 -1200v1200h158v-1454h-191l-747 1194v-1194h-158zM352 1610q8 77 70 138.5t156 68.5q56 3 104 -9.5t75.5 -29.5t59 -30.5t57.5 -12.5q48 3 78.5 27.5t38.5 56.5l101 -35q-2 -58 -55 -121t-144 -70q-55 -3 -106.5 18t-99 43.5t-93.5 20.5
q-55 -3 -94 -27.5t-54 -68.5z" />
    <glyph glyph-name="Ograve" unicode="&#xd2;" horiz-adv-x="1437" 
d="M102 737q0 147 34 269.5t92.5 207.5t137.5 144.5t168 87t185 27.5q95 0 184 -28t168 -87.5t137.5 -145t92.5 -207.5t34 -268q0 -151 -34.5 -277.5t-93 -213t-137.5 -146.5t-167.5 -88t-183.5 -28q-93 0 -180 26t-167 84.5t-139.5 144t-95 214t-35.5 284.5zM260 737
q0 -127 26 -229.5t69.5 -171t103 -114.5t124.5 -66.5t136 -20.5q70 0 136 21.5t125.5 69t103.5 116t70 170.5t26 225q0 120 -26.5 218.5t-70.5 165.5t-103.5 113t-125 66.5t-135.5 20.5q-90 0 -170.5 -34.5t-146 -102.5t-104 -183t-38.5 -264zM449 1831l157 125l213 -359
h-145z" />
    <glyph glyph-name="Oacute" unicode="&#xd3;" horiz-adv-x="1437" 
d="M102 737q0 147 34 269.5t92.5 207.5t137.5 144.5t168 87t185 27.5q95 0 184 -28t168 -87.5t137.5 -145t92.5 -207.5t34 -268q0 -151 -34.5 -277.5t-93 -213t-137.5 -146.5t-167.5 -88t-183.5 -28q-93 0 -180 26t-167 84.5t-139.5 144t-95 214t-35.5 284.5zM260 737
q0 -127 26 -229.5t69.5 -171t103 -114.5t124.5 -66.5t136 -20.5q70 0 136 21.5t125.5 69t103.5 116t70 170.5t26 225q0 120 -26.5 218.5t-70.5 165.5t-103.5 113t-125 66.5t-135.5 20.5q-90 0 -170.5 -34.5t-146 -102.5t-104 -183t-38.5 -264zM625 1610l213 358l157 -125
l-225 -233h-145z" />
    <glyph glyph-name="Ocircumflex" unicode="&#xd4;" horiz-adv-x="1437" 
d="M102 737q0 147 34 269.5t92.5 207.5t137.5 144.5t168 87t185 27.5q95 0 184 -28t168 -87.5t137.5 -145t92.5 -207.5t34 -268q0 -151 -34.5 -277.5t-93 -213t-137.5 -146.5t-167.5 -88t-183.5 -28q-93 0 -180 26t-167 84.5t-139.5 144t-95 214t-35.5 284.5zM260 737
q0 -127 26 -229.5t69.5 -171t103 -114.5t124.5 -66.5t136 -20.5q70 0 136 21.5t125.5 69t103.5 116t70 170.5t26 225q0 120 -26.5 218.5t-70.5 165.5t-103.5 113t-125 66.5t-135.5 20.5q-90 0 -170.5 -34.5t-146 -102.5t-104 -183t-38.5 -264zM420 1647l221 225h158
l219 -221l-82 -76l-215 151l-221 -153z" />
    <glyph glyph-name="Otilde" unicode="&#xd5;" horiz-adv-x="1437" 
d="M102 737q0 147 34 269.5t92.5 207.5t137.5 144.5t168 87t185 27.5q95 0 184 -28t168 -87.5t137.5 -145t92.5 -207.5t34 -268q0 -151 -34.5 -277.5t-93 -213t-137.5 -146.5t-167.5 -88t-183.5 -28q-93 0 -180 26t-167 84.5t-139.5 144t-95 214t-35.5 284.5zM260 737
q0 -127 26 -229.5t69.5 -171t103 -114.5t124.5 -66.5t136 -20.5q70 0 136 21.5t125.5 69t103.5 116t70 170.5t26 225q0 120 -26.5 218.5t-70.5 165.5t-103.5 113t-125 66.5t-135.5 20.5q-90 0 -170.5 -34.5t-146 -102.5t-104 -183t-38.5 -264zM348 1630q8 77 69.5 138.5
t155.5 68.5q56 3 104.5 -9.5t76 -29.5t59 -30.5t57.5 -12.5q48 3 78.5 27.5t38.5 56.5l100 -35q-2 -58 -54.5 -120.5t-143.5 -69.5q-55 -3 -106.5 18t-99 43.5t-93.5 20.5q-54 -3 -93.5 -28t-54.5 -69z" />
    <glyph glyph-name="Odieresis" unicode="&#xd6;" horiz-adv-x="1437" 
d="M102 737q0 147 34 269.5t92.5 207.5t137.5 144.5t168 87t185 27.5q95 0 184 -28t168 -87.5t137.5 -145t92.5 -207.5t34 -268q0 -151 -34.5 -277.5t-93 -213t-137.5 -146.5t-167.5 -88t-183.5 -28q-93 0 -180 26t-167 84.5t-139.5 144t-95 214t-35.5 284.5zM260 737
q0 -127 26 -229.5t69.5 -171t103 -114.5t124.5 -66.5t136 -20.5q70 0 136 21.5t125.5 69t103.5 116t70 170.5t26 225q0 120 -26.5 218.5t-70.5 165.5t-103.5 113t-125 66.5t-135.5 20.5q-90 0 -170.5 -34.5t-146 -102.5t-104 -183t-38.5 -264zM406 1700q0 42 31.5 73
t70.5 31q42 0 73 -31t31 -73t-31 -73.5t-73 -31.5q-39 0 -70.5 31.5t-31.5 73.5zM831 1700q0 42 31.5 73t71.5 31t72 -31t32 -73t-32 -73.5t-72 -31.5t-71.5 31.5t-31.5 73.5z" />
    <glyph glyph-name="multiply" unicode="&#xd7;" horiz-adv-x="1396" 
d="M205 293l385 383l-377 379l106 108l379 -379l379 379l111 -108l-379 -381l381 -381l-111 -109l-379 381l-385 -383z" />
    <glyph glyph-name="Oslash" unicode="&#xd8;" horiz-adv-x="1437" 
d="M102 737q0 147 34 269.5t92.5 207.5t137.5 144.5t168 87t185 27.5q186 0 332 -101l94 144l119 -76l-107 -162q178 -198 178 -541q0 -151 -34.5 -277.5t-93 -213t-137.5 -146.5t-167.5 -88t-183.5 -28q-190 0 -336 102l-94 -143l-121 75l106 164q-172 207 -172 555z
M260 737q0 -259 107 -415l600 921q-109 78 -248 78q-90 0 -170.5 -34.5t-146 -102.5t-104 -183t-38.5 -264zM467 215q111 -80 252 -80q70 0 136 21.5t125.5 69t103.5 116t70 170.5t26 225q0 251 -111 404z" />
    <glyph glyph-name="Ugrave" unicode="&#xd9;" horiz-adv-x="1357" 
d="M131 594v860h158v-862q0 -228 107.5 -345.5t283.5 -117.5q178 0 284.5 118t106.5 345v862h156v-860q0 -293 -148.5 -455t-398.5 -162q-247 0 -398 160.5t-151 456.5zM406 1798l157 125l213 -358h-145z" />
    <glyph glyph-name="Uacute" unicode="&#xda;" horiz-adv-x="1357" 
d="M131 594v860h158v-862q0 -228 107.5 -345.5t283.5 -117.5q178 0 284.5 118t106.5 345v862h156v-860q0 -293 -148.5 -455t-398.5 -162q-247 0 -398 160.5t-151 456.5zM582 1577l213 358l157 -125l-225 -233h-145z" />
    <glyph glyph-name="Ucircumflex" unicode="&#xdb;" horiz-adv-x="1357" 
d="M131 594v860h158v-862q0 -228 107.5 -345.5t283.5 -117.5q178 0 284.5 118t106.5 345v862h156v-860q0 -293 -148.5 -455t-398.5 -162q-247 0 -398 160.5t-151 456.5zM377 1614l221 225h158l219 -221l-82 -76l-215 152l-221 -154z" />
    <glyph glyph-name="Udieresis" unicode="&#xdc;" horiz-adv-x="1357" 
d="M131 594v860h158v-862q0 -228 107.5 -345.5t283.5 -117.5q178 0 284.5 118t106.5 345v862h156v-860q0 -293 -148.5 -455t-398.5 -162q-247 0 -398 160.5t-151 456.5zM362 1667q0 42 32 73.5t71 31.5q41 0 72.5 -31t31.5 -74q0 -42 -31 -73t-73 -31q-39 0 -71 31t-32 73z
M788 1667q0 42 31.5 73.5t71.5 31.5t72 -31.5t32 -73.5t-32 -73t-72 -31t-71.5 31t-31.5 73z" />
    <glyph glyph-name="Yacute" unicode="&#xdd;" horiz-adv-x="1271" 
d="M70 1454h180l387 -696l385 696h180l-487 -879v-575h-158v575zM543 1599l213 359l157 -125l-225 -234h-145z" />
    <glyph glyph-name="Thorn" unicode="&#xde;" horiz-adv-x="1273" 
d="M174 0v1454h158v-289h338q213 0 347 -120t134 -324q0 -198 -133 -318t-344 -120h-342v-283h-158zM332 432h346q137 0 225 80.5t88 212.5q-1 133 -89 213t-224 80h-346v-586z" />
    <glyph glyph-name="germandbls" unicode="&#xdf;" horiz-adv-x="1251" 
d="M174 0v920q0 111 26.5 203.5t71.5 156.5t105.5 109t127.5 65.5t138 20.5q155 0 269 -76.5t145 -194.5l-287 -385q164 -24 262 -127t98 -260q0 -191 -128 -316.5t-338 -125.5q-82 0 -132 10v150q37 -11 134 -11q143 0 224 82.5t81 210.5q0 125 -83 189.5t-288 70.5h-14
v101l288 407q-21 60 -81.5 95.5t-151.5 35.5q-60 0 -113.5 -24t-97.5 -71.5t-70 -127.5t-26 -184v-924h-160z" />
    <glyph glyph-name="agrave" unicode="&#xe0;" horiz-adv-x="1089" 
d="M109 297q0 145 112 243.5t309 98.5q66 0 147 -14t126 -31v51q0 83 -25.5 143t-68.5 91.5t-89.5 46t-99.5 14.5q-154 0 -227 -98l-129 65q56 82 149.5 130t221.5 48q63 0 122 -15t114.5 -49.5t96.5 -85t65.5 -126.5t24.5 -168v-641h-127l-20 135q-31 -55 -136 -103
t-216 -48q-149 0 -249.5 92.5t-100.5 220.5zM262 305q0 -88 62.5 -136t169.5 -48q93 0 192 64t117 130v156q-41 11 -121.5 19.5t-151.5 7.5q-133 -3 -200.5 -57t-67.5 -136zM289 1483l157 125l213 -359h-145z" />
    <glyph glyph-name="aacute" unicode="&#xe1;" horiz-adv-x="1089" 
d="M109 297q0 145 112 243.5t309 98.5q66 0 147 -14t126 -31v51q0 83 -25.5 143t-68.5 91.5t-89.5 46t-99.5 14.5q-154 0 -227 -98l-129 65q56 82 149.5 130t221.5 48q63 0 122 -15t114.5 -49.5t96.5 -85t65.5 -126.5t24.5 -168v-641h-127l-20 135q-31 -55 -136 -103
t-216 -48q-149 0 -249.5 92.5t-100.5 220.5zM262 305q0 -88 62.5 -136t169.5 -48q93 0 192 64t117 130v156q-41 11 -121.5 19.5t-151.5 7.5q-133 -3 -200.5 -57t-67.5 -136zM426 1245l213 359l158 -125l-226 -234h-145z" />
    <glyph glyph-name="acircumflex" unicode="&#xe2;" horiz-adv-x="1089" 
d="M109 297q0 145 112 243.5t309 98.5q66 0 147 -14t126 -31v51q0 83 -25.5 143t-68.5 91.5t-89.5 46t-99.5 14.5q-154 0 -227 -98l-129 65q56 82 149.5 130t221.5 48q63 0 122 -15t114.5 -49.5t96.5 -85t65.5 -126.5t24.5 -168v-641h-127l-20 135q-31 -55 -136 -103
t-216 -48q-149 0 -249.5 92.5t-100.5 220.5zM240 1311l221 225h157l220 -221l-82 -76l-215 152l-222 -154zM262 305q0 -88 62.5 -136t169.5 -48q93 0 192 64t117 130v156q-41 11 -121.5 19.5t-151.5 7.5q-133 -3 -200.5 -57t-67.5 -136z" />
    <glyph glyph-name="atilde" unicode="&#xe3;" horiz-adv-x="1089" 
d="M109 297q0 145 112 243.5t309 98.5q66 0 147 -14t126 -31v51q0 83 -25.5 143t-68.5 91.5t-89.5 46t-99.5 14.5q-154 0 -227 -98l-129 65q56 82 149.5 130t221.5 48q63 0 122 -15t114.5 -49.5t96.5 -85t65.5 -126.5t24.5 -168v-641h-127l-20 135q-31 -55 -136 -103
t-216 -48q-149 0 -249.5 92.5t-100.5 220.5zM170 1307q8 77 69.5 138t155.5 68q56 3 104.5 -9t76 -29t59 -30.5t57.5 -12.5q48 3 78.5 27.5t38.5 56.5l100 -35q-2 -58 -54.5 -121t-143.5 -70q-55 -3 -106.5 18t-99 43.5t-93.5 20.5q-55 -3 -94 -27.5t-54 -68.5zM262 305
q0 -88 62.5 -136t169.5 -48q93 0 192 64t117 130v156q-41 11 -121.5 19.5t-151.5 7.5q-133 -3 -200.5 -57t-67.5 -136z" />
    <glyph glyph-name="adieresis" unicode="&#xe4;" horiz-adv-x="1089" 
d="M109 297q0 145 112 243.5t309 98.5q66 0 147 -14t126 -31v51q0 83 -25.5 143t-68.5 91.5t-89.5 46t-99.5 14.5q-154 0 -227 -98l-129 65q56 82 149.5 130t221.5 48q63 0 122 -15t114.5 -49.5t96.5 -85t65.5 -126.5t24.5 -168v-641h-127l-20 135q-31 -55 -136 -103
t-216 -48q-149 0 -249.5 92.5t-100.5 220.5zM227 1372q0 42 32 73.5t71 31.5q42 0 73 -31.5t31 -73.5t-31 -73t-73 -31q-39 0 -71 31t-32 73zM262 305q0 -88 62.5 -136t169.5 -48q93 0 192 64t117 130v156q-41 11 -121.5 19.5t-151.5 7.5q-133 -3 -200.5 -57t-67.5 -136z
M653 1372q0 42 31.5 73.5t71.5 31.5t72 -31.5t32 -73.5t-32 -73t-72 -31t-71.5 31t-31.5 73z" />
    <glyph glyph-name="aring" unicode="&#xe5;" horiz-adv-x="1089" 
d="M109 297q0 145 112 243.5t309 98.5q66 0 147 -14t126 -31v51q0 83 -25.5 143t-68.5 91.5t-89.5 46t-99.5 14.5q-154 0 -227 -98l-129 65q56 82 149.5 130t221.5 48q63 0 122 -15t114.5 -49.5t96.5 -85t65.5 -126.5t24.5 -168v-641h-127l-20 135q-31 -55 -136 -103
t-216 -48q-149 0 -249.5 92.5t-100.5 220.5zM262 305q0 -88 62.5 -136t169.5 -48q93 0 192 64t117 130v156q-41 11 -121.5 19.5t-151.5 7.5q-133 -3 -200.5 -57t-67.5 -136zM313 1384q0 92 71 162t161 70q89 0 159 -70t70 -162q0 -95 -69 -162t-160 -67q-92 0 -162 67
t-70 162zM426 1382q0 -51 33.5 -83.5t85.5 -32.5t84.5 32.5t32.5 83.5q0 49 -33.5 85t-83.5 36t-84.5 -36.5t-34.5 -84.5z" />
    <glyph glyph-name="ae" unicode="&#xe6;" horiz-adv-x="1746" 
d="M61 301q0 159 114 251.5t314 92.5q178 0 277 -31v15q-12 162 -79 241.5t-204 79.5q-26 0 -49 -2t-43 -7.5t-35.5 -10t-32.5 -14.5t-26 -14.5t-23.5 -17t-19 -16.5t-18 -17.5t-15.5 -14.5l-117 79q55 72 151.5 123.5t233.5 51.5q277 0 379 -218q68 102 172 157.5t220 55.5
q95 0 178.5 -33t148 -94.5t102 -159t37.5 -218.5v-103h-792q1 -88 31.5 -158.5t80.5 -113t110.5 -64.5t125.5 -22q103 0 191 34.5t133 96.5l110 -94q-140 -181 -442 -181q-125 0 -236.5 58t-179.5 170q-62 -111 -166.5 -165t-232.5 -54q-178 0 -288 90t-110 227zM213 311
q0 -84 63.5 -137t176.5 -53q135 0 221 78t92 235v47q-43 18 -123 27t-149 4q-139 -3 -210 -57.5t-71 -143.5zM934 612h637q0 154 -89.5 242t-221.5 88q-131 0 -224 -92t-102 -238z" />
    <glyph glyph-name="ccedilla" unicode="&#xe7;" horiz-adv-x="1165" 
d="M111 522q0 134 45 244.5t117 178t158.5 104t174.5 36.5q108 0 199 -37.5t158.5 -119t91.5 -197.5h-162q-63 207 -287 207q-47 0 -93.5 -14t-91.5 -46.5t-79 -79.5t-55 -119.5t-21 -160.5q0 -102 32 -182.5t83 -126.5t108.5 -69t114.5 -23q108 0 183 47.5t106 132.5h162
q-33 -146 -147 -232t-275 -94l-10 -57q91 -11 149.5 -69t58.5 -148q0 -92 -61 -153.5t-176 -61.5q-13 0 -25.5 1t-25.5 3.5t-22.5 4t-23.5 6t-20.5 6.5t-20.5 7.5t-17.5 7t-18.5 7.5l-14 6l47 123q90 -37 143 -37q41 0 70.5 21t29.5 59q0 77 -129 90l-80 8l39 182
q-80 14 -152 54t-132 105t-95.5 165t-35.5 221z" />
    <glyph glyph-name="egrave" unicode="&#xe8;" 
d="M111 530q0 130 40.5 237t109 175.5t155 105.5t180.5 37q95 0 178.5 -33t148.5 -94.5t102.5 -159t37.5 -218.5v-103h-793q1 -88 31.5 -158.5t80.5 -113t110.5 -64.5t125.5 -22q103 0 191 34.5t133 96.5l111 -94q-140 -181 -443 -181q-76 0 -147.5 21t-135.5 66t-112 109.5
t-76 156.5t-28 202zM270 612h637q0 154 -89.5 242t-221.5 88q-131 0 -224 -92t-102 -238zM342 1481l158 125l213 -359h-146z" />
    <glyph glyph-name="eacute" unicode="&#xe9;" 
d="M111 530q0 130 40.5 237t109 175.5t155 105.5t180.5 37q95 0 178.5 -33t148.5 -94.5t102.5 -159t37.5 -218.5v-103h-793q1 -88 31.5 -158.5t80.5 -113t110.5 -64.5t125.5 -22q103 0 191 34.5t133 96.5l111 -94q-140 -181 -443 -181q-76 0 -147.5 21t-135.5 66t-112 109.5
t-76 156.5t-28 202zM270 612h637q0 154 -89.5 242t-221.5 88q-131 0 -224 -92t-102 -238zM479 1243l213 359l158 -125l-225 -234h-146z" />
    <glyph glyph-name="ecircumflex" unicode="&#xea;" 
d="M111 530q0 130 40.5 237t109 175.5t155 105.5t180.5 37q95 0 178.5 -33t148.5 -94.5t102.5 -159t37.5 -218.5v-103h-793q1 -88 31.5 -158.5t80.5 -113t110.5 -64.5t125.5 -22q103 0 191 34.5t133 96.5l111 -94q-140 -181 -443 -181q-76 0 -147.5 21t-135.5 66t-112 109.5
t-76 156.5t-28 202zM270 612h637q0 154 -89.5 242t-221.5 88q-131 0 -224 -92t-102 -238zM293 1309l221 225h158l219 -221l-82 -76l-215 152l-221 -154z" />
    <glyph glyph-name="edieresis" unicode="&#xeb;" 
d="M111 530q0 130 40.5 237t109 175.5t155 105.5t180.5 37q95 0 178.5 -33t148.5 -94.5t102.5 -159t37.5 -218.5v-103h-793q1 -88 31.5 -158.5t80.5 -113t110.5 -64.5t125.5 -22q103 0 191 34.5t133 96.5l111 -94q-140 -181 -443 -181q-76 0 -147.5 21t-135.5 66t-112 109.5
t-76 156.5t-28 202zM270 612h637q0 154 -89.5 242t-221.5 88q-131 0 -224 -92t-102 -238zM281 1370q0 42 31.5 73.5t70.5 31.5q41 0 72.5 -31.5t31.5 -73.5t-31 -73t-73 -31q-39 0 -70.5 31t-31.5 73zM707 1370q0 42 31 73.5t71 31.5t72 -31.5t32 -73.5t-32 -73t-72 -31
t-71 31t-31 73z" />
    <glyph glyph-name="igrave" unicode="&#xec;" horiz-adv-x="505" 
d="M61 1489l154 117l131 -340h-149zM174 0v1065h158v-1065h-158z" />
    <glyph glyph-name="iacute" unicode="&#xed;" horiz-adv-x="505" 
d="M174 0v1065h158v-1065h-158zM174 1262l137 342l160 -125l-152 -217h-145z" />
    <glyph glyph-name="icircumflex" unicode="&#xee;" horiz-adv-x="505" 
d="M20 1358l154 207h160l151 -205l-98 -72l-133 121l-135 -123zM174 0v1065h158v-1065h-158z" />
    <glyph glyph-name="idieresis" unicode="&#xef;" horiz-adv-x="505" 
d="M10 1425q0 45 28.5 75t70.5 30t72 -30t30 -75t-30 -74.5t-72 -29.5t-70.5 29.5t-28.5 74.5zM174 0v1065h158v-1065h-158zM297 1425q0 45 29 75t71 30t70.5 -30t28.5 -75q0 -47 -28.5 -76.5t-70.5 -29.5t-71 30t-29 76z" />
    <glyph glyph-name="eth" unicode="&#xf0;" horiz-adv-x="1212" 
d="M111 524q0 247 138.5 399t348.5 152q165 0 240 -67q-3 26 -36 87.5t-85 131.5l-295 -64l-27 109l240 61q-59 68 -125 131l111 113q95 -88 180 -201l225 58l37 -131l-182 -39q208 -338 211 -693q1 -120 -27 -219t-75.5 -166.5t-112.5 -114.5t-135.5 -68t-145.5 -21
q-87 0 -170.5 33t-155 96.5t-115.5 170.5t-44 242zM270 524q0 -84 21 -152.5t55 -112.5t77.5 -74.5t87.5 -43t87 -12.5q54 0 109.5 22.5t106 66.5t82.5 122t32 176q0 196 -81.5 304t-244.5 108q-152 0 -242 -111.5t-90 -292.5z" />
    <glyph glyph-name="ntilde" unicode="&#xf1;" horiz-adv-x="1171" 
d="M174 0v1065h121l27 -145q34 75 124.5 125.5t194.5 50.5q174 0 280.5 -121t106.5 -336v-639h-160v637q0 152 -65 231.5t-197 79.5q-120 0 -196 -84t-76 -227v-637h-160zM219 1307q8 77 69.5 138t155.5 68q56 3 104.5 -9t76 -29t59 -30.5t57.5 -12.5q48 3 78.5 27.5
t38.5 56.5l100 -35q-2 -58 -54.5 -121t-143.5 -70q-55 -3 -106.5 18t-99 43.5t-93.5 20.5q-55 -3 -94 -27.5t-54 -68.5z" />
    <glyph glyph-name="ograve" unicode="&#xf2;" horiz-adv-x="1208" 
d="M111 532q0 141 42.5 250.5t113.5 173.5t156.5 96.5t178.5 32.5q94 0 180 -33.5t158 -98.5t115 -174t43 -247q0 -109 -29.5 -201t-78.5 -155t-113.5 -108t-134 -65.5t-140.5 -20.5q-90 0 -175.5 34t-157 99t-115 173t-43.5 244zM266 532q0 -99 30 -178.5t79 -127
t107.5 -72.5t119.5 -25q48 0 94.5 14t91.5 46t79 77.5t54.5 114.5t20.5 151q0 105 -30 186.5t-80 128t-108 70t-122 23.5q-66 0 -124 -23t-106.5 -69.5t-77 -128t-28.5 -187.5zM348 1483l158 125l213 -359h-146z" />
    <glyph glyph-name="oacute" unicode="&#xf3;" horiz-adv-x="1208" 
d="M111 532q0 141 42.5 250.5t113.5 173.5t156.5 96.5t178.5 32.5q94 0 180 -33.5t158 -98.5t115 -174t43 -247q0 -109 -29.5 -201t-78.5 -155t-113.5 -108t-134 -65.5t-140.5 -20.5q-90 0 -175.5 34t-157 99t-115 173t-43.5 244zM266 532q0 -99 30 -178.5t79 -127
t107.5 -72.5t119.5 -25q48 0 94.5 14t91.5 46t79 77.5t54.5 114.5t20.5 151q0 105 -30 186.5t-80 128t-108 70t-122 23.5q-66 0 -124 -23t-106.5 -69.5t-77 -128t-28.5 -187.5zM485 1245l213 359l158 -125l-225 -234h-146z" />
    <glyph glyph-name="ocircumflex" unicode="&#xf4;" horiz-adv-x="1208" 
d="M111 532q0 141 42.5 250.5t113.5 173.5t156.5 96.5t178.5 32.5q94 0 180 -33.5t158 -98.5t115 -174t43 -247q0 -109 -29.5 -201t-78.5 -155t-113.5 -108t-134 -65.5t-140.5 -20.5q-90 0 -175.5 34t-157 99t-115 173t-43.5 244zM266 532q0 -99 30 -178.5t79 -127
t107.5 -72.5t119.5 -25q48 0 94.5 14t91.5 46t79 77.5t54.5 114.5t20.5 151q0 105 -30 186.5t-80 128t-108 70t-122 23.5q-66 0 -124 -23t-106.5 -69.5t-77 -128t-28.5 -187.5zM299 1311l221 225h158l219 -221l-82 -76l-215 152l-221 -154z" />
    <glyph glyph-name="otilde" unicode="&#xf5;" horiz-adv-x="1208" 
d="M111 532q0 141 42.5 250.5t113.5 173.5t156.5 96.5t178.5 32.5q94 0 180 -33.5t158 -98.5t115 -174t43 -247q0 -109 -29.5 -201t-78.5 -155t-113.5 -108t-134 -65.5t-140.5 -20.5q-90 0 -175.5 34t-157 99t-115 173t-43.5 244zM229 1307q8 77 70 138t156 68
q56 3 104.5 -9t76 -29t59 -30.5t57.5 -12.5q48 3 78 27.5t38 56.5l101 -35q-2 -58 -55 -121t-144 -70q-55 -3 -106.5 18t-99 43.5t-93.5 20.5q-118 -7 -147 -96zM266 532q0 -99 30 -178.5t79 -127t107.5 -72.5t119.5 -25q48 0 94.5 14t91.5 46t79 77.5t54.5 114.5t20.5 151
q0 105 -30 186.5t-80 128t-108 70t-122 23.5q-66 0 -124 -23t-106.5 -69.5t-77 -128t-28.5 -187.5z" />
    <glyph glyph-name="odieresis" unicode="&#xf6;" horiz-adv-x="1208" 
d="M111 532q0 141 42.5 250.5t113.5 173.5t156.5 96.5t178.5 32.5q94 0 180 -33.5t158 -98.5t115 -174t43 -247q0 -109 -29.5 -201t-78.5 -155t-113.5 -108t-134 -65.5t-140.5 -20.5q-90 0 -175.5 34t-157 99t-115 173t-43.5 244zM266 532q0 -99 30 -178.5t79 -127
t107.5 -72.5t119.5 -25q48 0 94.5 14t91.5 46t79 77.5t54.5 114.5t20.5 151q0 105 -30 186.5t-80 128t-108 70t-122 23.5q-66 0 -124 -23t-106.5 -69.5t-77 -128t-28.5 -187.5zM287 1372q0 42 31.5 73.5t70.5 31.5q42 0 73.5 -31.5t31.5 -73.5t-31.5 -73t-73.5 -31
q-39 0 -70.5 31t-31.5 73zM713 1372q0 42 31 73.5t71 31.5t72.5 -31.5t32.5 -73.5t-32 -73t-73 -31q-40 0 -71 31t-31 73z" />
    <glyph glyph-name="divide" unicode="&#xf7;" horiz-adv-x="1359" 
d="M193 602v150h976v-150h-976zM565 307q0 48 33.5 80.5t77.5 32.5q43 0 75.5 -32.5t32.5 -80.5q0 -46 -33 -79t-75 -33q-44 0 -77.5 33t-33.5 79zM565 1032q0 48 33.5 79.5t77.5 31.5q43 0 75.5 -31.5t32.5 -79.5q0 -46 -33 -78t-75 -32q-44 0 -77.5 32t-33.5 78z" />
    <glyph glyph-name="oslash" unicode="&#xf8;" horiz-adv-x="1249" 
d="M131 532q0 113 28 207t75.5 157t111.5 106.5t133.5 63t143.5 19.5q160 0 290 -92l101 123l104 -80l-110 -135q110 -146 110 -369q0 -109 -29.5 -201t-78.5 -155t-113 -108t-133.5 -65.5t-140.5 -20.5q-159 0 -287 94l-94 -115l-107 78l107 131q-111 144 -111 362z
M287 532q0 -138 57 -237l475 582q-86 63 -196 63q-66 0 -124 -23t-106.5 -69.5t-77 -128t-28.5 -187.5zM432 195q84 -66 191 -66q48 0 94.5 14t91.5 46t79 77.5t54.5 114.5t20.5 151q0 143 -58 244z" />
    <glyph glyph-name="ugrave" unicode="&#xf9;" 
d="M143 430v635h162v-635q0 -149 71.5 -227t194.5 -78q119 0 194 81t75 224v635h159v-1065h-120l-25 154q-26 -72 -119.5 -124.5t-185.5 -52.5q-175 0 -290.5 118.5t-115.5 334.5zM319 1481l158 125l213 -359h-145z" />
    <glyph glyph-name="uacute" unicode="&#xfa;" 
d="M143 430v635h162v-635q0 -149 71.5 -227t194.5 -78q119 0 194 81t75 224v635h159v-1065h-120l-25 154q-26 -72 -119.5 -124.5t-185.5 -52.5q-175 0 -290.5 118.5t-115.5 334.5zM457 1243l213 359l157 -125l-225 -234h-145z" />
    <glyph glyph-name="ucircumflex" unicode="&#xfb;" 
d="M143 430v635h162v-635q0 -149 71.5 -227t194.5 -78q119 0 194 81t75 224v635h159v-1065h-120l-25 154q-26 -72 -119.5 -124.5t-185.5 -52.5q-175 0 -290.5 118.5t-115.5 334.5zM270 1309l222 225h157l219 -221l-82 -76l-215 152l-221 -154z" />
    <glyph glyph-name="udieresis" unicode="&#xfc;" 
d="M143 430v635h162v-635q0 -149 71.5 -227t194.5 -78q119 0 194 81t75 224v635h159v-1065h-120l-25 154q-26 -72 -119.5 -124.5t-185.5 -52.5q-175 0 -290.5 118.5t-115.5 334.5zM258 1370q0 42 31.5 73.5t70.5 31.5q42 0 73.5 -31.5t31.5 -73.5t-31.5 -73t-73.5 -31
q-39 0 -70.5 31t-31.5 73zM684 1370q0 42 31 73.5t71 31.5t72.5 -31.5t32.5 -73.5t-32 -73t-73 -31q-40 0 -71 31t-31 73z" />
    <glyph glyph-name="yacute" unicode="&#xfd;" horiz-adv-x="1060" 
d="M61 1065h170l297 -856l301 856h170l-550 -1473h-158l158 406v4zM414 1245l213 359l157 -125l-225 -234h-145z" />
    <glyph glyph-name="thorn" unicode="&#xfe;" horiz-adv-x="1241" 
d="M174 -436v1890h156v-547q40 80 141.5 130t204.5 50q63 0 125.5 -19.5t122 -63t104.5 -106.5t72.5 -157t27.5 -206q0 -141 -40 -251t-107 -174t-146 -96t-165 -32q-101 0 -205 53.5t-131 128.5v-600h-160zM324 535q0 -103 29 -184t77 -128.5t104 -71.5t115 -24
q60 0 115 23.5t101.5 70t74 128t27.5 186.5q0 107 -27.5 188t-74 126.5t-101 68t-115.5 22.5q-42 0 -85 -12.5t-87 -42.5t-77.5 -75t-54.5 -116t-21 -159z" />
    <glyph glyph-name="ydieresis" unicode="&#xff;" horiz-adv-x="1060" 
d="M61 1065h170l297 -856l301 856h170l-550 -1473h-158l158 406v4zM215 1372q0 42 31.5 73.5t70.5 31.5q42 0 73.5 -31.5t31.5 -73.5t-31.5 -73t-73.5 -31q-39 0 -70.5 31t-31.5 73zM641 1372q0 42 31 73.5t71 31.5t72.5 -31.5t32.5 -73.5t-32 -73t-73 -31q-40 0 -71 31
t-31 73z" />
    <glyph glyph-name="Amacron" unicode="&#x100;" horiz-adv-x="1380" 
d="M59 0l549 1454h164l549 -1454h-164l-139 367h-651l-140 -367h-168zM319 1651v137h744v-137h-744zM422 516h539l-271 709z" />
    <glyph glyph-name="amacron" unicode="&#x101;" horiz-adv-x="1089" 
d="M109 297q0 145 112 243.5t309 98.5q66 0 147 -14t126 -31v51q0 83 -25.5 143t-68.5 91.5t-89.5 46t-99.5 14.5q-154 0 -227 -98l-129 65q56 82 149.5 130t221.5 48q63 0 122 -15t114.5 -49.5t96.5 -85t65.5 -126.5t24.5 -168v-641h-127l-20 135q-31 -55 -136 -103
t-216 -48q-149 0 -249.5 92.5t-100.5 220.5zM172 1317v137h743v-137h-743zM262 305q0 -88 62.5 -136t169.5 -48q93 0 192 64t117 130v156q-41 11 -121.5 19.5t-151.5 7.5q-133 -3 -200.5 -57t-67.5 -136z" />
    <glyph glyph-name="Abreve" unicode="&#x102;" horiz-adv-x="1380" 
d="M59 0l549 1454h164l549 -1454h-164l-139 367h-651l-140 -367h-168zM342 1792l92 88q51 -60 120.5 -96.5t135.5 -36.5q67 0 133 34t119 99l94 -88q-57 -89 -150.5 -137.5t-195.5 -48.5q-96 0 -192.5 52t-155.5 134zM422 516h539l-271 709z" />
    <glyph glyph-name="abreve" unicode="&#x103;" horiz-adv-x="1089" 
d="M109 297q0 145 112 243.5t309 98.5q66 0 147 -14t126 -31v51q0 83 -25.5 143t-68.5 91.5t-89.5 46t-99.5 14.5q-154 0 -227 -98l-129 65q56 82 149.5 130t221.5 48q63 0 122 -15t114.5 -49.5t96.5 -85t65.5 -126.5t24.5 -168v-641h-127l-20 135q-31 -55 -136 -103
t-216 -48q-149 0 -249.5 92.5t-100.5 220.5zM195 1456l92 88q51 -60 120.5 -96.5t135.5 -36.5q67 0 133 34t119 99l94 -88q-57 -89 -150.5 -137.5t-195.5 -48.5q-96 0 -192.5 52t-155.5 134zM262 305q0 -88 62.5 -136t169.5 -48q93 0 192 64t117 130v156q-41 11 -121.5 19.5
t-151.5 7.5q-133 -3 -200.5 -57t-67.5 -136z" />
    <glyph glyph-name="Aogonek" unicode="&#x104;" horiz-adv-x="1380" 
d="M59 0l549 1454h164l549 -1454l-191 -211q-19 -22 -22 -41t17 -32t65 -13h123v-143h-154q-68 0 -119 27t-74.5 68t-16.5 94t48 101q72 89 152 173l-131 344h-651l-140 -367h-168zM422 516h539l-271 709z" />
    <glyph glyph-name="aogonek" unicode="&#x105;" horiz-adv-x="1089" 
d="M109 297q0 145 112 243.5t309 98.5q66 0 147 -14t126 -31v51q0 83 -25.5 143t-68.5 91.5t-89.5 46t-99.5 14.5q-154 0 -227 -98l-129 65q56 82 149.5 130t221.5 48q63 0 122 -15t114.5 -49.5t96.5 -85t65.5 -126.5t24.5 -168v-641h-2l-190 -211q-20 -22 -23 -41t17 -32
t65 -13h123v-143h-153q-68 0 -119 27t-74.5 68t-16.5 94t48 101q29 36 174 199q5 7 14 12l-10 74q-31 -55 -136 -103t-216 -48q-149 0 -249.5 92.5t-100.5 220.5zM262 305q0 -88 62.5 -136t169.5 -48q93 0 192 64t117 130v156q-41 11 -121.5 19.5t-151.5 7.5
q-133 -3 -200.5 -57t-67.5 -136z" />
    <glyph glyph-name="Cacute" unicode="&#x106;" horiz-adv-x="1437" 
d="M102 717q0 162 38.5 293t102 216t149 142.5t174.5 82t184 24.5q144 0 267.5 -57t207.5 -167t106 -254h-160q-27 147 -146.5 235.5t-274.5 88.5q-71 0 -137 -17.5t-131 -61.5t-113 -111t-77.5 -173.5t-29.5 -240.5q0 -104 20.5 -192t57 -150.5t83.5 -110.5t102.5 -76.5
t111.5 -42.5t113 -14q156 0 278 97t148 243h159q-33 -221 -199 -356t-386 -135q-74 0 -148.5 18.5t-148 55t-136 97.5t-111.5 140t-76.5 188.5t-27.5 237.5zM633 1618l213 358l158 -125l-226 -233h-145z" />
    <glyph glyph-name="cacute" unicode="&#x107;" horiz-adv-x="1165" 
d="M111 522q0 134 45 244.5t117 178t158.5 104t174.5 36.5q108 0 199 -37.5t158.5 -119t91.5 -197.5h-162q-63 207 -287 207q-47 0 -93.5 -14t-91.5 -46.5t-79 -79.5t-55 -119.5t-21 -160.5q0 -102 32 -182.5t83 -126.5t108.5 -69t114.5 -23q108 0 183 47.5t106 132.5h162
q-35 -152 -157.5 -239t-293.5 -87q-70 0 -138.5 20.5t-133 65t-113.5 107.5t-78.5 155.5t-29.5 202.5zM489 1245l213 359l158 -125l-225 -234h-146z" />
    <glyph glyph-name="Cdotaccent" unicode="&#x10a;" horiz-adv-x="1437" 
d="M102 717q0 162 38.5 293t102 216t149 142.5t174.5 82t184 24.5q144 0 267.5 -57t207.5 -167t106 -254h-160q-27 147 -146.5 235.5t-274.5 88.5q-71 0 -137 -17.5t-131 -61.5t-113 -111t-77.5 -173.5t-29.5 -240.5q0 -104 20.5 -192t57 -150.5t83.5 -110.5t102.5 -76.5
t111.5 -42.5t113 -14q156 0 278 97t148 243h159q-33 -221 -199 -356t-386 -135q-74 0 -148.5 18.5t-148 55t-136 97.5t-111.5 140t-76.5 188.5t-27.5 237.5zM618 1718q0 43 35.5 77t77.5 34t76.5 -33.5t34.5 -77.5q0 -46 -34 -78t-77 -32t-78 32t-35 78z" />
    <glyph glyph-name="cdotaccent" unicode="&#x10b;" horiz-adv-x="1165" 
d="M111 522q0 134 45 244.5t117 178t158.5 104t174.5 36.5q108 0 199 -37.5t158.5 -119t91.5 -197.5h-162q-63 207 -287 207q-47 0 -93.5 -14t-91.5 -46.5t-79 -79.5t-55 -119.5t-21 -160.5q0 -102 32 -182.5t83 -126.5t108.5 -69t114.5 -23q108 0 183 47.5t106 132.5h162
q-35 -152 -157.5 -239t-293.5 -87q-70 0 -138.5 20.5t-133 65t-113.5 107.5t-78.5 155.5t-29.5 202.5zM496 1372q0 44 35 77.5t77 33.5t76.5 -33.5t34.5 -77.5q0 -46 -34 -78t-77 -32t-77.5 32t-34.5 78z" />
    <glyph glyph-name="Ccaron" unicode="&#x10c;" horiz-adv-x="1437" 
d="M102 717q0 162 38.5 293t102 216t149 142.5t174.5 82t184 24.5q144 0 267.5 -57t207.5 -167t106 -254h-160q-27 147 -146.5 235.5t-274.5 88.5q-71 0 -137 -17.5t-131 -61.5t-113 -111t-77.5 -173.5t-29.5 -240.5q0 -104 20.5 -192t57 -150.5t83.5 -110.5t102.5 -76.5
t111.5 -42.5t113 -14q156 0 278 97t148 243h159q-33 -221 -199 -356t-386 -135q-74 0 -148.5 18.5t-148 55t-136 97.5t-111.5 140t-76.5 188.5t-27.5 237.5zM428 1827l80 78l221 -154l219 154l78 -76l-217 -223h-158z" />
    <glyph glyph-name="ccaron" unicode="&#x10d;" horiz-adv-x="1165" 
d="M111 522q0 134 45 244.5t117 178t158.5 104t174.5 36.5q108 0 199 -37.5t158.5 -119t91.5 -197.5h-162q-63 207 -287 207q-47 0 -93.5 -14t-91.5 -46.5t-79 -79.5t-55 -119.5t-21 -160.5q0 -102 32 -182.5t83 -126.5t108.5 -69t114.5 -23q108 0 183 47.5t106 132.5h162
q-35 -152 -157.5 -239t-293.5 -87q-70 0 -138.5 20.5t-133 65t-113.5 107.5t-78.5 155.5t-29.5 202.5zM305 1487l80 78l221 -154l219 154l78 -76l-217 -223h-158z" />
    <glyph glyph-name="Dcaron" unicode="&#x10e;" horiz-adv-x="1398" 
d="M170 0v1454h461q137 0 256 -45t212 -132t147 -228t54 -320q0 -150 -34.5 -272.5t-95.5 -206.5t-146 -141t-183 -83t-210 -26h-461zM328 152h303q237 0 374.5 144t137.5 433q0 143 -39.5 254.5t-110 180.5t-162 104t-200.5 35h-303v-1151zM385 1825l80 78l221 -154
l219 154l78 -76l-217 -223h-158z" />
    <glyph glyph-name="dcaron" unicode="&#x10f;" horiz-adv-x="1439" 
d="M113 541q0 108 27 199t72 154t105 106.5t126 64t135 20.5q96 0 194 -58t127 -134v561h164v-1454h-133l-21 172q-33 -82 -129 -136t-202 -54q-64 0 -128.5 20.5t-125.5 65.5t-107.5 109t-75 158.5t-28.5 205.5zM274 539q0 -89 21.5 -161.5t55.5 -118t78 -76.5t86.5 -43.5
t84.5 -12.5t84.5 15t83.5 48t72.5 80t51 117t19.5 152q0 187 -92 293t-217 106q-62 0 -117.5 -21.5t-104 -66.5t-77.5 -125t-29 -186zM1225 1106l43 348h151l-69 -348h-125z" />
    <glyph glyph-name="Dcroat" unicode="&#x110;" horiz-adv-x="1468" 
d="M47 651v150h209v653h461q137 0 256 -45t212 -132t147 -228t54 -320q0 -150 -34.5 -272.5t-95.5 -206.5t-146 -141t-183 -83t-210 -26h-461v651h-209zM414 152h303q237 0 374.5 144t137.5 433q0 143 -39.5 254.5t-110 180.5t-162 104t-200.5 35h-303v-502h317v-150h-317
v-499z" />
    <glyph glyph-name="dcroat" unicode="&#x111;" horiz-adv-x="1273" 
d="M113 541q0 108 27.5 199.5t73.5 154t107 106t127.5 64t135.5 20.5q97 0 202 -58.5t134 -133.5v340h-314v135h314v197h163v-197h162v-135h-162v-1233h-133l-20 172q-33 -81 -136 -135.5t-210 -54.5q-64 0 -129 20.5t-127 65.5t-109.5 109t-76.5 158.5t-29 205.5zM274 539
q0 -89 22 -161.5t57 -118t80 -76.5t88 -43.5t85 -12.5q53 0 107 25t102 73t78.5 130t30.5 184q0 95 -27.5 173t-73 126t-101 74t-114.5 26q-62 0 -118.5 -21.5t-106.5 -66.5t-79.5 -125t-29.5 -186z" />
    <glyph glyph-name="Emacron" unicode="&#x112;" horiz-adv-x="1232" 
d="M176 0v1454h907v-149h-749v-492h596v-151h-596v-512h768v-150h-926zM264 1651v137h744v-137h-744z" />
    <glyph glyph-name="emacron" unicode="&#x113;" 
d="M111 530q0 130 40.5 237t109 175.5t155 105.5t180.5 37q95 0 178.5 -33t148.5 -94.5t102.5 -159t37.5 -218.5v-103h-793q1 -88 31.5 -158.5t80.5 -113t110.5 -64.5t125.5 -22q103 0 191 34.5t133 96.5l111 -94q-140 -181 -443 -181q-76 0 -147.5 21t-135.5 66t-112 109.5
t-76 156.5t-28 202zM225 1315v137h744v-137h-744zM270 612h637q0 154 -89.5 242t-221.5 88q-131 0 -224 -92t-102 -238z" />
    <glyph glyph-name="Ebreve" unicode="&#x114;" horiz-adv-x="1232" 
d="M176 0v1454h907v-149h-749v-492h596v-151h-596v-512h768v-150h-926zM287 1792l92 88q51 -60 120.5 -96.5t135.5 -36.5q67 0 133 34t119 99l94 -88q-57 -89 -150.5 -137.5t-195.5 -48.5q-96 0 -192.5 52t-155.5 134z" />
    <glyph glyph-name="ebreve" unicode="&#x115;" 
d="M111 530q0 130 40.5 237t109 175.5t155 105.5t180.5 37q95 0 178.5 -33t148.5 -94.5t102.5 -159t37.5 -218.5v-103h-793q1 -88 31.5 -158.5t80.5 -113t110.5 -64.5t125.5 -22q103 0 191 34.5t133 96.5l111 -94q-140 -181 -443 -181q-76 0 -147.5 21t-135.5 66t-112 109.5
t-76 156.5t-28 202zM248 1454l92 88q51 -60 120.5 -96.5t135.5 -36.5q67 0 133 34t119 99l94 -88q-57 -89 -150.5 -137.5t-195.5 -48.5q-96 0 -192.5 52t-155.5 134zM270 612h637q0 154 -89.5 242t-221.5 88q-131 0 -224 -92t-102 -238z" />
    <glyph glyph-name="Edotaccent" unicode="&#x116;" horiz-adv-x="1232" 
d="M176 0v1454h907v-149h-749v-492h596v-151h-596v-512h768v-150h-926zM524 1718q0 43 35.5 77t77.5 34t76.5 -33.5t34.5 -77.5q0 -46 -34 -78t-77 -32t-78 32t-35 78z" />
    <glyph glyph-name="edotaccent" unicode="&#x117;" 
d="M111 530q0 130 40.5 237t109 175.5t155 105.5t180.5 37q95 0 178.5 -33t148.5 -94.5t102.5 -159t37.5 -218.5v-103h-793q1 -88 31.5 -158.5t80.5 -113t110.5 -64.5t125.5 -22q103 0 191 34.5t133 96.5l111 -94q-140 -181 -443 -181q-76 0 -147.5 21t-135.5 66t-112 109.5
t-76 156.5t-28 202zM270 612h637q0 154 -89.5 242t-221.5 88q-131 0 -224 -92t-102 -238zM485 1370q0 43 35.5 77t77.5 34t76.5 -33.5t34.5 -77.5q0 -46 -34 -78t-77 -32t-78 32t-35 78z" />
    <glyph glyph-name="Eogonek" unicode="&#x118;" horiz-adv-x="1232" 
d="M176 0v1454h907v-149h-749v-492h596v-151h-596v-512h768v-150l-191 -211q-19 -22 -22 -41t17 -32t65 -13h123v-143h-154q-68 0 -119 27t-74.5 68t-16.5 94t48 101q19 25 129 150h-731z" />
    <glyph glyph-name="eogonek" unicode="&#x119;" 
d="M111 530q0 130 40.5 237t109 175.5t155 105.5t180.5 37q95 0 178.5 -33t148.5 -94.5t102.5 -159t37.5 -218.5v-103h-793q1 -88 31.5 -158.5t80.5 -113t110.5 -64.5t125.5 -22q103 0 191 34.5t133 96.5l111 -94q-43 -55 -107 -97l-186 -206q-20 -22 -23 -41t17 -32t65 -13
h123l-2 -144h-154q-68 0 -119 27.5t-73.5 69t-15 94t48.5 100.5q22 29 53 63q-23 -2 -70 -2q-76 0 -147.5 21t-135.5 66t-112 109.5t-76 156.5t-28 202zM270 612h637q0 154 -89.5 242t-221.5 88q-131 0 -224 -92t-102 -238z" />
    <glyph glyph-name="Ecaron" unicode="&#x11a;" horiz-adv-x="1232" 
d="M176 0v1454h907v-149h-749v-492h596v-151h-596v-512h768v-150h-926zM334 1827l80 78l221 -154l219 154l78 -76l-217 -223h-158z" />
    <glyph glyph-name="ecaron" unicode="&#x11b;" 
d="M111 530q0 130 40.5 237t109 175.5t155 105.5t180.5 37q95 0 178.5 -33t148.5 -94.5t102.5 -159t37.5 -218.5v-103h-793q1 -88 31.5 -158.5t80.5 -113t110.5 -64.5t125.5 -22q103 0 191 34.5t133 96.5l111 -94q-140 -181 -443 -181q-76 0 -147.5 21t-135.5 66t-112 109.5
t-76 156.5t-28 202zM270 612h637q0 154 -89.5 242t-221.5 88q-131 0 -224 -92t-102 -238zM295 1485l80 78l221 -154l219 154l78 -76l-217 -223h-158z" />
    <glyph glyph-name="Gbreve" unicode="&#x11e;" horiz-adv-x="1437" 
d="M102 735q0 152 36.5 277.5t97.5 210t142.5 142.5t168.5 84t178 26q144 0 271.5 -55.5t213 -159.5t103.5 -236h-158q-18 117 -141.5 208t-288.5 91q-67 0 -131 -19.5t-125 -64.5t-106.5 -111.5t-73 -168t-27.5 -226.5q0 -134 27.5 -240.5t72.5 -173.5t106.5 -111
t124.5 -61.5t132 -17.5q91 0 169 26.5t142.5 81.5t102 151t37.5 224h-381v148h536v-135q0 -139 -34.5 -251t-92.5 -184.5t-137 -121.5t-164 -70t-178 -21q-90 0 -174.5 22.5t-167.5 78t-144 139.5t-99 217t-38 301zM373 1784l92 88q51 -60 120.5 -96.5t135.5 -36.5
q67 0 133 34t119 99l94 -88q-57 -90 -150.5 -138.5t-195.5 -48.5q-96 0 -192.5 52.5t-155.5 134.5z" />
    <glyph glyph-name="gbreve" unicode="&#x11f;" horiz-adv-x="1222" 
d="M127 530q0 132 39 240.5t104 177t146 105.5t168 37q109 0 196.5 -47t120.5 -121l25 143h137v-1063q0 -219 -133 -347t-338 -128q-128 0 -242.5 51t-177.5 143l139 76q101 -119 279 -119q146 0 228.5 85t82.5 237v166q-28 -78 -121 -131t-205 -53q-87 0 -167.5 37
t-143 105t-100 173.5t-37.5 232.5zM264 1454l92 88q51 -60 120.5 -96.5t135.5 -36.5q67 0 133 34t119 99l94 -88q-57 -89 -150.5 -137.5t-195.5 -48.5q-96 0 -192.5 52t-155.5 134zM287 528q-1 -191 88.5 -295t224.5 -104q137 0 225 107.5t88 293.5q0 212 -85 311t-228 99
q-64 0 -120 -25.5t-99.5 -74.5t-68.5 -129.5t-25 -182.5z" />
    <glyph glyph-name="Gdotaccent" unicode="&#x120;" horiz-adv-x="1437" 
d="M102 735q0 152 36.5 277.5t97.5 210t142.5 142.5t168.5 84t178 26q144 0 271.5 -55.5t213 -159.5t103.5 -236h-158q-18 117 -141.5 208t-288.5 91q-67 0 -131 -19.5t-125 -64.5t-106.5 -111.5t-73 -168t-27.5 -226.5q0 -134 27.5 -240.5t72.5 -173.5t106.5 -111
t124.5 -61.5t132 -17.5q91 0 169 26.5t142.5 81.5t102 151t37.5 224h-381v148h536v-135q0 -139 -34.5 -251t-92.5 -184.5t-137 -121.5t-164 -70t-178 -21q-90 0 -174.5 22.5t-167.5 78t-144 139.5t-99 217t-38 301zM610 1710q0 43 35.5 77t77.5 34t76.5 -33.5t34.5 -77.5
q0 -46 -34 -78.5t-77 -32.5t-78 32.5t-35 78.5z" />
    <glyph glyph-name="gdotaccent" unicode="&#x121;" horiz-adv-x="1222" 
d="M127 530q0 132 39 240.5t104 177t146 105.5t168 37q109 0 196.5 -47t120.5 -121l25 143h137v-1063q0 -219 -133 -347t-338 -128q-128 0 -242.5 51t-177.5 143l139 76q101 -119 279 -119q146 0 228.5 85t82.5 237v166q-28 -78 -121 -131t-205 -53q-87 0 -167.5 37
t-143 105t-100 173.5t-37.5 232.5zM287 528q-1 -191 88.5 -295t224.5 -104q137 0 225 107.5t88 293.5q0 212 -85 311t-228 99q-64 0 -120 -25.5t-99.5 -74.5t-68.5 -129.5t-25 -182.5zM502 1370q0 44 35 77.5t77 33.5t76.5 -33.5t34.5 -77.5q0 -46 -34 -78t-77 -32t-77.5 32
t-34.5 78z" />
    <glyph glyph-name="uni0122" unicode="&#x122;" horiz-adv-x="1437" 
d="M102 735q0 152 36.5 277.5t97.5 210t142.5 142.5t168.5 84t178 26q144 0 271.5 -55.5t213 -159.5t103.5 -236h-158q-18 117 -141.5 208t-288.5 91q-67 0 -131 -19.5t-125 -64.5t-106.5 -111.5t-73 -168t-27.5 -226.5q0 -134 27.5 -240.5t72.5 -173.5t106.5 -111
t124.5 -61.5t132 -17.5q91 0 169 26.5t142.5 81.5t102 151t37.5 224h-381v148h536v-135q0 -139 -34.5 -251t-92.5 -184.5t-137 -121.5t-164 -70t-178 -21q-90 0 -174.5 22.5t-167.5 78t-144 139.5t-99 217t-38 301zM598 -438l45 309h184l-82 -309h-147z" />
    <glyph glyph-name="uni0123" unicode="&#x123;" horiz-adv-x="1222" 
d="M127 530q0 132 39 240.5t104 177t146 105.5t168 37q109 0 196.5 -47t120.5 -121l25 143h137v-1063q0 -219 -133 -347t-338 -128q-128 0 -242.5 51t-177.5 143l139 76q101 -119 279 -119q146 0 228.5 85t82.5 237v166q-28 -78 -121 -131t-205 -53q-87 0 -167.5 37
t-143 105t-100 173.5t-37.5 232.5zM287 528q-1 -191 88.5 -295t224.5 -104q137 0 225 107.5t88 293.5q0 212 -85 311t-228 99q-64 0 -120 -25.5t-99.5 -74.5t-68.5 -129.5t-25 -182.5zM508 1239l82 309h147l-45 -309h-184z" />
    <glyph glyph-name="Hbar" unicode="&#x126;" horiz-adv-x="1388" 
d="M18 1087v138h168v229h158v-229h711v229h157v-229h158v-138h-158v-1087h-157v651h-711v-651h-158v1087h-168zM344 803h711v284h-711v-284z" />
    <glyph glyph-name="hbar" unicode="&#x127;" horiz-adv-x="1191" 
d="M-2 1249v129h180v187h160v-187h278v-129h-278v-348q25 74 114.5 129t184.5 55q190 0 295.5 -121.5t105.5 -359.5v-604h-161v604q0 179 -64 256.5t-195 77.5q-122 0 -201 -92.5t-79 -241.5v-604h-160v1249h-180z" />
    <glyph glyph-name="Imacron" unicode="&#x12a;" horiz-adv-x="505" 
d="M37 1636v138h434v-138h-434zM174 0v1454h158v-1454h-158z" />
    <glyph glyph-name="imacron" unicode="&#x12b;" horiz-adv-x="505" 
d="M43 1341v158h420v-158h-420zM174 0v1065h158v-1065h-158z" />
    <glyph glyph-name="Ibreve" unicode="&#x12c;" horiz-adv-x="505" 
d="M-16 1776l98 53q28 -57 72.5 -89t97.5 -32q56 0 101 33t67 88l104 -43q-26 -98 -103 -157.5t-169 -59.5q-87 0 -162 58.5t-106 148.5zM174 0v1454h158v-1454h-158z" />
    <glyph glyph-name="ibreve" unicode="&#x12d;" horiz-adv-x="505" 
d="M-16 1505l98 54q26 -57 70.5 -88t99.5 -31t99.5 32t68.5 87l102 -43q-24 -99 -101 -158.5t-169 -59.5q-88 0 -163.5 58t-104.5 149zM174 0v1065h158v-1065h-158z" />
    <glyph glyph-name="Iogonek" unicode="&#x12e;" horiz-adv-x="505" 
d="M-40 -251q7 53 48 101q16 20 48 56.5t69 78.5t49 56v1413h158v-1454l-191 -211q-19 -22 -22 -41t17 -32t65 -13h123v-143h-154q-68 0 -119 27t-74.5 68t-16.5 94z" />
    <glyph glyph-name="iogonek" unicode="&#x12f;" horiz-adv-x="534" 
d="M-30 -248q7 53 48 101q22 27 91 105t75 85v1022h158v-1065h-2l-188 -209q-20 -22 -23 -41t17 -32t65 -13h123v-143h-154q-68 0 -119 27t-74.5 68.5t-16.5 94.5zM150 1376q0 43 31.5 72t72.5 29q42 0 74 -29t32 -72q0 -44 -31.5 -73t-74.5 -29q-41 0 -72.5 29t-31.5 73z
" />
    <glyph glyph-name="Idotaccent" unicode="&#x130;" horiz-adv-x="505" 
d="M131 1720q0 43 35.5 77t77.5 34t76 -33.5t34 -77.5q0 -46 -33.5 -78t-76.5 -32t-78 32t-35 78zM174 0v1454h158v-1454h-158z" />
    <glyph glyph-name="dotlessi" unicode="&#x131;" horiz-adv-x="505" 
d="M174 0v1065h158v-1065h-158z" />
    <glyph glyph-name="uni0136" unicode="&#x136;" horiz-adv-x="1323" 
d="M176 0v1454h158v-772l696 772h211l-579 -641l602 -813h-195l-514 696l-221 -245v-451h-158zM545 -494l45 310h184l-82 -310h-147z" />
    <glyph glyph-name="uni0137" unicode="&#x137;" horiz-adv-x="1093" 
d="M174 0v1454h160v-862l463 473h213l-432 -442l475 -623h-191l-395 518l-133 -129v-389h-160zM457 -498l45 310h184l-82 -310h-147z" />
    <glyph glyph-name="Lacute" unicode="&#x139;" horiz-adv-x="1146" 
d="M176 0v1454h158v-1302h721v-152h-879zM188 1628l213 359l158 -125l-225 -234h-146z" />
    <glyph glyph-name="lacute" unicode="&#x13a;" horiz-adv-x="507" 
d="M170 1565l131 295l158 -125l-144 -170h-145zM174 0v1454h160v-1454h-160z" />
    <glyph glyph-name="uni013B" unicode="&#x13b;" horiz-adv-x="1146" 
d="M176 0v1454h158v-1302h721v-152h-879zM451 -498l45 310h184l-82 -310h-147z" />
    <glyph glyph-name="uni013C" unicode="&#x13c;" horiz-adv-x="507" 
d="M111 -479l45 309h184l-82 -309h-147zM174 0v1454h160v-1454h-160z" />
    <glyph glyph-name="Lcaron" unicode="&#x13d;" horiz-adv-x="1144" 
d="M174 0v1454h158v-1302h721v-152h-879zM909 1053l47 401h179l-84 -401h-142z" />
    <glyph glyph-name="lcaron" unicode="&#x13e;" horiz-adv-x="757" 
d="M174 0v1454h160v-1454h-160zM543 1090l88 385h178l-125 -385h-141z" />
    <glyph glyph-name="Ldot" unicode="&#x13f;" horiz-adv-x="1146" 
d="M176 0v1454h158v-1302h721v-152h-879zM760 788q0 44 35 77.5t77 33.5t76.5 -33.5t34.5 -77.5q0 -46 -34 -78t-77 -32t-77.5 32t-34.5 78z" />
    <glyph glyph-name="ldot" unicode="&#x140;" horiz-adv-x="841" 
d="M174 0v1454h160v-1454h-160zM537 717q0 46 33 79t75 33q44 0 77.5 -33t33.5 -79t-33.5 -77.5t-77.5 -31.5q-43 0 -75.5 31.5t-32.5 77.5z" />
    <glyph glyph-name="Lslash" unicode="&#x141;" horiz-adv-x="1196" 
d="M12 623l213 108v723h158v-641l358 184l64 -131l-422 -217v-497h721v-152h-879v567l-149 -78z" />
    <glyph glyph-name="lslash" unicode="&#x142;" horiz-adv-x="612" 
d="M35 797l188 92v565h160v-485l127 61l68 -141l-195 -94v-795h-160v717l-119 -58z" />
    <glyph glyph-name="Nacute" unicode="&#x143;" horiz-adv-x="1443" 
d="M174 0v1454h186l752 -1200v1200h158v-1454h-191l-747 1194v-1194h-158zM629 1589l213 359l157 -125l-225 -234h-145z" />
    <glyph glyph-name="nacute" unicode="&#x144;" horiz-adv-x="1171" 
d="M174 0v1065h121l27 -145q34 75 124.5 125.5t194.5 50.5q174 0 280.5 -121t106.5 -336v-639h-160v637q0 152 -65 231.5t-197 79.5q-120 0 -196 -84t-76 -227v-637h-160zM475 1245l213 359l158 -125l-225 -234h-146z" />
    <glyph glyph-name="uni0145" unicode="&#x145;" horiz-adv-x="1443" 
d="M174 0v1454h186l752 -1200v1200h158v-1454h-191l-747 1194v-1194h-158zM575 -397l46 309h184l-82 -309h-148z" />
    <glyph glyph-name="uni0146" unicode="&#x146;" horiz-adv-x="1171" 
d="M174 0v1065h121l27 -145q34 75 124.5 125.5t194.5 50.5q174 0 280.5 -121t106.5 -336v-639h-160v637q0 152 -65 231.5t-197 79.5q-120 0 -196 -84t-76 -227v-637h-160zM467 -487l45 309h184l-82 -309h-147z" />
    <glyph glyph-name="Ncaron" unicode="&#x147;" horiz-adv-x="1443" 
d="M174 0v1454h186l752 -1200v1200h158v-1454h-191l-747 1194v-1194h-158zM424 1798l80 78l221 -154l219 154l78 -76l-217 -223h-158z" />
    <glyph glyph-name="ncaron" unicode="&#x148;" horiz-adv-x="1171" 
d="M174 0v1065h121l27 -145q34 75 124.5 125.5t194.5 50.5q174 0 280.5 -121t106.5 -336v-639h-160v637q0 152 -65 231.5t-197 79.5q-120 0 -196 -84t-76 -227v-637h-160zM291 1487l80 78l221 -154l219 154l78 -76l-217 -223h-158z" />
    <glyph glyph-name="Omacron" unicode="&#x14c;" horiz-adv-x="1437" 
d="M102 737q0 147 34 269.5t92.5 207.5t137.5 144.5t168 87t185 27.5q95 0 184 -28t168 -87.5t137.5 -145t92.5 -207.5t34 -268q0 -151 -34.5 -277.5t-93 -213t-137.5 -146.5t-167.5 -88t-183.5 -28q-93 0 -180 26t-167 84.5t-139.5 144t-95 214t-35.5 284.5zM260 737
q0 -127 26 -229.5t69.5 -171t103 -114.5t124.5 -66.5t136 -20.5q70 0 136 21.5t125.5 69t103.5 116t70 170.5t26 225q0 120 -26.5 218.5t-70.5 165.5t-103.5 113t-125 66.5t-135.5 20.5q-90 0 -170.5 -34.5t-146 -102.5t-104 -183t-38.5 -264zM350 1642v138h744v-138h-744z
" />
    <glyph glyph-name="omacron" unicode="&#x14d;" horiz-adv-x="1208" 
d="M111 532q0 141 42.5 250.5t113.5 173.5t156.5 96.5t178.5 32.5q94 0 180 -33.5t158 -98.5t115 -174t43 -247q0 -109 -29.5 -201t-78.5 -155t-113.5 -108t-134 -65.5t-140.5 -20.5q-90 0 -175.5 34t-157 99t-115 173t-43.5 244zM231 1317v137h744v-137h-744zM266 532
q0 -99 30 -178.5t79 -127t107.5 -72.5t119.5 -25q48 0 94.5 14t91.5 46t79 77.5t54.5 114.5t20.5 151q0 105 -30 186.5t-80 128t-108 70t-122 23.5q-66 0 -124 -23t-106.5 -69.5t-77 -128t-28.5 -187.5z" />
    <glyph glyph-name="Obreve" unicode="&#x14e;" horiz-adv-x="1437" 
d="M102 737q0 147 34 269.5t92.5 207.5t137.5 144.5t168 87t185 27.5q95 0 184 -28t168 -87.5t137.5 -145t92.5 -207.5t34 -268q0 -151 -34.5 -277.5t-93 -213t-137.5 -146.5t-167.5 -88t-183.5 -28q-93 0 -180 26t-167 84.5t-139.5 144t-95 214t-35.5 284.5zM260 737
q0 -127 26 -229.5t69.5 -171t103 -114.5t124.5 -66.5t136 -20.5q70 0 136 21.5t125.5 69t103.5 116t70 170.5t26 225q0 120 -26.5 218.5t-70.5 165.5t-103.5 113t-125 66.5t-135.5 20.5q-90 0 -170.5 -34.5t-146 -102.5t-104 -183t-38.5 -264zM373 1784l92 88
q51 -60 120.5 -96.5t135.5 -36.5q67 0 133 34t119 99l94 -88q-57 -90 -150.5 -138.5t-195.5 -48.5q-96 0 -192.5 52.5t-155.5 134.5z" />
    <glyph glyph-name="obreve" unicode="&#x14f;" horiz-adv-x="1208" 
d="M111 532q0 141 42.5 250.5t113.5 173.5t156.5 96.5t178.5 32.5q94 0 180 -33.5t158 -98.5t115 -174t43 -247q0 -109 -29.5 -201t-78.5 -155t-113.5 -108t-134 -65.5t-140.5 -20.5q-90 0 -175.5 34t-157 99t-115 173t-43.5 244zM254 1456l92 88q51 -60 120.5 -96.5
t135.5 -36.5q67 0 133 34t119 99l94 -88q-57 -89 -150.5 -137.5t-195.5 -48.5q-96 0 -192.5 52t-155.5 134zM266 532q0 -99 30 -178.5t79 -127t107.5 -72.5t119.5 -25q48 0 94.5 14t91.5 46t79 77.5t54.5 114.5t20.5 151q0 105 -30 186.5t-80 128t-108 70t-122 23.5
q-66 0 -124 -23t-106.5 -69.5t-77 -128t-28.5 -187.5z" />
    <glyph glyph-name="Ohungarumlaut" unicode="&#x150;" horiz-adv-x="1437" 
d="M102 737q0 147 34 269.5t92.5 207.5t137.5 144.5t168 87t185 27.5q95 0 184 -28t168 -87.5t137.5 -145t92.5 -207.5t34 -268q0 -151 -34.5 -277.5t-93 -213t-137.5 -146.5t-167.5 -88t-183.5 -28q-93 0 -180 26t-167 84.5t-139.5 144t-95 214t-35.5 284.5zM260 737
q0 -127 26 -229.5t69.5 -171t103 -114.5t124.5 -66.5t136 -20.5q70 0 136 21.5t125.5 69t103.5 116t70 170.5t26 225q0 120 -26.5 218.5t-70.5 165.5t-103.5 113t-125 66.5t-135.5 20.5q-90 0 -170.5 -34.5t-146 -102.5t-104 -183t-38.5 -264zM479 1604l174 356l152 -92
l-189 -264h-137zM793 1604l174 356l153 -92l-190 -264h-137z" />
    <glyph glyph-name="ohungarumlaut" unicode="&#x151;" horiz-adv-x="1208" 
d="M111 532q0 141 42.5 250.5t113.5 173.5t156.5 96.5t178.5 32.5q94 0 180 -33.5t158 -98.5t115 -174t43 -247q0 -109 -29.5 -201t-78.5 -155t-113.5 -108t-134 -65.5t-140.5 -20.5q-90 0 -175.5 34t-157 99t-115 173t-43.5 244zM266 532q0 -99 30 -178.5t79 -127
t107.5 -72.5t119.5 -25q48 0 94.5 14t91.5 46t79 77.5t54.5 114.5t20.5 151q0 105 -30 186.5t-80 128t-108 70t-122 23.5q-66 0 -124 -23t-106.5 -69.5t-77 -128t-28.5 -187.5zM344 1245l174 357l152 -93l-189 -264h-137zM657 1245l174 357l154 -93l-190 -264h-138z" />
    <glyph glyph-name="OE" unicode="&#x152;" horiz-adv-x="2041" 
d="M33 737q0 147 34 269.5t92 207.5t137 144.5t168 87t185 27.5q248 0 418 -173v154h907v-149h-749v-275q30 -100 39 -217h557v-151h-557q-9 -127 -39 -226v-286h768v-150h-926v158q-84 -87 -192 -130.5t-226 -43.5q-93 0 -180 26t-167 84.5t-139 144t-94.5 214t-35.5 284.5
zM190 737q0 -127 26 -229.5t69.5 -171t103 -114.5t124.5 -66.5t136 -20.5q135 0 248.5 81t169.5 239v555q-56 155 -169.5 233t-248.5 78q-90 0 -170.5 -34.5t-146 -102.5t-104 -183t-38.5 -264z" />
    <glyph glyph-name="oe" unicode="&#x153;" horiz-adv-x="1785" 
d="M41 532q0 141 42.5 250.5t113.5 173.5t156.5 96.5t178.5 32.5q118 0 224.5 -51.5t175.5 -152.5q68 98 170.5 151t216.5 53q95 0 178.5 -33t148.5 -94.5t102.5 -159t37.5 -218.5v-103h-760q-3 -57 -18 -110q34 -120 127 -184t206 -64q103 0 191 34.5t133 96.5l111 -94
q-140 -181 -443 -181q-119 0 -227 54t-178 157q-71 -99 -177.5 -151.5t-218.5 -52.5q-90 0 -175.5 34t-157 99t-115 173t-43.5 244zM197 532q0 -99 30 -178.5t79 -127t107 -72.5t119 -25q100 0 189.5 62.5t128.5 183.5q-16 75 -16 155q0 88 18 162q-37 124 -126 186t-194 62
q-66 0 -124 -23t-106 -69.5t-76.5 -128t-28.5 -187.5zM1010 702q12 -58 14 -90h606q0 154 -89.5 242t-221.5 88q-107 0 -192 -65.5t-117 -174.5z" />
    <glyph glyph-name="Racute" unicode="&#x154;" horiz-adv-x="1300" 
d="M174 0v1454h494q117 0 210.5 -32.5t153.5 -89.5t91.5 -133.5t31.5 -166.5q0 -153 -85.5 -257.5t-199.5 -133.5l301 -641h-174l-284 608h-381v-608h-158zM332 758h334q148 0 237.5 73.5t89.5 200.5q0 128 -87.5 199.5t-239.5 71.5h-334v-545zM537 1616l213 358l157 -125
l-225 -233h-145z" />
    <glyph glyph-name="racute" unicode="&#x155;" horiz-adv-x="790" 
d="M174 0v1065h121l27 -135q37 65 118 110t164 45q27 0 72.5 -3t64.5 -3v-151q-102 8 -145 8q-121 0 -191.5 -81.5t-70.5 -238.5v-616h-160zM303 1251l213 359l158 -125l-225 -234h-146z" />
    <glyph glyph-name="uni0156" unicode="&#x156;" horiz-adv-x="1300" 
d="M174 0v1454h494q117 0 210.5 -32.5t153.5 -89.5t91.5 -133.5t31.5 -166.5q0 -153 -85.5 -257.5t-199.5 -133.5l301 -641h-174l-284 608h-381v-608h-158zM332 758h334q148 0 237.5 73.5t89.5 200.5q0 128 -87.5 199.5t-239.5 71.5h-334v-545zM516 -397l45 309h184
l-81 -309h-148z" />
    <glyph glyph-name="uni0157" unicode="&#x157;" horiz-adv-x="790" 
d="M137 -442l45 309h185l-82 -309h-148zM174 0v1065h121l27 -135q37 65 118 110t164 45q27 0 72.5 -3t64.5 -3v-151q-102 8 -145 8q-121 0 -191.5 -81.5t-70.5 -238.5v-616h-160z" />
    <glyph glyph-name="Rcaron" unicode="&#x158;" horiz-adv-x="1300" 
d="M174 0v1454h494q117 0 210.5 -32.5t153.5 -89.5t91.5 -133.5t31.5 -166.5q0 -153 -85.5 -257.5t-199.5 -133.5l301 -641h-174l-284 608h-381v-608h-158zM332 758h334q148 0 237.5 73.5t89.5 200.5q0 128 -87.5 199.5t-239.5 71.5h-334v-545zM332 1825l80 78l221 -154
l219 154l78 -76l-217 -223h-158z" />
    <glyph glyph-name="rcaron" unicode="&#x159;" horiz-adv-x="790" 
d="M119 1493l80 78l221 -154l219 154l78 -76l-217 -223h-158zM174 0v1065h121l27 -135q37 65 118 110t164 45q27 0 72.5 -3t64.5 -3v-151q-102 8 -145 8q-121 0 -191.5 -81.5t-70.5 -238.5v-616h-160z" />
    <glyph glyph-name="Sacute" unicode="&#x15a;" horiz-adv-x="1198" 
d="M90 244l113 96q88 -103 181 -154t222 -51q154 0 239 71t85 202q0 61 -19 106.5t-48 73.5t-80 47.5t-99 29.5t-121 19q-76 10 -146 38t-130.5 74t-96.5 117t-36 156q0 187 125 296.5t344 109.5q150 0 251.5 -48t176.5 -135l-115 -100q-44 58 -128 94.5t-204 36.5
q-134 0 -214.5 -65t-80.5 -185q0 -59 24 -101t73 -68.5t106.5 -41.5t140.5 -26q88 -12 161 -39.5t137 -76t100 -128t36 -182.5q0 -209 -132 -318.5t-345 -109.5q-308 0 -520 262zM512 1612l213 358l158 -125l-226 -233h-145z" />
    <glyph glyph-name="sacute" unicode="&#x15b;" horiz-adv-x="1028" 
d="M100 129l101 115q61 -53 143 -85t172 -32q122 0 191 45.5t69 126.5q0 87 -67.5 122t-255.5 54q-65 6 -120 26.5t-100 55.5t-70.5 90.5t-25.5 126.5q0 129 113.5 220t277.5 91q123 0 216 -35.5t147 -91.5l-100 -110q-4 4 -12.5 10.5t-35.5 23t-56 29t-73 23t-88 10.5
q-99 0 -166 -43.5t-67 -114.5q0 -86 61 -118t207 -45q375 -35 375 -324q0 -143 -116.5 -233.5t-301.5 -90.5q-237 0 -418 154zM408 1239l213 358l157 -124l-225 -234h-145z" />
    <glyph glyph-name="Scedilla" unicode="&#x15e;" horiz-adv-x="1198" 
d="M90 244l113 96q88 -103 181 -154t222 -51q154 0 239 71t85 202q0 61 -19 106.5t-48 73.5t-80 47.5t-99 29.5t-121 19q-76 10 -146 38t-130.5 74t-96.5 117t-36 156q0 187 125 296.5t344 109.5q150 0 251.5 -48t176.5 -135l-115 -100q-44 58 -128 94.5t-204 36.5
q-134 0 -214.5 -65t-80.5 -185q0 -59 24 -101t73 -68.5t106.5 -41.5t140.5 -26q88 -12 161 -39.5t137 -76t100 -128t36 -182.5q0 -203 -124 -312.5t-328 -115.5l-10 -62q91 -11 150 -69t59 -148q0 -92 -61 -153.5t-177 -61.5q-13 0 -25.5 1t-25.5 3.5t-22.5 4t-23.5 6
t-20.5 6.5t-20.5 7.5t-17.5 7t-18.5 7.5l-14 6l47 123q90 -37 143 -37q41 0 70.5 21t29.5 59q0 77 -129 90l-80 8l39 185q-255 32 -438 258z" />
    <glyph glyph-name="scedilla" unicode="&#x15f;" horiz-adv-x="1028" 
d="M100 129l101 115q61 -53 143 -85t172 -32q122 0 191 45.5t69 126.5q0 87 -67.5 122t-255.5 54q-65 6 -120 26.5t-100 55.5t-70.5 90.5t-25.5 126.5q0 129 113.5 220t277.5 91q123 0 216 -35.5t147 -91.5l-100 -110q-4 4 -12.5 10.5t-35.5 23t-56 29t-73 23t-88 10.5
q-99 0 -166 -43.5t-67 -114.5q0 -86 61 -118t207 -45q375 -35 375 -324q0 -138 -109 -228t-286 -96l-11 -67q91 -11 150 -69t59 -148q0 -92 -61 -153.5t-176 -61.5q-72 0 -189 49l47 123q90 -37 144 -37q41 0 70.5 21t29.5 59q0 77 -129 90l-80 8l41 193q-187 20 -336 147z
" />
    <glyph glyph-name="Scaron" unicode="&#x160;" horiz-adv-x="1198" 
d="M90 244l113 96q88 -103 181 -154t222 -51q154 0 239 71t85 202q0 61 -19 106.5t-48 73.5t-80 47.5t-99 29.5t-121 19q-76 10 -146 38t-130.5 74t-96.5 117t-36 156q0 187 125 296.5t344 109.5q150 0 251.5 -48t176.5 -135l-115 -100q-44 58 -128 94.5t-204 36.5
q-134 0 -214.5 -65t-80.5 -185q0 -59 24 -101t73 -68.5t106.5 -41.5t140.5 -26q88 -12 161 -39.5t137 -76t100 -128t36 -182.5q0 -209 -132 -318.5t-345 -109.5q-308 0 -520 262zM307 1821l80 77l221 -153l219 153l78 -75l-217 -224h-158z" />
    <glyph glyph-name="scaron" unicode="&#x161;" horiz-adv-x="1028" 
d="M100 129l101 115q61 -53 143 -85t172 -32q122 0 191 45.5t69 126.5q0 87 -67.5 122t-255.5 54q-65 6 -120 26.5t-100 55.5t-70.5 90.5t-25.5 126.5q0 129 113.5 220t277.5 91q123 0 216 -35.5t147 -91.5l-100 -110q-4 4 -12.5 10.5t-35.5 23t-56 29t-73 23t-88 10.5
q-99 0 -166 -43.5t-67 -114.5q0 -86 61 -118t207 -45q375 -35 375 -324q0 -143 -116.5 -233.5t-301.5 -90.5q-237 0 -418 154zM223 1481l80 78l221 -154l219 154l78 -76l-217 -223h-158z" />
    <glyph glyph-name="uni0162" unicode="&#x162;" horiz-adv-x="1206" 
d="M96 1303v151h1014v-151h-428v-1303h-55l-15 -86q91 -11 150 -69t59 -148q0 -92 -61 -153.5t-176 -61.5q-72 0 -189 49l47 123q90 -37 144 -37q41 0 70.5 21t29.5 59q0 77 -129 90l-80 8l45 209v1299h-426z" />
    <glyph glyph-name="uni0163" unicode="&#x163;" horiz-adv-x="733" 
d="M61 922v143h168l52 297h116v-297h254v-143h-254v-584q0 -199 178 -199q53 0 76 2v-141q-36 -8 -102 -8q-41 0 -86 10l-8 -47q91 -11 150 -69t59 -148q0 -92 -61 -153.5t-177 -61.5q-13 0 -25.5 1t-25.5 3.5t-22.5 4t-23.5 6t-20.5 6.5t-20.5 7.5t-17.5 7t-18.5 7.5l-14 6
l47 123q90 -37 143 -37q41 0 70.5 21t29.5 59q0 77 -129 90l-80 8l46 209h4q-129 87 -129 277v600h-179z" />
    <glyph glyph-name="Tcaron" unicode="&#x164;" horiz-adv-x="1206" 
d="M96 1303v151h1014v-151h-428v-1303h-160v1303h-426zM297 1825l80 78l221 -154l219 154l78 -76l-217 -223h-158z" />
    <glyph glyph-name="tcaron" unicode="&#x165;" horiz-adv-x="933" 
d="M61 922v143h168l52 297h116v-297h254v-143h-254v-584q0 -199 178 -199q53 0 76 2v-141q-36 -8 -102 -8q-128 0 -218.5 84.5t-90.5 245.5v600h-179zM729 1247l68 381h178l-105 -381h-141z" />
    <glyph glyph-name="Umacron" unicode="&#x16a;" horiz-adv-x="1357" 
d="M131 594v860h158v-862q0 -228 107.5 -345.5t283.5 -117.5q178 0 284.5 118t106.5 345v862h156v-860q0 -293 -148.5 -455t-398.5 -162q-247 0 -398 160.5t-151 456.5zM307 1610v137h744v-137h-744z" />
    <glyph glyph-name="umacron" unicode="&#x16b;" 
d="M143 430v635h162v-635q0 -149 71.5 -227t194.5 -78q119 0 194 81t75 224v635h159v-1065h-120l-25 154q-26 -72 -119.5 -124.5t-185.5 -52.5q-175 0 -290.5 118.5t-115.5 334.5zM203 1315v137h743v-137h-743z" />
    <glyph glyph-name="Ubreve" unicode="&#x16c;" horiz-adv-x="1357" 
d="M131 594v860h158v-862q0 -228 107.5 -345.5t283.5 -117.5q178 0 284.5 118t106.5 345v862h156v-860q0 -293 -148.5 -455t-398.5 -162q-247 0 -398 160.5t-151 456.5zM330 1751l92 88q51 -60 120.5 -96.5t135.5 -36.5q67 0 133 34t119 99l94 -88q-57 -89 -150.5 -137.5
t-195.5 -48.5q-96 0 -192.5 52t-155.5 134z" />
    <glyph glyph-name="ubreve" unicode="&#x16d;" 
d="M143 430v635h162v-635q0 -149 71.5 -227t194.5 -78q119 0 194 81t75 224v635h159v-1065h-120l-25 154q-26 -72 -119.5 -124.5t-185.5 -52.5q-175 0 -290.5 118.5t-115.5 334.5zM225 1454l92 88q51 -60 120.5 -96.5t135.5 -36.5q67 0 133 34t119 99l95 -88
q-57 -89 -151 -137.5t-196 -48.5q-96 0 -192.5 52t-155.5 134z" />
    <glyph glyph-name="Uring" unicode="&#x16e;" horiz-adv-x="1357" 
d="M131 594v860h158v-862q0 -228 107.5 -345.5t283.5 -117.5q178 0 284.5 118t106.5 345v862h156v-860q0 -293 -148.5 -455t-398.5 -162q-247 0 -398 160.5t-151 456.5zM449 1712q0 92 70.5 162t160.5 70q88 0 158.5 -70t70.5 -162q0 -95 -69 -162t-160 -67q-92 0 -161.5 67
t-69.5 162zM561 1710q0 -51 33.5 -84t85.5 -33t84.5 33t32.5 84q0 49 -33.5 85t-83.5 36t-84.5 -36.5t-34.5 -84.5z" />
    <glyph glyph-name="uring" unicode="&#x16f;" 
d="M143 430v635h162v-635q0 -149 71.5 -227t194.5 -78q119 0 194 81t75 224v635h159v-1065h-120l-25 154q-26 -72 -119.5 -124.5t-185.5 -52.5q-175 0 -290.5 118.5t-115.5 334.5zM344 1444q0 92 70.5 161.5t160.5 69.5q89 0 159.5 -70t70.5 -161q0 -95 -69.5 -162.5
t-160.5 -67.5q-92 0 -161.5 67.5t-69.5 162.5zM457 1442q0 -51 33 -84t85 -33t84.5 33t32.5 84q0 49 -33.5 85t-83.5 36t-84 -36.5t-34 -84.5z" />
    <glyph glyph-name="Uhungarumlaut" unicode="&#x170;" horiz-adv-x="1357" 
d="M131 594v860h158v-862q0 -228 107.5 -345.5t283.5 -117.5q178 0 284.5 118t106.5 345v862h156v-860q0 -293 -148.5 -455t-398.5 -162q-247 0 -398 160.5t-151 456.5zM436 1571l174 356l152 -92l-189 -264h-137zM750 1571l174 356l153 -92l-190 -264h-137z" />
    <glyph glyph-name="uhungarumlaut" unicode="&#x171;" 
d="M143 430v635h162v-635q0 -149 71.5 -227t194.5 -78q119 0 194 81t75 224v635h159v-1065h-120l-25 154q-26 -72 -119.5 -124.5t-185.5 -52.5q-175 0 -290.5 118.5t-115.5 334.5zM315 1243l174 356l152 -92l-188 -264h-138zM629 1243l174 356l153 -92l-190 -264h-137z" />
    <glyph glyph-name="Uogonek" unicode="&#x172;" horiz-adv-x="1357" 
d="M131 594v860h158v-862q0 -228 107.5 -345.5t283.5 -117.5q178 0 284.5 118t106.5 345v862h156v-860q0 -222 -86.5 -369.5t-241.5 -208.5l-186 -206q-20 -22 -23 -41t17 -32t65 -13h123v-144h-154q-68 0 -119 27t-74 68.5t-16 94.5t48 101q26 32 92 106
q-119 2 -217.5 42.5t-171 116.5t-112.5 193.5t-40 264.5z" />
    <glyph glyph-name="uogonek" unicode="&#x173;" 
d="M143 430v635h162v-635q0 -149 71.5 -227t194.5 -78q119 0 194 81t75 224v635h159v-1065l-190 -211q-20 -22 -23 -41t17 -32t65 -13h123v-143h-153q-68 0 -119 27t-74.5 68t-16.5 94t48 101q29 36 174 199q2 4 18 14l-14 91q-26 -72 -119.5 -124.5t-185.5 -52.5
q-175 0 -290.5 118.5t-115.5 334.5z" />
    <glyph glyph-name="Wcircumflex" unicode="&#x174;" horiz-adv-x="1896" 
d="M68 1454h163l326 -1184l336 1084h123l334 -1094l313 1194h166l-389 -1454h-174l-312 1016l-311 -1016h-178zM653 1653l221 225h158l219 -221l-82 -76l-215 152l-221 -154z" />
    <glyph glyph-name="wcircumflex" unicode="&#x175;" horiz-adv-x="1546" 
d="M61 1065h166l230 -801l256 801h125l264 -797l215 797h168l-303 -1065h-156l-252 735l-250 -735h-147zM467 1309l221 225h158l219 -221l-82 -76l-215 152l-221 -154z" />
    <glyph glyph-name="Ycircumflex" unicode="&#x176;" horiz-adv-x="1271" 
d="M70 1454h180l387 -696l385 696h180l-487 -879v-575h-158v575zM338 1636l221 226h158l219 -222l-82 -75l-215 151l-221 -153z" />
    <glyph glyph-name="ycircumflex" unicode="&#x177;" horiz-adv-x="1060" 
d="M61 1065h170l297 -856l301 856h170l-550 -1473h-158l158 406v4zM227 1311l222 225h157l219 -221l-82 -76l-215 152l-221 -154z" />
    <glyph glyph-name="Ydieresis" unicode="&#x178;" horiz-adv-x="1271" 
d="M70 1454h180l387 -696l385 696h180l-487 -879v-575h-158v575zM324 1690q0 42 31.5 73t70.5 31q42 0 73 -31t31 -73t-31 -73.5t-73 -31.5q-39 0 -70.5 31.5t-31.5 73.5zM750 1690q0 42 31 73t71 31t72 -31t32 -73t-32 -73.5t-72 -31.5t-71 31.5t-31 73.5z" />
    <glyph glyph-name="Zacute" unicode="&#x179;" horiz-adv-x="1171" 
d="M86 0v150l788 1153h-763v151h970v-133l-798 -1169h802v-152h-999zM479 1618l213 358l158 -125l-225 -233h-146z" />
    <glyph glyph-name="zacute" unicode="&#x17a;" horiz-adv-x="960" 
d="M104 0v127l549 791h-538v147h727v-117l-551 -798h565v-150h-752zM356 1243l213 359l158 -125l-225 -234h-146z" />
    <glyph glyph-name="Zdotaccent" unicode="&#x17b;" horiz-adv-x="1171" 
d="M86 0v150l788 1153h-763v151h970v-133l-798 -1169h802v-152h-999zM465 1718q0 43 35.5 77t77.5 34t76 -33.5t34 -77.5q0 -46 -33.5 -78t-76.5 -32t-78 32t-35 78z" />
    <glyph glyph-name="zdotaccent" unicode="&#x17c;" horiz-adv-x="960" 
d="M104 0v127l549 791h-538v147h727v-117l-551 -798h565v-150h-752zM362 1370q0 43 35.5 77t77.5 34t76.5 -33.5t34.5 -77.5q0 -46 -34 -78t-77 -32t-78 32t-35 78z" />
    <glyph glyph-name="Zcaron" unicode="&#x17d;" horiz-adv-x="1171" 
d="M86 0v150l788 1153h-763v151h970v-133l-798 -1169h802v-152h-999zM274 1827l80 78l221 -154l220 154l77 -76l-217 -223h-157z" />
    <glyph glyph-name="zcaron" unicode="&#x17e;" horiz-adv-x="960" 
d="M104 0v127l549 791h-538v147h727v-117l-551 -798h565v-150h-752zM172 1485l80 78l221 -154l219 154l78 -76l-217 -223h-158z" />
    <glyph glyph-name="uni01DD" unicode="&#x1dd;" 
d="M94 432v103h793q-1 88 -31.5 158.5t-80.5 113t-110.5 64.5t-125.5 22q-103 0 -191 -34.5t-133 -96.5l-111 94q139 180 443 180q95 0 183 -34.5t159.5 -100.5t114.5 -175t43 -245q0 -130 -41 -237t-109.5 -175.5t-155 -105.5t-180.5 -37q-95 0 -178.5 33t-148.5 95
t-102.5 159.5t-37.5 218.5zM250 399q0 -154 89.5 -241.5t221.5 -87.5q131 0 224 91.5t102 237.5h-637z" />
    <glyph glyph-name="Aringacute" unicode="&#x1fa;" horiz-adv-x="1380" 
d="M59 0l549 1454h164l549 -1454h-164l-139 367h-651l-140 -367h-168zM422 516h539l-271 709zM461 1753q0 92 70.5 162t160.5 70q89 0 159.5 -70.5t70.5 -161.5q0 -95 -69.5 -162t-160.5 -67q-92 0 -161.5 67t-69.5 162zM573 1751q0 -51 33.5 -84t85.5 -33t84.5 33t32.5 84
q0 49 -33.5 85t-83.5 36t-84.5 -36.5t-34.5 -84.5zM573 2064l213 359l158 -125l-225 -234h-146z" />
    <glyph glyph-name="aringacute" unicode="&#x1fb;" horiz-adv-x="1089" 
d="M109 297q0 145 112 243.5t309 98.5q66 0 147 -14t126 -31v51q0 83 -25.5 143t-68.5 91.5t-89.5 46t-99.5 14.5q-154 0 -227 -98l-129 65q56 82 149.5 130t221.5 48q63 0 122 -15t114.5 -49.5t96.5 -85t65.5 -126.5t24.5 -168v-641h-127l-20 135q-31 -55 -136 -103
t-216 -48q-149 0 -249.5 92.5t-100.5 220.5zM262 305q0 -88 62.5 -136t169.5 -48q93 0 192 64t117 130v156q-41 11 -121.5 19.5t-151.5 7.5q-133 -3 -200.5 -57t-67.5 -136zM326 1384q0 92 70.5 162t160.5 70q89 0 159 -70t70 -162q0 -95 -69 -162t-160 -67q-92 0 -161.5 67
t-69.5 162zM438 1382q0 -51 33.5 -83.5t85.5 -32.5t84.5 32.5t32.5 83.5q0 49 -33.5 85t-83.5 36t-84.5 -36.5t-34.5 -84.5zM461 1671l213 359l157 -125l-225 -234h-145z" />
    <glyph glyph-name="AEacute" unicode="&#x1fc;" horiz-adv-x="1998" 
d="M0 0l883 1454h970v-149h-733v-494h590v-149h-590v-512h738v-150h-895v358h-562l-221 -358h-180zM489 506h474v774zM979 1593l213 359l158 -125l-226 -234h-145z" />
    <glyph glyph-name="aeacute" unicode="&#x1fd;" horiz-adv-x="1746" 
d="M61 301q0 159 114 251.5t314 92.5q178 0 277 -31v15q-12 162 -79 241.5t-204 79.5q-26 0 -49 -2t-43 -7.5t-35.5 -10t-32.5 -14.5t-26 -14.5t-23.5 -17t-19 -16.5t-18 -17.5t-15.5 -14.5l-117 79q55 72 151.5 123.5t233.5 51.5q277 0 379 -218q68 102 172 157.5t220 55.5
q95 0 178.5 -33t148 -94.5t102 -159t37.5 -218.5v-103h-792q1 -88 31.5 -158.5t80.5 -113t110.5 -64.5t125.5 -22q103 0 191 34.5t133 96.5l110 -94q-140 -181 -442 -181q-125 0 -236.5 58t-179.5 170q-62 -111 -166.5 -165t-232.5 -54q-178 0 -288 90t-110 227zM213 311
q0 -84 63.5 -137t176.5 -53q135 0 221 78t92 235v47q-43 18 -123 27t-149 4q-139 -3 -210 -57.5t-71 -143.5zM776 1235l213 358l158 -125l-225 -233h-146zM934 612h637q0 154 -89.5 242t-221.5 88q-131 0 -224 -92t-102 -238z" />
    <glyph glyph-name="Oslashacute" unicode="&#x1fe;" horiz-adv-x="1437" 
d="M102 737q0 147 34 269.5t92.5 207.5t137.5 144.5t168 87t185 27.5q186 0 332 -101l94 144l119 -76l-107 -162q178 -198 178 -541q0 -151 -34.5 -277.5t-93 -213t-137.5 -146.5t-167.5 -88t-183.5 -28q-190 0 -336 102l-94 -143l-121 75l106 164q-172 207 -172 555z
M260 737q0 -259 107 -415l600 921q-109 78 -248 78q-90 0 -170.5 -34.5t-146 -102.5t-104 -183t-38.5 -264zM467 215q111 -80 252 -80q70 0 136 21.5t125.5 69t103.5 116t70 170.5t26 225q0 251 -111 404zM571 1602l213 358l158 -125l-225 -233h-146z" />
    <glyph glyph-name="oslashacute" unicode="&#x1ff;" horiz-adv-x="1249" 
d="M131 532q0 113 28 207t75.5 157t111.5 106.5t133.5 63t143.5 19.5q160 0 290 -92l101 123l104 -80l-110 -135q110 -146 110 -369q0 -109 -29.5 -201t-78.5 -155t-113 -108t-133.5 -65.5t-140.5 -20.5q-159 0 -287 94l-94 -115l-107 78l107 131q-111 144 -111 362z
M287 532q0 -138 57 -237l475 582q-86 63 -196 63q-66 0 -124 -23t-106.5 -69.5t-77 -128t-28.5 -187.5zM432 195q84 -66 191 -66q48 0 94.5 14t91.5 46t79 77.5t54.5 114.5t20.5 151q0 143 -58 244zM449 1245l213 359l157 -125l-225 -234h-145z" />
    <glyph glyph-name="uni0218" unicode="&#x218;" horiz-adv-x="1198" 
d="M90 244l113 96q88 -103 181 -154t222 -51q154 0 239 71t85 202q0 61 -19 106.5t-48 73.5t-80 47.5t-99 29.5t-121 19q-76 10 -146 38t-130.5 74t-96.5 117t-36 156q0 187 125 296.5t344 109.5q150 0 251.5 -48t176.5 -135l-115 -100q-44 58 -128 94.5t-204 36.5
q-134 0 -214.5 -65t-80.5 -185q0 -59 24 -101t73 -68.5t106.5 -41.5t140.5 -26q88 -12 161 -39.5t137 -76t100 -128t36 -182.5q0 -209 -132 -318.5t-345 -109.5q-308 0 -520 262zM479 -432l45 309h185l-82 -309h-148z" />
    <glyph glyph-name="uni0219" unicode="&#x219;" horiz-adv-x="1028" 
d="M100 129l101 115q61 -53 143 -85t172 -32q122 0 191 45.5t69 126.5q0 87 -67.5 122t-255.5 54q-65 6 -120 26.5t-100 55.5t-70.5 90.5t-25.5 126.5q0 129 113.5 220t277.5 91q123 0 216 -35.5t147 -91.5l-100 -110q-4 4 -12.5 10.5t-35.5 23t-56 29t-73 23t-88 10.5
q-99 0 -166 -43.5t-67 -114.5q0 -86 61 -118t207 -45q375 -35 375 -324q0 -143 -116.5 -233.5t-301.5 -90.5q-237 0 -418 154zM385 -444l45 309h184l-82 -309h-147z" />
    <glyph glyph-name="uni021A" unicode="&#x21a;" horiz-adv-x="1206" 
d="M96 1303v151h1014v-151h-428v-1303h-160v1303h-426zM475 -438l45 309h185l-82 -309h-148z" />
    <glyph glyph-name="uni021B" unicode="&#x21b;" horiz-adv-x="733" 
d="M61 922v143h168l52 297h116v-297h254v-143h-254v-584q0 -199 178 -199q53 0 76 2v-141q-36 -8 -102 -8q-128 0 -218.5 84.5t-90.5 245.5v600h-179zM309 -438l45 309h185l-82 -309h-148z" />
    <glyph glyph-name="circumflex" unicode="&#x2c6;" horiz-adv-x="614" 
d="M8 1266l221 225h158l219 -221l-82 -76l-215 152l-221 -154z" />
    <glyph glyph-name="caron" unicode="&#x2c7;" horiz-adv-x="735" 
d="M6 1419l80 78l221 -154l219 154l78 -76l-217 -223h-158z" />
    <glyph glyph-name="breve" unicode="&#x2d8;" horiz-adv-x="710" 
d="M8 1362l92 88q51 -60 120.5 -96.5t135.5 -36.5q67 0 133 34t119 99l94 -88q-57 -89 -150.5 -137.5t-195.5 -48.5q-96 0 -192.5 52t-155.5 134z" />
    <glyph glyph-name="dotaccent" unicode="&#x2d9;" horiz-adv-x="239" 
d="M8 1360q0 43 35.5 76.5t77.5 33.5t76 -33t34 -77q0 -46 -33.5 -78.5t-76.5 -32.5t-78 32.5t-35 78.5z" />
    <glyph glyph-name="ring" unicode="&#x2da;" horiz-adv-x="477" 
d="M8 1341q0 92 71 162t161 70q88 0 158.5 -70.5t70.5 -161.5q0 -95 -69 -162t-160 -67q-92 0 -162 67t-70 162zM121 1339q0 -51 33.5 -83.5t85.5 -32.5t84 32.5t32 83.5q0 49 -33 85t-83 36t-84.5 -36.5t-34.5 -84.5z" />
    <glyph glyph-name="ogonek" unicode="&#x2db;" horiz-adv-x="960" 
d="M310 -291q7 53 48 101q22 27 174 198q12 15 36 21.5t42 6.5l19 -1l53 -76l-190 -211q-20 -22 -23 -41t17 -32t65 -13h123v-143h-154q-68 0 -119 27t-74.5 68.5t-16.5 94.5z" />
    <glyph glyph-name="tilde" unicode="&#x2dc;" horiz-adv-x="755" 
d="M8 1157q8 77 69.5 138.5t155.5 68.5q56 3 104.5 -9.5t76 -29.5t59 -30.5t57.5 -12.5q48 3 78.5 27.5t38.5 56.5l101 -35q-2 -58 -55 -120.5t-144 -69.5q-55 -3 -106.5 18t-99 43.5t-93.5 20.5q-54 -3 -93.5 -28t-54.5 -69z" />
    <glyph glyph-name="hungarumlaut" unicode="&#x2dd;" horiz-adv-x="657" 
d="M8 1169l174 357l152 -92l-189 -265h-137zM322 1169l174 357l153 -92l-190 -265h-137z" />
    <glyph glyph-name="Wgrave" unicode="&#x1e80;" horiz-adv-x="1896" 
d="M68 1454h163l326 -1184l336 1084h123l334 -1094l313 1194h166l-389 -1454h-174l-312 1016l-311 -1016h-178zM682 1837l158 125l213 -358h-146z" />
    <glyph glyph-name="wgrave" unicode="&#x1e81;" horiz-adv-x="1546" 
d="M61 1065h166l230 -801l256 801h125l264 -797l215 797h168l-303 -1065h-156l-252 735l-250 -735h-147zM516 1481l158 125l213 -359h-146z" />
    <glyph glyph-name="Wacute" unicode="&#x1e82;" horiz-adv-x="1896" 
d="M68 1454h163l326 -1184l336 1084h123l334 -1094l313 1194h166l-389 -1454h-174l-312 1016l-311 -1016h-178zM858 1616l213 358l158 -125l-225 -233h-146z" />
    <glyph glyph-name="wacute" unicode="&#x1e83;" horiz-adv-x="1546" 
d="M61 1065h166l230 -801l256 801h125l264 -797l215 797h168l-303 -1065h-156l-252 735l-250 -735h-147zM653 1243l213 359l158 -125l-225 -234h-146z" />
    <glyph glyph-name="Wdieresis" unicode="&#x1e84;" horiz-adv-x="1896" 
d="M68 1454h163l326 -1184l336 1084h123l334 -1094l313 1194h166l-389 -1454h-174l-312 1016l-311 -1016h-178zM639 1706q0 42 31.5 73t70.5 31q42 0 73.5 -31t31.5 -73t-31.5 -73t-73.5 -31q-39 0 -70.5 31t-31.5 73zM1065 1706q0 42 31 73t71 31q41 0 73 -31t32 -73
t-32 -73t-73 -31q-40 0 -71 31t-31 73z" />
    <glyph glyph-name="wdieresis" unicode="&#x1e85;" horiz-adv-x="1546" 
d="M61 1065h166l230 -801l256 801h125l264 -797l215 797h168l-303 -1065h-156l-252 735l-250 -735h-147zM455 1370q0 42 31.5 73.5t70.5 31.5q42 0 73.5 -31.5t31.5 -73.5t-31.5 -73t-73.5 -31q-39 0 -70.5 31t-31.5 73zM881 1370q0 42 31 73.5t71 31.5t72 -31.5t32 -73.5
t-32 -73t-72 -31t-71 31t-31 73z" />
    <glyph glyph-name="Ygrave" unicode="&#x1ef2;" horiz-adv-x="1271" 
d="M70 1454h180l387 -696l385 696h180l-487 -879v-575h-158v575zM367 1821l157 125l213 -359h-145z" />
    <glyph glyph-name="ygrave" unicode="&#x1ef3;" horiz-adv-x="1060" 
d="M61 1065h170l297 -856l301 856h170l-550 -1473h-158l158 406v4zM276 1483l158 125l213 -359h-145z" />
    <glyph glyph-name="endash" unicode="&#x2013;" horiz-adv-x="1140" 
d="M160 510v152h819v-152h-819z" />
    <glyph glyph-name="emdash" unicode="&#x2014;" horiz-adv-x="1904" 
d="M242 510v152h1421v-152h-1421z" />
    <glyph glyph-name="quoteleft" unicode="&#x2018;" horiz-adv-x="491" 
d="M113 1454h178l88 -442h-141z" />
    <glyph glyph-name="quoteright" unicode="&#x2019;" horiz-adv-x="491" 
d="M113 1012l88 442h178l-125 -442h-141z" />
    <glyph glyph-name="quotesinglbase" unicode="&#x201a;" horiz-adv-x="454" 
d="M113 2v442h147v-442h-147z" />
    <glyph glyph-name="quotedblleft" unicode="&#x201c;" horiz-adv-x="860" 
d="M113 1454h178l88 -442h-141zM481 1454h178l89 -442h-142z" />
    <glyph glyph-name="quotedblright" unicode="&#x201d;" horiz-adv-x="858" 
d="M113 1012l88 442h178l-125 -442h-141zM479 1012l88 442h178l-124 -442h-142z" />
    <glyph glyph-name="quotedblbase" unicode="&#x201e;" horiz-adv-x="772" 
d="M113 2v442h147v-442h-147zM430 2v442h148v-442h-148z" />
    <glyph glyph-name="dagger" unicode="&#x2020;" horiz-adv-x="1028" 
d="M176 1016v137h268v283h146v-283h262v-137h-262v-662h-146v662h-268z" />
    <glyph glyph-name="daggerdbl" unicode="&#x2021;" horiz-adv-x="1030" 
d="M176 637v137h264v242h-262v137h262v285h148v-285h266v-137h-266v-242h264v-137h-264v-285h-148v285h-264z" />
    <glyph glyph-name="bullet" unicode="&#x2022;" horiz-adv-x="645" 
d="M154 713q0 69 52 120.5t118 51.5q67 0 117.5 -51t50.5 -121q0 -69 -50.5 -117.5t-117.5 -48.5q-66 0 -118 48.5t-52 117.5z" />
    <glyph glyph-name="ellipsis" unicode="&#x2026;" horiz-adv-x="1337" 
d="M123 102q0 46 34.5 79.5t78.5 33.5t79 -33.5t35 -79.5q0 -48 -35 -82t-79 -34t-78.5 34t-34.5 82zM535 102q0 46 34.5 79.5t79.5 33.5t80 -33.5t35 -79.5q0 -48 -35 -82t-80 -34t-79.5 34t-34.5 82zM938 102q0 46 35 79.5t80 33.5q44 0 78 -33.5t34 -79.5q0 -48 -34 -82
t-78 -34q-45 0 -80 34t-35 82z" />
    <glyph glyph-name="guilsinglleft" unicode="&#x2039;" horiz-adv-x="757" 
d="M174 539v90l275 313l108 -92l-231 -268l231 -267l-106 -92z" />
    <glyph glyph-name="guilsinglright" unicode="&#x203a;" horiz-adv-x="753" 
d="M172 324l231 268l-231 266l107 92l276 -315v-90l-274 -314z" />
    <glyph glyph-name="Euro" unicode="&#x20ac;" horiz-adv-x="1425" 
d="M96 469v156h156q-2 29 -2 90q0 38 4 108h-158v154h178q52 240 202 370t398 130q111 0 201.5 -21.5t140 -47t109.5 -67.5l-70 -145q-153 125 -376 125q-181 0 -285 -85t-143 -259h729l-60 -154h-690q-4 -66 -4 -104q0 -32 4 -94h625l-60 -156h-542q43 -171 152.5 -254.5
t289.5 -83.5q101 0 187.5 26.5t183.5 78.5v-168q-152 -93 -383 -93q-250 0 -405 124.5t-206 369.5h-176z" />
    <glyph glyph-name="arrowleft" unicode="&#x2190;" horiz-adv-x="1718" 
d="M164 684l579 584l115 -113l-397 -395h1024v-154h-1024l397 -397l-115 -111z" />
    <glyph glyph-name="arrowup" unicode="&#x2191;" horiz-adv-x="1314" 
d="M59 897l584 580l588 -580l-113 -117l-397 400v-1172h-156v1172l-393 -396z" />
    <glyph glyph-name="arrowright" unicode="&#x2192;" horiz-adv-x="1701" 
d="M203 594v154h1024l-398 393l115 114l580 -581l-580 -590l-115 113l398 397h-1024z" />
    <glyph glyph-name="arrowdown" unicode="&#x2193;" horiz-adv-x="1308" 
d="M59 559l113 115l393 -400v1172h156v-1170l397 398l113 -115l-588 -579z" />
    <glyph glyph-name="minus" unicode="&#x2212;" horiz-adv-x="1308" 
d="M193 596v154h927v-154h-927z" />
    <glyph glyph-name="uni25FC" unicode="&#x25fc;" horiz-adv-x="1064" 
d="M0 0v1065h1065v-1065h-1065z" />
    <glyph glyph-name="uniF6C3" unicode="&#xf6c3;" horiz-adv-x="245" 
d="M8 -395l45 309h185l-82 -309h-148z" />
    <glyph glyph-name="glyph338" horiz-adv-x="786" 
d="M98 303q9 119 92.5 192.5t204.5 73.5q123 0 204 -79t81 -189q0 -37 -7.5 -69.5t-17 -54.5t-31 -49.5t-35.5 -41.5t-45.5 -45t-47.5 -47l-211 -221h405v-138h-590v134l289 305q97 104 121.5 139.5t24.5 87.5q0 56 -40.5 92.5t-99.5 36.5q-136 0 -159 -127h-138z" />
    </font>
</defs>
</svg>
